<?xml version="1.0" encoding="utf-8"?>
<!-- Generator: Adobe Illustrator 22.1.0, SVG Export Plug-In . SVG Version: 6.00 Build 0)  -->
<!DOCTYPE svg PUBLIC "-//W3C//DTD SVG 1.0//EN" "http://www.w3.org/TR/2001/REC-SVG-20010904/DTD/svg10.dtd">
<svg version="1.0" id="Layer_1" xmlns="http://www.w3.org/2000/svg" xmlns:xlink="http://www.w3.org/1999/xlink" x="0px" y="0px"
	 viewBox="0 0 170 170" style="enable-background:new 0 0 170 170;" xml:space="preserve">
<style type="text/css">
	.st0{fill:#577C99;}
	.st1{fill:#9E9E9E;}
	.st2{fill:#6D6D6D;}
	.st3{fill:#004B6C;}
</style>
<path class="st0" d="M82.9,167.6c-17.5,0-37.3-1.3-42.2-11.9c-5.6-12.1-2.4-38.3,1-66.1c0.3-2.1,0.5-4.2,0.8-6.2
	c2.9-23.8,10.1-29.2,17.3-32.8l0,0c9.1-4.5,32.6-6.1,50.4,1.7c12.2,5.3,14.4,19.8,17.3,38l0.5,3.2c4,25.2,5.4,46.9,5.4,55.3
	c0,17.9-8,18.7-35.8,18.7c-1.9,0-4,0-6.2,0.1C88.7,167.6,85.8,167.6,82.9,167.6z M81.3,52.2c-8.2,0-15.3,1.3-19.1,3.2l0,0
	c-4.9,2.4-11.5,5.8-14.3,28.6c-0.3,2.1-0.5,4.1-0.8,6.2c-3.2,25.8-6.5,52.5-1.5,63.2c4.3,9.2,30.3,8.9,45.8,8.7
	c2.3,0,4.4-0.1,6.2-0.1c29.4,0,30.4-1.3,30.4-13.3c0-8.2-1.4-29.5-5.4-54.5l-0.5-3.2c-2.6-16.6-4.6-29.8-14.1-33.9
	C99.7,53.6,89.9,52.2,81.3,52.2z"/>
<g>
	<polygon class="st1" points="64.9,87.2 60.4,106.4 65.5,123.8 106.6,123.5 111.1,104.6 106,86.9 	"/>
	<path class="st2" d="M63.4,126.5l-5.9-20l5.1-22l45.3-0.3l5.9,20.3l-5.2,21.6L63.4,126.5z M63.2,106.3l4.3,14.8l36.9-0.3l3.8-16.2
		l-4.3-15L67,89.9L63.2,106.3z"/>
</g>
<rect x="60.4" y="103.4" transform="matrix(0.9999 -1.220612e-02 1.220612e-02 0.9999 -1.2883 1.0431)" class="st2" width="48.9" height="5.4"/>
<g>
	<path class="st3" d="M22.1,28.9l-2.8,9.2h-6.1L23.5,5.8h7.5l10.5,32.4h-6.3l-2.9-9.2H22.1z M31.3,24.5l-2.5-8c-0.6-2-1.2-4.2-1.6-6
		h-0.1c-0.5,1.9-1,4.1-1.5,6l-2.5,8H31.3z"/>
	<path class="st3" d="M51.9,8.1v6.7h5.6v4.4h-5.6v10.3c0,2.8,0.8,4.3,3,4.3c1,0,1.8-0.1,2.3-0.3l0.1,4.5c-0.9,0.3-2.4,0.6-4.3,0.6
		c-2.2,0-4-0.7-5.1-1.9c-1.2-1.3-1.8-3.5-1.8-6.5v-11h-3.4v-4.4h3.4V9.5L51.9,8.1z"/>
	<path class="st3" d="M68.8,8.1v6.7h5.6v4.4h-5.6v10.3c0,2.8,0.8,4.3,3,4.3c1,0,1.8-0.1,2.3-0.3l0.1,4.5c-0.9,0.3-2.4,0.6-4.3,0.6
		c-2.2,0-4-0.7-5.1-1.9c-1.2-1.3-1.8-3.5-1.8-6.5v-11h-3.4v-4.4H63V9.5L68.8,8.1z"/>
	<path class="st3" d="M92,38.1l-0.4-2.6h-0.1c-1.4,1.8-3.9,3.1-6.9,3.1c-4.7,0-7.3-3.4-7.3-7c0-5.9,5.2-8.9,13.9-8.8v-0.4
		c0-1.5-0.6-4.1-4.8-4.1c-2.3,0-4.7,0.7-6.3,1.7l-1.2-3.8c1.7-1.1,4.8-2.1,8.4-2.1c7.5,0,9.6,4.8,9.6,9.8v8.4c0,2.1,0.1,4.2,0.3,5.6
		H92z M91.2,26.7c-4.2-0.1-8.2,0.8-8.2,4.4c0,2.3,1.5,3.4,3.4,3.4c2.4,0,4.1-1.5,4.6-3.2c0.1-0.4,0.2-0.9,0.2-1.3V26.7z"/>
	<path class="st3" d="M120.4,37.4c-1.2,0.6-3.7,1.2-6.6,1.2c-7.3,0-12-4.7-12-11.9c0-7,4.8-12.5,13-12.5c2.2,0,4.4,0.5,5.7,1.1
		l-1.1,4.4c-1-0.4-2.4-0.9-4.5-0.9c-4.5,0-7.2,3.3-7.2,7.6c0,4.8,3.1,7.5,7.2,7.5c2.1,0,3.5-0.4,4.7-0.9L120.4,37.4z"/>
	<path class="st3" d="M124.8,4h6v13.9h0.1c0.7-1.1,1.7-2,2.9-2.7c1.2-0.7,2.5-1.1,4-1.1c4,0,8.2,2.6,8.2,10.1v13.8H140V25
		c0-3.4-1.2-6-4.5-6c-2.3,0-3.9,1.5-4.6,3.3c-0.2,0.5-0.2,1.1-0.2,1.8v14h-6V4z"/>
	<path class="st3" d="M151.5,34.8c0-2.2,1.5-3.8,3.6-3.8c2.2,0,3.6,1.5,3.6,3.8c0,2.2-1.4,3.8-3.6,3.8C153,38.6,151.5,37,151.5,34.8
		z"/>
</g>
<g>
</g>
<g>
</g>
<g>
</g>
<g>
</g>
<g>
</g>
<g>
</g>
</svg>
