<svg id="Layer_46" data-name="Layer 46" xmlns="http://www.w3.org/2000/svg" viewBox="0 0 12.67 17.04"><defs><style>.cls-1{fill:#b2c9d4;}.cls-2{fill:#004c6f;}</style></defs><path class="cls-1" d="M13.39.29a1.12,1.12,0,0,0-1.24.9H3.5v.46h8.66A1.12,1.12,0,0,0,13,2.5v8.89h.46V2.51A1.13,1.13,0,0,0,13.39.29Z" transform="translate(-1.7 -0.28)"/><path class="cls-2" d="M13.39,10.3a.88.88,0,0,0-.23,0L11,4.81a1.1,1.1,0,0,0,.35-.68,1.13,1.13,0,0,0-1-1.26,1.16,1.16,0,0,0-1,.38L3.94,1.47a1.12,1.12,0,0,0-2.23-.2,1.11,1.11,0,0,0,.94,1.24v7.8a1.12,1.12,0,1,0,1.29,1.25,1.1,1.1,0,0,0-.23-.83L4.86,7.8l.17,0a1.12,1.12,0,0,0,1.25-1,1,1,0,0,0,0-.43L9.38,4.69a1.1,1.1,0,0,0,.73.41,1.2,1.2,0,0,0,.5,0l2.1,5.38a1.13,1.13,0,0,0-.57.85,1.12,1.12,0,1,0,1.25-1Zm-10,.12-.23-.08V2.49l.1,0L4.54,5.79a1.12,1.12,0,0,0-.48.79,1.11,1.11,0,0,0,.39,1ZM6,6a1.1,1.1,0,0,0-.73-.41,1.28,1.28,0,0,0-.34,0L3.61,2.21a1.19,1.19,0,0,0,.21-.29L9.17,3.67a1.16,1.16,0,0,0,0,.18,1.22,1.22,0,0,0,0,.43Z" transform="translate(-1.7 -0.28)"/><path class="cls-2" d="M10.52,11.14a.81.81,0,0,0-1-.46l-1.43.56L6.9,8.3a.61.61,0,0,0-1.14.45l1.15,2.94h0l.42,1.07.29.67h0l-1.22-.54a.68.68,0,0,0-.89.35.67.67,0,0,0,.35.89l.2.09H6l3.25,1.44,2.6-1Z" transform="translate(-1.7 -0.28)"/><rect class="cls-2" x="7.3" y="17.3" width="0.05" height="0.02" transform="matrix(0.93, -0.36, 0.36, 0.93, -7.51, 3.58)"/></svg>