<?xml version="1.0" encoding="utf-8"?>
<!-- Generator: Adobe Illustrator 25.4.1, SVG Export Plug-In . SVG Version: 6.00 Build 0)  -->
<svg version="1.1" id="Layer_1" xmlns="http://www.w3.org/2000/svg" xmlns:xlink="http://www.w3.org/1999/xlink" x="0px" y="0px"
	 viewBox="0 0 481.9 141.7" style="enable-background:new 0 0 481.9 141.7;" xml:space="preserve">
<style type="text/css">
	.st0{fill:#FFFFFF;}
	.st1{fill:#E0EFE7;}
	.st2{fill:#665E55;}
	.st3{fill:#FFE6C9;}
	.st4{fill:#DCE0E0;}
	.st5{fill:none;}
	.st6{fill:#FFD7A6;}
	.st7{fill:#FFD9AA;}
</style>
<path class="st0" d="M239.4,85.3c0.4-2.5,0.8-5,1.1-7.5c0.2-1.3,0.3-2.6,0.4-4c0-0.5,0.1-1.1,0-1.6c0-0.4,0-0.7-0.3-1.1
	s-0.9-0.6-1.4-0.8c-1-0.3-2-0.4-3-0.4c-2.3-0.1-4.6,0.2-6.9,0.5c-0.3,0-0.7,0.1-1,0.1c-0.1,0-0.3,0-0.4,0c-0.5,0-1,0.2-1.1,0.8
	c-0.1,0.3,0.1,0.6,0.1,1c0,0.2,0,0.4,0,0.6c0.1,2.3,0.2,4.6,0.4,6.9c0.2,2.7,0.5,5.5,1.2,8.2c0.1,0.3,0.1,0.6,0.2,0.9
	c0.1,0.2,0.2,0.5,0.2,0.7s0.1,0.4,0.2,0.6c0.1,0.2,0.2,0.4,0.3,0.6c0.4,0.7,0.8,1.4,1.4,2c0.9,0.9,2.1,1.6,3.3,1.2
	c0.7-0.2,1.4-0.7,1.9-1.2c0.8-0.8,1.5-1.7,2-2.6c0.1-0.2,0.3-0.5,0.4-0.7c0.1-0.2,0.4-0.5,0.4-0.8s0.1-0.7,0.1-1
	C239.2,86.9,239.3,86.1,239.4,85.3z"/>
<path class="st1" d="M230.8,71.1c0,1.3,0.3,2.5,0.6,3.7c0.1,0.4,0.4,0.8,0.4,1.2c0,0.5-0.5,0.9-1,0.7c-0.4-0.2-0.4-0.7-0.4-1
	c-0.1-0.7-0.2-1.3-0.2-2c0-0.6,0-1.3,0.1-1.9c0-0.2,0-0.4,0.1-0.6C230.3,70.8,230.8,70.8,230.8,71.1z"/>
<path class="st1" d="M237.2,70.5c0.4,2.5,0.6,5.1,0.5,7.6c0,0.4-0.3,0.8-0.8,0.7c-0.5-0.1-0.6-0.5-0.6-0.9c0.2-1.2,0.3-2.5,0.4-3.7
	c0-0.9,0-1.7,0-2.6c0-0.4,0-0.7,0-1.1C236.7,70.2,237.1,70.1,237.2,70.5z"/>
<path class="st1" d="M238.5,89.5c0.1-0.2,0.4-0.5,0.4-0.8s0.1-0.7,0.1-1c0.1-0.8,0.2-1.6,0.4-2.4c0.4-2.5,0.8-5,1.1-7.5
	c0.2-1.3,0.3-2.6,0.4-4c0-0.4,0.1-0.8,0.1-1.2c0-0.1,0-0.3,0-0.4c0-0.4,0-0.7-0.3-1.1s-0.9-0.6-1.4-0.8h-0.1
	c0.1,0.1,0.2,0.2,0.3,0.3c0.3,0.3,0.2,0.7,0.3,1.1c0,0.5,0,1.1,0,1.6c-0.1,1.3-0.3,2.6-0.4,4c-0.3,2.5-0.7,5-1.1,7.5
	c-0.1,0.8-0.2,1.6-0.4,2.4c-0.1,0.3-0.1,0.7-0.1,1c0,0.1,0,0.1-0.1,0.2c-0.1,0.7-0.2,1.7-0.2,2.8c0.2-0.3,0.4-0.6,0.6-1
	C238.3,89.9,238.4,89.7,238.5,89.5z"/>
<path class="st2" d="M233.5,94.4L233.5,94.4c-1.2,0-2.2-0.8-2.8-1.4c-0.5-0.5-1-1.2-1.4-2c-0.1-0.2-0.2-0.4-0.3-0.6v-0.1
	c-0.1-0.2-0.2-0.3-0.2-0.6c0-0.1-0.1-0.3-0.1-0.4s-0.1-0.2-0.1-0.2c-0.1-0.3-0.2-0.6-0.2-0.9c-0.7-2.8-0.9-5.6-1.2-8.2
	c-0.2-2.2-0.3-4.6-0.4-6.9v-0.6c0-0.1,0-0.2,0-0.3c0-0.2-0.1-0.4,0-0.7c0.1-0.6,0.6-1,1.4-1c0.1,0,0.2,0,0.3,0s0.1,0,0.2,0
	c0.3,0,0.7-0.1,1-0.1c2-0.3,4.5-0.5,6.9-0.5c0.9,0,2.1,0.1,3.1,0.4c0.5,0.1,1.1,0.4,1.5,0.8c0.3,0.3,0.3,0.7,0.3,1
	c0,0.1,0,0.1,0,0.2c0,0.5,0,1,0,1.5v0.1c-0.1,1.4-0.3,2.8-0.4,4c-0.3,2.2-0.6,4.9-1.1,7.5l-0.1,0.8c-0.1,0.5-0.2,1-0.2,1.6
	c-0.1,0.3-0.1,0.6-0.1,1c0,0.3-0.2,0.5-0.3,0.7c0,0.1-0.1,0.1-0.1,0.2c-0.1,0.2-0.3,0.5-0.4,0.7c-0.7,1.2-1.4,2-2.1,2.7
	c-0.7,0.6-1.3,1-2,1.2C234,94.4,233.7,94.4,233.5,94.4z M228,70.9c-0.3,0-0.8,0.1-0.9,0.5c0,0.2,0,0.3,0,0.5c0,0.1,0.1,0.3,0.1,0.4
	v0.6c0.1,2.3,0.2,4.6,0.4,6.9c0.2,2.6,0.5,5.4,1.2,8.1c0.1,0.3,0.1,0.6,0.2,0.9c0,0.1,0,0.1,0.1,0.2c0.1,0.2,0.1,0.4,0.1,0.6
	c0,0.1,0.1,0.2,0.1,0.3V90c0.1,0.2,0.2,0.4,0.3,0.6c0.4,0.8,0.9,1.4,1.3,1.9c0.5,0.6,1.4,1.2,2.4,1.2l0,0c0.2,0,0.4,0,0.7-0.1
	c0.6-0.2,1.2-0.5,1.8-1.1c0.7-0.6,1.3-1.4,2-2.6c0.1-0.2,0.3-0.5,0.4-0.7c0-0.1,0.1-0.1,0.1-0.2c0.1-0.2,0.2-0.3,0.2-0.5
	c0-0.3,0.1-0.7,0.1-1c0.1-0.5,0.2-1,0.2-1.6l0.1-0.8c0.4-2.6,0.8-5.3,1.1-7.5c0.2-1.2,0.3-2.6,0.4-4v-0.1c0-0.5,0.1-1,0-1.5
	c0-0.1,0-0.2,0-0.2c0-0.3,0-0.5-0.2-0.7c-0.3-0.4-0.8-0.5-1.2-0.7c-1-0.3-2-0.4-3-0.4c-2.4-0.1-4.8,0.2-6.8,0.5
	c-0.3,0-0.7,0.1-1,0.1c-0.1,0-0.2,0-0.3,0C228.1,70.9,228,70.9,228,70.9z"/>
<path class="st0" d="M219.2,93.4c0,0,1,0,2.9-3.9c0-0.5,0-0.8,0-0.8c0.8-2.3,1.3-17.1,1.3-17.1c-0.2-2.4-5.7-1.3-5.7-1.3
	c-7.5-0.1-7.1,2.1-7.1,2.1c-0.5,4.8,0.7,11.1,1.3,14C213.2,89.9,215.4,94.4,219.2,93.4z"/>
<path class="st0" d="M222.1,88.7c0.8-2.3,1.3-17.1,1.3-17.1l0,0C223.4,71.8,222.9,86.4,222.1,88.7L222.1,88.7z"/>
<path class="st0" d="M223.3,71.3L223.3,71.3L223.3,71.3z"/>
<path class="st0" d="M223.3,71.4L223.3,71.4L223.3,71.4z"/>
<path class="st3" d="M223.3,71.3C223.3,71.3,223.3,71.4,223.3,71.3C223.3,71.4,223.3,71.3,223.3,71.3z"/>
<path class="st3" d="M223.4,71.5L223.4,71.5L223.4,71.5L223.4,71.5z"/>
<path class="st3" d="M223.3,71.3c-0.2-0.7-0.8-1.1-1.7-1.2l0,0C222.5,70.3,223.1,70.6,223.3,71.3z"/>
<path class="st1" d="M222.1,88.7L222.1,88.7L222.1,88.7c0.8-2.3,1.3-16.9,1.3-17.1c0,0,0,0,0-0.1c0,0,0,0,0-0.1v-0.1l0,0
	c-0.2-0.7-0.8-1-1.6-1.2c0.4,0.2,0.6,0.6,0.6,1c0,0-1.3,19.3-1.2,20.3c0.3-0.5,0.6-1.1,1-1.9C222.1,89,222.1,88.7,222.1,88.7z"/>
<path class="st1" d="M213.9,70.9c0,0,0.1,0.4,0.2,1.1c0.1,0.7,0.3,1.6,0.4,2.5c0,0.2,0.1,0.5,0.1,0.7s0,0.4,0.1,0.7
	c0,0.2,0,0.4,0,0.6s0,0.4,0,0.6s0,0.3,0,0.5c0,0.1,0,0.3,0,0.4c0,0.2-0.1,0.3-0.1,0.3c0,0.2-0.3,0.4-0.5,0.3c-0.2,0-0.4-0.3-0.3-0.5
	l0,0l0,0c0,0,0-0.1,0.1-0.3c0-0.1,0-0.2,0.1-0.3c0-0.1,0-0.3,0.1-0.4c0-0.2,0-0.3,0-0.5s0-0.4,0-0.6s0-0.4,0-0.6s0-0.4,0-0.7
	c-0.1-0.9-0.2-1.8-0.2-2.5c-0.1-0.7-0.1-1.1-0.1-1.1c0-0.1,0.1-0.2,0.2-0.2C213.8,70.7,213.9,70.8,213.9,70.9z"/>
<path class="st1" d="M218.4,70.7c0,0,0,0.1,0,0.4c0,0.1,0,0.3,0,0.4c0,0.2,0,0.3,0,0.5s0,0.4,0,0.6s0,0.5,0,0.7c0,0.5-0.1,1-0.1,1.5
	s-0.1,1-0.1,1.5c0,0.2,0,0.5,0,0.7s0,0.4,0,0.6s0,0.4,0.1,0.5c0,0.1,0,0.3,0.1,0.4c0.1,0.2,0.1,0.3,0.1,0.3l0,0
	c0.1,0.3-0.1,0.6-0.4,0.6c-0.3,0.1-0.6-0.1-0.6-0.4l0,0c0,0,0-0.1-0.1-0.4c0-0.1,0-0.3,0-0.5s0-0.4,0-0.6s0-0.4,0-0.7
	c0-0.2,0-0.5,0.1-0.7c0.1-0.5,0.1-1,0.2-1.6c0.1-0.5,0.2-1,0.2-1.5c0-0.2,0.1-0.5,0.1-0.7s0-0.4,0.1-0.6c0-0.2,0-0.4,0-0.5
	c0-0.2,0-0.3,0-0.4c0-0.2,0-0.4,0-0.4c0-0.1,0.1-0.2,0.2-0.2C218.3,70.5,218.4,70.6,218.4,70.7z"/>
<path class="st2" d="M218.2,93.6L218.2,93.6c-3.5,0-5.4-4.2-6.5-7.4c-0.7-3.3-1.7-9.4-1.3-14.1c0-0.1,0-0.5,0.3-0.8
	c0.6-0.7,2.2-1.5,6.7-1.5h0.3c0.2,0,1.4-0.3,2.6-0.3c2.6,0,3.3,1,3.4,1.8c0,0.6-0.5,14.8-1.3,17.2v0.8v0.1c-1.7,3.6-2.8,4-3.1,4.1
	C219,93.6,218.6,93.6,218.2,93.6z M217.4,70.3c-4.4,0-5.8,0.8-6.2,1.3c-0.2,0.3-0.2,0.5-0.2,0.5s0,0,0,0.1
	c-0.5,4.8,0.7,11.3,1.3,13.9c1.7,4.7,3.7,7,6,7l0,0c0.3,0,0.7,0,1-0.1c0,0,0,0,0.1,0c0,0,0.9-0.2,2.6-3.7v-0.8v-0.1
	c0.8-2.2,1.3-16.9,1.3-17.1c-0.1-1-1.6-1.3-2.8-1.3c-1.3,0-2.5,0.2-2.5,0.3c0,0,0,0-0.1,0L217.4,70.3z"/>
<path class="st0" d="M200,71.4c-2.3-4.4-9.5,3.1-9.5,3.1c-7.4,4.3-3.3,17.2-1.7,21.5c2.5,3.6,7.2,6,15.2-1.8
	c1-5.1,1.8-10.5,1.8-10.5C206.5,76.9,200,71.4,200,71.4z"/>
<path class="st1" d="M192.2,75.3C192.2,75.3,192.2,75.4,192.2,75.3c0,0.1,0,0.2,0,0.3c0,0.2-0.1,0.4-0.1,0.7c0,0.3,0,0.7,0,1.1
	s0,0.8,0,1.2c0,0.2,0,0.4,0.1,0.6c0,0.2,0.1,0.4,0.1,0.6s0.1,0.4,0.1,0.5c0,0.2,0.1,0.3,0.1,0.5s0.1,0.3,0.1,0.4s0.1,0.2,0.1,0.3
	c0,0.2,0.1,0.3,0.1,0.3l0,0c0.1,0.2-0.1,0.5-0.3,0.6s-0.5-0.1-0.6-0.3l0,0c0,0,0-0.1-0.1-0.3c0-0.1,0-0.2-0.1-0.3
	c0-0.1,0-0.3-0.1-0.4c0-0.2-0.1-0.3-0.1-0.5s0-0.4-0.1-0.6c0-0.2,0-0.4,0-0.6s0-0.4,0-0.6c0-0.4,0-0.9,0-1.3s0.1-0.8,0.1-1.1
	c0-0.3,0.1-0.6,0.1-0.8c0-0.1,0-0.2,0-0.2v-0.1c0-0.1,0.2-0.2,0.3-0.2C192.1,75.1,192.2,75.2,192.2,75.3L192.2,75.3z"/>
<path class="st1" d="M199.3,73c0,0,0,0.1,0.1,0.2c0,0.2,0.1,0.4,0.2,0.7c0.1,0.3,0.2,0.6,0.2,1c0.1,0.4,0.2,0.9,0.3,1.3
	c0.4,2,0.7,4.6,0.9,7.3c0,0.7,0.1,1.3,0.1,2s0,1.3,0,2c0,0.6,0,1.2-0.1,1.8c0,0.1,0,0.3,0,0.4s0,0.3,0,0.4c0,0.3-0.1,0.5-0.1,0.8
	s-0.1,0.5-0.1,0.7s-0.1,0.5-0.2,0.7c0,0.2-0.1,0.4-0.2,0.6c0,0.1-0.1,0.2-0.1,0.3c0,0.1-0.1,0.2-0.1,0.2c-0.1,0.1-0.1,0.3-0.2,0.4
	c-0.1,0.1-0.1,0.2-0.1,0.3c-0.1,0.2-0.1,0.2-0.1,0.2c-0.2,0.4-0.7,0.6-1.1,0.4c-0.4-0.2-0.6-0.7-0.4-1.1l0,0v-0.1c0,0,0-0.1,0.1-0.2
	c0-0.1,0.1-0.1,0.1-0.2s0.1-0.2,0.1-0.3c0-0.1,0.1-0.1,0.1-0.2s0.1-0.1,0.1-0.2c0.1-0.2,0.1-0.3,0.2-0.5c0.1-0.2,0.1-0.4,0.2-0.6
	c0.1-0.2,0.1-0.4,0.2-0.7c0-0.2,0.1-0.5,0.1-0.7c0-0.1,0-0.3,0.1-0.4c0-0.1,0-0.3,0.1-0.4c0.1-0.6,0.1-1.1,0.2-1.7
	c0-0.6,0.1-1.2,0.1-1.9c0-0.6,0-1.3,0-2c0-2.6-0.3-5.3-0.5-7.2c-0.1-0.5-0.1-0.9-0.2-1.3c-0.1-0.4-0.1-0.7-0.2-1
	c-0.1-0.3-0.1-0.5-0.1-0.6s-0.1-0.2-0.1-0.2l0,0c0-0.1,0-0.3,0.2-0.3C199.1,72.8,199.2,72.8,199.3,73z"/>
<path class="st0" d="M205.5,85.7c-0.3,1.8-0.8,4.7-1.3,7.6C204.7,90.4,205.2,87.5,205.5,85.7z"/>
<path class="st0" d="M205.5,85.7L205.5,85.7L205.5,85.7z"/>
<path class="st3" d="M205.5,85.7L205.5,85.7L205.5,85.7z"/>
<path class="st3" d="M205.8,83.7c0,0-0.1,0.8-0.3,2C205.7,84.4,205.8,83.7,205.8,83.7c0-0.3,0-0.6,0-0.9
	C205.9,83,205.8,83.4,205.8,83.7z"/>
<path class="st1" d="M205.9,82.7c0-6.4-5.9-11.4-5.9-11.4c-0.4-0.9-1.1-1.3-1.8-1.4c0.3,0.2,0.5,0.5,0.7,0.9c0,0,6.5,5.5,5.9,12.3
	c0,0-0.9,5.4-1.8,10.5c-0.1,0.6-0.2,1.3-0.4,1.9c0.5-0.4,1-0.9,1.5-1.4c0.1-0.3,0.1-0.6,0.2-1c0.5-2.9,1-5.8,1.3-7.6l0,0l0,0
	c0.2-1.2,0.3-2,0.3-2C205.8,83.4,205.9,83,205.9,82.7z"/>
<path class="st2" d="M194.5,99.7L194.5,99.7c-2.3,0-4.3-1.2-6-3.5c0,0,0,0,0-0.1c-1.5-4-5.8-17.4,1.8-21.8c0.4-0.4,4.5-4.6,7.5-4.6
	c1.1,0,1.9,0.5,2.4,1.5c0.6,0.5,6.5,5.9,5.9,12.5c0,0.1-0.9,5.5-1.8,10.6c0,0.1,0,0.1-0.1,0.2C200.6,98,197.3,99.7,194.5,99.7z
	 M189,95.9c1.5,2.1,3.3,3.2,5.5,3.2l0,0c2.7,0,5.8-1.7,9.2-5c0.9-5,1.8-10.4,1.8-10.4c0.6-6.5-5.7-12-5.8-12.1l-0.1-0.1
	c-0.4-0.8-1-1.2-1.9-1.2c-2.9,0-7.1,4.4-7.2,4.4c0,0,0,0-0.1,0C183.4,79,187.5,92,189,95.9z"/>
<path class="st0" d="M179.3,74.3c-7.1-8.7-12.1-1.7-12.1-1.7c-1.9,2.1-4.3,4.8-4.3,4.8c-4.6,2.5,0.3,12.6,1.5,14.9
	c3.9,2.6,10.4,4.5,15.5-0.4c1.1-2.5,2.9-9.6,2.9-9.6C183.9,79.3,179.3,74.3,179.3,74.3z"/>
<path class="st1" d="M182.8,82.3c1.1-3.1-3.5-8-3.5-8c-1.4-1.7-2.8-2.8-4-3.5c0.8,0.6,1.6,1.5,2.5,2.5c0,0,4.5,4.9,3.5,8
	c0,0-1.8,7.1-2.9,9.6c-0.2,0.4-0.3,0.7-0.5,0.8c0,0,0,0.6-0.1,1.7c0.7-0.4,1.4-0.9,2-1.5C181,89.4,182.8,82.3,182.8,82.3z"/>
<path class="st1" d="M165.8,89.5c0,0,0.1,0.1,0.4,0.4c0.1,0.1,0.3,0.3,0.4,0.4c0.2,0.2,0.3,0.4,0.5,0.6s0.4,0.4,0.6,0.6
	c0.1,0.1,0.2,0.2,0.4,0.3c0.1,0.1,0.3,0.2,0.4,0.3c0.1,0.1,0.3,0.2,0.4,0.2c0.2,0.1,0.3,0.1,0.5,0.2s0.3,0.1,0.5,0.2l0.3,0.1h0.3
	c0.2,0,0.4,0.1,0.5,0.1c0.2,0,0.4,0,0.6,0c0.4,0,0.7,0,1.1,0c0.4,0,0.7,0,1,0s0.6-0.1,0.9-0.1c0.3,0,0.5,0,0.8-0.1
	c0.2,0,0.4-0.1,0.6-0.1c0.3,0,0.5-0.1,0.5-0.1s-0.2,0-0.5,0.1c-0.2,0-0.4,0.1-0.6,0.1c-0.2,0.1-0.5,0.1-0.8,0.2
	c-0.3,0-0.6,0.1-0.9,0.2c-0.3,0-0.7,0.1-1,0.1c-0.4,0-0.7,0.1-1.1,0.1c-0.2,0-0.4,0-0.6,0c-0.2,0-0.4,0-0.6,0h-0.3l-0.3-0.1
	c-0.2,0-0.4-0.1-0.6-0.1c-0.2-0.1-0.4-0.1-0.6-0.2c-0.2-0.1-0.4-0.1-0.5-0.2c-0.2-0.1-0.3-0.2-0.5-0.3c-0.2-0.1-0.3-0.2-0.4-0.3
	c-0.3-0.2-0.5-0.4-0.8-0.6c-0.2-0.2-0.4-0.4-0.6-0.5c-0.2-0.2-0.3-0.3-0.4-0.4c-0.3-0.2-0.4-0.3-0.4-0.3l0,0
	c-0.2-0.2-0.3-0.6-0.1-0.8C165.2,89.3,165.6,89.2,165.8,89.5C165.8,89.4,165.8,89.5,165.8,89.5z"/>
<path class="st2" d="M172.5,95.3L172.5,95.3c-3.7,0-6.7-1.7-8.2-2.7h-0.1v-0.1c-1.5-2.9-6.1-12.7-1.4-15.2c0.3-0.3,2.5-2.8,4.2-4.8
	c0.1-0.1,2-2.7,5.3-2.7c2.4,0,4.9,1.5,7.3,4.5c0.2,0.2,4.6,5.1,3.5,8.3c-0.1,0.3-1.8,7.1-2.9,9.6l-0.1,0.1
	C177.9,94.3,175.4,95.3,172.5,95.3z M164.6,92.2c2.4,1.6,5.3,2.6,7.9,2.6c2.7,0,5.1-1,7.2-2.9c1.1-2.5,2.8-9.4,2.8-9.5
	c1-2.9-3.4-7.7-3.4-7.7c-2.3-2.8-4.6-4.3-6.9-4.3c-2.9,0-4.8,2.5-4.8,2.5c-1.9,2.1-4.3,4.8-4.3,4.8l-0.1,0.1
	C158.7,80.1,163.5,90,164.6,92.2z"/>
<path class="st0" d="M151.3,71.5c-2.9-3.2-5.7-0.3-5.7-0.3c-1.2,0.7-5.3,4.9-5.3,4.9c-4.3,2.1-2.3,8.4-0.5,12.3
	c3.4,5.2,8.8,10.7,16,2.9c1-3.6,2.3-10.6,2.3-10.6C159.3,76.7,151.8,72,151.3,71.5z"/>
<path class="st1" d="M144,90.6c0,0,0.4,0.3,1,0.6c0.1,0.1,0.3,0.2,0.5,0.3c0.2,0.1,0.4,0.2,0.5,0.3c0.1,0,0.2,0.1,0.3,0.1
	s0.2,0.1,0.3,0.1s0.2,0.1,0.3,0.1l0.3,0.1c0.2,0,0.4,0.1,0.6,0.1h0.2c0.1,0,0.1,0,0.2,0c0.1,0,0.2,0,0.3,0s0.2,0,0.3-0.1h0.1h0.1
	c0.2-0.1,0.4-0.1,0.5-0.2c0.2-0.1,0.3-0.1,0.4-0.2c0.1-0.1,0.2-0.1,0.3-0.1c0.2-0.1,0.3-0.1,0.3-0.1l0,0c0.4-0.2,0.9-0.1,1.1,0.2
	c0.2,0.3,0.1,0.7-0.3,0.9h-0.1c0,0-0.1,0-0.4,0.1c-0.1,0-0.2,0.1-0.4,0.1s-0.3,0.1-0.6,0.1c-0.2,0.1-0.4,0.1-0.7,0.1
	c-0.1,0-0.1,0-0.2,0c-0.1,0-0.1,0-0.2,0c-0.1,0-0.3,0-0.4,0c-0.1,0-0.3,0-0.4,0c-0.1,0-0.1,0-0.2,0c-0.1,0-0.1,0-0.2,0
	c-0.3,0-0.6-0.1-0.9-0.2c-0.1,0-0.3-0.1-0.4-0.1c-0.1-0.1-0.3-0.1-0.4-0.2c-0.1-0.1-0.2-0.1-0.3-0.2s-0.2-0.1-0.3-0.2
	c-0.2-0.1-0.4-0.3-0.5-0.4c-0.2-0.1-0.3-0.2-0.5-0.4c-0.5-0.4-0.9-0.7-0.9-0.7l0,0c-0.1-0.1-0.1-0.2,0-0.3
	C143.7,90.5,143.9,90.5,144,90.6z"/>
<path class="st1" d="M155.9,91.3c1-3.6,2.3-10.6,2.3-10.6c1.2-4-6.3-8.7-6.8-9.2c-0.3-0.3-0.5-0.5-0.8-0.7l0,0
	c-0.1-0.1-0.2-0.1-0.2-0.2l0,0c-0.1,0-0.2-0.1-0.2-0.1l0,0c-0.1,0-0.2-0.1-0.2-0.1l0,0c-0.2-0.1-0.5-0.2-0.7-0.2c0,0,0,0-0.1,0l0,0
	c0.3,0.2,0.6,0.5,0.9,0.8c0.4,0.5,7.9,5.2,6.8,9.2c0,0-1.7,9.6-2.8,12.1c0,0,0,0.4,0,1.1C154.5,92.7,155.1,92.1,155.9,91.3z"/>
<path class="st2" d="M148.7,95.8L148.7,95.8c-3.1,0-6.1-2.3-9.2-6.9c-3-6.5-2.8-11,0.5-12.7c0.4-0.4,4.1-4.1,5.3-4.8
	c0.2-0.2,1.4-1.3,3-1.3c1.1,0,2.2,0.5,3.1,1.6c0.1,0.1,0.3,0.3,0.6,0.5c2,1.5,7.3,5.4,6.2,9c0,0-1.2,7-2.3,10.6c0,0,0,0.1-0.1,0.1
	C153.6,94.4,151.1,95.8,148.7,95.8z M148.4,70.6c-1.5,0-2.6,1.1-2.6,1.2c0,0,0,0-0.1,0c-1.1,0.6-5.2,4.8-5.2,4.8s0,0-0.1,0.1
	c-4.1,2.1-2,8.4-0.3,12c2.9,4.4,5.7,6.6,8.7,6.6c2.2,0,4.5-1.3,6.8-3.8c1-3.5,2.2-10.4,2.2-10.5c0.9-3.2-4.3-7.1-6-8.4
	c-0.4-0.3-0.6-0.5-0.7-0.5C150.3,71,149.3,70.6,148.4,70.6z"/>
<path class="st0" d="M73.2,79.1c0.2-1.2-0.1-2.5-0.7-3.7c-7-6.3-11-2.6-11-2.6c-3.2,3-3.7,1.3-3.7,1.3c-1-1.6-4-1.4-7.1-0.6
	C50.3,73.8,50,74,50,74c-5.3,3.6-2.8,11.8-1.8,14.4c3.3,1.8,6.7,2.9,8.2,2.1c0,0,2-1.6,7.5,0.1c0,0,2.7,0.9,7.1-0.4
	c0.3-1.5,0.6-2.8,0.6-2.8C73.2,84,73.2,79.1,73.2,79.1z"/>
<path class="st0" d="M73.3,78.1c0,0.3,0,0.6-0.1,0.9c0,0,0,5-1.7,8.3c0,0-0.4,1.3-0.6,2.9l0,0c0.3-1.5,0.6-2.8,0.6-2.8
	c1.7-3.3,1.7-8.3,1.7-8.3C73.3,78.8,73.3,78.5,73.3,78.1z"/>
<path class="st1" d="M73.2,79.1c0.1-0.3,0.1-0.6,0.1-0.9c0-0.9-0.4-1.9-0.8-2.8c-0.6-0.5-1.2-1-1.7-1.4c0.9,1.4,1.6,3.1,1.3,4.8
	c0,0,0,5-1.7,8.3c0,0-0.5,1.7-0.8,3.5c0.4-0.1,0.8-0.2,1.3-0.3c0.3-1.6,0.6-2.9,0.6-2.9C73.2,84,73.2,79.1,73.2,79.1z"/>
<path class="st4" d="M57.8,74.1c0,0,0.6,1.7,3.7-1.3c0,0,4-3.8,11,2.6c-1.1-2.2-2.8-3.9-2.8-3.9c-3.3-3.8-9.3,0.8-9.3,0.8
	c-0.8,1-2.2-0.5-2.2-0.5c-2.1-2.1-5.9,0.4-7.5,1.6C53.8,72.7,56.8,72.5,57.8,74.1z"/>
<path class="st1" d="M61.9,87.3c0,0,0.1,0.1,0.3,0.2c0.1,0.1,0.2,0.1,0.4,0.2c0.1,0.1,0.3,0.2,0.5,0.3c0.2,0.1,0.4,0.2,0.6,0.3
	c0.1,0,0.2,0.1,0.3,0.1s0.2,0.1,0.3,0.1c0.1,0,0.2,0.1,0.4,0.1c0.1,0,0.3,0,0.4,0.1c0.1,0,0.3,0,0.4,0h0.2h0.2c0.1,0,0.3,0,0.4,0
	s0.3,0,0.4-0.1c0.3,0,0.5-0.1,0.8-0.2s0.5-0.1,0.8-0.2c0.2-0.1,0.5-0.1,0.7-0.2s0.4-0.1,0.6-0.2s0.3-0.1,0.4-0.1
	c0.2-0.1,0.4-0.1,0.4-0.1s-0.1,0.1-0.4,0.2c-0.1,0.1-0.3,0.1-0.4,0.2c-0.2,0.1-0.3,0.1-0.5,0.2s-0.4,0.2-0.7,0.3
	c-0.2,0.1-0.5,0.2-0.7,0.3c-0.3,0.1-0.5,0.2-0.8,0.2c-0.1,0-0.3,0.1-0.4,0.1s-0.3,0-0.4,0.1h-0.2h-0.2c-0.1,0-0.3,0-0.4,0
	s-0.3,0-0.4,0s-0.3,0-0.4-0.1c-0.1,0-0.3-0.1-0.4-0.1s-0.3-0.1-0.4-0.1c-0.2-0.1-0.5-0.2-0.6-0.3c-0.2-0.1-0.4-0.2-0.5-0.3
	c-0.1-0.1-0.3-0.1-0.4-0.2c-0.2-0.1-0.3-0.2-0.3-0.2l0,0c-0.2-0.1-0.3-0.3-0.2-0.5C61.4,87.3,61.7,87.2,61.9,87.3L61.9,87.3z"/>
<path class="st1" d="M58.5,75.9c0,0-0.2,0.5-0.4,1.2c-0.1,0.2-0.1,0.4-0.2,0.6c-0.1,0.2-0.1,0.4-0.2,0.7c0,0.1-0.1,0.2-0.1,0.4
	c0,0.1,0,0.2-0.1,0.4c0,0.1,0,0.3,0,0.4V80c0,0.3,0,0.5,0,0.8V81c0,0.1,0,0.1,0,0.2s0,0.2,0.1,0.4c0,0.1,0,0.2,0.1,0.4
	c0,0.1,0,0.1,0,0.2s0,0.1,0,0.2c0.1,0.2,0.1,0.4,0.2,0.6c0.1,0.2,0.1,0.4,0.2,0.5c0.1,0.1,0.1,0.3,0.1,0.4c0.1,0.2,0.1,0.3,0.1,0.3
	v0.1c0.2,0.5,0.1,1.1-0.1,1.3c-0.2,0.3-0.5,0.1-0.7-0.3v-0.1c0,0,0-0.2-0.1-0.4c0-0.1-0.1-0.3-0.1-0.5s-0.1-0.4-0.2-0.7
	c-0.1-0.2-0.1-0.5-0.2-0.8c0-0.1,0-0.1,0-0.2s0-0.2,0-0.2c0-0.2,0-0.3-0.1-0.5c0-0.2,0-0.3,0-0.5c0-0.1,0-0.2,0-0.3
	c0-0.1,0-0.2,0-0.3c0-0.3,0-0.7,0-1c0-0.2,0-0.3,0.1-0.5c0-0.2,0.1-0.3,0.1-0.5s0.1-0.3,0.1-0.4s0.1-0.3,0.1-0.4
	c0.1-0.3,0.2-0.5,0.2-0.7c0.1-0.2,0.2-0.4,0.2-0.6c0.3-0.7,0.5-1.1,0.5-1.1l0,0c0.1-0.1,0.2-0.1,0.2,0
	C58.5,75.6,58.6,75.8,58.5,75.9z"/>
<path class="st2" d="M66.1,91.2L66.1,91.2c-1.6,0-2.5-0.3-2.6-0.3c-1.6-0.5-3.1-0.8-4.4-0.8c-1.9,0-2.8,0.6-2.8,0.6
	c-0.4,0.2-0.9,0.3-1.5,0.3c-1.7,0-4.3-0.9-7-2.4c-0.1,0-0.1-0.1-0.1-0.1c-0.9-2.5-3.6-11,1.9-14.7c0,0,0.3-0.2,0.7-0.6h0.1
	c4-1,6.5-0.7,7.4,0.8c0,0,0,0,0,0.1c0,0,0.1,0.3,0.5,0.3s1.3-0.3,2.7-1.7c0.1,0,1.3-1.2,3.6-1.2c2.4,0,5,1.3,7.8,3.8
	c0,0,0,0.1,0.1,0.1c0.7,1.4,0.9,2.7,0.7,3.9c0,0.2,0,5-1.7,8.4l0,0c0,0-0.3,1.2-0.6,2.7c0,0.1-0.1,0.2-0.2,0.2
	C69.1,91,67.5,91.2,66.1,91.2z M59.1,89.5c1.4,0,2.9,0.3,4.6,0.8c0,0,0.9,0.3,2.4,0.3c1.4,0,2.8-0.2,4.3-0.7
	c0.3-1.5,0.6-2.7,0.6-2.7c1.6-3.3,1.6-8.2,1.6-8.2c0.2-1.1,0-2.2-0.7-3.5c-2.6-2.4-5.1-3.6-7.4-3.6c-2.1,0-3.2,1-3.2,1
	c-1.3,1.2-2.3,1.8-3.1,1.8c-0.7,0-1-0.5-1-0.6c-0.8-1.2-3.1-1.4-6.7-0.5c-0.4,0.3-0.7,0.5-0.7,0.6c-5.1,3.5-2.7,11.4-1.7,14
	c2.6,1.4,5.1,2.3,6.7,2.3c0.5,0,0.9-0.1,1.2-0.2C56,90.3,56.9,89.5,59.1,89.5z"/>
<path class="st2" d="M72.2,75.7c-0.1,0-0.1,0-0.2-0.1c-2.6-2.4-5.1-3.6-7.4-3.6c-2.1,0-3.2,1-3.2,1c-1.3,1.2-2.3,1.8-3.1,1.8
	c-0.7,0-1-0.5-1-0.6c-0.8-1.2-3.1-1.4-6.8-0.5c-0.1,0-0.3,0-0.3-0.2c-0.1-0.1,0-0.3,0.1-0.3c1.2-0.9,3.6-2.5,5.6-2.5
	c0.9,0,1.7,0.3,2.2,0.9c0.2,0.2,0.8,0.8,1.3,0.8c0.2,0,0.3-0.1,0.5-0.2l0,0c0.1-0.1,3.2-2.4,6.2-2.4c1.4,0,2.6,0.5,3.5,1.6
	c0.1,0.1,1.7,1.7,2.8,3.9c0,0,0.1,0.1,0.1,0.2C72.5,75.5,72.4,75.7,72.2,75.7L72.2,75.7z M54.4,72.6c1.7,0,2.8,0.4,3.4,1.3
	c0,0,0,0,0,0.1c0,0,0.1,0.3,0.5,0.3s1.3-0.3,2.7-1.7c0.1,0,1.3-1.2,3.6-1.2c2.1,0,4.3,0.9,6.5,2.7c-0.9-1.4-1.9-2.4-1.9-2.4
	c-0.8-0.9-1.9-1.4-3.1-1.4c-2.7,0-5.5,2-5.8,2.2c-0.2,0.3-0.5,0.4-0.9,0.4c-0.8,0-1.6-0.8-1.7-0.9c-0.5-0.5-1.1-0.7-1.8-0.7
	c-1.4,0-3,0.8-4.2,1.6C52.7,72.7,53.6,72.6,54.4,72.6z"/>
<path class="st0" d="M96.1,71.1c-0.2,0.1-0.3,0.2-0.3,0.2c-1.6-1.5-4.4,0.7-5.1,1.3c-0.2,0.3-0.2,0.4-0.2,0.4
	c-1.3,1.7-2.1,0.6-2.1,0.6c-1-0.9-2.1-1.5-4.5-2.5c-2.3-0.3-3.8,1.4-3.8,1.4c-6.6,3.9-2.9,12-2,13.7c3.4,2.3,5.2,1.8,8,1.6
	c0,0,4.6-2.1,8.2,0.2c0,0,2,0.8,5.7,0.2c0.6-2.4,1.4-2.9,1.4-2.9c2.2-4.6,0.8-9.1,0.4-10C99.6,75.1,97.7,72.5,96.1,71.1z"/>
<path class="st1" d="M91.4,84.7c0,0,0.1,0.1,0.3,0.2c0.1,0.1,0.2,0.1,0.3,0.2c0.1,0.1,0.3,0.2,0.4,0.3c0.1,0.1,0.3,0.2,0.5,0.3
	c0.1,0,0.2,0.1,0.3,0.1c0.1,0,0.2,0.1,0.3,0.1c0.1,0,0.2,0.1,0.3,0.1c0.1,0,0.2,0,0.3,0.1c0.1,0,0.2,0,0.3,0h0.2h0.2
	c0.1,0,0.2,0,0.3,0c0.1,0,0.2,0,0.3,0c0.2,0,0.5-0.1,0.7-0.1s0.4-0.1,0.6-0.2s0.4-0.1,0.6-0.2s0.3-0.1,0.5-0.2
	c0.1,0,0.3-0.1,0.4-0.1c0.2-0.1,0.3-0.1,0.3-0.1s-0.1,0.1-0.3,0.1c-0.1,0-0.2,0.1-0.3,0.2c-0.1,0.1-0.3,0.1-0.5,0.2
	s-0.3,0.2-0.5,0.2c-0.2,0.1-0.4,0.1-0.6,0.2s-0.4,0.1-0.7,0.2c-0.1,0-0.2,0.1-0.4,0.1c-0.1,0-0.2,0-0.4,0.1h-0.2h-0.2
	c-0.1,0-0.3,0-0.4,0s-0.3,0-0.4,0s-0.2,0-0.4-0.1c-0.1,0-0.2-0.1-0.3-0.1c-0.1,0-0.2-0.1-0.3-0.1c-0.2-0.1-0.4-0.2-0.5-0.3
	c-0.2-0.1-0.3-0.2-0.4-0.2c-0.1-0.1-0.2-0.1-0.3-0.2c-0.2-0.1-0.3-0.2-0.3-0.2l0,0c-0.2-0.1-0.2-0.3-0.1-0.5
	C90.9,84.6,91.2,84.6,91.4,84.7L91.4,84.7z"/>
<path class="st1" d="M88.6,75.6c0,0-0.2,0.5-0.4,1.2c-0.1,0.2-0.1,0.4-0.2,0.6s-0.1,0.4-0.2,0.7c0,0.1-0.1,0.2-0.1,0.4
	c0,0.1,0,0.2-0.1,0.4c0,0.1,0,0.3,0,0.4v0.4c0,0.3,0,0.5,0,0.8v0.2c0,0.1,0,0.1,0,0.2s0,0.2,0.1,0.4c0,0.1,0,0.2,0.1,0.4
	c0,0.1,0,0.1,0,0.2s0,0.1,0,0.2c0.1,0.2,0.1,0.4,0.2,0.6s0.1,0.4,0.2,0.5s0.1,0.3,0.1,0.4c0.1,0.2,0.1,0.3,0.1,0.3V84
	c0.2,0.5,0.1,1.1-0.1,1.3c-0.2,0.3-0.5,0.1-0.7-0.3v-0.1c0,0,0-0.2-0.1-0.4c0-0.1-0.1-0.3-0.1-0.5s-0.1-0.4-0.2-0.7
	c-0.1-0.2-0.1-0.5-0.2-0.8c0-0.1,0-0.1,0-0.2s0-0.2,0-0.2c0-0.2,0-0.3-0.1-0.5c0-0.2,0-0.3,0-0.5c0-0.1,0-0.2,0-0.3
	c0-0.1,0-0.2,0-0.3c0-0.3,0-0.7,0-1c0-0.2,0-0.3,0.1-0.5c0-0.2,0.1-0.3,0.1-0.5s0.1-0.3,0.1-0.4s0.1-0.3,0.1-0.4
	c0.1-0.3,0.2-0.5,0.2-0.7c0.1-0.2,0.2-0.4,0.2-0.6c0.3-0.7,0.5-1.1,0.5-1.1l0,0c0.1-0.1,0.2-0.1,0.2,0
	C88.6,75.3,88.6,75.5,88.6,75.6z"/>
<path class="st4" d="M90.4,73c0,0,0.1-0.2,0.2-0.4c-0.1,0.1-0.2,0.1-0.2,0.1c-3.4-3.6-4.9-1.1-4.9-1.1c-0.6-0.4-1.2-0.5-1.7-0.6
	c2.4,1,3.5,1.6,4.5,2.5C88.3,73.5,89,74.6,90.4,73z"/>
<path class="st5" d="M93.9,70c0,0,0.1,0,0.3,0C94.1,70,94,70,93.9,70z"/>
<path class="st4" d="M96.1,71.1c1.6,1.5,3.5,4,5.7,4.2c0-0.1-0.1-0.2-0.1-0.2C98.6,70.4,96.7,70.7,96.1,71.1z"/>
<path class="st1" d="M101.3,85.3c2.2-4.6,0.8-9.1,0.4-10c-0.4,0-0.7-0.1-1-0.3c0.4,1.3,1.6,5.4-0.5,9.8c0,0-0.9,0.6-1.6,3.6
	c0.4,0,0.8-0.1,1.3-0.2C100.6,85.8,101.3,85.3,101.3,85.3z"/>
<path class="st2" d="M97.5,88.7L97.5,88.7c-2.1,0-3.2-0.5-3.3-0.5c-1.1-0.7-2.4-1-3.8-1c-2.2,0-4.1,0.8-4.1,0.9h-0.1
	c-0.4,0-0.7,0.1-1,0.1c-0.6,0.1-1.2,0.1-1.8,0.1c-1.3,0-2.9-0.2-5.3-1.8L78,86.4c-0.9-1.6-4.8-10,2-14.1c0.2-0.2,1.5-1.5,3.5-1.5
	c0.2,0,0.4,0,0.6,0c0,0,0,0,0.1,0c2.5,1,3.6,1.6,4.6,2.6c0,0,0,0,0,0.1c0,0,0.2,0.2,0.5,0.2c0.2,0,0.6-0.1,1.2-0.8
	c0,0,0.1-0.2,0.2-0.4c0,0,0,0,0.1-0.1c0.7-0.6,2.4-1.9,3.9-1.9c0.5,0,1,0.1,1.4,0.4c0,0,0.1-0.1,0.2-0.1c0.1-0.1,0.2,0,0.3,0
	c0.4,0.3,0.7,0.7,1.1,1.1c1.3,1.3,2.8,2.9,4.4,3c0.1,0,0.2,0.1,0.2,0.2c0.3,0.9,1.8,5.4-0.4,10.2l-0.1,0.1c0,0-0.7,0.5-1.3,2.8
	c0,0.1-0.1,0.2-0.2,0.2C99.3,88.6,98.4,88.7,97.5,88.7z M94.5,87.7c0,0,1.1,0.4,3,0.4c0.8,0,1.5-0.1,2.4-0.2c0.5-2,1.2-2.7,1.4-2.9
	c2-4.3,0.8-8.4,0.4-9.5c-1.7-0.3-3.2-1.8-4.6-3.2c-0.3-0.3-0.6-0.6-0.9-0.9l-0.1,0.1c-0.1,0.1-0.1,0.1-0.2,0.1s-0.2,0-0.2-0.1
	C95.4,71.2,95,71,94.5,71c-1.4,0-3,1.3-3.5,1.7c-0.1,0.2-0.2,0.3-0.2,0.4c-0.6,0.7-1.1,1.1-1.6,1.1s-0.8-0.3-0.9-0.5
	c-1-0.9-2-1.5-4.4-2.4c-0.2,0-0.3,0-0.5,0c-1.8,0-3.1,1.3-3.1,1.4c0,0,0,0-0.1,0.1C74,76.4,77.5,84.3,78.4,86
	c2.2,1.5,3.7,1.7,4.9,1.7c0.6,0,1.2,0,1.8-0.1c0.3,0,0.6-0.1,1-0.1c0.3-0.1,2.1-0.9,4.3-0.9C92,86.6,93.4,87,94.5,87.7L94.5,87.7z"
	/>
<path class="st2" d="M89.2,74.2L89.2,74.2c-0.5,0-0.8-0.3-0.9-0.5c-1-0.9-2-1.5-4.4-2.4c-0.1-0.1-0.2-0.2-0.2-0.3
	c0-0.1,0.2-0.2,0.3-0.2c0.5,0.1,1.1,0.3,1.6,0.5c0.3-0.3,0.8-0.8,1.7-0.8c1,0,2.1,0.6,3.3,1.8c0.1-0.1,0.2-0.1,0.3,0
	c0.1,0.1,0.1,0.2,0.1,0.4c-0.1,0.2-0.2,0.4-0.2,0.4C90.3,73.8,89.7,74.2,89.2,74.2z M86.1,71.6c1.2,0.6,1.9,1,2.6,1.7c0,0,0,0,0,0.1
	c0,0,0.2,0.2,0.5,0.2s0.7-0.3,1.2-0.8c-1.1-1.1-2.2-1.7-3-1.7C86.7,71,86.3,71.4,86.1,71.6z"/>
<path class="st2" d="M101.9,75.5L101.9,75.5c-1.8-0.2-3.4-1.8-4.8-3.2c-0.4-0.4-0.7-0.8-1.1-1.1c0,0,0-0.1,0-0.2s0.1-0.2,0.1-0.2
	c0.3-0.1,0.6-0.2,0.9-0.2c1.5,0,3.2,1.5,5.1,4.4c0,0,0.1,0.1,0.1,0.2s0,0.2,0,0.3C102.1,75.5,102,75.5,101.9,75.5z M96.8,71.2
	c0.3,0.2,0.5,0.5,0.8,0.8c1.2,1.2,2.4,2.5,3.8,2.9c-2.2-3.2-3.7-3.7-4.4-3.7C96.9,71.1,96.9,71.1,96.8,71.2z"/>
<path class="st6" d="M134.6,72.8C134.6,72.8,134.5,72.8,134.6,72.8C134.5,72.8,134.5,72.8,134.6,72.8
	C134.5,72.9,134.6,72.9,134.6,72.8L134.6,72.8z"/>
<path class="st6" d="M134.6,72.9C134.6,72.9,134.5,72.9,134.6,72.9C134.5,72.9,134.5,72.9,134.6,72.9L134.6,72.9z"/>
<path class="st6" d="M124.3,73.2L124.3,73.2L124.3,73.2L124.3,73.2z"/>
<path class="st0" d="M128.7,70c-3.2,0.1-6.3,2.1-6.3,2.1l-0.1-0.1c-0.7,0.7-1.1,1.3-1.1,1.3c-1.2-2.2-6.4-2-6.4-2
	c0.2-0.2,0.5-0.4,0.8-0.6c-2.6,0.4-4.7,1.4-4.7,1.4c-7.1,3-2.3,13.8-2.3,13.8c0.1,0.3,0.2,0.6,0.2,1c3.3,1.3,7.4,1.7,10,1.3
	c0,0,3.6-1.1,6.7,0c0,0,1.9,0.8,7.1-1.3c0.6-1.5,1.1-2.2,1.1-2.2c2.4-4.6,1.3-9.1,1.3-9.1s0,0,0-0.1C133.2,72.8,129.9,70.7,128.7,70
	z"/>
<path class="st4" d="M121.2,73.2c0,0,0.4-0.6,1.1-1.3c-1.8-1.6-4.5-1.7-6.7-1.3c-0.3,0.2-0.5,0.4-0.8,0.6
	C114.8,71.2,120,71.1,121.2,73.2z"/>
<path class="st4" d="M128.7,70c1.1,0.7,4.5,2.8,6.3,5.5C133.9,71.1,131.3,69.9,128.7,70z"/>
<path class="st1" d="M120.6,74.2c-0.8,0.9-0.9,2.4-0.8,3.5c0.1,1.3,0.4,2.6,1,3.8c0.2,0.4,0.5,0.9,0.5,1.4s-0.3,1.1-0.9,1
	c-0.5-0.1-0.6-0.6-0.8-1.1c-0.2-0.6-0.4-1.2-0.5-1.9c-0.3-1.4-0.4-3-0.1-4.5c0.2-0.7,0.4-1.5,0.8-2.1c0.1-0.2,0.3-0.4,0.5-0.6
	C120.6,73.5,120.8,74,120.6,74.2z"/>
<path class="st1" d="M124,85.9c1.3,0.2,2.7,0.4,4,0.3c0.5,0,1.2-0.1,1.6-0.3c0.3-0.1,0.6-0.2,0.8-0.4c0.2-0.1,0.3-0.2,0.5-0.3
	c0.2-0.1,0.4,0,0.3,0.2c-0.2,0.2-0.4,0.3-0.6,0.5c-0.5,0.3-1,0.5-1.6,0.6c-1.5,0.3-3.1,0.3-4.7,0.1c-0.4,0-1,0-1.2-0.3
	C122.9,86.1,123.4,85.8,124,85.9z"/>
<path class="st1" d="M133.7,84.6c1.3-2.4,1.6-4.9,1.5-6.6c0-1.5-0.3-2.5-0.3-2.5s0,0,0-0.1c-0.4-0.7-1-1.3-1.6-1.9
	c0.2,0.5,0.3,0.9,0.5,1.5c0,0,1.2,4.5-1.3,9.1c0,0-0.8,0.9-1.5,3.2c0.5-0.2,1-0.3,1.5-0.5C133.2,85.3,133.7,84.6,133.7,84.6z"/>
<path class="st2" d="M126.9,88.3L126.9,88.3c-0.8,0-1.2-0.1-1.2-0.2c-0.9-0.3-1.9-0.5-3.1-0.5c-1.9,0-3.4,0.5-3.4,0.5
	c-2.9,0.5-7-0.1-10.1-1.3c-0.1,0-0.2-0.1-0.2-0.2c-0.1-0.3-0.2-0.6-0.2-1c-0.1-0.2-2.7-6.3-1-10.6c0.6-1.6,1.8-2.8,3.5-3.5
	c0.1,0,2.2-1,4.8-1.5c0.1,0,0.3,0.1,0.3,0.2s0,0.3-0.1,0.3c0,0-0.1,0-0.1,0.1c1.5,0.1,4.4,0.4,5.6,1.8c0.2-0.2,0.5-0.6,0.9-1
	c0.1-0.1,0.3-0.1,0.4,0c0.7-0.4,3.4-1.9,6.3-2c0.1,0,0.1,0,0.2,0c1.3,0.8,4.6,2.9,6.4,5.6v0.1c0.1,0.2,1.2,4.7-1.3,9.4l0,0
	c0,0-0.5,0.6-1.1,2.1c0,0.1-0.1,0.1-0.2,0.2C129.9,88.1,128,88.3,126.9,88.3z M122.6,87.1c1.2,0,2.3,0.2,3.3,0.5
	c0,0,1.8,0.7,6.8-1.2c0.5-1.3,1-2,1.1-2.1c2.3-4.4,1.2-8.9,1.2-8.9c-1.7-2.5-5-4.7-6.1-5.3c-3,0.1-6,2-6.1,2c-0.1,0.1-0.2,0.1-0.3,0
	c-0.5,0.6-0.9,1.1-0.9,1.1c-0.1,0.1-0.1,0.1-0.2,0.1s-0.2-0.1-0.2-0.1c-0.8-1.4-3.7-1.9-6-1.9H115c-0.1,0-0.2-0.1-0.3-0.2
	c0-0.1,0-0.1,0-0.2c-2,0.5-3.5,1.2-3.5,1.2c-1.5,0.6-2.6,1.7-3.2,3.2c-1.6,4.1,1,10.1,1,10.2c0.1,0.3,0.2,0.6,0.2,0.9
	c2.3,0.9,5.1,1.4,7.5,1.4c0.8,0,1.5-0.1,2.1-0.2C119,87.6,120.6,87.1,122.6,87.1z"/>
<path class="st2" d="M121.4,73.3L121.4,73.3c-0.1,0-0.2-0.1-0.2-0.1c-0.8-1.4-3.7-1.9-6-1.9H115c-0.1,0-0.2-0.1-0.3-0.2
	c0-0.1,0-0.2,0.1-0.3c0.3-0.2,0.5-0.4,0.8-0.6h0.1c3-0.5,5.4,0,7,1.4c0.1,0.1,0.1,0.1,0.1,0.2s0,0.2-0.1,0.2
	c-0.6,0.7-1.1,1.3-1.1,1.3C121.6,73.3,121.5,73.3,121.4,73.3z M115.9,70.7c1.5,0.1,4.4,0.4,5.6,1.8c0.2-0.2,0.4-0.5,0.7-0.8
	C120.7,70.6,118.6,70.2,115.9,70.7L115.9,70.7z"/>
<path class="st2" d="M135.3,75.5c-0.1,0-0.2,0-0.2-0.1c-1.7-2.6-5.2-4.8-6.2-5.4c-0.1-0.1-0.2-0.2-0.1-0.3c0-0.1,0.1-0.2,0.3-0.2
	c0.1,0,0.2,0,0.2,0c2.2,0,5.1,1,6.3,5.7c0,0.1,0,0.3-0.2,0.3C135.3,75.5,135.3,75.5,135.3,75.5z M130.1,70.1c1.2,0.8,3,2.1,4.4,3.7
	C133.6,71.6,132.1,70.4,130.1,70.1z"/>
<path class="st0" d="M193.4,63.5c0,0-2.5,2.1-4.9,3.8c-3.4,2.4-6.6-0.1-9.9-2.8c-3.3-2.7-7.6-1.4-3-13.2c0,0,0.6-1.6,1.3-3.6
	c0.5-1.3,1-2.7,1.4-3.9c4-3.5,10.5-7,14.9,2.9c0.2,1.2,0.4,2.2,0.7,3.1c0,0.1,0.1,0.2,0.1,0.3C194,50,197.4,60.5,193.4,63.5z"/>
<path class="st1" d="M195.3,57.4c-0.1-1.6-0.3-3.3-0.7-4.9c-0.2-0.8-0.4-1.6-0.6-2.4c-0.4-1.1-0.7-2.3-0.8-3.5c-0.5-1.1-1-2-1.5-2.8
	c0.1,0.7,0.2,1.3,0.3,1.9c0.2,1.3,0.4,2.6,0.9,3.8c0.3,0.8,0.5,1.6,0.6,2.4c0.4,1.6,0.6,3.2,0.7,4.9c0.1,1.6,0,3.4-0.8,4.8
	c-0.3,0.6-0.7,1-1.2,1.5c-0.9,0.8-1.8,1.5-2.8,2.2c-0.6,0.5-1.2,0.9-1.8,1.4c-0.6,0.4-1.2,0.8-1.9,1c-0.8,0.2-1.7,0.2-2.5,0
	c0.9,0.4,1.8,0.7,2.7,0.6c0.9,0,1.8-0.3,2.8-1c1.2-0.9,2.5-1.9,3.4-2.6s1.4-1.2,1.4-1.2c1.2-0.9,1.8-2.6,1.9-4.4
	C195.3,58.5,195.3,57.9,195.3,57.4z"/>
<path class="st1" d="M180.4,45.2c-0.5,1.8-1.3,4.1-2,6.6c-0.3,1.3-0.6,2.6-0.7,4c-0.1,0.7-0.1,1.3-0.1,1.9c0,0.6,0.1,1.2,0.1,1.7
	c0.1,0.5,0.2,0.9,0.3,1.3c0.1,0.4,0.2,0.6,0.3,0.9c0.2,0.4,0.3,0.7,0.3,0.7l0,0c0.4,0.7,1.2,0.6,1.7-0.4c0.6-1,0.7-2.4,0.3-3.1
	c0-0.1-0.1-0.2-0.2-0.2c0,0-0.1-0.1-0.3-0.3c-0.1-0.1-0.2-0.2-0.3-0.4s-0.2-0.4-0.3-0.6c-0.1-0.2-0.2-0.5-0.2-0.9
	c-0.1-0.3-0.1-0.7-0.1-1.2c0-0.9,0.1-2,0.2-3.1c0.3-2.3,0.9-4.8,1.2-6.7C181,44.3,180.6,44.3,180.4,45.2z"/>
<path class="st2" d="M185.6,68.7c-2.5,0-5-2.1-7.2-3.9c-0.7-0.5-1.3-0.9-2-1.3c-2.7-1.5-4.8-2.6-1.1-12.3l0,0c0,0,0.6-1.6,1.3-3.6
	c0.5-1.3,1-2.7,1.4-3.9c0,0,0-0.1,0.1-0.1c2.7-2.4,5.3-3.6,7.6-3.6c3.1,0,5.7,2.2,7.7,6.6c0,0,0,0,0,0.1c0.2,1.2,0.5,2.3,0.7,3
	c0,0.1,0.1,0.2,0.1,0.3c0.1,0.4,3.4,10.8-0.7,13.8c0,0-2.5,2.1-4.9,3.8C187.7,68.3,186.7,68.7,185.6,68.7z M178.5,44
	c-0.4,1.2-0.9,2.6-1.4,3.9c-0.7,1.9-1.3,3.6-1.3,3.6c-3.5,9.2-1.7,10.2,0.8,11.6c0.7,0.4,1.4,0.8,2.1,1.3c2.1,1.7,4.5,3.7,6.8,3.7
	c0.9,0,1.8-0.3,2.7-0.9c2.4-1.7,4.8-3.8,4.9-3.8c3.8-2.8,0.6-13.1,0.5-13.2c0-0.1-0.1-0.1-0.1-0.2c-0.3-0.8-0.5-1.9-0.7-3.1
	c-1.9-4.2-4.3-6.3-7.1-6.3C183.6,40.6,181.2,41.7,178.5,44z"/>
<path class="st3" d="M62.3,47.9L62.3,47.9C61,44.6,61,41.3,61,41.3l0,0C61,41.3,61,44.5,62.3,47.9z"/>
<path class="st0" d="M62.3,47.9c0.2,0.5,0.4,1.1,0.7,1.6c0.2,0.3,0.4,0.7,0.6,1c0,0,1.5,1.9,1.4,5.8c0-3.9-1.4-5.8-1.4-5.8
	c-0.2-0.3-0.4-0.7-0.6-1C62.7,48.9,62.5,48.4,62.3,47.9L62.3,47.9L62.3,47.9z"/>
<path class="st4" d="M56.7,68L56.7,68L56.7,68z"/>
<path class="st4" d="M52.5,68c-0.1,0-0.1,0-0.2,0C52.4,68,52.4,68,52.5,68z"/>
<path class="st4" d="M52.9,68.1c-0.1,0-0.1,0-0.2,0C52.8,68.1,52.8,68.1,52.9,68.1z"/>
<path class="st4" d="M54,68.3L54,68.3L54,68.3z"/>
<path class="st4" d="M54.4,68.3L54.4,68.3C54.3,68.3,54.3,68.3,54.4,68.3z"/>
<path class="st4" d="M55.3,68.3L55.3,68.3L55.3,68.3z"/>
<path class="st4" d="M56.5,68.1L56.5,68.1L56.5,68.1z"/>
<path class="st4" d="M55,68.3L55,68.3L55,68.3z"/>
<path class="st4" d="M53.7,68.3L53.7,68.3C53.6,68.3,53.6,68.3,53.7,68.3z"/>
<path class="st4" d="M53.3,68.2c-0.1,0-0.1,0-0.2,0C53.2,68.2,53.2,68.2,53.3,68.2z"/>
<path class="st4" d="M56.2,68.1L56.2,68.1L56.2,68.1z"/>
<path class="st4" d="M54.7,68.3L54.7,68.3C54.6,68.3,54.7,68.3,54.7,68.3z"/>
<path class="st7" d="M54.9,68.3c-0.1,0-0.1,0-0.2,0C54.8,68.3,54.8,68.3,54.9,68.3z"/>
<path class="st7" d="M54.6,68.3c-0.1,0-0.1,0-0.2,0C54.4,68.3,54.5,68.3,54.6,68.3z"/>
<path class="st7" d="M54.2,68.3c-0.1,0-0.1,0-0.2,0C54.1,68.3,54.2,68.3,54.2,68.3z"/>
<path class="st7" d="M55.2,68.3c-0.1,0-0.1,0-0.2,0C55.1,68.3,55.2,68.3,55.2,68.3z"/>
<path class="st7" d="M56.7,68c-0.1,0-0.2,0-0.2,0.1C56.6,68,56.6,68,56.7,68z"/>
<path class="st7" d="M53.9,68.3c-0.1,0-0.1,0-0.2,0C53.8,68.3,53.8,68.3,53.9,68.3z"/>
<path class="st7" d="M62.7,65.3c0,0-1.3,2-4.4,2l0,0c-0.1,0.1-0.7,0.4-1.6,0.6c0.9-0.3,1.5-0.6,1.6-0.6l0,0
	C61.4,67.3,62.7,65.3,62.7,65.3c1.7-3.7,2.3-6.8,2.3-9.1C65,58.5,64.5,61.6,62.7,65.3z"/>
<path class="st7" d="M56.2,68.1c-0.3,0.1-0.6,0.1-0.9,0.1C55.6,68.2,55.9,68.2,56.2,68.1z"/>
<path class="st7" d="M56.5,68.1c-0.1,0-0.2,0-0.3,0.1C56.3,68.1,56.4,68.1,56.5,68.1z"/>
<path class="st7" d="M53.6,68.2c-0.1,0-0.2,0-0.3,0C53.4,68.2,53.5,68.2,53.6,68.2z"/>
<path class="st7" d="M52.7,68.1c-0.1,0-0.1,0-0.2,0C52.6,68.1,52.6,68.1,52.7,68.1z"/>
<path class="st7" d="M53.1,68.2c-0.1,0-0.2,0-0.2,0C52.9,68.2,53,68.2,53.1,68.2z"/>
<path class="st1" d="M63,49.4c-0.3-0.5-0.5-1-0.7-1.6l0,0c-0.4-0.2-0.8-0.3-1.2-0.4c0.2,0.5,0.4,1,0.7,1.5c0.2,0.3,0.4,0.7,0.6,1
	c0,0,3.8,4.9-0.9,14.9c0,0-1.3,2-4.4,2l0,0c0,0-0.2,0.1-0.3,0.2c0.5,0.2,1,0.3,1.6,0.3l0,0c3.1,0,4.4-2,4.4-2
	c1.7-3.7,2.3-6.8,2.3-9.1c0-3.9-1.4-5.8-1.4-5.8C63.4,50.1,63.2,49.8,63,49.4z"/>
<path class="st0" d="M56.8,67c-0.9,0.4-3.2,1.3-6,0.4l0,0c0.1,0,0.1,0.1,0.2,0.1c0.1,0,0.1,0.1,0.2,0.1c0.1,0,0.1,0.1,0.2,0.1
	c0.1,0,0.1,0.1,0.2,0.1c0.1,0,0.1,0,0.2,0.1c0.1,0,0.1,0,0.2,0.1c0.1,0,0.1,0,0.2,0.1c0.1,0,0.1,0,0.2,0.1c0.1,0,0.1,0,0.2,0
	c0.1,0,0.1,0,0.2,0c0.1,0,0.1,0,0.2,0c0.1,0,0.2,0,0.2,0c0.1,0,0.1,0,0.2,0c0.1,0,0.2,0,0.3,0h0.1c0.1,0,0.1,0,0.2,0h0.1
	c0.1,0,0.1,0,0.2,0h0.1c0.1,0,0.1,0,0.2,0h0.1c0.1,0,0.1,0,0.2,0H55c0.1,0,0.1,0,0.2,0h0.1c0.3,0,0.6-0.1,0.9-0.1l0,0
	c0.1,0,0.2,0,0.3-0.1l0,0c0.1,0,0.2,0,0.2-0.1l0,0c0.9-0.3,1.5-0.6,1.6-0.6C57.8,67.3,57.3,67.2,56.8,67z"/>
<path class="st0" d="M63.2,50.3c-0.2-0.3-0.4-0.7-0.6-1c-0.3-0.5-0.5-1-0.7-1.6c-6.8-2.8-11.3-0.4-11.3-0.4
	c-0.2,0.2-0.4,0.4-0.6,0.6c-1.3,0.9-2.7,0.4-2.7,0.4c-0.4-0.3-0.8-0.6-1.2-0.8c-1.4-0.7-2.7-0.7-3.8-0.4c-0.2,0-0.4,0.1-0.6,0.1
	c-2.2,5.4-7.4,10.5,0.1,18.3c1.7,0.4,4.2,0.2,7.3-1.8c0,0,1-1.2,3,0.7c0,0,2.6,2.3,5.9,2.8l0,0c3.1,0,4.4-2,4.4-2
	C67,55.2,63.2,50.3,63.2,50.3z"/>
<path class="st4" d="M49.1,63.7c-3.1,2-5.6,2.2-7.3,1.8c0.1,0.1,0.1,0.1,0.2,0.2c1.7,1.7,6.9,0.5,6.9,0.5c4.3,3.6,8.8,1.2,9.1,1
	c-3.3-0.4-5.9-2.8-5.9-2.8C50.1,62.5,49.1,63.7,49.1,63.7z"/>
<path class="st1" d="M49.6,49.9c0.5,1.2,0.1,2.5-0.2,3.7c-0.2,0.7-0.4,1.4-0.6,2.1c-0.1,0.6-0.1,1.3,0.3,1.8c0.3,0.4,0.9,0.5,1.1,1
	c0.2,0.5-0.1,1.1-0.6,1.2c-0.6,0.2-1-0.1-1.4-0.5c-0.5-0.4-0.8-1-1-1.6c-0.5-1.6,0.4-3.2,1.1-4.5c0.3-0.7,0.7-1.4,0.8-2.2
	c0-0.3,0-0.6,0-0.9C49.1,49.7,49.5,49.6,49.6,49.9z"/>
<path class="st2" d="M56.9,68.4c-0.1,0-0.2-0.1-0.3-0.2c0-0.2,0-0.3,0.2-0.3l0,0l0,0l0,0c0.1,0,0.1,0,0.2-0.1l0,0
	c0.2-0.1,0.4-0.1,0.5-0.2c-0.2-0.1-0.5-0.1-0.7-0.2l0,0c-2.7-0.7-4.7-2.5-4.8-2.6c-0.7-0.7-1.3-1-1.9-1c-0.5,0-0.7,0.3-0.7,0.3
	s0,0-0.1,0.1c-2.1,1.3-4.1,2-6,2c-0.5,0-1.1-0.1-1.5-0.2c-0.1,0-0.1,0-0.1-0.1c-6.3-6.5-3.8-11.4-1.5-15.8c0.5-1,1-1.9,1.4-2.9
	c0-0.1,0.1-0.1,0.2-0.2c0.2-0.1,0.4-0.1,0.6-0.1c1.6-0.3,2.8-0.2,4,0.4c0.4,0.2,0.8,0.5,1.2,0.8c0.1,0,0.4,0.1,0.9,0.1
	c0.6,0,1.1-0.2,1.5-0.5c0.2-0.1,0.4-0.3,0.6-0.5c0,0,0,0,0.1-0.1c0.1,0,1.9-1,5-1c1.8,0,3.7,0.3,5.6,1h0.1c0.4,0.1,0.8,0.3,1.2,0.5
	c0.1,0,0.1,0.1,0.2,0.2c0.2,0.5,0.4,1.1,0.7,1.5c0.2,0.4,0.4,0.7,0.6,1c0.1,0.1,1.5,2,1.5,5.9c0,2.8-0.8,5.9-2.3,9.2
	c-0.1,0.1-1.4,2.1-4.6,2.2c-0.2,0.1-0.7,0.3-1.4,0.6l0,0C57.2,68.4,57.1,68.4,56.9,68.4C57,68.4,57,68.4,56.9,68.4z M57.1,66.9
	c0.5,0.1,0.9,0.2,1.4,0.3l0,0c2.9,0,4.2-1.9,4.2-1.9c1.5-3.2,2.3-6.2,2.3-8.9c0-3.7-1.4-5.6-1.4-5.6c-0.2-0.3-0.4-0.7-0.6-1
	c-0.3-0.5-0.5-1-0.7-1.5c-0.3-0.1-0.6-0.2-0.9-0.4h-0.1c-1.9-0.7-3.7-1-5.6-1c-2.7,0-4.4,0.8-4.7,0.9c-0.2,0.2-0.4,0.4-0.6,0.6
	c-0.6,0.4-1.2,0.6-1.9,0.6c-0.6,0-1.1-0.2-1.1-0.2h-0.1c-0.4-0.3-0.7-0.6-1.1-0.8c-1.1-0.6-2.2-0.7-3.6-0.4c-0.1,0-0.3,0.1-0.4,0.1
	c-0.4,0.9-0.9,1.9-1.3,2.8c-2.2,4.3-4.5,8.8,1.4,15.1c0.4,0.1,0.9,0.1,1.3,0.1c1.7,0,3.7-0.7,5.6-1.9c0.1-0.1,0.5-0.5,1.1-0.5
	c0.7,0,1.5,0.4,2.3,1.2C52.5,64.4,54.4,66.2,57.1,66.9L57.1,66.9z"/>
<path class="st2" d="M54.7,68.7h-0.8v-0.3v0.3h-0.1c-0.1,0-0.2,0-0.3,0h-0.1v-0.3v0.3c-0.1,0-0.1,0-0.2,0l-0.8-0.2
	C51,68,50,67.5,49,66.7c-0.5,0.1-2,0.4-3.6,0.4s-2.8-0.3-3.4-1l-0.2-0.2c-0.1-0.1-0.1-0.2,0-0.3c0.1-0.1,0.2-0.2,0.3-0.1
	c0.4,0.1,0.9,0.2,1.4,0.2c1.7,0,3.7-0.7,5.6-1.9c0.1-0.1,0.5-0.5,1.1-0.5c0.7,0,1.5,0.4,2.3,1.2c0,0,2.5,2.3,5.7,2.7
	c0.1,0,0.1,0,0.2,0.1c0.1,0,0.1,0,0.2,0c0.1,0,0.2,0.1,0.2,0.2s0,0.2-0.1,0.3c-0.2,0.1-0.8,0.4-1.7,0.7c-0.1,0-0.2,0-0.3,0.1
	c-0.1,0-0.2,0-0.3,0.1c-0.3,0.1-0.6,0.1-0.9,0.1h-0.1c-0.1,0-0.2,0-0.3,0H55c-0.1,0-0.1,0-0.2,0L54.7,68.7z M49.1,66.1
	c0.1,0,0.1,0,0.2,0.1c1,0.8,2,1.3,3.1,1.6l0.8,0.2c0.1,0,0.1,0,0.2,0h0.1h0.1c0.1,0,0.2,0,0.3,0h0.9H55c0.1,0,0.1,0,0.2,0h0.1
	c0.1,0,0.1,0,0.2,0h0.1c0.3,0,0.6-0.1,0.8-0.1c0.1,0,0.2,0,0.3-0.1c0.1,0,0.2,0,0.3-0.1c0.3-0.1,0.6-0.2,0.8-0.3
	c-3.1-0.6-5.5-2.7-5.6-2.8c-0.7-0.7-1.3-1-1.9-1c-0.5,0-0.7,0.3-0.7,0.3s0,0-0.1,0.1c-2.2,1.4-4.5,2.1-6.4,2
	c0.6,0.2,1.4,0.4,2.3,0.4C47.2,66.5,49,66.1,49.1,66.1C49,66.1,49,66.1,49.1,66.1z"/>
<path class="st0" d="M129.1,60.8c-0.4,4.5-2.6,5-2.6,5c-4.1,2.4-8.4,0.2-8.4,0.2c-4.7-2.9-9.4,0.9-9.4,0.9c-5.4,2.6-6.5,0.4-6.5,0.4
	c-5.1-5.2-4.1-10.9-2.7-14.3c0.4-1,0.8-1.8,1.1-2.3c2.3-1.6,5.6-3.3,8.9-2.5c0,0,3.7,1.2,6.8-0.6c0,0,3.7-1.7,8.4-0.3
	c0.3,0.4,0.5,0.8,0.8,1.2C129,54.6,129.1,60.8,129.1,60.8z"/>
<path class="st4" d="M125.3,61.8l-0.1,0.5c-0.2,0.9-0.6,1.5-0.9,1.9c-0.1,0.1-0.1,0.1-0.2,0.2c-0.4,0.4-0.7,0.4-0.7,0.4
	c-3.1,1.8-6.4,0.2-6.4,0.2c-0.4-0.2-0.7-0.4-1.1-0.5c-3.1-1-5.8,1.1-6,1.2l0,0c-0.2,0.1-0.4,0.2-0.5,0.2s-0.1,0.1-0.2,0.1
	c-1.1,0.5-2,0.6-2.6,0.6c-1.2,0-1.6-0.7-1.6-0.7c-0.1-0.1-0.2-0.2-0.3-0.4c0.8-0.8,2.6-1.4,6-1.1c0,0,2.2-0.6,4.1-2.6
	c0,0,1-1.8,3.9,0.9c0,0,1,0.5,2.2,0.5c0.7,0,1.4-0.1,2-0.5c0.4-0.2,0.7-0.6,1-1.1C123.8,61.8,124.2,60.8,125.3,61.8z"/>
<path class="st1" d="M126.6,65.9c0.7-0.2,1.3-0.9,1.6-1.6c0.5-0.9,0.8-2,0.9-3c0.1-1.1-0.1-2.2-0.2-3.3c-0.3-2-0.9-4-1.7-6
	c-0.4-0.9-0.8-1.8-1.3-2.7c-0.3-0.5-0.5-0.9-0.8-1.4c-0.1-0.1-0.1-0.2-0.2-0.3s-0.1-0.2-0.1-0.2c-0.1-0.1-0.1,0-0.2-0.1
	c-0.3-0.1-0.6-0.2-0.9-0.2c1.5,2.3,2.6,4.9,3.3,7.6c0.3,1.3,0.6,2.6,0.8,3.9c0.1,0.5,0.1,1,0.1,1.6c0,0.5-0.1,1.1-0.2,1.6
	c-0.3,1.3-0.8,2.8-2,3.4c-0.1,0-0.2,0.1-0.3,0.1l0,0c-0.3,0.2-0.7,0.4-1.1,0.5c-1.2,0.5-2.5,0.7-3.9,0.6c-0.8-0.1-1.7-0.2-2.5-0.5
	c1.1,0.6,2.3,0.9,3.6,1C123.3,67.2,125.1,66.8,126.6,65.9z"/>
<path class="st1" d="M114.4,50.2c-0.3,1.3,0.1,2.5,0.6,3.7c0.3,0.7,0.6,1.3,0.7,2c0.2,0.6,0.2,1.3-0.2,1.8c-0.3,0.4-0.8,0.6-1,1.1
	c-0.1,0.5,0.2,1,0.7,1.2c0.6,0.2,1-0.2,1.3-0.6c0.4-0.5,0.7-1,0.8-1.6c0.3-1.6-0.7-3.1-1.5-4.4c-0.4-0.7-0.8-1.4-1-2.1
	c-0.1-0.3-0.1-0.6-0.1-0.9C114.9,50,114.4,49.8,114.4,50.2z"/>
<path class="st2" d="M104.3,68.8c-1.6,0-2.3-0.8-2.4-1c-5.3-5.4-4-11.5-2.7-14.6c0.4-1,0.9-1.8,1.2-2.3c0,0,0-0.1,0.1-0.1
	c3.3-2.3,6.4-3.2,9.1-2.5c0,0,1.2,0.4,2.8,0.4c1.4,0,2.7-0.3,3.8-1c0.1,0,1.9-0.9,4.7-0.9c1.3,0,2.6,0.2,3.9,0.6
	c0.1,0,0.1,0.1,0.1,0.1c0.3,0.4,0.5,0.8,0.8,1.2c3.5,5.9,3.7,12.2,3.7,12.3c-0.4,4.4-2.4,5.2-2.7,5.3c-1.3,0.8-2.8,1.2-4.4,1.2
	c-2.4,0-4.2-0.9-4.3-0.9c-1.1-0.7-2.3-1-3.6-1c-3,0-5.4,1.9-5.4,1.9s0,0-0.1,0C107.1,68.4,105.6,68.8,104.3,68.8z M100.9,51.2
	c-0.3,0.5-0.7,1.3-1.1,2.2c-1.5,3.7-2.3,9.1,2.6,14c0,0,0,0,0,0.1c0,0,0.4,0.7,1.9,0.7c1.1,0,2.6-0.4,4.2-1.2c0.3-0.2,2.7-2,5.8-2
	c1.4,0,2.7,0.4,3.9,1.1l0,0c0,0,1.7,0.9,4,0.9c1.5,0,2.9-0.4,4.1-1.1h0.1c0,0,2-0.6,2.4-4.8c0,0-0.1-6.2-3.6-12
	c-0.2-0.4-0.5-0.8-0.7-1.1c-1.2-0.4-2.4-0.5-3.6-0.5c-2.6,0-4.4,0.8-4.4,0.8c-1.1,0.7-2.5,1-4.1,1s-2.9-0.4-2.9-0.4
	c-0.5-0.1-1.1-0.2-1.7-0.2C105.1,48.6,102.6,50,100.9,51.2z"/>
<path class="st2" d="M106.6,67.2L106.6,67.2c-1.3,0-1.7-0.6-1.9-0.8c-0.1-0.1-0.2-0.2-0.3-0.3c-0.1-0.1-0.1-0.1-0.1-0.2
	s0-0.1,0.1-0.2c1.2-1.1,3.3-1.5,6.2-1.2c0.3-0.1,2.3-0.8,3.9-2.5c0.1-0.1,0.5-0.7,1.4-0.7c0.8,0,1.8,0.5,2.9,1.5
	c0.2,0.1,1,0.4,2,0.5c0.1,0,0.1,0,0.2,0c0.6,0,1.2-0.1,1.6-0.4c0.4-0.2,0.7-0.6,0.9-1c0.1-0.2,0.4-0.6,0.9-0.6
	c0.3,0,0.7,0.2,1.1,0.5c0.1,0.1,0.1,0.2,0.1,0.3l-0.1,0.5c-0.2,0.8-0.5,1.5-0.9,2c-0.1,0.1-0.1,0.1-0.2,0.2
	c-0.4,0.3-0.7,0.5-0.8,0.5c-1,0.6-2.1,0.9-3.3,0.9c-1.8,0-3.2-0.7-3.3-0.7c-0.4-0.2-0.7-0.4-1.1-0.5c-0.5-0.2-1.1-0.3-1.6-0.3
	c-2.1,0-3.9,1.3-4.1,1.5c0,0,0,0-0.1,0c-0.2,0.1-0.4,0.2-0.6,0.3c-0.1,0-0.1,0.1-0.2,0.1C108.3,67,107.4,67.2,106.6,67.2z
	 M105.1,65.9L105.1,65.9c0.1,0.1,0.1,0.1,0.1,0.2c0,0,0.3,0.5,1.3,0.5v0.3v-0.3c0.7,0,1.5-0.2,2.5-0.6c0.1,0,0.1-0.1,0.2-0.1
	c0.2-0.1,0.3-0.1,0.5-0.2s0.6-0.4,1.2-0.7c-0.1,0-0.2,0.1-0.2,0.1h-0.1C108.1,64.8,106.2,65.1,105.1,65.9z M117.2,65
	c0,0,1.3,0.6,3,0.6c1.1,0,2.2-0.3,3.1-0.8h0.1l0,0c0,0,0.3-0.1,0.6-0.4c0,0,0.1-0.1,0.2-0.2c0.4-0.4,0.6-1,0.8-1.8l0.1-0.4
	c-0.3-0.2-0.4-0.3-0.6-0.3s-0.3,0.3-0.3,0.3c-0.3,0.5-0.7,0.9-1.1,1.2c-0.5,0.3-1.2,0.5-1.9,0.5l0,0c-0.1,0-0.1,0-0.2,0
	c-1.2-0.1-2.2-0.5-2.3-0.5c0,0-0.1,0-0.1-0.1c-1-0.9-1.8-1.4-2.5-1.4c-0.6,0-0.9,0.4-0.9,0.4s0,0,0,0.1c-1,1-2.1,1.7-2.9,2.1
	c1.1-0.4,2.6-0.5,3.9-0.1C116.4,64.6,116.8,64.8,117.2,65L117.2,65z"/>
<path class="st0" d="M94.6,48.6c-0.2-0.6-0.5-1.3-0.7-1.9c0,0-0.1-0.1-0.2-0.3c-5-1.8-8.9,0.7-8.9,0.7c-2.7,1.8-4.8,1-4.8,1
	c-4.6-1.7-8-0.9-10.1,0.2c-0.1,0.5-0.2,1-0.3,1.4c0,0-0.1,0.2-0.2,0.6c-1,2.4-4.4,12-0.7,15.5c0,0,1.2,3.1,8.1,0.9c0,0,5-2.5,8,0.1
	c0,0,4,3.4,8.5,0.4C93.4,67.1,98.9,61,94.6,48.6z"/>
<path class="st4" d="M76.8,66.6c0,0,2.2-1.1,4.5-1.1c1.2,0,2.5,0.3,3.5,1.2c0,0,1.9,1.6,4.5,1.6l0,0c1-0.9-0.3-1-0.3-1
	c-2.6-0.6-5-2.3-5-2.3c-4.3-3.7-10.7,3.7-13.6,1.2l0.9,1.1c0.6,0.2,0.4,0.1,1.3,0.1C73.7,67.4,75.1,67.1,76.8,66.6z"/>
<path class="st1" d="M94.3,51c0.3,1.2,0.5,2.5,0.6,3.8c0.2,1.3,0.2,2.6,0.1,3.9c-0.2,2.1-0.7,4.3-1.6,6.2c-0.3,0.6-0.7,1.2-1.1,1.7
	c-0.1,0.1-0.2,0.1-0.3,0.2c-0.2,0.1-0.3,0.2-0.5,0.3c-0.3,0.2-0.6,0.3-0.9,0.4c-0.1,0-0.8,0.2-0.8,0.3c0,0.2-0.2,0.4-0.4,0.6
	c1.3,0,2.6-0.4,3.7-1c0.3-0.2,0.4-0.3,0.6-0.5c0.3-0.4,0.6-0.9,0.8-1.3c1.2-2.3,1.7-4.9,1.7-7.5c0-3.8-0.9-7.6-2.4-11.1
	c-0.1-0.1-0.1-0.3-0.2-0.4c-0.3-0.1-0.7-0.2-1-0.3c0.1,0.2,0.2,0.5,0.3,0.8c0.2,0.6,0.4,1.1,0.6,1.7C93.7,49.3,94.1,50.1,94.3,51
	C94.3,51,94.3,50.9,94.3,51z"/>
<path class="st1" d="M84.4,49.2c2.1,2.6,1.8,6.3,0.3,9.1c-0.4,0.7-0.8,1.3-1.2,2c-0.1,0.2-0.2,0.4-0.5,0.4s-0.3-0.3-0.2-0.5
	c0.8-1.4,1.5-2.8,1.7-4.4c0.2-1.6,0.1-3.3-0.8-4.7c-0.2-0.3-0.4-0.5-0.6-0.7s-0.3-0.5-0.3-0.8C83,48.8,84,48.6,84.4,49.2z"/>
<path class="st2" d="M89.5,68.3L89.5,68.3c-2.8,0-4.7-1.6-4.8-1.7c-0.9-0.7-2-1.1-3.3-1.1c-2.2,0-4.4,1-4.4,1
	c-1.7,0.6-3.2,0.8-4.5,0.8c-3,0-3.9-1.5-4.1-1.8c-3.7-3.7-0.5-13,0.6-15.8c0.1-0.4,0.2-0.6,0.2-0.6c0.1-0.3,0.2-0.8,0.3-1.3
	c0-0.1,0.1-0.2,0.2-0.2c2.9-1.5,6.5-1.6,10.3-0.2c0,0,0.4,0.2,1.2,0.2c0.8,0,2-0.2,3.4-1.1c0.1-0.1,2.2-1.4,5.4-1.4
	c1.3,0,2.5,0.2,3.8,0.7c0.1,0,0.1,0.1,0.2,0.1c0.1,0.2,0.1,0.3,0.1,0.3c0.3,0.7,0.5,1.3,0.8,2c4.3,12.4-1,18.5-1.2,18.8
	c0,0,0,0-0.1,0C92.3,67.9,90.9,68.3,89.5,68.3z M81.4,64.9c1.5,0,2.7,0.4,3.7,1.2c0,0,1.9,1.6,4.4,1.6c1.3,0,2.5-0.4,3.7-1.1
	c0.4-0.4,5.1-6.5,1.1-18.2c-0.2-0.6-0.5-1.3-0.7-1.9c0,0,0-0.1-0.1-0.2c-1.1-0.4-2.3-0.6-3.5-0.6c-3,0-5,1.3-5.1,1.3
	c-1.5,1-2.8,1.2-3.7,1.2c-0.8,0-1.3-0.2-1.4-0.2c-3.6-1.3-6.9-1.2-9.7,0.1c-0.1,0.5-0.2,0.9-0.3,1.3c0,0-0.1,0.2-0.2,0.6
	c-0.8,1.9-4.4,11.7-0.7,15.2l0.1,0.1c0,0.1,0.7,1.5,3.6,1.5c1.2,0,2.6-0.3,4.2-0.8C76.8,66,79,64.9,81.4,64.9z"/>
<path class="st2" d="M89.4,68.3L89.4,68.3c-2.7,0-4.6-1.6-4.7-1.7c-0.9-0.7-2-1.1-3.3-1.1c-2.3,0-4.4,1-4.4,1
	c-1.6,0.5-3.1,0.8-4.3,0.8c-0.3,0-0.5,0-0.6,0c-0.4,0-0.5,0-0.8-0.1c0,0-0.1,0-0.1-0.1L70.3,66c-0.1-0.1-0.1-0.3,0-0.4
	s0.3-0.1,0.4,0c0.4,0.3,0.8,0.4,1.3,0.4l0,0c1.1,0,2.5-0.6,3.9-1.2c1.7-0.8,3.5-1.6,5.3-1.6c1.2,0,2.2,0.4,3,1.1
	c0,0,2.3,1.7,4.9,2.2c0.1,0,0.8,0.1,0.9,0.6c0.1,0.3,0,0.6-0.4,1C89.5,68.3,89.5,68.3,89.4,68.3z M81.3,64.9c1.5,0,2.8,0.4,3.7,1.2
	c0,0,1.8,1.5,4.2,1.6c0.2-0.2,0.2-0.3,0.2-0.3c0-0.1-0.2-0.1-0.5-0.2c-2.7-0.6-5-2.3-5.1-2.4c-0.8-0.7-1.7-1-2.7-1
	c-1.6,0-3.4,0.8-5.1,1.5c-1.5,0.7-3,1.3-4.2,1.3l0,0c-0.2,0-0.3,0-0.5,0l0.1,0.1c0.3,0.1,0.3,0.1,0.5,0.1c0.1,0,0.3,0,0.6,0
	c1.2,0,2.6-0.3,4.1-0.8C76.8,66,79,64.9,81.3,64.9z"/>
<path class="st0" d="M169.1,63.8c0,0-1.4,0.4-2.2,1.5c0,0-4.9,6.5-10.7,0.2c0,0-8.4-1.9-2.7-15.2c0.3-0.6,0.5-1.2,0.9-1.9
	c0,0,0-0.1,0.1-0.2c3-3,8.3-7,14.8,0.9c0.2,0.4,0.4,1,0.7,1.7c0.6,1.7,1.3,4.2,1.4,7C171.2,57.9,172,62.6,169.1,63.8z"/>
<path class="st1" d="M167.3,47.2c0,0.1,0.1,0.2,0.1,0.2c0.2,0.7,0.6,1.3,0.9,2c1.1,2.5,1.7,5.2,1.8,7.9c0.3,2.1,0,5.1-2.3,6
	c-0.9,0.3-1.6,0.9-2.2,1.6c-0.4,0.5-0.9,1-1.4,1.4c-1.6,1.2-3.6,1.8-5.5,1.2c0.1,0.1,0.2,0.1,0.3,0.2c0.1,0,0.1,0.1,0.2,0.1h0.1
	c0.5,0.2,1,0.3,1.4,0.4c0,0,0,0,0.1,0s0.1,0,0.2,0h0.1c0.1,0,0.2,0,0.3,0c0,0,0,0,0.1,0s0.2,0,0.4,0l0,0c0.1,0,0.2,0,0.3,0h0.1
	c0.1,0,0.1,0,0.2,0c2.4-0.5,4-2.4,4.4-2.8l0.1-0.1c0.8-1.1,2.2-1.5,2.2-1.5c0.2-0.1,0.3-0.2,0.5-0.3c2.3-1.5,1.6-5.6,1.6-5.6
	c0-0.1,0-0.1,0-0.2c0-0.1,0-0.2,0-0.3s0-0.1,0-0.2c0-0.1,0-0.2,0-0.3s0-0.1,0-0.2c0-0.1,0-0.2,0-0.3s0-0.1,0-0.2c0-0.1,0-0.2,0-0.3
	s0-0.1,0-0.2c0-0.1,0-0.2,0-0.3s0-0.1,0-0.2c0-0.1,0-0.2,0-0.3s0-0.1,0-0.2c0-0.1,0-0.2-0.1-0.3c0-0.1,0-0.1,0-0.2
	c0-0.1,0-0.2-0.1-0.3v-0.1c0-0.1-0.1-0.2-0.1-0.3v-0.1c0-0.1-0.1-0.3-0.1-0.4c0-0.1,0-0.1-0.1-0.2c0-0.1,0-0.1-0.1-0.2
	c0-0.1,0-0.1-0.1-0.2c0-0.1,0-0.1,0-0.2c0-0.1,0-0.2-0.1-0.2v-0.1c0-0.1-0.1-0.2-0.1-0.2v-0.1c0-0.1-0.1-0.2-0.1-0.3l0,0
	c-0.3-1-0.7-1.8-0.9-2.2C168.5,48.4,167.9,47.8,167.3,47.2z"/>
<path class="st1" d="M157.1,47.4c-0.2,0.8-0.5,1.5-0.7,2.3c-0.3,1-0.4,2-0.4,3.1c0,1.8,0.3,3.7,0.6,5.6c0.2,1.1,0.5,2.3,0.8,3.4
	c0.1,0.4,0.2,0.9,0.3,1.3c0.1,0.4,0.6,0.6,0.7,0.3c0.1-0.2-0.1-0.7-0.1-0.9c-0.1-0.6-0.2-1.1-0.3-1.7c-0.2-1.1-0.4-2.3-0.5-3.4
	c-0.2-2.3-0.3-4.7,0.4-6.5c0.2-0.5,0.5-1,0.7-1.5c0.1-0.3,0.3-0.7,0.3-1.2C158.8,47.1,157.3,46.4,157.1,47.4z"/>
<path class="st2" d="M161.4,68.6c-1.9,0-3.7-0.9-5.4-2.8c-0.5-0.1-2.7-0.9-4-3.4c-1.5-2.9-1.1-7,1.1-12.2c0.2-0.6,0.5-1.2,0.9-1.9
	v-0.2c0-0.1,0-0.1,0.1-0.1c1.6-1.6,4.2-3.8,7.3-3.8c2.7,0,5.3,1.6,7.9,4.7c0,0,0,0,0,0.1c0.2,0.4,0.4,1,0.7,1.7
	c0.6,1.7,1.4,4.2,1.4,7.1c0,0.2,0.8,4.8-2.3,6.2c0,0-1.3,0.4-2.1,1.4C167,65.6,164.8,68.6,161.4,68.6z M154.6,48.4L154.6,48.4
	c0,0.1,0,0.1,0,0.2c-0.3,0.7-0.6,1.3-0.9,1.9c-2.1,5-2.5,8.9-1.1,11.7c1.3,2.5,3.7,3.1,3.7,3.1c0.1,0,0.1,0,0.1,0.1
	c1.6,1.8,3.3,2.7,5.1,2.7c3.1,0,5.2-2.8,5.2-2.9c0.9-1.1,2.3-1.6,2.4-1.6c2.6-1.1,1.9-5.5,1.9-5.6c0-2.8-0.8-5.3-1.4-6.9
	c-0.3-0.7-0.5-1.3-0.7-1.7c-2.4-3-4.9-4.5-7.4-4.5C158.6,44.9,156.2,46.9,154.6,48.4z"/>
<path class="st0" d="M145.9,64.8c-5.5,6.9-8.9,1.4-8.9,1.4c-7-0.9-4.6-10.6-4.6-10.6c-0.1-0.9,0.4-2.6,0.7-3.8
	c0.2-0.8,0.5-1.4,0.5-1.4c0-0.2,0-0.4,0-0.6c2.7-2.9,8.4-7.3,13.6-0.3c0.2,0.9,0.5,1.7,0.7,2.5c0.5,1.8,0.9,3.1,0.9,3.1
	C150,60,145.9,64.8,145.9,64.8z"/>
<path class="st0" d="M145.9,64.8c-0.1,0.1-0.2,0.3-0.3,0.4C145.7,65.1,145.8,64.9,145.9,64.8c0,0,3.2-3.7,3.1-7.8
	C149.1,61.1,145.9,64.8,145.9,64.8z"/>
<path class="st0" d="M145.2,65.6c-0.1,0.1-0.2,0.2-0.3,0.3C145.1,65.8,145.2,65.7,145.2,65.6z"/>
<path class="st0" d="M145.6,65.2c-0.1,0.1-0.2,0.2-0.3,0.3C145.4,65.4,145.5,65.3,145.6,65.2z"/>
<path class="st3" d="M145.3,65.5C145.3,65.5,145.3,65.6,145.3,65.5C145.3,65.6,145.3,65.5,145.3,65.5z"/>
<path class="st3" d="M145.6,65.2L145.6,65.2L145.6,65.2z"/>
<path class="st3" d="M145.3,42.5c0.4,1.9,1.2,4.7,1.9,7.1c0.2,0.9,0.5,1.7,0.7,2.5c0.5,1.8,0.9,3.1,0.9,3.1c0.2,0.6,0.2,1.2,0.2,1.8
	c0-0.6-0.1-1.2-0.2-1.8c0-0.1-0.4-1.3-0.9-3.1c-0.2-0.8-0.5-1.6-0.7-2.5C146.5,47.1,145.7,44.4,145.3,42.5c0,0-4.4-22.9-6.8-27.7
	c0,0,0-0.1-0.1-0.1c0,0.1,0.1,0.1,0.1,0.1C140.9,19.6,145.3,42.5,145.3,42.5z"/>
<path class="st1" d="M149,57c0-0.6-0.1-1.2-0.2-1.8c0-0.1-0.4-1.3-0.9-3.1c-0.2-0.8-0.5-1.6-0.7-2.5c-0.5-0.7-1-1.3-1.6-1.8
	c0.1,0.4,0.2,0.9,0.4,1.3c0.2,0.9,0.5,1.7,0.7,2.5c0.5,1.8,0.9,3.1,0.9,3.1c1.3,4.8-2.9,9.6-2.9,9.6c-2.6,3.2-4.7,3.8-6.3,3.4
	c0.8,0.5,1.8,0.8,3,0.5l0,0c0.1,0,0.2,0,0.2-0.1l0,0c0.2-0.1,0.5-0.2,0.7-0.3l0,0c0.1,0,0.2-0.1,0.2-0.1l0,0c0.1,0,0.2-0.1,0.3-0.1
	l0,0c0.3-0.2,0.5-0.3,0.8-0.6l0,0c0.1-0.1,0.2-0.1,0.3-0.2l0,0c0.3-0.2,0.6-0.5,0.9-0.8l0,0c0.1-0.1,0.2-0.2,0.3-0.3l0,0
	c0.1-0.1,0.2-0.2,0.3-0.3l0,0c0.1-0.1,0.2-0.2,0.3-0.4C145.9,64.8,149.1,61.1,149,57z"/>
<path class="st1" d="M136,49.2c-0.1,0.6-0.3,1.2-0.5,1.8c-0.2,0.8-0.2,1.6-0.2,2.4c0.1,1.4,0.4,2.8,0.7,4.3c0.2,0.9,0.5,1.7,0.7,2.6
	c0.1,0.3,0.2,0.7,0.3,1s0.5,0.5,0.5,0.2c0-0.2-0.1-0.5-0.1-0.7c-0.1-0.4-0.2-0.9-0.3-1.3c-0.2-0.9-0.4-1.7-0.5-2.6
	c-0.3-1.8-0.5-3.6,0-5.1c0.1-0.4,0.3-0.8,0.5-1.2c0.1-0.3,0.2-0.6,0.2-0.9C137.3,48.8,136.1,48.4,136,49.2z"/>
<path class="st2" d="M140.5,68.6c-2.1,0-3.4-1.6-3.7-2.1c-1.7-0.2-3-1-3.8-2.3c-2.1-3.1-1-8.1-0.9-8.7c-0.1-0.9,0.4-2.6,0.8-3.8
	c0.2-0.7,0.4-1.2,0.5-1.4c0-0.2,0-0.4,0-0.6c0-0.1,0-0.1,0.1-0.2c1.8-1.9,4.5-4.2,7.6-4.2c2.3,0,4.5,1.3,6.4,3.9v0.1
	c0.2,0.9,0.5,1.7,0.7,2.5c0.3,1.1,0.6,2,0.7,2.6c0.1,0.3,0.2,0.5,0.2,0.6c1.3,4.9-2.8,9.7-2.9,9.9C144.2,67.4,142.3,68.6,140.5,68.6
	z M133.9,50c0,0.2,0,0.4,0,0.5v0.1c0,0-0.2,0.6-0.5,1.4c-0.5,1.7-0.8,3-0.7,3.7v0.1c0,0.1-1.3,5.3,0.8,8.3c0.8,1.2,2,1.8,3.6,2
	c0.1,0,0.2,0.1,0.2,0.1s1.2,1.9,3.3,1.9c1.6,0,3.4-1.1,5.2-3.4c0-0.1,4-4.8,2.8-9.4c0,0-0.1-0.2-0.2-0.6c-0.2-0.5-0.4-1.5-0.7-2.6
	c-0.2-0.7-0.4-1.6-0.7-2.4c-1.8-2.4-3.7-3.6-5.9-3.6C138.2,46.1,135.6,48.2,133.9,50z"/>
<path class="st0" d="M210.6,68.1c0,0-2.5,0.8-5.7-1.1c0,0-3-0.6-4.8-2.2c0,0-5.2-2.2-0.2-13.2c0.1-0.2,0.2-0.5,0.3-0.7
	c0,0,0.6-1.5,1.3-3.6c2.7-3.6,7.1-6.9,12.1-0.6l0.3,1.8c0.5,3.2,1.1,7.2,1.2,9v0.2c0,0,1,6,0.6,7.7
	C215.6,65.4,216.1,68.7,210.6,68.1z"/>
<path class="st1" d="M215.7,64.2c0-1.4-0.2-2.9-0.4-4.3c-0.1-0.6-0.2-1.1-0.3-1.7c0-0.2-0.1-0.4,0-0.7c0-0.3-0.1-0.7-0.1-1
	c0-0.4-0.1-0.7-0.1-1.1c-0.1-0.7-0.2-1.5-0.3-2.2c-0.2-1.5-0.4-3-0.6-4.4c-0.1-0.7-0.2-1.4-0.3-2.1c-0.4-0.5-0.9-1.1-1.4-1.5
	c0.5,2.9,0.9,5.8,1.3,8.7c0.1,0.7,0.2,1.4,0.3,2.2c0,0.3,0.1,0.7,0.1,1c-0.1,0.3,0.1,0.7,0.1,1c0.2,1.3,0.4,2.6,0.5,3.9
	c0-0.2,0-0.4-0.1-0.6c0.1,0.7,0.1,1.4,0.1,2.1c0,0.3,0,0.7-0.1,1.1c-0.1,0.3,0,0.6-0.1,0.9c-0.2,1-0.9,1.6-1.8,1.9
	c-0.9,0.3-1.9,0.3-2.9,0.2c-0.3,0-0.7,0.1-1,0.1c-0.4,0-0.7,0-1.1,0c-0.7,0-1.4-0.2-2.1-0.4c1.1,0.6,2.3,0.9,3.5,1
	c0.5,0,1.1,0,1.6-0.1c0.1,0,0.2,0,0.2,0c0.2,0,0.3,0,0.5,0c0.3,0,0.6,0,0.9,0c1-0.1,2.3-0.3,2.9-1.2c0.3-0.4,0.4-0.9,0.5-1.3
	c0-0.2,0-0.4,0-0.6C215.7,64.8,215.7,64.5,215.7,64.2C215.7,64.2,215.7,64.3,215.7,64.2z"/>
<path class="st1" d="M202.2,62.6c-0.1-0.8-0.3-1.4-0.5-2.2c-0.2-0.9-0.2-1.9-0.1-2.9c0.2-1.7,0.6-3.3,1.2-5c0.3-1,0.7-2,1.1-3
	c0.2-0.4,0.3-0.8,0.5-1.2c0.1-0.4,0.6-0.5,0.7-0.2c0,0.2-0.2,0.6-0.2,0.8c-0.2,0.5-0.3,1-0.5,1.5c-0.3,1-0.6,2-0.8,3.1
	c-0.5,2.1-0.8,4.2-0.3,5.9c0.1,0.5,0.3,1,0.5,1.4c0.1,0.3,0.2,0.7,0.2,1.1C203.9,63.1,202.3,63.6,202.2,62.6z"/>
<path class="st2" d="M209.2,68.6c-1,0-2.6-0.2-4.4-1.3c-0.4-0.1-3.1-0.7-4.9-2.2c-0.2-0.1-1.4-0.7-2-2.4c-0.7-1.8-1-5.2,1.7-11.1
	c0.1-0.2,0.2-0.5,0.3-0.7l0,0c0,0,0.6-1.5,1.2-3.6v-0.1c4.1-5.4,8.6-5.7,12.5-0.6c0,0,0,0.1,0.1,0.1l0.3,1.8c0.5,3.1,1.1,7.2,1.2,9
	c0,0,0,0,0,0.1v0.2c0.1,0.6,1,5.9,0.6,7.7c0,0.2,0.1,1.1-0.6,1.8c-0.8,1-2.4,1.4-4.6,1.1C210.5,68.5,210,68.6,209.2,68.6z
	 M201.7,47.5c-0.7,2.1-1.2,3.6-1.2,3.6c-0.1,0.3-0.2,0.5-0.3,0.7c-2.6,5.7-2.4,8.9-1.7,10.6c0.6,1.7,1.8,2.1,1.8,2.1h0.1
	c1.7,1.5,4.7,2.1,4.7,2.1h0.1c1.7,1,3.2,1.2,4.2,1.2c0.8,0,1.3-0.1,1.3-0.1h0.1c2.1,0.2,3.5-0.1,4.2-0.9c0.6-0.7,0.4-1.4,0.4-1.5
	v-0.1c0.4-1.7-0.6-7.5-0.6-7.6v-0.1v-0.2c-0.1-1.8-0.7-5.8-1.2-8.9l-0.3-1.7c-1.8-2.2-3.6-3.4-5.4-3.4
	C205.3,43.5,203.1,45.6,201.7,47.5z"/>
<path class="st0" d="M218.7,61.8c0,0-2.4-24.9,11.6-23.8c0,0,7.6-0.9,9.3,13.4c1.4,11.8,1.1,9.8,1.3,13.3c0,0,0.4,4-3.4,3.6
	c0,0-11.5,0-18.1-3.5C219.4,64.7,218.8,64.9,218.7,61.8z"/>
<path class="st1" d="M241.1,64.7c-0.2-3.5,0.1-1.5-1.3-13.3c-0.1-1.2-0.5-2.9-0.8-3.9l-0.9-2.6c0.1,0.9,0.3,4.8,0.4,6.1
	c1.4,11.8,1.1,9.8,1.3,13.3c0,0,0.4,3.7-3.1,3.6c-0.1,0-0.3,0-0.4,0h-0.1c-1,0-9.4-0.2-15.7-2.5c-0.1,0-0.3-0.1-0.4-0.1
	c0.1,0,0.2,0.1,0.3,0.1c6.4,2.8,15.9,3,17,3h0.1c0.1,0,0.3,0,0.4,0C241.4,68.4,241.1,64.7,241.1,64.7z"/>
<path class="st1" d="M234.7,61.1c0.2-0.7,0.3-1.5,0.3-2.2c0.1-1.6,0-3.1-0.3-4.6c-0.2-1.6-0.6-3.1-0.9-4.7c-0.2-0.8-0.4-1.6-0.6-2.3
	c-0.1-0.4-0.2-0.7-0.3-1.1c-0.1-0.3-0.2-0.8-0.3-1.1c-0.1-0.1-0.3-0.3-0.5-0.2s-0.1,0.5-0.1,0.7c0.2,0.7,0.3,1.3,0.5,2
	c0.3,1.5,0.6,3.1,0.9,4.7c0.2,1.5,0.4,3,0.3,4.6c0,0.7-0.1,1.4-0.2,2.1c-0.1,0.7-0.4,1.4-0.6,2.2c-0.2,0.9-0.6,2,0.2,2.7
	c0.2,0.2,0.5,0.3,0.8,0.3c0.3-0.1,0.5-0.4,0.5-0.7C234.3,62.3,234.5,61.8,234.7,61.1z"/>
<path class="st2" d="M238,68.6c-0.2,0-0.3,0-0.5,0l0,0c-0.3,0-11.6-0.1-18.2-3.5c-0.3,0-0.8-0.5-0.9-3.2c-0.1-0.6-1.4-14.9,4.4-21.2
	c1.7-1.9,4-2.9,6.6-2.9c0.3,0,0.6,0,0.9,0c0,0,0.1,0,0.3,0c1.3,0,7.7,0.7,9.3,13.6c1.1,9.3,1.2,10,1.3,11.7c0,0.4,0,0.9,0.1,1.7
	c0,0.1,0.2,1.8-0.9,3C239.8,68.3,239,68.6,238,68.6z M219.4,64.4C219.4,64.4,219.5,64.4,219.4,64.4c6.6,3.5,18,3.5,18.1,3.5
	c0.2,0,0.4,0,0.5,0c0.8,0,1.4-0.2,1.9-0.7c0.9-1,0.7-2.5,0.7-2.6c0-0.7-0.1-1.2-0.1-1.7c-0.1-1.6-0.1-2.3-1.3-11.6
	c-1.5-12.5-7.6-13.2-8.8-13.2c-0.2,0-0.2,0-0.2,0c-0.3,0-0.6,0-0.9,0c-2.5,0-4.6,0.9-6.2,2.7c-5.6,6.1-4.2,20.7-4.2,20.8
	C219.1,63.9,219.3,64.3,219.4,64.4z"/>
<path class="st0" d="M245.4,85.3c-0.4-2.5-0.8-5-1.1-7.5c-0.2-1.3-0.3-2.6-0.4-4c0-0.5-0.1-1.1,0-1.6c0-0.4,0-0.7,0.3-1.1
	s0.9-0.6,1.4-0.8c1-0.3,2-0.4,3-0.4c2.3-0.1,4.6,0.2,6.9,0.5c0.3,0,0.7,0.1,1,0.1c0.1,0,0.3,0,0.4,0c0.5,0,1,0.2,1.1,0.8
	c0.1,0.3-0.1,0.6-0.1,1c0,0.2,0,0.4,0,0.6c-0.1,2.3-0.2,4.6-0.4,6.9c-0.2,2.7-0.5,5.5-1.2,8.2c-0.1,0.3-0.1,0.6-0.2,0.9
	c-0.1,0.2-0.2,0.5-0.2,0.7s-0.1,0.4-0.2,0.6c-0.1,0.2-0.2,0.4-0.3,0.6c-0.4,0.7-0.8,1.4-1.4,2c-0.9,0.9-2.1,1.6-3.3,1.2
	c-0.7-0.2-1.4-0.7-1.9-1.2c-0.8-0.8-1.5-1.7-2-2.6c-0.1-0.2-0.3-0.5-0.4-0.7c-0.1-0.2-0.4-0.5-0.4-0.8s-0.1-0.7-0.1-1
	C245.6,86.9,245.5,86.1,245.4,85.3z"/>
<path class="st1" d="M254,71.1c0,1.3-0.3,2.5-0.6,3.7c-0.1,0.4-0.4,0.8-0.4,1.2c0,0.5,0.5,0.9,1,0.7c0.4-0.2,0.4-0.7,0.4-1
	c0.1-0.7,0.2-1.3,0.2-2c0-0.6,0-1.3-0.1-1.9c0-0.2,0-0.4-0.1-0.6C254.5,70.8,254,70.8,254,71.1z"/>
<path class="st1" d="M247.6,70.5c-0.4,2.5-0.6,5.1-0.5,7.6c0,0.4,0.3,0.8,0.8,0.7c0.5-0.1,0.6-0.5,0.6-0.9c-0.2-1.2-0.3-2.5-0.4-3.7
	c0-0.9,0-1.7,0-2.6c0-0.4,0-0.7,0-1.1C248.1,70.2,247.7,70.1,247.6,70.5z"/>
<path class="st1" d="M246.3,89.5c-0.1-0.2-0.4-0.5-0.4-0.8s-0.1-0.7-0.1-1c-0.1-0.8-0.2-1.6-0.4-2.4c-0.4-2.5-0.8-5-1.1-7.5
	c-0.2-1.3-0.3-2.6-0.4-4c0-0.4-0.1-0.8-0.1-1.2c0-0.1,0-0.3,0-0.4c0-0.4,0-0.7,0.3-1.1s0.9-0.6,1.4-0.8h0.1
	c-0.1,0.1-0.2,0.2-0.3,0.3c-0.3,0.3-0.2,0.7-0.3,1.1c0,0.5,0,1.1,0,1.6c0.1,1.3,0.3,2.6,0.4,4c0.3,2.5,0.7,5,1.1,7.5
	c0.1,0.8,0.2,1.6,0.4,2.4c0.1,0.3,0.1,0.7,0.1,1c0,0.1,0,0.1,0.1,0.2c0.1,0.7,0.2,1.7,0.2,2.8c-0.2-0.3-0.4-0.6-0.6-1
	C246.6,89.9,246.4,89.7,246.3,89.5z"/>
<path class="st2" d="M250.5,94.3c-0.7-0.2-1.3-0.6-2-1.2c-0.7-0.7-1.4-1.5-2.1-2.7c-0.1-0.2-0.3-0.5-0.4-0.7c0-0.1-0.1-0.1-0.1-0.2
	c-0.1-0.2-0.3-0.5-0.3-0.7c0-0.3-0.1-0.6-0.1-1c-0.1-0.5-0.2-1-0.2-1.6l-0.1-0.8c-0.4-2.6-0.8-5.3-1.1-7.5c-0.2-1.2-0.3-2.6-0.4-4
	v-0.1c0-0.5-0.1-1,0-1.5c0-0.1,0-0.1,0-0.2c0-0.3,0-0.7,0.3-1c0.4-0.5,1-0.7,1.5-0.8c1-0.3,2.2-0.4,3.1-0.4c2.4-0.1,4.9,0.2,6.9,0.5
	c0.4,0,0.7,0.1,1,0.1c0.1,0,0.1,0,0.2,0s0.1,0,0.3,0c0.7,0,1.2,0.4,1.4,1c0.1,0.3,0,0.5,0,0.7c0,0.1,0,0.2,0,0.3v0.6
	c-0.1,2.3-0.2,4.7-0.4,6.9c-0.2,2.6-0.5,5.5-1.2,8.2c-0.1,0.3-0.2,0.6-0.2,0.9c0,0.1-0.1,0.2-0.1,0.2c-0.1,0.1-0.1,0.3-0.1,0.4
	c0,0.2-0.1,0.4-0.2,0.6v0.1c-0.1,0.2-0.2,0.4-0.3,0.6c-0.5,0.8-0.9,1.5-1.4,2c-0.6,0.6-1.6,1.4-2.8,1.4l0,0
	C251.1,94.4,250.8,94.4,250.5,94.3z M256.7,70.9c-0.1,0-0.1,0-0.3,0c-0.3,0-0.7-0.1-1-0.1c-2-0.3-4.4-0.5-6.8-0.5
	c-0.9,0-2,0.1-3,0.4c-0.4,0.1-0.9,0.3-1.2,0.7c-0.2,0.2-0.2,0.4-0.2,0.7c0,0.1,0,0.1,0,0.2c0,0.5,0,1,0,1.5v0.1
	c0.1,1.4,0.3,2.8,0.4,4c0.3,2.2,0.6,4.9,1.1,7.5l0.1,0.8c0.1,0.5,0.2,1,0.2,1.6c0.1,0.3,0.1,0.7,0.1,1c0,0.1,0.1,0.3,0.2,0.5
	c0,0.1,0.1,0.1,0.1,0.2c0.1,0.2,0.3,0.5,0.4,0.7c0.7,1.1,1.3,1.9,2,2.6c0.6,0.6,1.2,0.9,1.8,1.1c0.2,0.1,0.4,0.1,0.7,0.1l0,0
	c1,0,1.9-0.7,2.4-1.2s0.9-1.1,1.3-1.9c0.1-0.2,0.2-0.4,0.3-0.6v-0.1c0.1-0.1,0.1-0.2,0.1-0.3c0-0.2,0.1-0.4,0.1-0.6
	c0-0.1,0.1-0.1,0.1-0.2c0.1-0.3,0.2-0.6,0.2-0.9c0.7-2.7,0.9-5.5,1.2-8.1c0.2-2.2,0.3-4.5,0.4-6.9v-0.6c0-0.1,0-0.3,0.1-0.4
	c0-0.2,0.1-0.3,0-0.5c-0.1-0.4-0.6-0.5-0.9-0.5C256.8,70.9,256.7,70.9,256.7,70.9z"/>
<path class="st0" d="M265.6,93.4c0,0-1,0-2.9-3.9c0-0.5,0-0.8,0-0.8c-0.8-2.3-1.3-17.1-1.3-17.1c0.2-2.4,5.7-1.3,5.7-1.3
	c7.5-0.1,7.1,2.1,7.1,2.1c0.5,4.8-0.7,11.1-1.3,14C271.6,89.9,269.4,94.4,265.6,93.4z"/>
<path class="st0" d="M262.7,88.7c-0.8-2.3-1.3-17.1-1.3-17.1l0,0C261.5,71.8,262,86.4,262.7,88.7L262.7,88.7z"/>
<path class="st0" d="M261.5,71.3L261.5,71.3L261.5,71.3z"/>
<path class="st0" d="M261.5,71.4L261.5,71.4L261.5,71.4z"/>
<path class="st3" d="M261.5,71.3C261.5,71.3,261.5,71.4,261.5,71.3C261.5,71.4,261.5,71.3,261.5,71.3z"/>
<path class="st3" d="M261.5,71.5L261.5,71.5L261.5,71.5L261.5,71.5z"/>
<path class="st3" d="M261.5,71.3c0.2-0.7,0.8-1.1,1.7-1.2l0,0C262.3,70.3,261.7,70.6,261.5,71.3z"/>
<path class="st1" d="M262.7,88.7L262.7,88.7L262.7,88.7c-0.8-2.3-1.3-16.9-1.3-17.1c0,0,0,0,0-0.1c0,0,0,0,0-0.1v-0.1l0,0
	c0.2-0.7,0.8-1,1.6-1.2c-0.4,0.2-0.6,0.6-0.6,1c0,0,1.3,19.3,1.2,20.3c-0.3-0.5-0.6-1.1-1-1.9C262.7,89,262.7,88.7,262.7,88.7z"/>
<path class="st1" d="M270.9,70.9c0,0-0.1,0.4-0.2,1.1s-0.3,1.6-0.4,2.5c0,0.2-0.1,0.5-0.1,0.7s0,0.4-0.1,0.7c0,0.2,0,0.4,0,0.6
	s0,0.4,0,0.6s0,0.3,0,0.5c0,0.1,0,0.3,0,0.4c0,0.2,0.1,0.3,0.1,0.3c0,0.2,0.3,0.4,0.5,0.3c0.2,0,0.4-0.3,0.3-0.5l0,0l0,0
	c0,0,0-0.1-0.1-0.3c0-0.1,0-0.2-0.1-0.3c0-0.1,0-0.3-0.1-0.4c0-0.2,0-0.3,0-0.5s0-0.4,0-0.6s0-0.4,0-0.6s0-0.4,0-0.7
	c0.1-0.9,0.2-1.8,0.2-2.5c0.1-0.7,0.1-1.1,0.1-1.1c0-0.1-0.1-0.2-0.2-0.2C271.1,70.7,271,70.8,270.9,70.9z"/>
<path class="st1" d="M266.4,70.7c0,0,0,0.1,0,0.4c0,0.1,0,0.3,0,0.4c0,0.2,0,0.3,0,0.5s0,0.4,0,0.6s0,0.5,0,0.7c0,0.5,0.1,1,0.1,1.5
	s0.1,1,0.1,1.5c0,0.2,0,0.5,0,0.7s0,0.4,0,0.6s0,0.4-0.1,0.5c0,0.1,0,0.3-0.1,0.4c-0.1,0.2-0.1,0.3-0.1,0.3l0,0
	c-0.1,0.3,0.1,0.6,0.4,0.6c0.3,0.1,0.6-0.1,0.6-0.4l0,0c0,0,0-0.1,0.1-0.4c0-0.1,0-0.3,0-0.5s0-0.4,0-0.6s0-0.4,0-0.7
	c0-0.2,0-0.5-0.1-0.7c-0.1-0.5-0.1-1-0.2-1.6c-0.1-0.5-0.2-1-0.2-1.5c0-0.2-0.1-0.5-0.1-0.7s0-0.4-0.1-0.6c0-0.2,0-0.4,0-0.5
	c0-0.2,0-0.3,0-0.4c0-0.2,0-0.4,0-0.4c0-0.1-0.1-0.2-0.2-0.2C266.5,70.5,266.4,70.6,266.4,70.7z"/>
<path class="st2" d="M265.5,93.5c-0.3,0-1.4-0.4-3.1-4.1v-0.1v-0.8c-0.8-2.4-1.3-16.6-1.3-17.2c0.1-0.8,0.7-1.8,3.4-1.8
	c1.2,0,2.4,0.2,2.6,0.3h0.3c4.5,0,6.1,0.8,6.7,1.5c0.3,0.4,0.3,0.7,0.3,0.8c0.5,4.7-0.6,10.8-1.3,14.1c-1.2,3.2-3.1,7.4-6.5,7.4l0,0
	C266.2,93.6,265.9,93.6,265.5,93.5z M267.1,70.3C267,70.3,267,70.3,267.1,70.3c-0.1,0-1.3-0.3-2.6-0.3c-1.2,0-2.7,0.2-2.8,1.3
	c0,0.1,0.5,14.9,1.3,17.1v0.1v0.8c1.6,3.5,2.6,3.7,2.6,3.7s0,0,0.1,0c0.3,0.1,0.7,0.1,1,0.1l0,0c2.3,0,4.3-2.3,6-7
	c0.5-2.6,1.7-9.1,1.3-13.9c0,0,0,0,0-0.1c0,0,0-0.2-0.2-0.5c-0.4-0.5-1.8-1.3-6.2-1.3L267.1,70.3z"/>
<path class="st0" d="M284.8,71.4c2.3-4.4,9.5,3.1,9.5,3.1c7.4,4.3,3.3,17.2,1.7,21.5c-2.5,3.6-7.2,6-15.2-1.8
	c-1-5.1-1.8-10.5-1.8-10.5C278.4,76.9,284.8,71.4,284.8,71.4z"/>
<path class="st1" d="M292.6,75.3C292.6,75.3,292.7,75.4,292.6,75.3c0,0.1,0,0.2,0,0.3c0,0.2,0.1,0.4,0.1,0.7c0,0.3,0,0.7,0,1.1
	s0,0.8,0,1.2c0,0.2,0,0.4-0.1,0.6c0,0.2-0.1,0.4-0.1,0.6s-0.1,0.4-0.1,0.5c0,0.2-0.1,0.3-0.1,0.5s-0.1,0.3-0.1,0.4s-0.1,0.2-0.1,0.3
	c0,0.2-0.1,0.3-0.1,0.3l0,0c-0.1,0.2,0.1,0.5,0.3,0.6c0.2,0.1,0.5-0.1,0.6-0.3l0,0c0,0,0-0.1,0.1-0.3c0-0.1,0-0.2,0.1-0.3
	c0-0.1,0-0.3,0.1-0.4c0-0.2,0.1-0.3,0.1-0.5s0-0.4,0.1-0.6c0-0.2,0-0.4,0-0.6s0-0.4,0-0.6c0-0.4,0-0.9,0-1.3s-0.1-0.8-0.1-1.1
	c0-0.3-0.1-0.6-0.1-0.8c0-0.1,0-0.2,0-0.2v-0.1c0-0.1-0.2-0.2-0.3-0.2C292.7,75.1,292.6,75.2,292.6,75.3L292.6,75.3z"/>
<path class="st1" d="M285.5,73c0,0,0,0.1-0.1,0.2c0,0.2-0.1,0.4-0.2,0.7c-0.1,0.3-0.2,0.6-0.2,1c-0.1,0.4-0.2,0.9-0.3,1.3
	c-0.4,2-0.7,4.6-0.9,7.3c0,0.7-0.1,1.3-0.1,2s0,1.3,0,2c0,0.6,0,1.2,0.1,1.8c0,0.1,0,0.3,0,0.4s0,0.3,0,0.4c0,0.3,0.1,0.5,0.1,0.8
	s0.1,0.5,0.1,0.7s0.1,0.5,0.2,0.7c0,0.2,0.1,0.4,0.2,0.6c0,0.1,0.1,0.2,0.1,0.3c0,0.1,0.1,0.2,0.1,0.2c0.1,0.1,0.1,0.3,0.2,0.4
	s0.1,0.2,0.1,0.3c0.1,0.2,0.1,0.2,0.1,0.2c0.2,0.4,0.7,0.6,1.1,0.4s0.6-0.7,0.4-1.1l0,0v-0.1c0,0,0-0.1-0.1-0.2
	c0-0.1-0.1-0.1-0.1-0.2s-0.1-0.2-0.1-0.3c0-0.1-0.1-0.1-0.1-0.2s-0.1-0.1-0.1-0.2c-0.1-0.2-0.1-0.3-0.2-0.5s-0.1-0.4-0.2-0.6
	s-0.1-0.4-0.2-0.7c0-0.2-0.1-0.5-0.1-0.7c0-0.1,0-0.3-0.1-0.4c0-0.1,0-0.3-0.1-0.4c-0.1-0.6-0.1-1.1-0.2-1.7c0-0.6-0.1-1.2-0.1-1.9
	c0-0.6,0-1.3,0-2c0-2.6,0.3-5.3,0.5-7.2c0.1-0.5,0.1-0.9,0.2-1.3s0.1-0.7,0.2-1s0.1-0.5,0.1-0.6s0.1-0.2,0.1-0.2l0,0
	c0-0.1,0-0.3-0.2-0.3C285.7,72.8,285.6,72.8,285.5,73z"/>
<path class="st0" d="M279.3,85.7c0.3,1.8,0.8,4.7,1.3,7.6C280.1,90.4,279.6,87.5,279.3,85.7z"/>
<path class="st0" d="M279.3,85.7L279.3,85.7L279.3,85.7z"/>
<path class="st3" d="M279.3,85.7L279.3,85.7L279.3,85.7z"/>
<path class="st3" d="M279,83.7c0,0,0.1,0.8,0.3,2C279.1,84.4,279,83.7,279,83.7c0-0.3,0-0.6,0-0.9C279,83,279,83.4,279,83.7z"/>
<path class="st1" d="M279,82.7c0-6.4,5.9-11.4,5.9-11.4c0.4-0.9,1.1-1.3,1.8-1.4c-0.3,0.2-0.5,0.5-0.7,0.9c0,0-6.5,5.5-5.9,12.3
	c0,0,0.9,5.4,1.8,10.5c0.1,0.6,0.2,1.3,0.4,1.9c-0.5-0.4-1-0.9-1.5-1.4c-0.1-0.3-0.1-0.6-0.2-1c-0.5-2.9-1-5.8-1.3-7.6l0,0l0,0
	c-0.2-1.2-0.3-2-0.3-2C279,83.4,279,83,279,82.7z"/>
<path class="st2" d="M280.6,94.5c0,0-0.1-0.1-0.1-0.2c-1-5.1-1.8-10.5-1.8-10.6c-0.6-6.6,5.3-12,5.9-12.5c0.5-1,1.3-1.5,2.4-1.5
	c3,0,7.1,4.1,7.5,4.6c7.6,4.4,3.3,17.8,1.8,21.8c0,0,0,0,0,0.1c-1.6,2.3-3.6,3.5-6,3.5l0,0C287.5,99.7,284.2,98,280.6,94.5z
	 M294.2,74.8L294.2,74.8c-0.1-0.1-4.4-4.5-7.2-4.5c-0.9,0-1.5,0.4-1.9,1.2c0,0,0,0.1-0.1,0.1c-0.1,0.1-6.4,5.5-5.8,12.1
	c0,0.1,0.9,5.4,1.8,10.4c3.5,3.3,6.6,5,9.2,5l0,0c2.1,0,4-1.1,5.5-3.2C297.3,92,301.5,79,294.2,74.8z"/>
<path class="st0" d="M305.5,74.3c7.1-8.7,12.1-1.7,12.1-1.7c1.9,2.1,4.3,4.8,4.3,4.8c4.6,2.5-0.3,12.6-1.5,14.9
	c-3.9,2.6-10.4,4.5-15.5-0.4c-1.1-2.5-2.9-9.6-2.9-9.6C301,79.3,305.5,74.3,305.5,74.3z"/>
<path class="st1" d="M302,82.3c-1.1-3.1,3.5-8,3.5-8c1.4-1.7,2.8-2.8,4-3.5c-0.8,0.6-1.6,1.5-2.5,2.5c0,0-4.5,4.9-3.5,8
	c0,0,1.8,7.1,2.9,9.6c0.2,0.4,0.3,0.7,0.5,0.8c0,0,0,0.6,0.1,1.7c-0.7-0.4-1.4-0.9-2-1.5C303.8,89.4,302,82.3,302,82.3z"/>
<path class="st1" d="M319,89.5c0,0-0.1,0.1-0.4,0.4c-0.1,0.1-0.3,0.3-0.4,0.4c-0.2,0.2-0.3,0.4-0.5,0.6s-0.4,0.4-0.6,0.6
	c-0.1,0.1-0.2,0.2-0.4,0.3c-0.1,0.1-0.3,0.2-0.4,0.3c-0.1,0.1-0.3,0.2-0.4,0.2c-0.2,0.1-0.3,0.1-0.5,0.2s-0.3,0.1-0.5,0.2l-0.3,0.1
	h-0.3c-0.2,0-0.4,0.1-0.5,0.1c-0.2,0-0.4,0-0.6,0c-0.4,0-0.7,0-1.1,0s-0.7,0-1,0s-0.6-0.1-0.9-0.1s-0.5,0-0.8-0.1
	c-0.2,0-0.4-0.1-0.6-0.1c-0.3,0-0.5-0.1-0.5-0.1s0.2,0,0.5,0.1c0.2,0,0.4,0.1,0.6,0.1c0.2,0.1,0.5,0.1,0.8,0.2
	c0.3,0,0.6,0.1,0.9,0.2c0.3,0,0.7,0.1,1,0.1c0.4,0,0.7,0.1,1.1,0.1c0.2,0,0.4,0,0.6,0s0.4,0,0.6,0h0.3l0.3-0.1
	c0.2,0,0.4-0.1,0.6-0.1c0.2-0.1,0.4-0.1,0.6-0.2s0.4-0.1,0.5-0.2c0.2-0.1,0.3-0.2,0.5-0.3c0.2-0.1,0.3-0.2,0.4-0.3
	c0.3-0.2,0.5-0.4,0.8-0.6c0.2-0.2,0.4-0.4,0.6-0.5c0.2-0.2,0.3-0.3,0.4-0.4c0.3-0.2,0.4-0.3,0.4-0.3l0,0c0.2-0.2,0.3-0.6,0.1-0.8
	C319.6,89.3,319.3,89.2,319,89.5C319,89.4,319,89.5,319,89.5z"/>
<path class="st2" d="M304.7,92.2L304.7,92.2c-1.2-2.6-2.9-9.4-3-9.7c-1.1-3.2,3.3-8.1,3.5-8.3c2.4-3,4.9-4.5,7.3-4.5
	c3.2,0,5.2,2.6,5.3,2.7c1.7,2,3.9,4.4,4.2,4.8c4.7,2.6,0.1,12.3-1.4,15.2v0.1h-0.1c-1.5,1-4.5,2.7-8.2,2.7l0,0
	C309.4,95.3,306.9,94.3,304.7,92.2z M321.8,77.7L321.8,77.7c-0.1-0.1-2.5-2.8-4.4-4.9c0,0-1.9-2.5-4.8-2.5c-2.3,0-4.6,1.4-6.9,4.3
	c0,0-4.4,4.8-3.4,7.7c0,0.1,1.8,7,2.8,9.5c2,1.9,4.5,2.9,7.2,2.9c2.6,0,5.4-0.9,7.9-2.6C321.3,90,326.1,80.1,321.8,77.7z"/>
<path class="st0" d="M333.5,71.5c2.9-3.2,5.7-0.3,5.7-0.3c1.2,0.7,5.3,4.9,5.3,4.9c4.3,2.1,2.3,8.4,0.5,12.3
	c-3.4,5.2-8.8,10.7-16,2.9c-1-3.6-2.3-10.6-2.3-10.6C325.6,76.7,333.1,72,333.5,71.5z"/>
<path class="st1" d="M340.9,90.6c0,0-0.4,0.3-1,0.6c-0.1,0.1-0.3,0.2-0.5,0.3c-0.2,0.1-0.4,0.2-0.5,0.3c-0.1,0-0.2,0.1-0.3,0.1
	c-0.1,0-0.2,0.1-0.3,0.1c-0.1,0-0.2,0.1-0.3,0.1l-0.3,0.1c-0.2,0-0.4,0.1-0.6,0.1h-0.2c-0.1,0-0.1,0-0.2,0s-0.2,0-0.3,0
	c-0.1,0-0.2,0-0.3-0.1H336h-0.1c-0.2-0.1-0.4-0.1-0.5-0.2c-0.2-0.1-0.3-0.1-0.4-0.2s-0.2-0.1-0.3-0.1c-0.2-0.1-0.3-0.1-0.3-0.1l0,0
	c-0.4-0.2-0.9-0.1-1.1,0.2c-0.2,0.3-0.1,0.7,0.3,0.9h0.1c0,0,0.1,0,0.4,0.1c0.1,0,0.2,0.1,0.4,0.1c0.2,0,0.3,0.1,0.6,0.1
	c0.2,0.1,0.4,0.1,0.7,0.1c0.1,0,0.1,0,0.2,0s0.1,0,0.2,0s0.3,0,0.4,0s0.3,0,0.4,0s0.1,0,0.2,0s0.1,0,0.2,0c0.3,0,0.6-0.1,0.9-0.2
	c0.1,0,0.3-0.1,0.4-0.1c0.1-0.1,0.3-0.1,0.4-0.2s0.2-0.1,0.3-0.2c0.1-0.1,0.2-0.1,0.3-0.2c0.2-0.1,0.4-0.3,0.5-0.4
	c0.2-0.1,0.3-0.2,0.5-0.4c0.5-0.4,0.9-0.7,0.9-0.7l0,0c0.1-0.1,0.1-0.2,0-0.3C341.1,90.5,341,90.5,340.9,90.6z"/>
<path class="st1" d="M329,91.3c-1-3.6-2.3-10.6-2.3-10.6c-1.2-4,6.3-8.7,6.8-9.2c0.3-0.3,0.5-0.5,0.8-0.7l0,0
	c0.1-0.1,0.2-0.1,0.2-0.2l0,0c0.1,0,0.2-0.1,0.2-0.1l0,0c0.1,0,0.2-0.1,0.2-0.1l0,0c0.2-0.1,0.5-0.2,0.7-0.2c0,0,0,0,0.1,0l0,0
	c-0.3,0.2-0.6,0.5-0.9,0.8c-0.4,0.5-7.9,5.2-6.8,9.2c0,0,1.7,9.6,2.8,12.1c0,0,0,0.4,0,1.1C330.4,92.7,329.7,92.1,329,91.3z"/>
<path class="st2" d="M328.8,91.8l-0.1-0.1c-1-3.5-2.2-10.6-2.3-10.6c-1-3.6,4.2-7.5,6.2-9c0.3-0.2,0.6-0.4,0.6-0.5
	c1-1.1,2-1.6,3.1-1.6c1.6,0,2.8,1.1,3,1.3c1.2,0.7,4.9,4.4,5.3,4.8c3.3,1.7,3.5,6.2,0.5,12.7c-3,4.7-6,6.9-9.2,6.9l0,0
	C333.7,95.8,331.2,94.4,328.8,91.8z M333.7,72c-0.1,0.1-0.3,0.2-0.7,0.5c-1.7,1.3-7,5.2-6,8.4c0,0.1,1.2,7,2.2,10.5
	c2.3,2.5,4.6,3.8,6.8,3.8c2.9,0,5.8-2.2,8.7-6.6c1.6-3.6,3.8-9.9-0.3-12c0,0-0.1,0-0.1-0.1c0,0-4.1-4.2-5.2-4.8c0,0,0,0-0.1,0
	c0,0-1.1-1.2-2.6-1.2C335.5,70.6,334.6,71,333.7,72z"/>
<path class="st0" d="M411.6,79.1c-0.2-1.2,0.1-2.5,0.7-3.7c7-6.3,11-2.6,11-2.6c3.2,3,3.7,1.3,3.7,1.3c1-1.6,4-1.4,7.1-0.6
	c0.5,0.4,0.7,0.6,0.7,0.6c5.3,3.6,2.8,11.8,1.8,14.4c-3.3,1.8-6.7,2.9-8.2,2.1c0,0-2-1.6-7.5,0.1c0,0-2.7,0.9-7.1-0.4
	c-0.3-1.5-0.6-2.8-0.6-2.8C411.6,84,411.6,79.1,411.6,79.1z"/>
<path class="st0" d="M411.5,78.1c0,0.3,0,0.6,0.1,0.9c0,0,0,5,1.7,8.3c0,0,0.4,1.3,0.6,2.9l0,0c-0.3-1.5-0.6-2.8-0.6-2.8
	c-1.7-3.3-1.7-8.3-1.7-8.3C411.5,78.8,411.5,78.5,411.5,78.1z"/>
<path class="st1" d="M411.6,79.1c-0.1-0.3-0.1-0.6-0.1-0.9c0-0.9,0.4-1.9,0.8-2.8c0.6-0.5,1.2-1,1.7-1.4c-0.9,1.4-1.6,3.1-1.3,4.8
	c0,0,0,5,1.7,8.3c0,0,0.5,1.7,0.8,3.5c-0.4-0.1-0.8-0.2-1.3-0.3c-0.3-1.6-0.6-2.9-0.6-2.9C411.6,84,411.6,79.1,411.6,79.1z"/>
<path class="st4" d="M427,74.1c0,0-0.6,1.7-3.7-1.3c0,0-4-3.8-11,2.6c1.1-2.2,2.8-3.9,2.8-3.9c3.3-3.8,9.3,0.8,9.3,0.8
	c0.8,1,2.2-0.5,2.2-0.5c2.1-2.1,5.9,0.4,7.5,1.6C431,72.7,428,72.5,427,74.1z"/>
<path class="st1" d="M422.9,87.3c0,0-0.1,0.1-0.3,0.2c-0.1,0.1-0.2,0.1-0.4,0.2c-0.1,0.1-0.3,0.2-0.5,0.3c-0.2,0.1-0.4,0.2-0.6,0.3
	c-0.1,0-0.2,0.1-0.3,0.1c-0.1,0-0.2,0.1-0.3,0.1c-0.1,0-0.2,0.1-0.4,0.1c-0.1,0-0.3,0-0.4,0.1c-0.1,0-0.3,0-0.4,0h-0.2h-0.2
	c-0.1,0-0.3,0-0.4,0s-0.3,0-0.4-0.1c-0.3,0-0.5-0.1-0.8-0.2s-0.5-0.1-0.8-0.2c-0.2-0.1-0.5-0.1-0.7-0.2s-0.4-0.1-0.6-0.2
	s-0.3-0.1-0.4-0.1c-0.2-0.1-0.4-0.1-0.4-0.1s0.1,0.1,0.4,0.2c0.1,0.1,0.3,0.1,0.4,0.2c0.2,0.1,0.3,0.1,0.5,0.2s0.4,0.2,0.7,0.3
	c0.2,0.1,0.5,0.2,0.7,0.3c0.3,0.1,0.5,0.2,0.8,0.2c0.1,0,0.3,0.1,0.4,0.1s0.3,0,0.4,0.1h0.2h0.2c0.1,0,0.3,0,0.4,0s0.3,0,0.4,0
	s0.3,0,0.4-0.1c0.1,0,0.3-0.1,0.4-0.1s0.3-0.1,0.4-0.1c0.2-0.1,0.5-0.2,0.6-0.3c0.2-0.1,0.4-0.2,0.5-0.3c0.1-0.1,0.3-0.1,0.4-0.2
	c0.2-0.1,0.3-0.2,0.3-0.2l0,0c0.2-0.1,0.3-0.3,0.2-0.5S423.1,87.2,422.9,87.3L422.9,87.3z"/>
<path class="st1" d="M426.3,75.9c0,0,0.2,0.5,0.4,1.2c0.1,0.2,0.1,0.4,0.2,0.6s0.1,0.4,0.2,0.7c0,0.1,0.1,0.2,0.1,0.4
	c0,0.1,0,0.2,0.1,0.4c0,0.1,0,0.3,0,0.4V80c0,0.3,0,0.5,0,0.8V81c0,0.1,0,0.1,0,0.2s0,0.2-0.1,0.4c0,0.1,0,0.2-0.1,0.4
	c0,0.1,0,0.1,0,0.2s0,0.1,0,0.2c-0.1,0.2-0.1,0.4-0.2,0.6s-0.1,0.4-0.2,0.5s-0.1,0.3-0.1,0.4c-0.1,0.2-0.1,0.3-0.1,0.3v0.1
	c-0.2,0.5-0.1,1.1,0.1,1.3c0.2,0.3,0.5,0.1,0.7-0.3v-0.1c0,0,0-0.2,0.1-0.4c0-0.1,0.1-0.3,0.1-0.5s0.1-0.4,0.2-0.7
	c0.1-0.2,0.1-0.5,0.2-0.8c0-0.1,0-0.1,0-0.2s0-0.2,0-0.2c0-0.2,0-0.3,0.1-0.5c0-0.2,0-0.3,0-0.5c0-0.1,0-0.2,0-0.3
	c0-0.1,0-0.2,0-0.3c0-0.3,0-0.7,0-1c0-0.2,0-0.3-0.1-0.5c0-0.2-0.1-0.3-0.1-0.5s-0.1-0.3-0.1-0.4s-0.1-0.3-0.1-0.4
	c-0.1-0.3-0.2-0.5-0.2-0.7c-0.1-0.2-0.2-0.4-0.2-0.6c-0.3-0.7-0.5-1.1-0.5-1.1l0,0c-0.1-0.1-0.2-0.1-0.2,0
	C426.3,75.6,426.3,75.8,426.3,75.9z"/>
<path class="st6" d="M431,112.5c-0.2-0.2-0.6-2.1-1.1-1.4c-0.6,0.9,1.4,2.7,1.9,2.8C432,113.9,431.5,113.1,431,112.5z"/>
<path class="st2" d="M414.1,90.5c-0.1,0-0.2-0.1-0.2-0.2c-0.3-1.5-0.6-2.7-0.6-2.7l0,0c-1.7-3.3-1.7-8.2-1.7-8.4
	c-0.2-1.1,0-2.5,0.7-3.9c0,0,0-0.1,0.1-0.1c2.7-2.5,5.4-3.8,7.8-3.8c2.3,0,3.5,1.1,3.6,1.2c1.5,1.4,2.3,1.7,2.7,1.7
	c0.4,0,0.5-0.3,0.5-0.3s0,0,0-0.1c0.9-1.5,3.4-1.7,7.4-0.8h0.1c0.5,0.3,0.7,0.6,0.7,0.6c5.5,3.7,2.8,12.2,1.9,14.7
	c0,0.1-0.1,0.1-0.1,0.1c-2.8,1.5-5.3,2.4-7,2.4c-0.6,0-1.1-0.1-1.5-0.3c0,0-0.8-0.6-2.8-0.6c-1.3,0-2.8,0.3-4.4,0.8
	c0,0-0.9,0.3-2.6,0.3l0,0C417.3,91.2,415.7,91,414.1,90.5z M428.8,90.3c0.3,0.2,0.7,0.2,1.2,0.2c1.6,0,4.1-0.8,6.7-2.3
	c0.9-2.5,3.3-10.5-1.7-14c0,0-0.3-0.2-0.7-0.6c-3.6-0.9-5.9-0.7-6.7,0.5c-0.1,0.2-0.3,0.6-1,0.6c-0.8,0-1.8-0.6-3.1-1.8
	c0,0-1.1-1-3.2-1c-2.3,0-4.7,1.2-7.4,3.6c-0.6,1.3-0.9,2.5-0.7,3.5c0,0,0,5,1.6,8.2c0,0,0.3,1.2,0.6,2.7c1.5,0.4,3,0.7,4.3,0.7
	c1.5,0,2.4-0.3,2.4-0.3c1.7-0.6,3.3-0.8,4.6-0.8C427.9,89.5,428.9,90.3,428.8,90.3z"/>
<path class="st2" d="M412.6,75.7c-0.1,0-0.3-0.1-0.3-0.3c0-0.1,0-0.1,0.1-0.2c1.1-2.2,2.7-3.8,2.8-3.9c0.9-1,2.1-1.6,3.5-1.6
	c3,0,6,2.3,6.2,2.4l0,0c0.1,0.2,0.3,0.2,0.5,0.2c0.5,0,1.1-0.5,1.3-0.8c0.6-0.6,1.3-0.9,2.2-0.9c2.1,0,4.4,1.6,5.6,2.5
	c0.1,0.1,0.1,0.2,0.1,0.3c-0.1,0.1-0.2,0.2-0.3,0.2c-3.6-0.9-6-0.7-6.8,0.5c-0.1,0.2-0.3,0.6-1,0.6c-0.8,0-1.8-0.6-3.1-1.8
	c0,0-1.1-1-3.2-1c-2.3,0-4.8,1.2-7.4,3.6C412.7,75.6,412.7,75.7,412.6,75.7L412.6,75.7z M433.1,72.9c-1.2-0.8-2.8-1.6-4.2-1.6
	c-0.7,0-1.4,0.2-1.8,0.7c-0.1,0.1-0.9,0.9-1.7,0.9c-0.3,0-0.6-0.1-0.9-0.4c-0.3-0.2-3.1-2.2-5.8-2.2c-1.3,0-2.3,0.5-3.1,1.4
	c0,0-1,1-1.9,2.4c2.3-1.8,4.5-2.7,6.5-2.7c2.3,0,3.5,1.1,3.6,1.2c1.5,1.4,2.3,1.7,2.7,1.7c0.4,0,0.5-0.3,0.5-0.3s0,0,0-0.1
	c0.6-0.9,1.7-1.3,3.4-1.3C431.2,72.6,432.1,72.7,433.1,72.9z"/>
<path class="st0" d="M388.8,71.1c0.2,0.1,0.3,0.2,0.3,0.2c1.6-1.5,4.4,0.7,5.1,1.3c0.2,0.3,0.2,0.4,0.2,0.4c1.3,1.7,2.1,0.6,2.1,0.6
	c1-0.9,2.1-1.5,4.5-2.5c2.3-0.3,3.8,1.4,3.8,1.4c6.6,3.9,2.9,12,2,13.7c-3.4,2.3-5.2,1.8-8,1.6c0,0-4.6-2.1-8.2,0.2
	c0,0-2,0.8-5.7,0.2c-0.6-2.4-1.4-2.9-1.4-2.9c-2.2-4.6-0.8-9.1-0.4-10C385.3,75.1,387.1,72.5,388.8,71.1z"/>
<path class="st1" d="M393.5,84.7c0,0-0.1,0.1-0.3,0.2c-0.1,0.1-0.2,0.1-0.3,0.2c-0.1,0.1-0.3,0.2-0.4,0.3c-0.1,0.1-0.3,0.2-0.5,0.3
	c-0.1,0-0.2,0.1-0.3,0.1c-0.1,0-0.2,0.1-0.3,0.1c-0.1,0-0.2,0.1-0.3,0.1c-0.1,0-0.2,0-0.3,0.1c-0.1,0-0.2,0-0.3,0h-0.2h-0.2
	c-0.1,0-0.2,0-0.3,0c-0.1,0-0.2,0-0.3,0c-0.2,0-0.5-0.1-0.7-0.1s-0.4-0.1-0.6-0.2s-0.4-0.1-0.6-0.2s-0.3-0.1-0.5-0.2
	c-0.1,0-0.3-0.1-0.4-0.1c-0.2-0.1-0.3-0.1-0.3-0.1s0.1,0.1,0.3,0.1c0.1,0,0.2,0.1,0.3,0.2c0.1,0.1,0.3,0.1,0.5,0.2s0.3,0.2,0.5,0.2
	c0.2,0.1,0.4,0.1,0.6,0.2s0.4,0.1,0.7,0.2c0.1,0,0.2,0.1,0.4,0.1c0.1,0,0.2,0,0.4,0.1h0.2h0.2c0.1,0,0.3,0,0.4,0s0.2,0,0.4,0
	c0.1,0,0.2,0,0.4-0.1c0.1,0,0.2-0.1,0.3-0.1c0.1,0,0.2-0.1,0.3-0.1c0.2-0.1,0.4-0.2,0.5-0.3c0.2-0.1,0.3-0.2,0.4-0.2
	c0.1-0.1,0.2-0.1,0.3-0.2c0.2-0.1,0.3-0.2,0.3-0.2l0,0c0.2-0.1,0.2-0.3,0.1-0.5C393.9,84.6,393.7,84.6,393.5,84.7L393.5,84.7z"/>
<path class="st1" d="M396.2,75.6c0,0,0.2,0.5,0.4,1.2c0.1,0.2,0.1,0.4,0.2,0.6s0.1,0.4,0.2,0.7c0,0.1,0.1,0.2,0.1,0.4
	c0,0.1,0,0.2,0.1,0.4c0,0.1,0,0.3,0,0.4v0.4c0,0.3,0,0.5,0,0.8v0.2c0,0.1,0,0.1,0,0.2s0,0.2-0.1,0.4c0,0.1,0,0.2-0.1,0.4
	c0,0.1,0,0.1,0,0.2s0,0.1,0,0.2c-0.1,0.2-0.1,0.4-0.2,0.6s-0.1,0.4-0.2,0.5s-0.1,0.3-0.1,0.4c-0.1,0.2-0.1,0.3-0.1,0.3V84
	c-0.2,0.5-0.1,1.1,0.1,1.3c0.2,0.3,0.5,0.1,0.7-0.3v-0.1c0,0,0-0.2,0.1-0.4c0-0.1,0.1-0.3,0.1-0.5s0.1-0.4,0.2-0.7
	c0.1-0.2,0.1-0.5,0.2-0.8c0-0.1,0-0.1,0-0.2s0-0.2,0-0.2c0-0.2,0-0.3,0.1-0.5c0-0.2,0-0.3,0-0.5c0-0.1,0-0.2,0-0.3
	c0-0.1,0-0.2,0-0.3c0-0.3,0-0.7,0-1c0-0.2,0-0.3-0.1-0.5c0-0.2-0.1-0.3-0.1-0.5s-0.1-0.3-0.1-0.4s-0.1-0.3-0.1-0.4
	c-0.1-0.3-0.2-0.5-0.2-0.7c-0.1-0.2-0.2-0.4-0.2-0.6c-0.3-0.7-0.5-1.1-0.5-1.1l0,0c-0.1-0.1-0.2-0.1-0.2,0
	C396.2,75.3,396.2,75.5,396.2,75.6z"/>
<path class="st4" d="M394.4,73c0,0-0.1-0.2-0.2-0.4c0.1,0.1,0.2,0.1,0.2,0.1c3.4-3.6,4.9-1.1,4.9-1.1c0.6-0.4,1.2-0.5,1.7-0.6
	c-2.4,1-3.5,1.6-4.5,2.5C396.5,73.5,395.8,74.6,394.4,73z"/>
<path class="st5" d="M390.9,70c0,0-0.1,0-0.3,0C390.7,70,390.8,70,390.9,70z"/>
<path class="st4" d="M388.8,71.1c-1.6,1.5-3.5,4-5.7,4.2c0-0.1,0.1-0.2,0.1-0.2C386.3,70.4,388.1,70.7,388.8,71.1z"/>
<path class="st1" d="M383.5,85.3c-2.2-4.6-0.8-9.1-0.4-10c0.4,0,0.7-0.1,1-0.3c-0.4,1.3-1.6,5.4,0.5,9.8c0,0,0.9,0.6,1.6,3.6
	c-0.4,0-0.8-0.1-1.3-0.2C384.3,85.8,383.5,85.3,383.5,85.3z"/>
<path class="st2" d="M384.6,88.5c-0.1,0-0.2-0.1-0.2-0.2c-0.6-2.2-1.3-2.8-1.3-2.8l-0.1-0.1c-2.3-4.8-0.8-9.3-0.4-10.2
	c0-0.1,0.1-0.2,0.2-0.2c1.6-0.2,3.1-1.7,4.4-3c0.4-0.4,0.8-0.8,1.1-1.1c0.1-0.1,0.2-0.1,0.3,0c0.1,0,0.1,0.1,0.2,0.1
	c0.4-0.3,0.9-0.4,1.4-0.4c1.6,0,3.3,1.3,3.9,1.9c0,0,0,0,0.1,0.1c0.1,0.2,0.2,0.4,0.2,0.4c0.5,0.7,0.9,0.8,1.2,0.8
	c0.3,0,0.5-0.2,0.5-0.2s0,0,0-0.1c1-1,2.1-1.6,4.6-2.6c0,0,0,0,0.1,0c0.2,0,0.4,0,0.6,0c1.9,0,3.2,1.3,3.5,1.5
	c6.8,4.1,2.9,12.4,2,14.1l-0.1,0.1c-2.4,1.6-4,1.8-5.3,1.8c-0.6,0-1.2-0.1-1.8-0.1c-0.3,0-0.7-0.1-1-0.1h-0.1c0,0-1.9-0.9-4.1-0.9
	c-1.4,0-2.7,0.3-3.8,1c0,0-1.2,0.5-3.3,0.5l0,0C386.4,88.7,385.6,88.6,384.6,88.5z M390.3,87.7c1.2-0.7,2.6-1.1,4.1-1.1
	c2.2,0,4,0.7,4.3,0.9c0.3,0,0.7,0.1,1,0.1c0.6,0.1,1.2,0.1,1.8,0.1c1.2,0,2.7-0.2,4.9-1.7c0.9-1.7,4.4-9.5-1.9-13.3c0,0,0,0-0.1-0.1
	c0,0-1.3-1.4-3.1-1.4c-0.2,0-0.3,0-0.5,0c-2.4,0.9-3.4,1.5-4.4,2.4c-0.1,0.1-0.4,0.5-0.9,0.5s-1.1-0.3-1.6-1.1c0,0-0.1-0.1-0.2-0.4
	c-0.5-0.4-2.1-1.7-3.5-1.7c-0.5,0-0.9,0.1-1.2,0.5c-0.1,0.1-0.1,0.1-0.2,0.1s-0.2,0-0.2-0.1c0,0,0,0-0.1-0.1
	c-0.3,0.3-0.6,0.6-0.9,0.9c-1.3,1.4-2.8,2.9-4.6,3.2c-0.4,1.1-1.6,5.2,0.4,9.5c0.2,0.2,0.8,0.9,1.4,2.9c0.8,0.1,1.6,0.2,2.4,0.2
	C389.2,88.1,390.3,87.7,390.3,87.7L390.3,87.7z"/>
<path class="st2" d="M394,73.1c0,0-0.1-0.2-0.2-0.4c-0.1-0.1,0-0.3,0.1-0.4s0.2-0.1,0.3,0c1.2-1.2,2.3-1.8,3.3-1.8
	c0.9,0,1.5,0.5,1.7,0.8c0.5-0.3,1.1-0.5,1.6-0.5c0.1,0,0.3,0.1,0.3,0.2s0,0.3-0.2,0.3c-2.4,1-3.4,1.5-4.4,2.4
	c-0.1,0.1-0.4,0.5-0.9,0.5l0,0C395.1,74.2,394.6,73.8,394,73.1z M397.5,71c-0.9,0-1.9,0.6-3,1.7c0.4,0.5,0.8,0.8,1.2,0.8
	c0.3,0,0.5-0.2,0.5-0.2s0,0,0-0.1c0.7-0.7,1.4-1.1,2.6-1.7C398.5,71.4,398.1,71,397.5,71z"/>
<path class="st2" d="M382.6,75.4c-0.1-0.1-0.1-0.2,0-0.3c0-0.1,0.1-0.2,0.1-0.2c1.9-2.9,3.6-4.4,5.1-4.4c0.3,0,0.6,0.1,0.9,0.2
	c0.1,0,0.1,0.1,0.1,0.2s0,0.2-0.1,0.2c-0.3,0.3-0.7,0.7-1.1,1.1c-1.4,1.4-2.9,3-4.8,3.2l0,0C382.8,75.5,382.7,75.5,382.6,75.4z
	 M387.8,71.1c-0.7,0-2.2,0.5-4.4,3.7c1.4-0.4,2.7-1.7,3.8-2.9c0.3-0.3,0.5-0.5,0.8-0.8C388,71.1,387.9,71.1,387.8,71.1z"/>
<path class="st6" d="M350.2,72.8C350.3,72.8,350.3,72.8,350.2,72.8C350.3,72.8,350.3,72.8,350.2,72.8
	C350.3,72.9,350.3,72.9,350.2,72.8C350.3,72.8,350.3,72.8,350.2,72.8z"/>
<path class="st6" d="M350.3,72.9L350.3,72.9L350.3,72.9L350.3,72.9z"/>
<path class="st6" d="M360.5,73.2L360.5,73.2L360.5,73.2L360.5,73.2z"/>
<path class="st0" d="M356.1,70c3.2,0.1,6.3,2.1,6.3,2.1l0.1-0.1c0.7,0.7,1.1,1.3,1.1,1.3c1.2-2.2,6.4-2,6.4-2
	c-0.2-0.2-0.5-0.4-0.8-0.6c2.6,0.4,4.7,1.4,4.7,1.4c7.1,3,2.3,13.8,2.3,13.8c-0.1,0.3-0.2,0.6-0.2,1c-3.3,1.3-7.4,1.7-10,1.3
	c0,0-3.6-1.1-6.7,0c0,0-1.9,0.8-7.1-1.3c-0.6-1.5-1.1-2.2-1.1-2.2c-2.4-4.6-1.3-9.1-1.3-9.1s0,0,0-0.1C351.6,72.8,355,70.7,356.1,70
	z"/>
<path class="st4" d="M363.7,73.2c0,0-0.4-0.6-1.1-1.3c1.8-1.6,4.5-1.7,6.7-1.3c0.3,0.2,0.5,0.4,0.8,0.6
	C370.1,71.2,364.9,71.1,363.7,73.2z"/>
<path class="st4" d="M356.1,70c-1.1,0.7-4.5,2.8-6.3,5.5C350.9,71.1,353.5,69.9,356.1,70z"/>
<path class="st1" d="M364.2,74.2c0.8,0.9,0.9,2.4,0.8,3.5c-0.1,1.3-0.4,2.6-1,3.8c-0.2,0.4-0.5,0.9-0.5,1.4s0.3,1.1,0.9,1
	c0.5-0.1,0.6-0.6,0.8-1.1c0.2-0.6,0.4-1.2,0.5-1.9c0.3-1.4,0.4-3,0.1-4.5c-0.2-0.7-0.4-1.5-0.8-2.1c-0.1-0.2-0.3-0.4-0.5-0.6
	C364.2,73.5,364,74,364.2,74.2z"/>
<path class="st1" d="M360.8,85.9c-1.3,0.2-2.7,0.4-4,0.3c-0.5,0-1.2-0.1-1.6-0.3c-0.3-0.1-0.6-0.2-0.8-0.4c-0.2-0.1-0.3-0.2-0.5-0.3
	c-0.2-0.1-0.4,0-0.3,0.2c0.2,0.2,0.4,0.3,0.6,0.5c0.5,0.3,1,0.5,1.6,0.6c1.5,0.3,3.1,0.3,4.7,0.1c0.4,0,1,0,1.2-0.3
	C361.9,86.1,361.4,85.8,360.8,85.9z"/>
<path class="st1" d="M351.1,84.6c-1.3-2.4-1.6-4.9-1.5-6.6c0-1.5,0.3-2.5,0.3-2.5s0,0,0-0.1c0.4-0.7,1-1.3,1.6-1.9
	c-0.2,0.5-0.3,0.9-0.5,1.5c0,0-1.2,4.5,1.3,9.1c0,0,0.8,0.9,1.5,3.2c-0.5-0.2-1-0.3-1.5-0.5C351.6,85.3,351.1,84.6,351.1,84.6z"/>
<path class="st2" d="M351.8,86.9c-0.1,0-0.1-0.1-0.2-0.2c-0.5-1.4-1.1-2.1-1.1-2.1l0,0c-2.5-4.7-1.3-9.2-1.3-9.4v-0.1
	c1.8-2.7,5-4.8,6.4-5.6c0,0,0.1,0,0.2,0c2.8,0.1,5.5,1.6,6.3,2c0.1-0.1,0.3-0.1,0.4,0c0.4,0.4,0.7,0.8,0.9,1c1.2-1.4,4-1.8,5.6-1.8
	c0,0-0.1,0-0.1-0.1c-0.1-0.1-0.2-0.2-0.1-0.3c0-0.1,0.2-0.2,0.3-0.2c2.6,0.4,4.7,1.4,4.8,1.5c1.7,0.7,2.8,1.9,3.5,3.5
	c1.7,4.4-0.9,10.4-1,10.6c-0.1,0.3-0.2,0.6-0.2,1c0,0.1-0.1,0.2-0.2,0.2c-3.1,1.2-7.2,1.8-10.1,1.3c0,0-1.5-0.5-3.4-0.5
	c-1.1,0-2.2,0.2-3.1,0.5c0,0-0.4,0.2-1.2,0.2l0,0C356.8,88.3,354.9,88.1,351.8,86.9z M365.8,87.6c0.6,0.1,1.3,0.2,2.1,0.2
	c2.5,0,5.3-0.5,7.5-1.4c0.1-0.3,0.1-0.6,0.2-0.9c0-0.1,2.7-6.1,1-10.2c-0.6-1.5-1.6-2.5-3.2-3.2c0,0-1.5-0.7-3.5-1.2
	c0,0.1,0,0.1,0,0.2s-0.2,0.2-0.3,0.2h-0.2c-2.3,0-5.2,0.5-6,1.9c0,0.1-0.1,0.1-0.2,0.1s-0.2,0-0.2-0.1c0,0-0.4-0.5-0.9-1.1
	c-0.1,0-0.2,0-0.3,0c0,0-3-1.9-6.1-2c-1.1,0.7-4.4,2.8-6.1,5.3c0,0-1.1,4.5,1.2,8.9c0.1,0.1,0.6,0.8,1.1,2.1c5,1.9,6.8,1.3,6.8,1.2
	c1-0.4,2.1-0.5,3.3-0.5C364.2,87.1,365.8,87.6,365.8,87.6z"/>
<path class="st2" d="M363.2,73.2c0,0-0.4-0.6-1.1-1.3c-0.1-0.1-0.1-0.1-0.1-0.2s0-0.1,0.1-0.2c1.6-1.4,4-1.9,7-1.4h0.1
	c0.3,0.2,0.5,0.4,0.8,0.6c0.1,0.1,0.1,0.2,0.1,0.3c0,0.1-0.1,0.2-0.3,0.2h-0.2c-2.3,0-5.2,0.5-6,1.9c0,0.1-0.1,0.1-0.2,0.1l0,0
	C363.3,73.3,363.2,73.3,363.2,73.2z M368.9,70.7c-2.7-0.4-4.8-0.1-6.2,1.1c0.3,0.3,0.5,0.6,0.7,0.8
	C364.5,71.1,367.4,70.8,368.9,70.7L368.9,70.7z"/>
<path class="st2" d="M349.5,75.5c-0.1-0.1-0.2-0.2-0.2-0.3c1.2-4.7,4.1-5.7,6.3-5.7c0.1,0,0.2,0,0.2,0c0.1,0,0.2,0.1,0.3,0.2
	c0,0.1,0,0.3-0.1,0.3c-1,0.6-4.4,2.8-6.2,5.4C349.7,75.5,349.7,75.5,349.5,75.5C349.5,75.5,349.5,75.5,349.5,75.5z M350.3,73.8
	c1.4-1.6,3.2-2.9,4.4-3.7C352.7,70.4,351.2,71.6,350.3,73.8z"/>
<path class="st0" d="M290.3,63.5c0,0,2.5,2.1,4.9,3.8c3.4,2.4,6.6-0.1,9.9-2.8c3.3-2.7,7.6-1.4,3-13.2c0,0-0.6-1.6-1.3-3.6
	c-0.5-1.3-1-2.7-1.4-3.9c-4-3.5-10.5-7-14.9,2.9c-0.2,1.2-0.4,2.2-0.7,3.1c0,0.1-0.1,0.2-0.1,0.3C289.6,50,286.2,60.5,290.3,63.5z"
	/>
<path class="st1" d="M288.3,57.4c0.1-1.6,0.3-3.3,0.7-4.9c0.2-0.8,0.4-1.6,0.6-2.4c0.4-1.1,0.7-2.3,0.8-3.5c0.5-1.1,1-2,1.5-2.8
	c-0.1,0.7-0.2,1.3-0.3,1.9c-0.2,1.3-0.4,2.6-0.9,3.8c-0.3,0.8-0.5,1.6-0.6,2.4c-0.4,1.6-0.6,3.2-0.7,4.9c-0.1,1.6,0,3.4,0.8,4.8
	c0.3,0.6,0.7,1,1.2,1.5c0.9,0.8,1.8,1.5,2.8,2.2c0.6,0.5,1.2,0.9,1.8,1.4c0.6,0.4,1.2,0.8,1.9,1c0.8,0.2,1.7,0.2,2.5,0
	c-0.9,0.4-1.8,0.7-2.7,0.6c-0.9,0-1.8-0.3-2.8-1c-1.2-0.9-2.5-1.9-3.4-2.6s-1.4-1.2-1.4-1.2c-1.2-0.9-1.8-2.6-1.9-4.4
	C288.3,58.5,288.3,57.9,288.3,57.4z"/>
<path class="st1" d="M303.3,45.2c0.5,1.8,1.3,4.1,2,6.6c0.3,1.3,0.6,2.6,0.7,4c0.1,0.7,0.1,1.3,0.1,1.9c0,0.6-0.1,1.2-0.1,1.7
	c-0.1,0.5-0.2,0.9-0.3,1.3c-0.1,0.4-0.2,0.6-0.3,0.9c-0.2,0.4-0.3,0.7-0.3,0.7l0,0c-0.4,0.7-1.2,0.6-1.7-0.4c-0.6-1-0.7-2.4-0.3-3.1
	c0-0.1,0.1-0.2,0.2-0.2c0,0,0.1-0.1,0.3-0.3c0.1-0.1,0.2-0.2,0.3-0.4c0.1-0.2,0.2-0.4,0.3-0.6c0.1-0.2,0.2-0.5,0.2-0.9
	c0.1-0.3,0.1-0.7,0.1-1.2c0-0.9-0.1-2-0.2-3.1c-0.3-2.3-0.9-4.8-1.2-6.7C302.7,44.3,303,44.3,303.3,45.2z"/>
<path class="st2" d="M295,67.6c-2.4-1.7-4.9-3.8-4.9-3.8c-4.1-3.1-0.9-13.4-0.7-13.8c0-0.1,0.1-0.1,0.1-0.3c0.3-0.8,0.5-1.8,0.7-3
	c0,0,0,0,0-0.1c2-4.4,4.5-6.6,7.7-6.6c2.3,0,4.9,1.2,7.6,3.6l0.1,0.1c0.4,1.2,0.9,2.6,1.4,3.9c0.7,1.9,1.3,3.6,1.3,3.6l0,0
	c3.7,9.6,1.6,10.8-1.1,12.3c-0.7,0.4-1.4,0.7-2,1.3c-2.2,1.8-4.6,3.9-7.2,3.9C297,68.7,296,68.3,295,67.6z M297.9,40.6
	c-2.9,0-5.3,2.1-7.1,6.3c-0.2,1.3-0.5,2.3-0.7,3.1c0,0.1-0.1,0.2-0.1,0.2c0,0.1-3.3,10.4,0.5,13.2c0,0,2.5,2.1,4.9,3.8
	c0.9,0.6,1.8,0.9,2.7,0.9c2.3,0,4.7-2,6.8-3.7c0.7-0.6,1.4-1,2.1-1.3c2.5-1.4,4.4-2.4,0.8-11.6c0,0-0.6-1.6-1.3-3.6
	c-0.5-1.3-1-2.7-1.4-3.9C302.5,41.7,300.1,40.6,297.9,40.6z"/>
<path class="st3" d="M421.3,47.9L421.3,47.9c1.3-3.3,1.3-6.5,1.3-6.6l0,0C422.6,41.3,422.6,44.5,421.3,47.9z"/>
<path class="st0" d="M421.3,47.9c-0.2,0.5-0.4,1.1-0.7,1.6c-0.2,0.3-0.4,0.7-0.6,1c0,0-1.5,1.9-1.4,5.8c0-3.9,1.4-5.8,1.4-5.8
	c0.2-0.3,0.4-0.7,0.6-1C420.9,48.9,421.1,48.4,421.3,47.9L421.3,47.9L421.3,47.9z"/>
<path class="st4" d="M426.9,68L426.9,68L426.9,68z"/>
<path class="st4" d="M431.1,68c0.1,0,0.1,0,0.2,0C431.3,68,431.2,68,431.1,68z"/>
<path class="st4" d="M430.8,68.1c0.1,0,0.1,0,0.2,0C430.9,68.1,430.8,68.1,430.8,68.1z"/>
<path class="st4" d="M429.6,68.3h0.1C429.7,68.3,429.7,68.3,429.6,68.3z"/>
<path class="st4" d="M429.3,68.3h0.1H429.3z"/>
<path class="st4" d="M428.3,68.3C428.4,68.3,428.4,68.3,428.3,68.3C428.4,68.3,428.4,68.3,428.3,68.3z"/>
<path class="st4" d="M427.2,68.1L427.2,68.1L427.2,68.1z"/>
<path class="st4" d="M428.6,68.3h0.1C428.7,68.3,428.7,68.3,428.6,68.3z"/>
<path class="st4" d="M430,68.3h0.1C430,68.3,430,68.3,430,68.3z"/>
<path class="st4" d="M430.4,68.2c0.1,0,0.1,0,0.2,0C430.5,68.2,430.4,68.2,430.4,68.2z"/>
<path class="st4" d="M427.4,68.1C427.4,68.1,427.5,68.1,427.4,68.1C427.5,68.1,427.4,68.1,427.4,68.1z"/>
<path class="st4" d="M428.9,68.3h0.1C429,68.3,429,68.3,428.9,68.3z"/>
<path class="st7" d="M428.7,68.3c0.1,0,0.1,0,0.2,0C428.9,68.3,428.8,68.3,428.7,68.3z"/>
<path class="st7" d="M429.1,68.3c0.1,0,0.1,0,0.2,0C429.2,68.3,429.1,68.3,429.1,68.3z"/>
<path class="st7" d="M429.4,68.3c0.1,0,0.1,0,0.2,0C429.5,68.3,429.5,68.3,429.4,68.3z"/>
<path class="st7" d="M428.4,68.3c0.1,0,0.1,0,0.2,0C428.6,68.3,428.5,68.3,428.4,68.3z"/>
<path class="st7" d="M426.9,68c0.1,0,0.2,0,0.2,0.1C427.1,68,427,68,426.9,68z"/>
<path class="st7" d="M429.7,68.3c0.1,0,0.1,0,0.2,0C429.9,68.3,429.8,68.3,429.7,68.3z"/>
<path class="st7" d="M420.9,65.3c0,0,1.3,2,4.4,2l0,0c0.1,0.1,0.7,0.4,1.6,0.6c-0.9-0.3-1.5-0.6-1.6-0.6l0,0
	C422.2,67.3,420.9,65.3,420.9,65.3c-1.7-3.7-2.3-6.8-2.3-9.1C418.6,58.5,419.2,61.6,420.9,65.3z"/>
<path class="st7" d="M427.5,68.1c0.3,0.1,0.6,0.1,0.9,0.1C428,68.2,427.7,68.2,427.5,68.1z"/>
<path class="st7" d="M427.2,68.1c0.1,0,0.2,0,0.2,0.1C427.4,68.1,427.3,68.1,427.2,68.1z"/>
<path class="st7" d="M430.1,68.2c0.1,0,0.2,0,0.3,0C430.3,68.2,430.2,68.2,430.1,68.2z"/>
<path class="st7" d="M430.9,68.1c0.1,0,0.1,0,0.2,0C431.1,68.1,431,68.1,430.9,68.1z"/>
<path class="st7" d="M430.5,68.2c0.1,0,0.2,0,0.2,0S430.6,68.2,430.5,68.2z"/>
<path class="st1" d="M420.6,49.4c0.3-0.5,0.5-1,0.7-1.6l0,0c0.4-0.2,0.8-0.3,1.2-0.4c-0.2,0.5-0.4,1-0.7,1.5c-0.2,0.3-0.4,0.7-0.6,1
	c0,0-3.8,4.9,0.9,14.9c0,0,1.3,2,4.4,2l0,0c0,0,0.2,0.1,0.3,0.2c-0.5,0.2-1,0.3-1.6,0.3l0,0c-3.1,0-4.4-2-4.4-2
	c-1.7-3.7-2.3-6.8-2.3-9.1c0-3.9,1.4-5.8,1.4-5.8C420.2,50.1,420.4,49.8,420.6,49.4z"/>
<path class="st0" d="M426.9,67c0.9,0.4,3.2,1.3,6,0.4l0,0c-0.1,0-0.1,0.1-0.2,0.1s-0.1,0.1-0.2,0.1s-0.1,0.1-0.2,0.1
	s-0.1,0.1-0.2,0.1s-0.1,0-0.2,0.1c-0.1,0-0.1,0-0.2,0.1c-0.1,0-0.1,0-0.2,0.1c-0.1,0-0.1,0-0.2,0.1c-0.1,0-0.1,0-0.2,0s-0.1,0-0.2,0
	s-0.1,0-0.2,0s-0.2,0-0.2,0c-0.1,0-0.1,0-0.2,0s-0.2,0-0.3,0h-0.1c-0.1,0-0.1,0-0.2,0h-0.1c-0.1,0-0.1,0-0.2,0h-0.1
	c-0.1,0-0.1,0-0.2,0H429c-0.1,0-0.1,0-0.2,0h-0.1c-0.1,0-0.1,0-0.2,0h-0.1c-0.3,0-0.6-0.1-0.9-0.1l0,0c-0.1,0-0.2,0-0.2-0.1l0,0
	c-0.1,0-0.2,0-0.2-0.1l0,0c-0.9-0.3-1.5-0.6-1.6-0.6C425.9,67.3,426.4,67.2,426.9,67z"/>
<path class="st0" d="M420.4,50.3c0.2-0.3,0.4-0.7,0.6-1c0.3-0.5,0.5-1,0.7-1.6c6.8-2.8,11.3-0.4,11.3-0.4c0.2,0.2,0.4,0.4,0.6,0.6
	c1.3,0.9,2.7,0.4,2.7,0.4c0.4-0.3,0.8-0.6,1.2-0.8c1.4-0.7,2.7-0.7,3.8-0.4c0.2,0,0.4,0.1,0.6,0.1c2.2,5.4,7.4,10.5-0.1,18.3
	c-1.7,0.4-4.2,0.2-7.3-1.8c0,0-1-1.2-3,0.7c0,0-2.6,2.3-5.9,2.8l0,0c-3.1,0-4.4-2-4.4-2C416.6,55.2,420.4,50.3,420.4,50.3z"/>
<path class="st4" d="M434.5,63.7c3.1,2,5.6,2.2,7.3,1.8c-0.1,0.1-0.1,0.1-0.2,0.2c-1.7,1.7-6.9,0.5-6.9,0.5c-4.3,3.6-8.8,1.2-9.1,1
	c3.3-0.4,5.9-2.8,5.9-2.8C433.6,62.5,434.5,63.7,434.5,63.7z"/>
<path class="st1" d="M434,49.9c-0.5,1.2-0.1,2.5,0.2,3.7c0.2,0.7,0.4,1.4,0.6,2.1c0.1,0.6,0.1,1.3-0.3,1.8c-0.3,0.4-0.9,0.5-1.1,1
	s0.1,1.1,0.6,1.2c0.6,0.2,1-0.1,1.4-0.5c0.5-0.4,0.8-1,1-1.6c0.5-1.6-0.4-3.2-1.1-4.5c-0.3-0.7-0.7-1.4-0.8-2.2c0-0.3,0-0.6,0-0.9
	C434.6,49.7,434.1,49.6,434,49.9z"/>
<path class="st2" d="M426.6,68.4c-0.1,0-0.2,0-0.2-0.1l0,0c-0.7-0.2-1.2-0.5-1.4-0.6c-3.2-0.1-4.5-2.1-4.6-2.2
	c-1.5-3.3-2.3-6.4-2.3-9.2c0-3.9,1.4-5.9,1.5-5.9c0.2-0.3,0.4-0.6,0.6-1c0.3-0.5,0.5-1,0.7-1.5c0-0.1,0.1-0.1,0.2-0.2
	c0.4-0.2,0.8-0.3,1.2-0.5h0.1c1.9-0.7,3.8-1,5.6-1c3.1,0,4.9,1,5,1c0,0,0.1,0,0.1,0.1c0.2,0.2,0.4,0.4,0.6,0.5
	c0.5,0.3,1,0.5,1.5,0.5c0.4,0,0.8-0.1,0.9-0.1c0.4-0.3,0.8-0.6,1.2-0.8c1.2-0.6,2.5-0.8,4-0.4c0.2,0,0.4,0.1,0.6,0.1
	c0.1,0,0.2,0.1,0.2,0.2c0.4,1,0.9,1.9,1.4,2.9c2.2,4.3,4.7,9.2-1.5,15.8l-0.1,0.1c-0.5,0.1-1,0.2-1.5,0.2c-1.8,0-3.9-0.7-6-2
	c0,0,0,0-0.1-0.1c0,0-0.2-0.3-0.7-0.3s-1.2,0.4-1.9,1c-0.1,0.1-2,1.8-4.8,2.6l0,0c-0.2,0.1-0.5,0.1-0.7,0.2c0.2,0.1,0.3,0.1,0.5,0.2
	l0,0c0.1,0,0.1,0,0.2,0.1l0,0l0,0l0,0c0.2,0,0.2,0.2,0.2,0.3C427,68.3,426.8,68.4,426.6,68.4C426.7,68.4,426.7,68.4,426.6,68.4z
	 M426.6,66.9c2.6-0.7,4.6-2.5,4.6-2.5c0.8-0.8,1.6-1.2,2.3-1.2c0.6,0,1,0.3,1.1,0.5c2,1.3,3.9,1.9,5.6,1.9c0.5,0,0.9,0,1.3-0.1
	c5.9-6.2,3.6-10.7,1.4-15.1c-0.5-0.9-0.9-1.8-1.3-2.8c-0.1,0-0.3-0.1-0.4-0.1c-1.4-0.3-2.5-0.2-3.6,0.4c-0.4,0.2-0.8,0.5-1.1,0.8
	c0,0,0,0-0.1,0c0,0-0.5,0.2-1.1,0.2c-0.7,0-1.3-0.2-1.9-0.6c-0.2-0.2-0.4-0.3-0.6-0.6c-0.3-0.1-2-0.9-4.7-0.9c-1.8,0-3.7,0.3-5.6,1
	h-0.1c-0.3,0.1-0.6,0.2-0.9,0.4c-0.2,0.5-0.4,1-0.7,1.5c-0.2,0.4-0.4,0.7-0.6,1c0,0-1.4,1.9-1.4,5.6c0,2.7,0.8,5.8,2.3,8.9
	c0,0,1.3,1.9,4.2,1.9l0,0C425.6,67.1,426,67,426.6,66.9C426.5,66.9,426.6,66.9,426.6,66.9z"/>
<path class="st2" d="M428.7,68.7c-0.1,0-0.1,0-0.2,0h-0.1c-0.1,0-0.2,0-0.3,0H428c-0.3,0-0.6-0.1-0.9-0.1c-0.1,0-0.2,0-0.3-0.1
	c-0.1,0-0.2,0-0.3-0.1c-0.9-0.3-1.5-0.6-1.7-0.7c-0.1-0.1-0.2-0.2-0.1-0.3c0-0.1,0.1-0.2,0.2-0.2s0.1,0,0.2,0c0,0,0.1-0.1,0.2-0.1
	c3.2-0.4,5.7-2.7,5.7-2.7c0.8-0.8,1.6-1.2,2.3-1.2c0.6,0,1,0.3,1.1,0.5c2,1.3,3.9,1.9,5.6,1.9c0.5,0,1-0.1,1.4-0.2
	c0.1,0,0.2,0,0.3,0.1c0.1,0.1,0,0.2,0,0.3l-0.2,0.2c-0.6,0.7-1.8,1-3.4,1s-3.1-0.3-3.6-0.4c-1,0.8-2.1,1.4-3.2,1.7l-0.8,0.2
	c-0.1,0-0.1,0-0.2,0v-0.3v0.3h-0.1c-0.1,0-0.2,0-0.3,0h-0.1v-0.3v0.3H429L428.7,68.7z M434.7,66.1c0,0,1.8,0.4,3.6,0.4
	c1,0,1.8-0.1,2.3-0.4c-1.9,0.1-4.2-0.6-6.4-2c0,0,0,0-0.1-0.1c0,0-0.2-0.3-0.7-0.3s-1.2,0.4-1.9,1c-0.1,0.1-2.4,2.2-5.6,2.8
	c0.2,0.1,0.5,0.2,0.8,0.3c0.1,0,0.2,0,0.3,0.1c0.1,0,0.2,0,0.3,0.1c0.3,0.1,0.6,0.1,0.8,0.1h0.1c0.1,0,0.1,0,0.2,0h0.1
	c0.1,0,0.1,0,0.2,0h0.2h0.9c0.1,0,0.2,0,0.3,0h0.1h0.1c0.1,0,0.1,0,0.2,0l0.8-0.2c1.1-0.3,2.1-0.8,3.1-1.6
	C434.5,66.1,434.5,66.1,434.7,66.1C434.6,66.1,434.6,66.1,434.7,66.1z"/>
<path class="st0" d="M354.6,60.8c0.4,4.5,2.6,5,2.6,5c4.1,2.4,8.4,0.2,8.4,0.2c4.7-2.9,9.4,0.9,9.4,0.9c5.4,2.6,6.5,0.4,6.5,0.4
	c5.1-5.2,4.1-10.9,2.7-14.3c-0.4-1-0.8-1.8-1.1-2.3c-2.3-1.6-5.6-3.3-8.9-2.5c0,0-3.7,1.2-6.8-0.6c0,0-3.7-1.7-8.4-0.3
	c-0.3,0.4-0.5,0.8-0.8,1.2C354.7,54.6,354.6,60.8,354.6,60.8z"/>
<path class="st4" d="M358.4,61.8l0.1,0.5c0.2,0.9,0.6,1.5,0.9,1.9c0.1,0.1,0.1,0.1,0.2,0.2c0.4,0.4,0.7,0.4,0.7,0.4
	c3.1,1.8,6.4,0.2,6.4,0.2c0.4-0.2,0.7-0.4,1.1-0.5c3.1-1,5.8,1.1,6,1.2l0,0c0.2,0.1,0.4,0.2,0.5,0.2s0.1,0.1,0.2,0.1
	c1.1,0.5,2,0.6,2.6,0.6c1.2,0,1.6-0.7,1.6-0.7c0.1-0.1,0.2-0.2,0.3-0.4c-0.8-0.8-2.6-1.4-6-1.1c0,0-2.2-0.6-4.1-2.6
	c0,0-1-1.8-3.9,0.9c0,0-1,0.5-2.2,0.5c-0.7,0-1.4-0.1-2-0.5c-0.4-0.2-0.7-0.6-1-1.1C359.9,61.8,359.5,60.8,358.4,61.8z"/>
<path class="st1" d="M357,65.9c-0.7-0.2-1.3-0.9-1.6-1.6c-0.5-0.9-0.8-2-0.9-3c-0.1-1.1,0.1-2.2,0.2-3.3c0.3-2,0.9-4,1.7-6
	c0.4-0.9,0.8-1.8,1.3-2.7c0.3-0.5,0.5-0.9,0.8-1.4c0.1-0.1,0.1-0.2,0.2-0.3s0.1-0.2,0.1-0.2c0.1-0.1,0.1,0,0.2-0.1
	c0.3-0.1,0.6-0.2,0.9-0.2c-1.5,2.3-2.6,4.9-3.3,7.6c-0.3,1.3-0.6,2.6-0.8,3.9c-0.1,0.5-0.1,1-0.1,1.6c0,0.5,0.1,1.1,0.2,1.6
	c0.3,1.3,0.8,2.8,2,3.4c0.1,0,0.2,0.1,0.3,0.1l0,0c0.3,0.2,0.7,0.4,1.1,0.5c1.2,0.5,2.5,0.7,3.9,0.6c0.8-0.1,1.7-0.2,2.5-0.5
	c-1.1,0.6-2.3,0.9-3.6,1C360.3,67.2,358.6,66.8,357,65.9z"/>
<path class="st1" d="M369.3,50.2c0.3,1.3-0.1,2.5-0.6,3.7c-0.3,0.7-0.6,1.3-0.7,2c-0.2,0.6-0.2,1.3,0.2,1.8c0.3,0.4,0.8,0.6,1,1.1
	c0.1,0.5-0.2,1-0.7,1.2c-0.6,0.2-1-0.2-1.3-0.6c-0.4-0.5-0.7-1-0.8-1.6c-0.3-1.6,0.7-3.1,1.5-4.4c0.4-0.7,0.8-1.4,1-2.1
	c0.1-0.3,0.1-0.6,0.1-0.9C368.8,50,369.2,49.8,369.3,50.2z"/>
<path class="st2" d="M374.8,67.5L374.8,67.5c-0.1-0.1-2.5-2-5.5-2c-1.3,0-2.5,0.3-3.6,1c-0.1,0-1.9,0.9-4.3,0.9
	c-1.6,0-3-0.4-4.4-1.2c-0.3-0.1-2.4-0.9-2.7-5.3c0-0.1,0.1-6.4,3.7-12.3c0.3-0.4,0.5-0.8,0.8-1.2c0-0.1,0.1-0.1,0.1-0.1
	c1.3-0.4,2.6-0.6,3.9-0.6c2.7,0,4.6,0.8,4.7,0.9c1.1,0.6,2.4,1,3.8,1c1.6,0,2.7-0.4,2.8-0.4c2.7-0.7,5.8,0.2,9.1,2.5l0.1,0.1
	c0.3,0.5,0.7,1.3,1.2,2.3c1.3,3.1,2.6,9.2-2.7,14.6c-0.1,0.2-0.7,1-2.4,1C378.1,68.8,376.6,68.4,374.8,67.5z M375.9,48.6
	c-0.6,0-1.2,0.1-1.7,0.2c-0.1,0-1.3,0.4-2.9,0.4c-1.5,0-2.9-0.3-4.1-1c0,0-1.8-0.8-4.4-0.8c-1.2,0-2.5,0.2-3.6,0.5
	c-0.2,0.3-0.5,0.7-0.7,1.1c-3.5,5.8-3.6,12-3.6,12c0.4,4.2,2.3,4.8,2.4,4.8h0.1c1.2,0.7,2.6,1.1,4.1,1.1c2.3,0,4-0.9,4-0.9l0,0
	c1.2-0.7,2.5-1.1,3.9-1.1c3.1,0,5.5,1.8,5.8,2c1.7,0.8,3.1,1.2,4.2,1.2c1.5,0,1.9-0.7,1.9-0.7s0,0,0-0.1c4.9-4.9,4.1-10.3,2.6-14
	c-0.4-1-0.8-1.7-1.1-2.2C381.1,50,378.5,48.6,375.9,48.6z"/>
<path class="st2" d="M374.4,66.6c-0.1,0-0.1-0.1-0.2-0.1c-0.2-0.1-0.4-0.2-0.6-0.3c0,0,0,0-0.1,0c-0.2-0.1-1.9-1.5-4.1-1.5
	c-0.6,0-1.1,0.1-1.6,0.3c-0.4,0.1-0.7,0.3-1.1,0.5c-0.1,0-1.4,0.7-3.3,0.7c-1.2,0-2.3-0.3-3.3-0.9c-0.1,0-0.4-0.2-0.8-0.5
	c-0.1-0.1-0.1-0.1-0.2-0.2c-0.4-0.5-0.7-1.2-0.9-2l-0.1-0.5c0-0.1,0-0.2,0.1-0.3c0.4-0.3,0.7-0.5,1.1-0.5c0.5,0,0.8,0.4,0.9,0.6
	c0.2,0.4,0.5,0.7,0.9,1s1,0.4,1.6,0.4c0.1,0,0.1,0,0.2,0c1,0,1.8-0.4,2-0.5c1.1-1,2-1.5,2.9-1.5s1.3,0.5,1.4,0.7
	c1.7,1.7,3.6,2.4,3.9,2.5c2.9-0.3,5,0.1,6.2,1.2c0.1,0.1,0.1,0.1,0.1,0.2s0,0.1-0.1,0.2s-0.2,0.2-0.3,0.3c-0.1,0.2-0.6,0.8-1.8,0.8
	h-0.1C376.3,67.2,375.4,67,374.4,66.6z M373,65.1h-0.1c0,0-0.1,0-0.2-0.1c0.6,0.3,1,0.6,1.2,0.7s0.4,0.2,0.5,0.2s0.1,0.1,0.2,0.1
	c1,0.4,1.8,0.6,2.5,0.6v0.3v-0.3c1,0,1.3-0.5,1.3-0.5s0,0,0-0.1l0.1-0.1C377.5,65.1,375.6,64.8,373,65.1z M366.4,65
	c0.4-0.2,0.8-0.4,1.2-0.6c1.3-0.4,2.8-0.3,3.9,0.1c-0.8-0.4-1.9-1.1-2.9-2.1c0,0,0,0,0-0.1c0,0-0.3-0.4-0.9-0.4
	c-0.7,0-1.5,0.5-2.5,1.4c0,0,0,0-0.1,0.1c0,0-1.1,0.5-2.3,0.5c-0.1,0-0.1,0-0.2,0l0,0c-0.7,0-1.4-0.2-1.9-0.5
	c-0.4-0.3-0.8-0.7-1.1-1.2c0,0-0.1-0.3-0.3-0.3c-0.1,0-0.3,0-0.6,0.3l0.1,0.4c0.2,0.7,0.5,1.3,0.8,1.8c0.1,0.1,0.1,0.1,0.2,0.2
	c0.3,0.3,0.6,0.4,0.6,0.4l0,0h0.1c0.9,0.5,2,0.8,3.1,0.8C365.1,65.6,366.4,65,366.4,65L366.4,65z"/>
<path class="st0" d="M389.1,48.6c0.2-0.6,0.5-1.3,0.7-1.9c0,0,0.1-0.1,0.2-0.3c5-1.8,8.9,0.7,8.9,0.7c2.7,1.8,4.8,1,4.8,1
	c4.6-1.7,8-0.9,10.1,0.2c0.1,0.5,0.2,1,0.3,1.4c0,0,0.1,0.2,0.2,0.6c1,2.4,4.4,12,0.7,15.5c0,0-1.2,3.1-8.1,0.9c0,0-5-2.5-8,0.1
	c0,0-4,3.4-8.5,0.4C390.2,67.1,384.8,61,389.1,48.6z"/>
<path class="st4" d="M406.8,66.6c0,0-2.2-1.1-4.5-1.1c-1.2,0-2.5,0.3-3.5,1.2c0,0-1.9,1.6-4.5,1.6l0,0c-1-0.9,0.3-1,0.3-1
	c2.6-0.6,5-2.3,5-2.3c4.3-3.7,10.7,3.7,13.6,1.2l-0.9,1.1c-0.6,0.2-0.4,0.1-1.3,0.1C409.9,67.4,408.5,67.1,406.8,66.6z"/>
<path class="st1" d="M389.4,51c-0.3,1.2-0.5,2.5-0.6,3.8c-0.2,1.3-0.2,2.6-0.1,3.9c0.2,2.1,0.7,4.3,1.6,6.2c0.3,0.6,0.7,1.2,1.1,1.7
	c0.1,0.1,0.2,0.1,0.3,0.2c0.2,0.1,0.3,0.2,0.5,0.3c0.3,0.2,0.6,0.3,0.9,0.4c0.1,0,0.8,0.2,0.8,0.3c0,0.2,0.2,0.4,0.4,0.6
	c-1.3,0-2.6-0.4-3.7-1c-0.3-0.2-0.4-0.3-0.6-0.5c-0.3-0.4-0.6-0.9-0.8-1.3c-1.2-2.3-1.7-4.9-1.7-7.5c0-3.8,0.9-7.6,2.4-11.1
	c0.1-0.1,0.1-0.3,0.2-0.4c0.3-0.1,0.7-0.2,1-0.3c-0.1,0.2-0.2,0.5-0.3,0.8c-0.2,0.6-0.4,1.1-0.6,1.7C389.9,49.3,389.6,50.1,389.4,51
	C389.3,51,389.4,50.9,389.4,51z"/>
<path class="st1" d="M399.2,49.2c-2.1,2.6-1.8,6.3-0.3,9.1c0.4,0.7,0.8,1.3,1.2,2c0.1,0.2,0.2,0.4,0.5,0.4s0.3-0.3,0.2-0.5
	c-0.8-1.4-1.5-2.8-1.7-4.4c-0.2-1.6-0.1-3.3,0.8-4.7c0.2-0.3,0.4-0.5,0.6-0.7s0.3-0.5,0.3-0.8C400.7,48.8,399.7,48.6,399.2,49.2z"/>
<path class="st2" d="M390.1,67C390,67,390,67,390.1,67c-0.3-0.3-5.6-6.4-1.3-18.8c0.2-0.7,0.5-1.3,0.8-2c0,0,0.1-0.1,0.1-0.3
	c0-0.1,0.1-0.1,0.2-0.1c1.2-0.4,2.5-0.7,3.8-0.7c3.2,0,5.3,1.3,5.4,1.4c1.4,0.9,2.6,1.1,3.4,1.1c0.7,0,1.2-0.2,1.2-0.2
	c3.8-1.4,7.4-1.3,10.3,0.2c0.1,0,0.1,0.1,0.2,0.2c0.1,0.5,0.2,0.9,0.3,1.3c0,0,0.1,0.2,0.2,0.6c1.1,2.8,4.4,12.1,0.6,15.8
	c-0.2,0.3-1.1,1.8-4.1,1.8c-1.3,0-2.7-0.3-4.5-0.8c0,0-2.1-1-4.4-1c-1.4,0-2.5,0.4-3.3,1.1c-0.1,0.1-2,1.7-4.8,1.7l0,0
	C392.7,68.3,391.4,67.9,390.1,67z M406.9,66c1.6,0.5,3,0.8,4.2,0.8c2.9,0,3.5-1.5,3.6-1.5c0,0,0-0.1,0.1-0.1
	c3.6-3.5,0-13.3-0.7-15.2c-0.1-0.4-0.2-0.6-0.2-0.6c-0.1-0.4-0.2-0.8-0.3-1.3c-2.8-1.4-6.1-1.4-9.7-0.1c0,0-0.5,0.2-1.4,0.2
	c-0.8,0-2.2-0.2-3.7-1.2c0,0-2.1-1.3-5.1-1.3c-1.2,0-2.3,0.2-3.5,0.6c-0.1,0.1-0.1,0.2-0.1,0.2c-0.3,0.6-0.5,1.3-0.7,1.9
	c-4.1,11.7,0.7,17.7,1.1,18.2c1.2,0.8,2.4,1.1,3.7,1.1c2.6,0,4.4-1.5,4.4-1.6c1-0.8,2.2-1.2,3.7-1.2C404.6,64.9,406.8,66,406.9,66z"
	/>
<path class="st2" d="M394,68.2c-0.4-0.3-0.5-0.7-0.4-1c0.2-0.5,0.8-0.5,0.9-0.6c2.6-0.6,4.9-2.2,4.9-2.2c0.9-0.7,1.9-1.1,3-1.1
	c1.7,0,3.5,0.8,5.3,1.6c1.5,0.6,2.8,1.2,3.9,1.2l0,0c0.5,0,1-0.1,1.3-0.4c0.1-0.1,0.3-0.1,0.4,0s0.1,0.3,0,0.4l-0.9,1.1l-0.1,0.1
	c-0.4,0.1-0.5,0.2-0.8,0.1c-0.1,0-0.3,0-0.6,0c-1.2,0-2.7-0.3-4.3-0.8c0,0-2.1-1-4.4-1c-1.4,0-2.5,0.4-3.3,1.1
	c-0.1,0.1-2,1.7-4.7,1.7l0,0C394.2,68.3,394.1,68.3,394,68.2z M406.9,66c1.5,0.5,2.9,0.8,4.1,0.8c0.3,0,0.5,0,0.6,0
	c0.2,0,0.2,0,0.5-0.1l0.1-0.1c-0.2,0-0.3,0-0.5,0l0,0c-1.2,0-2.6-0.6-4.2-1.3c-1.7-0.7-3.4-1.5-5.1-1.5c-1,0-1.9,0.3-2.7,1
	c-0.1,0.1-2.4,1.8-5.1,2.4c-0.2,0-0.4,0.1-0.5,0.2c0,0,0,0.1,0.2,0.3c2.5-0.1,4.2-1.5,4.2-1.6c1-0.8,2.2-1.2,3.7-1.2
	C404.7,64.9,406.8,66,406.9,66z"/>
<path class="st0" d="M314.5,63.8c0,0,1.4,0.4,2.2,1.5c0,0,4.9,6.5,10.7,0.2c0,0,8.4-1.9,2.7-15.2c-0.3-0.6-0.5-1.2-0.9-1.9
	c0,0,0-0.1-0.1-0.2c-3-3-8.3-7-14.8,0.9c-0.2,0.4-0.4,1-0.7,1.7c-0.6,1.7-1.3,4.2-1.4,7C312.4,57.9,311.6,62.6,314.5,63.8z"/>
<path class="st1" d="M316.3,47.2c0,0.1-0.1,0.2-0.1,0.2c-0.2,0.7-0.6,1.3-0.9,2c-1.1,2.5-1.7,5.2-1.8,7.9c-0.3,2.1,0,5.1,2.3,6
	c0.9,0.3,1.6,0.9,2.2,1.6c0.4,0.5,0.9,1,1.4,1.4c1.6,1.2,3.6,1.8,5.5,1.2c-0.1,0.1-0.2,0.1-0.4,0.2c-0.1,0-0.1,0.1-0.2,0.1h-0.1
	c-0.5,0.2-1,0.3-1.4,0.4c0,0,0,0-0.1,0s-0.1,0-0.2,0h-0.1c-0.1,0-0.2,0-0.3,0c0,0,0,0-0.1,0s-0.2,0-0.4,0l0,0c-0.1,0-0.2,0-0.3,0
	h-0.1c-0.1,0-0.1,0-0.2,0c-2.4-0.5-4-2.4-4.4-2.8l-0.1-0.1c-0.8-1.1-2.2-1.5-2.2-1.5c-0.2-0.1-0.3-0.2-0.5-0.3
	c-2.3-1.5-1.6-5.6-1.6-5.6c0-0.1,0-0.1,0-0.2c0-0.1,0-0.2,0-0.3s0-0.1,0-0.2c0-0.1,0-0.2,0-0.3s0-0.1,0-0.2c0-0.1,0-0.2,0-0.3
	s0-0.1,0-0.2c0-0.1,0-0.2,0-0.3s0-0.1,0-0.2c0-0.1,0-0.2,0-0.3s0-0.1,0-0.2c0-0.1,0-0.2,0-0.3s0-0.1,0-0.2c0-0.1,0-0.2,0.1-0.3
	c0-0.1,0-0.1,0-0.2c0-0.1,0-0.2,0.1-0.3v-0.1c0-0.1,0.1-0.2,0.1-0.3v-0.1c0-0.1,0.1-0.3,0.1-0.4c0-0.1,0-0.1,0.1-0.2
	c0-0.1,0-0.1,0.1-0.2c0-0.1,0-0.1,0.1-0.2c0-0.1,0-0.1,0-0.2c0-0.1,0-0.2,0.1-0.2v-0.1c0-0.1,0.1-0.2,0.1-0.2v-0.1
	c0-0.1,0.1-0.2,0.1-0.3l0,0c0.3-1,0.7-1.8,0.9-2.2C315.2,48.4,315.8,47.8,316.3,47.2z"/>
<path class="st1" d="M326.6,47.4c0.2,0.8,0.5,1.5,0.7,2.3c0.3,1,0.4,2,0.4,3.1c0,1.8-0.3,3.7-0.6,5.6c-0.2,1.1-0.5,2.3-0.8,3.4
	c-0.1,0.4-0.2,0.9-0.3,1.3c-0.1,0.4-0.6,0.6-0.7,0.3c-0.1-0.2,0.1-0.7,0.1-0.9c0.1-0.6,0.2-1.1,0.3-1.7c0.2-1.1,0.4-2.3,0.5-3.4
	c0.2-2.3,0.3-4.7-0.4-6.5c-0.2-0.5-0.5-1-0.7-1.5c-0.1-0.3-0.3-0.7-0.3-1.2C324.8,47.1,326.4,46.4,326.6,47.4z"/>
<path class="st2" d="M316.5,65.5c-0.8-1-2.1-1.4-2.1-1.4c-3.1-1.3-2.3-6-2.3-6.2c0-2.9,0.8-5.4,1.4-7.1c0.3-0.8,0.6-1.4,0.7-1.7
	c0,0,0,0,0-0.1c2.5-3.1,5.2-4.7,7.9-4.7c3.1,0,5.7,2.2,7.3,3.8l0.1,0.1v0.2c0.3,0.7,0.6,1.3,0.9,1.9c2.2,5.2,2.6,9.2,1.1,12.2
	c-1.3,2.5-3.5,3.2-4,3.4c-1.7,1.8-3.5,2.8-5.4,2.8C318.9,68.6,316.6,65.6,316.5,65.5z M322.2,44.9c-2.5,0-5,1.5-7.4,4.5
	c-0.2,0.4-0.4,0.9-0.7,1.7c-0.6,1.6-1.3,4.1-1.4,6.9c0,0-0.7,4.4,1.9,5.6c0.1,0,1.5,0.5,2.4,1.6c0,0,2.2,2.9,5.2,2.9
	c1.7,0,3.4-0.9,5.1-2.7l0.1-0.1c0,0,2.4-0.6,3.7-3.1c1.4-2.8,1-6.7-1.1-11.7c-0.2-0.6-0.5-1.2-0.9-1.9c0,0,0,0,0-0.1v-0.1
	C327.5,46.9,325.1,44.9,322.2,44.9z"/>
<path class="st0" d="M337.8,64.8c5.5,6.9,8.9,1.4,8.9,1.4c7-0.9,4.6-10.6,4.6-10.6c0.1-0.9-0.4-2.6-0.7-3.8
	c-0.2-0.8-0.5-1.4-0.5-1.4c0-0.2,0-0.4,0-0.6c-2.7-2.9-8.4-7.3-13.6-0.3c-0.2,0.9-0.5,1.7-0.7,2.5c-0.5,1.8-0.9,3.1-0.9,3.1
	C333.6,60,337.8,64.8,337.8,64.8z"/>
<path class="st0" d="M337.8,64.8c0.1,0.1,0.2,0.3,0.3,0.4C338,65.1,337.9,64.9,337.8,64.8c0,0-3.2-3.7-3.1-7.8
	C334.6,61.1,337.8,64.8,337.8,64.8z"/>
<path class="st0" d="M338.4,65.6c0.1,0.1,0.2,0.2,0.3,0.3C338.6,65.8,338.5,65.7,338.4,65.6z"/>
<path class="st0" d="M338.1,65.2c0.1,0.1,0.2,0.2,0.3,0.3C338.3,65.4,338.2,65.3,338.1,65.2z"/>
<path class="st3" d="M338.4,65.5C338.4,65.5,338.4,65.6,338.4,65.5C338.4,65.6,338.4,65.5,338.4,65.5z"/>
<path class="st3" d="M338.1,65.2L338.1,65.2L338.1,65.2z"/>
<path class="st1" d="M334.6,57c0-0.6,0.1-1.2,0.2-1.8c0-0.1,0.4-1.3,0.9-3.1c0.2-0.8,0.5-1.6,0.7-2.5c0.5-0.7,1-1.3,1.6-1.8
	c-0.1,0.4-0.2,0.9-0.4,1.3c-0.2,0.9-0.5,1.7-0.7,2.5c-0.5,1.8-0.9,3.1-0.9,3.1c-1.3,4.8,2.9,9.6,2.9,9.6c2.6,3.2,4.7,3.8,6.3,3.4
	c-0.8,0.5-1.8,0.8-3,0.5l0,0c-0.1,0-0.2,0-0.2-0.1l0,0c-0.2-0.1-0.5-0.2-0.7-0.3l0,0c-0.1,0-0.2-0.1-0.2-0.1l0,0
	c-0.1,0-0.2-0.1-0.3-0.1l0,0c-0.3-0.2-0.5-0.3-0.8-0.6l0,0c-0.1-0.1-0.2-0.1-0.3-0.2l0,0c-0.3-0.2-0.6-0.5-0.9-0.8l0,0
	c-0.1-0.1-0.2-0.2-0.3-0.3l0,0c-0.1-0.1-0.2-0.2-0.3-0.3l0,0c-0.1-0.1-0.2-0.2-0.3-0.4C337.8,64.8,334.6,61.1,334.6,57z"/>
<path class="st1" d="M347.6,49.2c0.1,0.6,0.3,1.2,0.5,1.8c0.2,0.8,0.2,1.6,0.2,2.4c-0.1,1.4-0.4,2.8-0.7,4.3
	c-0.2,0.9-0.5,1.7-0.7,2.6c-0.1,0.3-0.2,0.7-0.3,1c-0.1,0.3-0.5,0.5-0.5,0.2c0-0.2,0.1-0.5,0.1-0.7c0.1-0.4,0.2-0.9,0.3-1.3
	c0.2-0.9,0.4-1.7,0.5-2.6c0.3-1.8,0.5-3.6,0-5.1c-0.1-0.4-0.3-0.8-0.5-1.2c-0.1-0.3-0.2-0.6-0.2-0.9
	C346.3,48.8,347.5,48.4,347.6,49.2z"/>
<path class="st2" d="M337.5,65c-0.2-0.2-4.2-5-2.9-9.9c0,0,0.1-0.2,0.2-0.6c0.2-0.5,0.4-1.5,0.7-2.6c0.2-0.8,0.5-1.6,0.7-2.5v-0.1
	c1.9-2.6,4-3.9,6.4-3.9c3.1,0,5.8,2.3,7.6,4.2c0,0,0.1,0.1,0.1,0.2c0,0.2,0,0.4,0,0.6c0.1,0.2,0.2,0.7,0.5,1.4
	c0.4,1.2,0.8,2.9,0.8,3.8c0.1,0.6,1.3,5.6-0.9,8.7c-0.9,1.3-2.2,2-3.8,2.3c-0.3,0.5-1.6,2.1-3.7,2.1C341.3,68.6,339.5,67.4,337.5,65
	z M342.6,46.1c-2.1,0-4.1,1.2-5.9,3.6c-0.2,0.9-0.5,1.7-0.7,2.4c-0.3,1.1-0.6,2-0.7,2.6c-0.1,0.3-0.1,0.5-0.2,0.6
	c-1.2,4.6,2.8,9.3,2.8,9.4c1.8,2.2,3.5,3.4,5.2,3.4c2.1,0,3.3-1.9,3.3-1.9c0-0.1,0.1-0.1,0.2-0.1c1.6-0.2,2.8-0.9,3.6-2
	c2.1-3,0.8-8.2,0.8-8.3v-0.1c0-0.7-0.2-2-0.7-3.7c-0.2-0.8-0.5-1.4-0.5-1.4v-0.1c0-0.1,0-0.3,0-0.5
	C348.1,48.2,345.5,46.1,342.6,46.1z"/>
<path class="st0" d="M273,68.1c0,0,2.5,0.8,5.7-1.1c0,0,3-0.6,4.8-2.2c0,0,5.2-2.2,0.2-13.2c-0.1-0.2-0.2-0.5-0.3-0.7
	c0,0-0.6-1.5-1.3-3.6c-2.7-3.6-7.1-6.9-12.1-0.6l-0.3,1.8c-0.5,3.2-1.1,7.2-1.2,9v0.2c0,0-1,6-0.6,7.7
	C268.1,65.4,267.5,68.7,273,68.1z"/>
<path class="st1" d="M268,64.2c0-1.4,0.2-2.9,0.4-4.3c0.1-0.6,0.2-1.1,0.3-1.7c0-0.2,0.1-0.4,0-0.7c0-0.3,0.1-0.7,0.1-1
	c0-0.4,0.1-0.7,0.1-1.1c0.1-0.7,0.2-1.5,0.3-2.2c0.2-1.5,0.4-3,0.6-4.4c0.1-0.7,0.2-1.4,0.3-2.1c0.4-0.5,0.9-1.1,1.4-1.5
	c-0.5,2.9-0.9,5.8-1.3,8.7c-0.1,0.7-0.2,1.4-0.3,2.2c0,0.3-0.1,0.7-0.1,1c0.1,0.3-0.1,0.7-0.1,1c-0.2,1.3-0.4,2.6-0.5,3.9
	c0-0.2,0-0.4,0.1-0.6c-0.1,0.7-0.1,1.4-0.1,2.1c0,0.3,0,0.7,0.1,1.1c0.1,0.3,0,0.6,0.1,0.9c0.2,1,0.9,1.6,1.8,1.9s1.9,0.3,2.9,0.2
	c0.3,0,0.7,0.1,1,0.1c0.4,0,0.7,0,1.1,0c0.7,0,1.4-0.2,2.1-0.4c-1.1,0.6-2.3,0.9-3.5,1c-0.5,0-1.1,0-1.6-0.1c-0.1,0-0.2,0-0.2,0
	c-0.2,0-0.3,0-0.5,0c-0.3,0-0.6,0-0.9,0c-1-0.1-2.3-0.3-2.9-1.2c-0.3-0.4-0.4-0.9-0.5-1.3c0-0.2,0-0.4,0-0.6
	C268,64.8,268,64.5,268,64.2C268,64.2,268,64.3,268,64.2z"/>
<path class="st1" d="M281.4,62.6c0.1-0.8,0.3-1.4,0.5-2.2c0.2-0.9,0.2-1.9,0.1-2.9c-0.2-1.7-0.6-3.3-1.2-5c-0.3-1-0.7-2-1.1-3
	c-0.2-0.4-0.3-0.8-0.5-1.2c-0.1-0.4-0.6-0.5-0.7-0.2c0,0.2,0.2,0.6,0.2,0.8c0.2,0.5,0.3,1,0.5,1.5c0.3,1,0.6,2,0.8,3.1
	c0.5,2.1,0.8,4.2,0.3,5.9c-0.1,0.5-0.3,1-0.5,1.4c-0.1,0.3-0.2,0.7-0.2,1.1C279.8,63.1,281.3,63.6,281.4,62.6z"/>
<path class="st2" d="M273,68.4c-2.3,0.2-3.8-0.2-4.6-1.1c-0.6-0.8-0.6-1.6-0.6-1.8c-0.4-1.8,0.5-7.1,0.6-7.7v-0.2c0,0,0,0,0-0.1
	c0.1-1.8,0.7-5.9,1.2-9l0.3-1.8c0,0,0-0.1,0.1-0.1c3.9-5.1,8.4-4.8,12.5,0.6v0.1c0.7,2.1,1.2,3.6,1.2,3.6l0,0
	c0.1,0.2,0.2,0.5,0.3,0.7c2.7,5.9,2.4,9.3,1.7,11.1c-0.7,1.7-1.8,2.3-2,2.4c-1.7,1.5-4.5,2.1-4.9,2.2c-1.8,1.1-3.4,1.3-4.4,1.3
	C273.7,68.6,273.2,68.5,273,68.4z M275.8,43.5c-1.8,0-3.7,1.1-5.4,3.4l-0.3,1.7c-0.5,3.1-1,7.1-1.2,8.9v0.2v0.1c0,0.1-1,5.9-0.6,7.6
	v0.1c0,0-0.1,0.8,0.4,1.5c0.7,0.8,2.1,1.1,4.2,0.9h0.1c0,0,0.5,0.1,1.3,0.1c1,0,2.5-0.2,4.2-1.2h0.1c0,0,3-0.6,4.7-2.1
	c0,0,0,0,0.1,0c0,0,1.1-0.5,1.8-2.1c0.7-1.7,0.9-4.9-1.7-10.6c-0.1-0.2-0.2-0.5-0.3-0.7c0,0-0.6-1.5-1.2-3.6
	C280.5,45.6,278.4,43.5,275.8,43.5z"/>
<path class="st0" d="M264.9,61.8c0,0,2.4-24.9-11.6-23.8c0,0-7.6-0.9-9.3,13.4c-1.4,11.8-1.1,9.8-1.3,13.3c0,0-0.4,4,3.4,3.6
	c0,0,11.5,0,18.1-3.5C264.3,64.7,264.8,64.9,264.9,61.8z"/>
<path class="st1" d="M242.6,64.7c0.2-3.5-0.1-1.5,1.3-13.3c0.1-1.2,0.5-2.9,0.8-3.9l0.9-2.6c-0.1,0.9-0.3,4.8-0.4,6.1
	c-1.4,11.8-1.1,9.8-1.3,13.3c0,0-0.4,3.7,3.1,3.6c0.1,0,0.3,0,0.4,0h0.1c1,0,9.4-0.2,15.7-2.5c0.1,0,0.3-0.1,0.4-0.1
	c-0.1,0-0.2,0.1-0.3,0.1c-6.4,2.8-15.9,3-17,3h-0.1c-0.1,0-0.3,0-0.4,0C242.2,68.4,242.6,64.7,242.6,64.7z"/>
<path class="st1" d="M249,61.1c-0.2-0.7-0.3-1.5-0.3-2.2c-0.1-1.6,0-3.1,0.3-4.6c0.2-1.6,0.6-3.1,0.9-4.7c0.2-0.8,0.4-1.6,0.6-2.3
	c0.1-0.4,0.2-0.7,0.3-1.1c0.1-0.3,0.2-0.8,0.3-1.1c0.1-0.1,0.3-0.3,0.5-0.2s0.1,0.5,0.1,0.7c-0.2,0.7-0.3,1.3-0.5,2
	c-0.3,1.5-0.6,3.1-0.9,4.7c-0.2,1.5-0.4,3-0.3,4.6c0,0.7,0.1,1.4,0.2,2.1c0.1,0.7,0.4,1.4,0.6,2.2c0.2,0.9,0.6,2-0.2,2.7
	c-0.2,0.2-0.5,0.3-0.8,0.3c-0.3-0.1-0.5-0.4-0.5-0.7C249.3,62.3,249.1,61.8,249,61.1z"/>
<path class="st2" d="M243.3,67.6c-1-1.1-0.9-2.9-0.9-3c0-0.7,0.1-1.2,0.1-1.7c0.1-1.7,0.1-2.3,1.3-11.7c1.6-13,8.1-13.6,9.3-13.6
	c0.1,0,0.2,0,0.3,0c0.3,0,0.6,0,0.9,0c2.6,0,4.9,1,6.6,2.9c5.7,6.3,4.4,20.6,4.4,21.2c-0.1,2.7-0.6,3.2-0.9,3.2
	c-6.6,3.5-17.8,3.5-18.2,3.5l0,0c-0.2,0-0.4,0-0.5,0C244.7,68.6,243.9,68.3,243.3,67.6z M264.7,61.7c0-0.1,1.3-14.7-4.2-20.8
	c-1.6-1.8-3.7-2.7-6.2-2.7c-0.3,0-0.6,0-0.9,0c0,0-0.1,0-0.2,0c-1.2,0-7.2,0.6-8.8,13.2c-1.1,9.3-1.2,10-1.3,11.6
	c0,0.4,0,0.9-0.1,1.7c0,0-0.1,1.6,0.7,2.6c0.4,0.5,1.1,0.7,1.9,0.7c0.2,0,0.3,0,0.5,0c0.1,0,11.5,0,18-3.5h0.1
	C264.3,64.3,264.6,63.9,264.7,61.7z"/>
</svg>
