<?xml version="1.0" encoding="utf-8"?>
<!-- Generator: Adobe Illustrator 24.1.2, SVG Export Plug-In . SVG Version: 6.00 Build 0)  -->
<svg version="1.1" id="Layer_38" xmlns="http://www.w3.org/2000/svg" xmlns:xlink="http://www.w3.org/1999/xlink" x="0px" y="0px"
	 viewBox="0 0 16 16" enable-background="new 0 0 16 16" xml:space="preserve">
<g>
	<path fill="#1C4B6C" d="M2.758,3.238c0.049,0,0.097-0.015,0.139-0.047C3.114,3.026,3.344,2.874,3.581,2.74
		c0.111-0.063,0.149-0.203,0.087-0.314c-0.063-0.111-0.204-0.15-0.314-0.087C3.099,2.484,2.852,2.647,2.618,2.824
		C2.517,2.901,2.497,3.045,2.574,3.147C2.619,3.206,2.688,3.238,2.758,3.238z"/>
	<path fill="#1C4B6C" d="M13.019,7.864c-0.127,0-0.23,0.103-0.23,0.23l0,0.014c0,0.274-0.018,0.549-0.054,0.818
		c-0.017,0.126,0.072,0.242,0.198,0.259c0.01,0.001,0.021,0.002,0.031,0.002c0.114,0,0.213-0.084,0.228-0.2
		c0.038-0.289,0.058-0.585,0.058-0.883l0-0.01C13.249,7.967,13.146,7.864,13.019,7.864z"/>
	<path fill="#1C4B6C" d="M0.286,7.166C0.301,7.169,0.315,7.17,0.328,7.17c0.109,0,0.206-0.078,0.226-0.189
		c0.05-0.269,0.118-0.536,0.203-0.794c0.04-0.121-0.026-0.251-0.147-0.291c-0.121-0.04-0.251,0.026-0.291,0.147
		C0.228,6.322,0.155,6.609,0.102,6.898C0.079,7.023,0.161,7.143,0.286,7.166z"/>
	<path fill="#1C4B6C" d="M1.054,4.943c0.038,0.023,0.08,0.035,0.121,0.035c0.077,0,0.153-0.039,0.196-0.109
		c0.143-0.232,0.304-0.456,0.477-0.667c0.081-0.098,0.066-0.244-0.032-0.324C1.718,3.796,1.572,3.81,1.492,3.908
		C1.306,4.135,1.133,4.376,0.979,4.625C0.912,4.734,0.946,4.876,1.054,4.943z"/>
	<path fill="#1C4B6C" d="M0.557,9.249c-0.05-0.268-0.082-0.542-0.096-0.814C0.454,8.307,0.347,8.209,0.219,8.216
		C0.091,8.223-0.006,8.331,0,8.458c0.015,0.293,0.05,0.587,0.104,0.875C0.125,9.444,0.222,9.521,0.33,9.521
		c0.014,0,0.028-0.001,0.043-0.004C0.498,9.494,0.581,9.374,0.557,9.249z"/>
	<path fill="#1C4B6C" d="M12.615,6.65c0.026,0.105,0.12,0.176,0.224,0.176c0.018,0,0.036-0.002,0.054-0.007
		c0.124-0.03,0.2-0.155,0.17-0.278c-0.069-0.285-0.158-0.568-0.265-0.841C12.752,5.582,12.619,5.524,12.5,5.57
		c-0.119,0.046-0.177,0.18-0.131,0.298C12.468,6.122,12.55,6.385,12.615,6.65z"/>
	<path fill="#1C4B6C" d="M11.683,4.585c0.045,0.064,0.116,0.099,0.189,0.099c0.046,0,0.091-0.013,0.132-0.041
		c0.104-0.073,0.13-0.216,0.057-0.321c-0.167-0.24-0.353-0.472-0.551-0.688c-0.086-0.094-0.232-0.1-0.326-0.014
		c-0.094,0.086-0.1,0.232-0.014,0.326C11.355,4.146,11.528,4.362,11.683,4.585z"/>
	<path fill="#1C4B6C" d="M7.179,1.966c0.272,0.024,0.545,0.067,0.81,0.127C8.006,2.097,8.024,2.099,8.04,2.099
		c0.105,0,0.2-0.073,0.225-0.18c0.028-0.124-0.05-0.248-0.174-0.276c-0.285-0.065-0.578-0.111-0.87-0.137
		c-0.127-0.011-0.239,0.082-0.25,0.209C6.959,1.842,7.053,1.954,7.179,1.966z"/>
	<path fill="#1C4B6C" d="M9.36,2.581c0.244,0.121,0.482,0.26,0.708,0.413c0.04,0.027,0.084,0.04,0.129,0.04
		c0.074,0,0.147-0.036,0.191-0.101c0.071-0.105,0.044-0.249-0.062-0.32c-0.243-0.164-0.499-0.314-0.762-0.444
		c-0.114-0.056-0.252-0.01-0.309,0.104C9.2,2.386,9.246,2.525,9.36,2.581z"/>
	<path fill="#1C4B6C" d="M4.859,2.186c0.021,0,0.042-0.003,0.063-0.009c0.262-0.075,0.531-0.133,0.802-0.172
		C5.85,1.987,5.937,1.87,5.919,1.744C5.901,1.618,5.784,1.531,5.658,1.549c-0.29,0.042-0.58,0.105-0.862,0.185
		C4.674,1.769,4.603,1.896,4.638,2.019C4.667,2.12,4.759,2.186,4.859,2.186z"/>
	<path fill="#1C4B6C" d="M11.179,12.264c-0.184,0.201-0.382,0.392-0.591,0.568c-0.097,0.082-0.11,0.227-0.028,0.325
		c0.046,0.054,0.111,0.082,0.176,0.082c0.052,0,0.105-0.018,0.148-0.054c0.224-0.189,0.438-0.394,0.635-0.61
		c0.086-0.094,0.079-0.24-0.015-0.326S11.265,12.17,11.179,12.264z"/>
	<path fill="#1C4B6C" d="M9.371,13.631c-0.244,0.122-0.498,0.228-0.756,0.316c-0.12,0.041-0.185,0.172-0.144,0.293
		c0.033,0.096,0.122,0.156,0.218,0.156c0.025,0,0.05-0.004,0.075-0.012c0.277-0.095,0.551-0.209,0.813-0.34
		c0.114-0.057,0.16-0.195,0.103-0.309C9.624,13.62,9.486,13.574,9.371,13.631z"/>
	<path fill="#1C4B6C" d="M0.992,10.637c-0.052-0.116-0.189-0.168-0.305-0.116c-0.116,0.052-0.168,0.189-0.115,0.305
		c0.12,0.267,0.26,0.529,0.414,0.777c0.044,0.07,0.119,0.109,0.196,0.109c0.042,0,0.084-0.011,0.122-0.035
		c0.108-0.067,0.141-0.209,0.074-0.317C1.234,11.129,1.104,10.885,0.992,10.637z"/>
	<path fill="#1C4B6C" d="M7.192,14.251c-0.271,0.025-0.549,0.032-0.82,0.021c-0.127-0.005-0.234,0.094-0.239,0.221
		c-0.005,0.127,0.094,0.234,0.221,0.239c0.088,0.003,0.177,0.005,0.266,0.005c0.205,0,0.411-0.009,0.614-0.028
		c0.127-0.012,0.22-0.124,0.208-0.251C7.431,14.332,7.318,14.239,7.192,14.251z"/>
	<path fill="#1C4B6C" d="M12.672,10.206c-0.119-0.046-0.252,0.013-0.298,0.132c-0.098,0.254-0.215,0.504-0.347,0.743
		c-0.061,0.111-0.021,0.252,0.091,0.313c0.035,0.019,0.073,0.029,0.111,0.029c0.081,0,0.16-0.043,0.202-0.119
		c0.142-0.257,0.267-0.526,0.373-0.799C12.849,10.385,12.79,10.252,12.672,10.206z"/>
	<path fill="#1C4B6C" d="M4.935,14.044c-0.262-0.074-0.522-0.167-0.772-0.276c-0.117-0.051-0.252,0.003-0.303,0.119
		c-0.051,0.117,0.003,0.252,0.119,0.303c0.269,0.117,0.549,0.217,0.831,0.297c0.021,0.006,0.042,0.009,0.063,0.009
		c0.1,0,0.193-0.066,0.222-0.168C5.129,14.206,5.058,14.079,4.935,14.044z"/>
	<path fill="#1C4B6C" d="M2.906,13.034c-0.218-0.164-0.426-0.345-0.62-0.537c-0.091-0.089-0.237-0.089-0.326,0.002
		c-0.089,0.091-0.089,0.236,0.002,0.326c0.208,0.206,0.433,0.4,0.666,0.576c0.042,0.031,0.09,0.047,0.139,0.047
		c0.07,0,0.139-0.032,0.184-0.091C3.028,13.255,3.008,13.11,2.906,13.034z"/>
	<path fill="#1C4B6C" d="M11.219,8.927l1.417-0.818L11.219,7.29v0.588h-0.955c-0.115-1.83-1.583-3.299-3.413-3.413v-1.05h0.588
		L6.62,1.997L5.802,3.415H6.39v1.05C4.56,4.58,3.091,6.048,2.977,7.878h-0.96V7.29L0.599,8.109l1.417,0.818V8.339h0.96
		c0.115,1.83,1.583,3.299,3.413,3.413v0.988H5.802l0.818,1.417l0.818-1.417H6.851v-0.988c1.83-0.115,3.298-1.583,3.413-3.413h0.955
		V8.927z M6.62,11.299c-1.759,0-3.191-1.431-3.191-3.191S4.861,4.918,6.62,4.918s3.191,1.431,3.191,3.191S8.38,11.299,6.62,11.299z"
		/>
	<path fill="#1C4B6C" d="M14.212,4.474c0.133,0,0.187-0.058,0.25-0.133l0.496-0.608l0.496,0.608c0.062,0.075,0.117,0.133,0.25,0.133
		C15.879,4.474,16,4.357,16,4.182c0-0.067-0.037-0.154-0.083-0.204l-0.608-0.692l0.508-0.571c0.05-0.058,0.092-0.142,0.092-0.217
		c0-0.158-0.154-0.292-0.308-0.292c-0.096,0-0.158,0.042-0.221,0.117l-0.421,0.525l-0.421-0.525
		c-0.062-0.075-0.125-0.117-0.221-0.117c-0.154,0-0.308,0.133-0.308,0.292c0,0.075,0.042,0.158,0.092,0.217l0.508,0.571L14,3.978
		c-0.046,0.05-0.083,0.138-0.083,0.204C13.916,4.357,14.037,4.474,14.212,4.474z"/>
	<path fill="#1C4B6C" d="M15.646,6.796c-0.146,0-0.25,0.079-0.3,0.213l-0.442,1.129l-0.413-1.129c-0.05-0.133-0.154-0.213-0.3-0.213
		c-0.125,0-0.283,0.108-0.283,0.258c0,0.063,0.013,0.108,0.029,0.154L14.6,8.863l-0.263,0.65C14.316,9.567,14.3,9.629,14.3,9.688
		c0,0.129,0.108,0.258,0.313,0.258c0.142,0,0.233-0.113,0.283-0.237l1.004-2.5c0.021-0.046,0.029-0.092,0.029-0.154
		C15.929,6.904,15.771,6.796,15.646,6.796z"/>
	<path fill="#1C4B6C" d="M15.604,13.656h-0.792l0.946-1.325c0.046-0.063,0.063-0.1,0.063-0.179c0-0.163-0.142-0.188-0.196-0.188
		h-1.363c-0.15,0-0.271,0.096-0.271,0.263c0,0.167,0.121,0.263,0.271,0.263h0.696l-0.942,1.325
		c-0.021,0.033-0.054,0.096-0.054,0.163c0,0.138,0.113,0.204,0.246,0.204h1.396c0.15,0,0.271-0.096,0.271-0.263
		C15.875,13.751,15.754,13.656,15.604,13.656z"/>
</g>
</svg>
