<?xml version="1.0" encoding="utf-8"?>
<!-- Generator: Adobe Illustrator 24.1.2, SVG Export Plug-In . SVG Version: 6.00 Build 0)  -->
<svg version="1.1" id="Layer_38" xmlns="http://www.w3.org/2000/svg" xmlns:xlink="http://www.w3.org/1999/xlink" x="0px" y="0px"
	 viewBox="0 0 16 16" enable-background="new 0 0 16 16" xml:space="preserve">
<g>
	<path fill="#1C4B6C" d="M1.625,4.369c0.044,0.027,0.093,0.04,0.141,0.04c0.09,0,0.178-0.045,0.229-0.128
		C2.159,4.017,2.342,3.761,2.54,3.519c0.094-0.115,0.077-0.284-0.038-0.379C2.388,3.047,2.218,3.063,2.124,3.178
		c-0.213,0.26-0.41,0.536-0.586,0.821C1.459,4.125,1.498,4.291,1.625,4.369z"/>
	<path fill="#1C4B6C" d="M3.576,2.42c0.057,0,0.114-0.018,0.162-0.055C3.987,2.177,4.25,2.003,4.521,1.85
		C4.65,1.776,4.695,1.612,4.622,1.483C4.548,1.354,4.384,1.308,4.255,1.382C3.964,1.547,3.681,1.734,3.413,1.937
		c-0.118,0.09-0.142,0.258-0.052,0.377C3.414,2.383,3.495,2.42,3.576,2.42z"/>
	<path fill="#1C4B6C" d="M5.98,1.217c0.024,0,0.049-0.003,0.074-0.01C6.353,1.121,6.661,1.054,6.97,1.01
		c0.147-0.021,0.249-0.158,0.227-0.305C7.176,0.558,7.039,0.456,6.892,0.477C6.56,0.526,6.228,0.597,5.906,0.689
		C5.763,0.73,5.68,0.879,5.721,1.021C5.755,1.14,5.863,1.217,5.98,1.217z"/>
	<path fill="#1C4B6C" d="M0.749,6.914c0.016,0.003,0.033,0.005,0.049,0.005c0.127,0,0.24-0.091,0.264-0.22
		C1.119,6.391,1.197,6.086,1.294,5.79C1.34,5.649,1.263,5.497,1.122,5.451C0.981,5.405,0.829,5.482,0.782,5.623
		C0.678,5.941,0.594,6.27,0.533,6.6C0.506,6.746,0.603,6.887,0.749,6.914z"/>
	<path fill="#1C4B6C" d="M13.781,3.957c0.052,0.075,0.136,0.115,0.221,0.115c0.053,0,0.107-0.016,0.154-0.048
		c0.122-0.085,0.152-0.253,0.067-0.375c-0.192-0.275-0.404-0.54-0.63-0.787c-0.1-0.11-0.27-0.117-0.38-0.017
		c-0.11,0.1-0.117,0.271-0.017,0.38C13.406,3.455,13.603,3.701,13.781,3.957z"/>
	<path fill="#1C4B6C" d="M8.633,0.964c0.311,0.028,0.623,0.077,0.925,0.145c0.02,0.005,0.04,0.007,0.06,0.007
		c0.123,0,0.234-0.085,0.262-0.21c0.033-0.145-0.058-0.289-0.203-0.322C9.351,0.511,9.016,0.458,8.681,0.428
		C8.533,0.415,8.402,0.524,8.389,0.672C8.376,0.82,8.485,0.951,8.633,0.964z"/>
	<path fill="#1C4B6C" d="M1.065,9.289c-0.057-0.306-0.094-0.619-0.11-0.93C0.947,8.21,0.822,8.095,0.672,8.104
		C0.524,8.111,0.41,8.238,0.418,8.386c0.017,0.336,0.057,0.672,0.119,1.001c0.024,0.129,0.137,0.22,0.264,0.22
		c0.016,0,0.033-0.002,0.05-0.005C0.996,9.575,1.093,9.435,1.065,9.289z"/>
	<path fill="#1C4B6C" d="M14.846,6.317c0.03,0.123,0.14,0.206,0.261,0.206c0.021,0,0.042-0.002,0.064-0.008
		c0.144-0.035,0.233-0.181,0.198-0.325c-0.079-0.326-0.181-0.65-0.303-0.962c-0.054-0.138-0.21-0.207-0.348-0.153
		c-0.138,0.054-0.207,0.21-0.153,0.348C14.678,5.713,14.773,6.014,14.846,6.317z"/>
	<path fill="#1C4B6C" d="M11.126,1.667c0.279,0.139,0.552,0.297,0.81,0.472c0.046,0.031,0.099,0.046,0.15,0.046
		c0.086,0,0.171-0.042,0.223-0.118c0.083-0.123,0.051-0.29-0.072-0.374c-0.278-0.188-0.572-0.359-0.872-0.508
		c-0.133-0.066-0.295-0.012-0.361,0.121C10.938,1.439,10.992,1.601,11.126,1.667z"/>
	<path fill="#1C4B6C" d="M8.649,15.005c-0.31,0.028-0.627,0.037-0.937,0.024c-0.151-0.006-0.274,0.11-0.279,0.258
		c-0.006,0.148,0.11,0.274,0.258,0.279c0.101,0.004,0.202,0.006,0.304,0.006c0.235,0,0.471-0.011,0.704-0.032
		c0.148-0.014,0.257-0.145,0.243-0.292C8.928,15.1,8.797,14.992,8.649,15.005z"/>
	<path fill="#1C4B6C" d="M11.14,14.296c-0.279,0.139-0.57,0.261-0.864,0.362c-0.141,0.048-0.216,0.201-0.168,0.342
		c0.038,0.112,0.143,0.182,0.255,0.182c0.029,0,0.058-0.005,0.087-0.015c0.317-0.108,0.63-0.239,0.931-0.389
		c0.133-0.066,0.187-0.228,0.12-0.361C11.434,14.284,11.272,14.23,11.14,14.296z"/>
	<path fill="#1C4B6C" d="M1.563,10.875c-0.061-0.136-0.22-0.196-0.356-0.135c-0.136,0.061-0.196,0.22-0.135,0.356
		c0.138,0.306,0.297,0.605,0.474,0.89c0.051,0.082,0.139,0.127,0.229,0.127c0.049,0,0.098-0.013,0.142-0.041
		c0.126-0.078,0.165-0.244,0.086-0.371C1.839,11.437,1.691,11.159,1.563,10.875z"/>
	<path fill="#1C4B6C" d="M13.205,12.734c-0.21,0.23-0.437,0.449-0.676,0.649c-0.114,0.096-0.128,0.265-0.033,0.379
		c0.053,0.063,0.129,0.096,0.206,0.096c0.061,0,0.123-0.021,0.173-0.063c0.257-0.216,0.501-0.451,0.727-0.699
		c0.1-0.11,0.092-0.28-0.018-0.38S13.305,12.624,13.205,12.734z"/>
	<path fill="#1C4B6C" d="M14.919,10.378c-0.139-0.054-0.294,0.015-0.348,0.154c-0.113,0.29-0.246,0.576-0.396,0.849
		c-0.072,0.13-0.024,0.294,0.106,0.365c0.041,0.023,0.086,0.033,0.13,0.033c0.095,0,0.187-0.05,0.236-0.139
		c0.162-0.294,0.306-0.602,0.427-0.914C15.126,10.588,15.057,10.432,14.919,10.378z"/>
	<path fill="#1C4B6C" d="M6.07,14.769c-0.3-0.085-0.597-0.191-0.883-0.315c-0.136-0.059-0.295,0.003-0.354,0.139
		c-0.059,0.136,0.003,0.295,0.139,0.354c0.308,0.134,0.628,0.248,0.951,0.34c0.024,0.007,0.049,0.01,0.073,0.01
		c0.117,0,0.225-0.077,0.259-0.196C6.295,14.958,6.212,14.809,6.07,14.769z"/>
	<path fill="#1C4B6C" d="M3.75,13.614c-0.249-0.188-0.487-0.394-0.709-0.613c-0.106-0.105-0.276-0.103-0.38,0.002
		c-0.104,0.106-0.103,0.276,0.002,0.38c0.238,0.236,0.495,0.458,0.763,0.66c0.049,0.037,0.106,0.054,0.162,0.054
		c0.081,0,0.162-0.037,0.215-0.107C3.892,13.873,3.869,13.704,3.75,13.614z"/>
	<path fill="#1C4B6C" d="M15.314,7.698c-0.149,0-0.269,0.12-0.269,0.269v0.018c0,0.313-0.021,0.627-0.061,0.935
		c-0.019,0.147,0.084,0.283,0.231,0.302c0.012,0.002,0.024,0.002,0.036,0.002c0.133,0,0.248-0.098,0.266-0.234
		c0.044-0.331,0.066-0.67,0.066-1.006V7.967C15.583,7.819,15.462,7.698,15.314,7.698z"/>
	<path fill="#1C4B6C" d="M7.059,13.283l0.936,1.621l0.936-1.621H8.264v-1.126c2.092-0.134,3.77-1.812,3.904-3.904h1.088v0.667
		l1.621-0.936l-1.621-0.936v0.667h-1.088c-0.134-2.092-1.812-3.77-3.904-3.904V2.616h0.667L7.995,0.995L7.059,2.616h0.667v1.197
		c-2.092,0.134-3.77,1.812-3.904,3.904H2.729V7.049L1.108,7.985l1.621,0.936V8.254h1.094c0.134,2.092,1.812,3.77,3.904,3.904v1.126
		H7.059z M4.351,7.985c0-2.009,1.635-3.644,3.644-3.644s3.644,1.635,3.644,3.644s-1.635,3.644-3.644,3.644S4.351,9.995,4.351,7.985z
		"/>
</g>
</svg>
