<?xml version="1.0" encoding="utf-8"?>
<!-- Generator: Adobe Illustrator 22.1.0, SVG Export Plug-In . SVG Version: 6.00 Build 0)  -->
<!DOCTYPE svg PUBLIC "-//W3C//DTD SVG 1.1//EN" "http://www.w3.org/Graphics/SVG/1.1/DTD/svg11.dtd">
<svg version="1.1" id="Layer_1" xmlns="http://www.w3.org/2000/svg" xmlns:xlink="http://www.w3.org/1999/xlink" x="0px" y="0px"
	 viewBox="0 0 170 170" style="enable-background:new 0 0 170 170;" xml:space="preserve">
<style type="text/css">
	.st0{fill:#C1C0BF;}
	.st1{fill:none;}
	.st2{fill:#B2B1B1;}
	.st3{fill:#A9A8A7;}
	.st4{fill:#A2A2A1;}
	.st5{fill:#CBCBCA;}
	.st6{fill:#F5F5F4;}
	.st7{fill:#24211D;}
	.st8{fill:#CECECD;}
	.st9{fill:#DDDDDC;}
	.st10{fill:#EBEBEB;}
	.st11{fill:#BCBBBB;}
	.st12{fill:#696665;}
	.st13{fill:#AFAEAE;}
</style>
<g id="Layer_6">
	<path class="st0" d="M83.8,146.2c-4.9,0-9.3,0.5-14.3-2c-2-1-3.9-2-6.4-3c-0.5-0.5-2,0-2.9-0.5c-19.2-7.4-27.5-32-34.4-55.1
		c-1-3.9-3.4-7.4-4.9-11.3c-1-5.4-4.4-11.3-5.9-16.7c-1.5-6.4-3.9-5.9-6.9-11.8c-4.4-8.9-7.4-22.1-6.9-32.5c0-2,1.5-4.4,3.9-4.9
		c6.9-1,13.8-1.5,20.6,1c1,0,2.5,0.5,2.9,1.5c5.9,8.9,7.4,19.7,9.3,30.5c0.5,2,1.5,4.4,2.9,5.9c1.5,3.4,3.4,6.4,4.9,9.3
		c4.4,8.9,6.4,17.7,10.8,26.6c2.9,5.4,6.4,9.3,8.4,15.7c4.9,14.3,14.7,3.9,19.2,8.4l0,0c4.4-3.4,14.3,5.9,19.2-8.4
		c2-5.9,5.9-9.8,8.8-15.3c4.4-8.9,6.9-17.2,10.8-26.1c2-3.4,3.4-6.4,5.4-9.3c1.5-2,2.5-3.9,2.9-5.9c2.5-11.3,3.9-22.1,9.8-30.5
		c1-1,2-1.5,2.9-1.5c6.9-2.5,13.8-2,21.1-0.5c2,0.5,3.4,3,3.4,4.9c0,10.3-2.9,23.6-7.4,32.5c-2.9,5.4-5.4,5.4-6.9,11.3
		c-2,5.4-4.9,11.3-6.4,16.7c-1.5,3.9-3.9,7.4-4.9,11.3c-7.4,23.1-16.2,47.7-35.4,54.6c-1,0.5-2.5-0.5-2.9,0
		c-2.5,1.5-4.4,2.5-6.4,3.4C93.6,147.1,89.2,146.2,83.8,146.2L83.8,146.2z"/>
	<path class="st1" d="M83.8,146.2c-4.9,0-9.3,0.5-14.3-2c-2-1-3.9-2-6.4-3c-0.5-0.5-2,0-2.9-0.5c-19.2-7.4-27.5-32-34.4-55.1
		c-1-3.9-3.4-7.4-4.9-11.3c-1-5.4-4.4-11.3-5.9-16.7c-1.5-6.4-3.9-5.9-6.9-11.8c-4.4-8.9-7.4-22.1-6.9-32.5c0-2,1.5-4.4,3.9-4.9
		c6.9-1,13.8-1.5,20.6,1c1,0,2.5,0.5,2.9,1.5c5.9,8.9,7.4,19.7,9.3,30.5c0.5,2,1.5,4.4,2.9,5.9c1.5,3.4,3.4,6.4,4.9,9.3
		c4.4,8.9,6.4,17.7,10.8,26.6c2.9,5.4,6.4,9.3,8.4,15.7c4.9,14.3,14.7,3.9,19.2,8.4l0,0c4.4-3.4,14.3,5.9,19.2-8.4
		c2-5.9,5.9-9.8,8.8-15.3c4.4-8.9,6.9-17.2,10.8-26.1c2-3.4,3.4-6.4,5.4-9.3c1.5-2,2.5-3.9,2.9-5.9c2.5-11.3,3.9-22.1,9.8-30.5
		c1-1,2-1.5,2.9-1.5c6.9-2.5,13.8-2,21.1-0.5c2,0.5,3.4,3,3.4,4.9c0,10.3-2.9,23.6-7.4,32.5c-2.9,5.4-5.4,5.4-6.9,11.3
		c-2,5.4-4.9,11.3-6.4,16.7c-1.5,3.9-3.9,7.4-4.9,11.3c-7.4,23.1-16.2,47.7-35.4,54.6c-1,0.5-2.5-0.5-2.9,0
		c-2.5,1.5-4.4,2.5-6.4,3.4C93.6,147.1,89.2,146.2,83.8,146.2L83.8,146.2z"/>
	<path class="st2" d="M84.3,135.8c7.4-3,14.7-3.9,22.6-7.4c1.5-0.5,2.5-1.5,2.9-3c2.5-5.4,3.4-11.3,6.4-16.2c1.5-3,3.4-5.4,4.4-8.9
		c1-3,2-6.4,2.9-9.3c0.5-2,1.5-3.9,2.5-5.9c3.4-5.9,2-13.8,4.4-20.2c2.9-7.9,5.4-15.3,8.8-23.1c2.5-4.9,6.9-6.4,9.8-10.8
		c-6.4-0.5-5.4-8.9-6.9-15.3c-9.3,9.8-9.8,28-10.8,30c-4.4,4.4-10.8,20.2-15.2,31c-1.5,3.4-1.5,7.4-3.4,10.8
		c-1.5,3.9-3.9,6.9-6.4,9.8c-2.5,3.9-3.9,9.3-7.4,12.3c-2.9,2.5-10.8-1-14.7,0.5L84.3,135.8L84.3,135.8z"/>
	<path class="st3" d="M86.2,131.4c5.9-4.9,12.8-4.4,18.7-8.9c2-1.5,3.4-3,3.9-5.4c0.5-2,0.5-4.9,1.5-6.9
		c6.4-11.8,16.7-42.8,13.3-39.4c-3.4,0-5.9,14.8-9.8,21.6c-3.4,5.9-6.9,10.3-10.3,16.7c-1.5,3-3.9,4.9-6.4,6.9
		c-2.9,1.5-4.9,5.9-7.9,7.4c-0.5,0.5-4.9,3.4-6.4,6.4c-0.5,1.5,0,2,1.5,2.5C85.3,132.4,85.7,131.9,86.2,131.4L86.2,131.4z"/>
	<path class="st4" d="M129,56.6c2-2.5,4.4-4.4,5.4-7.4c1-3.9,1.5-7.9,3.4-11.3c2-2.5,3.9-3.9,5.4-6.4c0.5,0,0.5-1,0-1
		c-0.5-2.5-2.5-3.4-2.9-5.9c-0.5-0.5-0.5-1-1-1c-1,0.5-1.5,1-1.5,2s-0.5,2-0.5,3.4c0,1.5-2.5,4.9-2.5,6.9c-1,6.4-1,7.9-3.9,13.8
		c-2.9,6.4-6.9,7.9-6.9,16.2h0.5C126.5,62.5,127,59.1,129,56.6L129,56.6z"/>
	<path class="st5" d="M159,48.2c1-1,1.5-3.9,2.5-6.4c0.5-2,2.5-4.4,2.9-6.9c1-2.5,1-4.9,1.5-7.4c0.5-0.5,1.5-4.9,1-5.4
		c-1-1-2.5,3.9-3.4,5.4c-0.5,1-1.5,3-2.9,3.9c-2.5,1.5-5.4,0.5-8.4,1c-1,0-1,1.5-0.5,2c4.9,2.5,5.9,11.3,5.4,14.8
		C157,49.7,158.5,48.7,159,48.2L159,48.2z"/>
	<path class="st6" d="M146.7,61.5c2.5,0.5,3.4-1.5,5.9-3c0,0,1-1,1.5-2c0-1.5,0.5-3.4,1-4.4c1.5-4.9,2.9-11.8,0-16.2c-1-1-2-2-2.5-2
		c-3.4-1-7.4-2.5-10.8-0.5c-0.5,0.5-1,2.5-2,3c-1.5,1.5-3.9,3.4-4.4,5.4c-1,4.9-2,9.3-1.5,14.8c0,1,1.5,2.5,3.4,2.5
		c5.9,0,5.9,1.5,10.3,2.5c1-0.5,2-0.5,2-0.5L146.7,61.5z"/>
	<path class="st7" d="M146.7,61c2,0.5,2.5-0.5,3.9-1.5l0.5,1c-1.5,1-2.5,2-4.4,1V61z M150.6,59.6c0.5-0.5,1-0.5,1.5-1l0.5,0.5
		c-0.5,0.5-1,1-1.5,1.5L150.6,59.6z M152.1,58.6L152.1,58.6h0.5H152.1z M152.1,58.6L152.1,58.6l0.5,0.5l0,0L152.1,58.6z M152.6,59.1
		L152.6,59.1v-0.5V59.1z M152.1,58.6c0,0,0,0,0-0.5l1,1c-0.5,0-0.5,0-0.5,0L152.1,58.6z M152.1,58.1c0.5,0,0.5,0,0.5,0l0.5,0.5v0.5
		L152.1,58.1z M152.6,58.1c0.5-0.5,1-1,1-1.5h1c-0.5,0.5-1,1.5-1.5,2L152.6,58.1z M154.6,56.6L154.6,56.6h-0.5H154.6z M153.6,56.6
		L153.6,56.6h1l0,0H153.6z M153.6,56.6c0-0.5,0-1.5,0.5-2h0.5c0,1,0,1.5,0,2H153.6z M154.1,54.6c0-1,0.5-2,0.5-2.5h1
		c-0.5,1-0.5,1.5-1,2.5H154.1z M154.6,52.2L154.6,52.2h0.5H154.6z M154.6,52.2L154.6,52.2h1l0,0H154.6z M154.6,52.2L154.6,52.2h0.5
		H154.6z M154.6,52.2c0-1,0.5-1.5,0.5-2.5l1,0.5c0,0.5-0.5,1.5-0.5,2H154.6z M155.1,49.7c0.5-0.5,0.5-1.5,0.5-2h1
		c0,1-0.5,1.5-0.5,2.5L155.1,49.7z M155.6,47.8c1-4.4,1-8.4-1-11.8l0.5-0.5c2.5,3.4,2.5,7.9,1.5,12.3H155.6z M155.1,35.5L155.1,35.5
		V36V35.5z M154.6,35.9L154.6,35.9l0.5-0.5l0,0L154.6,35.9z M155.1,35.5L155.1,35.5V36V35.5z M154.6,35.9c0,0,0,0-0.5,0l1-1
		c0,0.5,0,0.5,0,0.5L154.6,35.9z M154.1,35.9c0-0.5,0-0.5,0-0.5l0.5-0.5h0.5L154.1,35.9z M154.1,35.5c-0.5-0.5-1-1-2-1l0.5-1
		c0.5,0,1.5,0.5,2,1.5L154.1,35.5z M152.1,34.5L152.1,34.5l0.5-0.5L152.1,34.5z M152.1,34.5L152.1,34.5l0.5-1l0,0L152.1,34.5z
		 M152.1,34.5c0,0-0.5-0.5-1-0.5v-1c0.5,0.5,1,0.5,1.5,0.5L152.1,34.5z M151.1,34c-2.9-1-5.9-1.5-8.8,0l-0.5-0.5
		c2.9-2,6.4-1,9.3-0.5V34z M141.8,33.5L141.8,33.5L141.8,33.5L141.8,33.5z M142.3,34L142.3,34l-0.5-0.5l0,0L142.3,34z M142.3,34
		L142.3,34l-0.5-0.5L142.3,34z M142.3,34c-0.5,0.5-1,1-1,1.5l-1-0.5c0.5-0.5,1-1.5,1.5-1.5L142.3,34z M141.3,35.5
		c-0.5,0.5-1,1-1.5,1.5l-0.5-0.5c0.5-0.5,0.5-1,1-1.5L141.3,35.5z M139.8,36.9L139.8,36.9v-0.5V36.9z M139.8,36.9c0,0,0,0.5-0.5,0.5
		l-0.5-0.5l0.5-0.5L139.8,36.9z M139.3,37.4c-1,1-2.9,3-3.4,4.4h-1c0.5-2,2.5-3.9,3.9-4.9L139.3,37.4z M135.9,41.9
		c-0.5,2.5-1,4.9-1.5,7.4h-0.5c0-2.5,0.5-4.9,1-7.4H135.9z M134.4,49.2c0,2,0,4.4,0,7.4h-1c0-3,0-5.4,0.5-7.4H134.4z M134.4,56.6
		L134.4,56.6h-0.5H134.4z M134.4,56.6L134.4,56.6h-1l0,0H134.4z M133.4,56.6L133.4,56.6h0.5H133.4z M134.4,56.6L134.4,56.6l-0.5,0.5
		l-0.5-0.5H134.4z M134.4,56.6c0,0.5,0.5,0.5,0.5,0.5l-1,0.5v-0.5L134.4,56.6z M134.9,57.1c0.5,1,1.5,1.5,2.5,1.5v1
		c-1.5,0-2.5-1-3.4-2L134.9,57.1z M137.4,59.6L137.4,59.6v-0.5V59.6z M137.4,58.6c3.9,0,5.4,0.5,6.9,1.5v0.5c-2-0.5-3.4-1-6.9-1
		V58.6z M144.2,60.1c1,0.5,2,0.5,3.9,1l-0.5,1c-1.5-0.5-2.5-1-3.4-1.5V60.1z M148.2,62h-0.5l0,0v-0.5L148.2,62z M147.7,61L147.7,61
		l0.5,1l0,0L147.7,61z M148.2,62L148.2,62l-0.5-0.5L148.2,62z M147.7,61c0.5,0,1,0,1-0.5l0.5,1c-0.5,0-1,0.5-1,0.5L147.7,61z
		 M148.7,60.5c0.5,0,1,0,1,0v1h-0.5L148.7,60.5z"/>
	<path class="st8" d="M144.7,58.6c0.5,0,1,0,1.5,0l-0.5,1c0,0-0.5-0.5-1-0.5V58.6z M146.2,58.6c0.5,0.5,1.5,0.5,2.5,0l0.5,0.5
		c-1.5,1-2.5,1-3.4,0.5L146.2,58.6z M149.2,59.1L149.2,59.1l-0.5-0.5L149.2,59.1z M148.7,58.6c1.5-2,2-4.9,2-7.9h1
		c-0.5,3-0.5,6.4-2.5,8.4L148.7,58.6z M150.6,50.7c0-0.5,0-1,0-1h1c0,0.5,0,0.5,0,1H150.6z M151.6,49.7L151.6,49.7h-0.5H151.6z
		 M150.6,49.7L150.6,49.7h1l0,0H150.6z M150.6,49.7L150.6,49.7h0.5H150.6z M150.6,49.7c0-1,0.5-1.5,0.5-2.5l1,0.5
		c0,0.5-0.5,1.5-0.5,2H150.6z M151.1,47.3c0.5-0.5,1-1.5,1-2.5h0.5c0.5,1,0,2-0.5,3L151.1,47.3z M152.6,44.8L152.6,44.8L152.6,44.8
		L152.6,44.8z M152.1,44.8L152.1,44.8h0.5l0,0H152.1z M152.6,44.8L152.6,44.8L152.6,44.8L152.6,44.8z M152.1,44.8c0-0.5-0.5-1-1-1.5
		l1-0.5c0.5,0.5,0.5,1.5,0.5,2H152.1z M151.1,43.3c0-0.5,0-1-0.5-1.5h1c0,0,0.5,0.5,0.5,1L151.1,43.3z M150.6,41.9L150.6,41.9h0.5
		H150.6z M150.6,41.9L150.6,41.9h1l0,0H150.6z M150.6,41.9c0-0.5,0-1,0-1.5h1c0,0.5,0,1,0,1.5H150.6z M150.6,40.4
		c0.5-0.5,0.5-1.5,0-2l1-0.5c0,1,0,1.5,0,2.5H150.6z M151.6,37.9L151.6,37.9l-0.5,0.5L151.6,37.9z M150.6,38.4l-0.5-0.5l0.5-0.5
		c0.5,0,0.5,0.5,1,0.5L150.6,38.4z M150.1,37.9c-1-1-1.5-1-2.5-1v-1c1,0,2,0.5,2.9,1.5L150.1,37.9z M147.7,36.9c-1,0-2,0.5-2.9,1
		l-0.5-1c1-0.5,2-1,3.4-1V36.9z M144.7,37.9c-0.5,0.5-1,0.5-1.5,1l-0.5-0.5c0.5-0.5,1-1,1.5-1.5L144.7,37.9z M143.3,38.9L143.3,38.9
		L143.3,38.9L143.3,38.9z M143.3,38.9L143.3,38.9l-0.5-0.5l0,0L143.3,38.9z M143.3,38.9c0,0,0,0,0,0.5l-0.5-0.5c0-0.5,0-0.5,0-0.5
		L143.3,38.9z M143.3,39.4c0,0,0,0-0.5,0l-0.5-0.5c0,0,0,0,0.5,0L143.3,39.4z M142.8,39.4c0,0.5-0.5,1-0.5,2l-1-0.5
		c0-0.5,0.5-1.5,1-2L142.8,39.4z M142.3,41.4L142.3,41.4h-0.5H142.3z M142.3,41.4c-1,1.5-2,2.5-2.9,3.9l-0.5-1c1-1,2-2,2.5-3.4
		L142.3,41.4z M139.3,45.3c-1,1-2,2-2.5,3.4l-1-0.5c0.5-1.5,1.5-2.5,2.9-3.9L139.3,45.3z M135.9,48.2L135.9,48.2l0.5,0.5L135.9,48.2
		z M136.9,48.7c-0.5,2-0.5,3.4,0,5.4l-1,0.5c0-2-0.5-3.9,0-6.4L136.9,48.7z M136.9,54.2c0,1,0.5,2,0.5,2.5l-1,0.5c0-1,0-2-0.5-2.5
		L136.9,54.2z M136.9,57.1h-0.5l0,0l0.5-0.5V57.1z M136.9,56.6c1.5,0.5,2.5,0.5,3.4,0.5v1c-1,0-2.5-0.5-3.4-1V56.6z M140.3,57.1
		c1.5,0,2.9,0.5,4.9,1.5l-0.5,0.5c-1.5-1-2.9-1-4.4-1V57.1z"/>
	<path class="st6" d="M139.8,82.2c2-2,5.9-2,6.9-5.4c0-1,0-3,0.5-3.9c1-3.4,2-5.9,2-5.9c0-1-0.5-4.4-1.5-4.9
		c-3.4-2.5-5.9-2.5-10.3-3c-2,0-2.9-1.5-3.4-2c-0.5,0-1,0.5-1.5,0.5c-0.5,0.5-1,0.5-1.5,1c-1,1.5-2,2.5-2.9,3.9
		c-0.5,1.5-0.5,3-1,4.4c0,0.5-0.5,1.5-0.5,2c-0.5,2.5,1,4.9,1,7.4c0,0.5,0.5,1,1,1.5c2,1,3.9,0.5,5.9,1.5
		C136.4,79.7,137.9,81.7,139.8,82.2c0,0.5,1,5.9,0.5,6.9s-0.5,1.5-0.5,1.5c0.5,2,0,3.4,0,3.4c0,1.5-1,2.5-1.5,3.9
		c-1,3.4-2.5,4.9-4.9,4.9c-3.4,0-6.9-2-7.9-3s-2-2-2.9-3.4c-0.5-0.5,0-1.5-0.5-2c-0.5-1.5,1-4.4,1.5-6.4c0.5-1.5-1-3.9,1.5-9.3
		c0.5-1,1.5-1.5,2.9-1.5L139.8,82.2z"/>
	<path class="st7" d="M139.3,81.7L139.3,81.7l0.5,0.5l0,0L139.3,81.7z M139.3,81.7L139.3,81.7l0.5,0.5L139.3,81.7z M139.3,81.7
		c1-0.5,2-1,2.5-1.5l0.5,1c-1,0.5-1.5,0.5-2.5,1L139.3,81.7z M141.8,80.2c2-0.5,3.9-1.5,4.4-3.4h1c-1,3-2.9,3.4-4.9,4.4L141.8,80.2z
		 M147.2,76.8L147.2,76.8h-0.5H147.2z M146.2,76.8L146.2,76.8h1l0,0H146.2z M147.2,76.8L147.2,76.8h-0.5H147.2z M146.2,76.8
		c0-0.5,0-1.5,0-2h1c0,1,0,1.5,0,2H146.2z M146.2,74.8c0.5-0.5,0.5-1.5,0.5-2h1c-0.5,0.5-0.5,1.5-0.5,2H146.2z M147.7,72.8
		L147.7,72.8h-0.5H147.7z M146.7,72.8c1-2.5,1.5-4.4,1.5-5.4h1c0,1-1,3.4-1.5,5.4H146.7z M148.2,67.4l0.5-0.5h0.5c0,0.5,0,0.5,0,0.5
		H148.2z M148.7,66.9L148.7,66.9L148.7,66.9L148.7,66.9z M148.7,66.9c0-0.5,1,0.5,0.5,0.5l-0.5-1c0.5,0,1,0,0.5,0.5H148.7z
		 M148.7,66.5L148.7,66.5L148.7,66.5l0.5,0.5L148.7,66.5z M149.2,67.4L149.2,67.4l-0.5-1l0,0L149.2,67.4z M149.2,67.4l-1,0.5l0.5-1
		h0.5V67.4z M148.7,66.9L148.7,66.9h0.5l0,0H148.7z M149.2,66.9L149.2,66.9L149.2,66.9L149.2,66.9z M148.7,66.9c0-0.5,0-0.5,0-0.5h1
		l-0.5,0.5H148.7z M148.7,66.5c0-0.5,0-0.5,0-1h0.5c0.5,0.5,0.5,0.5,0.5,1H148.7z M149.2,65.5L149.2,65.5L149.2,65.5L149.2,65.5z
		 M148.7,65.5c-0.5-1-0.5-3-1-3l0.5-1c0.5,0.5,1,2.5,1,3.9L148.7,65.5L148.7,65.5z M147.7,62.5c-3.4-2.5-5.9-2.5-9.8-3v-1
		c3.9,0.5,6.9,1,10.3,3L147.7,62.5z M137.9,59.6h-0.5v-1h0.5V59.6z M137.4,59.6L137.4,59.6v-1l0,0V59.6z M137.4,59.6L137.4,59.6
		v-0.5V59.6z M137.4,59.6c0,0-0.5,0-1,0l0.5-1h0.5V59.6z M136.4,59.6c0-0.5-0.5-0.5-0.5-0.5l0.5-1c0,0.5,0,0.5,0.5,0.5L136.4,59.6z
		 M135.9,59.1c-1.5-0.5-2-1.5-2-2h0.5c0,0,1,1,2,1L135.9,59.1z M133.9,56.6h0.5v0.5h-0.5V56.6z M134.4,57.6c-0.5,0-1,0-1,0l-0.5-0.5
		c0.5,0,0.5-0.5,1-0.5L134.4,57.6z M133.4,57.6c-0.5,0.5-0.5,0.5-0.5,0.5l-0.5-0.5c0-0.5,0.5-0.5,0.5-0.5L133.4,57.6z M132.9,58.1
		L132.9,58.1l-0.5-0.5L132.9,58.1z M132.9,58.1c-0.5,0-0.5,0.5-1,0.5v-1c0,0,0,0,0.5,0L132.9,58.1z M132,58.6c0,0-0.5,0-0.5,0.5
		l-0.5-0.5c0-0.5,0.5-0.5,1-1V58.6z M131.5,59.1L131.5,59.1l-0.5-0.5L131.5,59.1z M131.5,59.1c-0.5,0.5-1,1-1.5,2l-1-0.5
		c1-1,1.5-1.5,2-2L131.5,59.1z M130,61c-0.5,0.5-1,1-1.5,2l-0.5-0.5c0-1,0.5-1.5,1-2L130,61z M128,62.5L128,62.5L128,62.5L128,62.5z
		 M128.5,63L128.5,63l-0.5-0.5l0,0L128.5,63z M127.5,62.5h0.5l0,0H127.5z M128.5,63c-0.5,0.5-0.5,1.5-0.5,3l-1-0.5c0-1,0-2,0.5-3
		L128.5,63z M128,66c0,0-0.5,0.5-0.5,1H127c0-0.5,0-1,0-1.5L128,66z M127.5,66.9L127.5,66.9H127H127.5z M127.5,66.9L127.5,66.9H127
		l0,0H127.5z M127.5,66.9L127.5,66.9H127H127.5z M127.5,66.9c0,0.5,0,1,0,1h-1c0-0.5,0-1,0.5-1H127.5z M127.5,67.9
		c-0.5,0.5-0.5,1-0.5,1h-1c0-0.5,0.5-1,0.5-1H127.5z M126.1,68.9L126.1,68.9h0.5H126.1z M127,68.9c-0.5,1.5,0,3,0.5,4.4h-1
		c-0.5-1.5-0.5-3-0.5-4.4H127z M127.5,73.3c0,1,0.5,2,0.5,3h-1c0-1,0-2-0.5-3H127.5z M127,76.3L127,76.3h0.5H127z M128,76.3
		L128,76.3h-1l0,0H128z M127,76.3L127,76.3h0.5H127z M128,76.3L128,76.3l-0.5,0.5c0,0,0-0.5-0.5-0.5H128z M128,76.3v0.5h-0.5l0,0
		L128,76.3z M128,76.8L128,76.8L128,76.8L128,76.8z M128,76.8c0.5,0,0.5,0.5,1,0.5l-0.5,1c-0.5-0.5-1-1-1-1.5H128z M129,77.3
		c1,0.5,2,1,2.9,1v1c-1.5-0.5-2.5-0.5-3.4-1L129,77.3z M132,78.3c1,0,2,0,2.9,0.5l-0.5,1c-1-0.5-1.5-0.5-2.5-0.5v-1H132z
		 M134.4,79.7L134.4,79.7v-0.5V79.7z M134.9,78.8c0.5,0.5,1.5,1,2,1.5l-0.5,0.5c-0.5-0.5-1.5-1-2-1L134.9,78.8z M136.9,80.2
		c1,0.5,2,1,2.9,1.5v0.5c-1.5,0-2.5-0.5-3.4-1.5L136.9,80.2z M139.8,81.7h0.5v0.5h-0.5V81.7z M140.3,82.2L140.3,82.2h-1l0,0H140.3z
		 M140.3,82.2c0,0,0,0.5,0,1.5h-1c0-1,0-1.5,0-1.5H140.3z M140.3,83.7c0.5,2,1,4.9,0,5.4l-0.5-0.5c0.5-0.5,0-3-0.5-4.9H140.3z
		 M139.8,89.1v-0.5l0,0l0.5,0.5H139.8z M140.3,89.1c0,0.5,0,1,0,1.5l-1-0.5c0,0,0.5-0.5,0.5-1H140.3z M140.3,90.6L140.3,90.6h-1
		c0,0,0,0,0-0.5L140.3,90.6z M139.3,90.6L139.3,90.6L139.3,90.6h0.5H139.3z M140.3,90.6L140.3,90.6h-1l0,0H140.3z M140.3,90.6
		c0,0,0,0.5,0,1h-0.5c0-0.5-0.5-0.5-0.5-1H140.3z M140.3,91.5V92h-0.5v-0.5H140.3z M140.3,92c0.5,1.5,0,2,0,2.5l-0.5-1
		c0,0,0-0.5,0-1.5H140.3z M139.3,94l0.5-0.5l0,0V94H139.3z M140.3,94c0,1-0.5,1.5-0.5,2.5l-1-0.5c0.5-0.5,0.5-1.5,0.5-2H140.3z
		 M139.8,96.5c-0.5,0.5-0.5,1-1,1.5h-0.5c0-0.5,0-1.5,0.5-2L139.8,96.5z M138.8,97.9L138.8,97.9h-0.5H138.8z M138.8,97.9
		c-0.5,2-1,3.4-2,3.9l-0.5-0.5c0.5-0.5,1.5-2,2-3.4H138.8z M136.9,101.9c-1,1-2,1.5-3.4,1.5v-1c1,0,2,0,2.9-1L136.9,101.9z
		 M133.4,103.4L133.4,103.4v-1l0,0V103.4z M133.4,103.4c-1,0-2,0-2.5-0.5v-0.5c1,0,2,0,2.5,0V103.4z M131,102.9c-0.5,0-1,0-1.5,0
		l0.5-1c0,0,0.5,0,1,0.5V102.9z M129.5,102.9c-2-1-3.4-2-4.4-3l0.5-0.5c1,0.5,2.5,1.5,4.4,2.5L129.5,102.9z M125.1,99.9L125.1,99.9
		h0.5H125.1z M125.1,99.9L125.1,99.9l0.5-0.5l0,0L125.1,99.9z M125.1,99.9L125.1,99.9h0.5H125.1z M125.1,99.9c0,0-0.5,0-0.5-0.5
		l0.5-0.5c0.5,0,0.5,0.5,0.5,0.5L125.1,99.9z M124.6,99.4c-0.5-0.5-1.5-1.5-2.5-2.5l1-0.5c0.5,1,1.5,2,2,2.5L124.6,99.4z M122.1,97
		L122.1,97l0.5-0.5L122.1,97z M122.1,97c0-0.5,0-1,0-1.5h0.5c0,0,0,0.5,0.5,1L122.1,97z M122.1,95.5L122.1,95.5h0.5H122.1z
		 M122.1,95.5c0-0.5,0-0.5,0-1h0.5c0,0.5,0,0.5,0,1H122.1z M122.6,94.5L122.6,94.5h-0.5H122.6z M122.1,94.5L122.1,94.5h0.5l0,0
		H122.1z M122.1,94.5L122.1,94.5L122.1,94.5L122.1,94.5z M122.1,94.5c-0.5-1.5,0-3.9,0.5-5.9l1,0.5c-0.5,1.5-1,3.9-1,5.4H122.1z
		 M122.6,88.6c0.5,0,0.5-0.5,0.5-0.5h1c-0.5,0.5-0.5,1-0.5,1L122.6,88.6z M124.1,88.1L124.1,88.1h-0.5H124.1z M123.1,88.1
		c0-0.5,0-1,0-1.5h1c0,0.5,0,1,0,1.5H123.1z M123.1,86.6c0-2,0-4.4,1.5-7.9l1,0.5c-2,3.4-1.5,5.4-1.5,7.4H123.1z M124.6,78.8
		L124.6,78.8h0.5H124.6z M124.6,78.8L124.6,78.8l1,0.5l0,0L124.6,78.8z M125.6,79.2L125.6,79.2l-0.5-0.5L125.6,79.2z M124.6,78.8
		l0.5-0.5l0.5,0.5c0,0,0,0,0,0.5L124.6,78.8z M125.1,78.3c0,0,0-0.5,0.5-0.5l0.5,0.5c0,0.5-0.5,0.5-0.5,0.5L125.1,78.3z M125.6,77.8
		c0.5-0.5,1.5-1,2.5-1v0.5c-1,0-1.5,0.5-2,1L125.6,77.8z"/>
	<path class="st6" d="M129,77.8c1.5,1,3.4,1,4.9,1.5c1,0.5,2.5,1.5,3.4,2c0.5,0,1.5,0.5,2,0.5L129,77.8z"/>
	<path class="st7" d="M129,77.3c1,0.5,2,1,2.9,1v1c-1-0.5-2.5-0.5-3.4-1L129,77.3z M132,78.3c1,0,1.5,0.5,2.5,0.5l-0.5,1
		c-0.5-0.5-1.5-0.5-2-0.5V78.3z M133.9,79.7L133.9,79.7v-0.5V79.7z M134.4,78.8c0.5,0.5,1,0.5,1.5,1l-0.5,1c-0.5-0.5-1-1-1.5-1
		L134.4,78.8z M135.9,79.7c0.5,0.5,1,0.5,1.5,1v0.5c-1,0-1.5-0.5-2-0.5L135.9,79.7z M137.4,81.2L137.4,81.2L137.4,81.2L137.4,81.2z
		 M137.4,80.7c0.5,0,0.5,0,1,0l-0.5,1c0,0-0.5,0-0.5-0.5V80.7z M138.3,80.7c0.5,0.5,1,0.5,1,0.5v1c-0.5,0-1-0.5-1.5-0.5L138.3,80.7z
		"/>
	<path class="st9" d="M138.3,79.2c2-1.5,5.4-2,5.9-5.4c0.5-3,0.5-5.4,1.5-8.4c0.5-1.5-0.5-3-1.5-3c-2,0-3.9-1-5.9-1.5
		c-1.5,0-3.4-1-4.4,0s0,3.4-1,4.4c-0.5,1-2,1.5-2,2.5c0.5,3-0.5,5.4,0.5,7.9c1,2,3.4,1.5,4.9,3c0,0.5,0.5,0.5,1,0.5H138.3z"/>
	<path class="st8" d="M138.3,78.8L138.3,78.8l0.5,0.5l0,0L138.3,78.8z M138.8,79.2L138.8,79.2h-0.5H138.8z M138.3,78.8
		c0.5-0.5,1.5-1,2-1l0.5,0.5c-1,0.5-1.5,0.5-2,1L138.3,78.8z M140.3,77.8c1.5-1,2.9-2,3.4-3.9h1c-0.5,3-2.5,3.4-3.9,4.4L140.3,77.8z
		 M143.8,73.8c0-0.5,0-1.5,0-2h1c0,1,0,1.5,0,2H143.8z M143.8,71.9c0.5-2.5,1-4.4,1.5-6.4h1c-1,2.5-1,4.4-1.5,6.4H143.8z
		 M145.2,65.5L145.2,65.5h0.5H145.2z M145.2,65.5c0.5-0.5,0.5-0.5,0.5-0.5h0.5v0.5H145.2z M145.7,65c0-0.5,0-1-0.5-1l0.5-0.5
		c0.5,0.5,1,1,0.5,1.5H145.7z M145.2,64c0-0.5-0.5-0.5-1-1l0.5-0.5c0.5,0,1,0.5,1,1L145.2,64z M144.2,63L144.2,63v-1l0.5,0.5
		L144.2,63z M144.2,63L144.2,63v-0.5V63z M144.2,63c-1.5,0-2.5-0.5-3.9-1l0.5-0.5c1,0,2,0.5,3.4,0.5V63z M140.3,62
		c-0.5,0-1.5-0.5-2-0.5v-1c1,0.5,1.5,0.5,2.5,1L140.3,62z M138.3,61.5L138.3,61.5V61V61.5z M138.3,61.5L138.3,61.5v-1l0,0V61.5z
		 M138.3,60.5L138.3,60.5V61V60.5z M138.3,61.5c-0.5,0-0.5,0-0.5,0v-1c0.5,0,0.5,0,0.5,0V61.5z M137.9,61.5c-1-0.5-2.9-1-3.4,0
		l-1-0.5c1.5-1.5,3.4-0.5,4.4-0.5V61.5z M133.4,61L133.4,61h0.5H133.4z M134.4,61.5c-0.5,0.5-0.5,1-0.5,2h-1c0-1,0-2,0.5-2.5
		L134.4,61.5z M133.9,63.5c0,0.5,0,1.5-0.5,2h-1c0.5-0.5,0.5-1.5,0.5-2H133.9z M132.4,65.5L132.4,65.5h0.5H132.4z M133.4,65.5
		L133.4,65.5h-1l0,0H133.4z M133.4,65.5L133.4,65.5h-0.5H133.4z M133.4,65.5c-0.5,0.5-1,1-1,1.5l-1-1c0.5,0,1-0.5,1-0.5H133.4z
		 M132.4,66.9c-0.5,0.5-1,0.5-1,1l-1,0.5c0-1,0.5-1.5,1-2.5L132.4,66.9z M130.5,68.4L130.5,68.4l0.5-0.5L130.5,68.4z M131.5,67.9
		L131.5,67.9l-1,0.5l0,0L131.5,67.9z M131.5,67.9L131.5,67.9l-0.5,0.5L131.5,67.9z M131.5,67.9c0,1,0,2,0,3h-1c0-1,0-2,0-2.5
		L131.5,67.9z M131.5,70.9c0,1.5,0,3.4,0.5,4.4l-1,0.5c-0.5-1.5-0.5-3-0.5-4.9H131.5z M132,75.3L132,75.3l-0.5,0.5L132,75.3z
		 M132,75.3c0.5,1,1.5,1.5,2.5,1.5l-0.5,1c-1-0.5-2-0.5-2.9-2L132,75.3z M134.4,76.8L134.4,76.8l-0.5,0.5L134.4,76.8z M134.4,76.8
		c0.5,0.5,1.5,1,2.5,2l-1,0.5c-0.5-1-1-1-2-1.5L134.4,76.8z M135.9,79.2L135.9,79.2l0.5-0.5L135.9,79.2z M136.9,78.8L136.9,78.8v0.5
		c0,0.5-0.5,0.5-1,0L136.9,78.8z M136.9,78.8h0.5v0.5c0,0,0,0-0.5,0V78.8z"/>
	<path class="st9" d="M127,98.9c1,1.5,2.9,2,3.9,0.5c1.5-1,2-2.5,3.9-3.9c2-1,2-4.4,1.5-6.9c0.5-0.5,0.5-1,0.5-1c0-2.5,0-4.4-1-5.9
		c-1.5-2.5-4.9-1-6.9-2.5c-0.5-0.5-1,0-1.5,0.5c-1,2-2,3.9-2,6.4c0,3.4-1.5,6.9-1,10.3c0.5,1,1,2,2,2.5H127z"/>
	<path class="st8" d="M127,98.9L127,98.9l-0.5,0.5l0,0L127,98.9z M126.5,99.4L126.5,99.4l0.5-0.5L126.5,99.4z M127,98.9
		c0.5,0,0.5,0,0.5,0.5v0.5c-0.5,0-0.5-0.5-1-0.5L127,98.9z M127.5,99.4c0.5,0,0.5,0,1,0l-0.5,1c-0.5,0-0.5-0.5-0.5-0.5V99.4z
		 M128.5,99.4c1,0.5,2,0.5,2.5,0l0.5,0.5c-1,1-2.5,1-3.4,0.5L128.5,99.4z M131.5,99.9L131.5,99.9l-0.5-0.5L131.5,99.9z M131,99.4
		c0-0.5,0.5-0.5,0.5-1l1,0.5c-0.5,0.5-0.5,0.5-1,1L131,99.4z M131.5,98.4c1-1,1.5-2,3.4-3l0.5,0.5c-1.5,1-2.5,2-2.9,3L131.5,98.4z
		 M134.9,95.5L134.9,95.5L134.9,95.5L134.9,95.5z M134.9,95.5V95l0.5,1l0,0L134.9,95.5z M135.4,96L135.4,96l-0.5-0.5L135.4,96z
		 M134.9,95c0,0,0.5,0,0.5-0.5l0.5,1l-0.5,0.5L134.9,95z M135.4,94.5c0,0,0.5,0,0.5-0.5l1,0.5c-0.5,0-0.5,0.5-1,1L135.4,94.5z
		 M135.9,94c0.5-1.5,0.5-3.4,0-5.4l1-0.5c0.5,2,0.5,4.4,0,6.4L135.9,94z M135.9,88.6v-0.5h0.5v0.5H135.9z M136.4,88.1v-0.5h0.5
		c0,0.5,0,1-0.5,1V88.1z M136.9,87.6L136.9,87.6L136.9,87.6L136.9,87.6z M136.4,87.6c0,0,0,0,0-0.5l1,0.5h-0.5H136.4z M137.4,87.6
		L137.4,87.6L137.4,87.6h-0.5H137.4z M136.4,87.6v-0.5l1,0.5l0,0H136.4z M136.4,87.1v-0.5h1c0,0,0,0.5,0,1L136.4,87.1z M136.4,86.6
		c0-0.5,0-0.5,0-1h1c0,0.5,0,0.5,0,1H136.4z M136.4,85.6c0-1.5-0.5-3-1-3.4l1-0.5c0.5,1,1,2.5,1,3.9H136.4z M135.4,82.2v-0.5h0.5
		L135.4,82.2z M135.4,81.7c-0.5-1-2-1-3.4-1v-1c2,0,3.4,0.5,4.4,2H135.4z M132,80.7c-1-0.5-2.5-0.5-3.4-1l0.5-1c1,0.5,2,1,2.9,1
		V80.7z M128.5,79.7L128.5,79.7l0.5-0.5L128.5,79.7z M128.5,79.7C128.5,79.2,128.5,79.2,128.5,79.7l-1-0.5c0.5-1,1-1,1.5-0.5
		L128.5,79.7z M128.5,79.7H128l-0.5-0.5l0,0L128.5,79.7z M128,79.7L128,79.7l-0.5-0.5l0,0L128,79.7z M127.5,79.2L127.5,79.2v0.5
		V79.2z M128,79.7L128,79.7l-0.5-0.5l0,0L128,79.7z M128,79.7c0,0.5-0.5,0.5-0.5,1l-0.5-0.5c0,0,0-0.5,0.5-1L128,79.7z M127.5,80.7
		c0,0-0.5,0.5-0.5,1l-0.5-0.5c0-0.5,0-0.5,0.5-1L127.5,80.7z M127,81.7c-0.5,1-1,2.5-1,4.4h-1c0-2,0.5-3.4,1.5-4.9L127,81.7z
		 M125.1,86.1L125.1,86.1h0.5H125.1z M126.1,86.1c0,1.5-0.5,2.5-0.5,3.9h-1c0-1.5,0.5-3,0.5-3.9H126.1z M125.6,90.1
		c-0.5,2-1,3.9-0.5,6.4h-1c-0.5-2.5,0-4.4,0.5-6.4H125.6z M124.1,96.5L124.1,96.5h0.5H124.1z M125.1,96.5L125.1,96.5h-1l0,0H125.1z
		 M124.1,96.5L124.1,96.5h0.5H124.1z M125.1,96.5c0,0,0,0,0,0.5h-1v-0.5H125.1z M125.1,97L125.1,97l-0.5,0.5c0,0,0,0-0.5-0.5H125.1z
		 M125.1,97c0.5,1,1,1.5,1.5,1.5v1c-1-0.5-1.5-1-2-2L125.1,97z"/>
	<path class="st6" d="M132,102.9c0.5,0,0.5,0,0.5,0c0.5,1,1,1.5,0.5,2.5c-0.5,3.4,0.5,5.4,0,7.4c-0.5,3-2.5,3.9-4.4,4.4
		c-3.4,1.5-9.3,0-10.3-2.5c-1-3.4-2-6.4-1-9.8c0.5-1,2.5-3,2.9-3c2-1,3.9-2.5,4.9-2C128,101.9,129,101.9,132,102.9L132,102.9z"/>
	<path class="st7" d="M132.4,102.4L132.4,102.4l-0.5,1l0,0L132.4,102.4z M132,103.4L132,103.4v-0.5V103.4z M132.4,102.4L132.4,102.4
		v1H132L132.4,102.4z M132.4,102.4L132.4,102.4v0.5V102.4z M132.4,102.4c0,0,0,0,0.5,0.5l-0.5,0.5c-0.5,0,0,0,0,0V102.4z
		 M132.9,102.9L132.9,102.9L132.9,102.9h-0.5H132.9z M132.9,102.9c0,0.5,0.5,0.5,0.5,1l-1,0.5c0-0.5,0-1-0.5-1L132.9,102.9z
		 M133.4,103.8c0,0.5,0,1,0,1.5l-0.5-0.5c0,0,0-0.5-0.5-0.5L133.4,103.8z M133.4,105.3L133.4,105.3h-0.5H133.4z M133.4,105.3
		c0,2,0,3.4,0,4.9h-1c0-1.5,0-3,0.5-5.4L133.4,105.3z M133.4,110.2c0,1,0.5,1.5,0,2.5h-0.5c0-1,0-1.5-0.5-2.5H133.4z M132.9,112.7
		L132.9,112.7L132.9,112.7L132.9,112.7z M133.4,112.7L133.4,112.7h-0.5l0,0H133.4z M133.4,112.7c0,0.5,0,1,0,1h-1c0-0.5,0-1,0.5-1
		H133.4z M133.4,113.7c-0.5,0.5-0.5,1-0.5,1h-1c0.5-0.5,0.5-1,0.5-1H133.4z M132.9,114.7c-1,2-2.5,2.5-3.9,3l-0.5-0.5
		c1.5-0.5,2.9-1.5,3.4-2.5H132.9z M129,117.6L129,117.6l-0.5-0.5l0,0L129,117.6z M129,117.6L129,117.6l-0.5-0.5L129,117.6z
		 M129,117.6c-1,0.5-1.5,0.5-2,0.5v-1c0.5,0,1,0,1.5,0L129,117.6z M127,118.1c-0.5,0-1.5,0-2,0v-1c0.5,0,1.5,0,2,0V118.1z
		 M125.1,118.1c-3.4,0-6.9-1.5-7.4-3.4l1-0.5c0.5,2,3.4,3,6.4,3V118.1z M117.7,114.7L117.7,114.7h0.5H117.7z M117.7,114.7
		c-0.5-1.5-1-3.4-1-4.9h0.5c0.5,1.5,0.5,3,1.5,4.4L117.7,114.7z M116.7,109.8c-0.5-1.5,0-3,0.5-4.9l0.5,0.5c-0.5,1.5-0.5,3-0.5,4.4
		H116.7z M117.7,105.3L117.7,105.3l-0.5-0.5L117.7,105.3z M117.2,104.8L117.2,104.8l0.5,0.5l0,0L117.2,104.8z M117.2,104.8
		L117.2,104.8L117.2,104.8L117.2,104.8z M117.2,104.8v-0.5l1,0.5c-0.5,0-0.5,0-0.5,0.5L117.2,104.8z M117.2,104.3l0.5-0.5l0.5,0.5
		c0,0,0,0,0,0.5L117.2,104.3z M117.7,103.8c0.5-1,2-2.5,2.5-2.5v0.5c-0.5,0.5-1,1.5-2,2.5L117.7,103.8z M120.7,101.9h-0.5l0,0H120.7
		z M120.2,101.4L120.2,101.4l0.5,0.5l0,0L120.2,101.4z M120.2,101.4c0.5-0.5,1-0.5,1.5-1l0.5,1c-0.5,0-1,0.5-1.5,0.5L120.2,101.4z
		 M121.6,100.4c1.5-0.5,2.9-1,3.9-1l-0.5,1c-0.5-0.5-1.5,0-2.9,1L121.6,100.4z M125.6,99.4L125.6,99.4L125.6,99.4l-0.5,0.5
		L125.6,99.4z M125.6,99.4c2,2,2.9,2,4.9,2.5v1c-2-0.5-2.9-1-5.4-2.5L125.6,99.4z M130.5,101.9c0.5,0.5,1,0.5,2,0.5l-0.5,1
		c-0.5,0-1-0.5-1.5-0.5V101.9z M132,103.4L132,103.4v-0.5V103.4z"/>
	<path class="st8" d="M125.6,116.1c1.5-0.5,2-2,2.5-3.9l0.5,0.5c-0.5,2-0.5,3.9-2.9,3.9v-0.5H125.6z M128,112.2c0-1.5,0.5-3,1.5-4.4
		l0.5,0.5c-1,1-1,3-1.5,4.4L128,112.2z M129.5,107.8L129.5,107.8l0.5,0.5L129.5,107.8z M129.5,107.8L129.5,107.8h1
		c0,0.5-0.5,0.5-0.5,0.5L129.5,107.8z M129.5,107.8c0-0.5,0-1,0-1l1-0.5c0,0.5,0,1,0,1.5H129.5z M129.5,106.8c0-0.5-0.5-1-0.5-1.5
		l0.5-0.5c0.5,0.5,0.5,1,1,1.5L129.5,106.8z M129,105.3c-0.5,0-0.5,0-0.5,0l0.5-1c0,0.5,0.5,0.5,0.5,0.5L129,105.3z M128.5,105.3
		L128.5,105.3v-0.5V105.3z M128.5,105.3c-2-1-2.9-1-3.9-1v-1c1,0,2.5,0,4.4,1L128.5,105.3z M124.6,104.3c-0.5,0-1,0-2,0l0.5-1
		c0.5,0,1,0,1.5,0V104.3z M122.6,104.3L122.6,104.3l0.5-0.5L122.6,104.3z M122.6,104.3L122.6,104.3l0.5-1l0,0L122.6,104.3z
		 M123.1,103.4L123.1,103.4v0.5V103.4z M122.6,104.3L122.6,104.3v-1c0.5,0,0.5,0,0.5,0L122.6,104.3z M122.6,104.3L122.6,104.3v-1
		l0,0V104.3z M122.6,104.3L122.6,104.3v-0.5V104.3z M122.6,104.3c-0.5,0-1,0-1.5,0.5h-1c1-1.5,2-1.5,2.5-1.5V104.3z M121.1,104.8
		L121.1,104.8h-0.5H121.1z M121.1,104.8L121.1,104.8h-1l0,0H121.1z M120.2,104.8L120.2,104.8h0.5H120.2z M121.1,104.8
		c-1.5,2.5-1,5.9-0.5,8.4h-1c-0.5-2.5-1-6.4,0.5-8.4H121.1z M120.7,113.2c0,0,0,0.5,0,1h-1c0-0.5,0-0.5,0-1H120.7z M120.7,114.2
		L120.7,114.2h-0.5H120.7z M120.7,114.2c0,0,0,0,0,0.5h-0.5l-0.5-0.5H120.7z M120.7,114.7c0.5,0.5,1,1,1.5,1.5l-0.5,0.5
		c-1-0.5-1.5-1-1.5-2H120.7z M122.1,116.1c0.5,0,1.5,0,2.5,0v1c-1.5,0-2,0-2.9-0.5L122.1,116.1z M124.6,116.1c0,0,0.5,0,1,0l0.5,0.5
		c-0.5,0.5-1,0.5-1.5,0.5V116.1z"/>
	<path class="st6" d="M125.1,117.6c1.5,2,2.9,7.9,2,11.3c-1.5,3.9-6.4,7.9-9.3,5.9c-2.9-1.5-7.4-3-6.4-8.4c0.5-1.5,0.5-2.5,2-3.4
		c0.5-0.5,1-2,1.5-2.5c0.5-1,0.5-1,1-2.5s1.5-1.5,2.9-1.5s2.9,0.5,5.4,1h0.9V117.6z"/>
	<path class="st7" d="M125.6,117.6L125.6,117.6l-1,0.5l0,0L125.6,117.6z M124.6,118.1L124.6,118.1l0.5-0.5L124.6,118.1z
		 M125.6,117.6c0,0,0.5,0.5,0.5,1l-1,0.5c0-0.5,0-1-0.5-1L125.6,117.6z M126.1,118.6c0,0.5,0.5,1,0.5,1.5h-0.5c-0.5-0.5-0.5-1-1-1
		L126.1,118.6z M126.5,120.1c1,2.5,2,6.4,1,8.9h-1c1-2.5,0-6.4-0.5-8.9H126.5z M127.5,128.9L127.5,128.9H127H127.5z M127.5,128.9
		c0,0.5-0.5,1-0.5,1.5l-1-0.5c0.5,0,0.5-0.5,0.5-1H127.5z M127,130.4c-1,2-2.5,3.4-3.9,4.4l-0.5-1c1.5-1,2.9-2.5,3.4-3.9L127,130.4z
		 M123.1,134.8c-2,1-3.4,1.5-4.9,1v-1c1.5,0.5,2.9,0,4.4-1L123.1,134.8z M118.2,135.8c-0.5-0.5-0.5-0.5-1-0.5l0.5-0.5
		c0.5,0,0.5,0,0.5,0V135.8z M117.7,134.8L117.7,134.8L117.7,134.8L117.7,134.8z M117.2,135.3L117.2,135.3l0.5-0.5l0,0L117.2,135.3z
		 M117.2,135.3L117.2,135.3l0.5-0.5L117.2,135.3z M117.2,135.3c0,0-0.5-0.5-1-0.5l0.5-1c0.5,0.5,1,0.5,1,1L117.2,135.3z
		 M116.2,134.8c-2.9-1.5-6.4-3-4.9-8.4h0.5c-1,4.9,2.5,6.4,4.9,7.4L116.2,134.8z M111.8,126.5L111.8,126.5h-0.5H111.8z M111.3,126.5
		V126l0.5,0.5l0,0H111.3z M111.3,126c0-1,0.5-2.5,1.5-3.4l0.5,1c-1,0.5-1,1.5-1.5,3L111.3,126z M112.8,122.5L112.8,122.5l0.5,1l0,0
		L112.8,122.5z M113.3,123.5L113.3,123.5V123V123.5z M112.8,122.5c0.5-0.5,1-1,1.5-1.5h0.5c0,1-0.5,1.5-1.5,2.5L112.8,122.5z
		 M114.3,121.1c0-0.5,0-0.5,0-0.5l0.5,0.5l0,0H114.3z M114.8,121.1L114.8,121.1L114.8,121.1v-0.5V121.1z M114.3,120.6
		c0.5-1,0.5-1,1-2l0.5,0.5c0,0.5,0,1-1,2L114.3,120.6z M115.2,118.6c0,0,0,0,0-0.5h1c0,0.5,0,1-0.5,1L115.2,118.6z M116.2,118.1
		L116.2,118.1h-0.5H116.2z M115.2,118.1h0.5h0.5l0,0H115.2z M115.7,118.1L115.7,118.1L115.7,118.1L115.7,118.1z M115.7,118.1
		c0-0.5,0-0.5,0-0.5h1c-0.5,0.5-0.5,0.5-0.5,0.5H115.7z M115.7,117.6L115.7,117.6h0.5H115.7z M115.7,117.6c0-0.5,0.5-0.5,0.5-0.5
		l0.5,0.5l0,0H115.7z M116.2,117.1c0.5-1,1.5-1,2.5-1l-0.5,0.5c-0.5,0-1,0.5-1.5,1L116.2,117.1z M118.2,116.6L118.2,116.6h0.5H118.2
		z M118.7,116.1c1,0,2,0.5,3.4,0.5v1c-1.5-0.5-2.5-0.5-3.9-1L118.7,116.1z M122.1,116.6c1,0.5,1.5,0.5,2,0.5v1c-0.5,0-1.5-0.5-2-0.5
		V116.6z M124.1,118.1L124.1,118.1L124.1,118.1v-0.5V118.1z M124.1,117.1h1v1h-1V117.1z M125.1,117.1h0.5v0.5h-0.5V117.1z"/>
	<path class="st6" d="M117.7,135.3c0.5,3,1.5,6.4,1,8.9s-3.4,6.4-5.9,7.4c-1.5,1-4.9-1-6.4-3.9c-0.5-0.5-0.5-1-0.5-2
		c-1-1-0.5-2.5-1-3.9c0-1.5,0-3,0.5-4.4c0.5-2.5-0.5-4.4-0.5-6.4c1-3.4,3.9-3.4,6.4-3c0,4.4,2.9,5.4,5.9,6.9L117.7,135.3z"/>
	<path class="st7" d="M118.2,135.3L118.2,135.3h-1l0,0H118.2z M117.2,135.3L117.2,135.3h0.5H117.2z M118.2,135.3c0,1,0,2,0.5,3h-1
		c0-1-0.5-2-0.5-3H118.2z M118.7,138.3c0.5,2,1,4.4,0.5,5.9h-1c0.5-1.5,0-3.4-0.5-5.9H118.7z M119.2,144.2L119.2,144.2h-0.5H119.2z
		 M119.2,144.2L119.2,144.2h-1l0,0H119.2z M119.2,144.2c0,0.5,0,1-0.5,1.5l-0.5-0.5c0-0.5,0-0.5,0-1H119.2z M118.7,145.7
		c0,0.5,0,0.5-0.5,1l-0.5-0.5c0,0,0-0.5,0.5-1L118.7,145.7z M118.2,146.7c-1.5,2.5-3.4,4.4-4.9,5.4l-0.5-1c1.5-0.5,3.4-3,4.9-4.9
		L118.2,146.7z M113.3,152.1L113.3,152.1l-0.5-1l0,0L113.3,152.1z M113.3,152.1L113.3,152.1l-0.5-0.5L113.3,152.1z M113.3,152.1
		c-0.5,0-1,0-1,0v-1h0.5L113.3,152.1z M112.3,152.1c-0.5,0-1,0-1,0v-1c0.5,0,0.5,0,1,0V152.1z M111.3,152.1L111.3,152.1v-0.5V152.1z
		 M111.3,152.1c-2-0.5-3.9-2-5.4-3.9l1-0.5c1,1.5,2.9,3,4.4,3.4V152.1z M106.9,147.6L106.9,147.6h-0.5H106.9z M105.9,148.1
		c0-0.5,0-1,0-1l0.5-0.5c0,0.5,0.5,0.5,0.5,1L105.9,148.1z M105.9,147.1c-0.5-0.5-0.5-1-0.5-1l0.5-0.5c0.5,0.5,0.5,0.5,0.5,1
		L105.9,147.1z M105.4,146.2L105.4,146.2l0.5-0.5L105.4,146.2z M105.4,146.2c-0.5-1-0.5-2-0.5-3h0.5c0,1,0.5,1.5,0.5,2.5
		L105.4,146.2z M104.9,143.2c-0.5-0.5-0.5-1-0.5-1.5h1c0,0.5,0,1,0,1.5H104.9z M104.4,141.7c0-0.5,0-1.5,0-2h1c0,0.5,0,1.5,0,2
		H104.4z M104.4,139.8c0-1,0.5-2,0.5-2.5h1c-0.5,1-0.5,1.5-0.5,2.5H104.4z M104.9,137.3L104.9,137.3h0.5H104.9z M104.9,137.3
		c0.5-1,0-2.5,0-3.4h1c0,1,0,2.5,0,3.4H104.9z M104.9,133.9c-0.5-1-0.5-2,0-3.4l0.5,0.5c0,1,0,2,0.5,3h-1V133.9z M104.9,130.4
		L104.9,130.4v0.5V130.4z M104.9,130.4L104.9,130.4h0.5v0.5L104.9,130.4z M104.9,130.4c0.5-1.5,1.5-2.5,2.5-3v1c-0.5,0-1.5,1-2,2
		H104.9z M107.4,127.5c1-0.5,2.5-0.5,3.4,0v1c-1-0.5-2.5-0.5-3.4,0V127.5z M110.8,127.5h0.5v1c-0.5,0-0.5,0-0.5,0V127.5z
		 M111.3,127.5h0.5v0.5h-0.5V127.5z M111.8,128c0,3.4,2.5,4.9,4.4,5.9v1c-2.9-1.5-5.4-3-5.4-6.9C110.8,128,111.8,128,111.8,128z
		 M116.2,133.9c0.5,0,1,0.5,1.5,0.5l-0.5,1c-0.5-0.5-1-0.5-1-0.5V133.9z M117.7,134.4L117.7,134.4v0.5h-0.5L117.7,134.4z
		 M117.7,134.8v0.5l-0.5,0.5l-0.5-1H117.7z M117.7,135.3h0.5l0,0H117.7L117.7,135.3z"/>
	<path class="st6" d="M98,156c1,0,2,0,3.4,0c1.5,0,2.9-0.5,4.4-1s3.4,0,2.5-4.4c0-1-2-3-2.5-4.4c-0.5-1.5-1-4.4-1-7.9
		c0-0.5-1-2.5-1.5-2.5c-1.5-0.5-3.9-1-5.4,3c-0.5,1,0,3-0.5,4.4c-0.5,3-1.5,5.4-1,8.4C96.6,154,96.6,155,98,156L98,156z"/>
	<path class="st7" d="M98,155.5c1,0,2,0,2.9,0v1c-1.5,0-2,0-3.4,0L98,155.5z M101,155.5h0.5v1H101V155.5z M101.5,156.5L101.5,156.5
		V156V156.5z M101.5,155.5L101.5,155.5v1l0,0V155.5z M101.5,155.5c0.5,0,0.5,0,1,0v1c-0.5,0-0.5,0-1,0V155.5z M102.5,155.5
		c0,0,0,0,0.5,0v1c-0.5,0-0.5,0-0.5,0V155.5z M103,155.5L103,155.5v0.5V155.5z M103,155.5c1,0,2-0.5,2.9-0.5v0.5c-1,0.5-2,0.5-2.9,1
		V155.5z M105.9,155.5L105.9,155.5V155V155.5z M105.9,155L105.9,155v0.5l0,0V155z M105.9,155L105.9,155L105.9,155L105.9,155z
		 M105.9,155c0-0.5,0.5-0.5,1-0.5v1c-0.5,0-0.5,0-1,0V155z M106.9,154.5c1-0.5,2-0.5,1-3.9h1c1,3.9-0.5,4.4-2,4.9V154.5z
		 M107.9,150.6L107.9,150.6h1l0,0H107.9z M108.9,150.6L108.9,150.6h-0.5H108.9z M107.9,150.6c0-0.5-0.5-1-1-1.5l1-1
		c0.5,1,1,1.5,1,2.5H107.9z M106.9,149.1c-0.5-1-1-2-1.5-3h1c0,0.5,0.5,1.5,1.5,2L106.9,149.1z M106.4,146.2L106.4,146.2h-0.5H106.4
		z M105.4,146.2L105.4,146.2h1l0,0H105.4z M105.4,146.2c0,0,0,0,0-0.5h0.5l0.5,0.5H105.4z M105.4,145.7c0-0.5-0.5-0.5-0.5-1h1
		c0,0,0,0.5,0,1H105.4z M104.9,144.7c0-1.5-0.5-3.9-0.5-6.4h1c0,2.5,0,4.9,0.5,6.4H104.9z M104.4,138.3L104.4,138.3h0.5H104.4z
		 M104.4,138.3L104.4,138.3h1l0,0H104.4z M105.4,138.3L105.4,138.3h-0.5H105.4z M104.4,138.3L104.4,138.3l1-0.5c0,0.5,0,0.5,0,0.5
		H104.4z M104.4,138.3v-0.5l1-0.5c0,0.5,0,0.5,0,0.5L104.4,138.3z M104.4,137.8c-0.5-1-1-2-1-2v-0.5c0.5,0,1.5,1,2,2L104.4,137.8z
		 M103.4,135.8L103.4,135.8L103.4,135.8L103.4,135.8z M103.4,135.8c-1,0-2,0-2.9,0v-0.5c1-0.5,2-0.5,2.9,0V135.8z M100.5,135.8
		c-0.5,0.5-1.5,1.5-2,3l-1-0.5c1-2,2-2.5,2.9-3L100.5,135.8L100.5,135.8z M98.5,138.8c0,0.5,0,1.5,0,2.5h-1c0-1,0-2,0-3L98.5,138.8z
		 M98.5,141.2c0,0.5,0,1.5-0.5,2h-0.5c0-0.5,0-1.5,0-2H98.5z M98,143.2c0,1-0.5,2-0.5,3h-1c0.5-1,0.5-2,1-3H98z M97.5,146.2
		c-0.5,2-1,3.9-1,5.4H96c-0.5-2,0-3.4,0.5-5.4H97.5z M96.6,151.6L96.6,151.6L96.6,151.6L96.6,151.6z M96.6,151.6v0.5h-0.5v-0.5H96.6
		z M96.6,152.1c0.5,2,0.5,3,1.5,3.4l-0.5,1c-1.5-1-1.5-2.5-1.5-4.4H96.6z M97.5,156.5L97.5,156.5L97.5,156.5L98,156L97.5,156.5z"/>
	<path class="st6" d="M87.2,157.5c2.9-1,6.4,2,8.4-2c1-3,1-7.4,0.5-10.3c0-2-2-3-2-6.4c-0.5-3.4-4.4-3-5.9-2c-0.5,0-0.5,1.5-1,2
		c0,1.5,0,3-0.5,4.4c-1.5,4.4-3.4,8.9-2,13.3C84.8,157.5,86.2,157.5,87.2,157.5L87.2,157.5z"/>
	<path class="st7" d="M86.7,157L86.7,157l0.5,1l0,0L86.7,157z M86.7,157c1.5-0.5,2.5,0,3.9,0l-0.5,1c-1-0.5-2-0.5-2.9,0L86.7,157z
		 M90.7,157c1.5,0,3.4,0.5,4.4-2l0.5,0.5c-1,3-2.9,2.5-5.4,2.5L90.7,157z M95.1,155L95.1,155l0.5,0.5L95.1,155z M95.1,155L95.1,155
		l0.5,0.5l0,0L95.1,155z M95.6,155.5L95.6,155.5L95.6,155.5L95.6,155.5z M95.1,155c0,0,0-0.5,0.5-1h0.5c0,0.5,0,1-0.5,1.5L95.1,155z
		 M95.6,154c0-0.5,0-1,0-1.5h1c0,0.5-0.5,1-0.5,1.5H95.6z M95.6,152.6c0.5-2.5,0.5-4.9,0-7.4h1c0.5,2.5,0.5,4.9,0,7.4H95.6z
		 M95.6,145.2L95.6,145.2h0.5H95.6z M95.6,145.2c0-0.5-0.5-1.5-0.5-2l0.5-0.5c0.5,1,1,1.5,1,2.5H95.6z M95.1,143.2
		c-1-1-1.5-2-1.5-4.4h1c0,2,0.5,3,1,3.9L95.1,143.2z M93.6,138.8L93.6,138.8h0.5H93.6z M93.6,138.8c0-0.5-0.5-1-0.5-1.5l0.5-0.5
		c0.5,0.5,0.5,1.5,1,2H93.6z M93.1,137.3c-0.5,0-1-0.5-1-0.5v-1c0.5,0.5,1,0.5,1.5,1L93.1,137.3z M92.1,136.8c-0.5-0.5-1-0.5-2-0.5
		v-0.5c1,0,1.5,0,2,0V136.8z M90.2,136.3c-0.5,0-1.5,0.5-2,1l-0.5-1c1-0.5,1.5-0.5,2.5-0.5V136.3z M88.2,137.3L88.2,137.3v-0.5
		V137.3z M88.2,137.3L88.2,137.3l-0.5-1l0,0L88.2,137.3z M87.7,136.3L87.7,136.3l0.5,0.5L87.7,136.3z M88.2,137.3c0,0-0.5,1-0.5,1.5
		h-0.5c0-1,0-2,0.5-2.5L88.2,137.3z M87.7,138.8L87.7,138.8h-1h0.5H87.7z M86.7,138.8L86.7,138.8h0.5H86.7z M87.7,138.8L87.7,138.8
		h-1l0,0H87.7z M86.7,138.8L86.7,138.8h0.5H86.7z M87.7,138.8c0,0.5,0,1.5,0,2h-1c0-1,0-1.5,0-2H87.7z M87.7,140.7
		c0,1-0.5,2-0.5,2.5h-1c0.5-1,0.5-2,0.5-2.5H87.7z M87.2,143.2L87.2,143.2h-0.5H87.2z M87.2,143.2L87.2,143.2h-1l0,0H87.2z
		 M87.2,143.2L87.2,143.2h-0.5H87.2z M87.2,143.2c0,0.5-0.5,1-0.5,1.5h-1c0.5-0.5,0.5-1,0.5-1.5H87.2z M86.7,144.7
		c-1.5,3.9-2.5,7.9-1.5,11.8l-1,0.5c-1-4.4,0.5-8.4,1.5-12.3H86.7z M84.3,157L84.3,157l0.5-0.5L84.3,157z M85.3,156.5L85.3,156.5
		l-1,0.5l0,0L85.3,156.5z M84.3,157L84.3,157l0.5-0.5L84.3,157z M85.3,156.5c0,0.5,0,0.5,0.5,0.5l-0.5,1c-0.5-0.5-1-0.5-1-1
		L85.3,156.5z M85.3,158L85.3,158l0.5-0.5L85.3,158z M85.7,157c0,0,0.5,0,1,0l0.5,1c-0.5,0-1.5,0-2,0L85.7,157z M87.2,158L87.2,158
		l-0.5-0.5L87.2,158z M86.7,157L86.7,157l0.5,1l0,0L86.7,157z M86.7,157L86.7,157l0.5,0.5L86.7,157z"/>
	<path class="st9" d="M86.7,155.5c2-0.5,4.4,0.5,6.4-1c2-2.5,1-6.4,0-9.3c-0.5-1-2-2-2.9-3c0,0.5-1,0.5-1,1.5c0,0.5,0,1.5,0,2
		c1,2,1.5,3.9,0.5,5.9c-0.5,2.5-2.5,1.5-4.4,2.5v1C85.7,155,86.2,155.5,86.7,155.5L86.7,155.5z"/>
	<path class="st9" d="M99,154c2-1,4.9,0,5.4-2.5c0.5-2,0.5-4.4-0.5-5.9c-0.5-1-2-1.5-2.5-1c-0.5,1,0.5,2,1,3c0,1-1,2-1,2.5
		c-0.5,2.5-2,2-2.9,3.9C98.5,154.5,99,154,99,154L99,154z"/>
	<path class="st10" d="M98.5,144.2c0.5,0.5,0.5-1.5,0.5-1c0-0.5,0.5-1.5,0.5-2c0-1,0.5-1.5,1-2.5c0.5-1.5,1.5-1,2-2
		c-2.5-1.5-3.9,1-3.9,5.9C98.5,142.7,98.5,143.7,98.5,144.2L98.5,144.2z"/>
	<path class="st10" d="M88.7,140.7c0-2.5,2-3,3.4-3.4c-1-1-3.4-0.5-3.9,1c-0.5,0.5-0.5,2,0,2.5h0.5V140.7z"/>
	<path class="st9" d="M109.8,147.6c1,0.5,1.5,1,2,0.5c1.5-1,2.9-3,3.4-4.9c0.5-1.5,0-3.4,0-5.4c-0.5-1.5-1.5-2-2.5-2.5
		c0-0.5-0.5-0.5-0.5-0.5c-1.5-0.5-3.9-0.5-3.9,0.5c2,1.5,4.4,3.9,3.4,6.9c-0.5,1-1,3-2.5,2.5c-3.9-2,0-0.5-2-3.4
		c0-0.5-0.5,0.5-0.5,0.5c0,1.5,0,3.4,0.5,4.9C108.4,147.1,108.9,147.6,109.8,147.6L109.8,147.6z"/>
	<path class="st9" d="M118.2,134.4c1,0,1,0,1.5-0.5c0.5,0,0.5-0.5,1-1c1-1,1.5-3,3.4-3.9c1-1,2-2.5,0.5-4.9c-0.5-0.5,0-1-0.5-1.5
		s-2-1-2-1c-2.5-0.5-1-2-3.4-1.5c-3.4,1-3.9,6.4-2.9,4.9c-1,1-2.5,1-3.4,3.9c0,0.5,0,1.5,0.5,1.5c0,1.5,1,2,2,2.5
		C115.7,133.4,117.2,134.8,118.2,134.4L118.2,134.4z"/>
	<path class="st8" d="M118.2,134.4v-0.5v1l0,0V134.4z M118.2,133.9c0.5,0,0.5,0,1.5,0l0.5,0.5c-1,0.5-1,0.5-2,0.5V133.9z
		 M120.2,134.4L120.2,134.4l-0.5-0.5L120.2,134.4z M119.2,133.9l0.5-0.5l0.5,1l0,0L119.2,133.9z M119.7,133.4l0.5-0.5l1,0.5
		c-0.5,0.5-1,0.5-1,1L119.7,133.4z M121.1,133.4L121.1,133.4l-0.5-0.5L121.1,133.4z M120.2,132.9L120.2,132.9l1,0.5l0,0L120.2,132.9
		z M120.2,132.9L120.2,132.9h0.5H120.2z M120.2,132.9c0.5-0.5,0.5-1,1-1.5l1,0.5c-0.5,0.5-1,1-1,1.5L120.2,132.9z M121.1,131.4
		c0.5-1,1.5-2,2.5-3l0.5,1c-1,0.5-1.5,1.5-2,2.5L121.1,131.4z M123.6,128.4L123.6,128.4l0.5,0.5L123.6,128.4z M123.6,128.4
		L123.6,128.4l0.5,0.5v0.5L123.6,128.4z M124.1,128.9L124.1,128.9L124.1,128.9L124.1,128.9z M123.6,128.4c0.5-0.5,1-1,1-1.5h1
		c0,1-0.5,2-1.5,2L123.6,128.4z M124.6,127c0.5-0.5,0-1.5,0-2.5l0.5-0.5c0.5,1.5,1,2.5,0.5,3H124.6z M124.6,124.5
		c-0.5,0-0.5,0-0.5,0l1-0.5l0,0L124.6,124.5z M124.1,124.5L124.1,124.5l0.5-0.5L124.1,124.5z M124.1,124.5L124.1,124.5l1-0.5l0,0
		L124.1,124.5z M124.1,124.5L124.1,124.5l0.5-0.5L124.1,124.5z M124.1,124.5c0-0.5,0-1,0-1l0.5-0.5c0,0.5,0.5,1,0.5,1L124.1,124.5z
		 M124.1,123.5c0-0.5,0-0.5-0.5-0.5l1-1c0,0.5,0,1,0,1L124.1,123.5z M123.6,123L123.6,123l0.5-0.5L123.6,123z M123.6,123v-0.5l1-0.5
		v0.5L123.6,123z M124.6,122.1L124.6,122.1l-0.5,0.5L124.6,122.1z M123.6,122.5L123.6,122.5l0.5-0.5h0.5L123.6,122.5z M123.6,122.5
		L123.6,122.5v-1c0.5,0.5,0.5,0.5,0.5,0.5L123.6,122.5z M123.6,122.5c-0.5-0.5-1.5-0.5-2-0.5l0.5-1c0,0,1,0.5,1.5,0.5V122.5z
		 M121.6,122.1L121.6,122.1l0.5-0.5L121.6,122.1z M121.6,122.1c-1-0.5-1-1-1.5-1.5l1-0.5c0,0.5,0,1,1,1L121.6,122.1z M120.2,120.6
		c0,0-0.5-0.5-1.5,0v-1c1.5-0.5,2,0,2.5,0.5L120.2,120.6z M118.7,119.6L118.7,119.6v0.5V119.6z M118.7,120.6c-1.5,0.5-2.5,2-2.9,3.4
		l-0.5-0.5c0-1.5,1.5-3.4,3.4-3.9V120.6z M115.7,124L115.7,124h-0.5H115.7z M115.7,124c0,0.5,0,0.5,0,1h-1c0-0.5,0-1,0.5-1.5
		L115.7,124z M115.7,125C115.7,125,115.2,125,115.7,125l-0.5,0.5c0,0-0.5,0-0.5-0.5H115.7z M115.2,125.5L115.2,125.5L115.2,125.5
		L115.2,125.5z M115.7,125h-0.5l1,0.5c-0.5,0-0.5,0-1,0L115.7,125z M115.2,125l1,0.5l-0.5-0.5H115.2z M116.2,125.5
		c-0.5,0-1,0.5-1,0.5l-0.5-0.5c0-0.5,0.5-0.5,0.5-0.5L116.2,125.5z M115.2,126c-1,0.5-2,1-2.5,3h-1c1-2.5,2-3,2.9-3.4L115.2,126z
		 M111.8,128.9L111.8,128.9h0.5H111.8z M112.8,128.9L112.8,128.9h-1l0,0H112.8z M111.8,128.9L111.8,128.9h0.5H111.8z M112.8,128.9
		v0.5l-1-0.5l0,0H112.8z M112.8,129.4L112.8,129.4h-1c0,0,0,0,0-0.5L112.8,129.4z M112.8,129.4c0,0.5,0,1,0,1l-0.5,0.5
		c-0.5-0.5-0.5-1-0.5-1.5H112.8z M112.8,130.4L112.8,130.4L112.8,130.4L112.8,130.4z M112.8,130.4L112.8,130.4l-0.5,0.5l0,0
		L112.8,130.4z M112.8,130.4l0.5,0.5l-1,0.5c0-0.5,0-0.5,0-0.5L112.8,130.4z M113.3,130.9c0,0,0,0,0,0.5l-0.5,0.5
		c0-0.5-0.5-0.5-0.5-0.5L113.3,130.9z M113.3,131.4c0.5,0.5,1,1,1.5,1v1c-1-0.5-1.5-1-2-1.5L113.3,131.4z M114.8,132.4L114.8,132.4
		v1l0,0V132.4z M114.8,132.4L114.8,132.4v0.5V132.4z M114.8,132.4c0.5,0,1,0.5,1.5,1l-0.5,0.5c-0.5-0.5-1-0.5-1-0.5V132.4z
		 M116.2,133.4c1,0.5,1.5,1,2,1v0.5c-0.5,0-1.5-0.5-2.5-1L116.2,133.4z M118.2,134.4L118.2,134.4L118.2,134.4L118.2,134.4z"/>
	<path class="st1" d="M145.7,55.1c-1-1-2-3-1.5-4.4c0.5-1,1-1.5,1.5-2.5c1-2.5,0.5-4.4,1-6.9c0-0.5,1-1,1.5-1.5l0,0"/>
	<path class="st1" d="M146.2,38.9c0,1,0.5,1.5,0.5,2.5"/>
	<path class="st1" d="M146.2,47.3c0,1,1,0.5,1,1.5"/>
	<path class="st1" d="M145.2,47.8c0,0-0.5,0-1,0c-1,0.5-2-0.5-2.9-1c-1,0-1.5,0.5-2.5,0.5"/>
	<path class="st1" d="M143.8,52.7c-0.5,0.5-1,1-1.5,1"/>
	<path class="st1" d="M135.9,75.8c0-0.5,0.5-1,0.5-1c0.5-1,1.5-2,2-3c1-0.5,1.5-2,2-3c0.5-1.5,1-3.4,0.5-5.4c-0.5,0-2,0-2.5-0.5"/>
	<path class="st1" d="M135.9,74.3c-1,0-1,0.5-1.5,0.5"/>
	<path class="st1" d="M143.3,70.9c-1-1-2-2-2.9-2c-0.5,0-1.5,0-1.5,0c-1.5,0-2.9,0-4.9,0"/>
	<path class="st1" d="M141.3,64.5c0.5-0.5,1-0.5,1.5-0.5"/>
	<path class="st1" d="M137.9,72.4c0.5,0.5,0.5,1.5,1,2"/>
	<path class="st1" d="M126.5,97c1-0.5,2,0,2.5-1s1.5-1.5,2-2.5s0-2.5,0.5-3.4c0-1.5,1.5-1,2-2c0.5-1.5-0.5-3.4-0.5-5.4
		c0-0.5-1-0.5-1.5-1"/>
	<path class="st1" d="M134.4,82.2c-0.5,0-1,0.5-1.5,0.5"/>
	<path class="st1" d="M133.4,88.1c0,0.5,0,1.5,0.5,1.5"/>
	<path class="st1" d="M131.5,89.1c-1,0-2-0.5-2.9-0.5"/>
	<path class="st1" d="M131,93c-0.5,0.5-0.5,1.5-0.5,2"/>
	<path class="st1" d="M128.5,96c0,0.5-1,0.5-0.5,1.5"/>
	<path class="st1" d="M124.1,114.7c-0.5-1.5-1-2.5-0.5-3.9c0.5-2,2.5-2.5,3.9-1.5l0,0"/>
	<path class="st1" d="M126.1,108.3c0,0-0.5-0.5-0.5-1.5"/>
	<path class="st1" d="M123.1,112.2c-0.5-0.5-0.5,0.5-1,0"/>
	<path class="st1" d="M117.2,131.4c-0.5-2,1-3,2-3.4c1-1,2-0.5,2.9,0"/>
	<path class="st1" d="M120.7,127c-0.5-0.5-0.5-1.5-0.5-2"/>
	<path class="st1" d="M117.7,128.9c-0.5,0-1-0.5-2-0.5h-1"/>
	<path class="st11" d="M83.8,121.1c1-0.5,4.9-1.5,4.9-3.4c0-1.5-1-2.5-1-5.4c0.5-0.5-1.5-1-1.5-1c-1,0-1,1.5-2,0.5
		c-0.5-0.5-0.5,1-1,0.5L83.8,121.1z"/>
	<path class="st2" d="M84.3,135.8c-7.9-3-15.2-4.4-23.1-7.4c-1-1-2-2.5-2.5-3.4c-2.9-5.4-3.4-11.3-6.4-16.2c-1.5-3-3.4-5.9-4.4-8.9
		c-1-3.4-1.5-6.4-2.5-9.8c-0.5-2-1.5-3.4-2.5-5.4c-3.4-6.4-2-13.8-3.9-20.2c-2.9-7.9-5.4-15.7-8.8-23.6c-2-4.9-6.9-6.4-9.3-11.3
		c6.4,0,5.4-8.4,6.4-14.8c9.3,10.3,9.8,28.5,10.8,30c4.4,4.9,10.3,20.7,14.7,31c1.5,3.9,1.5,7.9,2.9,11.3c2,3.9,3.9,6.9,6.4,10.3
		c2.9,3.4,3.9,8.9,7.4,11.8c2.9,2.5,12.3-2,15.7,1L84.3,135.8z"/>
	<path class="st3" d="M81.8,130.9c-5.9-4.4-12.8-3.9-18.7-8.9c-1.5-1-2.9-3-3.4-5.4c-0.5-2-0.5-4.9-1.5-6.9
		C51.8,97.5,42,66.9,45.4,69.9c3.4,0.5,5.4,15.3,9.3,22.1c3.4,5.9,6.9,10.8,10.3,16.7c1.5,3,3.9,5.4,5.9,6.9c2.9,2,4.9,5.9,7.9,7.9
		c2.5,1.5,5.4,3,6.4,6.4c0.5,1.5,0,2-1,2.5C83.3,132.4,82.8,131.4,81.8,130.9L81.8,130.9z"/>
	<path class="st4" d="M40,55.6c-2-2-3.9-3.9-4.9-7.4c-1-3.4-1.5-7.9-3.4-11.3c-1.5-2.5-3.9-3.9-5.4-6.4v-1c1-2.5,2.9-3.4,3.4-5.9
		c0-0.5,0.5-1,1-0.5c0.5,0,1.5,0.5,1.5,1.5s0,2.5,0.5,3.4c0,2,2,5.4,2,6.9c1,6.4,1,8.4,3.9,13.8c2.9,6.4,6.4,7.9,6.9,16.2
		c-0.5,0-1,0-1,0C42.5,61.5,42.5,58.1,40,55.6L40,55.6z"/>
	<path class="st5" d="M11,47.3c-1.5-2-2-4.4-2.5-6.4c-1-2.5-2.9-4.4-3.4-6.9c-1-2.5-1-5.4-1.5-7.9c0-0.5-1-4.9-0.5-5.4
		c1-1,2,3.9,3.4,5.4c0.5,1,1.5,3,2.9,3.9c2.5,2,5.4,0.5,8.4,1c0.5,0,1,2,0,2.5c-4.4,2.5-5.9,11.3-5.4,14.3
		C12.5,48.7,11.5,48.2,11,47.3L11,47.3z"/>
	<path class="st6" d="M22.8,60.1c-2.9,1-4.9-1-6.9-3c-1-0.5-2-1.5-2-3.4c0-1,0-2.5-0.5-3.4C12,45.3,12,38.9,15,34.5
		c0.5-1,1.5-1.5,2.5-1.5c3.4-1,6.9-2.5,10.3-0.5c1,0.5,1.5,2.5,2.5,3c1,1.5,3.4,3.4,3.9,5.4c1,4.9,1.5,9.3,1,14.8c0,1-1.5,2.5-2,2.5
		c-5.4-0.5-7.9,1.5-12.3,2.5c-1-0.5-1-0.5-1.5-0.5h3.4V60.1z"/>
	<path class="st7" d="M22.8,60.5c-2.9,1-4.9-1-6.9-2.5l0.5-1c2,2,3.9,3.4,5.9,3L22.8,60.5z M16.4,57.1L16.4,57.1l-0.5,0.5L16.4,57.1
		z M15.9,58.1l-0.5-0.5l0.5-0.5h0.5L15.9,58.1z M15.9,57.1L15.9,57.1L15.9,57.1L15.9,57.1z M15.5,57.6L15.5,57.6l0.5-0.5l0,0
		L15.5,57.6z M15.5,57.6L15.5,57.6l0.5-0.5L15.5,57.6z M15.5,57.6c0,0,0,0-0.5-0.5l1-0.5v0.5L15.5,57.6z M15,57.1c0,0,0,0,0-0.5
		l0.5-0.5c0,0.5,0,0.5,0.5,0.5L15,57.1z M15,56.6c-1-0.5-1.5-1.5-1.5-3h1c0,1,0.5,2,1,2.5L15,56.6z M13.5,53.7c0-0.5,0-1,0-1.5h1
		c0,0.5,0,1,0,1.5H13.5z M13.5,52.2c0-0.5,0-1.5,0-2H14c0.5,0.5,0.5,1,0.5,2H13.5z M13.5,50.2L13.5,50.2L13.5,50.2L13.5,50.2z
		 M13.5,50.2L13.5,50.2H14l0,0H13.5z M13.5,50.2L13.5,50.2L13.5,50.2L13.5,50.2z M13.5,50.2c-0.5-0.5-0.5-1.5-1-2l1-0.5
		c0,1,0.5,1.5,0.5,2.5H13.5z M12.5,48.2c0-1,0-1.5-0.5-2.5h1c0,0.5,0.5,1.5,0.5,2L12.5,48.2z M12,45.8c-0.5-3.9,0-7.9,2.5-11.3
		L15,35c-2,3-2.5,6.9-2,10.8H12z M15,35L15,35v-0.5V35z M14.5,34.5L14.5,34.5L15,35l0,0L14.5,34.5z M15,35L15,35v-0.5V35z
		 M14.5,34.5c0,0,0-0.5,0.5-0.5l0.5,0.5c0,0,0,0.5-0.5,0.5L14.5,34.5z M15,34v-0.5l1,0.5c-0.5,0.5-0.5,0.5-0.5,0.5L15,34z M15,33.5
		c1-0.5,1.5-1,2.5-1v1c-0.5,0-1,0-1.5,0.5L15,33.5z M17.4,33v0.5V33L17.4,33z M17.4,32.5L17.4,32.5V33l0,0V32.5z M17.4,32.5
		L17.4,32.5V33V32.5z M17.4,32.5c0,0,0.5-0.5,1-0.5l0.5,1c-0.5,0-1,0-1.5,0V32.5z M18.4,32c3.4-1,6.4-1.5,9.3,0.5V33
		c-2.9-2-5.9-1-8.8,0L18.4,32z M27.7,33L27.7,33v-0.5V33z M27.7,32.5L27.7,32.5V33l0,0V32.5z M27.7,32.5L27.7,32.5L27.7,32.5
		L27.7,32.5z M27.7,32.5c1,0,1,1,1.5,1.5l-0.5,0.5c-0.5-0.5-1-1-1-1.5V32.5z M29.2,34c0.5,0.5,1,1,1,1.5L29.7,36c-0.5-0.5-1-1-1-1.5
		L29.2,34z M30.2,35.5L30.2,35.5L29.7,36l0,0L30.2,35.5z M30.2,35.5c0.5,0,0.5,0.5,1,0.5l-1,0.5L29.7,36L30.2,35.5z M31.2,35.9
		c1.5,1.5,2.9,3.4,3.4,4.9l-1,0.5c0-2-2-3.4-3.4-4.9L31.2,35.9z M34.6,40.9L34.6,40.9h-0.5H34.6z M34.6,40.9c0.5,2.5,1,4.9,1,7.4
		h-0.5c-0.5-2.5-1-4.9-1.5-6.9L34.6,40.9z M35.6,48.2c0.5,2.5,0.5,4.9,0,7.4h-0.5c0-2.5,0-4.9,0-7.4H35.6z M35.6,55.6L35.6,55.6
		h-0.5H35.6z M35.6,55.6L35.6,55.6h-0.5l0,0H35.6z M35.6,55.6L35.6,55.6h-0.5H35.6z M35.6,55.6v0.5h-1c0.5-0.5,0.5-0.5,0.5-0.5H35.6
		z M35.6,56.1L35.6,56.1h-0.5H35.6z M35.6,56.1c0,0.5,0,0.5-0.5,0.5l-0.5-0.5l0,0H35.6z M35.1,56.6c-0.5,1-1.5,1.5-2,1.5v-0.5
		c0.5,0,1-0.5,1.5-1.5L35.1,56.6z M33.2,58.1L33.2,58.1L33.2,58.1L33.2,58.1z M33.2,58.1c-3.4,0-5.9,1-8.4,1.5v-0.5
		c2.5-1,4.4-1.5,8.4-1.5V58.1z M24.8,59.6c-1,0.5-2.5,1-3.9,1.5v-1c1.5-0.5,2.5-1,3.9-1V59.6z M20.9,61L20.9,61h-0.5l0.5-0.5V61z
		 M20.4,61c-0.5-0.5-0.5-0.5-0.5-0.5v-1c0.5,0,0.5,0,1,0.5L20.4,61z M19.9,60.5c0,0,0,0-0.5,0v-1c0.5,0,0.5,0,0.5,0V60.5z"/>
	<path class="st8" d="M23.3,58.6c-0.5,0-0.5,0-0.5,0l-0.5-0.5l0.5-0.5L23.3,58.6z M22.8,58.6c-0.5,0.5-1,1-2.5-0.5l0.5-1
		c1,1,1,1,1.5,1L22.8,58.6z M20.4,58.1c-2-2-2.5-5.4-2.5-8.4h1c0,3,0,5.9,2,7.4L20.4,58.1z M17.9,49.7c0-0.5,0-1,0-1h1
		c0,0,0,0.5,0,1H17.9z M17.9,48.7L17.9,48.7h0.5H17.9z M17.9,48.7L17.9,48.7l1-0.5v0.5H17.9z M18.9,48.2L18.9,48.2l-0.5,0.5
		L18.9,48.2z M17.9,48.7c0-1.5-0.5-2.5-0.5-3.4h0.5c0.5,0.5,1,2,1,3L17.9,48.7z M17.4,45.3c-0.5-0.5-0.5-1-0.5-1.5h0.5
		c0,0.5,0.5,0.5,0.5,1.5H17.4z M17.4,43.8L17.4,43.8L17.4,43.8L17.4,43.8z M16.9,43.8L16.9,43.8h0.5l0,0H16.9z M16.9,43.8L16.9,43.8
		h0.5H16.9z M16.9,43.8c0-1,0.5-1.5,0.5-2.5l1,0.5c-0.5,0.5-0.5,1.5-1,2H16.9z M17.4,41.4c0,0,0.5-0.5,0.5-1l1,0.5
		c-0.5,0.5-0.5,0.5-0.5,1L17.4,41.4z M18.9,40.9L18.9,40.9h-0.5H18.9z M17.9,40.4L17.9,40.4l1,0.5l0,0L17.9,40.4z M18.9,40.9
		L18.9,40.9h-0.5H18.9z M17.9,40.4c0,0,0-0.5,0-1l1-0.5c0,1,0,1.5,0,2L17.9,40.4z M18.9,38.9L18.9,38.9l-0.5,0.5L18.9,38.9z
		 M17.9,39.4c0-1,0-2,0.5-2.5l0.5,0.5c0,0.5,0,1,0,1.5L17.9,39.4z M18.9,37.4L18.9,37.4h-0.5H18.9z M18.4,36.9c0-0.5,0.5-0.5,0.5-1
		l0.5,1c0,0,0,0.5-0.5,0.5L18.4,36.9z M18.9,35.9c1-0.5,2-1,3.4-1v1c-1,0-2,0-2.9,1L18.9,35.9z M22.3,35c1,0,2,0.5,2.9,1l-0.5,1
		c-1-0.5-2-1-2.5-1v-1H22.3z M25.3,35.9c0.5,0.5,1,1,1.5,1.5l-0.5,0.5c-0.5-0.5-1-0.5-1.5-1L25.3,35.9z M26.8,37.4L26.8,37.4
		L26.8,37.4L26.8,37.4z M26.8,37.4L26.8,37.4l-0.5,0.5l0,0L26.8,37.4z M26.3,37.9L26.3,37.9l0.5-0.5L26.3,37.9z M26.8,37.4h0.5l-1,1
		c0-0.5,0-0.5,0-0.5L26.8,37.4z M27.3,37.4c0,0.5,0,0.5,0,0.5l-0.5,0.5h-0.5L27.3,37.4z M27.3,37.9c0.5,0.5,1,1.5,1,2l-0.5,0.5
		c-0.5-1-0.5-1.5-1-2L27.3,37.9z M27.7,40.4L27.7,40.4h0.5H27.7z M28.2,39.9c0.5,1.5,1.5,2.5,2.5,3.4l-0.5,1c-1-1.5-2-2.5-2.5-3.9
		L28.2,39.9z M30.7,43.3c1.5,1.5,2.5,2.5,2.9,3.9l-1,0.5c-0.5-1.5-1.5-2.5-2.5-3.4L30.7,43.3z M33.6,47.3L33.6,47.3l-0.5,0.5
		L33.6,47.3z M33.6,47.3c0.5,2,0,3.9-0.5,5.9h-1c0.5-2,1-3.9,0.5-5.4L33.6,47.3z M33.2,53.2c-0.5,1-1,2-1,3h-1c0-1,0.5-2,1-3H33.2z
		 M32.2,56.1v0.5l0,0l-0.5-0.5H32.2z M32.2,56.6c-1,0.5-2.5,0.5-3.9,0.5v-0.5c1.5,0,2.5,0,2.9-0.5L32.2,56.6z M28.2,57.1
		c-1.5,0-3.4,0.5-4.9,1.5l-0.5-1c1.5-1,3.4-1,5.4-1V57.1z"/>
	<path class="st6" d="M29.2,81.2c-2.9-0.5-5.9-2-6.9-5.4c0-1.5-0.5-3-0.5-3.9c0-3.4-1.5-2.5-2-4.4c-0.5-2-0.5-4.9,1.5-6.4
		c3.9-2.5,6.9-3,10.8-3.4c2,0,2,0,2.9-1.5c0.5,0.5,1,0.5,1.5,0.5c0.5,0.5,1,1,1.5,1.5c1,1,2,2.5,2.9,3.9c1,1,0.5,2.5,1,4.4
		c0,0.5,0.5,1,0.5,1.5c0.5,3-1,4.9-1,7.9c0,0.5-0.5,1-1,1c-2,1-3.9,1-5.9,1.5C32.7,78.8,31.2,80.7,29.2,81.2c0,0.5-1.5,3.4-0.5,5.4
		c0,1,0,1.5,0,2c-0.5,2-0.5,3,0,4.4c0.5,1.5,2,1.5,1.5,3c0,1.5,2.5,4.9,4.4,5.4c2.9,1,5.9-1,8.8-2.5c1-0.5,2-2,2.5-3s0.5-1.5,0.5-2
		c0.5-2-0.5-4.9-1-6.4s1-4.4-1.5-9.3c-0.5-1-1.5-2-2.9-2L29.2,81.2z"/>
	<path class="st7" d="M29.2,81.7L29.2,81.7v-1l0,0V81.7z M29.2,81.7c-0.5,0-1-0.5-1.5-0.5v-0.5c0.5,0,1,0,1.5,0V81.7z M27.7,81.2
		c-0.5,0-1,0-1,0v-1c0.5,0,1,0,1,0.5V81.2z M26.8,81.2c-2.5-1-3.9-2.5-4.4-5.4h0.5c0.5,2.5,2.5,3.4,3.9,4.4V81.2z M22.3,75.8
		L22.3,75.8L22.3,75.8L22.3,75.8z M22.3,75.8L22.3,75.8h0.5l0,0H22.3z M22.8,75.8L22.8,75.8h-0.5H22.8z M22.3,75.8
		c-0.5,0-0.5-0.5-0.5-0.5h1c0,0,0,0,0,0.5H22.3z M21.8,75.3v-0.5h1c0,0,0,0,0,0.5H21.8z M21.8,74.8c0-1-0.5-2-0.5-3h1c0,1,0,2,0.5,3
		H21.8z M21.4,71.9L21.4,71.9h0.5H21.4z M21.4,71.9c0-2-0.5-2-0.5-2.5l0.5-1c0.5,1,1,1.5,1,3.4L21.4,71.9L21.4,71.9z M20.9,69.4
		c-0.5-0.5-1-1-1.5-2l1-0.5c0,1,0.5,1.5,1,1.5L20.9,69.4z M19.4,67.4L19.4,67.4h0.5H19.4z M19.4,67.4L19.4,67.4l1-0.5l0,0L19.4,67.4
		z M19.4,67.4c0-0.5,0-0.5,0-1h1v0.5L19.4,67.4z M19.4,66.5c0-0.5,0-0.5,0-1h1c0,0,0,0.5,0,1H19.4z M19.4,65.5c0-2,0-3.9,2-4.9
		l0.5,1c-1.5,0.5-2,2.5-1.5,3.9H19.4z M21.8,61.5L21.8,61.5L21.4,61L21.8,61.5z M21.4,60.5c1.5-1,3.4-2,5.4-2.5v1
		c-1.5,0.5-3.4,1-4.9,2.5L21.4,60.5z M26.8,58.1c1.5-0.5,3.4-0.5,5.4-0.5v0.5c-2,0.5-3.9,0.5-5.4,1C26.8,59.1,26.8,58.1,26.8,58.1z
		 M32.2,57.6L32.2,57.6L32.2,57.6L32.2,57.6z M32.2,57.6c0.5,0,0.5-0.5,0.5-0.5v1h-0.5V57.6z M32.7,58.1L32.7,58.1v-0.5V58.1z
		 M32.7,57.1c1,0,1.5,0,2.5-1.5l0.5,0.5c-1,2-1.5,2-2.9,2L32.7,57.1L32.7,57.1z M35.1,55.6v-0.5l0.5,1h-0.5V55.6z M35.6,56.1h0.5v1
		c-0.5-0.5-1-0.5-1.5-1H35.6z M36.1,56.1h0.5l-0.5,1l0,0V56.1z M36.6,56.1L36.6,56.1v0.5V56.1z M36.6,56.1c0.5,0.5,0.5,0.5,0.5,0.5
		l-0.5,0.5c0,0,0,0-0.5,0L36.6,56.1z M37.1,56.6c0.5,0.5,1,0.5,1.5,1l-0.5,0.5c-0.5,0-1-0.5-1.5-1L37.1,56.6z M38.1,58.1L38.1,58.1
		L38.1,58.1L38.1,58.1z M38.6,57.6c0.5,0.5,1,1.5,1.5,2l-0.5,0.5c-0.5-0.5-1-1-1.5-2L38.6,57.6z M40,59.6c0.5,0.5,1,1.5,1.5,2
		l-1,0.5c0-0.5-0.5-1.5-1-2L40,59.6z M40.5,62L40.5,62H41H40.5z M41.5,61.5L41.5,61.5l-1,0.5l0,0L41.5,61.5z M41.5,61.5L41.5,61.5
		L41,62L41.5,61.5z M41.5,61.5C42,62.5,42,64,42,65h-0.5c0-1-0.5-2-1-3L41.5,61.5z M42,65c0.5,0.5,0.5,1,0.5,1l-1,0.5
		c0-0.5,0-1,0-1.5H42z M41.5,66.5L41.5,66.5H42H41.5z M42.5,66L42.5,66l-1,0.5l0,0L42.5,66z M41.5,66.5L41.5,66.5H42H41.5z M42.5,66
		c0,0.5,0,1,0,1L42,67.4c-0.5-0.5-0.5-1-0.5-1L42.5,66z M42.5,66.9c0.5,0.5,0.5,1,0.5,1l-1,0.5c0-0.5,0-1,0-1L42.5,66.9z M43,67.9
		L43,67.9h-0.5H43z M43,67.9c0.5,2,0,3.4-0.5,4.9l-1-0.5c0.5-1.5,1-2.5,0.5-3.9L43,67.9z M42.5,72.8c-0.5,1-0.5,2-0.5,3l-1-0.5
		c0-1,0.5-2,0.5-3L42.5,72.8z M42,75.8L42,75.8h-0.5H42z M42,75.8L42,75.8l-1-0.5l0,0L42,75.8z M42,75.8L42,75.8h-0.5H42z M42,75.8
		c-0.5,0-0.5,0-0.5,0H41c0,0,0,0,0-0.5L42,75.8z M41.5,75.8v0.5L41,75.8l0,0H41.5z M41,75.8L41,75.8L41,75.8L41,75.8z M41.5,76.3
		c0,0.5-0.5,1-1,1L40,76.8c0.5-0.5,0.5-0.5,1-1L41.5,76.3z M40.5,77.3L40.5,77.3v-0.5V77.3z M40.5,77.3c-1,0.5-2,1-3.4,1v-1
		c1,0,2,0,2.9-0.5L40.5,77.3z M37.1,78.3c-1,0-1.5,0-2.5,0.5l-0.5-1c1,0,2-0.5,2.9-0.5L37.1,78.3L37.1,78.3z M34.1,77.8L34.1,77.8
		l0.5,0.5L34.1,77.8z M34.6,78.8L34.6,78.8l-0.5-1l0,0L34.6,78.8z M34.1,77.8L34.1,77.8l0.5,0.5L34.1,77.8z M34.6,78.8
		c-1,0-1.5,0.5-2,1l-0.5-0.5c0.5-0.5,1.5-1,2-1.5L34.6,78.8z M32.7,79.7c-1,1-2,1.5-3.4,2v-1c1-0.5,2-1,2.9-1.5L32.7,79.7z
		 M28.7,81.2v-0.5h0.5v0.5H28.7z M29.7,81.2L29.7,81.2h-1l0,0H29.7z M29.7,81.2L29.7,81.2h-0.5H29.7z M29.7,81.2c0,0,0,0.5-0.5,1
		l-0.5-0.5c0-0.5,0-0.5,0-0.5H29.7z M29.2,82.2c0,1-1,3,0,4.4l-1,0.5c-1-2,0-3.9,0.5-5.4L29.2,82.2z M29.2,86.6L29.2,86.6L29.2,86.6
		h-0.5H29.2z M29.2,86.6c0,0.5,0,0.5,0,0.5l-1,0.5c0-0.5,0-0.5,0-0.5L29.2,86.6z M29.2,87.1c0,0.5,0,1,0,2l-1-0.5c0-0.5,0-0.5,0-1
		L29.2,87.1z M28.2,88.6L28.2,88.6h0.5H28.2z M29.2,89.1c-0.5,0.5-0.5,1.5-0.5,2h-0.5c0-1,0-1.5,0-2.5L29.2,89.1z M28.7,91.1
		c0,0.5,0.5,1,0.5,2h-1c0-0.5,0-1.5,0-2H28.7z M29.2,93L29.2,93h-0.5H29.2z M29.2,93c0,0.5,0.5,0.5,1,1l-1,0.5c0-0.5-0.5-0.5-1-1.5
		H29.2z M30.2,94c0.5,0.5,1,1,0.5,2h-0.5c0-0.5-0.5-1-1-1.5L30.2,94z M30.2,96L30.2,96L30.2,96L30.2,96z M30.7,96L30.7,96h-0.5l0,0
		H30.7z M30.2,96L30.2,96L30.2,96L30.2,96z M30.7,96v0.5h-0.5V96H30.7z M30.7,96.5c0.5,0.5,0.5,0.5,0.5,1h-1c0,0,0-0.5,0-1H30.7z
		 M31.2,97.5c0.5,1.5,2.5,3,3.4,3.4v1c-1.5-0.5-3.4-2.5-4.4-4.4H31.2z M34.6,100.9L34.6,100.9v0.5V100.9z M34.6,100.9
		c2.5,1,5.9-0.5,8.4-2v0.5c-2.5,1.5-5.9,3.4-8.4,2.5V100.9z M43,98.9L43,98.9l0.5,0.5H43V98.9z M43.5,99.4L43.5,99.4v-0.5V99.4z
		 M43,98.9c0.5-0.5,1-1,1.5-1.5l0.5,0.5c-0.5,0.5-1,1-1.5,1.5L43,98.9z M44.5,97.5c0.5-0.5,1-1,1.5-2l0.5,0.5c-0.5,1-1,1.5-1.5,2
		L44.5,97.5z M46.4,96L46.4,96h-0.5H46.4z M45.9,95.5c0,0,0-0.5,0-1h1c0,0.5,0,1-0.5,1.5L45.9,95.5z M45.9,94.5V94h1v0.5H45.9z
		 M45.9,94L45.9,94h0.5H45.9z M45.9,94L45.9,94h1l0,0H45.9z M46.9,94L46.9,94h-0.5H46.9z M45.9,94c0.5-1.5,0-3.9-0.5-5.4l0.5-0.5
		c0.5,2,1.5,4.4,1,5.9H45.9z M45.4,88.6c-0.5-0.5-0.5-0.5-0.5-1h1v0.5L45.4,88.6z M45.9,87.6L45.9,87.6h-0.5H45.9z M44.9,87.6
		c0-0.5,0-1,0-2h1c0,1,0,1.5,0,2H44.9z M44.9,85.6c0-1.5,0-3.9-1.5-7.4l1-0.5c1.5,3.9,1.5,6.4,1.5,7.9H44.9z M44.5,77.8L44.5,77.8
		L44,78.3L44.5,77.8z M43.5,78.3L43.5,78.3l1-0.5l0,0L43.5,78.3z M43.5,78.3c0,0,0,0,0-0.5l0.5-0.5c0,0.5,0,0.5,0.5,0.5L43.5,78.3z
		 M43.5,77.8H43l0.5-0.5c0.5,0,0.5,0,0.5,0L43.5,77.8z M43,77.8c-0.5-0.5-1-1-2-1v-1c1,0,2,0.5,2.5,1.5L43,77.8z"/>
	<path class="st8" d="M30.2,78.3c0,0-2.9-2.5-4.4-3.9l0.5-1c1.5,2,4.4,4.4,4.4,4.4L30.2,78.3z M25.8,74.3c-0.5-0.5-0.5-0.5-0.5-1
		l0.5-0.5l0.5,0.5L25.8,74.3z M25.3,73.3c-0.5,0,0.5-0.5,0-0.5h-0.5c0-0.5,0.5-0.5,1,0L25.3,73.3z M24.8,72.8L24.8,72.8L24.8,72.8
		L24.8,72.8L24.8,72.8z M25.3,72.8L25.3,72.8h-0.5l0,0H25.3z M25.3,72.8l0.5,8.9l-1-8.9l0,0H25.3z M24.8,72.8
		c-0.5-0.5-0.5-1-0.5-1.5h1c0,0.5,0,1,0,1.5H24.8z M24.3,71.4c-0.5-2.5-0.5-4.4-1.5-6.9h1c1,2,1,4.4,1.5,6.9H24.3z M23.8,64.5
		L23.8,64.5h-0.5H23.8z M22.8,64.5V64h1c0,0,0,0,0,0.5H22.8z M22.8,64c0-0.5,0-1.5,0.5-1.5l0.5,0.5c0,0,0,0.5,0,1H22.8z M23.3,62.5
		c0.5-0.5,0.5-1,1-1l0.5,0.5c-0.5,0-0.5,0.5-1,1L23.3,62.5z M24.3,61.5c0.5-0.5,0.5-0.5,0.5-0.5l0.5,1c-0.5,0-0.5,0-0.5,0L24.3,61.5
		z M25.3,62L25.3,62v-0.5V62z M24.8,61c1.5,0,2.9-0.5,3.9-0.5l0.5,0.5c-1.5,0.5-2.9,1-3.9,1L24.8,61z M28.7,60.5
		c0.5-0.5,1.5-0.5,2-0.5l0.5,0.5c-1,0.5-1.5,0.5-2,0.5L28.7,60.5z M31.2,60.5L31.2,60.5V60V60.5z M30.7,60.1l0.5-0.5v1l0,0
		L30.7,60.1z M31.2,59.6c1.5,0,2.5-0.5,3.9,0.5l-0.5,1c-1-1-2-0.5-3.4-0.5C31.2,60.6,31.2,59.6,31.2,59.6z M35.1,60.1L35.1,60.1
		l-0.5,0.5L35.1,60.1z M35.1,60.1c0.5,1,0.5,2,1,2.5l-1,0.5c0-1-0.5-1.5-0.5-2L35.1,60.1z M36.1,62.5c0,1,0.5,1.5,0.5,2L36.1,65
		c-0.5-0.5-0.5-1.5-1-2L36.1,62.5z M36.6,64.5L36.6,64.5h-0.5H36.6z M36.6,64.5L36.6,64.5L36.1,65l0,0L36.6,64.5z M36.1,65L36.1,65
		v-0.5V65z M36.6,64.5c0.5,0.5,0.5,0.5,1,1L37.1,66c-0.5-0.5-1-0.5-1-1L36.6,64.5z M37.6,65.5c0.5,0.5,1,1,1,2h-1
		c0.5-0.5,0-1-0.5-1.5L37.6,65.5z M38.6,67.4L38.6,67.4h-0.5H38.6z M38.6,67.4L38.6,67.4h-1l0,0H38.6z M37.6,67.4L37.6,67.4h0.5
		H37.6z M38.6,67.4c0,1,0,1.5,0,2.5h-1c0-1,0-1.5,0-2.5H38.6z M38.6,69.9c0,2,0,3.4-0.5,4.9h-1c0.5-1.5,0.5-3,0.5-4.9H38.6z
		 M38.1,74.8L38.1,74.8h-0.5H38.1z M38.1,74.8c-1,1.5-2,2-2.9,2v-0.5c0.5-0.5,1.5-1,2-2L38.1,74.8z M35.1,76.8c-1,0.5-1.5,0.5-2,1.5
		l-1-0.5c1-1,2-1.5,2.9-1.5L35.1,76.8L35.1,76.8z M33.2,78.3L33.2,78.3h-0.5H33.2z M33.2,78.3L33.2,78.3l-1-0.5l0,0L33.2,78.3z
		 M33.2,78.3L33.2,78.3h-0.5H33.2z M33.2,78.3c-0.5,0.5-0.5,0.5-1,0.5v-1l0,0L33.2,78.3z M32.2,78.8c0,0,0,0-0.5,0v-1
		c0.5,0,0.5,0,0.5,0V78.8z M31.7,78.8c-0.5,0-1,0-1.5-0.5l0.5-0.5c0,0,0.5,0,1,0V78.8z"/>
	<path class="st9" d="M41.5,98.4c-1,1-2.9,1.5-3.9,0.5c-2-2.5-2.5-3.4-3.9-3.9c-2-1.5-2-4.9-1-7.4c-0.5-0.5-0.5-1-0.5-1
		c0-2,0-4.4,1-5.9c1.5-2,3.9-0.5,6.4-2c0.5-0.5,1.5-0.5,2,0c1,2,2,4.4,2,6.4c0,3.4,1.5,6.9,0.5,10.3c0,1.5-1,2.5-2,3H41.5z"/>
	<path class="st8" d="M42,98.9L42,98.9l-0.5-1l0,0L42,98.9z M41.5,97.9L41.5,97.9v0.5V97.9z M42,98.9c0,0-0.5,0-0.5,0.5l-0.5-1
		c0,0,0.5,0,0.5-0.5L42,98.9z M41.5,99.4c-0.5,0-0.5,0-1,0v-0.5c0-0.5,0-0.5,0.5-0.5L41.5,99.4z M40.5,99.4c-1,0.5-2.5,0.5-3.4-0.5
		l1-0.5c0.5,1,1.5,1,2.5,0.5L40.5,99.4L40.5,99.4z M37.1,98.9L37.1,98.9h0.5H37.1z M37.1,98.9c-0.5-0.5-0.5-1-1-1l0.5-0.5
		c0.5,0,1,0.5,1.5,1L37.1,98.9z M36.1,97.9c-1-1.5-1.5-2-2.5-3l0.5-0.5c1,0.5,1.5,1.5,2.5,3L36.1,97.9z M33.6,95L33.6,95L33.6,95
		L33.6,95z M33.6,95L33.6,95v-0.5h0.5L33.6,95z M33.6,95L33.6,95L33.6,95L33.6,95z M33.6,95c-0.5,0-1-0.5-1-0.5l0.5-0.5
		c0.5,0,0.5,0,1,0.5L33.6,95z M32.7,94.5c-0.5-0.5-0.5-0.5-0.5-1l0.5-0.5c0.5,0.5,0.5,0.5,0.5,1L32.7,94.5z M32.2,93.5
		c-1-2-0.5-3.9,0-6.4l1,0.5c-0.5,2-1,3.9-0.5,5.4L32.2,93.5z M32.7,87.1h0.5v0.5h-0.5V87.1z M32.2,87.6L32.2,87.6l0.5-0.5l0,0
		L32.2,87.6z M32.2,87.6L32.2,87.6h0.5H32.2z M32.2,87.6c-0.5,0-0.5-0.5-0.5-1h1v0.5L32.2,87.6z M32.7,86.6L32.7,86.6h-0.5H32.7z
		 M31.7,86.6L31.7,86.6h1l0,0H31.7z M32.7,86.6L32.7,86.6L32.7,86.6h-0.5H32.7z M31.7,86.6L31.7,86.6h1l0,0H31.7z M31.7,86.6
		c0-0.5,0-0.5,0-1h1c0,0,0,0.5,0,1H31.7z M31.7,85.6c0-0.5,0-0.5,0-1h1c0,0.5,0,0.5,0,1H31.7z M31.7,84.7c0-1.5,0.5-3,1-3.9l1,0.5
		c-1,0.5-1,2-1,3.4H31.7z M32.7,80.7L32.7,80.7h0.5H32.7z M32.7,80.7c1-1.5,2.5-1.5,3.9-1.5v0.5c-1.5,0-2.5,0.5-2.9,1.5L32.7,80.7z
		 M36.6,79.2c0.5-0.5,2-0.5,2.5-1l0.5,0.5c-1,1-2,1-2.9,1L36.6,79.2L36.6,79.2z M39.1,78.3L39.1,78.3l0.5,0.5L39.1,78.3z M39.1,78.3
		L39.1,78.3l0.5,1l0,0L39.1,78.3z M39.1,78.3L39.1,78.3l0.5,0.5L39.1,78.3z M39.1,78.3c0.5,0,1-0.5,1.5-0.5v1c-0.5,0-0.5,0-1,0.5
		L39.1,78.3z M40.5,77.8c0,0,0,0,0,0.5v0.5l0,0V77.8z M40.5,78.3c0.5,0,1,0,1,0.5L41,79.2l-0.5-0.5V78.3z M41.5,78.8L41.5,78.8
		L41.5,78.8L41.5,78.8z M41.5,78.8L41.5,78.8L41,79.2l0,0L41.5,78.8z M41.5,78.8L41.5,78.8L41.5,78.8L41.5,78.8z M41.5,78.8
		c0.5,0.5,0.5,0.5,0.5,1h-0.5L41,79.2L41.5,78.8z M42,79.7c0.5,0,0.5,0.5,0.5,0.5L42,80.7c-0.5,0-0.5-0.5-0.5-1H42z M42.5,80.2
		c1,1.5,1.5,3.4,1.5,4.9h-1c0-1.5-0.5-3-1-4.4L42.5,80.2z M43,85.1L43,85.1h0.5H43z M44,85.1c0,1.5,0,2.5,0.5,3.9h-1
		C43,88,43,86.5,43,85.1H44z M44.5,89.1c0,2,0.5,4.4,0,6.9L44,95.5c0-2,0-3.9-0.5-6.4H44.5z M44.5,96L44.5,96L44,95.5L44.5,96z
		 M44.5,96L44.5,96L44,95.5l0,0L44.5,96z M44.5,96L44.5,96L44,95.5L44.5,96z M44.5,96c0,0,0,0,0,0.5l-1-0.5c0,0,0,0,0.5-0.5L44.5,96
		z M44.5,96.5c0,0,0,0-0.5,0.5l-0.5-0.5V96L44.5,96.5z M44,97c0,0.5-1,1.5-1.5,1.5L42,97.9c0.5-0.5,1-1,1.5-1.5L44,97z"/>
	<path class="st6" d="M36.6,101.9h-0.5c-0.5,0.5-1,1.5-0.5,2.5c0.5,2.5-0.5,4.9-0.5,7.4c0.5,3,2.5,4.4,4.4,4.9c3.9,1,9.8,0,10.8-3
		c-0.5,1.5,1-8.4,1-9.3c-0.5-1-2-3-2.9-3.4c-2-1-3.9-2-4.9-2C40,100.9,39.1,101.4,36.6,101.9L36.6,101.9z"/>
	<path class="st7" d="M36.6,102.4L36.6,102.4v-1l0,0V102.4z M36.6,102.4L36.6,102.4v-0.5V102.4z M36.6,102.4c0,0,0,0-0.5,0v-1h0.5
		V102.4z M36.1,102.4L36.1,102.4l-0.5-1h0.5V102.4z M35.6,101.9v-0.5l0,0l0.5,0.5H35.6z M36.1,101.9L36.1,101.9h-0.5l0,0H36.1z
		 M36.1,101.9c0,0.5,0,0.5,0,0.5l-0.5-0.5l0,0H36.1z M36.1,102.4L36.1,102.4h-1c0,0,0-0.5,0.5-0.5L36.1,102.4z M36.1,102.4
		c0,1-0.5,1.5,0,2h-1c0-0.5,0-1.5,0-2H36.1z M36.1,104.3L36.1,104.3h-0.5H36.1z M36.1,104.3c0,1.5,0,2.5-0.5,3.9l-0.5-0.5
		c0-1,0-2,0-3.4H36.1z M35.6,108.3c0,1,0,2,0,3.4h-0.5c-0.5-1.5-0.5-2.5,0-3.9L35.6,108.3z M35.1,111.7L35.1,111.7L35.1,111.7
		L35.1,111.7z M35.6,111.7L35.6,111.7h-0.5l0,0H35.6z M35.6,111.7c0,0.5,0.5,0.5,0.5,1l-1,0.5c0-0.5,0-1,0-1.5H35.6z M36.1,112.7
		c0,0.5,0,0.5,0.5,1l-1,0.5c0-0.5-0.5-1-0.5-1L36.1,112.7z M36.6,113.7L36.6,113.7h-0.5H36.6z M36.6,113.7c0.5,1.5,2,2,3.4,2.5
		l-0.5,1c-1.5-0.5-2.9-1.5-3.9-3L36.6,113.7z M40,116.1L40,116.1l-0.5,1l0,0L40,116.1z M40,116.1L40,116.1l-0.5,0.5L40,116.1z
		 M40,116.1c0.5,0,1,0,1.5,0.5v0.5c-1,0-1.5,0-2,0L40,116.1z M41.5,116.6c0.5,0,1,0,2,0v1c-1,0-1.5-0.5-2-0.5V116.6z M43.5,116.6
		c2.9,0,5.9-1,6.4-3l1,0.5c-1,2-4.4,3.4-7.4,3.4V116.6z M49.9,113.7l1,0.5l-0.5-0.5H49.9z M50.8,114.2c0,0-0.5,0.5-0.5,0v-0.5
		c0.5,0-0.5,0.5-0.5,0L50.8,114.2z M50.4,114.2L50.4,114.2L50.4,114.2L50.4,114.2z M50.4,114.2c-0.5,0-0.5-1.5,0-3h0.5
		c0,1.5-0.5,2.5-0.5,2.5V114.2z M50.4,111.2c0-2.5,0.5-5.9,0.5-6.9h1c0,0.5-0.5,4.4-1,6.9H50.4z M51.8,104.3L51.8,104.3h-0.5H51.8z
		 M50.8,104.3L50.8,104.3h1l0,0H50.8z M51.8,104.3L51.8,104.3h-0.5H51.8z M50.8,104.3c0,0,0,0,0-0.5h0.5c0,0,0,0,0.5,0.5H50.8z
		 M50.8,103.8c-0.5,0-0.5,0-0.5-0.5l0.5-0.5c0.5,0.5,0.5,0.5,0.5,1H50.8z M50.4,103.4c-0.5-0.5-1.5-1.5-2-2v-0.5c1,0,2,1,2.5,2
		L50.4,103.4z M48.4,101.4L48.4,101.4v-0.5V101.4z M48.4,101.4L48.4,101.4v-0.5l0,0V101.4z M48.4,100.9L48.4,100.9L48.4,100.9
		L48.4,100.9z M48.4,101.4c-1,0-1.5-0.5-2-1l0.5-0.5c0.5,0,1,0.5,1.5,1V101.4z M46.4,100.4c-1-0.5-2.5-1-2.9-1l-0.5-1
		c1,0,2.5,0.5,3.9,1.5L46.4,100.4z M43,98.4L43,98.4L43,98.4l0.5,0.5L43,98.4z M43.5,99.4L43,99.9l-0.5-1l0.5-0.5L43.5,99.4z
		 M43,99.9c-2.9,1.5-3.9,2-6.4,2.5v-1c2-0.5,3.4-1,5.9-2.5L43,99.9z M36.6,101.4L36.6,101.4v0.5V101.4z"/>
	<path class="st8" d="M42.5,116.1c-2-0.5-2.5-2.5-2.5-4.4h0.5c0.5,1.5,1,3.4,2,3.4V116.1z M40,111.7c-0.5-1.5-0.5-3-1.5-3.9l0.5-1
		c1,1.5,1.5,3,1.5,4.9H40z M38.6,107.8L38.6,107.8v-0.5V107.8z M38.6,107.8c0-0.5-0.5-0.5-0.5-0.5l1-0.5l0,0L38.6,107.8z
		 M38.1,107.3c0-0.5,0-1.5,0-2l1,0.5c0,0.5,0,0.5,0,1L38.1,107.3z M38.1,105.3c0.5-0.5,0.5-1,1-1.5l0.5,1c0,0-0.5,0.5-0.5,1
		L38.1,105.3z M39.1,103.8c0.5,0,0.5,0,0.5,0l0.5,0.5c0,0,0,0.5-0.5,0.5L39.1,103.8z M40,104.3L40,104.3L40,104.3L40,104.3z
		 M39.5,103.8c1.5-1,2.5-1,3.9-1v1c-1,0-2,0-3.4,0.5L39.5,103.8z M43.5,102.9c0.5,0,1.5,0,2,0l0.5,0.5c-1,0.5-2,0.5-2.5,0.5V102.9z
		 M45.4,102.9L45.4,102.9l0.5,0.5L45.4,102.9z M45.4,102.9c0.5,0,2-0.5,2.9,1l-1,0.5c-0.5-1-1.5-1-1.5-1L45.4,102.9z M48.4,103.8
		l-1,0.5h0.5L48.4,103.8z M47.4,104.3c0,0,1,0,0.5,0l-0.5-0.5c0.5,0,0.5,0,1,0L47.4,104.3z M47.4,103.8L47.4,103.8l0.5,0.5
		L47.4,103.8z M47.9,104.3c0,0,0.5,6.4,0.5,8.4h-0.5c-0.5-2-0.5-8.9-0.5-8.9L47.9,104.3z M48.4,112.7v0.5h-0.5c0,0,0,0,0-0.5H48.4z
		 M48.4,113.2L48.4,113.2v0.5V113.2L48.4,113.2z M48.4,113.7c0,0,0,0,0,0.5l-1-0.5c0.5,0,0.5,0,0.5-0.5L48.4,113.7z M48.4,114.2
		c0,1-1,1.5-1.5,2l-0.5-1c0.5,0,1-0.5,1-1.5L48.4,114.2z M46.9,116.1c-1,0.5-2,0.5-2.9,0v-0.5c1,0,2,0,2.5-0.5L46.9,116.1z
		 M44,116.1c-0.5,0-1,0-1.5,0l0.5-1c0.5,0,0.5,0.5,1,0.5V116.1z"/>
	<path class="st6" d="M43.5,117.1c-3.4,3-3.4,7.4-2.5,11.3c1.5,3.9,6.4,7.4,9.3,5.9c3.9-1.5,7.4-3,6.4-8.4c0-1.5-1-2-2-3.4l-0.5-1
		c-0.5-1.5-2-2-2.5-3.4c-0.5-1-4.4-1.5-5.4-1.5c-1.5,0,0,0-2.5,0.5L43.5,117.1L43.5,117.1z"/>
	<path class="st7" d="M43.5,117.1c-1.5,2-2.5,3.4-2.5,5.4h-1c0.5-2,1-3.9,2.9-5.9L43.5,117.1z M41,122.5c-0.5,2,0,3.9,0.5,5.4
		l-1,0.5c-0.5-2-0.5-3.9-0.5-5.9C40,122.5,41,122.5,41,122.5z M41.5,128L41.5,128l-0.5,0.5L41.5,128z M41.5,128c0,0.5,0,0.5,0.5,1
		h-1c0,0,0-0.5-0.5-0.5L41.5,128z M42,128.9c0.5,1.5,2,3,3.4,3.9l-0.5,1c-1.5-1-2.9-3-3.9-4.9H42z M45.4,132.9c1.5,1,2.9,1.5,4.4,1
		l0.5,1c-2,0.5-3.9,0-5.4-1L45.4,132.9z M49.9,133.9c0.5,0,0.5,0,0.5,0l0.5,1c-0.5,0-0.5,0-0.5,0L49.9,133.9z M50.4,133.9
		L50.4,133.9v0.5V133.9z M50.4,133.9L50.4,133.9l0.5,1l0,0L50.4,133.9z M50.4,133.9L50.4,133.9v0.5V133.9z M50.4,133.9
		c3.9-1.5,6.9-2.5,5.9-7.9h1c1,5.9-2.5,7.4-6.4,8.9L50.4,133.9z M56.3,126L56.3,126h0.5H56.3z M56.3,126c0-1-0.5-1.5-1-2l1-0.5
		c0.5,1,1,1.5,1,2.5H56.3z M55.3,124c0-0.5-0.5-0.5-0.5-1l0.5-0.5c0.5,0.5,0.5,1,1,1L55.3,124z M54.8,123v-0.5l0,0l0,0V123z
		 M54.8,122.5L54.8,122.5h0.5l0,0H54.8z M55.3,122.5L55.3,122.5h-0.5H55.3z M54.8,122.5L54.8,122.5h0.5l0,0H54.8z M54.8,122.5
		L54.8,122.5L54.8,122.5L54.8,122.5z M54.8,122.5L54.8,122.5l0.5-0.5c0,0,0,0,0,0.5H54.8z M54.8,122.5c-0.5-0.5-0.5-0.5-1-1l1-0.5
		c0,0.5,0.5,1,0.5,1L54.8,122.5z M53.8,121.6L53.8,121.6L53.8,121.6h0.5H53.8z M53.8,121.6c0-0.5-0.5-1-1-1l0.5-1
		c0.5,0.5,1,1,1.5,1.5L53.8,121.6z M52.8,120.6c-0.5-1-1-1.5-1.5-2l1-0.5c0,0.5,0.5,1,1,1.5L52.8,120.6z M51.3,118.6L51.3,118.6
		l0.5-0.5L51.3,118.6z M51.3,118.6L51.3,118.6l1-0.5l0,0L51.3,118.6z M52.3,118.1L52.3,118.1h-0.5H52.3z M51.3,118.6v-0.5l0.5-0.5
		c0,0,0,0.5,0.5,0.5L51.3,118.6z M51.3,118.1c-0.5,0-0.5,0-1-0.5l0.5-0.5c0.5,0,0.5,0,1,0.5L51.3,118.1z M50.4,117.6
		c-1-0.5-2.9-0.5-3.9-0.5v-1c1,0,2.9,0.5,4.4,1L50.4,117.6z M46.4,116.1L46.4,116.1v0.5V116.1z M46.4,117.1c-0.5,0-0.5,0-1,0l0.5-1
		c0,0,0,0,0.5,0V117.1z M45.4,117.1L45.4,117.1v-1c0.5,0,0.5,0,0.5,0L45.4,117.1z M45.4,117.1L45.4,117.1v-0.5V117.1z M45.4,117.1
		L45.4,117.1l-0.5-1c0.5,0,0.5,0,0.5,0V117.1z M45.4,117.1c-0.5,0-1,0-1,0.5l-0.5-1c0.5,0,1,0,1-0.5L45.4,117.1z M44.5,117.6
		L44.5,117.6H44v-0.5L44.5,117.6z M44,117.6h-0.5v-1H44V117.6z M43,116.6L43,116.6h0.5v0.5L43,116.6z"/>
	<path class="st6" d="M50.4,134.8c-1,2.5-1.5,6.4-1,8.9s3.4,6.4,5.4,7.4s4.9-1,6.9-3.9c0.5-0.5,0.5-1,1-1.5c0.5-1.5,0.5-3,0.5-4.4
		c0-1.5,0-3-0.5-4.4c-0.5-2.5,1-4.4,0.5-6.4c-0.5-3.4-3.9-3.4-6.4-3c0.5,4.9-2.9,5.4-5.4,6.9c0,0-1.5,0-1,0V134.8z"/>
	<path class="st7" d="M50.4,134.8L50.4,134.8h-0.5l0,0H50.4z M50.4,134.8L50.4,134.8L50.4,134.8L50.4,134.8z M50.4,134.8
		c0,0.5,0,1,0,1h-1c0-0.5,0-1,0.5-1H50.4z M50.4,135.8c0,0.5-0.5,1-0.5,1.5h-0.5c0-0.5,0-1,0-1.5H50.4z M49.9,137.3
		c-0.5,2-0.5,4.4-0.5,6.4h-0.5c-0.5-2,0-4.4,0.5-6.4H49.9z M48.9,143.7L48.9,143.7h0.5H48.9z M49.4,143.7L49.4,143.7h-0.5l0,0H49.4z
		 M49.4,143.7c0.5,0,0.5,0.5,0.5,1l-0.5,0.5c-0.5-0.5-0.5-1-0.5-1.5H49.4z M49.9,144.7c0,0.5,0.5,0.5,0.5,1l-0.5,0.5
		c-0.5-0.5-0.5-1-0.5-1L49.9,144.7z M50.4,145.7c1.5,2,3.4,4.4,4.9,4.9l-0.5,1c-1.5-1-3.9-3.4-4.9-5.4L50.4,145.7z M54.8,151.6
		L54.8,151.6v-0.5V151.6z M55.3,150.6L55.3,150.6l-0.5,1l0,0L55.3,150.6z M55.3,150.6L55.3,150.6l-0.5,0.5L55.3,150.6z M55.3,150.6
		h0.5v1c-0.5,0-0.5,0-1,0L55.3,150.6z M55.8,150.6c0.5,0,0.5,0,1,0v1c-0.5,0-0.5,0-1,0V150.6z M56.7,150.6c1.5,0,3.4-1.5,4.4-3.4
		l0.5,0.5c-1,2-2.9,3.4-4.9,3.9V150.6z M61.2,147.1L61.2,147.1h0.5H61.2z M61.2,147.1c0.5-0.5,0.5-1,0.5-1l1,0.5c-0.5,0-0.5,0.5-1,1
		L61.2,147.1z M61.7,146.2c0.5-0.5,0.5-0.5,0.5-1l1,0.5c-0.5,0.5-0.5,0.5-0.5,1L61.7,146.2z M63.1,145.7L63.1,145.7h-0.5H63.1z
		 M62.2,145.2c0.5-0.5,0.5-1,0.5-1.5h1c0,0.5,0,1.5-0.5,2L62.2,145.2z M62.6,143.7c0-1,0-1.5,0-2.5h1c0,1,0,1.5,0,2.5H62.6z
		 M62.6,141.2v-0.5h1v0.5H62.6z M62.6,140.7c0-1.5,0-2.5-0.5-3.9h1c0.5,1.5,0.5,2.5,0.5,3.9H62.6z M63.1,136.8L63.1,136.8h-0.5H63.1
		z M62.2,136.8c0-1,0-2.5,0.5-3.4h0.5c0,1,0,2.5,0,3.4H62.2z M62.6,133.4c0-1,0-2,0-3h1c0,1,0,2-0.5,3H62.6z M63.6,130.4L63.6,130.4
		h-0.5H63.6z M62.6,130.4v-0.5h1c0,0,0,0,0,0.5H62.6z M62.6,129.9c-0.5-1-1-2-2-2v-1c1.5,0.5,2.5,1.5,2.9,3H62.6z M60.7,128
		c-1-0.5-2-0.5-2.9,0l-0.5-1c1.5-0.5,2.5-0.5,3.4,0V128z M57.7,128c-0.5,0-0.5,0-0.5,0l-0.5-1c0.5,0,0.5,0,0.5,0L57.7,128z
		 M56.7,127.5V127l0,0V127.5L56.7,127.5z M57.2,127.5c0.5,4.4-2.5,5.4-4.9,6.4v-0.5c2-1,4.4-2,4.4-5.9
		C56.7,127.5,57.2,127.5,57.2,127.5z M52.3,133.9c0,0.5-0.5,0.5-1,0.5l-0.5-0.5c0.5-0.5,1-0.5,1.5-0.5V133.9z M50.8,134.4l-0.5-0.5
		h0.5l0.5,0.5H50.8z M51.3,133.9c1,0.5,0,1-0.5,1v-1c0,0,0.5,1,0,0.5L51.3,133.9z M50.8,134.8c0,0-1-1-0.5-0.5l-0.5,0.5
		c-0.5-0.5,0-0.5,1-1V134.8z M50.4,134.4h0.5l-0.5,0.5V134.4L50.4,134.4z M50.4,134.8L50.4,134.8h-0.5v-0.5L50.4,134.8z M49.9,134.8
		L49.9,134.8h0.5H49.9z"/>
	<path class="st6" d="M70,155.5c-1.5,0-2.5,0-3.9,0c-1.5,0-2.9,0-3.9-0.5c-2-1-3.4-3-2.9-4.9s2.5-2,2.9-3.4c1.5-3.4,1-5.4,1-8.4
		c0-1,1.5-2.5,1.5-3c2-0.5,4.4-0.5,5.4,3c0.5,1.5,0,3,0,4.4c0.5,3,2,5.9,1.5,8.9C71.5,153.5,71.5,155,70,155.5L70,155.5z"/>
	<path class="st7" d="M70,156c-1,0-1.5,0-2,0v-1c0.5,0,1,0,2,0V156z M68.1,156c-0.5,0-1,0-2,0v-1c0.5,0.5,1.5,0,2,0V156z M66.1,156
		L66.1,156v-0.5V156z M66.1,156c-1.5,0-2.9-0.5-4.4-1l0.5-0.5c1.5,0.5,2.5,0.5,3.9,0.5V156z M62.2,154.5L62.2,154.5v0.5V154.5z
		 M61.7,155L61.7,155l0.5-0.5l0,0L61.7,155z M61.7,155L61.7,155h0.5H61.7z M61.7,155h-0.5l0.5-1c0,0,0,0.5,0.5,0.5L61.7,155z
		 M61.2,155c-0.5-0.5-0.5-0.5-1-0.5l1-1c0,0.5,0,0.5,0.5,0.5L61.2,155z M60.2,154.5c-1-1-1.5-3-1-4.4h0.5c0,1.5,0.5,3,1.5,3.4
		L60.2,154.5z M59.2,150.1L59.2,150.1L59.2,150.1L59.2,150.1z M59.2,150.1c0-1.5,0.5-2,1.5-2.5l0.5,0.5c-0.5,0.5-1,1-1.5,2H59.2z
		 M60.7,147.6c0.5-0.5,1-1,1-1.5l1,0.5c-0.5,0.5-1,1-1.5,1.5L60.7,147.6z M62.6,146.7L62.6,146.7h-0.5H62.6z M61.7,146.2
		c1.5-2.5,1-3.9,1-5.9l1-0.5c0,2.5,0,3.9-1,6.9L61.7,146.2z M62.6,140.3c0-1,0-1.5,0-2h1c0,0.5,0,1,0,1.5L62.6,140.3z M63.6,137.8
		v0.5h-0.5L63.6,137.8z M62.6,138.3L62.6,138.3l1-0.5l0,0L62.6,138.3z M62.6,138.3L62.6,138.3l0.5-0.5L62.6,138.3z M62.6,138.3
		c0-1,0.5-1.5,1-2l0.5,0.5c0,0.5-0.5,1-0.5,1L62.6,138.3z M63.6,136.3c0.5-0.5,0.5-1,0.5-1h1c0,0.5-0.5,1-1,1.5L63.6,136.3z
		 M64.1,135.3v-0.5h0.5v0.5H64.1z M64.6,134.8c1,0,2-0.5,2.9,0v1c-1-0.5-2-0.5-2.5,0L64.6,134.8z M67.6,134.8c1,0.5,2,1.5,2.9,3.4
		h-1c-0.5-1.5-1.5-2.5-2-2.5L67.6,134.8L67.6,134.8z M70.5,138.3L70.5,138.3H70H70.5z M70.5,138.3c0,0.5,0,1.5,0,2.5h-1
		c0-0.5,0-1.5,0-2.5H70.5z M70.5,140.7c0,1,0,1.5,0,2l-0.5,0.5c-0.5-1-0.5-1.5-0.5-2.5H70.5z M70,143.2L70,143.2v-0.5V143.2z
		 M70.5,142.7c0.5,1,0.5,2.5,1,3.4h-1c-0.5-1-0.5-2-0.5-3L70.5,142.7z M71.5,146.2c0.5,1.5,1,3.4,0.5,5.4l-0.5-0.5
		c0-1.5-0.5-3-1-4.9H71.5z M72,151.6c0,1,0,2-0.5,2.5H71c0-1,0-1.5,0.5-3L72,151.6z M71.5,154c0,1-0.5,1.5-1.5,2l-0.5-1
		c1,0,1-0.5,1.5-1H71.5z M70,156L70,156L70,156v-0.5V156z"/>
	<path class="st6" d="M80.8,157c-2.9-0.5-6.9,2-8.4-2c-1-3-1-7.9,0.5-11.3c0.5-1.5,1-1.5,1-4.9c0.5-3.4,4.4-3.4,5.9-2
		c0.5,0,0.5,1,1,2c0,1.5,0,3,0.5,4.4c1,4.4,2.9,8.9,2,13.3C82.8,157.5,81.8,157.5,80.8,157L80.8,157z"/>
	<path class="st7" d="M80.3,157.5L80.3,157.5l0.5-0.5l0,0L80.3,157.5z M80.3,157.5c-1,0-2,0-2.9,0v-1c1,0,2.5,0,3.4,0.5L80.3,157.5z
		 M77.4,157.5c-2,0.5-4.4,0.5-5.4-2l1-0.5c0.5,2,2.5,2,4.4,1.5V157.5z M72,155.5L72,155.5l0.5-0.5L72,155.5z M72,155.5V155h1l0,0
		L72,155.5z M72,155L72,155h0.5H72z M72,155c0,0-0.5-0.5-0.5-1l1-0.5c0,0.5,0,1,0.5,1.5H72z M71.5,154c0-0.5,0-1.5,0-2H72
		c0.5,0.5,0.5,1,0.5,1.5L71.5,154z M71.5,152.1c-0.5-3,0-5.9,1-8.4l0.5,0.5c-0.5,2-1,5.4-1,7.9H71.5z M73,144.2L73,144.2v-0.5V144.2
		z M72.5,143.7c0-0.5,0-1,0.5-1l0.5,0.5c0,0,0,0.5-0.5,1L72.5,143.7z M73,142.7c0.5-1,0.5-1.5,1-3.9h0.5c0,2.5-0.5,3.4-1,4.4
		L73,142.7z M74,138.8L74,138.8L74,138.8L74,138.8z M74,138.8c0-1,0-1.5,0.5-2l0.5,0.5c0,0.5-0.5,1-0.5,1.5H74z M74.4,136.8
		c0.5-0.5,1-1,1.5-1l0.5,0.5c-0.5,0.5-1,0.5-1.5,1L74.4,136.8z M75.9,135.8c0.5-0.5,1.5-0.5,2-0.5v1c-0.5,0-1,0-1.5,0L75.9,135.8z
		 M77.9,135.3c1,0,2,0.5,2.5,1l-0.5,0.5c-0.5,0-1.5-0.5-2-0.5V135.3z M80.3,136.3L80.3,136.3l-0.5,0.5L80.3,136.3z M80.3,136.3
		L80.3,136.3l-0.5,0.5l0,0L80.3,136.3z M80.3,136.3L80.3,136.3l-0.5,0.5L80.3,136.3z M80.3,136.3c0.5,0.5,0.5,1.5,1,2l-1,0.5
		c0-1-0.5-1.5-0.5-2L80.3,136.3z M81.3,138.3v0.5h-1l0,0L81.3,138.3z M81.3,138.8L81.3,138.8h-0.5H81.3z M81.3,138.8L81.3,138.8h-1
		l0,0H81.3z M81.3,138.8c0,0.5,0,1,0,1.5h-1c0-0.5,0-1,0-1.5H81.3z M81.3,140.3c0,1,0,2,0.5,3h-1c-0.5-1-0.5-2-0.5-3H81.3z
		 M80.8,143.2L80.8,143.2h0.5H80.8z M81.8,143.2L81.8,143.2h-1l0,0H81.8z M81.8,143.2L81.8,143.2h-0.5H81.8z M81.8,143.2
		c0,0.5,0,0.5,0.5,1l-1,0.5c0-0.5-0.5-1-0.5-1.5H81.8z M82.3,144.2L82.3,144.2l-0.5,0.5L82.3,144.2z M82.3,144.2
		c1,3.9,2.5,8.4,1.5,12.3h-1c1-3.9-0.5-7.9-1.5-11.8L82.3,144.2z M83.8,156.5L83.8,156.5h-0.5H83.8z M83.8,156.5L83.8,156.5h-1l0,0
		H83.8z M83.8,156.5L83.8,156.5h-0.5H83.8z M83.8,156.5c-0.5,0.5-0.5,0.5-0.5,0.5l-0.5-0.5l0,0H83.8z M83.3,157c0,0.5,0,0.5-0.5,0.5
		l-0.5-0.5c0.5-0.5,0.5-0.5,0.5-0.5L83.3,157z M82.8,157.5c-0.5,0.5-1.5,0.5-2.5,0l0.5-0.5c0.5,0,1.5,0,1.5,0L82.8,157.5z M80.8,157
		L80.8,157L80.8,157L80.8,157z"/>
	<path class="st9" d="M81.3,155.5c-2.5-0.5-4.9,0.5-6.4-1.5c-2.5-2-1-6.4,0-8.9c0.5-1,2-2,2.9-3c0,0.5,1,0.5,1,1c0,1,0,1.5-0.5,2.5
		c-0.5,1.5-2.5,3.4-1.5,5.4c0.5,2.5,3.9,2,5.4,3c0,0,0.5,0.5,0,1C82.3,155,81.8,155.5,81.3,155.5L81.3,155.5z"/>
	<path class="st9" d="M68.5,153.5c-1.5-1-4.4,0.5-5.4-2.5c-0.5-2,0-4.4,1-5.9c0.5-1,2-1.5,2.5-0.5s-0.5,1.5-1,3c0,0.5,0,1.5,0.5,2
		c0,2,2,1.5,2.9,4.4C69.5,154,69,154,68.5,153.5L68.5,153.5z"/>
	<path class="st10" d="M69,143.7c0,1,0-1,0-1c-0.5-0.5-0.5-1-0.5-1.5c0-1.5-0.5-2-1-3s-1.5-1-2-2c2.5-1.5,3.9,1,3.9,5.9
		c0,0.5,0,1,0,1.5H69V143.7z"/>
	<path class="st10" d="M79.4,140.3c0-2-2-3-3.4-3.4c1-1,3.4,0,3.9,1.5c0.5,0.5,0.5,1.5,0,2.5C79.9,140.7,79.4,140.7,79.4,140.3
		L79.4,140.3z"/>
	<path class="st9" d="M58.2,147.1c-1,0.5-1.5,1-2,0.5c-2-1-3.4-3.4-3.9-5.4s0.5-3,0.5-4.9c0.5-1.5,1.5-2.5,2.5-2.5
		c0.5-0.5,0.5-0.5,0.5-0.5c1.5-0.5,3.9-0.5,3.9,0.5c-2,1.5-4.4,3.9-3.4,6.4c0.5,1.5,1,3.9,2.5,3c1-0.5,1.5-2.5,2-3.4
		c0-0.5,0.5,0.5,0.5,0.5c0,1.5,0,3.4-1,4.9C59.7,146.7,58.7,147.1,58.2,147.1L58.2,147.1z"/>
	<path class="st9" d="M49.9,133.9c-0.5,0-1,0-1.5-0.5s-0.5-0.5-1-1c-1-1-1.5-3.4-2.9-4.4c-1.5-0.5-2-2.5-1-4.4
		c0.5-0.5,0.5-1.5,0.5-1.5c0.5-0.5,1.5-1,1.5-1c2.5-0.5-0.5-3,3.9-1.5c2.9,0.5,2.5,4.4,2.9,4.9c1,1,2.5,1,3.4,3.9
		c0.5,0.5,0,1.5,0,1.5c-0.5,1.5-1.5,2-2.5,2.5C52.3,132.4,50.8,133.9,49.9,133.9L49.9,133.9z"/>
	<path class="st8" d="M49.9,134.4L49.9,134.4v-1l0,0V134.4z M49.9,133.4L49.9,133.4v0.5V133.4z M49.9,134.4c-1,0-1,0-1.5-0.5l0.5-1
		c0.5,0.5,0.5,0.5,1,0.5V134.4z M48.4,133.9L48.4,133.9v-0.5V133.9z M48.4,133.9l-0.5-0.5l0.5-0.5h0.5L48.4,133.9z M47.9,133.4
		c0,0-0.5-0.5-1-0.5l1-0.5l0.5,0.5L47.9,133.4z M46.9,132.9L46.9,132.9l0.5-0.5L46.9,132.9z M46.9,132.9L46.9,132.9l1-0.5l0,0
		L46.9,132.9z M47.9,132.4L47.9,132.4h-0.5H47.9z M46.9,132.9c0-0.5-0.5-1-0.5-1.5l0.5-0.5c0.5,0.5,0.5,1,1,1.5L46.9,132.9z
		 M46.4,131.4c-0.5-1-1.5-2.5-2.5-3l0.5-0.5c1.5,0.5,2,2,2.5,3L46.4,131.4z M44,128.4L44,128.4l0.5-0.5L44,128.4z M44,128.4
		L44,128.4l0.5-0.5l0,0L44,128.4z M44,128.4L44,128.4l0.5-0.5L44,128.4z M44,128.4c-0.5-0.5-1-1-1.5-2l1-0.5c0,1,0.5,1.5,1,2
		L44,128.4z M42.5,126.5c0-1,0-2,1-3L44,124c-0.5,0.5-0.5,1.5-0.5,2L42.5,126.5z M43.5,123.5L43.5,123.5L43.5,123.5L43.5,123.5z
		 M43.5,123.5V123l0.5,0.5v0.5L43.5,123.5z M43.5,123L43.5,123v0.5V123z M43.5,123L43.5,123l0.5,0.5l0,0L43.5,123z M44,123.5
		L44,123.5h-0.5H44z M43.5,123v-0.5h1c0,0.5,0,1-0.5,1L43.5,123z M43.5,122.5c0-0.5,0-0.5,0.5-1l0.5,0.5v0.5H43.5z M44.5,122.1
		L44.5,122.1H44H44.5z M44,121.6L44,121.6l0.5,0.5l0,0L44,121.6z M44,121.6L44,121.6v0.5V121.6z M44,121.6L44,121.6l0.5,0.5l0,0
		L44,121.6z M44,121.6c0-0.5,0.5-0.5,0.5-0.5l0.5,0.5c0,0.5,0,0.5-0.5,0.5L44,121.6z M44.5,121.1c0.5-0.5,1-0.5,1-0.5l0.5,1
		c-0.5,0-1,0-1,0L44.5,121.1z M45.9,121.6L45.9,121.6l-0.5-0.5L45.9,121.6z M45.4,120.6c1,0,1-0.5,1-1l0.5,0.5c0,0.5,0,1-1,1.5
		L45.4,120.6z M46.4,119.6L46.4,119.6h1c-0.5,0-0.5,0-0.5,0.5L46.4,119.6z M46.4,119.6c0-1,0.5-1.5,3.4-0.5l-0.5,0.5c-2-0.5-2,0-2,0
		H46.4z M49.4,119.6L49.4,119.6L49.4,119.6L49.4,119.6z M49.9,119.1c2,0.5,2.5,2.5,2.9,3.9l-1,0.5c0-1.5-0.5-3.4-2.5-3.9L49.9,119.1
		z M52.8,123c0,0.5,0,1,0,1l-0.5,1c-0.5-0.5-0.5-1-0.5-1.5L52.8,123z M52.8,124L52.8,124l-0.5,0.5L52.8,124z M52.8,124
		c0.5,0.5,0.5,0.5,1,1l-0.5,0.5c-0.5,0-1-0.5-1-0.5L52.8,124z M53.8,125c1,0.5,2,1,2.5,3.4h-1c-0.5-2-1.5-2.5-2-3L53.8,125z
		 M56.3,128.4L56.3,128.4h-0.5h-0.5H56.3z M56.3,128.4L56.3,128.4h-0.5H56.3z M56.3,128.4L56.3,128.4l-0.5,0.5v-0.5H56.3z
		 M56.3,128.4c0,0.5,0,0.5,0,0.5h-0.5l0,0L56.3,128.4z M56.3,128.9c0,0.5,0,1,0,1.5l-1-0.5c0,0,0.5-0.5,0.5-1H56.3z M56.3,130.4
		L56.3,130.4l-0.5-0.5L56.3,130.4z M56.3,130.4L56.3,130.4l-1-0.5l0,0L56.3,130.4z M55.3,129.9L55.3,129.9h0.5H55.3z M56.3,130.4
		c-0.5,0-0.5,0-0.5,0.5l-0.5-0.5v-0.5L56.3,130.4z M55.3,130.4L55.3,130.4L55.3,130.4L55.3,130.4z M55.8,130.9c0,0,0,0,0,0.5l-1-0.5
		c0-0.5,0-0.5,0.5-0.5L55.8,130.9z M55.8,131.4c-1,0.5-1.5,1-2,1l-0.5-0.5c0.5-0.5,1-0.5,1.5-1L55.8,131.4z M53.3,131.9L53.3,131.9
		v0.5V131.9z M53.8,132.4L53.8,132.4l-0.5-0.5l0,0L53.8,132.4z M53.3,131.9L53.3,131.9v0.5V131.9z M53.8,132.4c-0.5,0.5-1,0.5-1.5,1
		l-0.5-1c0.5,0,1-0.5,1.5-0.5L53.8,132.4z M52.3,133.4c-1,0.5-1.5,1-2.5,1v-1c0.5,0,1.5-0.5,2-1L52.3,133.4z M49.9,133.4L49.9,133.4
		v0.5V133.4z"/>
	<path class="st1" d="M23.8,54.2c1-1,2-3,1-4.4c0-1-0.5-2-1-2.5c-0.5-2.5-0.5-4.4-1-6.9c0-0.5-1-1-1.5-1.5c0,0,0,0,0.5,0"/>
	<path class="st1" d="M23.3,37.9c0,0.5-0.5,1.5-0.5,2.5"/>
	<path class="st1" d="M23.3,46.3c0,1-1,0.5-1,1.5"/>
	<path class="st1" d="M23.8,46.8c0,0,1,0,1.5,0c1,0.5,2-0.5,2.9-1c1,0,1.5,0.5,2.5,0.5"/>
	<path class="st1" d="M25.3,51.7c1,0.5,1.5,1,2,1"/>
	<path class="st1" d="M33.2,74.8c0-0.5-0.5-1-0.5-1c-0.5-1-1-2-2-3c-1-0.5-1-2-2-3c-0.5-1.5-1-3.4-0.5-4.9c0.5-0.5,2-0.5,2.9-1"/>
	<path class="st1" d="M33.2,73.8c0.5-0.5,1,0,1.5,0"/>
	<path class="st1" d="M26.3,69.9c0.5-1,1.5-2,2.9-2c0.5,0,1,0,1,0c1.5,0,3.4,0,4.9,0"/>
	<path class="st1" d="M28.2,63.5c-1-0.5-1.5-0.5-2-0.5"/>
	<path class="st1" d="M31.2,71.4c-0.5,1-0.5,2-1,2.5"/>
	<path class="st1" d="M42,96c-0.5-0.5-2,0-2.5-1S38,93.5,38,93c-0.5-1.5-0.5-3-0.5-3.9c-0.5-1-2-0.5-2-1.5c-0.5-2,0-3.9,0.5-5.9
		c0-0.5,1-0.5,1.5-1"/>
	<path class="st1" d="M34.6,81.2c0.5,0,1,0.5,1.5,0.5"/>
	<path class="st12" d="M36.1,87.1c0,0,0,0,0,0.5h-1c0-0.5,0-0.5,0-0.5H36.1z M36.1,87.6c0,0-0.5,0.5-0.5,1l-0.5-0.5v-0.5H36.1z
		 M35.6,88.6c0,0-0.5,0.5-1,0.5v-1c0,0,0,0,0.5,0L35.6,88.6z M34.6,89.1L34.6,89.1v-1l0,0V89.1z"/>
	<path class="st1" d="M37.1,88.1c1,0.5,2.5,0,3.4-0.5"/>
	<path class="st1" d="M37.6,92.5c0.5,0.5,0.5,1,0.5,1.5"/>
	<path class="st1" d="M40,95.5c0.5,0.5,1,0.5,1,1"/>
	<path class="st1" d="M44.5,113.7c0.5-1,1-2.5,0.5-3.4c-0.5-2-2.5-3-3.9-2l0,0"/>
	<path class="st1" d="M42.5,107.8c0.5,0,0.5-1,0.5-1.5"/>
	<path class="st1" d="M45.4,111.2c0.5,0,0.5,0.5,1,0.5"/>
	<path class="st1" d="M50.8,130.9c0.5-2-0.5-3-2-3.9c-0.5-0.5-2-0.5-2.5,0.5"/>
	<path class="st1" d="M47.4,126.5c0.5-0.5,0.5-0.5,1-2"/>
	<path class="st1" d="M50.4,128c0.5,0.5,1.5,0,2,0"/>
	<path class="st11" d="M83.3,121.1c-1-0.5-3.4-1.5-3.4-3.4c0-1.5,0.5-3,0.5-5.4c0-0.5,0.5-1,1-1.5c1-0.5,2,2,2.9,1
		c0.5-0.5,0.5,0.5,1,0.5c0.5,2.5,0.5,5.4,0,7.4c-0.5,0.5-1,1.5-1.5,1.5L83.3,121.1L83.3,121.1z"/>
	<path class="st13" d="M4.1,17.2c0.5,1,2,3,2.9,3.4c1.5,1.5,1,3.9,2.5,5.4c1,0.5,2,1.5,3.4,1.5c2,0.5,4.4,0,6.4-0.5c0.5,0,1-1,1-1
		c3.4-3,3.9-12.8,4.4-14.8c1-3-11.8-1.5-18.7-2C3.2,9.4,2.7,13.3,4.1,17.2L4.1,17.2z"/>
	<path class="st13" d="M144.2,13.3c-0.5,3.9,1.5,13.8,6.9,15.7c2.5,1,7.4,1,8.8-2c1-3,3.4-4.4,4.4-7.4c0.5-2,2-4.9,1-6.4
		c-0.5-0.5-1.5-2-2.5-2c-5.4,1-9.8-1.5-14.7-0.5C147.2,11.3,144.7,11.8,144.2,13.3L144.2,13.3z"/>
</g>
</svg>
