<?xml version="1.0" encoding="utf-8"?>
<!-- Generator: Adobe Illustrator 22.1.0, SVG Export Plug-In . SVG Version: 6.00 Build 0)  -->
<!DOCTYPE svg PUBLIC "-//W3C//DTD SVG 1.0//EN" "http://www.w3.org/TR/2001/REC-SVG-20010904/DTD/svg10.dtd">
<svg version="1.0" id="Layer_1" xmlns="http://www.w3.org/2000/svg" xmlns:xlink="http://www.w3.org/1999/xlink" x="0px" y="0px"
	 viewBox="0 0 170 170" style="enable-background:new 0 0 170 170;" xml:space="preserve">
<style type="text/css">
	.st0{fill:#869FB7;}
	.st1{fill:#577C99;}
	.st2{fill:#004B6C;}
</style>
<g>
	<path class="st0" d="M58,25c-7.2,3.6-14.5,8.9-17.5,34.1c-3.8,31.6-8.6,65.1-2.3,78.8c6.3,13.6,42.4,11.4,60.6,11.4
		c31.8,0,36.7-1.1,36.7-17.8c0-8.3-1.5-32.2-6-61c-3.3-21.2-5.2-37.9-18-43.5C92.4,18.6,67.3,20.3,58,25z"/>
	<path class="st1" d="M82.4,152.4c-19.5,0-41.4-1.4-46.9-13.2c-6.2-13.4-2.6-42.6,1.2-73.5c0.3-2.3,0.6-4.6,0.8-6.9
		c3.2-26.4,11.2-32.5,19.2-36.5c10.1-5,36.2-6.7,56,1.9c13.5,5.9,16,22,19.2,42.2l0.6,3.5c4.4,28,6,52.1,6,61.5
		c0,19.9-8.9,20.8-39.7,20.8c-2.1,0-4.4,0-6.9,0.1C88.9,152.4,85.7,152.4,82.4,152.4z M80.6,24.1c-9.1,0-17,1.4-21.3,3.6
		c-5.4,2.7-12.8,6.4-15.9,31.8c-0.3,2.3-0.6,4.6-0.8,6.9c-3.5,28.7-7.2,58.4-1.7,70.2c4.8,10.3,33.7,9.9,50.9,9.7
		c2.5,0,4.8-0.1,6.9-0.1c32.6,0,33.7-1.5,33.7-14.8c0-9.2-1.6-32.8-6-60.5l-0.6-3.5c-2.9-18.5-5.2-33.1-15.7-37.7
		C101.1,25.7,90.2,24.1,80.6,24.1z"/>
</g>
<g>
	<rect x="18.6" y="85.2" transform="matrix(1 -1.953121e-03 1.953121e-03 1 -0.172 0.1659)" class="st2" width="132.5" height="6"/>
	<g>
		<polygon class="st2" points="27,99.4 22.3,88.3 27,77.2 0.7,88.3 		"/>
	</g>
	<g>
		<polygon class="st2" points="142.7,99.2 147.4,88 142.6,76.9 169,88 		"/>
	</g>
</g>
<g>
	<path class="st2" d="M7.9,104.4c1.9-0.3,4.4-0.5,7.1-0.5c4.5,0,7.7,0.9,9.9,2.8c2.3,1.9,3.8,4.8,3.8,8.9c0,4.3-1.5,7.6-3.8,9.6
		c-2.4,2.2-6.3,3.3-11,3.3c-2.6,0-4.5-0.1-6-0.3V104.4z M12.3,124.9c0.6,0.1,1.5,0.1,2.4,0.1c5.8,0,9.2-3.1,9.2-9.3
		c0-5.4-3.1-8.4-8.6-8.4c-1.4,0-2.4,0.1-3,0.3V124.9z"/>
</g>
<g>
	<path class="st2" d="M161,60.8c-0.1-3.1-0.3-6.9-0.3-10.2h-0.1c-0.8,3-1.8,6.2-2.9,9.3l-3.5,10.5h-3.4L147.6,60
		c-0.9-3.1-1.8-6.4-2.4-9.4h-0.1c-0.1,3.2-0.3,7-0.4,10.3l-0.5,9.8h-4.1l1.6-24.3h5.8l3.2,9.8c0.9,2.8,1.6,5.7,2.2,8.4h0.1
		c0.6-2.6,1.5-5.6,2.4-8.5l3.3-9.7h5.8l1.4,24.3h-4.3L161,60.8z"/>
</g>
<g>
</g>
<g>
</g>
<g>
</g>
<g>
</g>
<g>
</g>
<g>
</g>
</svg>
