<svg id="Layer_1" data-name="Layer 1" xmlns="http://www.w3.org/2000/svg" viewBox="0 0 231.44 47.92"><defs><style>.cls-1{fill:#004c6c;}.cls-2{fill:#8caebd;}.cls-3{fill:#598ba0;}.cls-4{fill:#bfd2da;}</style></defs><title>nemostudio</title><path class="cls-1" d="M14.45,16.15h3.31L30.56,34.5h.06V16.15h2.63v22.1H29.94L17.14,19.89h-.06V38.25H14.45Z" transform="translate(-14.45 -0.74)"/><path class="cls-1" d="M52.74,35.6A7.33,7.33,0,0,1,49.87,38a9.06,9.06,0,0,1-3.62.68A7.61,7.61,0,0,1,43.16,38a7.15,7.15,0,0,1-2.33-1.64,7.4,7.4,0,0,1-1.47-2.44,8.67,8.67,0,0,1-.51-3,8.46,8.46,0,0,1,.56-3.1,6.93,6.93,0,0,1,3.93-4,7.78,7.78,0,0,1,3-.56,7.51,7.51,0,0,1,2.81.51,6,6,0,0,1,2.2,1.5,6.83,6.83,0,0,1,1.42,2.4,9.82,9.82,0,0,1,.5,3.23v.78H41.47a5.08,5.08,0,0,0,.45,1.8,5.24,5.24,0,0,0,1,1.5,4.64,4.64,0,0,0,1.47,1,4.45,4.45,0,0,0,1.84.38,5.87,5.87,0,0,0,2.68-.56,6.13,6.13,0,0,0,2-1.66Zm-2.09-6a4.19,4.19,0,0,0-1.22-3,4.37,4.37,0,0,0-3.18-1.13A4.7,4.7,0,0,0,43,26.64a4.75,4.75,0,0,0-1.5,3Z" transform="translate(-14.45 -0.74)"/><path class="cls-1" d="M58.43,27.11c0-.67,0-1.29-.06-1.88s-.06-1.11-.06-1.59h2.31c0,.4,0,.79,0,1.19s0,.8,0,1.21h.07a4.27,4.27,0,0,1,.7-1,5.22,5.22,0,0,1,1.07-.89,6,6,0,0,1,1.41-.62,6.62,6.62,0,0,1,3.67.06,4.83,4.83,0,0,1,1.32.72,3.35,3.35,0,0,1,.83.91c.2.32.36.6.49.85a6.74,6.74,0,0,1,1.87-2,4.73,4.73,0,0,1,2.75-.73,7.16,7.16,0,0,1,2.62.42,4.06,4.06,0,0,1,1.71,1.22,4.78,4.78,0,0,1,.94,1.93,10.51,10.51,0,0,1,.28,2.54v8.87H78V29.51A7.19,7.19,0,0,0,77.82,28a3.36,3.36,0,0,0-.56-1.28,3,3,0,0,0-1.09-.9,3.89,3.89,0,0,0-1.75-.35,3.5,3.5,0,0,0-1.47.32,3.56,3.56,0,0,0-1.2.87,4.17,4.17,0,0,0-.81,1.36,5,5,0,0,0-.3,1.76v8.43H68.21V30a6.61,6.61,0,0,0-.66-3.45,2.37,2.37,0,0,0-2.15-1,4.74,4.74,0,0,0-2.05.41A3.58,3.58,0,0,0,62,27.07a5,5,0,0,0-.81,1.78,9,9,0,0,0-.27,2.28v7.12H58.43Z" transform="translate(-14.45 -0.74)"/><path class="cls-1" d="M85.57,30.94a7.89,7.89,0,0,1,.6-3.12,7.35,7.35,0,0,1,1.62-2.42,7.25,7.25,0,0,1,2.47-1.57,9,9,0,0,1,6.24,0A7.25,7.25,0,0,1,99,25.4a7.51,7.51,0,0,1,1.62,2.42,8.57,8.57,0,0,1,0,6.25A7.51,7.51,0,0,1,99,36.49a7.25,7.25,0,0,1-2.47,1.57,8.82,8.82,0,0,1-6.24,0,7.25,7.25,0,0,1-2.47-1.57,7.35,7.35,0,0,1-1.62-2.42A7.9,7.9,0,0,1,85.57,30.94Zm2.63,0a6.16,6.16,0,0,0,.36,2.14,4.93,4.93,0,0,0,1,1.72A5.19,5.19,0,0,0,91.24,36a5.66,5.66,0,0,0,4.28,0,5.19,5.19,0,0,0,1.64-1.16,5.08,5.08,0,0,0,1-1.72,6.51,6.51,0,0,0,0-4.27,5.08,5.08,0,0,0-1-1.72,4.87,4.87,0,0,0-1.64-1.15,5.54,5.54,0,0,0-4.28,0,4.87,4.87,0,0,0-1.64,1.15,4.93,4.93,0,0,0-1,1.72A6.1,6.1,0,0,0,88.2,30.94Z" transform="translate(-14.45 -0.74)"/><path class="cls-2" d="M119.09,35.21a6,6,0,0,0,.55-2.61,5.33,5.33,0,0,0-.83-3.17,5.78,5.78,0,0,0-2.07-1.8,13.35,13.35,0,0,0-2.72-1,21.28,21.28,0,0,1-2.76-.9,6.09,6.09,0,0,1-2.15-1.43,3.71,3.71,0,0,1-.87-2.62,4.05,4.05,0,0,1,.42-1.89,4,4,0,0,1,1.11-1.33,4.94,4.94,0,0,1,1.61-.79,6.82,6.82,0,0,1,1.93-.27,5.43,5.43,0,0,1,2.53.56,5.36,5.36,0,0,1,1.8,1.58l1.61-1.16a6.33,6.33,0,0,0-2.56-2,8.65,8.65,0,0,0-3.32-.63,9.28,9.28,0,0,0-2.65.38,6.92,6.92,0,0,0-2.23,1.14A5.6,5.6,0,0,0,107,19.08a5.67,5.67,0,0,0-.56,2.56,6.33,6.33,0,0,0,.47,2.58A5,5,0,0,0,108.13,26a6.8,6.8,0,0,0,1.8,1.12c.67.29,1.37.55,2.08.78l2.1.69a9.43,9.43,0,0,1,1.84.84,3.92,3.92,0,0,1,1.33,1.26,3.56,3.56,0,0,1,.5,2,4.08,4.08,0,0,1-.4,1.84,4.24,4.24,0,0,1-1.09,1.39,4.92,4.92,0,0,1-1.61.89,6,6,0,0,1-2,.32,6.35,6.35,0,0,1-3-.7,5.31,5.31,0,0,1-2.09-2l-1.79,1.2a7.18,7.18,0,0,0,3,2.45,10.24,10.24,0,0,0,4,.76,8.16,8.16,0,0,0,2.56-.4,6.51,6.51,0,0,0,2.17-1.18A5.88,5.88,0,0,0,119.09,35.21Z" transform="translate(-14.45 -0.74)"/><path class="cls-2" d="M130.69,36.59a9.21,9.21,0,0,1-.93.31,4.67,4.67,0,0,1-1.1.14,2.09,2.09,0,0,1-1.54-.56,2.14,2.14,0,0,1-.56-1.57v-9.5h4.12V23.93h-4.12V19.78h-1.67v4.15h-3.12v1.48h3.12v9.5a4.6,4.6,0,0,0,.2,1.42,2.76,2.76,0,0,0,1.73,1.9,4.28,4.28,0,0,0,1.68.29,5.6,5.6,0,0,0,1.2-.15c.42-.1.8-.2,1.13-.31Z" transform="translate(-14.45 -0.74)"/><path class="cls-2" d="M144.13,35.68l0-.06h.23l0,.07a4.42,4.42,0,0,1,.09,1c0,.47,0,1,0,1.46h1.67q0-.26,0-.69c0-.36,0-.73-.05-1.11s0-.79,0-1.17,0-.71,0-1V23.93h-1.67V31a8.05,8.05,0,0,1-.4,2.64,5.63,5.63,0,0,1-1.08,1.88,4.31,4.31,0,0,1-1.63,1.11,5.29,5.29,0,0,1-2,.37,4,4,0,0,1-1.88-.4,3,3,0,0,1-1.13-1.09,4.53,4.53,0,0,1-.55-1.51,8.88,8.88,0,0,1-.16-1.72V23.93H133.9v8.48a12.19,12.19,0,0,0,.21,2.29,5.23,5.23,0,0,0,.81,1.95A4.36,4.36,0,0,0,136.57,38a6.13,6.13,0,0,0,2.72.52,5.35,5.35,0,0,0,3-.84A4.91,4.91,0,0,0,144.13,35.68Z" transform="translate(-14.45 -0.74)"/><path class="cls-2" d="M162.53,36.94a4.52,4.52,0,0,0,1.07-1.27l0-.05h.22v2.53h1.67V14.75h-1.67V26.46h-.22l0-.05a4.52,4.52,0,0,0-1.07-1.27,6.26,6.26,0,0,0-1.4-.89,7.16,7.16,0,0,0-1.58-.53,8.54,8.54,0,0,0-1.64-.17,8.07,8.07,0,0,0-3,.56,6.87,6.87,0,0,0-2.36,1.55A7,7,0,0,0,151,28a8.34,8.34,0,0,0,0,6,7.21,7.21,0,0,0,1.53,2.38A7,7,0,0,0,154.89,38a8.07,8.07,0,0,0,3,.55,7.75,7.75,0,0,0,1.64-.17,7,7,0,0,0,1.58-.52A6,6,0,0,0,162.53,36.94Zm-4.62.1a5.89,5.89,0,0,1-2.41-.48,5.73,5.73,0,0,1-1.84-1.28,5.39,5.39,0,0,1-1.16-1.91,7,7,0,0,1,0-4.66,5.39,5.39,0,0,1,1.16-1.91,5.55,5.55,0,0,1,1.84-1.29,6.06,6.06,0,0,1,2.41-.47,6.21,6.21,0,0,1,2.42.47,6.28,6.28,0,0,1,1.93,1.29,6,6,0,0,1,1.3,1.9A5.8,5.8,0,0,1,164,31a5.72,5.72,0,0,1-.48,2.33,5.89,5.89,0,0,1-1.3,1.91A6.17,6.17,0,0,1,157.91,37Z" transform="translate(-14.45 -0.74)"/><rect class="cls-2" x="156.04" y="23.18" width="1.67" height="14.22"/><path class="cls-2" d="M172.25,17.19a1.21,1.21,0,0,0-.92-.38,1.23,1.23,0,0,0-.93.38,1.32,1.32,0,0,0,0,1.85,1.23,1.23,0,0,0,.93.38,1.31,1.31,0,0,0,.92-2.23Z" transform="translate(-14.45 -0.74)"/><path class="cls-2" d="M190.43,34a8.48,8.48,0,0,0,0-6,7,7,0,0,0-3.93-3.92,7.93,7.93,0,0,0-3-.56,8.12,8.12,0,0,0-3,.56,6.87,6.87,0,0,0-2.36,1.55A7,7,0,0,0,176.57,28a8.34,8.34,0,0,0,0,6,7.08,7.08,0,0,0,1.54,2.38A6.87,6.87,0,0,0,180.47,38a8.12,8.12,0,0,0,3,.55,7.93,7.93,0,0,0,3-.55A6.95,6.95,0,0,0,190.43,34Zm-4.52,2.52a6.32,6.32,0,0,1-4.83,0,5.73,5.73,0,0,1-1.84-1.28,5.39,5.39,0,0,1-1.16-1.91,7,7,0,0,1,0-4.66,5.39,5.39,0,0,1,1.16-1.91,5.76,5.76,0,0,1,1.84-1.29,6.44,6.44,0,0,1,4.83,0,5.55,5.55,0,0,1,1.84,1.29,5.39,5.39,0,0,1,1.16,1.91,7,7,0,0,1,0,4.66,5.39,5.39,0,0,1-1.16,1.91A5.52,5.52,0,0,1,185.91,36.56Z" transform="translate(-14.45 -0.74)"/><path class="cls-3" d="M215.73,11.52V24.94a6.72,6.72,0,0,1,10.18,5.77h0l5-1.64-.42-1.89a11.78,11.78,0,0,0-8.29-7.91V11.49a5.87,5.87,0,1,0-6.5,0Z" transform="translate(-14.45 -0.74)"/><path class="cls-2" d="M245.68,41a5.85,5.85,0,0,0-2.78-3.53,6,6,0,0,0-5.57-.1l-10-5.62L225.9,31a6.72,6.72,0,0,1-10.21,5.49l-1,5.13a10.25,10.25,0,0,0,4.32,1,11.51,11.51,0,0,0,8.4-3.29l6.79,3.81a5.87,5.87,0,1,0,11.51-2Z" transform="translate(-14.45 -0.74)"/><path class="cls-4" d="M212.46,30.71A6.73,6.73,0,0,1,215.69,25l-3.88-3.51a12.1,12.1,0,0,0-4,12.16l-7.17,3.89a6,6,0,0,0-5.52.2,5.87,5.87,0,1,0,8.8,5.42l9.93-5.75,1.74-1A6.7,6.7,0,0,1,212.46,30.71Z" transform="translate(-14.45 -0.74)"/></svg>