<?xml version="1.0" encoding="utf-8"?>
<!-- Generator: Adobe Illustrator 18.1.1, SVG Export Plug-In . SVG Version: 6.00 Build 0)  -->
<!DOCTYPE svg PUBLIC "-//W3C//DTD SVG 1.1//EN" "http://www.w3.org/Graphics/SVG/1.1/DTD/svg11.dtd">
<svg version="1.1" xmlns="http://www.w3.org/2000/svg" xmlns:xlink="http://www.w3.org/1999/xlink" x="0px" y="0px"
	 viewBox="0 0 283.46 283.46" enable-background="new 0 0 283.46 283.46" xml:space="preserve">
<g id="Layer_1" display="none">
	<g display="inline">
		<path d="M76.684,83.228V67.773H22.32v108.911h16.409v-51.819h36.637V109.41H38.729V83.228H76.684z"/>
		<path d="M129.958,60.955L76.048,176.73h17.728l12.137-26.455l6.818-15.455l16.909-37.046l16.137,37.046h-11.182v15.455h17.864
			l11.409,26.455h18L129.958,60.955z"/>
		<path d="M255.142,128.456c-3.318-4.955-7.909-8.409-13.682-10.364c5.955-5.409,8.955-12,8.955-19.819
			c0-4.273-0.909-8.5-2.773-12.682c-1.773-4.136-4.182-7.591-7.273-10.364c-3-2.682-6.682-4.591-11.046-5.727
			c-4.318-1.136-10.137-1.682-17.409-1.682H195.55V176.73h24.91c7.455,0,13.637-0.682,18.546-2.045
			c4.5-1.409,8.591-3.909,12.182-7.546c6.046-5.864,9.046-13.091,9.046-21.591C260.233,139.047,258.551,133.365,255.142,128.456z
			 M212.005,82.91h5.773c5.546,0,9.773,1.318,12.682,4c2.909,2.636,4.364,6.546,4.364,11.682c0,5.273-1.409,9.227-4.273,11.955
			s-7.318,4.046-13.455,4.046h-5.136V82.91H212.005z M238.506,156.911c-3.455,2.909-8.909,4.364-16.364,4.364h-10.137V128.32h8.318
			c8.818,0,14.955,1.591,18.409,4.727c3.546,3.227,5.273,7.136,5.273,11.864C244.006,149.729,242.187,153.729,238.506,156.911z"/>
	</g>
	<path display="inline" d="M122.458,149.229c1.182,1.045,1.909,1.636,2.591,2.273c2.091,1.955,3.227,3.682,0.045,6
		c-1.045,0.773-1.409,3.409-1.091,5c1.227,6.864,0.5,10.227-3.773,12.182c-2.136,0.955-4.591,1.318-6.955,1.545
		c-5.364,0.545-8.546-0.045-17.819,0.636c2.227-5.046,28.91-63.865,28.91-63.865s1.727,4.318,3.455,6.591
		c1.409,1.864,2.909,3.636,4.5,5.364c2.909,3.182,2.318,6.955-1.409,8.682c-3,1.364-3.909,3.864-3.682,6.909
		c0.045,0.455,0.318,0.909,0.455,1.364C129.958,148.229,129.776,148.593,122.458,149.229z"/>
</g>
<g id="Layer_2" display="none">
	<rect x="14.088" y="195.144" display="inline" fill="none" width="254.825" height="101.316"/>
	<text transform="matrix(1 0 0 1 47.2524 264.3421)" display="inline" font-family="'MyriadPro-Cond'" font-size="100">Forms</text>
	<rect x="14.088" y="195.144" display="inline" fill="none" width="254.825" height="101.316"/>
	<text transform="matrix(1 0 0 1 47.2524 264.3421)" display="inline" font-family="'MyriadPro-Cond'" font-size="100">Forms</text>
</g>
<g id="Layer_20" display="none">
	<rect x="14.088" y="195.144" display="inline" fill="none" width="254.825" height="101.316"/>
	<text transform="matrix(1 0 0 1 50.2515 264.3421)" display="inline" font-family="'MyriadPro-Cond'" font-size="100">Photo</text>
</g>
<g id="Layer_18" display="none">
	<rect x="14.088" y="195.144" display="inline" fill="none" width="254.825" height="101.316"/>
	<text transform="matrix(1 0 0 1 33.103 264.3421)" display="inline" font-family="'MyriadPro-Cond'" font-size="100">History</text>
</g>
<g id="Layer_19" display="none">
	<rect x="14.088" y="195.144" display="inline" fill="none" width="254.825" height="101.316"/>
	<text transform="matrix(1 0 0 1 54.0024 264.3421)" display="inline" font-family="'MyriadPro-Cond'" font-size="100">Facial </text>
</g>
<g id="Layer_3" display="none">
	<rect x="14.088" y="195.144" display="inline" fill="none" width="254.825" height="101.316"/>
	<text transform="matrix(1 0 0 1 44.8018 264.3421)" display="inline" font-family="'MyriadPro-Cond'" font-size="100">Dicom</text>
</g>
<g id="Layer_12" display="none">
	<rect x="14.088" y="195.144" display="inline" fill="none" width="254.825" height="101.316"/>
	<text transform="matrix(1 0 0 1 88.5513 264.3421)" display="inline" font-family="'MyriadPro-Cond'" font-size="100">STL</text>
</g>
<g id="Layer_9" display="none">
	<g display="inline">
		<path d="M59.903,255.441c2.3,1.5,6.3,2.7,9.7,2.7c7,0,11.201-4.601,11.201-11.401c0-6.2-3.6-10-8.9-14
			c-5.3-3.7-12.701-10.001-12.701-18.701c0-10.201,7.101-17.701,17.801-17.701c4.2,0,7.9,1.3,9.5,2.5l-1.9,6.601
			c-1.7-1.2-4.5-2.301-8-2.301c-6.6,0-9.701,5.001-9.701,9.601c0,6.701,3.5,9.301,9.901,13.901c8.101,5.7,11.701,11.9,11.701,19.401
			c0,11.601-8.201,18.9-18.901,18.9c-4.6,0-9.5-1.5-11.4-2.899L59.903,255.441z"/>
		<path d="M97.201,228.439c0-5.7-0.3-8.601-0.4-12.501h6.7l0.4,6.001h0.2c2.1-3.9,5.8-6.801,10.9-6.801c4.5,0,8.301,2.2,10.101,7.4
			h0.2c1.3-2.4,3-4.3,4.8-5.5c1.9-1.3,4.2-1.9,6.701-1.9c6.5,0,11.601,4.801,11.601,17.102v32.102h-7.601V234.04
			c0-6.301-0.9-12.4-6.8-12.4c-3.2,0-6,2.7-7.101,7.2c-0.2,1.3-0.3,2.8-0.3,4.4v31.102h-7.601V232.64c0-5.4-1-11-6.7-11
			c-3.101,0-6.301,2.7-7.201,7.8c-0.2,1.301-0.3,2.7-0.3,4.2v30.702h-7.601V228.439z"/>
		<path d="M167.501,203.438c0.1,3-1.801,5-4.7,5c-2.501,0-4.4-2-4.4-5c0-3.001,2-5.001,4.5-5.001
			C165.7,198.438,167.501,200.438,167.501,203.438z M159.2,264.342v-48.403h7.7v48.403H159.2z"/>
		<path d="M177.6,195.138h7.7v69.204h-7.7V195.138z"/>
		<path d="M202.1,240.841c0.1,14.801,5.9,18.001,11.501,18.001c3.3,0,6.1-0.801,8-1.9l1.2,5.7c-2.7,1.5-6.801,2.3-10.601,2.3
			c-11.601,0-17.602-9.5-17.602-24.301c0-15.701,6.601-25.502,16.302-25.502c9.9,0,13.801,10.4,13.801,21.401
			c0,1.8,0,3.101-0.101,4.301H202.1z M217.301,235.14c0.199-9.7-3.501-14.001-7.201-14.001c-5,0-7.6,7.401-7.9,14.001H217.301z"/>
	</g>
</g>
<g id="Layer_22" display="none">
	<rect x="14.088" y="195.144" display="inline" fill="none" width="254.825" height="101.316"/>
	<text transform="matrix(1 0 0 1 64.502 264.3421)" display="inline" font-family="'MyriadPro-Cond'" font-size="100">Ceph</text>
</g>
<g id="Layer_10" display="none">
	<rect x="14.088" y="195.144" display="inline" fill="none" width="254.825" height="101.316"/>
	<text transform="matrix(1 0 0 1 28.7031 264.3421)" display="inline" font-family="'MyriadPro-Cond'" font-size="100">Tracing</text>
</g>
<g id="Layer_4" display="none">
	<rect x="14.088" y="66.702" display="inline" fill="none" width="254.386" height="102.193"/>
	<text transform="matrix(1 0 0 1 25.4994 167.0395)" display="inline" font-family="'MyriadPro-BoldCond'" font-size="145">Scan</text>
</g>
<g id="Layer_21" display="none">
	<rect x="0.486" y="66.702" display="inline" fill="none" width="282.38" height="102.193"/>
	<text transform="matrix(1 0 0 1 3.4203 167.0395)" display="inline" font-family="'MyriadPro-BoldCond'" font-size="145">COEM</text>
</g>
<g id="Layer_15" display="none">
	<path display="inline" fill="none" stroke="#000000" stroke-width="20.8545" stroke-miterlimit="10" d="M214.042,159.553
		c0-42.924-34.797-77.721-77.721-77.721c-34.339,0-62.177,27.837-62.177,62.177c0,27.471,22.27,49.741,49.741,49.741
		c21.977,0,39.793-17.816,39.793-39.793c0-17.582-14.253-31.834-31.834-31.834c-14.065,0-25.468,11.402-25.468,25.468
		c0,11.252,9.122,20.374,20.374,20.374c9.002,0,16.299-7.297,16.299-16.299c0-7.201-5.838-13.039-13.039-13.039
		c-5.761,0-10.431,4.67-10.431,10.432c0,4.609,3.736,8.345,8.345,8.345c3.687,0,6.676-2.989,6.676-6.676
		c0-2.95-2.391-5.341-5.341-5.341"/>
</g>
<g id="Layer_11" display="none">
	<rect x="14.088" y="66.702" display="inline" fill="none" width="254.386" height="102.193"/>
	<text transform="matrix(1 0 0 1 36.0131 167.0395)" display="inline" font-family="'MyriadPro-BoldCond'" font-size="145">Cast</text>
</g>
<g id="Layer_5" display="none">
	<rect x="178.561" y="108.509" display="inline" fill="none" width="89.912" height="89.912"/>
	<rect x="212.208" y="6.364" display="inline" fill="none" width="74.266" height="81.295"/>
	
		<text transform="matrix(1 0 0 1 217.2295 56.187)" display="inline" font-family="'MyriadPro-BoldCond'" font-size="72" letter-spacing="-1">3D</text>
</g>
<g id="Layer_13" display="none">
	<rect x="98.194" y="6.364" display="inline" fill="none" width="162.178" height="81.295"/>
	
		<text transform="matrix(1 0 0 1 128.1836 56.187)" display="inline" font-family="'MyriadPro-Cond'" font-size="72" letter-spacing="-1">Arnett</text>
</g>
<g id="Layer_17" display="none">
	<rect x="14.088" y="66.702" display="inline" fill="none" width="254.386" height="102.193"/>
	<text transform="matrix(1 0 0 1 29.1962 167.0395)" display="inline" font-family="'MyriadPro-BoldCond'" font-size="145">MHS</text>
</g>
<g id="Layer_16" display="none">
	<g display="inline">
		<path d="M193.213,15.346V8.315h-24.732v49.547h7.465V34.288h16.667v-7.031h-16.667V15.346H193.213z"/>
		<path d="M217.449,5.213l-24.525,52.669h8.065l5.521-12.035l3.102-7.031l7.693-16.853l7.341,16.853h-5.087v7.031h8.127l5.19,12.035
			h8.189L217.449,5.213z"/>
		<path d="M274.399,35.922c-1.51-2.254-3.598-3.826-6.224-4.715c2.709-2.461,4.074-5.459,4.074-9.016
			c0-1.944-0.414-3.867-1.261-5.769c-0.806-1.882-1.902-3.453-3.309-4.715c-1.365-1.22-3.04-2.089-5.025-2.606
			c-1.965-0.517-4.611-0.765-7.92-0.765h-7.444v49.547h11.332c3.391,0,6.204-0.31,8.437-0.931c2.047-0.641,3.908-1.778,5.542-3.433
			c2.75-2.668,4.115-5.956,4.115-9.823C276.715,40.74,275.95,38.155,274.399,35.922z M254.775,15.201h2.626
			c2.523,0,4.446,0.6,5.769,1.82c1.323,1.199,1.985,2.978,1.985,5.315c0,2.399-0.641,4.198-1.944,5.439
			c-1.303,1.241-3.329,1.84-6.121,1.84h-2.337V15.201H254.775z M266.83,48.867c-1.572,1.323-4.053,1.985-7.444,1.985h-4.611V35.86
			h3.784c4.012,0,6.803,0.724,8.375,2.151c1.613,1.468,2.399,3.247,2.399,5.397C269.333,45.599,268.505,47.419,266.83,48.867z"/>
	</g>
	<path display="inline" d="M214.037,45.372c0.538,0.476,0.869,0.744,1.179,1.034c0.951,0.889,1.468,1.675,0.021,2.73
		c-0.476,0.352-0.641,1.551-0.496,2.275c0.558,3.123,0.227,4.653-1.716,5.542c-0.972,0.434-2.089,0.6-3.164,0.703
		c-2.44,0.248-3.888-0.021-8.106,0.29c1.013-2.295,13.152-29.054,13.152-29.054s0.786,1.965,1.572,2.998
		c0.641,0.848,1.323,1.654,2.047,2.44c1.323,1.448,1.055,3.164-0.641,3.95c-1.365,0.62-1.778,1.758-1.675,3.143
		c0.021,0.207,0.145,0.414,0.207,0.62C217.449,44.917,217.366,45.082,214.037,45.372z"/>
</g>
<g id="Layer_14" display="none">
	<rect x="98.194" y="6.364" display="inline" fill="none" width="162.178" height="81.295"/>
	
		<text transform="matrix(1 0 0 1 124.9434 56.187)" display="inline" font-family="'MyriadPro-Cond'" font-size="72" letter-spacing="-1">Levine</text>
</g>
<g id="Layer_7" display="none">
	<rect x="212.208" y="6.364" display="inline" fill="none" width="74.266" height="81.295"/>
	
		<text transform="matrix(1 0 0 1 217.2295 56.187)" display="inline" font-family="'MyriadPro-BoldCond'" font-size="72" letter-spacing="-1">2D</text>
</g>
<g id="Layer_6" display="none">
	<rect x="14.088" y="66.702" display="inline" fill="none" width="254.386" height="102.193"/>
	<text transform="matrix(1 0 0 1 16.6556 167.0395)" display="inline" font-family="'MyriadPro-BoldCond'" font-size="145">Ceph</text>
</g>
<g id="Layer_8" display="none">
	<rect x="14.088" y="66.702" display="inline" fill="none" width="254.386" height="102.193"/>
	<text transform="matrix(1 0 0 1 41.5214 167.0395)" display="inline" font-family="'MyriadPro-BoldCond'" font-size="145">DSD</text>
	<rect x="212.208" y="6.364" display="inline" fill="none" width="74.266" height="81.295"/>
	
		<text transform="matrix(1 0 0 1 217.2295 56.187)" display="inline" font-family="'MyriadPro-BoldCond'" font-size="72" letter-spacing="-1">2D</text>
</g>
<g id="Layer_24" display="none">
	<path display="inline" fill-rule="evenodd" clip-rule="evenodd" d="M266.348,103.247c-31.777,16.525-72.466-2.954-100.258,2.019
		c-5.838,1.044-14.573,4.339-24.413,4.372h-0.146c-9.901,0-18.696-3.324-24.561-4.372c-22.362-4.002-54.535,9.347-81.91,5.04
		c-6.646-1.045-14.432-5.409-16.629-8.779c-7.179-1.01-13.541,3.876-8.784,6.766c23.613,14.337,35.817,38.608,58.541,54.502
		c20.913,14.629,44.155,25.57,73.344,25.57h0.146c29.119-0.037,52.318-10.966,73.195-25.57
		c22.723-15.894,34.927-40.165,58.541-54.502c1.277-0.777,1.878-1.571,1.933-2.3v-0.234
		C275.185,103.892,271.39,102.538,266.348,103.247z M265.964,108.966c-45.989,17.839-63.43,40.521-124.287,40.523h-0.001
		c-60.857,0-78.3-22.684-124.288-40.523c-2.661-1.33-2.408-4.619,2.212-2.404c8.782,4.342,18.285,8.682,29.529,11.824
		c22.002,6.147,50.275,8.931,92.547,6.73h0.001c42.271,2.202,70.543-0.583,92.546-6.73c11.245-3.143,20.748-7.482,29.529-11.824
		C268.371,104.346,268.626,107.635,265.964,108.966z"/>
	
		<rect x="130.461" y="6.079" transform="matrix(0.9999 -0.0127 0.0127 0.9999 -0.5437 1.8043)" display="inline" fill-rule="evenodd" clip-rule="evenodd" width="22.525" height="75.231"/>
</g>
<g id="Layer_23" display="none">
	<polygon display="inline" fill-rule="evenodd" clip-rule="evenodd" fill="#010101" points="279.188,148.558 148.448,148.558 
		148.448,279.298 135.647,279.298 135.647,148.558 4.907,148.558 4.907,135.76 135.647,135.76 135.647,5.017 148.448,5.017 
		148.448,135.76 279.188,135.76 	"/>
</g>
<g id="Layer_25" display="none">
	<rect x="134.412" y="2.952" display="inline" fill-rule="evenodd" clip-rule="evenodd" width="18.544" height="277.795"/>
	<rect x="3" y="129.769" display="inline" fill-rule="evenodd" clip-rule="evenodd" width="277.795" height="18.544"/>
</g>
<g id="Layer_26" display="none">
	<path display="inline" fill="#010101" d="M241.929,65.43c-5.968-8.135-14.291-17.662-23.423-26.794s-18.66-17.456-26.794-23.423
		C177.85,5.048,171.126,3.879,167.273,3.879H33.99c-11.849,0-21.497,9.648-21.497,21.497v232.171
		c0,11.849,9.648,21.497,21.497,21.497h107.487c4.747,0,8.599-3.852,8.599-8.599c0-4.747-3.852-8.599-8.599-8.599H33.99
		c-2.322,0-4.299-1.961-4.299-4.299V25.376c0-2.322,1.978-4.299,4.299-4.299c0,0,133.266,0,133.283,0v60.192
		c0,4.747,3.852,8.599,8.599,8.599h60.192v60.192c0,4.747,3.852,8.599,8.599,8.599c4.747,0,8.599-3.852,8.599-8.599V89.868
		C253.263,86.016,252.093,79.291,241.929,65.43z M184.471,72.67V31.309c6.174,4.781,13.621,11.247,21.858,19.502
		c8.238,8.255,14.721,15.684,19.502,21.858h-41.378H184.471z"/>
	<path display="inline" fill="#010101" d="M270.461,210.253h-34.396v-34.396h-34.396v34.396h-34.396v34.396h34.396v34.396h34.396
		v-34.396h34.396V210.253z"/>
	<rect x="36.868" y="106.006" display="inline" fill="none" width="141.805" height="155.227"/>
	
		<text transform="matrix(1 0 0 1 50.6828 194.5799)" display="inline" font-family="'MyriadPro-BoldCond'" font-size="128" letter-spacing="-3">2D</text>
</g>
<g id="Layer_35" display="none">
	<path display="inline" fill="#FFFFFF" d="M241.929,65.43c-5.968-8.135-14.291-17.662-23.423-26.794s-18.66-17.456-26.794-23.423
		C177.85,5.048,171.126,3.879,167.273,3.879H33.99c-11.849,0-21.497,9.648-21.497,21.497v232.171
		c0,11.849,9.648,21.497,21.497,21.497h107.487c4.747,0,8.599-3.852,8.599-8.599c0-4.747-3.852-8.599-8.599-8.599H33.99
		c-2.322,0-4.299-1.961-4.299-4.299V25.376c0-2.322,1.978-4.299,4.299-4.299c0,0,133.266,0,133.283,0v60.192
		c0,4.747,3.852,8.599,8.599,8.599h60.192v60.192c0,4.747,3.852,8.599,8.599,8.599c4.747,0,8.599-3.852,8.599-8.599V89.868
		C253.263,86.016,252.093,79.291,241.929,65.43z M184.471,72.67V31.309c6.174,4.781,13.621,11.247,21.858,19.502
		c8.238,8.255,14.721,15.684,19.502,21.858h-41.378H184.471z"/>
	<path display="inline" fill="#FFFFFF" d="M270.461,210.253h-34.396v-34.396h-34.396v34.396h-34.396v34.396h34.396v34.396h34.396
		v-34.396h34.396V210.253z"/>
	<g display="inline">
		<path fill="#FFFFFF" d="M53.755,194.58v-11.265l8.32-10.625c10.753-13.696,19.585-25.089,19.585-36.993
			c0-6.656-3.712-11.393-10.625-11.393c-5.248,0-9.472,2.304-12.544,4.224l-2.944-13.057c3.84-2.432,11.009-5.12,18.561-5.12
			c18.177,0,24.065,12.161,24.065,24.065c0,15.617-9.729,28.161-19.329,39.297l-4.992,5.889v0.256h25.474v14.721H53.755z"/>
		<path fill="#FFFFFF" d="M109.435,109.584c4.224-1.024,10.368-1.664,17.024-1.664c10.881,0,18.433,2.56,23.938,7.681
			c7.424,6.656,11.264,18.049,11.264,34.817c0,17.408-4.479,29.825-12.032,36.481c-5.76,5.632-14.337,8.32-26.369,8.32
			c-5.248,0-10.496-0.512-13.824-0.896V109.584z M126.203,181.268c0.768,0.256,2.048,0.256,2.944,0.256
			c8.063,0,15.104-7.937,15.104-31.746c0-17.664-4.608-28.417-14.721-28.417c-1.152,0-2.305,0-3.328,0.384V181.268z"/>
	</g>
</g>
<g id="Layer_27" display="none">
	<path display="inline" fill="#010101" d="M241.929,65.43c-5.968-8.135-14.291-17.662-23.423-26.794s-18.66-17.456-26.794-23.423
		C177.85,5.048,171.126,3.879,167.273,3.879H33.99c-11.849,0-21.497,9.648-21.497,21.497v232.171
		c0,11.849,9.648,21.497,21.497,21.497h107.487c4.747,0,8.599-3.852,8.599-8.599c0-4.747-3.852-8.599-8.599-8.599H33.99
		c-2.322,0-4.299-1.961-4.299-4.299V25.376c0-2.322,1.978-4.299,4.299-4.299c0,0,133.266,0,133.283,0v60.192
		c0,4.747,3.852,8.599,8.599,8.599h60.192v60.192c0,4.747,3.852,8.599,8.599,8.599c4.747,0,8.599-3.852,8.599-8.599V89.868
		C253.263,86.016,252.093,79.291,241.929,65.43z M184.471,72.67V31.309c6.174,4.781,13.621,11.247,21.858,19.502
		c8.238,8.255,14.721,15.684,19.502,21.858h-41.378H184.471z"/>
	<path display="inline" fill="#010101" d="M270.461,210.253h-34.396v-34.396h-34.396v34.396h-34.396v34.396h34.396v34.396h34.396
		v-34.396h34.396V210.253z"/>
	<rect x="36.868" y="106.006" display="inline" fill="none" width="141.805" height="155.227"/>
	
		<text transform="matrix(1 0 0 1 50.6828 194.5799)" display="inline" font-family="'MyriadPro-BoldCond'" font-size="128" letter-spacing="-3">3D</text>
</g>
<g id="Layer_34" display="none">
	<path display="inline" fill="#FFFFFF" d="M241.929,65.43c-5.968-8.135-14.291-17.662-23.423-26.794s-18.66-17.456-26.794-23.423
		C177.85,5.048,171.126,3.879,167.273,3.879H33.99c-11.849,0-21.497,9.648-21.497,21.497v232.171
		c0,11.849,9.648,21.497,21.497,21.497h107.487c4.747,0,8.599-3.852,8.599-8.599c0-4.747-3.852-8.599-8.599-8.599H33.99
		c-2.322,0-4.299-1.961-4.299-4.299V25.376c0-2.322,1.978-4.299,4.299-4.299c0,0,133.266,0,133.283,0v60.192
		c0,4.747,3.852,8.599,8.599,8.599h60.192v60.192c0,4.747,3.852,8.599,8.599,8.599c4.747,0,8.599-3.852,8.599-8.599V89.868
		C253.263,86.016,252.093,79.291,241.929,65.43z M184.471,72.67V31.309c6.174,4.781,13.621,11.247,21.858,19.502
		c8.238,8.255,14.721,15.684,19.502,21.858h-41.378H184.471z"/>
	<path display="inline" fill="#FFFFFF" d="M270.461,210.253h-34.396v-34.396h-34.396v34.396h-34.396v34.396h34.396v34.396h34.396
		v-34.396h34.396V210.253z"/>
	<g display="inline">
		<path fill="#FFFFFF" d="M56.187,178.707c3.328,1.92,7.937,3.2,12.417,3.2c8.064,0,12.545-4.992,12.545-12.032
			c0-9.217-7.041-13.185-15.617-13.185h-2.304v-12.289h1.664c6.144-0.128,14.08-2.688,14.08-10.752c0-6.017-3.84-9.601-9.729-9.601
			c-3.712,0-7.424,1.408-10.496,3.328l-2.176-12.672c3.456-2.176,10.24-4.353,17.152-4.353c14.593,0,21.889,9.473,21.889,20.097
			c0,8.32-4.607,15.232-11.904,18.688v0.256c8.064,2.688,14.209,9.856,14.209,21.121c0,12.673-9.729,25.089-27.777,25.089
			c-6.784,0-12.673-1.664-16.385-3.712L56.187,178.707z"/>
		<path fill="#FFFFFF" d="M109.435,109.584c4.224-1.024,10.368-1.664,17.024-1.664c10.881,0,18.433,2.56,23.938,7.681
			c7.424,6.656,11.264,18.049,11.264,34.817c0,17.408-4.479,29.825-12.032,36.481c-5.76,5.632-14.337,8.32-26.369,8.32
			c-5.248,0-10.496-0.512-13.824-0.896V109.584z M126.203,181.268c0.768,0.256,2.048,0.256,2.944,0.256
			c8.063,0,15.104-7.937,15.104-31.746c0-17.664-4.608-28.417-14.721-28.417c-1.152,0-2.305,0-3.328,0.384V181.268z"/>
	</g>
</g>
<g id="Layer_28" display="none">
	<path display="inline" fill="#010101" d="M241.929,65.43c-5.968-8.135-14.291-17.662-23.423-26.794s-18.66-17.456-26.794-23.423
		C177.85,5.048,171.126,3.879,167.273,3.879H33.99c-11.849,0-21.497,9.648-21.497,21.497v232.171
		c0,11.849,9.648,21.497,21.497,21.497h107.487c4.747,0,8.599-3.852,8.599-8.599c0-4.747-3.852-8.599-8.599-8.599H33.99
		c-2.322,0-4.299-1.961-4.299-4.299V25.376c0-2.322,1.978-4.299,4.299-4.299c0,0,133.266,0,133.283,0v60.192
		c0,4.747,3.852,8.599,8.599,8.599h60.192v60.192c0,4.747,3.852,8.599,8.599,8.599c4.747,0,8.599-3.852,8.599-8.599V89.868
		C253.263,86.016,252.093,79.291,241.929,65.43z M184.471,72.67V31.309c6.174,4.781,13.621,11.247,21.858,19.502
		c8.238,8.255,14.721,15.684,19.502,21.858h-41.378H184.471z"/>
	<path display="inline" fill="#010101" d="M270.461,210.253h-34.396v-34.396h-34.396v34.396h-34.396v34.396h34.396v34.396h34.396
		v-34.396h34.396V210.253z"/>
	<rect x="38.868" y="166.692" display="inline" fill="none" width="120.379" height="97.541"/>
	
		<text transform="matrix(1 0 0 1 47.3986 208.2103)" display="inline" font-family="'MyriadPro-BoldCond'" font-size="60" letter-spacing="-1">Form</text>
	<g display="inline">
		<path d="M77.098,104.893v-9.638H43.196v67.917h10.233v-32.314h22.847v-9.638H53.429v-16.327H77.098z"/>
		<path d="M110.32,91.003l-33.618,72.197h11.055l7.568-16.497l4.252-9.638l10.545-23.102l10.063,23.102h-6.973v9.638h11.14
			l7.115,16.497h11.225L110.32,91.003z"/>
		<path d="M188.385,133.097c-2.069-3.09-4.932-5.244-8.532-6.463c3.713-3.373,5.584-7.483,5.584-12.359
			c0-2.665-0.567-5.301-1.729-7.909c-1.105-2.579-2.608-4.734-4.535-6.463c-1.871-1.672-4.167-2.863-6.888-3.572
			c-2.693-0.709-6.321-1.049-10.857-1.049h-10.205v67.917h15.534c4.649,0,8.504-0.425,11.565-1.276
			c2.806-0.879,5.357-2.438,7.597-4.705c3.77-3.657,5.641-8.164,5.641-13.464C191.559,139.702,190.511,136.158,188.385,133.097z
			 M161.484,104.694h3.6c3.458,0,6.094,0.822,7.909,2.494c1.814,1.644,2.721,4.082,2.721,7.285c0,3.288-0.879,5.754-2.665,7.455
			c-1.786,1.701-4.564,2.523-8.39,2.523h-3.203v-19.757H161.484z M178.01,150.842c-2.154,1.814-5.556,2.721-10.205,2.721h-6.321
			v-20.551h5.187c5.499,0,9.326,0.992,11.48,2.948c2.211,2.013,3.288,4.45,3.288,7.398
			C181.44,146.363,180.306,148.857,178.01,150.842z"/>
	</g>
	<path display="inline" d="M105.643,144.051c0.737,0.652,1.191,1.02,1.616,1.417c1.304,1.219,2.013,2.296,0.028,3.742
		c-0.652,0.482-0.879,2.126-0.68,3.118c0.765,4.28,0.312,6.378-2.353,7.597c-1.332,0.595-2.863,0.822-4.337,0.964
		c-3.345,0.34-5.329-0.028-11.112,0.397c1.389-3.146,18.028-39.826,18.028-39.826s1.077,2.693,2.154,4.11
		c0.879,1.162,1.814,2.268,2.806,3.345c1.814,1.984,1.446,4.337-0.879,5.414c-1.871,0.85-2.438,2.409-2.296,4.309
		c0.028,0.283,0.198,0.567,0.283,0.85C110.32,143.428,110.206,143.654,105.643,144.051z"/>
</g>
<g id="Layer_33">
	<path fill="#FFFFFF" d="M241.929,65.43c-5.968-8.135-14.291-17.662-23.423-26.794s-18.66-17.456-26.794-23.423
		C177.85,5.048,171.126,3.879,167.273,3.879H33.99c-11.849,0-21.497,9.648-21.497,21.497v232.171
		c0,11.849,9.648,21.497,21.497,21.497h107.487c4.747,0,8.599-3.852,8.599-8.599c0-4.747-3.852-8.599-8.599-8.599H33.99
		c-2.322,0-4.299-1.961-4.299-4.299V25.376c0-2.322,1.978-4.299,4.299-4.299c0,0,133.266,0,133.283,0v60.192
		c0,4.747,3.852,8.599,8.599,8.599h60.192v60.192c0,4.747,3.852,8.599,8.599,8.599c4.747,0,8.599-3.852,8.599-8.599V89.868
		C253.263,86.016,252.093,79.291,241.929,65.43z M184.471,72.67V31.309c6.174,4.781,13.621,11.247,21.858,19.502
		c8.238,8.255,14.721,15.684,19.502,21.858h-41.378H184.471z"/>
	<path fill="#FFFFFF" d="M270.461,210.253h-34.396v-34.396h-34.396v34.396h-34.396v34.396h34.396v34.396h34.396v-34.396h34.396
		V210.253z"/>
	<g>
		<path fill="#FFFFFF" d="M42.628,167.771h17.58v6.84h-9.72v10.38h9.119v6.54h-9.119v16.679h-7.86V167.771z"/>
		<path fill="#FFFFFF" d="M83.907,193.451c0,12.239-6.779,15.239-11.22,15.239c-7.02,0-11.219-5.521-11.219-15.06
			c0-10.56,5.52-15.239,11.339-15.239C79.708,178.392,83.907,184.211,83.907,193.451z M69.269,193.451
			c0,5.039,0.779,9.239,3.6,9.239c2.52,0,3.18-4.92,3.18-9.239c0-4.021-0.66-9.12-3.3-9.12
			C69.868,184.331,69.269,189.431,69.269,193.451z"/>
		<path fill="#FFFFFF" d="M86.789,187.691c0-2.94-0.12-6.12-0.24-8.82h6.84l0.42,4.26h0.18c1.32-3.119,3.66-4.739,5.82-4.739
			c0.779,0,1.199,0,1.68,0.12v7.8c-0.48-0.12-1.021-0.12-1.68-0.12c-1.681,0-3.9,1.14-4.8,4.199c-0.181,0.66-0.301,1.681-0.301,2.94
			v14.879h-7.919V187.691z"/>
		<path fill="#FFFFFF" d="M102.988,187.691c0-3.24-0.18-6.061-0.24-8.82h6.84l0.36,3.42h0.12c1.5-2.22,3.96-3.899,7.02-3.899
			c3.3,0,5.399,1.5,6.42,3.96h0.12c0.72-1.141,1.8-2.221,2.939-2.94c1.2-0.66,2.64-1.02,4.14-1.02c5.22,0,7.56,4.14,7.56,11.22
			v18.599h-7.8v-17.279c0-3.359-0.359-6.06-2.76-6.06c-1.38,0-2.399,0.96-2.939,2.7c-0.12,0.42-0.24,1.26-0.24,2.04v18.599h-7.8
			v-18.419c0-2.1-0.239-4.92-2.699-4.92c-1.2,0-2.4,0.9-2.94,2.64c-0.18,0.54-0.3,1.38-0.3,2.22v18.479h-7.8V187.691z"/>
		<path fill="#FFFFFF" d="M142.048,201.131c1.141,0.72,3.3,1.56,5.28,1.56c2.04,0,3.18-0.9,3.18-2.64c0-1.5-0.84-2.46-3.42-3.96
			c-4.8-2.7-5.939-5.76-5.939-8.46c0-5.279,3.779-9.239,9.659-9.239c2.46,0,4.38,0.6,5.94,1.319l-1.381,5.76
			c-1.14-0.659-2.52-1.199-4.079-1.199c-1.98,0-2.94,1.199-2.94,2.52s0.66,2.04,3.42,3.66c4.32,2.46,5.94,5.52,5.94,8.879
			c0,6-4.32,9.24-10.38,9.24c-2.46,0-5.34-0.66-6.72-1.68L142.048,201.131z"/>
	</g>
	<g>
		<path fill="#FFFFFF" d="M77.098,104.893v-9.638H43.196v67.917h10.233v-32.314h22.847v-9.638H53.429v-16.327H77.098z"/>
		<path fill="#FFFFFF" d="M110.32,91.003l-33.618,72.197h11.055l7.568-16.497l4.252-9.638l10.545-23.102l10.063,23.102h-6.973v9.638
			h11.14l7.115,16.497h11.225L110.32,91.003z"/>
		<path fill="#FFFFFF" d="M188.385,133.097c-2.069-3.09-4.932-5.244-8.532-6.463c3.713-3.373,5.584-7.483,5.584-12.359
			c0-2.665-0.567-5.301-1.729-7.909c-1.105-2.579-2.608-4.734-4.535-6.463c-1.871-1.672-4.167-2.863-6.888-3.572
			c-2.693-0.709-6.321-1.049-10.857-1.049h-10.205v67.917h15.534c4.649,0,8.504-0.425,11.565-1.276
			c2.806-0.879,5.357-2.438,7.597-4.705c3.77-3.657,5.641-8.164,5.641-13.464C191.559,139.702,190.511,136.158,188.385,133.097z
			 M161.484,104.694h3.6c3.458,0,6.094,0.822,7.909,2.494c1.814,1.644,2.721,4.082,2.721,7.285c0,3.288-0.879,5.754-2.665,7.455
			c-1.786,1.701-4.564,2.523-8.39,2.523h-3.203v-19.757H161.484z M178.01,150.842c-2.154,1.814-5.556,2.721-10.205,2.721h-6.321
			v-20.551h5.187c5.499,0,9.326,0.992,11.48,2.948c2.211,2.013,3.288,4.45,3.288,7.398
			C181.44,146.363,180.306,148.857,178.01,150.842z"/>
	</g>
	<path fill="#FFFFFF" d="M105.643,144.051c0.737,0.652,1.191,1.02,1.616,1.417c1.304,1.219,2.013,2.296,0.028,3.742
		c-0.652,0.482-0.879,2.126-0.68,3.118c0.765,4.28,0.312,6.378-2.353,7.597c-1.332,0.595-2.863,0.822-4.337,0.964
		c-3.345,0.34-5.329-0.028-11.112,0.397c1.389-3.146,18.028-39.826,18.028-39.826s1.077,2.693,2.154,4.11
		c0.879,1.162,1.814,2.268,2.806,3.345c1.814,1.984,1.446,4.337-0.879,5.414c-1.871,0.85-2.438,2.409-2.296,4.309
		c0.028,0.283,0.198,0.567,0.283,0.85C110.32,143.428,110.206,143.654,105.643,144.051z"/>
</g>
<g id="Layer_29" display="none">
	<path display="inline" fill="#010101" d="M241.929,65.43c-5.968-8.135-14.291-17.662-23.423-26.794s-18.66-17.456-26.794-23.423
		C177.85,5.048,171.126,3.879,167.273,3.879H33.99c-11.849,0-21.497,9.648-21.497,21.497v232.171
		c0,11.849,9.648,21.497,21.497,21.497h107.487c4.747,0,8.599-3.852,8.599-8.599c0-4.747-3.852-8.599-8.599-8.599H33.99
		c-2.322,0-4.299-1.961-4.299-4.299V25.376c0-2.322,1.978-4.299,4.299-4.299c0,0,133.266,0,133.283,0v60.192
		c0,4.747,3.852,8.599,8.599,8.599h60.192v60.192c0,4.747,3.852,8.599,8.599,8.599c4.747,0,8.599-3.852,8.599-8.599V89.868
		C253.263,86.016,252.093,79.291,241.929,65.43z M184.471,72.67V31.309c6.174,4.781,13.621,11.247,21.858,19.502
		c8.238,8.255,14.721,15.684,19.502,21.858h-41.378H184.471z"/>
	<path display="inline" fill="#010101" d="M270.461,210.253h-34.396v-34.396h-34.396v34.396h-34.396v34.396h34.396v34.396h34.396
		v-34.396h34.396V210.253z"/>
	<rect x="38.868" y="166.692" display="inline" fill="none" width="120.379" height="97.541"/>
	
		<text transform="matrix(1 0 0 1 38.8684 208.2103)" display="inline" font-family="'MyriadPro-BoldCond'" font-size="60" letter-spacing="-1">Form</text>
	<rect x="38.868" y="105.426" display="inline" fill="none" width="155.54" height="97.541"/>
	
		<text transform="matrix(1 0 0 1 38.8684 155.2497)" display="inline" font-family="'MyriadPro-BoldCond'" font-size="72" letter-spacing="-1">Levin</text>
</g>
<g id="Layer_32" display="none">
	<path display="inline" fill="#FFFFFF" d="M241.929,65.43c-5.968-8.135-14.291-17.662-23.423-26.794s-18.66-17.456-26.794-23.423
		C177.85,5.048,171.126,3.879,167.273,3.879H33.99c-11.849,0-21.497,9.648-21.497,21.497v232.171
		c0,11.849,9.648,21.497,21.497,21.497h107.487c4.747,0,8.599-3.852,8.599-8.599c0-4.747-3.852-8.599-8.599-8.599H33.99
		c-2.322,0-4.299-1.961-4.299-4.299V25.376c0-2.322,1.978-4.299,4.299-4.299c0,0,133.266,0,133.283,0v60.192
		c0,4.747,3.852,8.599,8.599,8.599h60.192v60.192c0,4.747,3.852,8.599,8.599,8.599c4.747,0,8.599-3.852,8.599-8.599V89.868
		C253.263,86.016,252.093,79.291,241.929,65.43z M184.471,72.67V31.309c6.174,4.781,13.621,11.247,21.858,19.502
		c8.238,8.255,14.721,15.684,19.502,21.858h-41.378H184.471z"/>
	<path display="inline" fill="#FFFFFF" d="M270.461,210.253h-34.396v-34.396h-34.396v34.396h-34.396v34.396h34.396v34.396h34.396
		v-34.396h34.396V210.253z"/>
	<g display="inline">
		<path fill="#FFFFFF" d="M42.348,167.771h17.58v6.84h-9.72v10.38h9.119v6.54h-9.119v16.679h-7.86V167.771z"/>
		<path fill="#FFFFFF" d="M83.627,193.451c0,12.239-6.779,15.239-11.219,15.239c-7.021,0-11.22-5.521-11.22-15.06
			c0-10.56,5.52-15.239,11.339-15.239C79.428,178.392,83.627,184.211,83.627,193.451z M68.988,193.451
			c0,5.039,0.779,9.239,3.6,9.239c2.52,0,3.18-4.92,3.18-9.239c0-4.021-0.66-9.12-3.3-9.12
			C69.588,184.331,68.988,189.431,68.988,193.451z"/>
		<path fill="#FFFFFF" d="M86.509,187.691c0-2.94-0.12-6.12-0.24-8.82h6.84l0.42,4.26h0.18c1.32-3.119,3.66-4.739,5.82-4.739
			c0.779,0,1.199,0,1.68,0.12v7.8c-0.48-0.12-1.021-0.12-1.68-0.12c-1.681,0-3.9,1.14-4.8,4.199c-0.181,0.66-0.301,1.681-0.301,2.94
			v14.879h-7.919V187.691z"/>
		<path fill="#FFFFFF" d="M102.708,187.691c0-3.24-0.18-6.061-0.24-8.82h6.84l0.36,3.42h0.12c1.5-2.22,3.96-3.899,7.02-3.899
			c3.3,0,5.399,1.5,6.42,3.96h0.12c0.72-1.141,1.8-2.221,2.939-2.94c1.2-0.66,2.64-1.02,4.14-1.02c5.22,0,7.56,4.14,7.56,11.22
			v18.599h-7.799v-17.279c0-3.359-0.36-6.06-2.761-6.06c-1.38,0-2.399,0.96-2.939,2.7c-0.12,0.42-0.24,1.26-0.24,2.04v18.599h-7.8
			v-18.419c0-2.1-0.239-4.92-2.699-4.92c-1.2,0-2.4,0.9-2.94,2.64c-0.18,0.54-0.3,1.38-0.3,2.22v18.479h-7.8V187.691z"/>
		<path fill="#FFFFFF" d="M141.768,201.131c1.141,0.72,3.3,1.56,5.28,1.56c2.04,0,3.18-0.9,3.18-2.64c0-1.5-0.84-2.46-3.42-3.96
			c-4.8-2.7-5.939-5.76-5.939-8.46c0-5.279,3.779-9.239,9.659-9.239c2.46,0,4.38,0.6,5.94,1.319l-1.38,5.76
			c-1.141-0.659-2.521-1.199-4.08-1.199c-1.98,0-2.94,1.199-2.94,2.52s0.66,2.04,3.42,3.66c4.32,2.46,5.94,5.52,5.94,8.879
			c0,6-4.32,9.24-10.38,9.24c-2.46,0-5.34-0.66-6.72-1.68L141.768,201.131z"/>
	</g>
	<g display="inline">
		<path fill="#FFFFFF" d="M43.045,106.717h9.433v40.54h12.457v7.993h-21.89V106.717z"/>
		<path fill="#FFFFFF" d="M75.229,140.992c0.144,5.473,3.312,7.489,7.488,7.489c2.664,0,5.041-0.576,6.696-1.152l1.297,6.769
			c-2.448,0.937-6.121,1.584-9.721,1.584c-9.577,0-14.834-6.336-14.834-17.354c0-11.809,6.121-18.866,14.113-18.866
			c7.561,0,11.953,5.977,11.953,16.633c0,2.521-0.072,3.889-0.288,4.896H75.229z M83.654,134.368c0-4.536-1.152-8.064-3.961-8.064
			c-3.096,0-4.32,4.536-4.392,8.064H83.654z"/>
		<path fill="#FFFFFF" d="M102.302,120.039l2.664,15.697c0.504,3.168,1.008,6.336,1.512,9.865h0.145
			c0.432-3.6,0.864-6.552,1.368-9.865l2.736-15.697h9.288l-9.433,35.211h-8.713l-9.576-35.211H102.302z"/>
		<path fill="#FFFFFF" d="M131.316,110.678c0.072,3.024-2.088,5.112-4.969,5.112c-2.592,0-4.752-2.088-4.68-5.112
			c-0.072-3.168,2.231-5.112,4.824-5.112C129.229,105.565,131.316,107.509,131.316,110.678z M121.884,155.25v-35.211h9.433v35.211
			H121.884z"/>
		<path fill="#FFFFFF" d="M136.14,130.624c0-3.889-0.216-7.273-0.288-10.585h8.137l0.432,4.032h0.145
			c1.872-2.808,4.896-4.608,8.568-4.608c6.696,0,9.361,5.329,9.361,13.177v22.61h-9.434v-22.034c0-3.024-0.72-5.833-3.456-5.833
			c-1.584,0-2.88,1.08-3.528,3.168c-0.288,0.72-0.504,1.872-0.504,3.24v21.458h-9.433V130.624z"/>
		<path fill="#FFFFFF" d="M175.164,140.992c0.144,5.473,3.312,7.489,7.488,7.489c2.664,0,5.041-0.576,6.697-1.152l1.296,6.769
			c-2.448,0.937-6.121,1.584-9.721,1.584c-9.577,0-14.834-6.336-14.834-17.354c0-11.809,6.121-18.866,14.113-18.866
			c7.561,0,11.953,5.977,11.953,16.633c0,2.521-0.072,3.889-0.288,4.896H175.164z M183.589,134.368c0-4.536-1.152-8.064-3.961-8.064
			c-3.096,0-4.32,4.536-4.392,8.064H183.589z"/>
	</g>
</g>
<g id="Layer_30" display="none">
	<path display="inline" fill="#010101" d="M241.929,65.43c-5.968-8.135-14.291-17.662-23.423-26.794s-18.66-17.456-26.794-23.423
		C177.85,5.048,171.126,3.879,167.273,3.879H33.99c-11.849,0-21.497,9.648-21.497,21.497v232.171
		c0,11.849,9.648,21.497,21.497,21.497h107.487c4.747,0,8.599-3.852,8.599-8.599c0-4.747-3.852-8.599-8.599-8.599H33.99
		c-2.322,0-4.299-1.961-4.299-4.299V25.376c0-2.322,1.978-4.299,4.299-4.299c0,0,133.266,0,133.283,0v60.192
		c0,4.747,3.852,8.599,8.599,8.599h60.192v60.192c0,4.747,3.852,8.599,8.599,8.599c4.747,0,8.599-3.852,8.599-8.599V89.868
		C253.263,86.016,252.093,79.291,241.929,65.43z M184.471,72.67V31.309c6.174,4.781,13.621,11.247,21.858,19.502
		c8.238,8.255,14.721,15.684,19.502,21.858h-41.378H184.471z"/>
	<path display="inline" fill="#010101" d="M270.461,210.253h-34.396v-34.396h-34.396v34.396h-34.396v34.396h34.396v34.396h34.396
		v-34.396h34.396V210.253z"/>
	<rect x="38.868" y="166.692" display="inline" fill="none" width="120.379" height="97.541"/>
	
		<text transform="matrix(1 0 0 1 38.8684 208.2103)" display="inline" font-family="'MyriadPro-BoldCond'" font-size="60" letter-spacing="-1">Form</text>
	<rect x="38.868" y="105.426" display="inline" fill="none" width="155.54" height="97.541"/>
	
		<text transform="matrix(1 0 0 1 38.8684 155.2497)" display="inline" font-family="'MyriadPro-BoldCond'" font-size="72" letter-spacing="-1">COEM</text>
</g>
<g id="Layer_31" display="none">
	<path display="inline" fill="#FFFFFF" d="M241.929,65.43c-5.968-8.135-14.291-17.662-23.423-26.794s-18.66-17.456-26.794-23.423
		C177.85,5.048,171.126,3.879,167.273,3.879H33.99c-11.849,0-21.497,9.648-21.497,21.497v232.171
		c0,11.849,9.648,21.497,21.497,21.497h107.487c4.747,0,8.599-3.852,8.599-8.599c0-4.747-3.852-8.599-8.599-8.599H33.99
		c-2.322,0-4.299-1.961-4.299-4.299V25.376c0-2.322,1.978-4.299,4.299-4.299c0,0,133.266,0,133.283,0v60.192
		c0,4.747,3.852,8.599,8.599,8.599h60.192v60.192c0,4.747,3.852,8.599,8.599,8.599c4.747,0,8.599-3.852,8.599-8.599V89.868
		C253.263,86.016,252.093,79.291,241.929,65.43z M184.471,72.67V31.309c6.174,4.781,13.621,11.247,21.858,19.502
		c8.238,8.255,14.721,15.684,19.502,21.858h-41.378H184.471z"/>
	<path display="inline" fill="#FFFFFF" d="M270.461,210.253h-34.396v-34.396h-34.396v34.396h-34.396v34.396h34.396v34.396h34.396
		v-34.396h34.396V210.253z"/>
	<g display="inline">
		<path fill="#FFFFFF" d="M42.348,167.771h17.58v6.84h-9.72v10.38h9.119v6.54h-9.119v16.679h-7.86V167.771z"/>
		<path fill="#FFFFFF" d="M83.627,193.451c0,12.239-6.779,15.239-11.219,15.239c-7.021,0-11.22-5.521-11.22-15.06
			c0-10.56,5.52-15.239,11.339-15.239C79.428,178.392,83.627,184.211,83.627,193.451z M68.988,193.451
			c0,5.039,0.779,9.239,3.6,9.239c2.52,0,3.18-4.92,3.18-9.239c0-4.021-0.66-9.12-3.3-9.12
			C69.588,184.331,68.988,189.431,68.988,193.451z"/>
		<path fill="#FFFFFF" d="M86.509,187.691c0-2.94-0.12-6.12-0.24-8.82h6.84l0.42,4.26h0.18c1.32-3.119,3.66-4.739,5.82-4.739
			c0.779,0,1.199,0,1.68,0.12v7.8c-0.48-0.12-1.021-0.12-1.68-0.12c-1.681,0-3.9,1.14-4.8,4.199c-0.181,0.66-0.301,1.681-0.301,2.94
			v14.879h-7.919V187.691z"/>
		<path fill="#FFFFFF" d="M102.708,187.691c0-3.24-0.18-6.061-0.24-8.82h6.84l0.36,3.42h0.12c1.5-2.22,3.96-3.899,7.02-3.899
			c3.3,0,5.399,1.5,6.42,3.96h0.12c0.72-1.141,1.8-2.221,2.939-2.94c1.2-0.66,2.64-1.02,4.14-1.02c5.22,0,7.56,4.14,7.56,11.22
			v18.599h-7.799v-17.279c0-3.359-0.36-6.06-2.761-6.06c-1.38,0-2.399,0.96-2.939,2.7c-0.12,0.42-0.24,1.26-0.24,2.04v18.599h-7.8
			v-18.419c0-2.1-0.239-4.92-2.699-4.92c-1.2,0-2.4,0.9-2.94,2.64c-0.18,0.54-0.3,1.38-0.3,2.22v18.479h-7.8V187.691z"/>
		<path fill="#FFFFFF" d="M141.768,201.131c1.141,0.72,3.3,1.56,5.28,1.56c2.04,0,3.18-0.9,3.18-2.64c0-1.5-0.84-2.46-3.42-3.96
			c-4.8-2.7-5.939-5.76-5.939-8.46c0-5.279,3.779-9.239,9.659-9.239c2.46,0,4.38,0.6,5.94,1.319l-1.38,5.76
			c-1.141-0.659-2.521-1.199-4.08-1.199c-1.98,0-2.94,1.199-2.94,2.52s0.66,2.04,3.42,3.66c4.32,2.46,5.94,5.52,5.94,8.879
			c0,6-4.32,9.24-10.38,9.24c-2.46,0-5.34-0.66-6.72-1.68L141.768,201.131z"/>
	</g>
	<g display="inline">
		<path fill="#FFFFFF" d="M66.303,154.529c-1.368,0.648-4.032,1.152-7.345,1.152c-12.385,0-18.29-10.225-18.29-23.978
			c0-18.29,10.153-25.418,19.586-25.418c3.312,0,5.616,0.648,6.553,1.296l-1.584,7.92c-1.08-0.504-2.305-0.936-4.393-0.936
			c-5.328,0-10.153,4.608-10.153,16.633c0,11.593,4.393,16.13,10.153,16.13c1.584,0,3.385-0.36,4.536-0.72L66.303,154.529z"/>
		<path fill="#FFFFFF" d="M97.479,130.119c0,18.29-6.48,25.707-15.697,25.707c-11.018,0-15.338-11.665-15.338-24.987
			c0-13.249,5.257-24.698,15.985-24.698C94.167,106.141,97.479,119.03,97.479,130.119z M76.237,130.983
			c0,11.017,2.089,16.634,5.904,16.634c3.961,0,5.473-7.201,5.473-17.066c0-8.497-1.296-16.201-5.544-16.201
			C78.326,114.35,76.237,120.542,76.237,130.983z"/>
		<path fill="#FFFFFF" d="M122.174,133.936h-11.089v13.105h12.529v8.209h-21.962v-48.533h21.098v8.209h-11.665v11.161h11.089
			V133.936z"/>
		<path fill="#FFFFFF" d="M157.886,138.256c-0.216-4.608-0.576-10.873-0.432-16.057h-0.216c-0.864,5.185-2.16,11.161-3.097,14.905
			l-4.177,17.354h-6.696l-4.032-17.066c-0.937-3.889-2.232-9.937-2.952-15.193h-0.216c-0.145,5.256-0.433,11.377-0.721,16.201
			l-0.792,16.85h-8.137l3.528-48.533h9.938l3.888,17.569c1.368,6.121,2.593,11.521,3.456,16.994h0.145
			c0.72-5.4,1.8-10.873,3.097-16.994l3.815-17.569h9.938l2.952,48.533h-8.425L157.886,138.256z"/>
	</g>
</g>
</svg>
