<?xml version="1.0" encoding="utf-8"?>
<!-- Generator: Adobe Illustrator 25.4.1, SVG Export Plug-In . SVG Version: 6.00 Build 0)  -->
<svg version="1.1" xmlns="http://www.w3.org/2000/svg" xmlns:xlink="http://www.w3.org/1999/xlink" x="0px" y="0px"
	 viewBox="0 0 1066.22 1627.55" style="enable-background:new 0 0 1066.22 1627.55;" xml:space="preserve">
<g id="Layer_2">
</g>
<g id="Layer_1">
	<g>
		<path d="M471.85,162.21c-13.94,0-28.47-7.23-40.91-20.35c-10.84-11.44-18.87-26.04-21.47-39.06c-0.05-0.27-0.1-0.54-0.13-0.81
			c-0.15-0.47-0.26-0.88-0.34-1.3c-0.65-3.44,0.32-6.89,2.89-10.25c7.6-9.95,29.25-17.96,53.86-19.92
			c41.89-3.35,52.85,0.77,58.46,5.72c1.75,1.54,2.99,3.38,3.69,5.45c0.76,1.41,1.11,2.93,1.03,4.52
			c-1.19,23.85-17.36,70.5-50.99,75.55C475.91,162.06,473.86,162.21,471.85,162.21z M491.92,72.56c-8.23,0-17.18,0.55-25.9,1.25
			c-23.74,1.89-44.43,9.38-51.5,18.63c-1.97,2.59-2.74,5.15-2.27,7.63c0.06,0.31,0.15,0.64,0.28,1.03l0.08,0.34
			c0.03,0.23,0.06,0.47,0.11,0.71c4.92,24.61,33.28,61.03,64.75,56.34c17.52-2.63,28.93-17.35,35.41-29.23
			c8.63-15.81,12.27-33.16,12.77-43.22c0.05-1.01-0.18-1.98-0.69-2.88l-0.13-0.3c-0.51-1.56-1.45-2.96-2.79-4.14
			C516.71,74.02,505.28,72.56,491.92,72.56z"/>
	</g>
	<g>
		<path d="M386.3,184.86c-22.45,0-43.53-25.95-54.85-39.89l-0.83-1.02c-0.66-0.47-1.25-1-1.75-1.6c-1.92-2.32-2.53-5.24-1.76-8.45
			c2.43-10.01,18.24-21.57,31.88-27.36c21.67-9.19,35.23-11.94,42.65-8.64c2.8,1.24,4.71,3.28,5.68,6.06l0.02,0.07
			c0.03,0.06,0.07,0.13,0.1,0.21c4.93,11.48,12.32,66.41-7.51,77.12C395.63,183.68,391.03,184.86,386.3,184.86z M394.32,99.86
			c-7.41,0-18.82,3.25-34.05,9.71c-12.8,5.44-27.9,16.58-29.96,25.1c-0.53,2.19-0.16,4.06,1.09,5.57c0.35,0.42,0.76,0.79,1.25,1.11
			l0.21,0.14l1.14,1.4c10.98,13.52,31.42,38.67,52.29,38.67c4.19,0,8.25-1.05,12.08-3.12c17.05-9.21,10.98-61.3,6.07-72.86
			c-0.04-0.07-0.08-0.14-0.11-0.2l-0.13-0.36c-0.66-1.9-1.94-3.25-3.9-4.12C398.74,100.21,396.74,99.86,394.32,99.86z"/>
	</g>
	<g>
		<g>
			<g>
				<path d="M411.36,518.67c-19.7,0-41.79-17.4-53.66-26.75l-2.96-2.32c-2.88-2.23-3.97-5.61-3.05-9.5
					c2.4-10.2,18.11-22.65,24.76-27.53c12.65-9.29,26.03-16.34,34.08-17.96l0,0c4.99-1,8.5-0.16,10.44,2.52
					c7.11,9.8,25.8,60.2,9.29,74.58C424.95,516.32,418.6,518.67,411.36,518.67z M411.18,437.84c-15.21,3.06-52.92,28.73-56.28,43.01
					c-0.62,2.63,0.01,4.7,1.87,6.14l2.97,2.33c11.56,9.1,33.07,26.05,51.62,26.05c6.41,0,12.04-2.07,16.72-6.15
					c14.18-12.36-2.71-60.4-9.79-70.16C417.18,437.53,414.79,437.11,411.18,437.84L411.18,437.84z"/>
			</g>
		</g>
	</g>
	<g>
		<g>
			<path d="M479.58,495.85c-12.85,0-26.2-6.99-37.59-19.69c-9.91-11.05-17.23-25.17-19.57-37.76c-0.05-0.26-0.09-0.52-0.12-0.79
				c-0.14-0.45-0.23-0.86-0.3-1.26c-0.61-3.47,0.4-6.95,3.01-10.34c7.28-9.48,27.1-17.15,49.3-19.1
				c22.51-1.98,44.57-2.72,53.54,5.18c1.78,1.57,3.03,3.45,3.71,5.58c0.69,1.36,1,2.83,0.93,4.35
				c-1.15,23.11-16.16,68.34-47.13,73.36C483.46,495.69,481.52,495.85,479.58,495.85z M498.86,408.9c-7.69,0-16.1,0.58-24.27,1.3
				c-21.34,1.87-40.21,9.03-46.97,17.82c-2.02,2.63-2.82,5.24-2.38,7.76c0.05,0.3,0.13,0.62,0.25,1l0.07,0.33
				c0.02,0.23,0.06,0.45,0.1,0.68c4.15,22.32,27.22,54.75,53.92,54.75c1.77,0,3.53-0.14,5.24-0.42
				c16.04-2.6,26.53-16.86,32.51-28.37c7.97-15.34,11.37-32.15,11.85-41.89c0.05-0.97-0.16-1.91-0.62-2.79l-0.12-0.29
				c-0.49-1.6-1.42-3.02-2.78-4.22C520.78,410.27,510.68,408.9,498.86,408.9z"/>
		</g>
	</g>
	<g>
		<path d="M314.52,226.57c-0.58,0-1.17-0.01-1.77-0.03c-19.29-0.8-41.65-15.02-50.84-24.46l-0.03-0.02
			c-3.47-2.38-5.48-6.7-5.65-12.18c-0.3-9.43,5.32-24.16,22-37.18c14.87-11.61,29.78-17.01,40.9-14.81
			c4.68,0.92,8.29,3.18,10.45,6.52c0.05,0.06,0.09,0.13,0.13,0.19l0.05,0.09c0.1,0.14,0.16,0.23,0.21,0.33l0.05,0.09
			c6.78,12.12,27.07,52.92,6.03,73.32C330.49,223.83,323.24,226.57,314.52,226.57z M313.94,140.7c-9.58,0-21.56,5.15-33.67,14.6
			c-15.7,12.26-21,25.84-20.73,34.47c0.14,4.39,1.63,7.79,4.21,9.55l0.41,0.31c8.73,9.06,30.26,22.83,48.73,23.6
			c0.55,0.02,1.1,0.03,1.64,0.03c7.83,0,14.3-2.43,19.24-7.21c8.2-7.95,10.36-20.42,6.43-37.06c-3.2-13.53-9.54-26.04-13.05-32.31
			l-0.05-0.07c-0.05-0.07-0.09-0.13-0.13-0.2l-0.06-0.1c-1.72-2.67-4.6-4.43-8.39-5.18C317.05,140.85,315.53,140.7,313.94,140.7z"/>
	</g>
	<g>
		<g>
			<path d="M350.9,575.08c-15.35,0-32.72-5.51-42.07-10.98c0,0-0.01,0-0.02-0.01c-3.88-1.33-6.9-4.88-8.48-9.99
				c-2.71-8.75-1.25-23.97,10.99-40.45c10.89-14.67,23.44-23.57,34.42-24.39c3.86-0.25,7.17,0.48,9.87,2.18
				c0.56,0.3,1.06,0.67,1.48,1.09l0.08,0.06c0.03,0.02,0.05,0.05,0.08,0.07h1.02l0,0.99c0.2,0.22,0.4,0.46,0.6,0.71
				c11.62,12.18,37.02,42.85,23.49,65.84c-4.09,6.95-10.73,11.53-19.74,13.62C359.09,574.66,355.15,575.08,350.9,575.08z
				 M347.19,492.52c-0.4,0-0.8,0.01-1.21,0.04c-10.01,0.75-21.68,9.16-32,23.07c-11.5,15.48-12.96,29.52-10.48,37.5
				c1.26,4.08,3.53,6.86,6.4,7.84l0.45,0.19c8.91,5.28,25.71,10.62,40.56,10.62c4,0,7.7-0.39,10.99-1.15
				c8.09-1.87,14.02-5.94,17.64-12.08c5.33-9.06,4.39-20.66-2.78-34.48c-6.12-11.8-15.35-22.27-20.31-27.47l-0.1-0.12
				c-0.28-0.35-0.54-0.66-0.82-0.93l-0.06-0.06c-0.13-0.13-0.27-0.24-0.41-0.36l-0.25-0.22c-0.18-0.18-0.42-0.39-0.79-0.59
				l-0.12-0.07C352.06,493.1,349.81,492.52,347.19,492.52z"/>
		</g>
	</g>
	<g>
		<g>
			<path d="M282.46,223.27c-3.36-0.61-6.54-1.19-7.84-2.07c-1.52-1.03-3.12-2.49-4.81-4.04c-5.74-5.25-13.53-12.4-28.72-12.4
				c-0.42,0-0.84,0-1.26,0.01c-12.01,0.3-23.17,17.41-29.07,31.96c-5.51,13.59-9.3,32.15-1.85,39.75
				c9.32,9.51,18.85,9.98,25.81,10.34c2.75,0.13,5.13,0.25,6.82,0.9c1.81,0.7,3.14,2.09,4.81,3.86c3.66,3.87,8.67,9.17,22.96,11.86
				c0.88,0.17,1.79,0.25,2.71,0.25c9.51,0,20.7-8.73,29.26-23.11c8.97-15.06,13.82-35.41,4.45-46.94
				C299.91,226.46,289.83,224.62,282.46,223.27z M298.37,278.84c-8.52,14.32-20.02,22.92-28.42,21.25
				c-13.21-2.49-17.59-7.12-21.12-10.85c-1.81-1.91-3.52-3.72-6.06-4.7c-2.21-0.84-4.83-0.98-7.88-1.13
				c-6.75-0.33-15.15-0.75-23.54-9.31c-5.02-5.12-3.96-19.96,2.58-36.08c7.03-17.36,17.73-29.63,25.99-29.84
				c0.4-0.01,0.79-0.01,1.18-0.01c13.85,0,20.8,6.36,26.41,11.51c1.78,1.63,3.46,3.17,5.19,4.35c1.89,1.28,5.09,1.87,9.14,2.61
				c7.23,1.32,16.21,2.96,21.25,9.15C311.44,246.04,306.73,264.8,298.37,278.84z"/>
		</g>
	</g>
	<g>
		<g>
			<path d="M236.18,307.49c-2.55-0.22-4.75-0.42-6.41-0.97c-3.11-1.04-5.36-3.16-7.75-5.42c-4.62-4.35-9.94-9.29-22.43-8.35
				c-13.57,1.02-23.31,16.69-27.92,25.93c-9.05,18.19-13.04,40.28-8.54,47.27c7.73,12,21.01,12.03,29.79,12.05
				c3.35,0.01,6.25,0.02,7.72,0.66c1.52,0.66,3.18,2.13,5.1,3.82c5.08,4.47,11.97,10.56,25.21,10.56c0.42,0,0.84-0.01,1.27-0.02
				c9.7-0.28,19.72-10.76,26.8-28.05c6.88-16.78,10.12-38.86,2.56-46.75C252.7,308.96,243.15,308.11,236.18,307.49z M255.88,363.7
				c-6.56,16-15.44,25.69-23.74,25.93c-12.76,0.39-19.06-5.21-24.14-9.69c-2.13-1.89-3.98-3.52-6-4.39
				c-2.12-0.92-5.18-0.92-9.07-0.94c-8.53-0.02-20.22-0.05-26.94-10.5c-3.42-5.31-0.35-25.65,8.73-43.91
				c4.28-8.6,13.24-23.16,25.12-24.06c0.96-0.07,1.87-0.11,2.74-0.11c9.11,0,13.17,3.83,17.1,7.54c2.55,2.41,5.19,4.89,9.01,6.17
				c2.04,0.68,4.43,0.89,7.19,1.13c6.79,0.6,15.25,1.35,23.25,9.7C264.7,326.41,263.24,345.74,255.88,363.7z"/>
		</g>
	</g>
	<g>
		<g>
			<path d="M193.91,388.94c-29.71-10.15-48.97-11.98-58.86-5.6c-8.2,5.28-9.81,19.56-11.22,32.15c-0.78,6.93-1.52,13.47-3.25,17.06
				c-1.07,2.23-2.83,4.99-4.87,8.18c-7.45,11.67-17.66,27.66-11.34,43.26c4.75,11.73,18.77,22.32,39.49,29.79
				c16.13,5.82,33.8,8.91,48.03,8.91c9.19,0,16.94-1.29,21.91-3.96c13.69-7.35,15.5-26.17,16.81-39.91
				c0.41-4.21,0.75-7.84,1.37-10.49c0.88-3.78,3.96-8.47,7.2-13.43c6.43-9.82,13.71-20.95,9.69-32.21
				C242.76,405.58,210.98,394.76,193.91,388.94z M236.33,453.04c-3.42,5.22-6.65,10.15-7.66,14.52c-0.67,2.87-1.03,6.61-1.44,10.94
				c-1.24,12.98-2.94,30.74-15.04,37.23c-11.71,6.3-41.86,3.99-67.17-5.15c-19.8-7.15-33.11-17.04-37.5-27.87
				c-5.66-13.97,4-29.11,11.06-40.16c2.09-3.28,3.91-6.12,5.07-8.54c1.97-4.11,2.75-10.94,3.56-18.16
				c1.34-11.84,2.85-25.25,9.69-29.67c8.82-5.69,27.65-3.68,55.91,5.96c15.36,5.23,47.3,16.11,52.86,31.69
				C249.12,433.52,242.33,443.89,236.33,453.04z"/>
		</g>
	</g>
	<g>
		<g>
			<path d="M158.82,526.32l-1.81-0.25c-3.92-0.54-8.62-2.09-13.6-3.73c-12.17-4.02-27.31-9.02-40.22-1.85
				c-13.9,7.72-15.62,25.41-16.99,39.61c-0.43,4.42-0.84,8.6-1.56,11.97c-0.88,4.04-2.67,9.08-4.57,14.42
				c-4.89,13.74-10.43,29.31-5.13,39.53c8.32,16.07,21.94,17.4,37.71,18.95c6.67,0.65,13.57,1.32,21.02,3.06
				c10.32,2.41,20.09,3.6,28.68,3.6c11.77,0,21.31-2.23,27.04-6.6c22.65-17.29,28.15-85.98,16.17-102.21
				C197.28,531.62,173.21,528.3,158.82,526.32z M187.32,642.32c-8.98,6.85-29.72,7.78-52.88,2.4c-7.67-1.79-15-2.51-21.46-3.14
				c-15.99-1.56-27.55-2.69-35.03-17.12c-4.61-8.9,0.66-23.73,5.32-36.81c1.93-5.45,3.77-10.59,4.69-14.84
				c0.77-3.56,1.18-7.84,1.62-12.36c1.38-14.11,2.92-30.11,15.26-36.96c4.2-2.33,8.68-3.22,13.27-3.22c8.08,0,16.49,2.77,24.24,5.32
				c5.13,1.69,9.97,3.29,14.2,3.88l1.81,0.25c13.85,1.91,37.03,5.1,44.45,15.15C213.71,559.61,208.58,626.09,187.32,642.32z"/>
		</g>
	</g>
	<g>
		<g>
			<path d="M330.7,575.75c-24.12-8.26-39.75-9.72-47.81-4.5c-6.75,4.37-8.06,16-9.21,26.27c-0.63,5.59-1.22,10.88-2.6,13.73
				c-0.83,1.74-2.17,3.94-3.73,6.5c-5.74,9.41-14.41,23.65-9.36,35.47c6.15,14.43,21.92,17.38,33.44,19.54
				c3.11,0.59,6.05,1.14,8.38,1.83c2.54,0.76,5.18,1.74,7.92,2.75c7.07,2.62,14.74,5.46,22.89,5.46c4.82,0,9.81-1,14.94-3.61
				c13.49-6.85,14.48-20.77,15.21-30.94c0.21-2.94,0.41-5.72,0.88-7.8c0.66-2.84,2.45-6.3,4.33-9.96c4.07-7.91,9.13-17.76,5.73-27.3
				C368.05,592.91,354.63,583.93,330.7,575.75z M283.86,572.68h-0.04H283.86z M362.96,628.95c-1.99,3.86-3.86,7.5-4.61,10.75
				c-0.54,2.33-0.75,5.24-0.97,8.33c-0.7,9.87-1.58,22.16-13.36,28.15c-12.51,6.37-24.52,1.91-35.1-2.01
				c-2.83-1.05-5.5-2.04-8.13-2.82c-2.51-0.74-5.52-1.32-8.72-1.91c-11.37-2.13-25.51-4.79-30.94-17.53
				c-4.35-10.22,3.44-23.02,9.14-32.37c1.6-2.63,2.99-4.91,3.9-6.79c1.62-3.38,2.22-8.69,2.9-14.83c1.07-9.52,2.29-20.3,7.68-23.79
				c2.59-1.68,6.27-2.51,11.03-2.51c8.16,0,19.47,2.46,33.83,7.37c22.57,7.72,35.66,16.26,38.91,25.38
				C371.42,612.5,366.92,621.24,362.96,628.95z"/>
		</g>
	</g>
	<g>
		<g>
			<path d="M312.91,684.4c-3-0.09-5.8-0.19-8.22-0.37c-3.54-0.27-7.84-1.39-12.39-2.58c-11.21-2.92-25.15-6.55-36.38,0.65
				c-12.12,7.77-12.66,23.8-13.09,36.68c-0.13,4-0.26,7.77-0.72,10.83c-0.35,2.33-0.83,4.89-1.34,7.6
				c-2.33,12.54-5.23,28.15,0.87,38.3c8.49,14.13,21.17,14.65,35.85,15.26c5.99,0.25,12.18,0.5,18.85,1.62
				c6.97,1.17,13.16,1.76,18.66,1.76c11.48,0,19.91-2.57,25.92-7.8c19.24-16.73,19.9-78.79,8.15-92.77
				C342.16,685.35,325.94,684.83,312.91,684.4z M338.71,783.78c-7.96,6.91-21.64,8.63-41.79,5.25c-6.88-1.16-13.46-1.43-19.27-1.67
				c-14.26-0.59-25.53-1.04-33.08-13.61c-5.43-9.04-2.66-23.94-0.43-35.92c0.51-2.75,0.99-5.35,1.35-7.72
				c0.49-3.26,0.62-7.13,0.76-11.22c0.43-12.71,0.9-27.12,11.52-33.93c4.23-2.72,8.93-3.69,13.79-3.69c6.6,0,13.49,1.8,19.89,3.46
				c4.71,1.23,9.16,2.39,13,2.68c2.46,0.19,5.3,0.28,8.36,0.38c12.36,0.4,27.73,0.9,33.68,7.97
				C357.12,708.42,356.66,768.17,338.71,783.78z"/>
		</g>
	</g>
	<g>
		<g>
			<path d="M119.69,653.04c-9.94-0.28-27.76,0.43-34.97,7.64c-10.96,10.96-10.15,30.21-9.61,42.94c0.17,4.01,0.32,7.47,0.09,9.89
				c-0.43,4.65-1.73,9.43-3,14.05c-3.34,12.18-6.78,24.78,4.17,37.82c6.7,7.96,22.63,13.79,41.57,15.22
				c2.73,0.2,5.59,0.31,8.54,0.31c16.21,0,34.77-3.36,45.69-12.99c13.23-11.65,21.46-29.75,22.58-49.68
				c1.06-18.83-4.54-36.5-15.38-48.47C170.19,659.62,141.77,653.58,119.69,653.04z M191.36,718.04
				c-1.07,19.02-8.88,36.27-21.43,47.32c-10.14,8.93-29.97,13.45-51.72,11.83c-18.07-1.36-33.1-6.72-39.23-14.01
				c-9.8-11.67-6.74-22.87-3.5-34.73c1.3-4.75,2.65-9.68,3.11-14.62c0.25-2.66,0.09-6.22-0.08-10.35
				c-0.55-12.87-1.29-30.49,8.62-40.39c4.61-4.62,16.41-7.01,32.49-6.65c24.72,0.61,49.86,7.46,57.24,15.61
				C187.09,683.34,192.37,700.11,191.36,718.04z"/>
		</g>
	</g>
	<g>
		<g>
			<path d="M583.86,497.14c-1.95,0-3.89-0.15-5.77-0.46c-31.05-5.01-46.09-50.25-47.23-73.35c-0.07-1.52,0.24-2.98,0.92-4.34
				c0.68-2.14,1.93-4.02,3.71-5.59c8.98-7.9,31.11-7.17,53.68-5.19c22.27,1.94,42.14,9.62,49.43,19.11c2.6,3.38,3.6,6.85,2.99,10.32
				c-0.07,0.39-0.16,0.78-0.3,1.24c-0.03,0.27-0.07,0.54-0.12,0.81c-2.35,12.59-9.69,26.7-19.63,37.76
				C610.12,490.14,596.74,497.14,583.86,497.14z M564.57,410.2c-11.87,0-22.01,1.36-26.91,5.67c-1.35,1.19-2.29,2.61-2.78,4.22
				l-0.12,0.29c-0.46,0.87-0.67,1.81-0.62,2.78c1.1,22.17,15.27,65.55,44.46,70.26c1.71,0.28,3.48,0.42,5.25,0.42
				c26.76,0,49.9-32.43,54.07-54.76c0.04-0.24,0.08-0.47,0.1-0.7l0.07-0.32c0.12-0.39,0.2-0.69,0.25-0.98
				c0.44-2.53-0.35-5.13-2.36-7.74l0,0c-6.76-8.81-25.69-15.97-47.1-17.83C580.7,410.77,572.27,410.2,564.57,410.2z"/>
		</g>
	</g>
	<g>
		<g>
			<path d="M649.65,518.67c-7.23,0-13.59-2.34-18.89-6.96c-16.52-14.4,2.17-64.79,9.29-74.58c0.04-0.06,0.08-0.11,0.13-0.16
				c0.01-0.02,0.03-0.05,0.04-0.07c1.52-2.44,3.79-3.98,6.72-4.56c7.78-1.51,20.02,3.96,38.53,17.25l0,0
				c11.68,8.39,24.18,22.71,24.34,32.7c0.06,3.23-1.15,5.89-3.5,7.69c-0.6,0.46-1.27,0.85-1.99,1.15l-1.01,0.79
				C691.44,501.26,669.34,518.67,649.65,518.67z M642.67,439.12c-7.12,9.9-23.91,57.76-9.75,70.1c4.68,4.08,10.31,6.15,16.72,6.15
				c18.55,0,40.06-16.94,51.62-26.04l1.39-1.09l0.23-0.09c0.52-0.2,0.98-0.46,1.4-0.78c1.51-1.16,2.25-2.84,2.21-5.02
				c-0.14-8.48-12.03-22.22-22.96-30.08c-17.23-12.37-29.33-17.99-35.97-16.69c-2.03,0.4-3.52,1.41-4.56,3.08l-0.2,0.31
				C642.77,439.01,642.72,439.07,642.67,439.12z M642.72,439.06C642.71,439.06,642.71,439.06,642.72,439.06
				C642.71,439.06,642.71,439.06,642.72,439.06z"/>
		</g>
	</g>
	<g>
		<g>
			<path d="M710.11,575.08c-4.25,0-8.2-0.41-11.73-1.23c-9.01-2.09-15.65-6.67-19.74-13.62c-13.53-23,11.88-53.67,23.5-65.85
				c0.2-0.25,0.4-0.49,0.6-0.71v-0.99l1.02,0c0.02-0.02,0.04-0.03,0.06-0.05l0.11-0.09c0.45-0.44,0.93-0.79,1.47-1.08
				c2.67-1.68,6.08-2.43,9.85-2.18c10.99,0.83,23.54,9.72,34.44,24.39h0c12.23,16.47,13.69,31.7,10.98,40.45
				c-1.58,5.1-4.59,8.65-8.48,9.98l-0.01,0C742.84,569.57,725.46,575.08,710.11,575.08z M705.6,495.46l-0.04,0.04
				c-0.29,0.29-0.58,0.61-0.87,0.99l-0.1,0.12c-4.96,5.19-14.19,15.67-20.31,27.47c-7.17,13.82-8.1,25.42-2.78,34.48
				c3.61,6.14,9.55,10.2,17.64,12.08c3.29,0.76,6.99,1.15,10.99,1.15c14.85,0,31.64-5.34,40.56-10.62l0.47-0.19
				c2.85-0.98,5.12-3.76,6.38-7.83c2.47-7.98,1.02-22.03-10.48-37.51l0,0c-10.33-13.91-22-22.31-32.02-23.07
				c-3.08-0.21-5.82,0.39-7.9,1.71l-0.12,0.07c-0.29,0.15-0.55,0.34-0.76,0.55l-0.3,0.27C705.83,495.25,705.71,495.35,705.6,495.46z
				"/>
		</g>
	</g>
	<g>
		<path d="M789.92,611.25c-1.38-2.86-1.97-8.14-2.6-13.73c-1.15-10.27-2.46-21.91-9.21-26.27c-8.07-5.22-23.71-3.76-47.82,4.5
			c-23.93,8.18-37.35,17.16-41.01,27.45c-3.4,9.55,1.66,19.38,5.72,27.29c1.89,3.67,3.67,7.13,4.33,9.97
			c0.48,2.07,0.68,4.86,0.89,7.8c0.72,10.16,1.72,24.08,15.21,30.93c5.14,2.62,10.12,3.61,14.94,3.61c8.15,0,15.82-2.84,22.89-5.46
			c2.73-1.02,5.37-1.99,7.91-2.75c2.33-0.69,5.27-1.24,8.38-1.83c11.51-2.16,27.29-5.12,33.44-19.54
			c5.05-11.82-3.62-26.06-9.36-35.47C792.1,615.19,790.75,612.99,789.92,611.25z M799.89,651.89c-5.44,12.75-19.58,15.4-30.95,17.53
			c-3.2,0.6-6.22,1.17-8.72,1.91c-2.63,0.78-5.29,1.77-8.12,2.82c-10.59,3.93-22.59,8.38-35.1,2.01
			c-11.77-5.98-12.65-18.27-13.36-28.14c-0.22-3.08-0.43-6-0.98-8.34c-0.75-3.25-2.63-6.89-4.61-10.76
			c-3.96-7.7-8.45-16.44-5.54-24.6c3.25-9.12,16.34-17.66,38.91-25.38c14.37-4.91,25.68-7.37,33.84-7.37
			c4.75,0,8.44,0.84,11.03,2.51c5.39,3.49,6.61,14.27,7.68,23.79c0.68,6.14,1.28,11.45,2.9,14.83c0.9,1.89,2.29,4.16,3.9,6.79
			C796.44,628.87,804.24,641.68,799.89,651.89z"/>
	</g>
	<g>
		<path d="M818.89,729.62c-0.46-3.06-0.59-6.83-0.72-10.83c-0.43-12.88-0.97-28.91-13.09-36.69c-11.25-7.21-25.18-3.57-36.38-0.65
			c-4.55,1.19-8.85,2.31-12.39,2.58c-2.42,0.18-5.22,0.27-8.22,0.37c-13.04,0.43-29.26,0.95-36.18,9.18
			c-11.75,13.98-11.09,76.05,8.15,92.77c6.02,5.22,14.45,7.8,25.93,7.8c5.5,0,11.69-0.59,18.66-1.76
			c6.67-1.12,12.86-1.37,18.85-1.62c14.68-0.61,27.36-1.12,35.85-15.26c6.1-10.14,3.2-25.75,0.87-38.3
			C819.72,734.51,819.24,731.95,818.89,729.62z M713.26,694.68h-0.04H713.26z M816.45,773.76c-7.55,12.56-18.82,13.02-33.08,13.61
			c-5.81,0.24-12.39,0.51-19.27,1.67c-20.15,3.38-33.83,1.66-41.79-5.25c-17.96-15.61-18.41-75.36-7.78-88.01
			c5.94-7.07,21.33-7.57,33.68-7.97c3.05-0.1,5.9-0.19,8.36-0.38c3.84-0.29,8.29-1.45,13-2.68c6.4-1.67,13.29-3.46,19.89-3.46
			c4.86,0,9.56,0.97,13.79,3.68c10.62,6.81,11.09,21.23,11.52,33.94c0.14,4.09,0.27,7.96,0.76,11.22c0.36,2.37,0.84,4.97,1.35,7.72
			C819.11,749.81,821.88,764.72,816.45,773.76z"/>
	</g>
	<g>
		<path d="M583.43,162.22c-2.01,0-4.02-0.15-5.97-0.44c-34.67-5.09-49.41-53.39-50.81-74.65c-0.01-0.05-0.01-0.15-0.02-0.25
			l-0.04-0.63c-0.03-0.57,0-1.14,0.08-1.7c0.3-3.14,1.74-5.9,4.25-8.13c9.46-8.39,33.68-7.8,58.45-5.9
			c24.61,1.88,46.28,9.82,53.92,19.74l0,0c2.57,3.34,3.55,6.79,2.92,10.24c-0.08,0.42-0.18,0.83-0.33,1.3
			c-0.03,0.27-0.08,0.54-0.13,0.81c-2.56,13.05-10.56,27.69-21.39,39.18C611.92,154.96,597.39,162.22,583.43,162.22z M563.41,72.61
			c-13.63,0-24.92,1.5-30.3,6.28c-1.87,1.66-2.93,3.7-3.16,6.06c-0.06,0.43-0.08,0.78-0.06,1.13l0.05,0.79
			c0.71,10.68,4.51,27.56,13.07,43.04c6.45,11.66,17.75,26.09,34.94,28.61c1.79,0.27,3.63,0.4,5.48,0.4
			c29.24,0,54.52-33.72,59.08-56.94c0.05-0.24,0.08-0.47,0.11-0.71l0.07-0.34c0.13-0.39,0.22-0.72,0.28-1.03
			c0.46-2.48-0.32-5.05-2.29-7.62l0,0c-7.1-9.23-27.82-16.65-51.55-18.47C580.22,73.13,571.41,72.61,563.41,72.61z"/>
	</g>
	<g>
		<path d="M670.32,185.09c-4.59,0-9.05-1.11-13.27-3.31c-19.98-10.41-13.4-65.47-8.64-77.02c0.03-0.08,0.07-0.16,0.12-0.24
			c0-0.01,0.01-0.03,0.01-0.04c0.93-2.79,2.81-4.85,5.59-6.13c7.39-3.4,20.99-0.85,42.77,8.03c13.73,5.6,29.7,16.93,32.28,26.89v0
			c0.82,3.19,0.25,6.12-1.64,8.47c-0.49,0.61-1.06,1.15-1.7,1.62l-0.85,1.08C713.78,158.65,692.9,185.09,670.32,185.09z
			 M651.44,106.08c-4.74,11.64-10.04,63.82,7.14,72.77c3.74,1.95,7.69,2.94,11.74,2.94c20.98,0,41.21-25.62,52.07-39.38l1.16-1.47
			l0.2-0.14c0.47-0.33,0.87-0.7,1.22-1.13c1.23-1.52,1.57-3.4,1.01-5.57c-2.2-8.49-17.45-19.41-30.33-24.66
			c-20.31-8.28-33.82-11-40.15-8.09c-1.94,0.89-3.2,2.26-3.84,4.19l-0.11,0.32C651.52,105.93,651.48,106.01,651.44,106.08z
			 M651.47,106.02C651.47,106.02,651.47,106.02,651.47,106.02C651.47,106.02,651.47,106.02,651.47,106.02z"/>
	</g>
	<g>
		<path d="M750.05,226.57c-8.71,0-15.96-2.74-21.53-8.14c-22.14-21.47,0.66-65.23,5.46-73.78c0.76-1.36,1.87-2.33,3.31-2.91
			c2.13-1.9,4.88-3.19,8.16-3.84c11.1-2.2,26,3.19,40.89,14.81l0,0c16.68,13.02,22.3,27.74,22,37.18c-0.18,5.48-2.19,9.8-5.66,12.17
			l-0.01,0.01c-9.19,9.45-31.55,23.67-50.84,24.47C751.22,226.56,750.64,226.57,750.05,226.57z M750.64,140.7
			c-1.59,0-3.11,0.14-4.56,0.43c-2.8,0.55-5.08,1.64-6.79,3.24l-0.26,0.24l-0.33,0.11c-0.83,0.29-1.43,0.79-1.85,1.53
			c-2.03,3.63-8.94,16.56-12.44,30.89c-4.29,17.54-2.14,30.63,6.4,38.91c4.94,4.79,11.41,7.21,19.23,7.21
			c0.55,0,1.09-0.01,1.65-0.03c18.47-0.77,39.99-14.54,48.72-23.61l0.39-0.3c2.58-1.76,4.08-5.15,4.22-9.55
			c0.27-8.62-5.03-22.21-20.74-34.47l0,0C772.19,145.85,760.21,140.7,750.64,140.7z"/>
	</g>
	<g>
		<path d="M816.57,204.77c-0.42-0.01-0.84-0.01-1.26-0.01c-15.18,0-22.98,7.15-28.72,12.4c-1.69,1.55-3.28,3.01-4.81,4.04
			c-1.3,0.88-4.47,1.46-7.84,2.07c-7.37,1.35-17.45,3.18-23.28,10.36c-9.37,11.53-4.52,31.89,4.45,46.94
			c8.56,14.38,19.75,23.11,29.26,23.11c0.92,0,1.83-0.08,2.71-0.25c14.29-2.69,19.3-7.99,22.96-11.86c1.67-1.77,3-3.16,4.81-3.86
			c1.7-0.65,4.07-0.77,6.82-0.9c6.96-0.35,16.49-0.82,25.81-10.34c7.44-7.59,3.66-26.16-1.85-39.75
			C839.74,222.18,828.58,205.07,816.57,204.77z M845.06,274.1c-8.39,8.56-16.79,8.98-23.54,9.31c-3.04,0.15-5.67,0.29-7.88,1.13
			c-2.53,0.98-4.25,2.79-6.06,4.7c-3.53,3.73-7.91,8.36-21.12,10.85c-8.43,1.67-19.9-6.93-28.42-21.25
			c-8.36-14.04-13.07-32.8-4.73-43.06c5.03-6.2,14.02-7.84,21.25-9.15c4.05-0.74,7.25-1.32,9.14-2.61c1.73-1.18,3.41-2.72,5.19-4.35
			c5.76-5.29,12.82-11.96,27.59-11.49c8.26,0.21,18.96,12.48,25.99,29.84C849.03,254.14,850.08,268.98,845.06,274.1z"/>
	</g>
	<g>
		<path d="M856.84,292.76c-12.53-0.94-17.81,4-22.43,8.35c-2.39,2.25-4.64,4.38-7.75,5.42c-1.66,0.55-3.86,0.75-6.41,0.97
			c-6.97,0.62-16.53,1.46-25.41,10.74c-7.56,7.89-4.32,29.97,2.56,46.75c7.09,17.28,17.1,27.77,26.8,28.05
			c0.43,0.01,0.85,0.02,1.27,0.02c13.24,0,20.14-6.09,25.21-10.56c1.92-1.7,3.58-3.16,5.11-3.82c1.48-0.64,4.37-0.65,7.72-0.66
			c8.79-0.02,22.06-0.05,29.79-12.05c4.5-6.99,0.51-29.08-8.54-47.27C880.15,309.44,870.4,293.77,856.84,292.76z M827.24,308.14
			h-0.04H827.24z M890.44,364.11c-6.73,10.44-18.41,10.48-26.94,10.5c-3.89,0.01-6.95,0.02-9.07,0.94c-2.01,0.88-3.86,2.51-6,4.39
			c-5.09,4.48-11.34,10.09-24.14,9.69c-8.31-0.24-17.18-9.93-23.75-25.93c-7.37-17.95-8.82-37.29-3.25-43.11
			c8-8.36,16.46-9.11,23.25-9.7c2.77-0.24,5.15-0.45,7.19-1.13c3.82-1.28,6.46-3.76,9.01-6.17c3.94-3.72,7.98-7.54,17.1-7.54
			c0.86,0,1.77,0.03,2.74,0.11c11.89,0.9,20.84,15.46,25.12,24.06C890.79,338.46,893.86,358.8,890.44,364.11z"/>
	</g>
	<g>
		<path d="M935.83,432.55c-1.73-3.59-2.47-10.14-3.25-17.06c-1.42-12.59-3.02-26.86-11.22-32.15c-9.89-6.38-29.14-4.54-58.86,5.6
			c-17.07,5.82-48.85,16.64-54.96,33.76c-4.02,11.26,3.26,22.39,9.69,32.21c3.24,4.96,6.31,9.65,7.2,13.43
			c0.62,2.65,0.96,6.28,1.37,10.49c1.31,13.74,3.12,32.56,16.81,39.9c4.97,2.67,12.72,3.96,21.91,3.96c14.23,0,31.9-3.08,48.03-8.91
			c20.72-7.48,34.75-18.06,39.49-29.79c6.32-15.6-3.89-31.59-11.34-43.26C938.67,437.53,936.9,434.77,935.83,432.55z M948.9,482.72
			c-4.39,10.82-17.7,20.72-37.5,27.87c-25.32,9.15-55.46,11.45-67.17,5.15c-12.09-6.49-13.79-24.26-15.04-37.23
			c-0.41-4.33-0.77-8.06-1.44-10.94c-1.02-4.37-4.25-9.3-7.66-14.52c-6-9.15-12.78-19.52-9.33-29.2
			c5.56-15.58,37.51-26.46,52.86-31.69c17.8-6.08,31.85-9.12,42.03-9.12c5.98,0,10.62,1.05,13.88,3.16
			c6.84,4.41,8.36,17.83,9.69,29.67c0.81,7.23,1.58,14.05,3.56,18.16c1.16,2.41,2.98,5.25,5.07,8.54
			C944.9,453.61,954.55,468.74,948.9,482.72z"/>
	</g>
	<g>
		<path d="M971.78,572.08c-0.72-3.37-1.13-7.55-1.56-11.97c-1.38-14.21-3.09-31.89-16.99-39.61c-12.9-7.17-28.05-2.16-40.22,1.85
			c-4.98,1.64-9.69,3.19-13.6,3.73l-1.81,0.25c-14.39,1.98-38.46,5.3-46.73,16.5l1.37,1.01l-1.37-1.01
			c-11.98,16.23-6.48,84.91,16.17,102.21c5.72,4.37,15.27,6.6,27.04,6.6c8.59,0,18.35-1.19,28.68-3.6
			c7.45-1.74,14.35-2.41,21.02-3.06c15.77-1.54,29.39-2.88,37.71-18.95c5.3-10.22-0.25-25.79-5.13-39.53
			C974.45,581.16,972.65,576.11,971.78,572.08z M978.46,624.45c-7.47,14.43-19.03,15.56-35.03,17.12
			c-6.46,0.63-13.79,1.35-21.46,3.14c-23.17,5.38-43.91,4.45-52.88-2.39c-21.26-16.24-26.38-82.72-15.49-97.49
			c7.42-10.05,30.6-13.24,44.45-15.15l1.81-0.25c4.23-0.58,9.07-2.19,14.2-3.88c7.75-2.55,16.16-5.32,24.24-5.32
			c4.59,0,9.07,0.89,13.27,3.22c12.33,6.85,13.88,22.85,15.26,36.96c0.44,4.53,0.85,8.8,1.62,12.36c0.92,4.25,2.75,9.39,4.69,14.84
			C977.79,600.72,983.07,615.55,978.46,624.45z"/>
	</g>
	<g>
		<path d="M981.22,713.51c-0.23-2.42-0.08-5.88,0.09-9.89c0.54-12.73,1.35-31.97-9.61-42.94c-7.21-7.22-25.01-7.94-34.97-7.64
			c-22.08,0.54-50.49,6.59-59.69,16.73c-10.84,11.97-16.45,29.63-15.38,48.47c1.12,19.93,9.35,38.04,22.58,49.68
			c10.93,9.63,29.49,12.99,45.69,12.99c2.94,0,5.8-0.11,8.54-0.31c18.95-1.42,34.87-7.25,41.57-15.22
			c10.96-13.04,7.51-25.63,4.17-37.82C982.95,722.94,981.65,718.16,981.22,713.51z M977.43,763.18
			c-6.13,7.29-21.16,12.66-39.23,14.01c-21.68,1.63-41.58-2.9-51.72-11.83c-12.55-11.05-20.36-28.3-21.43-47.32
			c-1.01-17.93,4.27-34.69,14.51-45.99c7.38-8.15,32.53-15,57.24-15.61c1.13-0.03,2.23-0.04,3.31-0.04
			c14.35,0,24.89,2.39,29.18,6.69c9.9,9.9,9.16,27.52,8.62,40.39c-0.17,4.13-0.33,7.69-0.08,10.35c0.46,4.95,1.81,9.87,3.11,14.62
			C984.18,740.31,987.24,751.51,977.43,763.18z"/>
	</g>
	<g>
		<g>
			<g>
				<path d="M190.04,949.23c-0.83-4.45-0.45-10.09-0.05-16.05c0.84-12.55,1.81-26.78-8.48-35.01c-10.44-8.35-21.21-5.94-31.62-3.61
					c-4.62,1.04-9.39,2.11-14.12,2.23c-3.54,0.09-7.54-0.24-11.79-0.58c-13.89-1.14-31.2-2.57-39.8,11.89
					c-9.01,15.14-4.95,27.85-1.69,38.07c1.42,4.45,2.76,8.66,2.83,12.43c0.07,3.45-0.68,7.72-1.47,12.25
					c-2.09,12.03-4.71,26.99,6.64,36.53c6.55,5.51,14,7.15,21.36,7.15c5.99,0,11.92-1.09,17.26-2.07c3.61-0.67,7.02-1.29,10.06-1.53
					c2.72-0.21,6-0.19,9.5-0.15c13.27,0.19,31.61,0.33,41.48-13.69c9.57-13.58,5.78-26.54,2.43-37.97
					C191.59,955.68,190.63,952.43,190.04,949.23z M187.39,995.14c-8.83,12.54-25.32,12.42-38.67,12.24
					c-3.56-0.04-6.93-0.07-9.8,0.16c-3.22,0.25-6.71,0.89-10.4,1.57c-11.79,2.16-25.17,4.62-35.82-4.34
					c-9.85-8.28-7.53-21.6-5.48-33.34c0.82-4.69,1.59-9.13,1.52-12.9c-0.09-4.27-1.5-8.7-3-13.4c-3.2-10.06-6.84-21.46,1.38-35.29
					c7.51-12.64,22.95-11.38,36.59-10.24c4.34,0.37,8.42,0.72,12.16,0.6c5.05-0.14,9.99-1.24,14.77-2.31
					c10.07-2.25,19.59-4.38,28.74,2.94c8.89,7.12,8.04,19.83,7.21,32.12c-0.42,6.19-0.81,12.03,0.09,16.91
					c0.63,3.36,1.61,6.69,2.64,10.22C192.61,971.29,196.01,982.89,187.39,995.14z"/>
			</g>
		</g>
		<g>
			<g>
				<path d="M216.84,1068.39c-1.07-3.2-1.62-7.05-2.19-11.11c-1.75-12.37-3.94-27.77-22.69-37.68c-14.11-7.46-38.36-6.07-64.88,3.7
					c-19.97,7.36-34.95,17.32-38.15,25.37c-6.74,16.97-0.68,30,4.67,41.49c1.77,3.82,3.45,7.42,4.71,11.11
					c1.5,4.41,2.17,9.78,2.89,15.48c1.75,13.89,3.73,29.65,18.75,36.68c6.35,2.97,13.91,4.21,21.94,4.21
					c14.89,0,31.37-4.26,44.52-9.56c20.55-8.27,35.7-19.61,39.54-29.59c5.74-14.94-0.39-29.19-5.31-40.64
					C219.18,1074.49,217.82,1071.33,216.84,1068.39z M222.76,1117.26c-3.46,8.99-18.23,19.86-37.63,27.66
					c-19.58,7.89-46.63,13.45-63.74,5.42c-13.32-6.24-15.1-20.36-16.82-34.02c-0.74-5.87-1.44-11.41-3.04-16.14
					c-1.31-3.88-3.1-7.73-4.84-11.46c-5.3-11.4-10.79-23.19-4.59-38.79c2.77-6.98,17.64-16.62,36.16-23.44
					c19.8-7.29,46.52-12.14,62.11-3.9c17.22,9.11,19.18,22.95,20.91,35.16c0.6,4.22,1.17,8.22,2.33,11.71
					c1.02,3.07,2.41,6.31,3.89,9.73C222.43,1090.65,228.01,1103.62,222.76,1117.26z"/>
			</g>
		</g>
		<g>
			<g>
				<path d="M252.28,1194.66c-1.65-3.5-3.11-8.4-4.66-13.59c-4.14-13.87-9.29-31.13-22-34.11c-11.81-2.77-24.38,3.22-36.56,9.01
					c-5.48,2.61-10.66,5.07-15.67,6.72l-1.8,0.59c-17.22,5.68-43.25,14.25-47.05,32.44c-3.64,17.44,5.82,29.73,13.41,39.61
					c3,3.9,5.84,7.58,7.37,10.98c1.5,3.34,2.43,7.8,3.42,12.54c2.53,12.18,5.68,27.33,21.05,32.77c4.17,1.48,8.31,2.11,12.37,2.11
					c12.92,0,25.13-6.33,35.41-11.67c2.49-1.3,4.88-2.53,7.13-3.6c2.27-1.08,4.86-2.19,7.6-3.37c14.42-6.19,34.18-14.68,37.77-31.56
					c3.14-14.75-4.7-27.21-11.61-38.2C256.08,1201.55,253.84,1197.99,252.28,1194.66z M266.74,1242.82
					c-3.22,15.16-21.28,22.91-35.79,29.14c-2.79,1.2-5.41,2.33-7.72,3.42c-2.28,1.08-4.7,2.34-7.23,3.65
					c-12.94,6.72-29.06,15.06-45.07,9.38c-13.57-4.81-16.38-18.33-18.87-30.26c-1.02-4.92-1.99-9.57-3.65-13.24
					c-1.69-3.77-4.65-7.6-7.77-11.66c-7.54-9.81-16.09-20.93-12.77-36.84c3.39-16.27,28.3-24.47,44.78-29.89l1.8-0.6
					c5.22-1.72,10.74-4.34,16.07-6.88c11.65-5.54,23.72-11.25,34.31-8.77c10.8,2.54,15.63,18.75,19.53,31.78
					c1.58,5.31,3.08,10.34,4.83,14.06c1.66,3.52,3.96,7.17,6.38,11.02C262.14,1217.58,269.59,1229.42,266.74,1242.82z"/>
			</g>
		</g>
		<g>
			<g>
				<path d="M366.57,939.94c-0.48-2.97-0.4-6.43-0.31-10.1c0.25-11.21,0.57-25.17-14.6-36.71c-11.39-8.66-33.06-10.97-57.94-6.22
					c-18.73,3.59-33.44,10.22-37.46,16.9c-8.47,14.06-5.01,26.48-1.95,37.43c1.01,3.62,1.96,7.03,2.53,10.47
					c0.68,4.08,0.49,8.92,0.29,14.03c-0.49,12.56-1.04,26.8,11.26,35.25c8.49,5.83,20.56,8.02,32.91,8.02
					c9.17,0,18.51-1.2,26.64-3.01c19.38-4.31,34.45-12.14,39.32-20.43c7.29-12.4,3.95-25.91,1.26-36.75
					C367.74,945.65,367,942.66,366.57,939.94z M364.32,983.84c-4.34,7.39-18.91,14.78-37.12,18.84
					c-18.39,4.08-42.99,5.06-56.89-4.49c-10.76-7.39-10.26-20.06-9.79-32.31c0.21-5.29,0.4-10.3-0.33-14.72
					c-0.6-3.62-1.62-7.28-2.61-10.83c-3.01-10.8-6.12-21.96,1.58-34.76c3.44-5.7,17.91-12.01,35.19-15.32
					c18.5-3.54,42.73-3.94,55.24,5.58c13.79,10.48,13.51,22.93,13.25,33.92c-0.09,3.83-0.17,7.45,0.35,10.72
					c0.46,2.87,1.21,5.93,2.01,9.17C367.88,960.42,370.91,972.63,364.32,983.84z"/>
			</g>
		</g>
		<g>
			<g>
				<path d="M377.22,1048.09c-0.86-3.04-1.4-7.21-1.97-11.63c-1.54-11.91-3.46-26.72-13.56-30.9c-9.3-3.85-20.39-0.63-31.12,2.48
					c-4.79,1.39-9.31,2.7-13.59,3.38l-1.55,0.25c-14.82,2.35-37.23,5.88-42.78,20.33c-5.32,13.83,0.77,25.14,5.67,34.23
					c1.91,3.56,3.72,6.91,4.51,9.84c0.77,2.88,0.93,6.62,1.1,10.58c0.45,10.31,1.02,23.14,12.94,29.69
					c5.09,2.8,10.38,3.84,15.65,3.84c8.67,0,17.26-2.82,24.71-5.26c2.19-0.72,4.29-1.41,6.25-1.98c1.99-0.58,4.23-1.14,6.63-1.73
					c12.61-3.14,29.89-7.45,35.1-20.85c4.55-11.69-0.2-22.93-4.39-32.83C379.39,1054.17,378.05,1050.98,377.22,1048.09z
					 M274.27,1032.61h-0.04H274.27z M382.03,1089.13c-4.57,11.77-20.19,15.65-32.75,18.78c-2.43,0.6-4.72,1.18-6.75,1.76
					c-2,0.58-4.14,1.28-6.38,2.01c-11.35,3.73-25.49,8.38-37.66,1.68c-10.24-5.63-10.74-16.91-11.17-26.86
					c-0.19-4.15-0.35-8.07-1.22-11.31c-0.89-3.32-2.79-6.85-4.8-10.58c-4.81-8.91-10.25-19.02-5.49-31.39
					c4.85-12.62,26.08-15.97,40.14-18.19l1.55-0.25c4.49-0.72,9.33-2.11,14.01-3.48c6.98-2.02,14.12-4.09,20.57-4.09
					c2.94,0,5.74,0.43,8.3,1.5c8.28,3.42,10.06,17.15,11.49,28.19c0.58,4.55,1.14,8.83,2.08,12.12c0.88,3.1,2.27,6.38,3.74,9.84
					C381.62,1068.17,386.09,1078.73,382.03,1089.13z"/>
			</g>
		</g>
		<g>
			<g>
				<path d="M258.95,1282.79c-8.87-0.85-16.44,3.49-23.08,7.39c-2.9,1.71-5.64,3.32-8.06,4.16c-1.79,0.63-4.14,0.98-6.86,1.39
					c-8.79,1.32-20.84,3.13-28.07,16.7c-5.58,10.46,0.15,30.35,7.84,44.41c8.2,14.98,18.54,24.36,27.67,25.09
					c0.98,0.08,1.93,0.11,2.83,0.11c9.62,0,14.84-4.19,19.9-8.26c2.26-1.81,4.59-3.69,7.31-5.16c2.15-1.16,4.67-2.17,7.35-3.22
					c8.63-3.43,19.36-7.69,21.98-20.43c3.24-15.8-7.76-39.94-16.61-52.03C267.94,1288.56,263.22,1283.24,258.95,1282.79z
					 M284.41,1344.28c-2.24,10.94-11.22,14.5-19.9,17.95c-2.77,1.1-5.38,2.13-7.71,3.4c-2.98,1.61-5.44,3.59-7.82,5.5
					c-5.46,4.41-10.07,8.22-20.33,7.41c-7.86-0.62-17.42-9.57-24.95-23.33c-8.74-15.97-12.03-33.29-7.82-41.17
					c6.42-12.06,17.04-13.65,25.57-14.94c2.89-0.43,5.38-0.8,7.47-1.54c2.73-0.96,5.62-2.65,8.67-4.45
					c5.64-3.32,11.98-7.04,18.98-7.04c0.66,0,1.34,0.03,2.01,0.11c2.3,0.24,5.96,3.51,9.8,8.75
					C278.21,1308.36,287.13,1331.03,284.41,1344.28z"/>
			</g>
		</g>
		<g>
			<g>
				<path d="M301.51,1365.24c-10.67-2.21-15.85,1.36-23.67,6.75c-2.27,1.58-4.81,3.33-7.83,5.18c-3.14,1.93-6.09,3.4-8.94,4.83
					c-8.29,4.14-14.84,7.41-17.09,17.7c-4.24,19.39,17.84,55.41,36.91,60.22c1.89,0.48,3.68,0.69,5.38,0.69
					c8.38,0,14.92-5.19,21.78-10.63c2.63-2.09,5.34-4.24,8.28-6.2c11.34-7.62,17.6-11.81,20.18-24.63
					C339.79,1402.85,317.55,1368.59,301.51,1365.24z M333.18,1418.47c-2.31,11.44-7.46,14.9-18.75,22.47
					c-3.04,2.04-5.81,4.24-8.49,6.37c-7.92,6.28-14.74,11.69-24.22,9.31c-17.38-4.39-38.3-38.52-34.43-56.19
					c1.9-8.7,7.23-11.35,15.29-15.38c2.78-1.39,5.93-2.96,9.2-4.97c3.08-1.88,5.66-3.67,7.98-5.28c7.6-5.25,11.77-8.16,21.05-6.22
					C314.88,1371.51,336.05,1404.16,333.18,1418.47z"/>
			</g>
		</g>
		<g>
			<path d="M358.75,1524.6c-10.14,0-22.54-4.64-34.94-13.05c-15.17-10.31-22.2-23.81-23.71-33.01c-0.85-5.19-0.12-9.64,2.06-12.52
				c0.11-0.15,0.22-0.29,0.34-0.43c0.26-1.15,0.7-2.21,1.32-3.16c5.27-8.02,17.42-16.14,31.71-21.19
				c15.02-5.32,28.36-5.71,35.68-1.05c6.85,4.38,11.62,12.32,13.81,22.96l0,0c3.52,17.09-0.12,39.87-8.27,51.88
				c-0.04,0.06-0.09,0.12-0.13,0.18c-0.1,0.19-0.2,0.39-0.32,0.59c-2.36,4.14-6.31,6.96-11.42,8.15
				C362.99,1524.38,360.93,1524.6,358.75,1524.6z M357.8,1440.24c-17.47,0-43.28,11.93-51.21,24c-0.46,0.7-0.76,1.47-0.92,2.36
				l-0.08,0.44l-0.29,0.34c-0.17,0.2-0.34,0.41-0.5,0.63c-1.63,2.15-2.14,5.7-1.43,9.99c1.4,8.52,8,21.09,22.31,30.82
				c11.68,7.93,23.74,12.48,33.08,12.48c1.92,0,3.73-0.19,5.38-0.58c4.19-0.97,7.4-3.25,9.29-6.57c0.11-0.2,0.21-0.39,0.31-0.58
				l0.14-0.23c0.05-0.07,0.1-0.13,0.15-0.19c7.7-11.34,11.11-33.02,7.76-49.35l0,0c-2-9.74-6.27-16.95-12.35-20.84
				C366.47,1441.08,362.43,1440.24,357.8,1440.24z"/>
		</g>
		<g>
			<g>
				<path d="M438.45,1554.05c-6.59,0-15.63-2.32-28.09-6.07c-18.73-5.62-30.15-10.3-33.13-17.56c-1.19-2.91-0.93-5.97,0.78-9.08
					c0.26-0.47,0.57-0.92,0.94-1.38c1.97-3.86,8.7-16.42,18.29-27.17c12.85-14.4,25.34-19.61,37.14-15.5
					c29.79,10.35,20.31,58.59,18.1,68.15c-0.27,1.18-0.92,2.17-1.89,2.89c-1.06,1.71-2.48,3.06-4.21,4
					C444.25,1553.49,441.65,1554.05,438.45,1554.05z M426.59,1479.27c-22.64,0-42.4,37.67-44.77,42.36l-0.21,0.32
					c-0.29,0.34-0.52,0.66-0.69,0.99c-1.22,2.23-1.42,4.27-0.62,6.25c2.46,5.99,14.18,10.59,31.02,15.65
					c11.83,3.56,20.97,5.93,27.14,5.93c2.64,0,4.72-0.43,6.36-1.31c1.31-0.71,2.33-1.72,3.12-3.08l0.2-0.35l0.34-0.22
					c0.42-0.27,0.68-0.62,0.79-1.09c0.93-4.04,3.89-18.29,2.92-32.41c-1.18-17.21-7.54-27.93-18.89-31.88l0,0
					C431.04,1479.63,428.8,1479.27,426.59,1479.27z"/>
			</g>
		</g>
		<g>
			<g>
				<path d="M508.41,1567.52c-4.24,0-8.83-0.38-13.27-0.75l-1.87-0.16c-2.2-0.18-4.56-0.29-7.05-0.41l-0.37-0.02
					c-10.84-0.5-23.13-1.07-28.8-7.6c-2.38-2.74-3.39-6.2-3-10.31c0.1-1.04,0.39-2,0.87-2.86c2.14-15.02,12.91-52.84,37.81-52.84
					c0.19,0,0.39,0,0.59,0.01c26.37,0.59,35.38,42.75,35.44,61.89l0,0c0,0.8-0.11,1.58-0.35,2.33c-0.49,2.42-1.59,4.47-3.28,6.09
					C521.84,1566.05,516.53,1567.52,508.41,1567.52z M492.77,1495.88c-0.02,0-0.03,0-0.05,0c-9.98,0-18.51,6.89-25.33,20.48
					c-5.61,11.16-8.45,24-9.25,29.83l-0.05,0.35l-0.19,0.3c-0.32,0.51-0.51,1.09-0.57,1.75c-0.3,3.17,0.44,5.8,2.2,7.83
					c4.74,5.46,16.28,6,26.46,6.47l0.37,0.02c2.52,0.12,4.91,0.23,7.17,0.41l1.8,0.15c4.44,0.37,8.96,0.75,13.06,0.75
					c7.21,0,11.8-1.18,14.43-3.7c1.22-1.17,1.99-2.63,2.34-4.44l0.05-0.2c0.15-0.45,0.22-0.92,0.22-1.39v0
					c-0.02-8.68-1.97-23.39-7.36-36.27c-4.2-10.03-11.93-22.04-24.87-22.34C493.05,1495.88,492.91,1495.88,492.77,1495.88z"/>
			</g>
		</g>
		<g>
			<g>
				<path d="M372.47,1200.57c-10.75,0-24.6-7.36-37.06-19.68c-15.85-15.68-17.25-32.07-17.3-36.72c-0.07-6.04,2.07-11.07,6.33-14.98
					c0.11-0.1,0.19-0.17,0.25-0.23c6.65-6.93,20.08-12.7,35.05-15.08c15.74-2.5,28.92-0.46,35.26,5.46
					c5.93,5.55,9.18,14.22,9.4,25.08l0,0c0.35,17.45-7.37,39.19-17.57,49.51c-0.1,0.1-0.46,0.53-0.59,0.68
					c-3.07,3.64-7.46,5.69-12.7,5.93C373.19,1200.56,372.83,1200.57,372.47,1200.57z M372.62,1116.19
					c-16.57,0-37.18,6.35-45.55,15.06c-0.09,0.09-0.22,0.22-0.4,0.38c-1.32,1.21-5.34,4.88-5.26,12.51
					c0.05,4.33,1.36,19.61,16.32,34.41c11.86,11.73,24.84,18.73,34.74,18.73c0.32,0,0.62,0,0.93-0.02c4.29-0.2,7.87-1.84,10.33-4.77
					c0.17-0.2,0.66-0.77,0.76-0.87c9.65-9.76,16.95-30.46,16.61-47.13v0c-0.2-9.95-3.08-17.81-8.35-22.73
					C388.58,1117.87,381.13,1116.19,372.62,1116.19z"/>
			</g>
		</g>
		<g>
			<path d="M440.73,1247.14c-6.93,0-16.12-5.07-30.65-14.42c-16.45-10.57-26.15-18.22-27-26.01c-0.34-3.08,0.79-6.03,3.25-8.52
				c0.37-0.38,0.79-0.73,1.28-1.06c2.95-3.17,12.87-13.38,25.07-21.08c16.31-10.29,29.76-11.86,39.97-4.66l0,0
				c25.77,18.16,3.37,61.92-1.39,70.5c-0.42,0.76-1.21,1.73-2.61,2.26c-1.5,1.36-3.23,2.26-5.16,2.69
				C442.6,1247.05,441.68,1247.14,440.73,1247.14z M438.46,1170.31c-20.79,0-45.31,25.7-48.55,29.2l-0.29,0.25
				c-0.38,0.25-0.67,0.49-0.93,0.76c-1.79,1.81-2.55,3.72-2.32,5.84c0.7,6.43,10.7,14.08,25.5,23.59
				c13.68,8.8,22.78,13.89,28.87,13.89c0.72,0,1.39-0.07,2.06-0.21c1.46-0.32,2.72-1.01,3.85-2.1l0.29-0.28l0.39-0.11
				c0.48-0.14,0.82-0.41,1.05-0.82c4.51-8.15,25.84-49.66,2.37-66.2h0C446.97,1171.43,442.79,1170.31,438.46,1170.31z"/>
		</g>
		<g>
			<path d="M515,1266.57c-5.38,0-11.44-0.96-17.31-1.88l-1.78-0.28c-2.17-0.34-4.48-0.62-6.93-0.91l-0.46-0.06
				c-11.3-1.34-22.98-2.73-28.17-9.66c-2.15-2.86-2.91-6.34-2.26-10.35l0.02-0.14c0.17-1.03,0.54-1.97,1.08-2.81
				c3.27-14.96,16.93-52.15,42.08-49.91l0.01,0c26.31,2.51,32.23,45.21,30.89,64.3c-0.05,0.78-0.22,1.55-0.51,2.29
				c-0.67,2.38-1.91,4.35-3.71,5.84C525.06,1265.4,520.82,1266.57,515,1266.57z M461.38,1243.76l-0.01,0.09
				c-0.53,3.14,0.01,5.81,1.63,7.96c4.34,5.79,15.31,7.1,25.92,8.36l0.46,0.06c2.48,0.3,4.82,0.58,7.05,0.93l1.78,0.28
				c5.74,0.91,11.67,1.84,16.8,1.84c5.02,0,8.57-0.92,10.84-2.8c1.3-1.08,2.17-2.48,2.66-4.26l0.06-0.19
				c0.18-0.43,0.28-0.89,0.31-1.36c0.61-8.66-0.26-23.47-4.72-36.71c-3.47-10.31-10.3-22.85-23.19-24.08
				c-10.06-0.89-19.16,5.29-27.06,18.38c-6.5,10.78-10.32,23.46-11.56,29.25l-0.07,0.35l-0.21,0.29
				C461.72,1242.6,461.5,1243.13,461.38,1243.76z"/>
		</g>
		<g>
			<path d="M770.23,886.91c-24.88-4.78-46.55-2.44-57.94,6.22c-15.17,11.54-14.85,25.5-14.59,36.71c0.08,3.67,0.16,7.13-0.31,10.1
				c-0.43,2.73-1.17,5.72-1.95,8.88c-2.69,10.85-6.02,24.35,1.26,36.75c4.87,8.29,19.94,16.12,39.32,20.43
				c8.14,1.81,17.46,3.01,26.64,3.01c12.35,0,24.42-2.19,32.91-8.02c12.3-8.45,11.75-22.69,11.27-35.25
				c-0.2-5.12-0.39-9.95,0.29-14.03c0.57-3.44,1.52-6.85,2.53-10.47c3.05-10.96,6.51-23.37-1.96-37.43
				C803.67,897.13,788.97,890.5,770.23,886.91z M806.37,940.33c-0.98,3.54-2.01,7.21-2.61,10.82c-0.72,4.43-0.53,9.43-0.33,14.72
				c0.47,12.25,0.96,24.92-9.8,32.31c-13.89,9.55-38.48,8.58-56.89,4.49c-18.21-4.06-32.78-11.45-37.12-18.84
				c-6.58-11.2-3.56-23.43-0.89-34.21c0.8-3.24,1.56-6.3,2.01-9.17c0.52-3.27,0.44-6.88,0.35-10.7
				c-0.25-10.99-0.54-23.44,13.25-33.93c7.57-5.76,19.43-7.89,31.72-7.89c8.02,0,16.22,0.9,23.53,2.31
				c17.28,3.31,31.75,9.61,35.18,15.32C812.49,918.37,809.38,929.53,806.37,940.33z"/>
		</g>
		<g>
			<path d="M748.53,1011.67l-1.55-0.25c-4.27-0.68-8.8-1.99-13.59-3.38c-10.74-3.11-21.82-6.33-31.13-2.48
				c-10.09,4.17-12.01,18.99-13.55,30.88c-0.57,4.42-1.11,8.6-1.98,11.64c-0.83,2.9-2.17,6.08-3.6,9.45
				c-4.18,9.91-8.93,21.13-4.38,32.83c5.21,13.4,22.49,17.7,35.1,20.85c2.39,0.59,4.63,1.15,6.63,1.73
				c1.97,0.57,4.06,1.26,6.26,1.98c7.44,2.45,16.03,5.26,24.7,5.26c5.27,0,10.56-1.04,15.65-3.84
				c11.93-6.55,12.49-19.38,12.94-29.69c0.17-3.96,0.33-7.7,1.1-10.58c0.79-2.93,2.6-6.29,4.51-9.84
				c4.89-9.09,10.99-20.4,5.67-34.23C785.75,1017.55,763.35,1014.01,748.53,1011.67z M782.64,1064.62
				c-2.01,3.74-3.91,7.26-4.8,10.58c-0.87,3.24-1.04,7.16-1.22,11.31c-0.43,9.95-0.93,21.23-11.17,26.86
				c-12.17,6.69-26.3,2.05-37.66-1.68c-2.23-0.73-4.37-1.44-6.38-2.01c-2.03-0.58-4.31-1.16-6.75-1.76
				c-12.56-3.12-28.18-7.01-32.75-18.78c-4.05-10.4,0.41-20.95,4.34-30.26c1.47-3.47,2.85-6.75,3.74-9.85
				c0.94-3.28,1.5-7.59,2.09-12.13c1.43-11.03,3.2-24.75,11.48-28.17c2.57-1.06,5.36-1.5,8.3-1.5c6.45,0,13.59,2.07,20.57,4.09
				c4.68,1.36,9.52,2.76,14.01,3.47l1.55,0.25c14.05,2.22,35.28,5.58,40.14,18.19C792.89,1045.59,787.45,1055.7,782.64,1064.62z"/>
		</g>
		<g>
			<path d="M692.19,1199.05c-0.19,0-0.39,0-0.57-0.01c-5.22-0.12-9.66-2.08-12.8-5.65c-0.14-0.16-0.27-0.32-0.4-0.48
				c-0.08-0.07-0.14-0.12-0.19-0.17c-10.44-10.1-18.63-31.67-18.67-49.12c-0.03-10.85,3.03-19.59,8.85-25.28
				c6.2-6.06,19.33-8.4,35.13-6.25c15.02,2.04,28.57,7.52,35.36,14.3c0.8,0.8,1.45,1.74,1.93,2.81c0.14,0.11,0.28,0.23,0.42,0.35
				c2.73,2.38,4.35,6.58,4.57,11.83l0,0c0.39,9.31-3.73,23.96-16.48,37.15C716.91,1191.38,703.02,1199.05,692.19,1199.05z
				 M692.2,1114.66c-9.13,0-17.18,1.82-21.5,6.05c-5.16,5.05-7.88,12.97-7.85,22.91c0.04,16.67,7.79,37.2,17.66,46.75l0.39,0.38
				c0.12,0.16,0.25,0.31,0.39,0.47c2.52,2.86,6.12,4.43,10.43,4.53c0.17,0.01,0.32,0,0.47,0.01c9.96,0,22.96-7.29,34.77-19.5
				c12.03-12.43,15.92-26.08,15.56-34.71v0c-0.18-4.34-1.4-7.71-3.44-9.48c-0.21-0.18-0.41-0.35-0.62-0.51l-0.35-0.28l-0.17-0.42
				c-0.33-0.84-0.78-1.53-1.38-2.12C728.27,1120.46,708.5,1114.66,692.2,1114.66z"/>
		</g>
		<g>
			<g>
				<path d="M622.83,1246.2c-1.14,0-2.21-0.13-3.26-0.4c-1.92-0.5-3.62-1.47-5.07-2.87c-1.4-0.59-2.14-1.59-2.53-2.35
					c-4.45-8.75-25.29-53.27,1.12-70.51c10.47-6.83,23.85-4.78,39.77,6.07c10.19,6.94,18.69,15.72,22.69,20.14v-0.18l2.87,3.11
					c2.41,2.62,3.4,5.52,2.94,8.63c-1.13,7.76-11.08,15.06-27.9,25.04C638.92,1241.52,629.73,1246.2,622.83,1246.2z M626.41,1169.49
					c-4.01,0-7.91,1-11.51,3.35c-10.06,6.57-13.64,18.51-10.63,35.5c2.47,13.95,8.78,27.07,10.65,30.76
					c0.21,0.41,0.55,0.7,1.03,0.86l0.38,0.13l0.28,0.29c1.09,1.13,2.33,1.86,3.78,2.24c0.78,0.2,1.58,0.29,2.44,0.29
					c6.1,0,15.24-4.71,28.95-12.86c15.12-8.98,25.39-16.27,26.32-22.68c0.3-2.03-0.33-3.9-1.92-5.71l-0.19-0.2
					c-0.26-0.28-0.56-0.54-0.92-0.8l-0.28-0.26C671.63,1196.73,647.39,1169.49,626.41,1169.49z"/>
			</g>
		</g>
		<g>
			<g>
				<path d="M549.13,1268.07c-5.24,0-9.13-1.06-11.91-3.23c-1.83-1.44-3.13-3.37-3.86-5.72c-0.31-0.73-0.51-1.5-0.59-2.3
					c-1.83-19.06,2.98-61.91,29.19-65.09c25.12-3,39.76,33.91,43.4,48.8c0.56,0.82,0.94,1.74,1.14,2.76
					c0.79,4.04,0.13,7.59-1.96,10.55c-5.01,7.06-17.17,8.83-27.91,10.39l-0.25,0.04c-2.52,0.37-4.9,0.72-7.11,1.12l-1.86,0.34
					C561.18,1266.88,554.73,1268.07,549.13,1268.07z M564.87,1194.85c-0.83,0-1.67,0.05-2.51,0.15
					c-12.84,1.56-19.34,14.28-22.54,24.68c-4.1,13.35-4.59,28.18-3.76,36.82c0.05,0.48,0.17,0.94,0.36,1.38l0.07,0.19
					c0.53,1.76,1.44,3.13,2.77,4.18c2.17,1.7,5.4,2.52,9.87,2.52c5.29,0,11.6-1.16,17.7-2.29l1.86-0.34
					c2.27-0.42,4.68-0.77,7.23-1.14l0.25-0.04c10.08-1.47,21.5-3.13,25.69-9.03c1.55-2.19,2.03-4.89,1.42-8.01v0
					c-0.13-0.65-0.37-1.2-0.74-1.68l-0.21-0.28l-0.08-0.34c-1.38-5.78-5.52-18.38-12.27-28.96
					C582.43,1200.82,574,1194.85,564.87,1194.85z"/>
			</g>
		</g>
		<g>
			<path d="M977.6,908.09c-8.6-14.46-25.9-13.02-39.8-11.89c-4.25,0.35-8.28,0.69-11.79,0.58c-4.73-0.13-9.51-1.2-14.13-2.23
				c-10.41-2.32-21.18-4.73-31.62,3.61c-10.28,8.23-9.32,22.46-8.47,35c0.4,5.97,0.78,11.61-0.05,16.07
				c-0.59,3.2-1.55,6.45-2.56,9.9c-3.34,11.43-7.14,24.38,2.43,37.96c9.87,14.01,28.12,13.91,41.49,13.69
				c3.48-0.03,6.78-0.06,9.5,0.15c3.04,0.24,6.45,0.86,10.06,1.53c5.34,0.98,11.27,2.07,17.26,2.07c7.36,0,14.8-1.64,21.35-7.15
				c11.35-9.55,8.74-24.51,6.65-36.53c-0.79-4.53-1.54-8.8-1.47-12.25c0.07-3.78,1.42-7.98,2.83-12.43
				C982.55,935.94,986.61,923.23,977.6,908.09z M974.58,971.42c2.05,11.75,4.37,25.05-5.48,33.34c-10.66,8.97-24.02,6.5-35.81,4.34
				c-3.7-0.68-7.19-1.32-10.4-1.57c-1.82-0.15-3.83-0.19-5.96-0.19c-1.24,0-2.53,0.01-3.84,0.03c-13.34,0.18-29.83,0.3-38.68-12.24
				c-8.62-12.24-5.22-23.83-1.94-35.05c1.03-3.54,2.01-6.87,2.64-10.24c0.91-4.88,0.51-10.73,0.09-16.92
				c-0.82-12.29-1.68-24.99,7.21-32.11c9.15-7.33,18.67-5.2,28.74-2.94c4.78,1.07,9.72,2.17,14.78,2.31
				c3.75,0.11,7.82-0.23,12.16-0.6c13.63-1.14,29.08-2.4,36.59,10.24c8.22,13.83,4.59,25.23,1.38,35.29c-1.5,4.7-2.91,9.13-3,13.4
				C972.99,962.3,973.76,966.73,974.58,971.42z"/>
		</g>
		<g>
			<path d="M934.74,1023.31c-26.55-9.79-50.81-11.17-64.91-3.72c-18.75,9.91-20.93,25.31-22.69,37.69
				c-0.57,4.07-1.12,7.9-2.19,11.11c-0.98,2.94-2.34,6.11-3.78,9.47c-4.93,11.45-11.06,25.69-5.32,40.63
				c3.85,9.99,19,21.33,39.56,29.6c13.16,5.3,29.62,9.55,44.51,9.55c8.02,0,15.59-1.24,21.94-4.21c15.02-7.04,17-22.79,18.75-36.69
				c0.71-5.68,1.39-11.06,2.88-15.46c1.26-3.7,2.93-7.29,4.71-11.1c5.35-11.5,11.41-24.53,4.67-41.5
				C969.66,1040.62,954.7,1030.67,934.74,1023.31z M965.11,1088.74c-1.73,3.72-3.53,7.57-4.84,11.45
				c-1.61,4.73-2.3,10.26-3.04,16.13c-1.72,13.67-3.5,27.8-16.82,34.03c-17.12,8.03-44.15,2.46-63.73-5.42
				c-19.41-7.8-34.19-18.67-37.65-27.67c-5.24-13.64,0.34-26.62,5.26-38.06c1.47-3.42,2.87-6.65,3.89-9.73
				c1.16-3.5,1.73-7.49,2.33-11.71c1.74-12.21,3.7-26.06,20.91-35.17c5.78-3.06,13.1-4.31,21.02-4.31c13.45,0,28.66,3.62,41.12,8.22
				c18.51,6.82,33.36,16.45,36.13,23.42c0,0.01,0,0.01,0,0.01C975.91,1065.54,970.41,1077.33,965.11,1088.74z"/>
		</g>
		<g>
			<path d="M890.2,1163.28l-1.79-0.58c-5.01-1.66-10.19-4.11-15.67-6.72c-12.18-5.79-24.78-11.79-36.56-9.01
				c-12.7,2.98-17.85,20.23-22,34.1c-1.55,5.2-3.02,10.1-4.67,13.6c-1.56,3.33-3.81,6.9-6.18,10.67
				c-6.91,10.99-14.74,23.45-11.61,38.2c3.58,16.88,23.34,25.37,37.76,31.56c2.75,1.18,5.34,2.29,7.61,3.37
				c2.25,1.07,4.63,2.31,7.13,3.6c10.29,5.34,22.49,11.67,35.41,11.67c4.06,0,8.2-0.62,12.37-2.11
				c15.36-5.44,18.52-20.6,21.05-32.77c0.98-4.73,1.91-9.2,3.42-12.54c1.54-3.4,4.37-7.09,7.37-10.99
				c7.59-9.88,17.04-22.16,13.41-39.6C933.46,1177.52,907.43,1168.95,890.2,1163.28z M921.16,1233.24
				c-3.12,4.07-6.08,7.9-7.77,11.67c-1.66,3.67-2.63,8.32-3.65,13.24c-2.49,11.93-5.3,25.45-18.87,30.26
				c-16,5.68-32.13-2.66-45.07-9.38c-2.53-1.31-4.95-2.57-7.23-3.65c-2.31-1.1-4.94-2.23-7.73-3.42
				c-14.5-6.23-32.57-13.98-35.78-29.14c-2.85-13.4,4.59-25.23,11.16-35.68c2.43-3.87,4.73-7.51,6.38-11.04
				c1.75-3.73,3.26-8.75,4.85-14.07c3.89-13.02,8.73-29.23,19.52-31.77c1.75-0.41,3.55-0.6,5.38-0.6c9.21,0,19.21,4.75,28.94,9.37
				c5.33,2.54,10.85,5.16,16.07,6.88l1.79,0.59c16.49,5.42,41.4,13.63,44.8,29.9C937.26,1212.32,928.71,1223.44,921.16,1233.24z"/>
		</g>
		<g>
			<path d="M840.84,1295.74c-2.72-0.41-5.07-0.76-6.85-1.39c-2.41-0.84-5.16-2.45-8.06-4.16c-6.64-3.9-14.19-8.25-23.08-7.39
				c-4.27,0.45-8.99,5.76-12.19,10.14c-8.85,12.09-19.85,36.23-16.61,52.02c2.61,12.74,13.35,17.01,21.97,20.44
				c2.67,1.06,5.19,2.06,7.35,3.22c2.72,1.47,5.05,3.34,7.31,5.16c5.06,4.07,10.27,8.26,19.9,8.26c0.9,0,1.85-0.03,2.83-0.11
				c9.13-0.72,19.47-10.1,27.67-25.09c7.69-14.06,13.43-33.95,7.84-44.4C861.68,1298.87,849.64,1297.06,840.84,1295.74z
				 M858.09,1355.2c-7.53,13.77-17.09,22.71-24.95,23.33c-10.16,0.8-14.86-3-20.33-7.41c-2.38-1.91-4.83-3.89-7.82-5.5
				c-2.33-1.26-4.95-2.3-7.71-3.4c-8.67-3.45-17.65-7.01-19.89-17.96c-2.72-13.24,6.2-35.91,16.02-49.33
				c3.84-5.25,7.5-8.52,9.8-8.75c7.81-0.84,14.81,3.3,21,6.94c3.04,1.79,5.92,3.48,8.65,4.44c2.09,0.73,4.59,1.1,7.47,1.54
				c8.53,1.28,19.15,2.88,25.58,14.94C870.12,1321.91,866.83,1339.23,858.09,1355.2z"/>
		</g>
		<g>
			<path d="M800.73,1381.99c-2.85-1.42-5.8-2.9-8.94-4.82c-3.01-1.85-5.55-3.6-7.82-5.17c-7.82-5.41-13-8.99-23.68-6.76
				c-16.05,3.35-38.29,37.61-35.01,53.91c2.58,12.81,8.83,17,20.18,24.62c2.93,1.96,5.64,4.12,8.28,6.2
				c6.86,5.44,13.4,10.63,21.78,10.63c1.71,0,3.5-0.21,5.38-0.69c19.07-4.81,41.15-40.83,36.91-60.22
				C815.58,1389.41,809.03,1386.14,800.73,1381.99z M780.08,1456.62c-9.43,2.37-16.29-3.03-24.22-9.31
				c-2.68-2.13-5.45-4.33-8.49-6.37c-11.29-7.57-16.44-11.03-18.75-22.47c-2.89-14.32,18.29-46.96,32.36-49.9
				c1.96-0.41,3.69-0.6,5.27-0.6c5.91,0,9.78,2.68,15.77,6.83c2.32,1.6,4.91,3.39,7.98,5.27c3.27,2.01,6.42,3.58,9.2,4.97
				c8.06,4.03,13.39,6.69,15.29,15.39C818.37,1418.09,797.45,1452.23,780.08,1456.62z"/>
		</g>
		<g>
			<g>
				<path d="M700.71,1523.95c-2.2,0-4.27-0.22-6.13-0.66c-5.1-1.18-9.05-4-11.42-8.14c-0.11-0.2-0.22-0.39-0.32-0.59
					c-0.05-0.06-0.09-0.11-0.13-0.17c-8.16-12.03-11.79-34.82-8.27-51.91c2.19-10.63,6.96-18.56,13.8-22.94
					c7.31-4.66,20.65-4.27,35.67,1.05c14.28,5.06,26.43,13.18,31.71,21.19c0.62,0.94,1.06,2,1.32,3.15
					c0.12,0.14,0.23,0.29,0.34,0.44l0,0c2.18,2.88,2.91,7.33,2.06,12.51c-1.52,9.2-8.54,22.71-23.71,33.01
					C723.25,1519.31,710.85,1523.95,700.71,1523.95z M701.65,1439.6c-4.62,0-8.67,0.84-11.63,2.73
					c-6.07,3.88-10.34,11.08-12.35,20.82c-3.36,16.32,0.05,38.01,7.77,49.38c0.04,0.04,0.08,0.09,0.12,0.15l0.16,0.26
					c0.09,0.19,0.19,0.38,0.3,0.57c1.9,3.33,5.11,5.59,9.3,6.56c1.63,0.38,3.44,0.58,5.38,0.58c9.35,0,21.4-4.55,33.07-12.48
					c14.3-9.72,20.9-22.29,22.31-30.82c0.7-4.28,0.19-7.83-1.43-9.98c-0.17-0.22-0.34-0.43-0.51-0.64l-0.29-0.34l-0.08-0.44
					c-0.16-0.89-0.46-1.66-0.92-2.35C744.92,1451.53,719.11,1439.6,701.65,1439.6z"/>
			</g>
		</g>
		<g>
			<g>
				<path d="M623.3,1556.16c-3.24,0-5.85-0.56-7.98-1.72c-1.74-0.95-3.15-2.3-4.21-4.02c-1.2-0.9-1.69-2.05-1.88-2.89
					c-2.18-9.57-11.56-57.83,18.23-68.12c11.83-4.09,24.31,1.14,37.11,15.54c9.54,10.74,16.26,23.34,18.23,27.22
					c0.38,0.46,0.69,0.92,0.95,1.4l0,0c1.7,3.12,1.95,6.18,0.76,9.08c-2.99,7.25-14.42,11.91-33.15,17.51
					C638.92,1553.86,629.9,1556.16,623.3,1556.16z M635.2,1481.39c-2.2,0-4.43,0.36-6.67,1.13c-27.12,9.38-18.16,55.18-16.09,64.27
					c0.11,0.46,0.36,0.81,0.79,1.08l0.34,0.22l0.2,0.35c0.78,1.36,1.81,2.37,3.12,3.09c1.63,0.89,3.73,1.32,6.4,1.32
					c6.17,0,15.3-2.35,27.1-5.87c16.85-5.03,28.58-9.61,31.05-15.6c0.81-1.96,0.61-4.01-0.61-6.25c-0.18-0.33-0.41-0.66-0.7-1
					l-0.21-0.32C677.56,1519.12,657.86,1481.39,635.2,1481.39z"/>
			</g>
		</g>
		<g>
			<g>
				<path d="M553.35,1569.34c-8.12,0-13.43-1.47-16.72-4.62c-1.69-1.62-2.79-3.67-3.28-6.1c-0.23-0.75-0.35-1.53-0.35-2.32
					c0.05-19.14,9.06-61.3,35.46-61.89c0.17-0.01,0.37-0.01,0.56-0.01c24.9,0,35.67,37.82,37.81,52.84
					c0.48,0.87,0.78,1.83,0.88,2.87v0c0.39,4.1-0.62,7.57-3,10.3c-5.68,6.53-17.97,7.1-28.81,7.6l-0.37,0.02
					c-2.49,0.12-4.85,0.22-7.06,0.41l-1.79,0.15C562.21,1568.96,557.61,1569.34,553.35,1569.34z M568.98,1497.7
					c-0.13,0-0.27,0-0.41,0c-12.97,0.29-20.7,12.31-24.9,22.34c-5.4,12.88-7.34,27.58-7.36,36.27c0,0.48,0.07,0.94,0.22,1.39
					l0.05,0.2c0.35,1.82,1.12,3.27,2.35,4.45c2.63,2.53,7.22,3.7,14.43,3.7c4.12,0,8.65-0.38,13.03-0.74l1.82-0.16
					c2.27-0.19,4.65-0.3,7.18-0.41l0.37-0.02c10.18-0.47,21.72-1,26.47-6.47c1.76-2.03,2.5-4.66,2.2-7.83
					c-0.06-0.66-0.25-1.23-0.58-1.75l-0.19-0.3l-0.05-0.35c-0.8-5.83-3.64-18.67-9.25-29.83c-6.83-13.59-15.35-20.48-25.33-20.48
					C569.02,1497.7,569,1497.7,568.98,1497.7z"/>
			</g>
		</g>
	</g>
</g>
</svg>
