<?xml version="1.0" encoding="utf-8"?>
<!-- Generator: Adobe Illustrator 24.1.2, SVG Export Plug-In . SVG Version: 6.00 Build 0)  -->
<svg version="1.1" id="Layer_1" xmlns="http://www.w3.org/2000/svg" xmlns:xlink="http://www.w3.org/1999/xlink" x="0px" y="0px"
	 viewBox="0 0 90 170" style="enable-background:new 0 0 90 170;" xml:space="preserve">
<style type="text/css">
	.st0{fill:#20627F;}
</style>
<g id="Layer_6">
	<path class="st0" d="M45.8,60.9c0.4,0.1,0.9,0.2,1.4,0.3l1.5,0.3c1,0.2,1.9,0.5,2.9,0.8c1.9,0.6,3.8,1.3,5.7,2
		c3.7,1.5,7.1,3.4,10,5.8c2.8,2.3,4.9,5.1,5.8,8.1c0.4,1.5,0.6,3.1,0.5,4.8l-0.1,1.3l-0.2,1.2c-0.1,0.8-0.4,1.6-0.7,2.3
		c-0.1,0.4-0.3,0.7-0.5,1.1c-0.2,0.4-0.3,0.7-0.6,1.1l-0.7,1c-0.1,0.2-0.2,0.3-0.4,0.5L69.9,92L69.1,93l-1,0.8
		c-0.6,0.6-1.4,1-2.1,1.6c-3,2-6.7,3.4-10.5,4.4c-3.9,1-7.9,1.6-12,2l-3.1,0.2l-1.5,0.1l-1.4,0.1l-0.3-8.4
		C30.6,98.4,23,102.6,15,106c3.5,2.7,7.2,5.1,11.1,7.5c3.9,2.4,7.9,4.6,12.2,6.6l-0.3-8.4l1.5-0.1l1.6-0.1l3.4-0.3
		c4.5-0.4,9-1.1,13.6-2.3c4.5-1.2,9.1-2.8,13.3-5.6c1-0.8,2.1-1.4,3.1-2.3l1.5-1.3l1.3-1.5l0.7-0.7c0.2-0.3,0.4-0.5,0.6-0.8l1.2-1.7
		c0.4-0.6,0.6-1.2,1-1.8c0.3-0.6,0.6-1.2,0.8-1.9c0.4-1.3,0.9-2.6,1.1-3.9l0.4-2l0.1-2c0.2-2.6,0-5.4-0.8-8c-0.8-2.6-2-5.1-3.6-7.2
		c-1.5-2.1-3.4-4-5.3-5.6c-3.9-3.2-8.1-5.4-12.4-7.2c-2.2-0.9-4.3-1.7-6.6-2.3c-1.1-0.3-2.2-0.6-3.3-0.9l-1.7-0.4
		c-0.6-0.1-1.1-0.2-1.8-0.4L45.8,60.9z"/>
</g>
</svg>
