<?xml version="1.0" encoding="utf-8"?>
<!-- Generator: Adobe Illustrator 24.1.2, SVG Export Plug-In . SVG Version: 6.00 Build 0)  -->
<svg version="1.1" id="Layer_1" xmlns="http://www.w3.org/2000/svg" xmlns:xlink="http://www.w3.org/1999/xlink" x="0px" y="0px"
	 viewBox="0 0 90 170" style="enable-background:new 0 0 90 170;" xml:space="preserve">
<style type="text/css">
	.st0{fill:#20627F;}
</style>
<g id="Layer_6">
	<path class="st0" d="M52.2,60.9c-0.4,0.1-0.9,0.2-1.4,0.3l-1.5,0.3c-1,0.2-1.9,0.5-2.9,0.8c-1.9,0.6-3.8,1.3-5.7,2
		c-3.7,1.5-7.1,3.4-10,5.8c-2.8,2.3-4.9,5.1-5.8,8.1c-0.4,1.5-0.6,3.1-0.5,4.8l0.1,1.3l0.2,1.2c0.1,0.8,0.4,1.6,0.7,2.3
		c0.1,0.4,0.3,0.7,0.5,1.1c0.2,0.4,0.3,0.7,0.6,1.1l0.7,1c0.1,0.2,0.2,0.3,0.4,0.5l0.4,0.5l0.8,0.9l1,0.8c0.6,0.6,1.4,1,2.1,1.6
		c3,2,6.7,3.4,10.5,4.4c3.9,1,7.9,1.6,12,2l3.1,0.2l1.5,0.1l1.4,0.1l0.3-8.4c6.7,4.6,14.2,8.8,22.2,12.2c-3.5,2.7-7.2,5.1-11.1,7.5
		c-3.9,2.4-7.9,4.6-12.2,6.6l0.3-8.4l-1.5-0.1l-1.6-0.1l-3.4-0.3c-4.5-0.4-9-1.1-13.6-2.3c-4.5-1.2-9.1-2.8-13.3-5.6
		c-1-0.8-2.1-1.4-3.1-2.3l-1.5-1.3l-1.3-1.5l-0.7-0.7c-0.2-0.3-0.4-0.5-0.6-0.8L18.5,95c-0.4-0.6-0.6-1.2-1-1.8
		c-0.3-0.6-0.6-1.2-0.8-1.9c-0.4-1.3-0.9-2.6-1.1-3.9l-0.4-2l-0.1-2c-0.2-2.6,0-5.4,0.8-8c0.8-2.6,2-5.1,3.6-7.2
		c1.5-2.1,3.4-4,5.3-5.6c3.9-3.2,8.1-5.4,12.4-7.2c2.2-0.9,4.3-1.7,6.6-2.3c1.1-0.3,2.2-0.6,3.3-0.9l1.7-0.4
		c0.6-0.1,1.1-0.2,1.8-0.4L52.2,60.9z"/>
</g>
</svg>
