<?xml version="1.0" encoding="utf-8"?>
<!-- Generator: Adobe Illustrator 24.1.2, SVG Export Plug-In . SVG Version: 6.00 Build 0)  -->
<svg version="1.1" id="Layer_38" xmlns="http://www.w3.org/2000/svg" xmlns:xlink="http://www.w3.org/1999/xlink" x="0px" y="0px"
	 viewBox="0 0 16 16" style="enable-background:new 0 0 16 16;" xml:space="preserve">
<style type="text/css">
	.st0{fill:#1C4B6C;}
</style>
<g>
	<path class="st0" d="M8.8,5.6c-0.1-0.1-0.3,0-0.4,0.2c0,0-0.3,0.7-0.9,1.4c-0.1,0.1-0.1,0.3,0,0.4c0.1,0,0.1,0.1,0.2,0.1
		c0.1,0,0.2,0,0.2-0.1C8.7,6.7,9,6,9,6C9.1,5.8,9,5.7,8.8,5.6z"/>
	<path class="st0" d="M14.3,2.8C12.9,1.7,10.5,1.4,7.9,2C3.8,2.9,0.6,5.7,0.6,8.2c0,0.7,0.4,1.3,1,1.7c0.4,0.3,1,0.4,1.5,0.4
		c0.5,0.7,1.3,1.1,2.2,1.1c0.6,0,1.1,0,1.7-0.1V14c0,0.2,0.1,0.3,0.3,0.3s0.3-0.1,0.3-0.3v-2.8c0.2,0,0.3-0.1,0.5-0.1
		c4.1-0.9,7.3-3.7,7.3-6.2C15.4,4.1,15,3.3,14.3,2.8z M7,10.7c-0.6,0.1-1.2,0.1-1.7,0.1c-0.6,0-1.1-0.2-1.4-0.6
		c0.5-0.1,1.1-0.2,1.6-0.5c0.4-0.2,0.8-0.5,1.1-0.7c0.1-0.1,0.1-0.3,0-0.4c-0.1-0.1-0.3-0.1-0.4,0c-0.3,0.3-0.7,0.5-1,0.7
		C4.7,9.6,4.1,9.7,3.5,9.7C3.4,9.5,3.3,9.3,3.3,9c0-1,0.8-1.9,1.9-1.9S7,8,7,9V10.7z M8,10.6c-0.1,0-0.2,0.1-0.3,0.1V9
		c0-1.3-1.1-2.4-2.4-2.4S2.7,7.6,2.7,9c0,0.2,0,0.5,0.1,0.7C2.5,9.7,2.2,9.5,1.9,9.4C1.6,9.2,1.2,8.8,1.2,8.2c0-2.2,3-4.7,6.8-5.6
		c2.5-0.6,4.7-0.3,6,0.7c0.6,0.5,0.9,1,0.9,1.7C14.8,7.2,11.7,9.7,8,10.6z"/>
</g>
</svg>
