<?xml version="1.0" encoding="utf-8"?>
<!-- Generator: Adobe Illustrator 24.1.2, SVG Export Plug-In . SVG Version: 6.00 Build 0)  -->
<svg version="1.1" id="Layer_38" xmlns="http://www.w3.org/2000/svg" xmlns:xlink="http://www.w3.org/1999/xlink" x="0px" y="0px"
	 viewBox="0 0 16 16" style="enable-background:new 0 0 16 16;" xml:space="preserve">
<style type="text/css">
	.st0{fill:#D2DBE2;}
	.st1{fill:#1C4B6C;}
</style>
<g>
	<polygon class="st0" points="8.3,8 8.3,11.3 11.5,11.3 	"/>
	<path class="st0" d="M7.6,8c0-0.3,0.2-0.5,0.4-0.6c0.1,0,0.2-0.1,0.3-0.1c0.2,0,0.4,0.1,0.5,0.2l3.7,3.8h1.3L8,1.3l-5.8,10h5.4
		L7.6,8z"/>
</g>
<polygon class="st1" points="8.4,16 10.6,13.7 13.9,13.8 8.3,8 "/>
<g>
	<polygon class="st1" points="7.6,11 2.8,11 8,2 13.2,11 12.2,11 12.8,11.6 14.3,11.6 8,0.7 1.7,11.6 7.6,11.6 	"/>
	<polygon class="st1" points="11.8,11.6 11.2,11 8.3,11 8.3,11.6 	"/>
</g>
</svg>
