<?xml version="1.0" encoding="utf-8"?>
<!-- Generator: Adobe Illustrator 24.1.2, SVG Export Plug-In . SVG Version: 6.00 Build 0)  -->
<svg version="1.1" id="Layer_38" xmlns="http://www.w3.org/2000/svg" xmlns:xlink="http://www.w3.org/1999/xlink" x="0px" y="0px"
	 viewBox="0 0 16 16" style="enable-background:new 0 0 16 16;" xml:space="preserve">
<style type="text/css">
	.st0{fill:#8DA5B6;}
	.st1{fill:#ABBCC9;}
	.st2{fill:#D2DBE2;}
	.st3{fill:#E6EBEF;}
	.st4{fill:#1C4B6C;}
</style>
<g>
	<polygon class="st0" points="10.5,7.8 10.6,9.9 11.9,9.3 	"/>
	<path class="st0" d="M9.9,7.8c0-0.3,0.2-0.5,0.4-0.6c0.1,0,0.2,0,0.2,0c0.2,0,0.3,0.1,0.5,0.2L12.6,9l1.7-0.7l-3.4-7.1L6.1,11.7
		l3.8-1.6L9.9,7.8z"/>
</g>
<polygon class="st1" points="6.4,2.8 6.1,11.8 11.1,1.6 10.3,1.5 "/>
<polygon class="st2" points="0.9,2.8 6.1,11.7 6,2.8 "/>
<polygon class="st3" points="6.1,11.7 0.7,11.8 0.7,2.8 6,11.7 "/>
<g>
	<path class="st4" d="M9.9,9.8l-3.1,1.3l4.2-9l2.8,6.1l-1.5,0.6l0.4,0.4l1.8-0.8L11,1l-5,1.6H0.5V12L6.2,12l3.8-1.6L9.9,9.8z
		 M1,11.5V3.3l4.6,8.1L1,11.5z M5.9,10.8L1.5,3h4.4L5.9,10.8z M6.5,3l4.1-1.3l-4.2,9L6.5,3z"/>
</g>
<polygon class="st4" points="10.6,15 12.6,13 15.5,13 10.5,7.8 "/>
</svg>
