<?xml version="1.0" encoding="utf-8"?>
<!-- Generator: Adobe Illustrator 18.1.1, SVG Export Plug-In . SVG Version: 6.00 Build 0)  -->
<!DOCTYPE svg PUBLIC "-//W3C//DTD SVG 1.1//EN" "http://www.w3.org/Graphics/SVG/1.1/DTD/svg11.dtd">
<svg version="1.1" id="Layer_1" xmlns="http://www.w3.org/2000/svg" xmlns:xlink="http://www.w3.org/1999/xlink" x="0px" y="0px"
	 viewBox="0 0 200 200" enable-background="new 0 0 200 200" xml:space="preserve">
<g>
	<polygon fill-rule="evenodd" clip-rule="evenodd" fill="#62150C" points="17.216,63.816 8.41,65.573 3.48,71.353 5.477,78.972 
		11.716,88.615 46.164,131.459 99.719,145.064 162.538,121.326 192.933,78.482 193.513,69.508 181.644,63.718 	"/>
	<path fill-rule="evenodd" clip-rule="evenodd" fill="#D29A9D" d="M16.394,66.213c1.441,6.086,3.363,11.275,6.343,16.337
		l76.116,14.802l77.461-18.068c2.179-4.293,3.588-9.228,4.23-14.032L16.394,66.213z"/>
	<path fill-rule="evenodd" clip-rule="evenodd" fill="#FFFFFF" d="M96.414,80.746c-8.696-1.462-17.235-2.926-25.67-4.389
		c0.054,3.464-0.917,8.884-1.892,11.297c-2.131-2.81-3.069-8.499-3.1-12.163c-5.29-0.923-10.544-1.845-15.771-2.767
		c-0.373,2.342-1.417,5.057-1.727,7.486c-1.067-2.38-2.009-5.258-2.337-8.203c-4.232-0.748-8.449-1.497-12.659-2.244
		c-0.312,2.479-1.793,5.478-2.205,8.136c-1.421-2.608-2.661-5.815-2.935-9.049l-7.64-1.361c-1.305,10.21-0.746,19.036,4.309,24.307
		c0.842,0.878,2.376,0.486,3.402,0.127c1.437-0.503,3.213-1.377,4.707-2.271c1.57,4.662,3.302,7.653,5.964,8.047
		c2.072,0.308,4.778-0.382,7.303-4.307c0.685,5.418,3.446,7.779,7.822,8.92c2.872,0.745,6.11,1.563,9.244,1.722
		c2.539,0.129,4.488-0.963,6.033-2.931c0.739,4.292,3.263,7.144,10.171,7.242c5.004,0.069,9.998,0.178,14.997-0.346
		c2.021-0.192,3.4-1.284,4.137-3.276c0.737,1.992,2.116,3.084,4.137,3.276c4.999,0.524,9.993,0.415,14.997,0.346
		c6.908-0.098,9.431-2.95,10.17-7.242c1.545,1.968,3.494,3.061,6.034,2.931c3.134-0.159,6.372-0.977,9.244-1.722
		c4.377-1.141,7.137-3.502,7.822-8.92c2.524,3.924,5.232,4.615,7.302,4.307c2.662-0.394,4.395-3.385,5.965-8.047
		c1.495,0.894,3.271,1.767,4.707,2.271c1.025,0.36,2.56,0.751,3.402-0.127c5.055-5.271,5.614-14.097,4.309-24.307l-7.641,1.361
		c-0.274,3.234-1.512,6.441-2.934,9.049c-0.412-2.658-1.892-5.657-2.204-8.136c-4.211,0.747-8.429,1.496-12.661,2.244
		c-0.327,2.944-1.269,5.823-2.336,8.203c-0.309-2.429-1.354-5.144-1.726-7.486c-5.229,0.922-10.482,1.844-15.772,2.767
		c-0.031,3.665-0.969,9.354-3.1,12.163c-0.975-2.413-1.946-7.833-1.893-11.297c-8.532,1.48-17.171,2.959-25.971,4.439
		c-0.194,3.102-0.739,6.788-2.364,9.317C97.136,88.113,96.469,84.052,96.414,80.746z"/>
	<path fill-rule="evenodd" clip-rule="evenodd" fill="#FFFFFF" d="M98.495,137.996c-19.013-0.35-35.635-4.448-51.072-12.7
		c0.47-4.281,1.6-7.747,4.37-7.902c1.481-0.083,2.906,0.598,4.368,0.847c2.274,0.386,3.97,1.293,4.37,3.528
		c1.124-1.603,3.246-2.164,5.497-1.976c2.855,0.239,5.611,1.207,8.456,1.551c2.573,0.313,3.854,1.269,4.933,2.541
		c1.08-1.176,2.913-1.855,5.497-1.836c3.149,0.026,6.296,0.171,9.443,0.283c2.09,0.075,4.533,0.093,4.139,2.539
		c-0.394-2.445,2.048-2.464,4.139-2.539c3.147-0.112,6.295-0.257,9.443-0.283c2.584-0.019,4.416,0.66,5.496,1.836
		c1.078-1.273,2.362-2.229,4.933-2.541c2.845-0.344,5.6-1.312,8.456-1.551c2.249-0.189,4.372,0.372,5.496,1.976
		c0.399-2.235,2.097-3.142,4.369-3.528c1.463-0.249,2.889-0.93,4.369-0.847c2.769,0.155,3.9,3.621,4.369,7.902
		C134.131,133.548,117.509,137.646,98.495,137.996z"/>
	<path fill-rule="evenodd" clip-rule="evenodd" fill="#E51B49" d="M190.605,63.971c-27.852-9.199-50.209-20.095-76.25-11.312
		c-4.761,1.605-9.044,3.703-14.853,3.837c-0.367-0.008-0.726-0.025-1.08-0.048c-5.27-0.349-9.313-2.286-13.774-3.789
		c-26.04-8.783-48.397,2.113-76.249,11.312c-7.232,2.389-7.903,7.707-4.159,15.15C14.56,99.646,20.1,125.351,38.304,141.542
		c15.609,13.886,30.727,23.336,60.118,22.069c0.358-0.015,0.717-0.031,1.08-0.049c30.104,1.548,45.398-7.966,61.198-22.02
		c18.202-16.19,23.742-41.896,34.065-62.421C198.508,71.678,197.838,66.36,190.605,63.971z M188.112,78.92
		c-9.738,5.373-29.282,56.965-89.691,56.764h-0.002C33.97,135.469,18.466,84.294,8.728,78.92c-4.31-2.761-5.376-6.578-1.617-9.899
		c3.726-3.293,9.291-0.613,14.546,1.01c4.528,1.524,9.118,2.62,13.762,3.482c5.97,1.108,12.064,1.583,18.154,2.577
		c14.991,2.447,25.047,8.081,44.846,8.081h0.002c19.798-0.002,29.855-5.634,44.845-8.081c6.091-0.994,12.185-1.469,18.154-2.577
		c4.643-0.862,9.234-1.958,13.763-3.482c5.254-1.623,10.819-4.302,14.545-1.01C193.488,72.342,192.422,76.159,188.112,78.92z"/>
</g>
<g>
</g>
<g>
</g>
<g>
</g>
<g>
</g>
<g>
</g>
<g>
</g>
</svg>
