<?xml version="1.0" encoding="utf-8"?>
<!-- Generator: Adobe Illustrator 24.1.2, SVG Export Plug-In . SVG Version: 6.00 Build 0)  -->
<svg version="1.1" id="Layer_1" xmlns="http://www.w3.org/2000/svg" xmlns:xlink="http://www.w3.org/1999/xlink" x="0px" y="0px"
	 viewBox="0 0 128 128" style="enable-background:new 0 0 128 128;" xml:space="preserve">
<style type="text/css">
	.st0{fill:none;stroke:#000000;stroke-width:2.5;stroke-linecap:round;stroke-linejoin:round;stroke-miterlimit:10;}
	.st1{fill:none;stroke:#000000;stroke-width:2;stroke-linecap:round;stroke-linejoin:round;stroke-miterlimit:10;}
</style>
<path class="st0" d="M90,84.3c0,0,4.7-0.2,7.9-1.1c1.3-0.4,3.6-0.3,4.3-0.7c1.1-0.7,4.5-3.8,2.4-5.7c-0.6-0.5-1-2-1.1-3.5
	c-0.1-1.9,0.2-4,1.2-4.7c1.8-1.3,7.2-3.1,9.2-3.8c2.1-0.8,3-4.8,1.6-7.3c-1.2-2.2-10.3-12.1-12.4-16.8c-2.1-4.7-0.8-12.1-0.3-14.2
	c0.5-2.1-2.4-15.7-6-22.2C93-2.5,85-8.6,85-8.6S59.8-26.4,27.5-25.7S-17.1-3.4-22.2,15.2s-4.1,34.7-1,41.7c3.9,8.9,9.5,11,12.4,21.3
	c2.9,10.4,2.7,24.8-0.4,33.3c-11.8,32.6-24,45.5-30.2,49.2"/>
<path class="st0" d="M44.1,166.4c0,0-0.8-0.9-0.5-3.6c0.3-2.7,0.6-4.8,0.6-4.8c0.8-2.3,2.2-10.1,5.4-15.8c3.3-5.8,4-12.3,8.5-20
	c4.5-7.6,11-8.1,11-8.1s8.3-1,21.4-0.8c3.4,0.1,7.5-2.1,9.6-6.3c2.1-4.3-0.4-5.9-0.4-9c0.1-3.2,2-5.7,3-7.3c1.5-2.3-1.4-5.3-4.1-5.8
	c0,0-1.8-0.5-5.3-0.5c-1.2,0-2.5,0-2.5,0"/>
<path class="st0" d="M97.9,33.7c0,0-0.7,1.4-1.2,2.1c-0.5,0.6-1.7,1.6-1.7,1.6"/>
<path class="st0" d="M87.1,43.5l7.6-6.2c0,0,1.2,1,1.5,2C96.1,39.9,90.6,42.4,87.1,43.5z"/>
<path class="st0" d="M87.1,43.5c0,0,6.8,1.7,7.9,1.9c0,0,0.3,0.2,0.7,0"/>
<path class="st0" d="M97.9,33.9c0,0,3.6-3.2,2.2-4.9c-1.4-1.7-6.4,0.3-7.9,0.9c-3.1,1.2-9.3,4.9-9.3,4.9s9.9-3.3,12.4-3.5
	C97.8,31.1,97.9,33.9,97.9,33.9z"/>
<path class="st0" d="M95.4,40.1c0,0,1.1,3.1-0.4,5.3"/>
<path class="st0" d="M94.4,40.7c0,0-0.4,1.2-0.5,2.2c-0.1,1,0.3,2.2,0.3,2.2"/>
<path class="st0" d="M38.5,48.2c0,0,0.4-9.1-9.3-8.9S18.7,49.7,18.9,55.3c0.1,4,2.1,13.2,10.7,20c8.5,6.8,13,1.7,13,1.7l0.4-2.7"/>
<path class="st0" d="M22.6,50.3c0.8-9.9,12.6-8.3,11.8-1.7c-0.7,5.6-9.2,7.8-5.2,16.7c1.2,2.8,7.2,3.3,7.2,3.3
	c1.7,0.8,4.3,0.4,4.5-1.4c0.2-1.7-3.5-2.5-4.5-4.4c-1-2.1,1.2-5.9,1.2-5.9"/>
<path class="st0" d="M110.7,64.4c0,0,0.4-1-2.7,0.2c-1.8,0.7-3.4,2.8-5.5,2.8c0,0-3,0.1-3.7-2.6"/>
<path class="st0" d="M22.6,52.8c0,0,0.4,7.2,2.1,10.9s2.9,4.5,2.9,4.5"/>
<path class="st0" d="M91.2,83.4c0,0,1.2-0.6,3-2.2c2.2-1.9,4-3.2,6.2-3.6c2.1-0.4,4.1-0.3,4.1-0.3"/>
<path class="st0" d="M102.6,91c0,0-2.8,0.8-7-1.7c-2.3-1.4-4.6-4.4-4.6-4.4"/>
<path class="st0" d="M48,88.9c0,0,1.3,2.6,4.1,6.2c2.7,3.4,7.3,6,11.3,7.8"/>
<path class="st1" d="M96.7,83.5c0,0-0.3-0.1,0.4,0.1c0.7,0.2,1.2,0.1,1.2,0.1s0.9,0.2,1.7,0.1c0.3,0,0.5-0.7,0.3-0.6"/>
</svg>
