<?xml version="1.0" encoding="utf-8"?>
<!-- Generator: Adobe Illustrator 24.1.2, SVG Export Plug-In . SVG Version: 6.00 Build 0)  -->
<svg version="1.1" id="Layer_38" xmlns="http://www.w3.org/2000/svg" xmlns:xlink="http://www.w3.org/1999/xlink" x="0px" y="0px"
	 viewBox="0 0 16 16" enable-background="new 0 0 16 16" xml:space="preserve">
<g>
	<path fill="#1C4B6C" d="M12.836,10.63c0.035-0.081,0.035-0.174-0.002-0.259l-0.712-1.575l0.556-1.341
		c0.037-0.091,0.03-0.192-0.019-0.28l-0.76-1.321c0.238-0.516,0.563-1.303,0.515-1.667c-0.309-2.369-2.242-3.784-5.169-3.784H6.959
		c-2.928,0-4.86,1.414-5.169,3.784C1.444,6.834,1.2,12.601,1.2,13.377c0,1.388,1.865,2.063,5.7,2.063h0.403
		c2.654,0,5.7-0.235,5.7-2.063c0-0.083,0-0.252-0.719-1.435L12.836,10.63z M12.396,13.403c-0.029,0.963-1.696,1.431-5.093,1.431H6.9
		c-3.285,0-5.094-0.517-5.094-1.457c0-0.77,0.242-6.488,0.584-9.112C2.774,1.327,5.713,1.01,6.959,1.01h0.286
		c1.246,0,4.185,0.317,4.568,3.255c0.018,0.159-0.218,0.817-0.527,1.468c-0.044,0.094-0.039,0.204,0.013,0.294l0.765,1.328
		l-0.55,1.325c-0.032,0.079-0.031,0.17,0.005,0.253l0.712,1.574l-0.561,1.335c-0.04,0.096-0.031,0.206,0.022,0.291
		C12.044,12.71,12.347,13.255,12.396,13.403z"/>
	<path fill="#1C4B6C" d="M14.095,3.678c-0.011-0.167-0.157-0.292-0.323-0.282c-0.167,0.012-0.293,0.156-0.282,0.323l0.704,10.207
		c0.011,0.16,0.144,0.282,0.302,0.282c0.007,0,0.014,0,0.021-0.001c0.167-0.012,0.293-0.156,0.282-0.323L14.095,3.678z"/>
</g>
</svg>
