<?xml version="1.0" encoding="utf-8"?>
<!-- Generator: Adobe Illustrator 22.1.0, SVG Export Plug-In . SVG Version: 6.00 Build 0)  -->
<!DOCTYPE svg PUBLIC "-//W3C//DTD SVG 1.1//EN" "http://www.w3.org/Graphics/SVG/1.1/DTD/svg11.dtd">
<svg version="1.1" id="Layer_5" xmlns="http://www.w3.org/2000/svg" xmlns:xlink="http://www.w3.org/1999/xlink" x="0px" y="0px"
	 viewBox="0 0 170 170" style="enable-background:new 0 0 170 170;" xml:space="preserve">
<style type="text/css">
	.st0{fill:none;stroke:#24211D;stroke-width:0;stroke-linecap:square;stroke-miterlimit:10;}
	.st1{fill-rule:evenodd;clip-rule:evenodd;fill:#CECECD;}
	.st2{fill-rule:evenodd;clip-rule:evenodd;fill:#E7E7E7;}
	.st3{fill-rule:evenodd;clip-rule:evenodd;fill:#D4D3D3;}
	.st4{fill-rule:evenodd;clip-rule:evenodd;fill:#B7B6B6;}
	.st5{fill-rule:evenodd;clip-rule:evenodd;fill:#A9A8A7;}
	.st6{fill:#24211D;}
	.st7{fill-rule:evenodd;clip-rule:evenodd;fill:#F9F9F8;}
	.st8{fill-rule:evenodd;clip-rule:evenodd;fill:#DDDDDC;}
	.st9{fill:#CECECD;}
	.st10{fill-rule:evenodd;clip-rule:evenodd;fill:#DADADA;}
	.st11{fill-rule:evenodd;clip-rule:evenodd;fill:#EBEBEB;}
	.st12{fill-rule:evenodd;clip-rule:evenodd;fill:#D6D6D5;}
	.st13{fill-rule:evenodd;clip-rule:evenodd;fill:#D0D0CF;}
	.st14{fill:none;stroke:#696665;stroke-width:0;stroke-linecap:square;stroke-miterlimit:10;}
</style>
<path class="st0" d="M85.5,16.2c17.9,2.1,30.5,6.9,46.3,19.5c5.3,4.2,10,10,14.2,16.3c0.5,1.1,1.6,0,3.2,4.2c0,0.5,3.2,3.7,3.2,4.2
	c1.6,3.7,4.2,6.3,5.3,9.5c3.7,9.5,6.3,20,8.4,30.1c4.2,15.8,3.7,31.6,2.6,48.5c-0.5,4.7-4.7,10-7.4,13.2c-3.2,3.2-6.8,2.6-11.6,2.6
	c-4.7,0-10-0.5-14.2-2.1c-6.3-2.6-12.6-5.3-19-8.4c-3.2-2.1-7.9-2.6-12.1-2.1c-7.9,1.1-15.3,4.7-23.7,2.6
	c-5.8-1.6-11.1-3.7-16.3-4.2c-6.8-0.5-13.7,2.1-19.5,5.3c-1.1,1.1-2.6,1.6-4.2,2.1c-4.2,2.1-9,3.2-13.7,4.7
	c-1.6,1.1-3.7,1.1-5.3,1.6c-2.1,0.5-10.5,0-12.6-2.6c-3.2-3.2-7.4-8.4-7.9-12.7c-1.1-16.9-1.6-32.7,2.1-49c2.6-10,5.3-20.6,8.4-29.5
	c1.1-3.7,3.7-5.8,5.3-9.5c0-1.1,2.6-3.7,3.2-4.7c1.6-3.7,2.1-2.6,3.2-4.2C27,45.2,31.8,39.4,37,35.1C52.8,22.5,67.6,18.3,85.5,16.2"
	/>
<path class="st1" d="M32.8,47.3c-7.4,5.8-22.1,32.2-23.2,39c-1.1,5.3-3.2,11.1-4.2,18.5c-2.1,11.1-2.6,22.1-2.6,33.2
	c0,7.4,2.1,15.3,7.4,19c4.7,3.7,10.5,3.7,16.3,1.6s9-10.5,6.8-18.5c-2.6-12.1-3.2-20-5.3-32.7c-1.6-10-0.5-20.6,0.5-26.9
	c2.6-12.7,12.1-31.1,6.3-29L32.8,47.3z"/>
<path class="st2" d="M6,140c0.5,5.3,2.1,12.1,7.4,14.8c3.2,1.6,10,3.7,10.5-1.1c0.5-3.7-4.2-2.1-6.3-3.7c-2.6-2.1-5.3-3.2-6.3-6.3
	c-1.1-3.2-2.1-5.8-3.7-8.4c-0.5-0.5-1.6,0-2.1,0C5.4,136.9,4.9,138.5,6,140L6,140z"/>
<path class="st0" d="M31.8,113.2c0-0.5,0-1.1,0-1.1c-0.5-1.1-1.6-0.5-2.1-1.1"/>
<path class="st0" d="M8.6,109.5c0-1.1,1.6-1.6,2.1-2.1"/>
<path class="st3" d="M136.6,47.8c7.4,5.8,22.1,31.6,23.2,38.5c1.1,5.3,3.2,11.6,4.7,19c1.6,11.1,2.6,22.1,2.6,33.2
	c0,7.4-2.1,15.3-7.4,19c-4.7,3.7-10.5,3.2-15.8,1.6c-6.3-2.6-9.5-10.5-7.4-18.5c2.6-12.1,3.2-20,4.7-32.7c1.6-10,0.5-21.1-0.5-26.9
	c-2.6-13.2-12.6-31.1-6.3-29L136.6,47.8z"/>
<path class="st2" d="M164,140.6c0,5.3-2.1,11.6-7.4,14.2c-3.2,1.6-10,3.7-10.5-1.1c-0.5-3.2,4.2-1.6,6.3-3.7
	c2.6-1.6,4.7-3.2,6.3-6.3c1.1-2.6,2.1-5.8,3.7-7.9c0-0.5,1.6-0.5,2.1-0.5C164.5,136.9,165,139,164,140.6L164,140.6z"/>
<path class="st4" d="M67.6,22.5c-24.2,7.9-34.8,51.1-36.9,59.6c-2.1,8.4-3.2,19-2.1,29c0.5,4.2,2.1,11.1,3.2,14.8
	c2.1,9,5.8,17.9,3.2,26.9c-1.1,3.7-5.8,5.3-9,7.4c-2.1,1.1-1.6,2.1,0.5,1.6c0.5,0,7.4-2.6,9-3.2c7.9-3.7,11.1-6.9,11.6-16.3
	c1.6-23.2,0.5-45.9,5.8-68.5c1.1-4.2,3.7-8.4,6.8-11.1c8.4-6.3,13.7-12.7,21.6-20.6c0-0.5,1.1-1.6,2.6-1.6c1.1,0,3.2,0.5,4.2,1.6
	c8.4,6.9,13.2,14.8,21.6,21.1c3.2,2.6,5.8,6.9,6.8,11.1c5.3,22.7,4.2,45.3,6.3,68.5c0.5,9,4.2,13.7,9.5,16.9
	c4.2,2.6,14.2,3.7,16.9,3.7c1.6-2.1-6.3-2.6-6.8-3.2c-3.2-1.6-7.4-5.8-7.4-10.5c-1.1-9,1.1-14.2,3.2-23.2c0.5-4.2,2.6-10.5,2.6-15.3
	c1.1-9.5,0-20-2.1-29c-2.1-7.9-13.2-51.7-37.4-59L67.6,22.5z"/>
<path class="st4" d="M101.3,23c-7.4-3.7-11.6-3.7-14.7-2.6l-4.2-0.5c-2.6-1.1-7.4-1.1-14.7,2.6L101.3,23z"/>
<path class="st5" d="M71.3,27.8c-7.4,3.2-8.4,5.8-14.2,11.6c-10,9-15.3,24.3-19,38.5c-3.7,12.7-4.7,27.4-3.7,41.1
	c0.5,4.7,1.6,10,3.2,14.2c1.1,3.7,4.2,17.9-4.7,25.3c7.4-2.1,10.5-7.4,11.1-11.6c2.1-10.5-1.1-22.7-0.5-32.7
	c0.5-8.4,1.1-14.8,1.6-23.2c1.1-9.5,6.3-23.7,11.6-30.6c6.3-7.9,16.9-14.2,23.7-21.6c1.1-1.1,2.1-1.6,3.2-1.6c1.6,0,3.7,0.5,5.3,2.1
	C96,46.7,106,53.1,112.9,61c5.3,6.9,10.5,21.1,11.6,30.6c1.1,8.4,1.1,14.8,1.6,23.2c1.1,10-2.1,22.1,0,32.7
	c0.5,2.1,4.7,10.5,14.2,13.2c-10-4.7-9.5-23.2-7.9-26.9c1.6-4.7,2.6-9.5,3.2-14.2c1.1-13.7,0-29-3.7-41.6c-4.2-13.7-10-29-19.5-38
	c-6.3-5.8-6.8-8.4-14.2-11.6c-2.1-1.1-6.3-2.1-10-2.6c-2.6,0-4.7-0.5-7.4-0.5C77.6,25.1,73.4,26.2,71.3,27.8L71.3,27.8z"/>
<path class="st6" d="M161.9,117.4L161.9,117.4h1.1l0,0H161.9z M161.9,117.4c0.5-3.7-0.5-5.8-1.1-7.4h0.5c1.1,1.1,2.1,3.7,1.6,7.4
	H161.9z M160.8,110c-0.5-0.5-0.5-0.5-0.5-1.1h1.1c0,0,0,0.5,0,1.1H160.8z M161.3,108.9L161.3,108.9h-0.5H161.3z M160.3,108.9
	L160.3,108.9h1.1l0,0H160.3z M160.3,108.9L160.3,108.9h0.5H160.3z M160.3,108.9c0-0.5,0-0.5,0-1.1h1.1c0,0.5,0,0.5,0,1.1H160.3z
	 M160.3,107.9c0-2.6,0-5.8-1.1-7.4l1.1-0.5c1.1,1.6,1.1,5.3,1.1,7.9H160.3z M160.3,100L160.3,100l-0.5,0.5L160.3,100z M159.2,100.5
	L159.2,100.5l1.1-0.5l0,0L159.2,100.5z M160.3,100L160.3,100l-0.5,0.5L160.3,100z M159.2,100.5L159.2,100.5l0.5-0.5c0,0,0,0,0.5,0
	L159.2,100.5z M159.2,100.5c-0.5,0-0.5-0.5-0.5-0.5l0.5-0.5c0,0,0,0,0.5,0.5L159.2,100.5z M158.7,100c-1.6-1.1-3.2-2.1-3.2-2.1v-1.1
	c0.5,0,2.1,1.6,3.7,2.6L158.7,100z M155.5,97.9c-2.1,0-3.7,0-5.8,0v-0.5c2.1-0.5,3.7-0.5,5.8-0.5V97.9z M149.8,97.9
	c-1.6,0.5-3.7,1.1-5.8,1.6v-1.1c2.1-0.5,3.7-1.1,5.8-1.1V97.9z M144,98.4L144,98.4v0.5V98.4z M144,99.5c-0.5,0-1.1,0.5-2.1,1.1
	l-0.5-1.1c1.1,0,1.6-0.5,2.6-1.1V99.5z M141.9,100.5c-0.5,0.5-1.6,0.5-2.6,1.1v-1.1c1.1,0,1.6-0.5,2.1-1.1L141.9,100.5z
	 M139.2,100.5L139.2,100.5v0.5V100.5z M139.2,101.6c0,0-0.5,0.5-1.1,1.1l-0.5-0.5c0.5-0.5,1.1-1.1,1.6-1.6V101.6z M138.2,102.6
	c0,0.5-0.5,1.1-0.5,2.1l-1.1-0.5c0-0.5,0.5-1.6,1.1-2.1L138.2,102.6z M137.6,104.7L137.6,104.7l-0.5-0.5L137.6,104.7z M137.6,104.7
	L137.6,104.7l-1.1-0.5l0,0L137.6,104.7z M137.6,104.7c-0.5,0-0.5,0.5-0.5,0.5h-1.1c0.5-0.5,0.5-0.5,0.5-1.1L137.6,104.7z
	 M137.1,105.3c0,0.5,0,0.5,0,1.1h-1.1c0-0.5,0-1.1,0-1.1H137.1z M137.1,106.3c-0.5,1.1-0.5,2.6,0.5,3.7l-1.1,0.5
	c-0.5-1.1-1.1-2.6-0.5-4.2H137.1z M137.6,110L137.6,110h-0.5H137.6z M137.6,110c1.1,2.1,1.1,3.2,0.5,4.7h-1.1
	c0.5-1.6,0.5-2.6-0.5-4.2L137.6,110z M138.2,114.7c-0.5,2.1-1.1,3.7,1.6,7.4l-1.1,0.5c-2.6-3.7-2.1-5.8-1.6-7.9H138.2z M139.7,122.1
	c3.2,4.7,7.4,2.6,11.1,0.5l0.5,1.1c-4.2,2.1-8.4,4.2-12.6-1.1L139.7,122.1z M150.8,122.7c1.1,0,1.6-0.5,2.1-0.5l0.5,0.5
	c-0.5,0.5-1.6,0.5-2.1,1.1L150.8,122.7z M152.9,122.1L152.9,122.1L152.9,122.1L152.9,122.1z M152.9,122.1c1.1-0.5,2.1-0.5,3.2-0.5
	v1.1c-1.1,0-2.1-0.5-2.6,0L152.9,122.1z M156.1,121.6c1.1,0,1.6,0,2.1,0v1.1c-0.5,0-1.1,0-2.1,0V121.6z M158.2,121.6L158.2,121.6
	v0.5V121.6z M158.2,121.6L158.2,121.6v1.1l0,0V121.6z M158.2,121.6c0.5,0,0.5,0,1.1,0v0.5c0,0-0.5,0.5-1.1,0.5V121.6z M159.2,121.6
	c0-0.5,0.5-0.5,0.5-0.5l0.5,1.1c-0.5,0-0.5,0-1.1,0V121.6z M159.8,121.1c1.6-0.5,2.6-1.6,2.1-3.7h1.1c0.5,2.1-1.1,3.7-2.6,4.7
	L159.8,121.1z"/>
<path class="st7" d="M162.4,122.1c4.7,7.4,1.1,15.8,0.5,16.9c-1.1,2.6-13.2,11.1-19,3.7c-2.6-3.7-6.8-6.9-5.3-16.3
	c0.5-2.1,2.6-4.7,3.7-4.7C149.2,120.5,156.6,114.7,162.4,122.1L162.4,122.1z"/>
<path class="st6" d="M162.4,122.1L162.4,122.1l-0.5,0.5l0,0L162.4,122.1z M162.4,122.1L162.4,122.1L162.4,122.1L162.4,122.1z
	 M162.4,122.1c1.1,1.1,1.6,2.1,2.1,3.2l-1.1,0.5c-0.5-1.1-1.1-2.1-1.6-3.2L162.4,122.1z M164.5,125.3c0,1.1,0.5,2.1,0.5,3.2H164
	c0-1.1,0-2.1-0.5-2.6L164.5,125.3z M165,128.5c0.5,5.3-1.6,10-2.1,10.5l-0.5-0.5c0.5-0.5,2.6-4.7,1.6-10H165z M162.4,139v-0.5l0,0
	l0.5,0.5H162.4z M162.9,139c0,1.1-1.1,2.1-3.2,3.2l-0.5-0.5c1.6-1.1,2.6-2.1,3.2-2.6H162.9z M159.8,142.2c-1.6,1.6-3.7,2.6-5.8,3.2
	v-0.5c2.1-1.1,4.2-2.1,5.3-3.2L159.8,142.2z M154,145.3c-2.1,1.1-4.2,1.1-6.3,0.5v-1.1c2.1,0.5,4.2,0.5,6.3,0V145.3z M147.6,145.8
	c-1.6-0.5-3.2-1.6-4.2-3.2l1.1-0.5c1.1,1.6,2.1,2.1,3.2,2.6V145.8z M144.5,142.2L144.5,142.2l-0.5,0.5L144.5,142.2z M143.4,142.7
	c-0.5-0.5-0.5-1.1-1.1-1.6l0.5-0.5c0.5,0.5,1.1,1.1,1.6,1.6L143.4,142.7z M142.4,141.1c-2.6-3.2-5.8-6.9-4.2-14.8h1.1
	c-1.6,7.9,1.1,11.1,3.7,14.2L142.4,141.1z M138.2,126.3L138.2,126.3h0.5H138.2z M138.2,126.3L138.2,126.3h1.1l0,0H138.2z
	 M138.2,126.3c0.5-0.5,0.5-0.5,0.5-1.1l1.1,0.5l-0.5,0.5H138.2z M138.7,125.3c0-0.5,0.5-0.5,0.5-1.1l0.5,0.5c0,0,0,0.5,0,1.1
	L138.7,125.3z M139.2,124.2c0.5-1.6,2.1-3.2,3.2-3.2v0.5c-0.5,0.5-1.6,1.6-2.6,3.2L139.2,124.2z M142.4,121.6L142.4,121.6
	L142.4,121.6L142.4,121.6z M142.4,121.1L142.4,121.1v0.5l0,0V121.1z M142.4,121.1c1.6-0.5,3.7-1.1,5.3-1.6l0.5,1.1
	c-2.1,0.5-3.7,1.1-5.8,1.1V121.1z M147.6,119.5c5.3-1.6,10.5-3.2,14.7,2.6l-0.5,0.5c-3.7-5.3-9-3.7-13.7-2.1L147.6,119.5z"/>
<path class="st8" d="M155,120c0.5,1.1,1.6,1.1,2.6,2.1c0,1.1,0,2.1,0,2.6c0.5,1.1,2.1,1.1,1.6,2.1c-1.1,3.7,1.1,6.3,0,7.9
	c-0.5,1.1-1.1,2.1-1.6,2.1c-2.1,1.6-5.3,1.6-7.4,0.5c-1.6-0.5-3.2,0-4.7-0.5c-1.6-0.5-3.2-2.1-2.6-4.2c0.5-2.1-0.5-3.7,0-5.8
	c0-1.1,0-2.1,0.5-2.6c3.2-2.1,6.8-2.6,10-3.7c0.5-0.5,1.1-1.1,1.1-0.5C154.5,119.5,155,120,155,120L155,120z"/>
<path class="st9" d="M155.5,119.5c0,0.5,0.5,1.1,1.1,1.1l-0.5,1.1c-0.5-0.5-1.1-1.1-1.6-1.6L155.5,119.5z M156.6,120.5
	c0.5,0.5,1.1,1.1,1.1,1.6l-0.5,0.5c-0.5-0.5-0.5-1.1-1.1-1.1L156.6,120.5z M157.7,122.1L157.7,122.1L157.7,122.1L157.7,122.1z
	 M157.7,122.1L157.7,122.1l-0.5,0.5l0,0L157.7,122.1z M157.7,122.1L157.7,122.1v0.5V122.1z M157.7,122.1c0.5,0.5,0.5,1.1,0.5,1.1
	l-1.1,0.5c0-0.5,0-1.1,0-1.1L157.7,122.1z M158.2,123.2c0,0.5,0,1.1,0,1.1l-0.5,0.5c-0.5-0.5-0.5-1.1-0.5-1.1L158.2,123.2z
	 M157.7,124.8L157.7,124.8L157.7,124.8L157.7,124.8z M158.2,124.2L158.2,124.2l-0.5,0.5l0,0L158.2,124.2z M157.7,124.8L157.7,124.8
	L157.7,124.8L157.7,124.8z M158.2,124.2c0.5,0.5,0.5,0.5,0.5,1.1l-0.5,0.5c0,0-0.5-0.5-0.5-1.1L158.2,124.2z M158.7,125.3
	c1.1,0.5,1.6,1.1,1.1,2.1l-1.1-0.5c0.5-0.5,0-0.5-0.5-1.1L158.7,125.3z M159.8,127.4L159.8,127.4l-0.5-0.5L159.8,127.4z
	 M159.8,127.4c-0.5,1.6,0,2.6,0,4.2h-1.1c0-1.1-0.5-2.6,0-4.7L159.8,127.4z M159.8,131.6c0,1.1,0.5,2.6,0,3.7l-1.1-0.5
	c0.5-1.1,0.5-2.1,0-3.2H159.8z M159.8,135.3L159.8,135.3l-0.5-0.5L159.8,135.3z M159.8,135.3L159.8,135.3l-1.1-0.5l0,0L159.8,135.3z
	 M158.7,134.8L158.7,134.8h0.5H158.7z M159.8,135.3c-0.5,0-0.5,0-0.5,0h-0.5c0-0.5,0-0.5,0-0.5L159.8,135.3z M159.2,135.3
	L159.2,135.3h-0.5H159.2z M159.2,135.3c-0.5,1.1-0.5,1.6-1.6,2.1v-1.1c0,0,0.5-0.5,1.1-1.1H159.2z M157.7,136.4L157.7,136.4v0.5
	V136.4z M157.7,137.4L157.7,137.4l-0.5-1.1h0.5V137.4z M157.7,137.4L157.7,137.4v-0.5V137.4z M157.7,137.4c0,0-0.5,0.5-1.1,0.5v-1.1
	c0,0,0.5,0,1.1-0.5V137.4z M156.6,137.9c0,0-0.5,0.5-1.1,0.5v-1.1c0.5,0,0.5,0,1.1-0.5V137.9z M155.5,138.5c-1.6,0.5-3.7,0-5.3-0.5
	l0.5-1.1c1.1,1.1,3.2,1.1,4.7,0.5V138.5z M150.3,137.9c-1.1-0.5-1.6-0.5-2.6-0.5v-0.5c1.1,0,2.1-0.5,3.2,0L150.3,137.9z
	 M147.6,137.4c-1.1,0-1.6,0.5-2.6,0l0.5-1.1c0.5,0.5,1.1,0.5,2.1,0.5V137.4z M145,137.4L145,137.4l0.5-0.5L145,137.4z M145,137.4
	L145,137.4l0.5-1.1l0,0L145,137.4z M145.5,136.4L145.5,136.4v0.5V136.4z M145,137.4c0,0,0,0-0.5-0.5l0.5-0.5h0.5L145,137.4z
	 M144.5,136.9c0,0-0.5,0-0.5-0.5l0.5-0.5c0.5,0,0.5,0.5,0.5,0.5L144.5,136.9z M144,136.4c-1.1-0.5-1.6-2.1-1.6-3.7h1.1
	c0,1.1,0.5,2.6,1.1,3.2L144,136.4z M143.4,132.7L143.4,132.7h-0.5H143.4z M142.4,132.7c0.5-1.1,0-2.1,0-3.2h1.1c0,1.1,0.5,2.1,0,3.2
	H142.4z M142.4,129.5c0-0.5-0.5-1.6,0-2.6h0.5c0,1.1,0,1.6,0.5,2.6H142.4z M142.4,126.9L142.4,126.9h0.5H142.4z M142.4,126.9
	c0-0.5,0-1.1,0-1.6h1.1c0,0.5,0,1.1-0.5,1.6H142.4z M142.4,125.3c0.5-0.5,0.5-1.1,1.1-1.6l0.5,1.1l-0.5,0.5H142.4z M143.4,123.7
	L143.4,123.7v0.5V123.7z M143.4,123.7c2.1-1.1,4.2-2.1,6.3-2.6l0.5,1.1c-2.1,0.5-4.2,1.1-6.3,2.6L143.4,123.7z M149.8,121.1
	c1.6-0.5,2.6-0.5,3.7-1.1l0.5,0.5c-1.6,0.5-2.6,1.1-3.7,1.6L149.8,121.1z M154,120.5L154,120.5h-0.5H154z M153.4,120c0,0,0,0,0-0.5
	l0.5,1.1l0,0L153.4,120z M153.4,119.5c0.5,0,1.1-0.5,1.6,0l-0.5,1.1c-0.5-0.5,0,0-0.5,0L153.4,119.5z M155,120v1.1l-0.5-0.5V120H155
	z M154,120c0-0.5,0.5-0.5,0.5-0.5v1.1c0,0,0.5-1.1,0.5-0.5H154z M154.5,119.5h0.5l-0.5,1.1l0,0V119.5z M155,119.5L155,119.5v0.5
	V119.5z M155,119.5L155,119.5v1.1c0,0,0,0-0.5,0L155,119.5z M155,119.5l-0.5,0.5h1.1l-0.5,0.5V119.5z M154.5,120v-2.1l1.1,1.6
	L155,120H154.5z"/>
<path class="st8" d="M152.9,99.5c1.1,1.1,3.2,6.3,3.2,8.4c0,0,0,0.5,0,1.1c0.5,3.2,0,6.9-2.1,8.4c-4.2,2.6-10,1.6-12.6-3.7
	c-0.5-0.5,0.5-1.6,0.5-2.6c0-2.6-1.6-5.3-0.5-7.9c0.5-1.1,1.6-1.6,2.1-2.1c2.1-0.5,3.7-1.6,5.8-2.1
	C150.3,98.9,151.9,98.4,152.9,99.5C152.4,99.5,152.9,100,152.9,99.5L152.9,99.5z"/>
<path class="st9" d="M152.9,99.5L152.9,99.5l-0.5,0.5l0,0L152.9,99.5z M152.9,99.5L152.9,99.5L152.9,99.5L152.9,99.5z M152.9,99.5
	c0,0,0.5,0,0.5,0.5l-0.5,0.5l-0.5-0.5L152.9,99.5z M153.4,100c0.5,0.5,0.5,0.5,1.1,1.1l-1.1,0.5c0-0.5-0.5-0.5-0.5-1.1L153.4,100z
	 M154.5,101c1.1,2.1,2.1,5.3,2.1,6.9h-1.1c0-1.6-1.1-4.7-2.1-6.3L154.5,101z M156.6,107.9L156.6,107.9h-1.1l0,0H156.6z M155.5,107.9
	L155.5,107.9h0.5H155.5z M156.6,107.9L156.6,107.9l-1.1,0.5c0-0.5,0-0.5,0-0.5H156.6z M156.6,107.9c0,0.5,0,0.5,0,1.1h-0.5l-0.5-0.5
	L156.6,107.9z M156.1,108.9L156.1,108.9L156.1,108.9L156.1,108.9z M156.6,108.9L156.6,108.9h-0.5l0,0H156.6z M156.6,108.9
	c0,0.5,0,0.5,0,1.1h-0.5c0,0,0-0.5,0-1.1H156.6z M156.6,110c0,0.5,0,1.1,0,1.6h-1.1c0.5-0.5,0.5-1.1,0.5-1.6H156.6z M156.6,111.6
	c0,2.6-1.1,4.7-2.6,5.8l-0.5-0.5c1.6-1.1,2.1-3.2,2.1-5.3H156.6z M154,117.4L154,117.4L154,117.4L154,117.4z M154,117.4
	c-0.5,0.5-0.5,0.5-1.1,1.1l-0.5-1.1c0.5,0,0.5-0.5,1.1-0.5L154,117.4z M152.9,118.4c-2.1,0.5-4.2,1.1-5.8,0.5v-1.1
	c1.6,0.5,3.7,0.5,5.3-0.5L152.9,118.4z M147.1,119c-2.1-0.5-4.2-1.6-5.3-3.7l0.5-0.5c1.1,1.6,3.2,2.6,4.7,3.2V119z M141.9,115.3
	c-0.5-0.5-0.5-1.1-1.1-1.1l1.1-0.5c0,0.5,0.5,0.5,0.5,1.1L141.9,115.3z M140.8,114.2v-0.5h0.5L140.8,114.2z M140.8,113.7
	c0-0.5,0-1.1,0.5-1.6l0.5,0.5c0,0,0,0.5,0,1.1H140.8z M141.3,112.1c0-0.5,0-0.5,0-1.1h1.1c0,0.5,0,1.1-0.5,1.6L141.3,112.1z
	 M141.3,111.1L141.3,111.1h0.5H141.3z M141.3,111.1c0-1.1,0-2.1-0.5-2.6l1.1-0.5c0,1.1,0.5,2.1,0.5,3.2H141.3z M140.8,108.4
	c0-2.1-0.5-3.7,0-5.3l1.1,0.5c-0.5,1.1,0,2.6,0,4.2L140.8,108.4z M140.8,103.1L140.8,103.1h0.5H140.8z M140.8,103.1L140.8,103.1
	l1.1,0.5l0,0L140.8,103.1z M140.8,103.1l0.5-0.5l0.5,0.5c0,0,0,0,0,0.5L140.8,103.1z M141.3,102.6c0,0,0,0,0-0.5l1.1,0.5l-0.5,0.5
	L141.3,102.6z M142.4,102.6L142.4,102.6h-0.5H142.4z M141.3,102.1c0.5-0.5,1.6-1.1,2.1-1.1v0.5c-0.5,0.5-1.1,0.5-1.1,1.1
	L141.3,102.1z M143.4,101.6L143.4,101.6V101V101.6z M143.4,101l0.5-0.5l0.5,1.1h-1.1V101z M144.5,101.6L144.5,101.6L144,101
	L144.5,101.6z M144,100.5c1.6-0.5,3.2-1.6,4.7-1.6l0.5,0.5c-1.6,0.5-3.2,1.1-4.7,2.1L144,100.5z M149.2,99.5L149.2,99.5v-0.5V99.5z
	 M148.7,98.9L148.7,98.9l0.5,0.5l0,0L148.7,98.9z M149.2,99.5L149.2,99.5v-0.5V99.5z M148.7,98.9c1.6-0.5,3.2-1.1,4.2,0.5l-0.5,0.5
	c-1.1-1.1-2.1-0.5-3.2-0.5L148.7,98.9z M152.9,99.5l4.7,7.4l-5.3-6.9L152.9,99.5L152.9,99.5z M152.4,100c-0.5-0.5,0-0.5,0-1.1
	l0.5,1.1c-0.5,0,0-1.1,0-0.5L152.4,100z M152.9,100L152.9,100l-0.5-0.5L152.9,100z M152.4,99.5c0.5-0.5,0.5-0.5,0.5,0l-0.5,0.5h0.5
	L152.4,99.5z M152.4,100L152.4,100l0.5-0.5L152.4,100z M152.9,99.5c0.5,0,0.5,0.5,0,0.5l-0.5-0.5c0.5,0,0,0.5,0,0.5L152.9,99.5z
	 M152.4,99.5L152.4,99.5l0.5,0.5L152.4,99.5z M152.9,100c0,0.5-0.5,0.5-0.5,0l0.5-0.5c0.5,0-0.5,0-0.5,0L152.9,100z M152.4,100
	l-1.6-1.6l2.1,1.1l0,0L152.4,100z"/>
<path class="st0" d="M138.2,113.7c0-0.5-0.5-1.1,0-1.1c0.5-1.1,1.1-1.1,2.1-1.1"/>
<path class="st0" d="M161.3,110c-0.5-1.6-2.1-1.6-2.6-2.6"/>
<path class="st7" d="M154,96.8c0,0,1.6-1.1,2.6-2.1c0.5,0,1.1-1.6,1.1-1.6c0.5-0.5,1.1-1.6,1.1-1.6c0-0.5,0-1.1,0-1.6
	c0.5-2.1,1.1-4.2,0.5-6.3c-1.6-2.6-1.6-6.3-3.7-8.4c-2.6-3.2-6.3-0.5-9.5,0c-1.6,0.5-2.6,0.5-4.2,0.5c-2.1-0.5-3.7,1.1-5.3,3.2
	c-0.5,0.5,0,1.6,0,2.6c-0.5,1.6,0,3.2,0.5,4.7c0.5,2.6-0.5,5.3,0.5,7.4c1.1,2.6,2.6,4.2,5.3,4.7C147.1,98.9,149.2,96.8,154,96.8
	L154,96.8z"/>
<path class="st6" d="M154,96.3L154,96.3v1.1l0,0V96.3z M154,97.3L154,97.3v-0.5V97.3z M154,96.3L154,96.3l0.5,0.5
	c-0.5,0.5-0.5,0.5-0.5,0.5V96.3z M154,96.3c0,0,0,0,0.5,0v0.5l0,0L154,96.3z M154.5,96.3c0.5-0.5,1.1-1.1,2.1-1.6l0.5,0.5
	c-1.1,0.5-1.6,1.6-2.6,1.6V96.3z M157.1,95.2L157.1,95.2l-0.5-0.5L157.1,95.2z M156.6,94.7L156.6,94.7l0.5,0.5l0,0L156.6,94.7z
	 M157.1,95.2L157.1,95.2l-0.5-0.5L157.1,95.2z M156.6,94.7v-0.5l1.1,0.5c-0.5,0-0.5,0.5-0.5,0.5L156.6,94.7z M156.6,94.2
	c0.5-0.5,0.5-1.6,1.1-1.6l0.5,1.1c-0.5,0-0.5,0.5-0.5,1.1L156.6,94.2z M158.2,93.7L158.2,93.7L158.2,93.7l-0.5-0.5L158.2,93.7z
	 M157.7,93.1L157.7,93.1l0.5,0.5l0,0L157.7,93.1z M158.2,93.7L158.2,93.7l-0.5-0.5L158.2,93.7z M157.7,93.1c0-0.5,0-0.5,0.5-1.1
	l0.5,0.5c0,0,0,0.5-0.5,1.1L157.7,93.1z M158.2,92.1c0-0.5,0-0.5,0-1.1l1.1,0.5c0,0.5-0.5,0.5-0.5,1.1L158.2,92.1z M159.2,91.5
	L159.2,91.5L159.2,91.5h-0.5H159.2z M158.2,91c0,0,0,0,0-0.5l1.1,0.5v0.5L158.2,91z M158.2,90.5c0,0,0-0.5,0.5-0.5l0.5,0.5
	c0,0,0,0,0,0.5L158.2,90.5z M159.2,90L159.2,90v0.5l-0.5-0.5H159.2z M158.7,90L158.7,90h0.5l0,0H158.7z M158.7,90c0-0.5,0-1.6,0-2.1
	h1.1c-0.5,1.1-0.5,1.6-0.5,2.1H158.7z M158.7,87.9c0-1.6,0.5-2.6,0-3.7l0.5-0.5c0.5,1.1,0.5,2.6,0.5,4.2H158.7z M158.7,84.2
	L158.7,84.2l0.5-0.5L158.7,84.2z M158.7,84.2L158.7,84.2l0.5-0.5l0,0L158.7,84.2z M158.7,84.2c-0.5-1.6-1.1-2.6-1.1-3.7l0.5-0.5
	c0.5,1.6,0.5,2.6,1.1,3.7L158.7,84.2z M157.7,80.5c-0.5-2.1-1.1-3.7-2.1-5.3l0.5-0.5c1.1,1.6,1.6,3.7,2.1,5.3L157.7,80.5z
	 M155.5,75.2L155.5,75.2L155.5,75.2L155.5,75.2z M155.5,75.2c-2.1-2.1-4.2-1.1-6.8,0l-0.5-1.1c3.2-1.1,5.8-2.1,7.9,0.5L155.5,75.2z
	 M148.7,75.2c-1.1,0-1.6,0.5-2.6,0.5v-0.5c0.5-0.5,1.6-0.5,2.1-1.1L148.7,75.2z M146.1,75.7L146.1,75.7v-0.5V75.7z M146.1,75.7
	c-0.5,0.5-1.6,0.5-2.1,0.5v-1.1c0.5,0,1.1,0,2.1,0V75.7z M144,76.3c-0.5,0-1.6,0-2.1-0.5v-0.5c1.1,0,1.6,0,2.1,0V76.3z M141.9,75.2
	L141.9,75.2v0.5V75.2z M141.9,75.7L141.9,75.7v-0.5l0,0V75.7z M141.9,75.7h-0.5v-0.5h0.5V75.7z M141.3,75.7c-0.5,0-0.5,0-1.1,0.5
	v-1.1c0,0,0.5,0,1.1,0V75.7z M140.3,76.3c-1.1,0-2.1,1.1-3.2,2.6l-0.5-0.5c1.1-1.6,2.1-2.6,3.7-3.2V76.3z M137.1,78.9L137.1,78.9
	h-0.5H137.1z M137.1,78.9c0,0.5,0,1.1,0,1.6h-1.1c0-0.5,0-1.6,0.5-2.1L137.1,78.9z M137.1,80.5c0,0.5-0.5,1.1-0.5,1.6l-0.5-0.5
	c0,0,0-0.5,0-1.1H137.1z M136.6,82.1L136.6,82.1v-0.5V82.1z M136.6,82.1c0,1.1,0.5,1.6,0.5,2.6l-0.5,0.5c-0.5-1.1-1.1-2.1-0.5-3.7
	L136.6,82.1z M137.1,84.7c0.5,0.5,0.5,1.1,0.5,1.6h-1.1c0,0,0-0.5,0-1.1L137.1,84.7z M137.6,86.3L137.6,86.3h-0.5H137.6z
	 M137.6,86.3c0.5,1.1,0,2.1,0,3.7l-1.1-0.5c0.5-1.1,0.5-2.1,0-3.2H137.6z M137.6,90c0,1.1-0.5,2.6,0.5,3.7l-1.1,0.5
	c-0.5-1.6-0.5-3.2-0.5-4.7L137.6,90z M138.2,93.7L138.2,93.7l-1.1,0.5l0,0L138.2,93.7z M138.2,93.7L138.2,93.7h-0.5H138.2z
	 M138.2,93.7c0,0.5,0,0.5,0.5,1.1l-1.1,0.5c0-0.5-0.5-0.5-0.5-1.1L138.2,93.7z M138.7,94.7c0,0,0,0.5,0.5,0.5l-1.1,0.5l-0.5-0.5
	L138.7,94.7z M139.2,95.2c1.1,1.6,2.1,2.1,3.7,2.6l-0.5,0.5c-1.6,0-2.6-1.1-4.2-2.6L139.2,95.2z M142.4,98.4L142.4,98.4h0.5H142.4z
	 M142.9,97.9c2.1,0,3.7-0.5,5.8-1.1v1.1c-1.6,0.5-3.7,1.1-6.3,0.5L142.9,97.9z M148.7,96.8c1.6,0,3.2-0.5,5.3-0.5v1.1
	c-2.1,0-3.7,0-5.3,0.5V96.8z"/>
<path class="st8" d="M150.3,75.7c1.1,1.6,2.6,2.1,3.7,3.7c0.5,1.1,0.5,2.6,0.5,3.7c0,2.6,0.5,5.8,0,8.4c0,1.1-1.1,2.1-2.1,2.6
	c0,0,0.5,0,0.5,0.5c-3.7,0-6.8,1.1-10.5,0c-1.6-0.5-2.1-3.7-2.1-6.3c0-1.1-1.6-2.1-1.1-3.7c0-2.1,0-3.2,0.5-5.3c0-1.1,0-3.2,1.6-2.6
	c2.1,0.5,4.2,0,6.8-1.1C148.7,75.7,149.2,74.7,150.3,75.7L150.3,75.7z"/>
<path class="st9" d="M150.3,75.2c0.5,1.1,1.1,1.6,1.6,2.1l-0.5,0.5c-0.5-0.5-1.1-1.1-1.6-2.1L150.3,75.2z M151.9,77.3
	c1.1,0.5,1.6,1.1,2.1,2.1l-0.5,0.5c-0.5-1.1-1.1-1.6-2.1-2.1L151.9,77.3z M154,79.4L154,79.4l-0.5,0.5l0,0L154,79.4z M154,79.4
	L154,79.4L154,79.4L154,79.4z M154,79.4c0.5,0,0.5,0,0.5,0.5h-1.1l0,0L154,79.4z M154.5,79.9c0,0,0,0,0,0.5H154
	c-0.5,0-0.5,0-0.5-0.5H154.5z M154.5,80.5L154.5,80.5H154H154.5z M154.5,80.5c0.5,0.5,0.5,1.6,0.5,2.6H154c0-1.1,0-1.6,0-2.6H154.5z
	 M155,83.1L155,83.1H154l0,0H155z M155,83.1c0,1.1,0,2.6,0,4.2h-0.5c0-1.6-0.5-2.6-0.5-4.2H155z M155,87.3c0.5,1.6,0.5,3.2,0,4.7
	l-1.1-0.5c0.5-1.1,0.5-2.6,0.5-4.2H155z M155,92.1L155,92.1l-1.1-0.5l0,0L155,92.1z M155,92.1L155,92.1l-0.5-0.5L155,92.1z
	 M155,92.1c0,0.5-1.1,1.6-2.1,2.1l-0.5-0.5c0.5-0.5,1.6-1.6,1.6-2.1L155,92.1z M152.9,94.2c0,0,0,0,0,0.5l-0.5-1.1l0,0L152.9,94.2z
	 M152.4,93.7L152.4,93.7v0.5V93.7z M152.9,94.7c-0.5,0,0-1.1,0-1.1l-0.5,1.1c-0.5-0.5-0.5-0.5,0-1.1L152.9,94.7z M152.9,93.7
	C152.9,94.2,152.9,93.7,152.9,93.7l-0.5,1.1l0,0L152.9,93.7z M152.9,93.7c0,0.5,0.5,0.5,0.5,1.1h-1.1l0,0L152.9,93.7z M153.4,94.7
	v0.5h-0.5v-0.5H153.4z M152.9,95.2L152.9,95.2v-1.1l0,0V95.2z M152.9,94.2L152.9,94.2v0.5V94.2z M152.9,95.2c-1.1,0-2.6,0-3.7,0
	v-0.5c1.1-0.5,2.1-0.5,3.7-0.5V95.2z M149.2,95.2c-2.1,0.5-4.7,1.1-6.8,0v-1.1c2.1,1.1,4.7,0.5,6.8,0.5V95.2z M142.4,95.2
	L142.4,95.2v-0.5V95.2z M142.4,95.2c-1.1-0.5-1.6-1.6-2.1-2.6l1.1-0.5c0,1.1,0.5,2.1,1.1,2.1V95.2z M140.3,92.6
	c-0.5-1.6-0.5-2.6-0.5-4.2h1.1c0,1.1,0,2.6,0.5,3.7L140.3,92.6z M140.8,88.4L140.8,88.4h-0.5H140.8z M139.7,88.4
	c0-0.5,0-1.1-0.5-1.6h1.1c0,0.5,0.5,1.1,0.5,1.6H139.7z M139.2,86.8c-0.5-0.5-1.1-1.1-0.5-2.1h0.5c0,0.5,0.5,1.1,1.1,2.1H139.2z
	 M139.2,84.7L139.2,84.7L139.2,84.7L139.2,84.7z M138.7,84.7c0-0.5,0-1.6,0-2.1l1.1,0.5c0,0.5,0,1.1-0.5,1.6H138.7z M138.7,82.6
	c0-1.1,0.5-2.1,0.5-3.2h1.1c-0.5,1.6-0.5,2.6-0.5,3.7L138.7,82.6z M140.3,79.4L140.3,79.4h-0.5H140.3z M139.2,79.4
	c0-0.5,0-1.1,0-2.1l1.1,0.5c0,0.5,0,1.1,0,1.6H139.2z M139.2,77.3c0.5,0,0.5-0.5,0.5-0.5l1.1,0.5c-0.5,0-0.5,0-0.5,0.5L139.2,77.3z
	 M139.7,76.8c0.5-0.5,0.5-0.5,1.1-0.5v0.5v0.5L139.7,76.8z M140.8,76.3h0.5l-0.5,0.5l0,0V76.3z M141.3,76.3c2.1,0.5,4.2,0,5.8-0.5
	l0.5,1.1c-2.1,0.5-4.2,1.1-6.8,0L141.3,76.3z M147.1,75.7h0.5l0.5,0.5l-0.5,0.5L147.1,75.7z M147.6,75.7L147.6,75.7L147.6,75.7h0.5
	H147.6z M147.6,75.7h0.5v0.5l0,0L147.6,75.7z M148.2,76.3L148.2,76.3v-0.5V76.3z M147.6,75.7c0.5,0,0.5-0.5,0.5-0.5l0.5,1.1h-0.5
	L147.6,75.7z M148.2,75.2c1.1-0.5,1.6-0.5,2.1,0l-0.5,0.5c0,0-0.5,0-1.1,0.5L148.2,75.2z M150.3,75.2L150.3,75.2v0.5V75.2z"/>
<path class="st7" d="M148.7,74.1c1.6-0.5,3.2-1.1,4.2-2.6c1.1-1.6,0.5-2.6,0.5-4.2c0-1.1,0.5-1.6,0-3.7c0-0.5-2.1-3.2-2.6-3.2
	c-2.6-3.2-2.1-3.2-3.7-4.2c-1.1-1.1-3.2-2.6-4.7-2.6c-0.5,0.5-1.6,0.5-2.1,1.1c-0.5,0.5-1.6,1.1-2.6,1.1c-1.1,0.5-2.1,0-3.7,0
	c-1.1,0-1.6,0-2.1,0.5c-1.1,0.5-1.6,1.1-2.1,1.6c-1.1,1.6-0.5,2.1-1.1,3.7c0,1.6,1.1,4.2,1.6,5.3c1.1,1.6,1.1,3.2,2.1,4.2
	c1.6,1.1,2.6,2.6,4.2,4.2c0.5,0,1.6,0,2.1,0c0.5,0,0.5,0.5,1.6,0c1.1-0.5,2.1,0,3.2,0C145,75.7,147.1,74.7,148.7,74.1L148.7,74.1z"
	/>
<path class="st6" d="M148.7,73.6c0.5,0,1.6-0.5,2.1-1.1l0.5,1.1c-1.1,0.5-1.6,0.5-2.1,1.1L148.7,73.6z M150.8,72.6
	c0.5,0,1.1-0.5,1.6-1.6l1.1,0.5c-0.5,1.1-1.6,1.6-2.1,2.1L150.8,72.6z M152.4,71c0.5-1.1,0.5-1.6,0.5-2.1h1.1c0,1.1,0,1.6-0.5,2.6
	L152.4,71z M152.9,68.9c0-0.5,0-1.1,0-1.6h1.1c0,0.5,0,1.1,0,1.6H152.9z M152.9,67.3L152.9,67.3h0.5H152.9z M152.9,67.3
	c0-0.5,0-0.5,0-0.5h1.1v0.5H152.9z M152.9,66.8c0-1.1,0.5-1.6,0-2.6l1.1-0.5c0,1.6,0,2.1,0,3.2H152.9z M152.9,64.1L152.9,64.1
	l0.5-0.5L152.9,64.1z M152.9,64.1L152.9,64.1l1.1-0.5l0,0L152.9,64.1z M154,63.6L154,63.6h-0.5H154z M152.9,64.1v-0.5l0.5-0.5
	c0,0.5,0.5,0.5,0.5,0.5L152.9,64.1z M152.9,63.6c0,0-0.5,0-0.5-0.5l1.1-0.5c0,0.5,0,0.5,0,0.5L152.9,63.6z M152.4,63.1
	c-0.5-1.1-1.6-2.1-1.6-2.6l0.5-0.5c0,0.5,1.1,1.6,2.1,2.6L152.4,63.1z M151.3,59.9L151.3,59.9l-0.5,0.5L151.3,59.9z M150.8,60.4
	c-1.6-1.6-2.1-2.1-2.6-2.6l0.5-0.5c0.5,0.5,1.1,1.1,2.6,2.6L150.8,60.4z M148.2,57.8c-0.5-0.5-0.5-0.5-1.1-1.1l0.5-1.1
	c0.5,1.1,1.1,1.1,1.1,1.6L148.2,57.8z M147.6,55.7L147.6,55.7l-0.5,0.5L147.6,55.7z M147.1,56.8c-1.1-0.5-1.6-1.6-2.6-2.1l0.5-0.5
	c1.1,0.5,2.1,1.1,2.6,1.6L147.1,56.8z M144.5,54.6c-0.5-0.5-1.6-0.5-2.1-0.5v-1.1c0.5,0,1.6,0.5,2.6,1.1L144.5,54.6z M142.4,53.1
	L142.4,53.1v0.5V53.1z M142.4,54.1c0,0-0.5,0.5-1.1,0.5v-1.1c0,0,0.5,0,1.1-0.5V54.1z M141.3,54.6c0,0-0.5,0-0.5,0.5l-1.1-0.5
	c0.5-0.5,1.1-0.5,1.6-1.1V54.6z M140.8,55.2L140.8,55.2l-0.5-0.5L140.8,55.2z M140.8,55.2L140.8,55.2l-1.1-0.5l0,0L140.8,55.2z
	 M140.8,55.2L140.8,55.2l-0.5-0.5L140.8,55.2z M140.8,55.2c-0.5,0.5-1.6,0.5-2.1,0.5l-0.5-0.5c1.1-0.5,1.6-0.5,1.6-0.5L140.8,55.2z
	 M138.7,55.7c-0.5,0.5-0.5,0.5-1.1,0.5v-1.1h0.5L138.7,55.7z M137.6,55.2L137.6,55.2v0.5V55.2z M137.6,56.2c-0.5,0.5-1.6,0-2.1,0
	v-0.5c0.5,0,1.1,0,2.1-0.5V56.2z M135.5,56.2c-0.5,0-1.1,0-1.6,0v-0.5c0.5,0,1.1,0,1.6,0V56.2z M134,56.2L134,56.2v-0.5V56.2z
	 M134,56.2c-0.5,0-0.5,0-0.5,0v-0.5c0,0,0,0,0.5,0V56.2z M133.4,56.2c-0.5,0-1.1,0-1.1,0.5l-0.5-1.1c0.5-0.5,1.1-0.5,1.6,0V56.2z
	 M132.4,56.8c-1.1,0-1.6,0.5-1.6,1.1l-1.1-0.5c0.5-0.5,1.1-1.1,2.1-1.6L132.4,56.8z M130.8,57.8c-0.5,0-0.5,0.5-0.5,0.5l-1.1-0.5
	c0.5-0.5,0.5-0.5,0.5-0.5L130.8,57.8z M129.2,57.8L129.2,57.8h0.5H129.2z M130.3,58.3c-0.5,0.5-0.5,1.1-0.5,1.6h-1.1
	c0-0.5,0-1.6,0.5-2.1L130.3,58.3z M129.7,59.9c0,0.5,0,1.1-0.5,2.1l-0.5-0.5c0-0.5,0-1.1,0-1.6H129.7z M128.7,61.5L128.7,61.5
	L128.7,61.5L128.7,61.5z M129.2,62L129.2,62l-0.5-0.5l0,0L129.2,62z M128.7,61.5L128.7,61.5L128.7,61.5L128.7,61.5z M129.2,62
	c0,0,0,0,0,0.5h-1.1c0-0.5,0-0.5,0.5-1.1L129.2,62z M129.2,62.6c0,0,0,0,0,0.5h-0.5c-0.5,0-0.5-0.5-0.5-0.5H129.2z M129.2,63.1
	c0.5,1.1,1.1,2.6,1.6,3.2l-0.5,0.5c-0.5-0.5-1.6-2.1-1.6-3.7H129.2z M130.8,66.2L130.8,66.2l-0.5,0.5L130.8,66.2z M130.8,66.2
	c0.5,1.1,0.5,1.6,1.1,2.1l-1.1,0.5c0-1.1-0.5-1.6-0.5-2.1L130.8,66.2z M131.8,68.4c0,1.1,0.5,1.6,1.1,2.1l-0.5,0.5
	c-1.1-0.5-1.1-1.6-1.6-2.1L131.8,68.4z M132.9,70.5L132.9,70.5l-0.5,0.5L132.9,70.5z M132.9,70.5c0.5,0.5,1.6,1.1,2.1,2.1l-1.1,0.5
	c-0.5-0.5-1.1-1.6-1.6-2.1L132.9,70.5z M135,72.6c0.5,0.5,1.1,1.6,2.1,2.1l-0.5,0.5c-1.1-0.5-1.6-1.6-2.6-2.1L135,72.6z M136.6,75.2
	L136.6,75.2L136.6,75.2L136.6,75.2z M137.1,74.7L137.1,74.7l-0.5,0.5l0,0L137.1,74.7z M136.6,75.2L136.6,75.2L136.6,75.2L136.6,75.2
	z M137.1,74.7L137.1,74.7l-0.5,1.1c0-0.5,0-0.5,0-0.5L137.1,74.7z M137.1,74.7L137.1,74.7v1.1c0,0,0,0-0.5,0L137.1,74.7z
	 M137.1,74.7c0.5,0,1.1,0.5,1.1,0l0.5,1.1c-0.5,0-1.1,0-1.6,0V74.7z M138.2,74.7L138.2,74.7l0.5,0.5L138.2,74.7z M138.2,74.7
	c0.5,0,1.1,0,1.1,0v1.1c-0.5,0-0.5,0-0.5,0L138.2,74.7z M139.2,75.7L139.2,75.7v-0.5V75.7z M139.2,74.7c0.5,0.5,0.5,0.5,1.1,0v1.1
	c-0.5,0-1.1,0-1.1,0V74.7z M140.3,75.7L140.3,75.7v-0.5V75.7z M140.3,74.7c1.1,0,2.1,0,3.2,0v1.1c-1.1,0-2.1-0.5-3.2,0V74.7z
	 M143.4,74.7L143.4,74.7v1.1l0,0V74.7z M143.4,74.7L143.4,74.7v0.5V74.7z M143.4,74.7L143.4,74.7v1.1l0,0V74.7z M143.4,74.7
	c1.1,0.5,2.6,0,3.7-0.5v1.1c-1.1,0.5-2.6,0.5-3.7,0.5V74.7z M147.1,74.1c0.5,0,1.1-0.5,1.6-0.5v1.1c0,0-0.5,0-1.6,0.5V74.1z
	 M149.2,74.7h-0.5v-0.5L149.2,74.7z"/>
<path class="st8" d="M141.3,55.7c1.6-0.5,3.2-0.5,3.7,1.6c0.5,2.1,1.6,3.2,3.2,4.2c2.1,1.1,1.6,4.2,2.1,6.9
	c-1.6,0.5-2.6,0.5-4.2,1.6c-0.5,0-1.6,0-2.6,0.5c-1.1,0-2.6,1.6-3.7,1.6c-1.1-2.1-2.1-3.2-3.7-4.2c-1.1-0.5-1.6-1.6-2.6-3.2
	c0-0.5-0.5-0.5-0.5-1.1c-1.1-1.6-1.1-3.7-0.5-5.3c0-0.5,0.5-0.5,0.5-0.5C136.1,56.8,138.7,57.3,141.3,55.7L141.3,55.7z"/>
<path class="st9" d="M141.3,55.2h0.5l0.5,0.5c-0.5,0-0.5,0.5-0.5,0.5L141.3,55.2z M141.9,55.2c0.5-0.5,1.6-0.5,2.1,0l-0.5,0.5
	c-0.5,0-0.5,0-1.1,0L141.9,55.2z M144,55.2c0.5,0,1.1,0.5,1.1,1.1l-0.5,0.5c-0.5-0.5-0.5-0.5-1.1-1.1L144,55.2z M145,56.2
	c0.5,0.5,0.5,0.5,0.5,0.5l-1.1,0.5c0-0.5,0-0.5,0-0.5L145,56.2z M144.5,57.3L144.5,57.3h0.5H144.5z M145.5,56.8
	c0,1.1,0.5,2.1,1.1,2.6l-0.5,0.5c-0.5-0.5-1.1-1.6-1.6-2.6L145.5,56.8z M146.6,59.4c0.5,0.5,1.1,1.1,2.1,1.6l-0.5,1.1
	c-1.1-0.5-1.6-1.1-2.1-2.1L146.6,59.4z M148.7,61L148.7,61l-0.5,0.5L148.7,61z M148.7,61c1.6,1.1,1.6,3.2,1.6,5.3h-0.5
	c-0.5-2.1-0.5-3.7-1.6-4.2L148.7,61z M150.3,66.2c0,0.5,0.5,1.1,0.5,1.6l-1.1,0.5c0-1.1,0-1.6,0-2.1H150.3z M150.8,67.8v0.5h-0.5
	l0,0L150.8,67.8z M150.3,68.4c-0.5,0.5-1.1,0.5-1.6,0.5v-0.5c0.5-0.5,1.1-0.5,1.6-0.5V68.4z M148.7,68.9c-0.5,0.5-1.6,1.1-2.1,1.1
	l-0.5-0.5c0.5-0.5,1.6-1.1,2.6-1.1V68.9z M146.6,69.9L146.6,69.9h-0.5H146.6z M146.6,69.9c-0.5,0.5-1.1,0.5-1.6,0.5l-0.5-1.1
	c0.5,0,1.1,0,1.6,0L146.6,69.9z M145,70.5c-0.5,0-1.1,0-1.6,0v-0.5c0.5,0,1.1-0.5,1.1-0.5L145,70.5z M143.4,70.5L143.4,70.5
	L143.4,70.5L143.4,70.5z M143.4,70.5L143.4,70.5v-0.5l0,0V70.5z M143.4,69.9L143.4,69.9v0.5V69.9z M143.4,70.5
	c-0.5,0.5-1.1,0.5-1.6,1.1l-0.5-0.5c0.5-0.5,1.6-1.1,2.1-1.1V70.5z M141.9,71.5c-0.5,0.5-1.6,1.1-2.1,1.1l-0.5-1.1
	c1.1,0,1.6-0.5,2.1-0.5L141.9,71.5z M139.7,72.6h-0.5V72h0.5V72.6z M139.2,72c-0.5-0.5-1.1-1.6-1.6-2.1l0.5-0.5
	c1.1,0.5,1.6,1.6,1.6,2.6H139.2z M137.6,69.9c-0.5-1.1-1.1-1.1-2.1-1.6l0.5-1.1c1.1,0.5,1.6,1.1,2.1,2.1L137.6,69.9z M136.1,67.3
	L136.1,67.3v0.5V67.3z M135.5,68.4c-1.1-0.5-1.6-1.6-2.1-3.2l0.5-0.5c0.5,1.1,1.1,2.6,2.1,2.6L135.5,68.4z M133.4,65.2v-0.5h0.5l0,0
	L133.4,65.2z M134,64.7L134,64.7h-0.5H134z M133.4,65.2c-0.5-0.5-0.5-0.5-0.5-1.1h0.5c0.5,0,0.5,0,0.5,0.5L133.4,65.2z M132.9,64.1
	c0,0-0.5,0-0.5-0.5h1.1c0,0,0,0,0,0.5H132.9z M132.4,63.6L132.4,63.6h0.5H132.4z M132.4,63.6c-0.5-0.5-0.5-1.6-0.5-2.6h0.5
	c0.5,1.1,0.5,1.6,1.1,2.6H132.4z M131.8,61c0-1.1,0-2.1,0-3.2l1.1,0.5c-0.5,1.1-0.5,1.6-0.5,2.6H131.8z M132.9,58.3L132.9,58.3h-0.5
	H132.9z M131.8,57.8c0-0.5,0.5-0.5,1.1-0.5v1.1l0,0L131.8,57.8z M132.9,57.3L132.9,57.3v0.5V57.3z M132.9,57.3L132.9,57.3l0.5,1.1
	c-0.5,0-0.5,0-0.5,0V57.3z M132.9,57.3L132.9,57.3v0.5V57.3z M132.9,57.3c1.1-0.5,2.6-0.5,3.7-1.1v1.1c-1.1,0-2.1,0.5-3.7,1.1V57.3z
	 M136.6,57.3L136.6,57.3v-0.5V57.3z M136.6,56.2c1.6,0,3.2,0,4.7-1.1l0.5,1.1c-1.6,0.5-3.2,1.1-5.3,1.1V56.2z M141.3,55.2
	L141.3,55.2v0.5V55.2z"/>
<path class="st7" d="M129.2,56.2c-1.1-0.5-1.1-0.5-1.6-0.5c-1.1-1.1-1.6-1.6-2.1-2.1c-1.6-2.1-1.6-4.2-2.1-6.3
	c-0.5-2.1,0-4.2,1.1-5.8c1.1-1.1,3.2-0.5,4.2-2.1c0-0.5,0.5-1.1,1.1-1.6c0.5-0.5,2.1-1.6,3.2-1.6c1.6,0,2.1,1.1,3.2,1.6
	c0.5,0,1.1,0,1.6,0c1.1,0,1.6,1.1,2.1,1.1c1.6,1.1,2.1,2.6,3.2,3.7c0,1.6,0.5,1.6,1.1,3.7c0,2.6-0.5,4.7-1.6,7.4h-0.5
	c-3.2,2.1-4.7,2.6-8.4,2.1c-1.1,0-2.1,0.5-2.6,1.1c-0.5,0-1.1-0.5-1.1-0.5H129.2z"/>
<path class="st6" d="M128.7,56.2h-0.5l0.5-1.1c0,0,0,0.5,0.5,0.5L128.7,56.2z M128.2,56.2c0,0-0.5,0-0.5-0.5l0.5-0.5c0,0,0,0,0.5,0
	L128.2,56.2z M127.6,55.7L127.6,55.7L127.6,55.7L127.6,55.7z M127.6,55.7c-1.1-0.5-1.6-1.1-2.1-1.6l1.1-0.5c0,0.5,0.5,1.1,1.6,1.6
	L127.6,55.7z M125.5,54.1c0,0,0,0,0-0.5l0.5-0.5c0,0.5,0.5,0.5,0.5,0.5L125.5,54.1z M126.1,53.1L126.1,53.1l-0.5,0.5L126.1,53.1z
	 M125.5,53.6c-1.6-1.6-2.1-3.2-2.1-4.7l0.5-0.5c0.5,2.1,1.1,3.2,2.1,4.7L125.5,53.6z M123.4,48.8c-0.5-0.5-0.5-1.1-0.5-1.6l1.1-0.5
	c0,0.5,0,1.1,0,1.6L123.4,48.8z M122.9,47.3L122.9,47.3h0.5H122.9z M122.9,47.3L122.9,47.3l1.1-0.5l0,0L122.9,47.3z M122.9,47.3
	L122.9,47.3h0.5H122.9z M122.9,47.3c0-0.5,0-0.5,0-1.1h0.5c0.5,0,0.5,0.5,0.5,0.5L122.9,47.3z M122.9,46.2c0,0,0-0.5,0-1.1h0.5
	c0,0.5,0,0.5,0,1.1H122.9z M122.9,45.2c0-1.1,0-2.6,1.1-3.7l0.5,0.5c-0.5,0.5-1.1,2.1-1.1,3.2H122.9z M123.9,41.5
	c0.5-0.5,1.6-1.1,2.1-1.1l0.5,0.5c-1.1,0.5-1.6,0.5-2.1,1.1L123.9,41.5z M126.1,40.4c1.1-0.5,1.6-0.5,2.1-1.6l1.1,0.5
	c-1.1,1.1-2.1,1.6-2.6,1.6L126.1,40.4z M129.2,39.4L129.2,39.4h-0.5H129.2z M128.2,38.8l0.5-0.5l0.5,0.5v0.5L128.2,38.8z
	 M128.7,38.3c0.5-0.5,0.5-0.5,0.5-0.5l0.5,0.5c0,0,0,0.5-0.5,0.5L128.7,38.3z M129.7,38.3L129.7,38.3v-0.5V38.3z M129.2,37.8
	L129.2,37.8l0.5,0.5l0,0L129.2,37.8z M130.3,38.3h-0.5v-0.5L130.3,38.3z M129.2,37.8c0.5-0.5,0.5-0.5,0.5-0.5l0.5,0.5
	c0,0.5,0,0.5,0,0.5L129.2,37.8z M129.7,37.2c0,0,0.5,0,0.5-0.5l0.5,1.1h-0.5L129.7,37.2z M130.3,36.7L130.3,36.7v0.5V36.7z
	 M130.3,36.7c1.1-0.5,1.6-0.5,2.6-0.5v0.5c-0.5,0-1.6,0.5-2.1,1.1L130.3,36.7z M132.9,36.2c1.1,0,1.6,0,2.1,0.5v0.5
	c-0.5,0-1.1-0.5-2.1-0.5V36.2z M135,36.7c0.5,0,1.1,0,1.6,0.5l-0.5,0.5c-0.5,0-1.1,0-1.1-0.5V36.7z M136.1,37.8L136.1,37.8
	L136.1,37.8L136.1,37.8z M136.6,37.2h0.5v1.1c-0.5,0-0.5-0.5-1.1-0.5L136.6,37.2z M137.1,37.2h0.5v1.1h-0.5V37.2z M137.6,38.3
	L137.6,38.3v-0.5V38.3z M137.6,37.2L137.6,37.2v1.1l0,0V37.2z M137.6,37.2L137.6,37.2v0.5V37.2z M137.6,37.2
	c1.1,0.5,1.1,0.5,1.6,1.1l-0.5,0.5c0,0-0.5-0.5-1.1-0.5V37.2z M139.2,38.3c0.5,0,0.5,0,0.5,0v1.1c-0.5,0-0.5-0.5-1.1-0.5L139.2,38.3
	z M139.7,38.3L139.7,38.3v0.5V38.3z M139.7,38.3c1.1,0.5,1.6,1.1,2.1,2.1l-0.5,0.5c-0.5-0.5-1.1-1.6-1.6-1.6V38.3z M141.9,40.4
	c0.5,0,0.5,0.5,0.5,1.1l-0.5,0.5c0-0.5-0.5-1.1-0.5-1.1L141.9,40.4z M142.4,41.5c0.5,0.5,0.5,0.5,0.5,0.5l-0.5,0.5
	c-0.5,0-0.5-0.5-0.5-0.5L142.4,41.5z M142.9,42L142.9,42v0.5l0,0V42z M142.9,42.5c0.5,0.5,0.5,0.5,0.5,1.1l-0.5,0.5
	c-0.5-0.5-0.5-1.1-0.5-1.6H142.9z M143.4,43.6c0.5,0.5,0.5,1.1,1.1,2.6h-1.1c0-1.1-0.5-1.6-0.5-2.1L143.4,43.6z M144.5,46.2
	L144.5,46.2H144H144.5z M144.5,46.2L144.5,46.2h-1.1l0,0H144.5z M144.5,46.2c0,0.5,0,0.5,0,1.1h-1.1c0-0.5,0-0.5,0-1.1H144.5z
	 M144.5,47.3c0,0.5,0,0.5,0,1.1h-1.1c0-0.5,0-0.5,0-1.1H144.5z M144.5,48.3c-0.5,2.1-1.1,3.7-1.6,5.3l-0.5-0.5
	c0.5-1.6,1.1-3.2,1.1-4.7H144.5z M142.4,53.1L142.4,53.1L142.4,53.1v0.5V53.1z M142.9,53.6c0,0.5-0.5,0.5-0.5,0.5v-1.1
	c0,0-0.5,0.5,0,0L142.9,53.6z M142.4,54.1c-0.5,0-0.5,0-0.5,0l-0.5-1.1c0.5,0,0.5,0,1.1,0V54.1z M141.9,54.1L141.9,54.1v-0.5V54.1z
	 M141.9,54.1c-1.6,1.1-2.6,1.6-3.7,2.1l-0.5-1.1c1.1-0.5,2.6-1.1,3.7-2.1L141.9,54.1z M138.2,56.2c-1.6,0-3.2,0-4.7,0v-1.1
	c1.6,0,3.2,0.5,4.2,0L138.2,56.2z M133.4,55.2L133.4,55.2v0.5V55.2z M133.4,56.2c-0.5,0-1.1,0-1.6,0v-0.5c0.5-0.5,1.1-0.5,1.6-0.5
	V56.2z M131.8,56.2c0,0-0.5,0.5-1.1,0.5l-0.5-0.5c0.5-0.5,1.1-0.5,1.6-0.5V56.2z M130.3,56.2L130.3,56.2L130.3,56.2l0.5,0.5
	L130.3,56.2z M130.8,56.8c0,0.5-0.5,0.5-1.1,0l0.5-0.5l0,0L130.8,56.8z M129.7,56.8h-0.5l0.5-1.1c0,0,0,0,0.5,0.5L129.7,56.8z
	 M129.2,56.8L129.2,56.8L129.2,56.8l0.5-0.5L129.2,56.8z M129.2,56.8l-0.5-0.5l0.5-0.5h0.5L129.2,56.8z M129.2,55.7L129.2,55.7v0.5
	V55.7z"/>
<path class="st8" d="M132.4,38.3c1.1,0.5,2.6,0,4.2,0.5c1.1,1.1,2.1,2.1,3.7,3.2c1.1,1.6,1.6,3.2,1.1,5.3c-0.5,1.6-1.1,3.7-2.1,5.3
	c0,0.5-0.5,1.1-1.1,1.1c-1.6,1.6-3.2,1.1-4.7,1.1c-1.1,0-1.6-1.6-2.6-2.1c-2.6-1.6-5.8-4.2-6.3-9c1.6-2.1,3.2-2.6,4.7-3.7
	c1.1-1.6,3.2-1.6,4.7-1.1c0,0-1.1,0-1.1-0.5H132.4z"/>
<path class="st9" d="M132.4,37.8c0.5,0.5,1.1,0.5,1.6,0.5v0.5c-0.5,0-1.1,0-2.1,0L132.4,37.8z M134,38.3c1.1,0,1.6,0,2.6,0.5
	l-0.5,0.5c-0.5,0-1.1,0-2.1-0.5V38.3z M136.1,39.4L136.1,39.4l0.5-0.5L136.1,39.4z M136.6,38.8c0.5,0,1.6,0.5,2.1,1.1l-0.5,1.1
	c-0.5-0.5-1.6-1.1-2.1-1.6L136.6,38.8z M138.7,39.9c0.5,0.5,1.1,1.1,1.6,2.1l-0.5,0.5c-0.5-0.5-1.1-1.1-1.6-1.6L138.7,39.9z
	 M140.3,42L140.3,42L140.3,42L140.3,42z M140.3,42L140.3,42l-0.5,0.5l0,0L140.3,42z M140.3,42L140.3,42L140.3,42L140.3,42z
	 M140.3,42c0.5,0,0.5,0,0.5,0.5l-0.5,0.5c0-0.5-0.5-0.5-0.5-0.5L140.3,42z M140.8,42.5l0.5,0.5l-1.1,0.5c0-0.5,0-0.5,0-0.5
	L140.8,42.5z M141.3,43c0.5,1.6,0.5,2.6,0,4.2h-0.5c0.5-1.6,0-2.6-0.5-3.7L141.3,43z M141.3,47.3L141.3,47.3L141.3,47.3L141.3,47.3z
	 M141.3,47.3L141.3,47.3h-0.5l0,0H141.3z M141.3,47.3L141.3,47.3L141.3,47.3L141.3,47.3z M141.3,47.3c0,0.5,0,1.6-0.5,2.1h-1.1
	c0.5-1.1,0.5-1.6,1.1-2.1H141.3z M140.8,49.4c0,1.1-0.5,2.6-1.1,3.2h-1.1c0.5-1.1,1.1-2.1,1.1-3.2H140.8z M139.7,52.5L139.7,52.5
	h-0.5H139.7z M139.7,52.5c0,0.5-0.5,0.5-0.5,1.1l-0.5-0.5c0,0,0-0.5,0-1.1L139.7,52.5z M139.2,53.6l-0.5,0.5l-0.5-0.5
	c0-0.5,0.5-0.5,0.5-0.5L139.2,53.6z M138.7,54.1L138.7,54.1l-0.5-0.5L138.7,54.1z M138.7,54.1c-1.6,1.1-3.2,1.1-4.2,1.1v-1.1
	c1.1,0,2.6,0,3.7-0.5L138.7,54.1z M134.5,55.2c-0.5,0-1.1,0-1.1,0v-1.1c0,0,0.5,0,1.1,0V55.2z M133.4,55.2c-1.1,0-1.6-0.5-2.1-1.6
	l0.5-0.5c0.5,0.5,1.1,1.1,1.6,1.1V55.2z M131.3,53.6c-0.5,0-0.5-0.5-1.1-0.5l0.5-0.5c0.5,0,1.1,0.5,1.1,0.5L131.3,53.6z M130.8,52.5
	L130.8,52.5L130.8,52.5L130.8,52.5z M130.8,53.1c-1.6-1.1-3.2-2.1-4.2-3.7l0.5-0.5c1.1,1.6,2.6,2.6,3.7,3.7V53.1z M126.6,49.4
	c-1.6-1.6-2.1-3.2-2.1-5.8h0.5c0,2.1,1.1,4.2,2.1,5.3L126.6,49.4z M124.5,43.6L124.5,43.6L124.5,43.6L124.5,43.6L124.5,43.6z
	 M124.5,43.6c0.5-1.6,1.6-2.1,2.6-3.2l0.5,1.1c-1.1,0.5-2.1,1.1-2.6,2.6L124.5,43.6z M127.1,40.4c0.5,0,1.1-0.5,1.6-1.1l1.1,0.5
	c-0.5,0.5-1.6,1.1-2.1,1.6L127.1,40.4z M129.7,39.9L129.7,39.9h-0.5H129.7z M128.7,39.4L128.7,39.4l1.1,0.5l0,0L128.7,39.4z
	 M128.7,39.4L128.7,39.4h0.5H128.7z M128.7,39.4c0.5-0.5,0.5-0.5,1.1-0.5l0.5,0.5c-0.5,0.5-0.5,0.5-0.5,0.5L128.7,39.4z M129.7,38.8
	c0,0,0-0.5,0.5-0.5l0.5,1.1c-0.5,0-0.5,0-0.5,0L129.7,38.8z M130.3,38.3c1.1-0.5,2.6-0.5,3.7,0v1.1c-1.1-0.5-2.1-0.5-3.2,0
	L130.3,38.3z M134.5,38.8v0.5H134v-0.5H134.5z M133.4,38.8C133.4,38.3,133.4,38.8,133.4,38.8v-0.5c0.5,0,1.1,0,1.1,0.5H133.4z
	 M133.4,38.8c-0.5,0-0.5,0-0.5-0.5h0.5c0,0.5,0,0,0,0V38.8z"/>
<path class="st7" d="M122.9,21.4c6.8-1.6,6.8,0,7.4,0.5c0.5,1.1,0.5,2.6,0.5,3.2c0,3.2,0.5,5.3,1.6,8.4c0.5,0.5-0.5,1.6-0.5,2.1
	c-0.5,1.1-1.6,1.6-2.6,2.1c-0.5,1.1-1.1,2.1-2.1,2.6c-1.1,0.5-2.6,1.6-4.2,2.6c-1.1,1.6-2.6,1.6-4.2,1.6c-1.1,0-1.6,0.5-2.6,0
	c-2.1-1.6-1.1-5.8,0-8.4c1.1-3.7,0-8.4,1.6-12.1C118.2,23,120.8,22.5,122.9,21.4L122.9,21.4z"/>
<path class="st6" d="M122.9,20.9c6.3-1.6,6.8,0,7.4,0.5l-0.5,0.5c-0.5-0.5-1.1-1.6-6.8,0V20.9z M130.3,21.4c0.5,0.5,0.5,0.5,0.5,0.5
	l-1.1,0.5V22L130.3,21.4z M130.8,22L130.8,22h-0.5H130.8z M130.8,22L130.8,22l-1.1,0.5l0,0L130.8,22z M130.8,22L130.8,22h-0.5H130.8
	z M130.8,22c0.5,0.5,0.5,1.6,0.5,2.6h-1.1c0-0.5,0-1.6-0.5-2.1L130.8,22z M131.3,24.6c0,0.5,0,0.5,0,0.5h-1.1c0,0,0,0,0-0.5H131.3z
	 M131.3,25.1L131.3,25.1h-0.5H131.3z M131.3,25.1c0,1.6,0,3.2,0.5,4.2h-1.1c0-1.1-0.5-2.6-0.5-4.2H131.3z M131.8,29.3
	c0,1.1,0.5,2.6,1.1,3.7l-1.1,0.5c-0.5-1.6-0.5-2.6-1.1-4.2H131.8z M131.8,33.6L131.8,33.6h0.5H131.8z M132.9,33c0,0.5,0,1.1,0,1.6
	h-1.1c0-0.5,0-1.1,0-1.1L132.9,33z M132.9,34.6c-0.5,0.5-0.5,1.1-0.5,1.1l-1.1-0.5l0.5-0.5H132.9z M131.3,35.1L131.3,35.1l0.5,0.5
	L131.3,35.1z M132.4,35.7c-0.5,1.1-1.1,1.6-1.6,1.6l-0.5-0.5c0.5-0.5,1.1-0.5,1.1-1.6L132.4,35.7z M130.8,37.2
	c-0.5,0.5-1.1,0.5-1.1,1.1l-1.1-0.5c0.5-0.5,1.1-1.1,1.6-1.1L130.8,37.2z M129.7,38.3L129.7,38.3l-0.5-0.5L129.7,38.3z M129.7,38.3
	L129.7,38.3l-1.1-0.5l0,0L129.7,38.3z M128.7,37.8L128.7,37.8h0.5H128.7z M129.7,38.3c-0.5,0-0.5,0.5-0.5,0.5l-1.1-0.5
	c0.5,0,0.5-0.5,0.5-0.5L129.7,38.3z M129.2,38.8c-0.5,0.5-1.1,1.6-1.6,1.6l-0.5-0.5c0.5-0.5,1.1-1.1,1.1-1.6L129.2,38.8z
	 M127.1,39.9L127.1,39.9v0.5V39.9z M127.6,40.4c-0.5,0.5-1.1,1.1-1.6,1.1l-0.5-0.5c0.5-0.5,1.1-1.1,1.6-1.1L127.6,40.4z M125.5,40.9
	L125.5,40.9L125.5,40.9L125.5,40.9z M126.1,41.5c-1.1,0.5-2.1,1.1-2.6,2.1l-1.1-0.5c1.1-1.1,2.1-1.6,3.2-2.1L126.1,41.5z M122.4,43
	L122.4,43h0.5H122.4z M123.4,43.6c-1.1,1.1-2.6,1.1-3.7,1.6v-1.1c1.1,0,2.1-0.5,2.6-1.1L123.4,43.6z M119.7,45.2c-0.5,0-0.5,0-1.1,0
	v-1.1c0,0,0.5,0,1.1,0V45.2z M118.7,45.2c-0.5,0-1.1,0-1.1,0v-0.5c0,0,0.5-0.5,1.1-0.5V45.2z M117.6,45.2c-0.5,0-1.1,0-1.6,0
	l0.5-1.1c0,0,0.5,0.5,1.1,0.5V45.2z M116.6,44.1L116.6,44.1l-0.5,0.5L116.6,44.1z M116,45.2c-1.6-1.1-1.6-2.6-1.6-4.7l1.1,0.5
	c-0.5,1.1,0,2.6,1.1,3.2L116,45.2z M114.5,40.4c0-1.6,0.5-3.2,1.1-4.7l1.1,0.5c-0.5,1.1-1.1,3.2-1.1,4.7L114.5,40.4z M115.5,35.7
	L115.5,35.7l0.5,0.5L115.5,35.7z M115.5,35.7L115.5,35.7l1.1,0.5l0,0L115.5,35.7z M116.6,36.2L116.6,36.2H116H116.6z M115.5,35.7
	c0.5-1.6,0.5-3.2,0.5-5.3h1.1c0,2.1,0,4.2-0.5,5.8L115.5,35.7z M116,30.4c0.5-2.1,0.5-4.2,1.1-6.3h1.1c-1.1,2.1-1.1,4.2-1.1,6.3H116
	z M117.1,24.1L117.1,24.1h0.5H117.1z M117.1,24.1c0.5-1.1,2.6-2.1,4.2-2.6l0.5,1.1c-2.1,0.5-3.7,1.1-3.7,1.6H117.1z M121.3,21.4
	c0.5,0,1.1,0,1.6-0.5l0.5,1.1c-0.5,0-1.1,0.5-1.6,0.5L121.3,21.4z M122.9,20.9L122.9,20.9L122.9,20.9v0.5V20.9z"/>
<path class="st10" d="M118.7,35.7c1.6,2.1,1.6-3.2,2.1-4.2c0.5-2.6,2.1-4.7,4.2-3.7c1.1,0.5,0.5,3.2,1.1,4.7c0,0.5,0,1.1,0,1.6
	c0.5,1.1,0,1.6,0,2.1c1.1,1.1,1.6-1.1,2.1-2.1c0.5-1.1,0-3.2,0-4.7c-0.5-0.5,0-1.6,0-2.1c-0.5-2.1-3.2-2.6-4.2-1.6
	c-1.6,0.5-2.6,0.5-3.7,1.6c-0.5,0-0.5,1.1-1.1,1.6C119.2,30.9,119.2,33,118.7,35.7L118.7,35.7z"/>
<path class="st7" d="M108.7,10.4c2.1,0.5,4.2,1.1,6.3,2.6c1.1,0.5,2.1,1.6,3.2,3.2c0.5,1.1,1.1,1.6,1.1,2.6c1.1,3.2-1.6,3.7-2.6,5.3
	c-0.5,0.5-0.5,0.5-0.5,1.1c-1.6,2.1-2.6,4.2-3.7,6.3c-1.6,2.6-4.7,2.1-6.8,1.6c-1.6-0.5-2.1-2.1-2.6-3.2c-0.5-2.6,0.5-4.7,0.5-6.9
	c0.5-3.2,0-5.8,0.5-9c0-1.1,0.5-2.1,1.1-2.6C106,10.4,107.1,10.4,108.7,10.4L108.7,10.4z"/>
<path class="st6" d="M108.7,10.4c1.1,0,2.1,0,3.2,0.5v1.1c-1.1-0.5-2.1-0.5-3.2-1.1V10.4z M111.8,10.9c1.1,0.5,2.1,1.1,3.2,1.6
	l-0.5,0.5c-1.1-0.5-2.1-1.1-2.6-1.1V10.9z M115,12.5L115,12.5V13V12.5z M115,12.5c0.5,0.5,1.6,1.1,2.1,1.6l-1.1,0.5
	c-0.5-0.5-1.1-1.1-1.6-1.6L115,12.5z M117.1,14c0.5,0.5,1.1,1.1,1.1,2.1h-0.5c-0.5-0.5-1.1-1.1-1.6-1.6L117.1,14z M117.6,16.2
	L117.6,16.2h0.5H117.6z M118.2,16.2c0.5,0,1.1,0.5,1.1,1.1l-1.1,0.5c0-0.5,0-1.1-0.5-1.6H118.2z M119.2,17.2c0,0.5,0.5,1.1,0.5,1.6
	l-1.1,0.5c0-0.5,0-1.1-0.5-1.6L119.2,17.2z M118.7,19.3L118.7,19.3l0.5-0.5L118.7,19.3z M119.7,18.8c1.1,2.6-0.5,3.7-2.1,4.7
	l-0.5-0.5c1.1-1.1,2.6-2.1,1.6-3.7L119.7,18.8z M117.6,23.5c0,0.5-0.5,0.5-1.1,1.1l-0.5-0.5c0.5-0.5,1.1-1.1,1.1-1.1L117.6,23.5z
	 M116.6,24.6L116.6,24.6v-0.5V24.6z M116.6,24.6L116.6,24.6l-0.5-0.5l0,0L116.6,24.6z M116,24.1L116,24.1h0.5H116z M116.6,24.6
	L116.6,24.6h-1.1c0.5-0.5,0.5-0.5,0.5-0.5L116.6,24.6z M116.6,24.6c0,0.5,0,0.5-0.5,1.1l-0.5-1.1l0,0H116.6z M115.5,24.6L115.5,24.6
	l0.5,0.5L115.5,24.6z M116.6,25.6c-1.1,1.1-2.1,2.6-3.2,4.2l-0.5-0.5c1.1-1.6,1.6-3.2,2.6-4.7L116.6,25.6z M113.4,29.9
	c0,0.5-0.5,1.1-1.1,1.6l-0.5-0.5c0.5-0.5,0.5-1.1,1.1-1.6L113.4,29.9z M111.8,30.9L111.8,30.9l0.5,0.5L111.8,30.9z M112.4,31.4
	L112.4,31.4l-0.5-0.5l0,0L112.4,31.4z M112.4,31.4c0,0.5-0.5,1.1-0.5,1.1l-0.5-0.5c0,0,0.5-0.5,0.5-1.1L112.4,31.4z M111.8,32.5
	c-0.5,0.5-0.5,0.5-1.1,1.1l-0.5-1.1c0.5,0,0.5,0,1.1-0.5L111.8,32.5z M110.8,33.6c-1.6,0.5-3.7,0.5-5.8,0l0.5-1.1
	c1.6,0.5,3.7,1.1,4.7,0L110.8,33.6z M105.5,32.5L105.5,32.5V33V32.5z M105,33.6c-0.5-0.5-1.1-1.1-1.6-1.6l1.1-0.5
	c0,0.5,0.5,1.1,1.1,1.1L105,33.6z M103.4,32c-0.5-0.5-0.5-1.6-1.1-2.1l1.1-0.5c0,1.1,0.5,1.6,1.1,2.1L103.4,32z M102.4,29.9
	L102.4,29.9h0.5H102.4z M102.4,29.9c0-1.6,0-3.2,0.5-4.7h0.5c0,1.6-0.5,3.2,0,4.2L102.4,29.9z M102.9,25.1c0-0.5,0-1.6,0-2.1h1.1
	c0,1.1,0,1.6-0.5,2.1H102.9z M102.9,23L102.9,23h0.5H102.9z M102.9,23c0.5-1.6,0.5-2.6,0.5-4.2h1.1c-0.5,1.6-0.5,2.6-0.5,4.2H102.9z
	 M103.4,18.8c0-1.6,0-3.2,0-4.7h1.1c0,1.6,0,3.2,0,4.7H103.4z M103.4,14L103.4,14h0.5H103.4z M103.4,14L103.4,14h1.1l0,0H103.4z
	 M103.4,14L103.4,14h0.5H103.4z M103.4,14v-0.5h1.1c0,0.5,0,0.5,0,0.5H103.4z M103.4,13.5l0.5-0.5l0.5,0.5l0,0H103.4z M103.9,13
	c0-0.5,0.5-1.6,1.1-2.1l0.5,0.5c-0.5,0.5-0.5,1.1-1.1,2.1L103.9,13z M105,10.9L105,10.9v0.5V10.9z M105,10.9
	c0.5-0.5,1.1-1.1,1.6-1.1v1.1c-0.5,0-0.5,0.5-1.1,0.5L105,10.9z M106.6,9.8c0.5,0,1.6,0,2.1,0.5v0.5c-1.1,0-1.6,0-2.1,0V9.8z
	 M108.7,10.9L108.7,10.9v-0.5V10.9z"/>
<path class="st10" d="M108.7,13.5c1.6,1.1,2.1,0.5,2.6,0.5c1.1,0.5,2.1,1.6,3.2,2.6c1.1,0.5,1.6,1.6,1.1,2.6
	c-0.5,0.5-0.5,1.6-1.1,2.1c-1.1,2.1-1.1,4.7-2.1,6.3c-0.5,0-1.1,0-1.1-0.5c0-2.6,0.5-4.2,0.5-6.3c0-0.5,0-1.1,0-1.1l-0.5-0.5
	c-0.5-0.5-1.6-1.1-2.1-0.5c-1.1,1.1-1.1,2.6-2.1,3.7c0,0.5-0.5,0.5-0.5,0c-0.5,0-0.5-0.5-0.5-1.1c0.5-2.1,0-4.7,1.1-6.9
	C107.1,14,108.1,13,108.7,13.5L108.7,13.5z"/>
<path class="st11" d="M117.1,35.7c-0.5,1.6-1.1,3.2-1.6,4.7c0,0.5,0,1.6,0,2.1c0.5,0.5,1.1,1.6,1.6,1.6c0-0.5,0.5-0.5,0.5-0.5
	c-1.1-1.1-1.1-2.1-1.1-3.2C116,38.8,116.6,37.2,117.1,35.7L117.1,35.7z"/>
<path class="st11" d="M103.9,24.6c0,1.6-0.5,3.2,0,4.7c0,1.6,1.1,3.7,2.1,2.6c-1.1-1.6-1.1-3.2-2.1-4.7c0-0.5,0-1.1,0-1.6l0,0V24.6z
	"/>
<path class="st7" d="M90.2,6.1c1.1,0,2.6,0,3.2,0c2.6,0,6.3-0.5,7.4,0.5c0.5,0.5,2.1,1.1,2.1,2.6s0.5,3.7,0,5.8
	c0,0.5-0.5,1.1-0.5,1.6c-1.1,3.7-2.1,6.9-2.6,10c-0.5,0.5-1.1,1.1-1.6,1.6c-1.1,0-2.1,0-3.2,0.5c-1.6,0-2.1,0-3.2-0.5
	c-0.5,0-2.1-0.5-2.1-1.1c-1.6-2.1-1.6-5.3-2.6-8.4c-0.5-1.1-1.1-2.6-1.1-3.7c-0.5-2.1-0.5-4.7,0-7.4c0-0.5,1.1-1.1,1.6-1.6
	C88.7,5.6,89.2,5.6,90.2,6.1L90.2,6.1z"/>
<path class="st6" d="M90.8,5.6L90.8,5.6l-0.5,1.1l0,0L90.8,5.6z M90.2,6.7L90.2,6.7V6.1V6.7z M90.8,5.6c0,0,1.1,0,1.6,0v1.1
	c-0.5,0-1.6,0-2.1,0L90.8,5.6z M92.3,5.6c0.5,0,0.5,0,1.1,0v1.1c-0.5,0-0.5,0-1.1,0V5.6z M93.4,6.7L93.4,6.7V6.1V6.7z M93.4,5.6
	L93.4,5.6v1.1l0,0V5.6z M93.4,5.6c0.5,0,1.1,0,1.6,0v1.1c-0.5,0-1.1,0-1.6,0V5.6z M95,5.6c2.6,0,4.7,0,5.8,0.5l-0.5,1.1
	c-0.5-1.1-3.2-0.5-5.3-0.5V5.6z M100.2,7.2L100.2,7.2l0.5-0.5L100.2,7.2z M100.8,6.1L100.8,6.1l-0.5,1.1l0,0L100.8,6.1z M100.8,6.1
	c0.5,0,0.5,0,0.5,0.5l-0.5,0.5c0,0,0,0-0.5,0L100.8,6.1z M101.3,6.7c0.5,0,1.6,1.1,2.1,2.6h-1.1c0-1.1-1.1-1.6-1.6-2.1L101.3,6.7z
	 M103.4,9.3L103.4,9.3h-0.5H103.4z M103.4,9.3c0,0.5,0,1.1,0,1.6h-1.1c0-0.5,0-1.1,0-1.6H103.4z M103.4,10.9c0,1.6,0.5,2.6,0,4.2
	h-1.1c0.5-1.6,0.5-2.6,0-4.2H103.4z M102.4,15.1L102.4,15.1h0.5H102.4z M103.4,15.1c0,0.5,0,0.5-0.5,1.1l-0.5-0.5v-0.5H103.4z
	 M102.9,16.2c0,0.5,0,0.5,0,1.1l-1.1-0.5c0,0,0-0.5,0.5-1.1L102.9,16.2z M101.8,16.7L101.8,16.7h0.5H101.8z M102.9,17.2L102.9,17.2
	l-1.1-0.5l0,0L102.9,17.2z M101.8,16.7L101.8,16.7h0.5H101.8z M102.9,17.2c-0.5,1.1-1.1,2.6-1.6,3.7h-0.5c0.5-1.6,0.5-2.6,1.1-4.2
	L102.9,17.2z M101.3,20.9c-0.5,2.1-1.1,3.7-1.1,5.8l-1.1-0.5c0.5-1.6,1.1-3.7,1.6-5.3H101.3z M99.2,26.2L99.2,26.2l0.5,0.5
	L99.2,26.2z M100.2,26.7L100.2,26.7l-1.1-0.5l0,0L100.2,26.7z M100.2,26.7L100.2,26.7h-0.5H100.2z M100.2,26.7h-0.5h-0.5
	c0,0,0,0,0-0.5L100.2,26.7z M99.7,26.7c0,0.5,0,0.5,0,0.5l-0.5-0.5l0,0H99.7z M99.7,27.2L99.7,27.2h-0.5H99.7z M99.7,27.2
	c0,0.5-0.5,1.1-1.1,1.1l-0.5-0.5c0.5,0,0.5-0.5,1.1-1.1L99.7,27.2z M98.7,28.3L98.7,28.3h-0.5H98.7z M98.7,28.3L98.7,28.3l-0.5-0.5
	l0,0L98.7,28.3z M98.7,28.3L98.7,28.3h-0.5H98.7z M98.7,28.3c-1.1,0.5-1.6,0.5-2.6,0.5v-1.1c0.5,0,1.6,0,2.1,0L98.7,28.3z M96,28.8
	c-0.5,0-0.5,0-1.1,0v-0.5c0,0,0.5,0,1.1-0.5V28.8z M95,28.8L95,28.8L95,28.8L95,28.8z M95,28.8c-0.5,0.5-1.1,0.5-1.6,0.5v-1.1
	c0.5,0,1.1,0,1.6,0V28.8z M93.4,29.3c-0.5,0-1.1-0.5-1.6-0.5v-1.1c0.5,0.5,1.1,0.5,1.6,0.5V29.3z M91.8,28.8h-0.5l0.5-0.5V28.8z
	 M91.3,28.8L91.3,28.8l0.5-1.1l0,0L91.3,28.8z M91.3,28.8c-0.5,0-1.6-0.5-2.1-1.1l1.1-0.5c0,0,1.1,0.5,1.6,0.5L91.3,28.8z
	 M90.2,27.2L90.2,27.2h-0.5H90.2z M89.2,27.8c-1.1-1.6-1.1-3.2-1.6-4.7l1.1-0.5c0,1.6,0.5,3.2,1.6,4.7L89.2,27.8z M87.6,23
	c0-1.6-0.5-2.6-1.1-4.2h1.1c0.5,1.1,0.5,2.6,1.1,3.7L87.6,23z M87.6,18.8L87.6,18.8h-0.5H87.6z M86.5,18.8L86.5,18.8h1.1l0,0H86.5z
	 M87.6,18.8L87.6,18.8h-0.5H87.6z M86.5,18.8L86.5,18.8l1.1-0.5v0.5H86.5z M87.6,18.3L87.6,18.3h-0.5H87.6z M86.5,18.8
	c-0.5-1.1-1.1-2.6-1.1-3.7h1.1c0,1.1,0.5,2.1,1.1,3.2L86.5,18.8z M85.5,15.1L85.5,15.1H86H85.5z M85.5,15.1c0-1.1,0-2.1,0-3.7H86
	c0,1.6,0,2.6,0.5,3.7H85.5z M85.5,11.4c0-1.1,0-2.6,0-3.7h1.1c0,1.6-0.5,2.6-0.5,3.7H85.5z M86.5,7.7L86.5,7.7H86H86.5z M85.5,7.7
	L85.5,7.7h1.1l0,0H85.5z M85.5,7.7L85.5,7.7H86H85.5z M85.5,7.7c0,0,0,0,0.5-0.5l0.5,0.5l0,0H85.5z M86,7.2L86,7.2l0.5,0.5l0,0
	L86,7.2z M86,7.2L86,7.2h0.5H86z M86,7.2c0.5-0.5,1.1-1.1,1.1-1.1l0.5,0.5c0,0-0.5,0.5-1.1,1.1L86,7.2z M87.1,6.1L87.1,6.1h0.5H87.1
	z M87.1,6.1c1.1-0.5,1.6-0.5,2.1-0.5v0.5c-0.5,0-1.1,0.5-1.6,0.5L87.1,6.1z M89.2,5.6c0.5,0,1.1,0,1.6,0l-0.5,1.1
	c-0.5,0-1.1-0.5-1.1-0.5V5.6z M90.2,6.7L90.2,6.7V6.1V6.7z"/>
<path class="st12" d="M95.5,8.3c3.7,1.1,3.7,2.6,3.7,3.2c0.5,1.6,0.5,3.2,0,4.7c-0.5,2.1-0.5,4.2-1.6,5.8C97.1,23,95,24.1,95,22.5
	c-0.5-1.6,0-3.2,0-4.2c-0.5-4.2-1.1-4.7-5.3-6.3c-1.6-0.5-1.1-2.6-0.5-2.6C91.3,8.3,93.4,7.7,95.5,8.3L95.5,8.3z"/>
<path class="st5" d="M129.2,140c0-3.7,2.1-6.9,2.6-10.5c1.1-6.3-0.5-9,1.6-13.7c0.5-1.1-0.5-6.3-0.5-7.4c-0.5-5.3,2.1-7.4,0-13.7
	c-1.1-4.7,0-9.5-2.1-15.8c-5.3-7.9-4.2-12.7-5.3-19c-1.1-3.7-3.7-5.8-4.2-9c-0.5-2.1-2.6-3.2-4.2-3.7c-2.1-0.5-5.3-4.2-5.3-8.4
	c0-1.1,0-2.1-0.5-2.1c-1.6-1.6-3.7-0.5-5.8-1.6c-1.6-1.1-3.2-2.1-4.2-4.2c-1.1-2.6-4.2-0.5-6.8-0.5c-1.1,0-2.6-0.5-3.7-0.5
	c-1.6-0.5-3.7-2.6-3.2-2.6c1.1,5.3,9.5,7.4,12.6,9.5c0.5,0.5,0.5,1.1,1.1,1.6c1.1,1.1,2.1,1.6,3.2,2.1c1.6,1.6,2.6,3.2,3.7,5.3
	c1.6,2.6,5.3,3.2,6.8,6.3c1.1,1.6,1.1,3.7,2.1,5.8c1.6,2.6,3.2,4.7,4.2,7.4c0.5,3.2,0,6.3,1.1,9c1.1,2.1,2.6,4.2,2.6,6.3
	c1.1,4.2,2.1,7.9,2.1,11.6c0,3.7,0,7.9,0,11.6c0,3.2,0.5,6.3,0.5,9.5c-1.1,10-0.5,19.5-0.5,29.5c0,2.1,1.6,5.8,2.1,7.9
	c0.5-0.5,0-1.6,0-1.6C128.2,145.3,128.7,142.2,129.2,140L129.2,140z"/>
<path class="st7" d="M78.6,5.6c-0.5,0-2.1,0-2.6,0c-3.2,0-6.3-0.5-7.9,0.5c-0.5,0.5-1.6,1.1-1.6,2.6c-0.5,1.6-1.1,3.7-0.5,5.8
	c0,0.5,0.5,1.1,1.1,1.6c0.5,3.2,2.1,6.3,2.6,9.5c0,1.1,0.5,1.6,1.1,1.6c1.1,0.5,2.1,0.5,3.7,0.5c1.1,0.5,2.1,0.5,3.2,0
	c0.5,0,1.6-0.5,2.1-1.1c1.6-2.6,1.1-5.3,2.1-8.4c0.5-1.1,1.1-2.6,1.6-3.7c0-2.6,0-5.3-0.5-7.4c0-0.5-0.5-1.1-1.6-1.6
	C80.2,5.1,79.7,5.1,78.6,5.6L78.6,5.6z"/>
<path class="st6" d="M78.6,5.6L78.6,5.6V5.1l0,0V5.6z M78.6,5.6L78.6,5.6L78.6,5.6L78.6,5.6z M78.6,5.6c-0.5,0.5-1.6,0.5-2.1,0.5
	V5.1c0.5,0,1.6,0,2.1,0V5.6z M76.5,6.1c-0.5,0-0.5,0-0.5,0V5.1c0,0,0,0,0.5,0V6.1z M76,6.1L76,6.1V5.1l0,0V6.1z M76,6.1
	c-1.6,0-3.2-0.5-4.7-0.5V5.1c1.6,0,3.2,0,4.7,0V6.1z M71.3,5.6c-1.1,0-2.1,0.5-2.6,0.5l-0.5-0.5c0.5-0.5,2.1-0.5,3.2-0.5V5.6z
	 M68.6,6.1L68.6,6.1h-0.5H68.6z M68.6,6.1L68.6,6.1l-0.5-0.5l0,0L68.6,6.1z M68.6,6.1l-0.5,0.5l-0.5-1.1h0.5L68.6,6.1z M68.1,6.7
	c-0.5,0-1.1,1.1-1.6,2.1H66c0-1.6,1.1-2.6,1.6-3.2L68.1,6.7z M66,8.8L66,8.8h0.5H66z M66.5,8.8c0,0.5,0,1.1,0,1.6h-1.1
	c0-0.5,0.5-1.1,0.5-1.6H66.5z M66.5,10.4c0,1.6-0.5,2.6,0,3.7l-1.1,0.5c0-1.6,0-2.6,0-4.2H66.5z M66.5,14L66.5,14L66,14.6L66.5,14z
	 M66.5,14c0,0.5,0,1.1,0.5,1.1L66,15.6c0-0.5-0.5-0.5-0.5-1.1L66.5,14z M67.1,15.1c0,0.5,0,0.5,0,1.1l-0.5,0.5
	c0-0.5-0.5-0.5-0.5-1.1L67.1,15.1z M66.5,16.7L66.5,16.7l0.5-0.5L66.5,16.7z M67.1,16.2L67.1,16.2l-0.5,0.5l0,0L67.1,16.2z
	 M67.1,16.2L67.1,16.2L67.1,16.2L67.1,16.2z M67.1,16.2c0.5,1.1,1.1,2.1,1.1,3.7h-0.5c-0.5-1.1-1.1-2.1-1.1-3.2L67.1,16.2z
	 M67.6,19.8L67.6,19.8h0.5H67.6z M68.1,19.8c1.1,2.1,1.6,3.7,2.1,5.8h-1.1c-0.5-1.6-1.1-3.7-1.6-5.8H68.1z M70.2,25.6L70.2,25.6
	h-0.5H70.2z M70.2,25.6L70.2,25.6h-1.1l0,0H70.2z M69.2,25.6L69.2,25.6h0.5H69.2z M70.2,25.6c0,0,0,0,0,0.5h-1.1c0,0,0,0,0-0.5H70.2
	z M70.2,26.2L70.2,26.2l-1.1,0.5v-0.5H70.2z M69.2,26.7L69.2,26.7l0.5-0.5L69.2,26.7z M70.2,26.2c0,0.5,0.5,0.5,0.5,0.5v1.1
	c-0.5,0-1.1-0.5-1.6-1.1L70.2,26.2z M70.7,27.8L70.7,27.8L70.7,27.8v-0.5V27.8z M70.7,26.7L70.7,26.7v1.1l0,0V26.7z M70.7,26.7
	l0.5,0.5v0.5h-0.5V26.7z M71.3,27.2c0.5,0,0.5,0,0.5,0v0.5c-0.5,0-0.5,0-0.5,0V27.2z M71.8,27.2c1.1,0,1.6,0,2.6,0l-0.5,1.1
	c-0.5,0-1.6,0-2.1-0.5V27.2z M74.4,27.2L74.4,27.2v0.5V27.2z M74.4,27.2c0.5,0.5,1.1,0.5,1.6,0.5v0.5c-0.5,0-1.1,0-2.1,0L74.4,27.2z
	 M76,27.8c0.5,0,1.1-0.5,1.6-0.5v1.1c-0.5,0-1.1,0-1.6,0V27.8z M77.6,27.2L77.6,27.2L77.6,27.2v0.5V27.2z M77.6,27.2L77.6,27.2v1.1
	l0,0V27.2z M77.6,28.3L77.6,28.3v-0.5V28.3z M77.6,27.2L77.6,27.2l0.5,1.1c-0.5,0-0.5,0-0.5,0V27.2z M77.6,27.2c0,0,0,0,0.5,0v0.5
	v0.5L77.6,27.2z M78.1,27.2c0-0.5,1.1-0.5,1.1-0.5l0.5,0.5c0,0-1.1,0.5-1.6,0.5V27.2z M79.2,26.7L79.2,26.7h0.5H79.2z M79.2,26.7
	c1.1-1.6,1.1-3.2,1.6-4.7h0.5c0,2.1-0.5,3.7-1.6,5.3L79.2,26.7z M80.8,22c0-1.6,0.5-2.6,1.1-4.2l0.5,0.5c-0.5,1.6-0.5,2.6-1.1,3.7
	H80.8z M81.8,17.7L81.8,17.7l0.5,0.5l0,0L81.8,17.7z M81.8,17.7c0,0,0,0,0-0.5l1.1,0.5c-0.5,0-0.5,0.5-0.5,0.5L81.8,17.7z
	 M81.8,17.2L81.8,17.2h0.5H81.8z M81.8,17.2c0.5-1.1,0.5-2.1,1.1-2.6h0.5c0,1.1-0.5,2.1-0.5,3.2L81.8,17.2z M83.4,14.6L83.4,14.6
	L83.4,14.6L83.4,14.6z M82.9,14.6c0-1.6,0-2.6,0-3.7h1.1c0,1.1,0,2.6-0.5,3.7H82.9z M82.9,10.9c0-1.1,0-2.6-0.5-3.7h1.1
	c0,1.1,0.5,2.1,0.5,3.7H82.9z M82.3,7.2L82.3,7.2h0.5H82.3z M82.3,7.2L82.3,7.2h1.1l0,0H82.3z M83.4,7.2L83.4,7.2h-0.5H83.4z
	 M82.3,7.2L82.3,7.2l1.1-0.5v0.5H82.3z M82.3,7.2V6.7l0.5-0.5c0,0.5,0.5,0.5,0.5,0.5L82.3,7.2z M82.9,6.1L82.9,6.1v0.5V6.1z
	 M82.3,6.7c-0.5,0-0.5-0.5-1.1-0.5l0.5-1.1c0.5,0.5,1.1,0.5,1.1,1.1L82.3,6.7z M81.3,6.1L81.3,6.1V5.6V6.1z M81.3,6.1
	c-0.5-0.5-1.1-0.5-1.1-0.5V4.6c0.5,0,1.1,0.5,1.6,0.5L81.3,6.1z M80.2,5.6c-0.5,0-1.1,0-1.6,0V5.1c0.5-0.5,1.1-0.5,1.6-0.5V5.6z
	 M78.6,5.6L78.6,5.6L78.6,5.6L78.6,5.6z"/>
<path class="st3" d="M73.4,7.7c-2.6,0.5-3.7,1.1-3.7,3.2c0,0.5,0.5,5.8,0,4.7c0.5,2.1,0.5,4.2,1.6,5.8c1.1,1.1,2.6,1.6,3.2,0
	c0-1.1-0.5-2.6-0.5-4.2c1.1-3.7,1.1-4.7,5.8-5.8c1.6-0.5,1.1-2.6,0-3.2C78.1,7.7,75.5,7.2,73.4,7.7L73.4,7.7z"/>
<path class="st7" d="M45.5,20.9c-6.3-1.6-6.3,0-6.8,1.1c-0.5,0.5-0.5,2.1-0.5,3.2c0,2.6-0.5,5.3-1.6,7.9c0,1.6,0.5,1.6,1.1,2.1
	c0.5,1.1,1.6,1.6,2.6,2.6c0.5,0.5,1.1,1.6,1.6,2.1c1.6,1.1,3.2,1.6,4.7,2.6c1.1,1.6,2.1,1.6,3.7,2.1c1.1,0,2.1,0.5,2.6,0
	c2.6-2.1,1.6-6.3,0.5-9c-1.6-3.7-0.5-8.4-2.1-12.1c-0.5-1.1-2.6-1.6-5.3-2.6H45.5z"/>
<path class="st6" d="M45.5,21.4c-5.3-1.1-5.8-0.5-5.8,0h-1.1c0.5-1.1,1.1-2.1,7.4-1.1L45.5,21.4z M39.7,21.4
	C39.1,22,39.1,22,39.1,22l-0.5-0.5l0,0H39.7z M39.1,22L39.1,22h-0.5H39.1z M39.1,22L39.1,22l-0.5-0.5l0,0L39.1,22z M38.6,21.4
	L38.6,21.4V22V21.4z M39.1,22c-0.5,0.5-0.5,1.6-0.5,2.1h-0.5c0-0.5,0-2.1,0.5-2.6L39.1,22z M38.6,24.1c0,0.5,0,0.5,0,1.1h-0.5
	c0-0.5,0-0.5,0-1.1H38.6z M38.1,25.1L38.1,25.1L38.1,25.1L38.1,25.1z M38.6,25.1c0,2.1-0.5,3.7-1.1,5.8H37c0.5-2.1,0.5-3.7,1.1-5.8
	H38.6z M37.6,30.9c0,0.5,0,1.6-0.5,2.1h-0.5c0-1.1,0-1.6,0.5-2.1H37.6z M37,33L37,33h-0.5H37z M37,33c0,1.1,0,1.1,0.5,1.6L37,35.1
	c-0.5-0.5-1.1-1.1-0.5-2.1H37z M37.6,34.6c0,0,0,0,0,0.5H37l0,0L37.6,34.6z M37.6,35.1L37.6,35.1L37.6,35.1L37.6,35.1z M37.6,35.1
	c0.5,0.5,1.1,0.5,1.6,1.1l-0.5,1.1c-0.5-0.5-1.1-1.1-1.6-2.1H37.6z M39.1,36.2c0.5,0.5,0.5,0.5,1.1,1.1l-0.5,0.5
	c-0.5,0-0.5-0.5-1.1-0.5L39.1,36.2z M40.2,37.2L40.2,37.2L40.2,37.2v0.5V37.2z M40.2,37.2L40.2,37.2l-0.5,0.5l0,0L40.2,37.2z
	 M39.7,37.8L39.7,37.8h0.5H39.7z M40.2,37.2c0.5,0,0.5,0.5,0.5,0.5l-0.5,0.5l-0.5-0.5L40.2,37.2z M40.7,37.8
	c0.5,0.5,1.1,1.1,1.6,1.6l-0.5,0.5c-0.5,0-1.1-1.1-1.6-1.6L40.7,37.8z M41.8,39.9L41.8,39.9L41.8,39.9L41.8,39.9z M42.3,39.4
	c0.5,0.5,1.1,0.5,1.1,1.1v0.5c-0.5,0-1.1-0.5-1.6-1.1L42.3,39.4z M43.4,40.4c1.1,0.5,2.1,1.1,3.2,2.1L46,43
	c-1.1-1.1-2.1-1.6-2.6-2.1V40.4z M46.5,42.5c0.5,0.5,1.1,0.5,2.1,1.1l-0.5,1.1c-0.5-0.5-1.6-1.1-2.1-1.6L46.5,42.5z M48.6,43.6
	c0.5,0,1.1,0.5,1.6,0.5v1.1c-0.5-0.5-1.6-0.5-2.1-0.5L48.6,43.6z M50.2,45.2L50.2,45.2v-0.5V45.2z M50.2,44.1L50.2,44.1v1.1l0,0
	V44.1z M50.2,44.1L50.2,44.1v0.5V44.1z M50.2,44.1c0.5,0,0.5,0,0.5,0v1.1h-0.5V44.1z M50.7,44.1c0.5,0,1.6,0.5,2.1,0l0.5,1.1
	c-1.1,0.5-2.1,0-2.6,0V44.1z M53.4,45.2L53.4,45.2l-0.5-0.5L53.4,45.2z M52.8,44.1L52.8,44.1l0.5,1.1l0,0L52.8,44.1z M52.8,44.1
	L52.8,44.1v0.5V44.1z M52.8,44.1l0.5-0.5l1.1,0.5c-0.5,0-0.5,0.5-1.1,1.1L52.8,44.1z M53.4,43.6L53.4,43.6h0.5H53.4z M53.4,43.6
	c0-0.5,0.5-1.1,0.5-1.1h1.1c-0.5,0.5-0.5,1.1-0.5,1.6L53.4,43.6z M53.9,42.5c0.5-2.1-0.5-4.7-1.1-6.9l0.5-0.5
	c1.1,2.1,2.1,5.3,1.6,7.4H53.9z M52.8,35.7L52.8,35.7h0.5H52.8z M52.8,35.7L52.8,35.7l0.5-0.5l0,0L52.8,35.7z M52.8,35.7L52.8,35.7
	h0.5H52.8z M52.8,35.7c-0.5-1.6-1.1-3.7-1.1-5.8h1.1c0,2.1,0,3.7,0.5,5.3L52.8,35.7z M51.8,29.9c0-2.1,0-4.2-0.5-5.8l0.5-0.5
	c1.1,2.1,1.1,4.2,1.1,6.3H51.8z M51.8,23.5L51.8,23.5h-0.5H51.8z M51.3,24.1C50.7,23,49.2,22.5,47,22l0.5-1.1
	c2.1,0.5,3.7,1.6,4.2,2.6L51.3,24.1z M47,22c-0.5,0-0.5-0.5-1.1-0.5v-1.1c0.5,0.5,1.1,0.5,1.6,0.5L47,22z M46,20.4L46,20.4L46,20.4
	v0.5V20.4z M46,21.4h-0.5v-1.1H46V21.4z M45.5,21.4L45.5,21.4L45.5,21.4v-0.5V21.4z"/>
<path class="st11" d="M52.3,35.1c0.5,1.6,1.1,3.2,1.1,4.7c0.5,0.5,0.5,1.1,0,2.1c0,0.5-0.5,1.6-1.1,1.6c0-0.5-0.5-0.5-0.5-0.5
	c0.5-1.1,1.1-2.1,1.1-3.2C52.8,38.3,52.8,36.7,52.3,35.1L52.3,35.1z"/>
<path class="st13" d="M50.2,35.1c-1.6,2.1-1.6-3.2-1.6-4.2c-0.5-2.6-2.1-4.7-4.2-3.7c-1.6,0.5-1.1,3.2-1.1,4.7
	c-0.5,0.5-0.5,1.6-0.5,2.1c0,0.5,0.5,1.1,0,1.6c-0.5,1.1-1.1-1.1-1.6-2.1c-1.1-1.1-0.5-3.2,0-4.7c0-0.5,0-2.1,0.5-2.6
	c0.5-2.1,2.1-1.6,3.7-1.1c1.1,0.5,2.1,0.5,3.2,1.6c0.5,0,1.1,1.1,1.1,1.6C49.7,30.4,50.2,33,50.2,35.1L50.2,35.1z"/>
<path class="st7" d="M60.7,9.8c-2.6,0.5-4.7,1.1-6.3,2.6c-1.6,0.5-2.6,1.6-3.2,3.2c-0.5,1.1-1.1,1.6-1.6,2.6
	c-1.1,3.2,1.6,3.7,3.2,5.3c0,0.5,0,0.5,0.5,1.1c1.6,2.1,2.1,4.2,3.7,6.3c1.6,2.6,4.2,2.6,6.8,2.1c1.1-0.5,1.6-2.6,2.1-4.2
	c0.5-2.1,0-4.2-0.5-6.3c-0.5-3.2,0-5.8-0.5-9c0-1.1-0.5-2.1-1.1-2.6C62.8,9.8,61.8,9.8,60.7,9.8L60.7,9.8z"/>
<path class="st6" d="M60.7,10.4c-1.1,0-2.1,0.5-3.2,1.1l-0.5-1.1c1.1-0.5,2.1-0.5,3.2-1.1L60.7,10.4z M57.6,11.4
	c-1.1,0-2.1,0.5-3.2,1.1l-0.5-0.5c1.1-0.5,2.1-1.1,3.2-1.6L57.6,11.4z M53.9,11.9L53.9,11.9l0.5,0.5L53.9,11.9z M54.4,12.5
	c-0.5,0.5-1.1,1.1-1.6,1.6l-0.5-0.5c0.5-0.5,1.1-1.1,1.6-1.6L54.4,12.5z M52.8,14c-0.5,0.5-1.1,1.1-1.6,1.6h-0.5
	c0.5-1.1,1.1-1.6,1.6-2.1L52.8,14z M51.3,15.6L51.3,15.6L51.3,15.6L51.3,15.6z M51.3,15.6L51.3,15.6h-0.5l0,0H51.3z M51.3,15.6
	c0,0.5,0,0.5,0,0.5l-1.1-0.5c0.5,0,0.5,0,0.5,0H51.3z M51.3,16.2v0.5l-1.1-0.5c0,0,0,0,0-0.5L51.3,16.2z M51.3,16.7
	c-0.5,0.5-1.1,1.1-1.1,2.1l-1.1-0.5c0.5-0.5,0.5-1.6,1.1-2.1L51.3,16.7z M50.2,18.8L50.2,18.8l-0.5-0.5L50.2,18.8z M50.2,18.8
	c-0.5,1.6,0.5,2.6,1.6,3.7L51.3,23c-1.1-1.1-2.6-2.1-2.1-4.7L50.2,18.8z M51.8,22.5c0.5,0,1.1,0.5,1.1,1.1l-0.5,0.5
	c0-0.5-0.5-0.5-1.1-1.1L51.8,22.5z M52.3,24.1L52.3,24.1l0.5-0.5L52.3,24.1z M52.8,23.5L52.8,23.5l-0.5,0.5l0,0L52.8,23.5z
	 M52.8,23.5L52.8,23.5L52.8,23.5L52.8,23.5z M52.8,23.5c0.5,0,0.5,0,0.5,0.5h-1.1l0,0L52.8,23.5z M53.4,24.1L53.4,24.1l-0.5,1.1
	c0-0.5,0-0.5-0.5-1.1H53.4z M53.4,24.1L53.4,24.1v0.5V24.1z M53.4,24.1c1.1,1.6,2.1,3.2,3.2,4.7l-1.1,0.5c-0.5-1.6-1.6-3.2-2.6-4.2
	L53.4,24.1z M56.5,28.8c0,0.5,0.5,1.1,1.1,1.6l-1.1,0.5c-0.5-0.5-0.5-1.1-1.1-1.6L56.5,28.8z M57.6,30.4L57.6,30.4l-0.5,0.5
	L57.6,30.4z M57.6,30.4L57.6,30.4l-1.1,0.5l0,0L57.6,30.4z M56.5,30.9L56.5,30.9h0.5H56.5z M57.6,30.4c0,0.5,0,1.1,0.5,1.1L57.6,32
	c-0.5,0-0.5-0.5-1.1-1.1L57.6,30.4z M58.1,31.4c0,0.5,0.5,0.5,0.5,0.5L58.1,33c0-0.5-0.5-0.5-0.5-1.1L58.1,31.4z M58.6,32
	c1.6,1.1,3.7,1.1,5.3,0.5V33c-1.6,1.1-3.7,1.1-5.8,0L58.6,32z M63.9,32.5L63.9,32.5V33V32.5z M63.9,32.5c0-0.5,0.5-1.1,1.1-1.6
	l0.5,0.5c0,1.1-1.1,1.6-1.6,1.6V32.5z M65,30.9c0-0.5,0.5-1.1,0.5-2.1l1.1,0.5c0,0.5-0.5,1.6-1.1,2.1L65,30.9z M65.5,28.8L65.5,28.8
	H66H65.5z M65.5,28.8c0.5-1.1,0.5-2.6,0-4.2h1.1c0,1.6,0.5,3.2,0,4.7L65.5,28.8z M65.5,24.6c0-0.5-0.5-1.6-0.5-2.1H66
	c0,0.5,0,1.1,0.5,2.1H65.5z M66,22.5L66,22.5h-0.5H66z M65,22.5c0-1.6,0-2.6,0-4.2H66c0,1.6,0,2.6,0,4.2H65z M65,18.3
	c0-1.6,0-3.2-0.5-4.7h1.1c0.5,1.6,0.5,3.2,0.5,4.7H65z M64.4,13.5L64.4,13.5H65H64.4z M64.4,13.5L64.4,13.5h1.1l0,0H64.4z
	 M65.5,13.5L65.5,13.5H65H65.5z M64.4,13.5c0,0,0,0,0-0.5h1.1v0.5H64.4z M64.4,13L64.4,13l1.1-0.5V13H64.4z M65.5,12.5L65.5,12.5H65
	H65.5z M64.4,13c0-1.1-0.5-1.6-1.1-2.1l1.1-0.5c0.5,0.5,0.5,1.6,1.1,2.1L64.4,13z M63.4,10.9c-0.5-0.5-1.6-0.5-2.6-0.5V9.3
	c1.1,0,2.6,0,3.7,1.1L63.4,10.9z M60.7,10.4L60.7,10.4l-0.5-1.1h0.5V10.4z M60.2,9.3L60.2,9.3l0.5,0.5L60.2,9.3z"/>
<path class="st11" d="M65,24.1c0.5,1.6,0.5,3.2,0.5,4.7c-0.5,1.6-1.1,3.2-2.6,2.6c1.6-1.6,1.6-3.2,2.1-4.7c0-0.5,0-1.1,0-2.1v0.5
	V24.1z"/>
<path class="st13" d="M60.2,13c-0.5,0.5-1.6,0.5-2.6,0.5c-1.1,0.5-2.1,1.6-3.2,2.6c-0.5,0.5-1.1,1.6-1.1,2.6
	c0.5,0.5,1.1,1.6,1.6,2.1c1.1,2.1,1.1,4.7,2.1,6.3c0,0,0.5,0,0.5-0.5c0.5-2.6-0.5-4.2-0.5-6.3c0-0.5,0-1.1,0-1.1
	c0.5,0,0.5-0.5,1.1-0.5c0.5-0.5,1.1-1.1,1.6-0.5c1.1,1.1,1.6,2.6,2.1,3.7c0,0.5,0.5,0.5,1.1,0c0,0,0.5-1.1,0-1.6
	c-0.5-2.1,0-4.2-1.1-6.3C61.8,13.5,61.3,12.5,60.2,13L60.2,13z"/>
<path class="st7" d="M7,115.3c0-3.7,2.1-5.8,2.1-6.3c0-2.6-0.5-6.9,1.1-9c1.1-1.6,2.1-2.6,3.7-2.6c4.2-0.5,7.9,0,11.6,1.6
	c1.6,0,3.2,1.1,4.7,1.6c1.1,0.5,2.1,2.1,2.6,3.7c0.5,1.6,0.5,4.2,0,5.8c-3.2,4.2,2.6,5.3-2.1,12.1c-4.2,5.8-9.5,2.1-14.2,0
	c-1.6-1.1-3.2,0-5.3-0.5C9.7,121.6,6.5,118.4,7,115.3L7,115.3z"/>
<path class="st6" d="M6.5,115.3L6.5,115.3h1.1l0,0H6.5z M6.5,115.3L6.5,115.3H7H6.5z M6.5,115.3c0-2.6,1.1-4.7,1.6-5.8l1.1,0.5
	c-1.1,1.1-1.6,2.6-1.6,5.3H6.5z M8.1,109.5c0-0.5,0.5-0.5,0.5-0.5h0.5c0,0,0,0.5,0,1.1L8.1,109.5z M8.6,108.9L8.6,108.9h0.5l0,0H8.6
	z M8.6,108.9c0-1.6,0-3.2,0-4.7h0.5c0,1.6,0,3.2,0,4.7H8.6z M8.6,104.2c0-1.6,0-3.2,1.1-4.2l0.5,0.5c-0.5,0.5-0.5,2.1-1.1,3.7H8.6z
	 M10.2,100.5L10.2,100.5V100V100.5z M9.7,100L9.7,100l0.5,0.5l0,0L9.7,100z M9.7,100c0-0.5,0-0.5,0.5-0.5l0.5,0.5c0,0,0,0.5-0.5,0.5
	L9.7,100z M10.2,99.5c0-0.5,0-0.5,0.5-1.1l0.5,1.1c0,0-0.5,0-0.5,0.5L10.2,99.5z M10.7,98.4c1.1-1.1,2.1-1.6,3.2-1.6v0.5
	c-0.5,0.5-1.6,1.1-2.6,2.1L10.7,98.4z M13.9,97.3L13.9,97.3L13.9,97.3L13.9,97.3z M13.9,96.8c2.1-0.5,4.2-0.5,5.8,0v1.1
	c-1.6-0.5-3.7-0.5-5.8-0.5V96.8z M19.7,96.8c2.1,0.5,4.2,1.1,6.3,1.6l-0.5,0.5c-2.1-0.5-3.7-1.1-5.8-1.1V96.8z M25.5,98.9L25.5,98.9
	L25.5,98.9L25.5,98.9z M26,98.4c0.5,0,1.6,0.5,2.1,1.1l-0.5,0.5c-0.5-0.5-1.1-0.5-2.1-1.1L26,98.4z M28.1,99.5
	c1.1,0,1.6,0.5,2.6,0.5l-0.5,1.1c-1.1,0-1.6-0.5-2.6-1.1L28.1,99.5z M30.7,100L30.7,100l-0.5,0.5L30.7,100z M30.7,100L30.7,100
	l-0.5,1.1l0,0L30.7,100z M30.7,100L30.7,100l-0.5,0.5L30.7,100z M30.7,100c1.1,0.5,1.6,2.1,2.1,3.7l-0.5,0.5
	c-0.5-1.6-1.1-2.6-2.1-3.2L30.7,100z M32.8,103.7h0.5l-1.1,0.5l0,0L32.8,103.7z M33.4,103.7L33.4,103.7l-0.5,0.5L33.4,103.7z
	 M33.4,103.7L33.4,103.7l-1.1,0.5l0,0L33.4,103.7z M33.4,103.7c0,0.5,0,0.5,0,1.1h-1.1v-0.5L33.4,103.7z M33.4,104.7
	c0,0.5,0,0.5,0.5,1.1h-1.1c0-0.5,0-0.5-0.5-1.1H33.4z M33.9,105.8c0,1.6,0,3.2-1.1,4.2l-0.5-0.5c0.5-1.1,0.5-2.1,0.5-3.7H33.9z
	 M32.8,110L32.8,110L32.8,110L32.8,110z M32.8,110c-1.1,1.6-0.5,3.2,0,4.2l-1.1,0.5c-0.5-1.6-1.1-3.2,0.5-5.3L32.8,110z M32.8,114.2
	c0.5,2.1,1.1,4.2-2.1,8.4l-0.5-0.5c2.6-3.7,2.1-5.8,1.6-7.4L32.8,114.2z M30.2,122.1L30.2,122.1h0.5H30.2z M30.7,122.7
	c-3.7,4.7-8.4,2.6-12.6,0.5l0.5-0.5c3.7,1.6,8.4,3.7,11.6-0.5L30.7,122.7z M18.1,123.2c-0.5,0-1.1-0.5-1.6-0.5l0.5-1.1
	c0.5,0.5,1.1,0.5,1.6,1.1L18.1,123.2z M17,121.6L17,121.6l-0.5,0.5L17,121.6z M16.5,122.7c-1.1-0.5-2.1-0.5-3.2-0.5v-1.1
	c1.1,0,2.1,0,3.7,0.5L16.5,122.7z M13.3,122.1c-0.5,0-1.1,0-2.1,0v-1.1c1.1,0.5,1.6,0.5,2.1,0V122.1z M11.2,121.1L11.2,121.1v0.5
	V121.1z M11.2,122.1L11.2,122.1v-1.1l0,0V122.1z M11.2,122.1L11.2,122.1v-0.5V122.1z M11.2,122.1c0,0-0.5,0-1.1,0l0.5-1.1
	c0.5,0,0.5,0,0.5,0V122.1z M10.2,122.1c0-0.5-0.5-0.5-0.5-1.1l0.5-0.5l0.5,0.5L10.2,122.1z M9.7,121.1c-1.6-1.1-3.2-3.2-3.2-5.8h1.1
	c0,2.1,1.1,4.2,2.6,5.3L9.7,121.1z M7.5,115.3L7.5,115.3L7.5,115.3H7H7.5z M6.5,115.3L6.5,115.3h1.1l0,0H6.5z M6.5,115.3L6.5,115.3
	L6.5,115.3H7H6.5z"/>
<path class="st8" d="M17.6,98.4c-2.6,1.6-3.7,5.3-4.2,9v1.1c0,3.2,0.5,6.9,2.6,8.4c3.2,2.1,10,1.6,12.6-3.7c0-0.5-0.5-1.6-0.5-2.6
	c-0.5-2.6,1.1-5.3,0-7.4c-0.5-1.1-1.1-2.1-2.1-2.1c-1.6-1.1-3.7-1.6-5.3-2.1C19.1,98.4,18.1,97.9,17.6,98.4
	C17.6,98.4,17,98.9,17.6,98.4L17.6,98.4z"/>
<path class="st9" d="M17.6,98.9L17.6,98.9L17,98.4l0,0L17.6,98.9z M17,98.4L17,98.4l0.5,0.5L17,98.4z M17.6,98.9
	c0,0.5-0.5,0.5-1.1,1.1L16,98.9c0.5,0,1.1-0.5,1.1-0.5L17.6,98.9z M16.5,100L16.5,100v-0.5V100z M16.5,100l-0.5,0.5l-0.5-0.5
	c0,0,0.5-0.5,0.5-1.1L16.5,100z M16,100.5c-1.1,2.1-2.1,4.2-2.1,6.9h-0.5c0-2.6,0.5-5.3,2.1-7.4L16,100.5z M13.3,107.4L13.3,107.4
	L13.3,107.4L13.3,107.4z M13.9,107.4L13.9,107.4h-0.5l0,0H13.9z M13.9,107.4L13.9,107.4h-0.5H13.9z M13.9,107.4v0.5h-1.1
	c0.5-0.5,0.5-0.5,0.5-0.5H13.9z M13.9,107.9c0,0.5,0,0.5,0,0.5h-1.1v-0.5H13.9z M13.9,108.4L13.9,108.4h-0.5H13.9z M13.9,108.4
	L13.9,108.4h-1.1l0,0H13.9z M12.8,108.4L12.8,108.4h0.5H12.8z M13.9,108.4c0,0.5,0,1.1,0,1.6h-1.1c0-0.5,0-1.1,0-1.6H13.9z
	 M13.9,110c0,0.5,0,1.1,0,1.1l-1.1,0.5c0-0.5,0-1.1,0-1.6H13.9z M13.9,111.1c0,2.1,1.1,4.2,2.1,5.3l-0.5,1.1
	c-1.6-1.6-2.1-3.7-2.6-5.8L13.9,111.1z M16,116.3L16,116.3v0.5V116.3z M16,116.3c0.5,0.5,0.5,0.5,1.1,0.5l-0.5,1.1
	c0-0.5-0.5-0.5-1.1-0.5L16,116.3z M17,116.9c1.6,1.1,3.7,1.1,5.3,0.5l0.5,1.1c-2.1,0.5-4.7,0-6.3-0.5L17,116.9z M22.3,117.4
	c2.1-0.5,3.7-1.6,5.3-3.2l0.5,0.5c-1.6,2.1-3.7,3.2-5.3,3.7L22.3,117.4z M27.6,114.2c0-0.5,0-0.5,0.5-1.1l0.5,0.5
	c0,0.5-0.5,0.5-0.5,1.1L27.6,114.2z M28.1,113.2L28.1,113.2h0.5H28.1z M28.1,113.2c0,0,0-0.5-0.5-1.1l1.1-0.5c0,0.5,0.5,1.6,0,2.1
	L28.1,113.2z M27.6,112.1c0-0.5,0-1.1,0-1.6h0.5c0,0.5,0.5,1.1,0.5,1.1L27.6,112.1z M27.6,110.5L27.6,110.5h0.5H27.6z M27.6,110.5
	c0-1.1,0-2.1,0-2.6h1.1c0,1.1-0.5,2.1-0.5,2.6H27.6z M27.6,107.9c0.5-1.6,1.1-3.2,0-4.7l1.1-0.5c0.5,2.1,0.5,3.7,0,5.3H27.6z
	 M28.6,102.6L28.6,102.6l-0.5,0.5L28.6,102.6z M27.6,103.1L27.6,103.1l1.1-0.5l0,0L27.6,103.1z M27.6,103.1L27.6,103.1h0.5H27.6z
	 M27.6,103.1v-0.5l1.1-0.5c0,0.5,0,0.5,0,0.5L27.6,103.1z M27.6,102.6L27.6,102.6l0.5-0.5c0,0,0,0,0.5,0L27.6,102.6z M27.6,102.6
	L27.6,102.6v-0.5V102.6z M27.6,102.6c-0.5-0.5-1.1-1.1-1.6-1.6l0.5-0.5c0.5,0,1.1,0.5,1.6,1.6L27.6,102.6z M26.5,100.5L26.5,100.5
	L26,101L26.5,100.5z M26,101L26,101v-0.5h0.5L26,101z M26,101c-2.1-0.5-3.7-1.6-5.3-1.6v-1.1c2.1,0.5,3.7,1.1,5.3,2.1V101z
	 M20.7,99.5L20.7,99.5v-0.5V99.5z M20.7,99.5L20.7,99.5v-1.1l0,0V99.5z M20.7,99.5c-0.5-0.5-0.5-0.5-1.1-0.5l0.5-0.5h0.5V99.5z
	 M19.7,98.9c-0.5,0-1.6-0.5-2.1,0L17,98.4c1.1-1.1,2.1-0.5,3.2,0L19.7,98.9z M17.6,98.9l-2.1,2.1l1.6-2.6h0.5V98.9z M17,98.4
	c0,0,0.5,0.5,0,0.5l0.5-0.5c0.5,0,0.5,0,0.5,0.5L17,98.4z M17,98.9L17,98.9l0.5-0.5L17,98.9z M17,98.9h1.1L17,98.4
	c0,0,0.5-0.5,0.5,0L17,98.9z M17,98.4L17,98.4h0.5H17z M18.1,98.9c-0.5,0-0.5-0.5-0.5-0.5L17,98.9v-0.5L18.1,98.9z M17.6,98.4
	c0.5,0-0.5,0-0.5,0l0.5,0.5c0,0.5-0.5,0.5-0.5,0L17.6,98.4z M17,98.4l3.7-2.1l-3.2,2.6v-0.5H17z"/>
<path class="st7" d="M13.3,96.3c0,0-1.1-1.1-1.1-2.1c0-0.5-0.5-0.5-0.5-1.1c-0.5-0.5-0.5-1.1-0.5-1.6c-0.5-0.5-0.5-1.1-0.5-1.6
	c0-2.1-1.1-4.7,0-6.3c1.1-3.2,1.1-6.9,3.2-9c2.6-3.2,6.3-0.5,9.5,0.5c1.6,0,2.6,0,4.2,0c2.1-0.5,3.7,1.1,5.3,3.2
	c0.5,0.5,0,2.1,0.5,3.2c0,1.6-0.5,2.6-1.1,4.2c-0.5,2.6,1.1,5.3,0,7.9c-1.6,2.1-3.2,3.7-5.3,4.2C22.3,98.4,18.1,96.3,13.3,96.3
	L13.3,96.3z"/>
<path class="st6" d="M13.3,96.8L13.3,96.8v-1.1l0,0V96.8z M13.3,96.8L13.3,96.8v-0.5V96.8z M13.3,96.8c0,0,0,0,0-0.5l0.5-0.5h-0.5
	V96.8z M13.3,96.3c-0.5,0-0.5,0-0.5,0l0.5-0.5c0,0,0,0,0.5,0L13.3,96.3z M12.8,96.3c-0.5-0.5-1.1-1.1-1.1-2.1h1.1
	c0,0.5,0.5,1.1,0.5,1.6L12.8,96.3z M11.8,94.2L11.8,94.2L11.8,94.2h0.5H11.8z M11.8,94.2v-0.5l0.5-0.5c0.5,0.5,0.5,0.5,0.5,1.1H11.8
	z M11.8,93.7c-0.5,0-0.5-0.5-0.5-0.5l1.1-0.5c0,0.5,0,0.5,0,0.5L11.8,93.7z M11.2,93.1L11.2,93.1L11.2,93.1h0.5H11.2z M11.2,93.1
	v-0.5l0.5-0.5c0,0.5,0,0.5,0.5,0.5L11.2,93.1z M11.2,92.6c-0.5-0.5-0.5-0.5-0.5-1.1h1.1v0.5L11.2,92.6z M11.2,91h0.5v0.5h-0.5V91z
	 M10.7,91.5L10.7,91.5l0.5-0.5l0,0L10.7,91.5z M10.7,91.5L10.7,91.5h0.5H10.7z M10.7,91.5c0-0.5-0.5-0.5-0.5-1.1l1.1-0.5
	c0,0.5,0,1.1,0,1.1L10.7,91.5z M10.2,90.5L10.2,90.5l0.5-0.5L10.2,90.5z M10.2,90.5c0-0.5,0-0.5,0-0.5l1.1-0.5c0,0.5,0,0.5,0,0.5
	L10.2,90.5z M10.2,90L10.2,90L10.2,90h0.5H10.2z M10.2,90L10.2,90h1.1l0,0H10.2z M10.2,90c0-1.1,0-2.1-0.5-3.2l1.1-0.5
	c0,1.1,0.5,2.1,0.5,3.7H10.2z M9.7,86.8c0-1.6,0-2.6,0.5-3.7l0.5,0.5c0,1.1,0,1.6,0,2.6L9.7,86.8z M10.7,83.6L10.7,83.6L10.7,83.6
	L10.7,83.6z M10.2,83.1L10.2,83.1l0.5,0.5l0,0L10.2,83.1z M10.2,83.1c0.5-1.1,0.5-2.1,1.1-3.2h1.1c-0.5,1.6-1.1,2.6-1.6,3.7
	L10.2,83.1z M11.2,79.9c0.5-2.1,1.1-4.2,2.1-5.3l0.5,0.5c-1.1,1.1-1.1,3.2-1.6,4.7H11.2z M13.9,75.2L13.9,75.2v-0.5V75.2z
	 M13.3,74.7c2.1-2.6,4.7-1.6,7.9-0.5l-0.5,0.5c-2.6-1.1-4.7-1.6-6.8,0.5L13.3,74.7z M21.2,74.1c0.5,0,1.6,0.5,2.6,0.5l-0.5,1.1
	c-0.5-0.5-1.6-0.5-2.6-1.1L21.2,74.1z M23.3,75.7L23.3,75.7v-0.5V75.7z M23.9,74.7c0.5,0,1.1,0,1.6,0v1.1c-0.5,0-1.6,0-2.1,0
	L23.9,74.7z M25.5,74.7c0.5,0,1.1,0,2.1,0v1.1c-0.5,0-1.6,0-2.1,0V74.7z M27.6,74.7L27.6,74.7v0.5V74.7z M27.6,74.7
	c1.1,0,2.1,0,3.2,0.5l-0.5,1.1c-1.1-0.5-1.6-1.1-2.6-0.5V74.7z M30.7,75.2c0.5,1.1,1.6,1.6,2.1,2.6l-0.5,0.5
	c-0.5-0.5-1.6-1.6-2.1-2.1L30.7,75.2z M32.3,78.4L32.3,78.4h0.5H32.3z M32.8,77.8c0.5,0.5,0.5,1.6,0.5,2.1h-0.5c0-0.5,0-1.1-0.5-1.6
	L32.8,77.8z M33.4,79.9c0,0.5,0,1.1,0.5,1.1l-1.1,0.5c0-0.5,0-1.1,0-1.6H33.4z M33.9,81L33.9,81l-0.5,0.5L33.9,81z M33.9,81
	c0,1.6-0.5,2.6-0.5,3.7h-1.1c0.5-1.1,0.5-2.1,0.5-3.2L33.9,81z M33.4,84.7c-0.5,0.5-0.5,1.1-0.5,1.6l-1.1-0.5c0-0.5,0.5-1.1,0.5-1.1
	H33.4z M32.8,86.3L32.8,86.3l-0.5-0.5L32.8,86.3z M32.8,86.3c-0.5,1.1,0,2.1,0,3.2h-1.1c0-1.1,0-2.1,0-3.7L32.8,86.3z M32.8,89.4
	c0,1.6,0.5,2.6-0.5,4.2l-0.5-0.5c0.5-1.1,0.5-2.6,0-3.7H32.8z M31.8,93.1L31.8,93.1l0.5,0.5L31.8,93.1z M32.3,93.7L32.3,93.7
	l-0.5-0.5l0,0L32.3,93.7z M32.3,93.7L32.3,93.7h-0.5H32.3z M32.3,93.7c0,0.5,0,0.5-0.5,1.1l-0.5-0.5c0,0,0-0.5,0.5-1.1L32.3,93.7z
	 M31.8,94.7c0,0.5-0.5,0.5-0.5,1.1l-0.5-0.5c0-0.5,0-0.5,0.5-1.1L31.8,94.7z M31.2,95.8c-1.1,1.1-2.6,2.1-4.2,2.6v-1.1
	c1.1,0,2.6-1.1,3.7-2.1L31.2,95.8z M27,97.3L27,97.3v0.5V97.3z M27,98.4c-2.6,0-5.3-0.5-7.9-1.1l0.5-0.5c2.1,0.5,4.7,1.1,7.4,0.5
	V98.4z M19.1,97.3c-1.6-0.5-3.7-0.5-5.8-0.5v-1.1c2.1,0,4.2,0.5,6.3,1.1L19.1,97.3z"/>
<path class="st8" d="M19.1,75.2c-1.1,1.6-2.6,2.6-3.7,4.2c-0.5,0.5-0.5,2.1-0.5,3.2c0,3.2-0.5,5.8,0,9c0,1.1,1.1,1.6,1.1,1.6
	c0,0.5,0.5,0.5,1.1,1.1c3.2,0,6.3,1.6,10,0c2.1-0.5,2.1-3.7,2.1-6.3c0-1.1,1.6-2.1,1.6-3.7c-0.5-1.6-0.5-3.2-0.5-4.7
	c-0.5-1.6-0.5-3.7-2.1-3.2c-2.1,0.5-4.2,0-6.8-0.5C20.7,75.7,20.2,74.7,19.1,75.2L19.1,75.2z"/>
<path class="st9" d="M19.7,75.7c-0.5,0.5-1.1,1.1-1.6,1.6l-0.5-0.5c0.5-0.5,1.1-1.1,1.6-1.6L19.7,75.7z M18.1,77.3
	c-0.5,0.5-1.6,1.6-2.1,2.1l-0.5-0.5c0.5-0.5,1.1-1.6,2.1-2.1L18.1,77.3z M16,79.4L16,79.4h-0.5H16z M16,79.4L16,79.4l-0.5-0.5l0,0
	L16,79.4z M16,79.4L16,79.4h-0.5H16z M16,79.4v0.5l-1.1-0.5c0,0,0.5,0,0.5-0.5L16,79.4z M16,79.9c0,0,0,0,0,0.5l-1.1-0.5v-0.5
	L16,79.9z M14.9,79.9L14.9,79.9h0.5H14.9z M16,80.5c-0.5,0.5-0.5,1.6-0.5,2.1h-1.1c0-0.5,0-1.6,0.5-2.6L16,80.5z M14.4,82.6
	L14.4,82.6h0.5H14.4z M15.4,82.6c0,1.1,0,2.1,0,3.2h-1.1c0-1.1,0-2.1,0-3.2H15.4z M15.4,85.7c-0.5,2.1-0.5,3.7,0,5.8h-1.1
	c0-2.1,0-3.7,0-5.8H15.4z M14.4,91.5L14.4,91.5h0.5H14.4z M15.4,91.5L15.4,91.5h-1.1l0,0H15.4z M14.4,91.5L14.4,91.5h0.5H14.4z
	 M15.4,91.5c0,0.5,0.5,1.1,0.5,1.1l-0.5,0.5c-0.5,0-1.1-0.5-1.1-1.6H15.4z M16,92.6l0.5,0.5l-1.1,0.5c0,0,0,0,0-0.5L16,92.6z
	 M15.4,93.7L15.4,93.7L15.4,93.7l0.5-0.5L15.4,93.7z M16.5,93.1L16.5,93.1l-1.1,0.5l0,0L16.5,93.1z M15.4,93.7L15.4,93.7l0.5-0.5
	L15.4,93.7z M16.5,93.1L16.5,93.1L16,94.2c0-0.5,0-0.5-0.5-0.5L16.5,93.1z M16.5,93.1c0.5,0,0.5,0.5,0.5,0.5l-0.5,0.5H16L16.5,93.1z
	 M17,94.7L17,94.7l-0.5-0.5H17V94.7z M17,93.7c1.1,0,2.6,0,3.7,0.5l-0.5,0.5c-1.1,0-2.1,0-3.2,0V93.7z M20.7,94.2
	c2.1,0,4.2,0.5,6.3,0l0.5,0.5c-2.6,1.1-4.7,0.5-7.4,0L20.7,94.2z M27,94.2L27,94.2L27,94.2L27,94.2z M27,94.2
	c0.5-0.5,1.1-1.6,1.6-2.6l0.5,0.5c0,1.1-1.1,2.1-2.1,2.6V94.2z M28.6,91.5c0-1.1,0-2.1,0-3.7h1.1c0,1.6,0,3.2-0.5,4.2L28.6,91.5z
	 M28.6,87.9L28.6,87.9h0.5H28.6z M28.6,87.9c0-0.5,0.5-1.1,1.1-1.6l0.5,0.5c0,0.5-0.5,1.1-0.5,1.1H28.6z M29.7,86.3
	c0-0.5,0.5-1.6,0.5-2.1h0.5c0.5,1.1,0,1.6-0.5,2.6L29.7,86.3z M30.2,84.2L30.2,84.2h0.5H30.2z M30.2,84.2c0-0.5-0.5-1.1-0.5-1.6h1.1
	c0,0.5,0,1.1,0,1.6H30.2z M29.7,82.6c0-1.1,0-2.1,0-3.2h0.5c0.5,1.1,0.5,2.1,0.5,3.2H29.7z M30.2,79.4L30.2,79.4L30.2,79.4
	L30.2,79.4z M29.7,79.4c0-0.5-0.5-1.6-0.5-2.1l1.1-0.5c0,1.1,0,1.6,0,2.6H29.7z M29.1,77.3c0-0.5-0.5-0.5-0.5-0.5l-0.5-1.1
	c1.1,0,1.6,0.5,2.1,1.1L29.1,77.3z M28.6,76.8c-2.6,0.5-4.7,0-6.8-0.5v-1.1c2.1,0.5,4.2,1.1,6.3,0.5L28.6,76.8z M21.8,76.3h-0.5
	l0.5-1.1l0,0V76.3z M21.8,75.2L21.8,75.2l-0.5,0.5L21.8,75.2z M21.2,76.3L21.2,76.3l0.5-1.1l0,0L21.2,76.3z M21.2,76.3L21.2,76.3
	v-0.5V76.3z M21.2,76.3l-0.5-0.5l0.5-0.5c0,0,0,0,0.5,0L21.2,76.3z M20.7,75.7c-0.5,0-1.1-0.5-1.1,0l-0.5-0.5c0.5-1.1,1.6-0.5,2.1,0
	L20.7,75.7z M19.1,75.2L19.1,75.2L19.1,75.2L19.1,75.2z"/>
<path class="st7" d="M20.7,73.6c-1.6,0-3.2-1.1-4.2-2.6c-1.1-1.6-0.5-2.1-0.5-4.2c0-1.1-0.5-1.1,0-3.2c0-0.5,1.6-3.2,2.1-3.2
	c1.6-2.1,2.1-3.7,4.2-5.8c1.6-1.1,3.2-1.6,4.7-1.1c0.5,0,1.6,0.5,2.1,1.1c0.5,0,1.6,0.5,2.6,0.5c1.1,0.5,2.1,0.5,3.7,0.5
	c0.5,0,1.6-0.5,2.1,0c1.1,0.5,1.1,1.1,2.1,2.1c1.1,1.1,1.1,3.2,1.6,4.7c0,1.1,0,3.2-1.1,4.2c-1.1,2.1-2.1,2.1-3.2,3.7
	c-1.6,1.1-2.1,3.7-3.7,4.7c-0.5,0.5-1.1,1.1-1.6,0.5c-0.5,0-1.6-0.5-2.6-0.5c-1.1-0.5-2.1-0.5-3.2,0C24.4,75.2,22.3,74.1,20.7,73.6
	L20.7,73.6z"/>
<path class="st6" d="M20.7,74.1L20.7,74.1v-1.1l0,0V74.1z M20.7,74.1c-0.5,0-0.5,0-1.1,0l0.5-1.1h0.5V74.1z M19.7,74.1
	c0,0,0,0-0.5-0.5l0.5-0.5h0.5L19.7,74.1z M19.1,73.6c-1.1-0.5-2.1-1.1-3.2-2.1L17,71c0.5,1.1,1.6,1.6,2.6,2.1L19.1,73.6z M16,71.5
	V71h0.5L16,71.5z M16,71c-0.5-1.1-0.5-1.6-0.5-2.6h1.1c0,1.1,0,1.6,0.5,2.6H16z M15.4,68.4c0,0,0-0.5,0-1.6h1.1c0,1.1,0,1.6,0,1.6
	H15.4z M16.5,66.8L16.5,66.8H16H16.5z M15.4,67.3c0-0.5,0-0.5,0-1.1h1.1v0.5L15.4,67.3z M16.5,66.2L16.5,66.2H16H16.5z M15.4,66.2
	c0-0.5,0-1.1,0-2.6l1.1,0.5c-0.5,1.1,0,1.6,0,2.1H15.4z M15.4,63.6L15.4,63.6H16H15.4z M15.4,63.6L15.4,63.6l1.1,0.5l0,0L15.4,63.6z
	 M15.4,63.6L15.4,63.6H16H15.4z M15.4,63.6c0,0,0,0,0.5-0.5l0.5,0.5c0,0,0,0,0,0.5L15.4,63.6z M16,63.1c0,0,0,0,0-0.5l1.1,0.5
	c-0.5,0-0.5,0.5-0.5,0.5L16,63.1z M16,62.6c0.5-1.1,1.6-2.6,1.6-2.6l0.5,0.5c0,0.5-1.1,1.6-1.1,2.6L16,62.6z M18.1,60.4L18.1,60.4
	L18.1,60.4L18.1,60.4L18.1,60.4z M17.6,59.9c1.1-1.1,1.6-1.6,2.1-2.1l0.5,0.5c-0.5,0.5-1.1,1.1-2.1,2.1L17.6,59.9z M19.7,57.8
	L19.7,57.8L19.7,57.8L19.7,57.8z M19.7,57.8c0.5-1.1,1.1-2.1,2.6-3.2l0.5,0.5c-1.1,1.1-2.1,2.1-2.6,3.2L19.7,57.8z M22.3,54.6
	L22.3,54.6L22.3,54.6L22.3,54.6z M22.3,54.6L22.3,54.6l0.5,0.5l0,0L22.3,54.6z M22.8,55.2L22.8,55.2l-0.5-0.5L22.8,55.2z M22.3,54.6
	c0-0.5,0.5-0.5,0.5-0.5l0.5,0.5l-0.5,0.5L22.3,54.6z M22.8,54.1c0-0.5,0.5-0.5,0.5-0.5l0.5,0.5c0,0.5-0.5,0.5-0.5,0.5L22.8,54.1z
	 M23.3,53.6c1.1-0.5,2.6-1.1,3.7-0.5v0.5c-1.1,0-2.1,0-3.2,0.5L23.3,53.6z M27,53.1L27,53.1v0.5V53.1z M27,53.1c0.5,0,1.1,0,1.1,0.5
	v0.5c-0.5,0-1.1,0-1.1-0.5V53.1z M28.1,53.6c0.5,0,1.1,0,1.1,0.5l-0.5,0.5l-0.5-0.5V53.6z M28.6,54.6L28.6,54.6h0.5H28.6z
	 M29.1,54.1L29.1,54.1l-0.5,0.5l0,0L29.1,54.1z M28.6,54.6L28.6,54.6h0.5H28.6z M29.1,54.1c0.5,0,1.1,0.5,1.6,0.5v1.1
	c-0.5-0.5-1.6-0.5-2.1-1.1L29.1,54.1z M30.7,54.6c0.5,0,0.5,0,1.1,0l-0.5,1.1h-0.5V54.6z M31.2,55.7L31.2,55.7l0.5-0.5L31.2,55.7z
	 M31.8,54.6c1.1,0.5,1.6,0.5,2.1,0.5l0.5,1.1c-1.1,0-2.1,0-3.2-0.5L31.8,54.6z M33.9,55.2c0.5,0,1.1,0,1.6,0v0.5
	c-0.5,0-1.1,0.5-1.1,0.5L33.9,55.2z M35.5,55.2H36v0.5h-0.5V55.2z M36,55.2c0.5,0,1.1,0,1.6,0L37,56.2c0-0.5-0.5-0.5-1.1-0.5V55.2z
	 M37.6,55.2c1.1,0.5,1.6,1.1,2.1,1.6l-1.1,0.5c-0.5-0.5-0.5-1.1-1.6-1.1L37.6,55.2z M39.7,56.8c0,0,0,0.5,0.5,0.5l-1.1,0.5
	c0,0,0-0.5-0.5-0.5L39.7,56.8z M40.2,57.3L40.2,57.3l-0.5,0.5L40.2,57.3z M40.2,57.3L40.2,57.3l-1.1,0.5l0,0L40.2,57.3z M40.2,57.3
	L40.2,57.3l-0.5,0.5L40.2,57.3z M40.2,57.3c0.5,1.1,0.5,2.1,1.1,3.7h-1.1c0-1.1-0.5-2.6-1.1-3.2L40.2,57.3z M41.3,61
	c0,0.5,0,1.1,0,1.6h-0.5c-0.5-0.5-0.5-1.1-0.5-1.6H41.3z M41.3,62.6L41.3,62.6L41.3,62.6L41.3,62.6z M41.3,62.6L41.3,62.6h-0.5l0,0
	H41.3z M41.3,62.6L41.3,62.6L41.3,62.6L41.3,62.6z M41.3,62.6c0.5,0,0.5,0,0.5,0.5h-1.1v-0.5H41.3z M41.8,63.1v0.5h-1.1v-0.5H41.8z
	 M41.8,63.6c0,1.1-0.5,2.6-1.1,3.2l-0.5-0.5c0.5-0.5,0.5-1.6,0.5-2.6H41.8z M40.7,66.8L40.7,66.8h-0.5H40.7z M40.7,66.8
	c-1.1,2.1-2.1,2.6-3.2,3.7L37,69.4c1.1-0.5,2.1-1.6,3.2-3.2L40.7,66.8z M37.6,70.5c0,0,0,0-0.5,0l-0.5-0.5c0,0,0.5,0,0.5-0.5
	L37.6,70.5z M37,70.5L37,70.5L37,70.5L37,70.5z M37,70.5c-0.5,1.1-1.1,1.6-1.6,2.6l-0.5-0.5c0.5-1.1,1.1-2.1,1.6-2.6L37,70.5z
	 M35.5,73.1c-0.5,1.1-1.1,2.1-2.1,2.6l-0.5-0.5c1.1-0.5,1.6-1.6,2.1-2.6L35.5,73.1z M32.8,75.2L32.8,75.2h0.5H32.8z M33.4,75.7
	L33.4,75.7l-0.5-0.5l0,0L33.4,75.7z M33.4,75.7L33.4,75.7v-0.5V75.7z M33.4,75.7L33.4,75.7l-0.5-0.5l0,0L33.4,75.7z M33.4,75.7
	c0,0.5,0,0.5,0,0.5l-0.5-1.1l0,0L33.4,75.7z M33.4,76.3c-0.5,0-1.1,0.5-1.6,0v-0.5c0.5,0,0.5-0.5,1.1-0.5L33.4,76.3z M31.8,76.3
	L31.8,76.3v-0.5V76.3z M31.8,76.3L31.8,76.3v-0.5l0,0V76.3z M31.8,76.3L31.8,76.3v-0.5V76.3z M31.8,76.3c-0.5,0-0.5,0-1.1,0l0.5-1.1
	l0.5,0.5V76.3z M30.7,76.3c-0.5-0.5-1.1-0.5-1.6-1.1v-0.5c0.5,0,1.6,0.5,2.1,0.5L30.7,76.3z M29.1,75.2L29.1,75.2L29.1,75.2
	L29.1,75.2z M29.1,75.2c-0.5,0-1.1,0-1.6,0v-1.1c0.5,0,1.1,0,1.6,0.5V75.2z M27.6,74.1L27.6,74.1v0.5V74.1z M27.6,75.2
	c-0.5,0-1.1,0-1.6,0v-0.5c0.5-0.5,1.1-0.5,1.6-0.5V75.2z M26,75.2L26,75.2L26,75.2L26,75.2z M26,75.2L26,75.2v-0.5l0,0V75.2z
	 M26,75.2c-1.1,0.5-2.6,0-3.7-0.5v-1.1c1.1,0.5,2.6,1.1,3.7,1.1V75.2z M22.3,74.7L22.3,74.7v-0.5V74.7z M22.3,74.7
	c-0.5,0-1.1-0.5-1.6-0.5v-1.1c0.5,0.5,1.1,0.5,1.6,0.5V74.7z M20.7,74.1L20.7,74.1v-0.5V74.1z"/>
<path class="st8" d="M27.6,55.2c-1.1-0.5-2.6-0.5-3.2,1.6c-0.5,2.1-1.6,3.7-3.2,4.2c-2.1,1.1-1.6,4.2-2.1,6.9
	c1.6,0.5,2.6,1.1,4.2,1.6c0.5,0.5,1.6,0,2.6,0.5c1.1,0.5,1.6,1.1,3.7,1.6c0.5-2.1,2.6-3.2,3.7-4.2c1.1-0.5,1.6-1.6,2.6-3.2
	c0,0,0-0.5,0.5-1.1c1.1-1.6,1.1-3.7,0.5-5.3c0-0.5-0.5-0.5-0.5-0.5C33.4,56.2,30.7,56.8,27.6,55.2L27.6,55.2z"/>
<path class="st9" d="M27.6,55.7H27v-1.1c0.5,0,0.5,0,1.1,0.5L27.6,55.7z M27,55.7c-0.5,0-1.1,0-1.1,0l-0.5-1.1c0.5,0,1.1,0,1.6,0
	V55.7z M26,55.7c-0.5,0-0.5,0-1.1,0.5l-0.5-0.5c0-0.5,0.5-1.1,1.1-1.1L26,55.7z M24.9,56.2v0.5h-1.1c0-0.5,0-0.5,0.5-1.1L24.9,56.2z
	 M24.9,56.8L24.9,56.8h-0.5H24.9z M24.9,56.8c-0.5,1.1-1.1,2.1-1.6,3.2l-0.5-1.1c0.5-0.5,1.1-1.1,1.1-2.1H24.9z M23.3,59.9
	c-0.5,0.5-1.1,1.1-2.1,1.6l-0.5-1.1c1.1,0,1.6-0.5,2.1-1.6L23.3,59.9z M21.2,61.5L21.2,61.5V61V61.5z M21.2,61.5
	c-1.1,0.5-1.1,2.6-1.6,4.7l-0.5-0.5c0-2.1,0-4.2,1.6-5.3L21.2,61.5z M19.7,66.2c0,0.5,0,1.1,0,1.6h-1.1c0.5-0.5,0.5-1.1,0.5-2.1
	L19.7,66.2z M19.1,68.4l-0.5-0.5l0,0h0.5V68.4z M19.7,67.3c0.5,0.5,1.1,0.5,1.6,1.1v0.5c-1.1,0-1.6-0.5-2.1-0.5L19.7,67.3z
	 M21.2,68.4c1.1,0,1.6,0,2.1,0.5l-0.5,1.1c-0.5-0.5-1.1-0.5-1.6-1.1V68.4z M22.8,69.9L22.8,69.9l0.5-0.5L22.8,69.9z M23.3,68.9
	c0.5,0,1.1,0,1.6,0.5v0.5c-0.5,0-1.6,0-2.1,0L23.3,68.9z M24.9,69.4c0.5,0,0.5,0,1.1,0v1.1c-0.5,0-1.1-0.5-1.1-0.5V69.4z M26,69.4
	L26,69.4v0.5V69.4z M26,69.4c0.5,0,1.1,0.5,1.6,0.5L27,71c-0.5-0.5-0.5-0.5-1.1-0.5V69.4z M27.6,69.9c0.5,0.5,1.1,0.5,2.1,1.1v0.5
	c-1.6,0-2.1-0.5-2.6-0.5L27.6,69.9z M30.2,71.5L29.7,72v-0.5l0,0H30.2z M29.1,71c0.5-2.1,2.6-3.2,4.2-3.7l0.5,0.5
	c-1.6,1.1-3.2,1.6-3.7,3.7L29.1,71z M33.9,67.8L33.9,67.8l-0.5-0.5L33.9,67.8z M33.4,67.3L33.4,67.3l0.5,0.5l0,0L33.4,67.3z
	 M33.9,67.8L33.9,67.8l-0.5-0.5L33.9,67.8z M33.4,67.3L33.4,67.3l0.5,0.5l0,0L33.4,67.3z M33.9,67.8L33.9,67.8l-0.5-0.5L33.9,67.8z
	 M33.4,67.3c0.5-0.5,1.6-1.6,2.1-2.6H36c-0.5,1.6-1.1,2.6-2.1,3.2L33.4,67.3z M35.5,64.7v-0.5l0.5,0.5l0,0H35.5z M36,64.7L36,64.7
	v-0.5V64.7z M35.5,64.1c0-0.5,0-0.5,0.5-1.1l0.5,0.5c0,0.5,0,0.5-0.5,1.1L35.5,64.1z M36,63.1L36,63.1l1.1,0.5h-0.5L36,63.1z
	 M37,63.6L37,63.6l-0.5-0.5L37,63.6z M36,63.1c0.5-1.1,0.5-1.6,0.5-2.6h1.1c0,1.1,0,2.1-0.5,3.2L36,63.1z M36.5,60.4
	c0.5-1.1,0-1.6,0-2.6h1.1c0,0.5,0,1.6,0,2.6H36.5z M36.5,57.8L36.5,57.8H37H36.5z M36.5,57.8L36.5,57.8v-1.1c0.5,0,1.1,0.5,1.1,1.1
	H36.5z M36.5,57.8H36l0.5-1.1l0,0V57.8z M36.5,56.8L36.5,56.8L36.5,56.8v0.5V56.8z M36,57.8c-1.1-0.5-2.1-0.5-3.7-1.1l0.5-0.5
	c1.1,0,2.1,0,3.7,0.5L36,57.8z M32.3,56.8c-1.6,0-3.2,0-4.7-1.1l0.5-0.5c1.6,0.5,3.2,0.5,4.7,1.1L32.3,56.8z M27.6,55.7L27.6,55.7
	v-0.5V55.7z"/>
<path class="st7" d="M41.8,55.7c1.1-0.5,1.1-1.1,1.6-1.6c1.1-3.2,2.1-4.7,2.6-7.4c0.5-2.1,0-4.2-1.1-5.8c-1.1-1.1-3.2-0.5-4.2-2.1
	c-0.5-0.5-1.1-1.1-1.1-1.6c-1.1-0.5-2.1-1.1-3.2-1.1c-1.6,0-2.1,0.5-3.7,1.1c-0.5,0-1.1,0-1.6,0c-0.5,0.5-1.1,1.1-1.6,1.1
	c-1.6,1.1-3.2,3.2-3.2,3.7c-1.1,1.6-1.1,2.6-1.1,3.7c0,2.6,0.5,5.3,1.1,7.4c0.5,0,1.1,0,1.1,0c3.2,2.1,4.7,2.6,8.4,2.1
	c1.1,0,2.1,0.5,2.6,1.1c0.5,0,0.5,0,1.1,0c0.5,0,0.5,0,1.6-0.5H41.8z"/>
<path class="st6" d="M41.3,55.2c0.5,0,1.1-0.5,1.1-0.5l0.5,0.5c0,0-0.5,0.5-1.1,1.1L41.3,55.2z M42.3,54.6c0-0.5,0.5-0.5,0.5-1.1
	l1.1,0.5c-0.5,0.5-0.5,0.5-1.1,1.1L42.3,54.6z M43.9,54.1L43.9,54.1h-0.5H43.9z M42.8,53.6c0.5-1.1,1.1-2.6,1.6-3.7l1.1,0.5
	c-0.5,1.1-1.1,2.1-1.6,3.7L42.8,53.6z M44.4,49.9c0.5-1.1,0.5-2.1,1.1-3.7l1.1,0.5c-0.5,1.1-1.1,2.6-1.1,3.7L44.4,49.9z M45.5,46.2
	L45.5,46.2l0.5,0.5L45.5,46.2z M45.5,46.2L45.5,46.2l1.1,0.5l0,0L45.5,46.2z M46.5,46.7L46.5,46.7H46H46.5z M45.5,46.2v-0.5h1.1
	c0,0.5,0,0.5,0,1.1L45.5,46.2z M45.5,45.7c0-0.5,0-0.5,0-0.5h1.1v0.5H45.5z M45.5,45.2c0-1.6,0-2.6-1.1-3.7l0.5-0.5
	c1.1,1.1,1.6,2.6,1.6,4.2H45.5z M44.4,41.5c-0.5-0.5-1.1-0.5-1.6-1.1l0.5-0.5c0.5,0,1.1,0.5,1.6,1.1L44.4,41.5z M42.8,40.4
	c-1.1,0-2.1-0.5-2.6-1.6l1.1-0.5c0.5,1.1,1.1,1.1,2.1,1.6L42.8,40.4z M40.2,38.8L40.2,38.8h0.5H40.2z M40.2,38.8
	c0-0.5-0.5-0.5-1.1-1.1l1.1-0.5c0,0.5,0.5,0.5,1.1,1.1L40.2,38.8z M39.1,37.8L39.1,37.8l0.5-0.5c0.5,0,0.5,0,0.5,0L39.1,37.8z
	 M39.7,37.2L39.7,37.2L39.7,37.2L39.7,37.2z M39.1,37.8L39.1,37.8l0.5-0.5l0,0L39.1,37.8z M39.1,37.8c0,0,0,0-0.5-0.5l1.1-0.5
	c0,0,0,0,0,0.5L39.1,37.8z M38.6,37.2L38.6,37.2l0.5-1.1c0,0.5,0,0.5,0.5,0.5L38.6,37.2z M38.6,37.2c-1.1-0.5-1.6-0.5-2.1-0.5v-1.1
	c0.5,0,1.6,0,2.6,0.5L38.6,37.2z M36.5,36.7c-1.1,0-1.6,0-2.1,0.5l-0.5-1.1c1.1-0.5,1.6-0.5,2.6-0.5V36.7z M34.4,37.2
	c-0.5,0-0.5,0-1.6,0.5v-1.1c0.5,0,1.1-0.5,1.1-0.5L34.4,37.2z M32.8,37.8L32.8,37.8v-0.5V37.8z M32.8,37.8h-0.5v-1.1h0.5V37.8z
	 M32.3,37.8c-0.5,0-0.5,0-1.1,0v-1.1c0.5,0,0.5,0,1.1,0V37.8z M31.2,36.7L31.2,36.7v0.5V36.7z M31.8,37.8L31.8,37.8l-0.5-1.1l0,0
	L31.8,37.8z M31.8,37.8c-0.5,0-1.1,0.5-1.6,0.5l-0.5-0.5c0.5-0.5,1.1-0.5,1.6-1.1L31.8,37.8z M30.2,38.3L30.2,38.3L30.2,38.3
	L30.2,38.3z M30.2,38.3c0,0.5-0.5,0.5-0.5,0.5l-0.5-0.5c0.5-0.5,0.5-0.5,0.5-0.5L30.2,38.3z M29.7,38.8L29.7,38.8l-0.5-0.5l0,0
	L29.7,38.8z M29.1,38.3L29.1,38.3h0.5H29.1z M29.7,38.8l-0.5,0.5l-0.5-1.1h0.5L29.7,38.8z M29.1,39.4c0,0-0.5,0-0.5,0.5l-0.5-0.5
	c0-0.5,0-0.5,0.5-1.1L29.1,39.4z M28.6,39.9C27.6,40.9,27,42,27,42H26c0-0.5,1.1-1.6,2.1-2.6L28.6,39.9z M27,42L27,42v0.5L26.5,42
	H27z M27,42.5C26,43.6,26,44.1,26,45.2h-1.1c0-1.1,0.5-2.1,1.1-3.2L27,42.5z M26,45.2L26,45.2h-0.5H26z M26,45.2c0,0.5,0,0.5,0,0.5
	h-1.1c0,0,0,0,0-0.5H26z M26,45.7L26,45.7h-0.5H26z M26,45.7L26,45.7h-1.1l0,0H26z M26,45.7c0,0.5,0,1.1,0,1.1h-1.1c0,0,0-0.5,0-1.1
	H26z M26,46.7c0,0.5,0,1.1,0,1.1h-1.1c0,0,0-0.5,0-1.1H26z M24.9,47.8L24.9,47.8h0.5H24.9z M26,47.8c0,2.1,0.5,3.7,1.1,5.3h-0.5
	c-1.1-1.6-1.6-3.2-1.6-5.3H26z M26.5,53.1L26.5,53.1L26.5,53.1L26.5,53.1z M27,53.1v-0.5v1.1c0,0-0.5,0-0.5-0.5H27z M27,52.5
	c0.5,0,0.5,0,1.1,0.5l-0.5,0.5H27V52.5z M27.6,53.6L27.6,53.6v-0.5V53.6z M28.1,53.1c1.1,0.5,2.1,1.6,3.7,1.6l-0.5,1.1
	c-1.1-0.5-2.6-1.1-3.7-2.1L28.1,53.1z M31.8,54.6c1.1,0.5,2.6,0.5,4.2,0v1.1c-1.6,0-3.2,0-4.7,0L31.8,54.6z M36,55.7L36,55.7v-0.5
	V55.7z M36,54.6L36,54.6v1.1l0,0V54.6z M36,54.6L36,54.6v0.5V54.6z M36,54.6h0.5v1.1c0,0,0,0-0.5,0V54.6z M36.5,54.6H37v1.1
	c-0.5,0-0.5,0-0.5,0V54.6z M37,54.6c0.5,0.5,1.6,0.5,2.1,1.1l-0.5,1.1c-0.5-0.5-1.1-1.1-1.6-1.1V54.6z M38.6,56.8L38.6,56.8v-0.5
	V56.8z M39.1,55.7L39.1,55.7v1.1h-0.5L39.1,55.7z M39.1,55.7c0.5,0,0.5,0,0.5,0v1.1c0,0,0,0-0.5,0V55.7z M39.7,55.7L39.7,55.7
	L39.7,55.7v0.5V55.7z M39.7,55.7c0.5,0,0.5,0,0.5,0l0.5,1.1c-0.5,0-0.5,0-1.1,0V55.7z M40.2,55.7c0,0,0,0,0.5-0.5l0.5,1.1
	c-0.5,0-0.5,0-0.5,0.5L40.2,55.7z M41.3,56.2L41.3,56.2L41.3,56.2v-0.5V56.2z M40.7,55.7l0.5-0.5l0.5,1.1h-0.5L40.7,55.7z
	 M41.8,56.2L41.8,56.2v-0.5V56.2z"/>
<path class="st8" d="M37,37.8c-1.6,0.5-2.6,0.5-4.2,1.1c-1.6,0.5-2.6,1.6-3.7,2.6c-1.1,1.6-1.6,3.7-1.1,5.3c0.5,1.6,0.5,3.2,1.6,4.7
	c0.5,1.1,1.1,1.6,1.6,2.1c1.6,1.1,3.2,0.5,4.7,0.5c1.6,0,0,0,2.6-1.6c2.6-2.1,5.8-4.7,5.8-9.5c-1.1-1.6-2.6-2.6-4.2-3.7
	c-1.6-1.6-3.2-1.6-4.7-1.1c0-0.5,0,0,0,0L37,37.8z"/>
<path class="st9" d="M37,38.3c-0.5,0.5-1.1,0.5-2.1,0.5v-1.1c0.5,0,1.6,0,2.1-0.5V38.3z M34.9,38.8c-0.5,0-1.1,0-2.1,0v-0.5
	c0.5-0.5,1.6-0.5,2.1-0.5V38.8z M32.8,38.3L32.8,38.3v0.5V38.3z M32.8,38.8c-0.5,0.5-1.1,1.1-1.6,1.6l-0.5-1.1
	c0.5-0.5,1.1-0.5,2.1-1.1V38.8z M31.2,40.4c-0.5,0.5-1.1,1.1-1.6,1.6l-1.1-0.5c1.1-0.5,1.6-1.6,2.1-2.1L31.2,40.4z M29.7,42L29.7,42
	l-0.5-0.5L29.7,42z M29.7,42L29.7,42l-1.1-0.5l0,0L29.7,42z M28.6,41.5L28.6,41.5h0.5H28.6z M29.7,42c-0.5,0-0.5,0.5-0.5,0.5
	L28.1,42c0.5,0,0.5-0.5,0.5-0.5L29.7,42z M28.1,42L28.1,42l0.5,0.5L28.1,42z M29.1,42.5L28.6,43l-0.5-0.5V42L29.1,42.5z M28.6,43
	c-0.5,1.1-0.5,2.6,0,3.7l-1.1,0.5c-0.5-1.6,0-3.2,0.5-4.7L28.6,43z M28.6,46.7L28.6,46.7h-0.5H28.6z M28.6,46.7
	c0,0.5,0.5,1.6,0.5,2.1h-1.1c0-0.5,0-1.1-0.5-1.6L28.6,46.7z M29.1,48.8c0,1.1,0.5,1.6,1.1,2.6L29.1,52c-0.5-1.1-0.5-2.1-1.1-3.2
	H29.1z M30.2,51.5c0,0.5,0,0.5,0.5,1.1l-1.1,0.5c0-0.5-0.5-0.5-0.5-1.1L30.2,51.5z M30.7,52.5l0.5,0.5l-0.5,0.5
	c-0.5,0-0.5-0.5-1.1-0.5L30.7,52.5z M30.7,53.6L30.7,53.6h0.5H30.7z M31.2,53.1c1.1,0.5,2.6,0.5,3.7,0.5v1.1c-1.6,0-2.6,0-4.2-1.1
	L31.2,53.1z M34.9,53.6c0.5,0,1.1,0,1.1,0v1.1c0,0-0.5,0-1.1,0V53.6z M36,53.6c0.5,0,0.5,0.5,0.5,0l1.1,0.5C37,54.6,37,54.6,36,54.6
	V53.6z M36.5,53.6c0,0,0-0.5,1.6-1.6l0.5,0.5c-1.1,1.1-1.1,1.1-1.1,1.6L36.5,53.6z M38.6,52.5L38.6,52.5L38.6,52.5L38.6,52.5z
	 M38.1,52c1.6-1.1,3.2-2.1,4.2-3.7l0.5,0.5c-1.1,1.6-2.6,3.2-4.2,3.7L38.1,52z M42.3,48.3c1.1-1.1,1.6-3.2,1.6-5.3h1.1
	c0,2.6-1.1,4.2-2.1,5.8L42.3,48.3z M44.9,43L44.9,43L44.9,43h-0.5H44.9z M44.4,43.6c-1.1-1.1-2.1-2.1-2.6-2.6l0.5-0.5
	c1.1,0.5,2.1,1.1,2.6,2.6L44.4,43.6z M41.8,40.9c-1.1-0.5-1.6-1.1-2.1-1.6l0.5-0.5c0.5,0.5,1.1,1.1,2.1,1.6L41.8,40.9z M39.7,39.4
	L39.7,39.4l0.5-0.5l0,0L39.7,39.4z M40.2,38.8L40.2,38.8v0.5V38.8z M39.7,39.4c0,0-0.5,0-0.5-0.5l0.5-0.5l0.5,0.5L39.7,39.4z
	 M39.1,38.8h-0.5l0.5-1.1l0.5,0.5L39.1,38.8z M38.6,38.8c-1.1-0.5-1.6-0.5-2.6-0.5l-0.5-0.5c1.1-0.5,2.6-0.5,3.7,0L38.6,38.8z
	 M36,38.3l-0.5,0.5v-0.5l0,0H36z M35.5,38.3c0-1.1,0.5,0,0.5,0l-0.5-0.5c0-0.5,0.5-0.5,0.5,0.5H35.5z M36,38.3
	c-0.5,0.5-1.1,1.1-1.1,0H36c0,1.1-1.1,0-0.5-0.5L36,38.3z"/>
<path class="st14" d="M18.6,100.5c1.1,1.1,1.6,1.6,2.1,3.2c1.1-1.6,3.2-1.1,4.7,0.5"/>
<path class="st14" d="M20.2,105.3c0.5-1.1-1.6,2.6-2.1,3.2c-1.1,0-2.1-1.1-3.2-1.1"/>
<path class="st14" d="M17.6,108.4c3.7,1.1,1.6,1.6,3.7,6.3c-1.1,0-1.6,0.5-2.6,1.1"/>
<path class="st14" d="M20.7,114.7c1.1,0.5,2.1,0.5,2.1,2.1"/>
<path class="st14" d="M20.7,112.6c1.1-2.1,2.6-1.6,4.2-2.1"/>
<path class="st14" d="M22.3,78.9c1.6,2.1,0,4.7-1.1,6.3c0,0.5,0,1.1,0,1.6c1.1,2.6,1.1,4.7,1.1,7.4"/>
<path class="st14" d="M22.8,82.6c1.1-1.6,2.1-1.1,3.7-1.6"/>
<path class="st14" d="M27.6,86.8c0-0.5-0.5-1.1-0.5-1.1c-2.1,0.5-3.7,0.5-5.3,1.1"/>
<path class="st14" d="M21.2,84.7c0-2.1-1.6-2.1-3.2-3.2"/>
<path class="st14" d="M22.3,91c0,0.5-0.5,1.1-0.5,1.6h-0.5"/>
<path class="st14" d="M28.1,57.3c0.5,0.5,1.1,1.6,0.5,2.6c-1.1,2.6-2.6,4.7-4.2,6.9c-1.1,0.5-2.1,0.5-3.2,1.1"/>
<path class="st14" d="M24.9,65.7c0.5,0,0.5-0.5,1.1-0.5c0.5,0.5,0.5,0.5,0.5,1.1c0.5,1.1,0.5,1.6,1.6,2.1"/>
<path class="st14" d="M26,65.2C26,65.2,26,65.7,26,65.2c0-0.5,0-0.5,0-0.5"/>
<path class="st14" d="M22.3,62c1.1,0.5,1.6,0,2.6,0.5c0.5,0.5,1.6,0.5,2.6-0.5"/>
<path class="st14" d="M28.6,59.9c0.5-0.5,1.6-1.1,2.6-1.1c1.1,0,1.6-0.5,2.6-0.5"/>
<path class="st14" d="M36.5,39.9c0.5,1.1,0.5,2.6,1.1,3.7c0,1.6-1.1,3.7-2.6,4.2c-1.1,0.5-2.1-0.5-3.7-1.1"/>
<path class="st14" d="M34.9,47.8c0,0,0.5-0.5,1.1-0.5c0,0.5-0.5,1.6,0,2.1c0,0.5,0,1.1,0,1.1l0,0"/>
<path class="st14" d="M37,45.2c0.5,0,0.5-1.1,1.1-1.1c0.5-0.5,1.1,0,1.6,0c0.5,0,1.6,0.5,2.6,0"/>
<path class="st14" d="M156.1,124.8c-1.1,1.1-2.1,3.2-3.7,3.2c-0.5,0.5-1.1-1.6-2.1-1.6c2.1,0,2.6,2.6,2.1,4.7
	c1.6-0.5,2.6-0.5,4.2-1.1c-2.1,0-4.2,2.1-6.8,1.6c1.1,0,2.1-0.5,2.6,0c0.5,1.6,0,3.7-1.1,4.7"/>
<path class="st14" d="M150.8,100.5c-0.5,1.6-1.6,2.1-1.6,3.2c-1.6-1.1-3.7-0.5-4.7,1.1"/>
<path class="st14" d="M149.8,105.3c-0.5-0.5,1.6,3.2,2.1,3.2c0.5,0.5,1.6-0.5,2.6-0.5"/>
<path class="st14" d="M152.4,108.4c-4.2,1.6-2.1,1.6-3.7,6.9c0.5,0,1.6,0.5,2.1,0.5"/>
<path class="st14" d="M148.7,115.3c-0.5,0.5-1.6,0.5-2.1,1.6"/>
<path class="st14" d="M149.2,112.6c-1.6-2.1-3.2-1.1-4.7-2.1"/>
<path class="st14" d="M147.1,79.4c-1.6,2.1,0,4.2,1.1,6.3c0.5,0,0.5,1.1,0,1.6c-0.5,2.1-1.1,4.7-0.5,6.9"/>
<path class="st14" d="M146.6,83.1c-1.1-1.6-2.1-1.1-3.7-1.6"/>
<path class="st14" d="M141.9,86.8c0,0,0.5-1.1,0.5-0.5c2.1,0.5,3.7,0.5,5.3,1.1"/>
<path class="st14" d="M148.2,85.2c0-2.1,2.1-2.6,3.2-3.2"/>
<path class="st14" d="M147.1,91c0,1.1,0.5,1.6,1.1,2.1l0,0"/>
<path class="st14" d="M141.3,57.8c-0.5,0.5-1.1,1.6-0.5,2.1c1.1,3.2,2.6,5.3,4.2,6.9c1.1,1.1,2.1,1.1,3.2,1.1"/>
<path class="st14" d="M144.5,66.2c-0.5-0.5-0.5-0.5-1.1-0.5c-0.5,0-0.5,0.5-0.5,1.1c-0.5,1.1-1.1,1.6-1.6,2.1"/>
<path class="st14" d="M143.4,65.7L143.4,65.7c0-0.5,0-0.5,0-0.5"/>
<path class="st14" d="M147.1,62.6c-1.1,0.5-1.6,0-2.6,0.5c-0.5,0.5-1.6,0-2.6-0.5"/>
<path class="st14" d="M140.8,60.4c-0.5-0.5-1.6-1.1-2.6-1.1c-1.1-0.5-1.6-0.5-2.6-0.5"/>
<path class="st14" d="M132.9,40.4c-0.5,1.1-1.1,2.6-1.1,3.7c0,1.6,1.1,3.7,2.6,4.2c1.1,0,2.1-1.1,3.2-1.1"/>
<path class="st14" d="M134.5,48.3c-0.5,0-1.1-0.5-1.1-0.5c0,0.5,0,1.6,0,2.1c0,0.5,0,0.5,0,1.1l0,0"/>
<path class="st14" d="M131.8,45.7c0-0.5,0-1.1-0.5-1.1c-0.5-0.5-1.1,0-1.6,0c-1.1,0-1.6,0.5-2.6,0"/>
<path class="st7" d="M7.5,122.1C2.3,129,6,137.9,6.5,139c0,2.1,13.7,11.1,19.5,3.2c2.6-3.7,6.8-6.9,4.7-15.8
	c-0.5-2.6-2.1-5.3-3.7-5.3C20.7,120,12.8,114.2,7.5,122.1L7.5,122.1z"/>
<path class="st6" d="M8.1,122.1L8.1,122.1L7,121.6l0,0L8.1,122.1z M7,121.6L7,121.6l0.5,0.5L7,121.6z M8.1,122.1
	c-1.1,1.1-1.6,2.1-1.6,3.2l-1.1-0.5c0.5-1.1,1.1-2.1,1.6-3.2L8.1,122.1z M6.5,125.3c-0.5,1.1-1.1,2.1-1.1,3.2H4.4
	c0.5-1.1,0.5-2.1,1.1-3.7L6.5,125.3z M5.4,128.5c-0.5,5.3,1.1,9.5,1.1,10L6,139c-0.5-0.5-2.1-5.3-1.6-10.5H5.4z M6.5,138.5
	L6.5,138.5v0.5l0,0V138.5z M6.5,139c0,0,1.1,1.1,2.1,2.1l-0.5,0.5C7,140.6,6,139.5,6,139H6.5z M8.6,141.1c1.6,0.5,3.7,1.6,5.3,2.6
	v1.1c-2.1-1.1-4.2-2.1-5.8-3.2L8.6,141.1z M13.9,143.7c2.1,0.5,4.2,1.1,6.3,1.1v1.1c-2.1,0-4.2-0.5-6.3-1.1V143.7z M20.2,144.8
	c2.1,0,4.2-1.1,5.3-2.6l1.1,0.5c-1.6,2.1-3.7,2.6-6.3,3.2V144.8z M25.5,142.2L25.5,142.2H26H25.5z M25.5,142.2
	c0.5-1.1,1.1-1.6,1.6-2.1l0.5,0.5c-0.5,0.5-1.1,1.6-1.1,2.1L25.5,142.2z M27,140c2.1-3.2,5.3-6.3,3.7-13.7l0.5-0.5
	c2.1,7.9-1.1,11.6-3.7,14.8L27,140z M30.7,126.3L30.7,126.3L30.7,126.3L30.7,126.3z M30.7,126.3h-0.5l1.1-0.5l0,0L30.7,126.3z
	 M30.2,126.3c0-0.5,0-1.1,0-1.1l1.1-0.5c0,0.5,0,1.1,0,1.1L30.2,126.3z M30.2,125.3c0-0.5-0.5-0.5-0.5-1.1l1.1-0.5
	c0,0.5,0,1.1,0.5,1.1L30.2,125.3z M29.7,124.2c-0.5-1.6-1.6-2.6-2.6-2.6l0.5-1.1c1.1,0,2.1,1.6,3.2,3.2L29.7,124.2z M27,121.6
	L27,121.6v-0.5V121.6z M27,121.6L27,121.6l0.5-1.1l0,0L27,121.6z M27,121.6c-1.6-0.5-3.2-1.1-5.3-1.6l0.5-1.1
	c1.6,0.5,3.2,1.6,5.3,1.6L27,121.6z M21.8,120c-4.7-1.6-10-3.2-13.7,2.1L7,121.6c4.2-5.8,10-4.2,15.3-2.6L21.8,120z M7,121.6
	L7,121.6l0.5,0.5L7,121.6z"/>
<path class="st8" d="M14.9,119.5c-0.5,1.1-2.1,1.6-2.6,2.6c0,0.5,0,1.6-0.5,2.1c-0.5,1.1-1.6,1.6-1.1,2.6c0.5,2.6-1.6,5.3,0,7.9
	c0.5,0.5,1.1,1.6,1.6,2.1c2.1,1.1,4.7,1.1,7.4,0.5c1.6-1.1,3.2,0,4.7-1.1c1.1,0,2.6-2.6,2.6-4.2c-0.5-2.1,0.5-3.7,0-5.8
	c0-0.5-0.5-2.1-1.1-2.6c-3.2-2.1-6.3-2.1-10-3.7C16,120,15.4,119,14.9,119.5L14.9,119.5L14.9,119.5z"/>
<path class="st9" d="M15.4,120c-0.5,0.5-1.1,1.1-1.6,1.1l-0.5-0.5c0.5-0.5,1.1-0.5,1.1-1.1L15.4,120z M13.9,121.1
	c-0.5,0.5-1.1,0.5-1.1,1.1h-1.1c0.5-1.1,1.1-1.1,1.6-1.6L13.9,121.1z M11.8,122.1L11.8,122.1h0.5H11.8z M12.8,122.1L12.8,122.1h-1.1
	l0,0H12.8z M11.8,122.1L11.8,122.1h0.5H11.8z M12.8,122.1c0,0.5,0,0.5,0,1.1h-1.1c0-0.5,0-1.1,0-1.1H12.8z M12.8,123.2
	c-0.5,0.5-0.5,1.1-0.5,1.6l-1.1-0.5c0.5-0.5,0.5-0.5,0.5-1.1H12.8z M12.3,124.8L12.3,124.8l-0.5-0.5L12.3,124.8z M12.3,124.8
	L12.3,124.8l-1.1-0.5l0,0L12.3,124.8z M12.3,124.8c0,0-0.5,0.5-1.1,1.1l-0.5-1.1c0.5,0,0.5-0.5,0.5-0.5L12.3,124.8z M11.2,125.8
	c0,0-0.5,0.5-0.5,1.1h-0.5c-0.5-1.1,0-1.6,0.5-2.1L11.2,125.8z M10.7,126.9L10.7,126.9L10.7,126.9L10.7,126.9z M10.7,126.9
	c0.5,1.1,0.5,2.6,0,3.7h-0.5c0-1.1,0-2.6,0-3.7H10.7z M10.7,130.6c0,1.6,0,2.6,0.5,3.7l-1.1,0.5c-0.5-1.6-0.5-2.6,0-4.2H10.7z
	 M11.2,134.3L11.2,134.3l-0.5,0.5L11.2,134.3z M11.2,134.3L11.2,134.3l-1.1,0.5l0,0L11.2,134.3z M11.2,134.3L11.2,134.3l-0.5,0.5
	L11.2,134.3z M11.2,134.3c0,0.5,0,0.5,0,0.5l-0.5,0.5l-0.5-0.5L11.2,134.3z M11.2,134.8c0.5,0.5,0.5,1.6,1.1,1.6l-0.5,0.5
	c-0.5,0-1.1-1.1-1.1-1.6L11.2,134.8z M12.3,136.4L12.3,136.4v0.5V136.4z M12.3,136.4L12.3,136.4l-0.5,0.5l0,0L12.3,136.4z
	 M11.8,136.9L11.8,136.9h0.5H11.8z M12.3,136.4c0.5,0,0.5,0.5,1.1,0.5l-0.5,1.1c0-0.5-0.5-0.5-1.1-1.1L12.3,136.4z M13.3,136.9
	c0.5,0,0.5,0,1.1,0.5l-0.5,0.5c0,0-0.5,0-1.1,0L13.3,136.9z M14.4,137.4c1.6,0,3.2,0,4.7-0.5l0.5,0.5c-1.6,1.1-3.7,1.1-5.8,0.5
	L14.4,137.4z M19.7,137.4L19.7,137.4L19.7,137.4L19.7,137.4z M19.1,136.9c1.1-0.5,2.1-0.5,3.2-0.5v1.1c-1.1,0-1.6,0-2.6,0
	L19.1,136.9z M22.3,136.4c0.5,0,1.6,0,2.1,0l0.5,0.5c-1.1,0.5-2.1,0.5-2.6,0.5V136.4z M24.4,136.4L24.4,136.4L24.4,136.4L24.4,136.4
	z M24.4,136.4L24.4,136.4l0.5,0.5l0,0L24.4,136.4z M24.9,136.9L24.9,136.9l-0.5-0.5L24.9,136.9z M24.4,136.4v-0.5l1.1,1.1
	c-0.5,0-0.5,0-0.5,0L24.4,136.4z M24.4,135.8L24.4,135.8l0.5,0.5L24.4,135.8z M24.4,135.8c0.5,0,0.5,0,0.5-0.5l0.5,1.1
	c0,0,0,0,0,0.5L24.4,135.8z M24.9,135.3c0.5-0.5,1.6-2.1,1.6-2.6l0.5-0.5c0.5,1.1-0.5,3.2-1.6,4.2L24.9,135.3z M27,132.1L27,132.1
	L27,132.1L27,132.1z M26.5,132.7c-0.5-1.6,0-2.6,0-3.7h1.1c-0.5,1.1-0.5,2.1-0.5,3.2L26.5,132.7z M26.5,129c0-0.5,0.5-1.6,0-2.1
	l1.1-0.5c0,1.1,0,2.1,0,2.6H26.5z M27.6,126.3L27.6,126.3H27H27.6z M26.5,126.9c0-0.5,0-1.1,0-1.6l0.5-0.5c0.5,0.5,0.5,1.1,0.5,1.6
	L26.5,126.9z M26.5,125.3c-0.5-0.5-0.5-1.1-0.5-1.1l0.5-0.5c0,0,0.5,0.5,0.5,1.1L26.5,125.3z M26,124.2L26,124.2v-0.5V124.2z
	 M26,124.2c-2.1-1.1-4.2-2.1-6.3-2.6v-1.1c2.1,1.1,4.7,1.6,6.8,3.2L26,124.2z M19.7,121.6c-1.6-0.5-2.6-0.5-3.7-1.1l0.5-1.1
	c1.1,0.5,2.1,1.1,3.2,1.1V121.6z M16,120.5L16,120.5V120V120.5z M16,120.5L16,120.5l0.5-1.1l0,0L16,120.5z M16,120.5L16,120.5V120
	V120.5z M16,120.5c0,0,0,0-0.5-0.5l0.5-0.5c0.5,0,0.5,0,0.5,0L16,120.5z M15.4,120h-0.5l-0.5-1.1c0.5-0.5,1.6,0,1.6,0.5L15.4,120z"
	/>
<path class="st14" d="M13.3,124.2c1.6,1.1,2.6,3.2,3.7,3.7c1.1,0,1.1-1.6,2.1-2.1c-1.6,0.5-2.1,3.2-2.1,4.7c-1.1,0-2.6-0.5-3.7-0.5
	c2.1,0,4.2,1.6,6.8,1.1c-1.1,0-2.1-0.5-2.6,0.5c-0.5,1.1,0,3.2,1.1,4.7"/>
</svg>
