<?xml version="1.0" encoding="utf-8"?>
<!-- Generator: Adobe Illustrator 24.1.2, SVG Export Plug-In . SVG Version: 6.00 Build 0)  -->
<svg version="1.1" id="Layer_38" xmlns="http://www.w3.org/2000/svg" xmlns:xlink="http://www.w3.org/1999/xlink" x="0px" y="0px"
	 viewBox="0 0 16 16" enable-background="new 0 0 16 16" xml:space="preserve">
<path fill="#1C4B6C" d="M15.18,9.012L11.953,9.34c-0.155,0.016-0.189,0.211-0.046,0.271c0.131,0.055,0.117,0.231-0.021,0.267
	c-1.109,0.288-2.35,0.465-3.587,0.521V8.221l3.757-0.06c0.077-0.001,0.115,0.087,0.058,0.135c-0.068,0.058,0,0.161,0.087,0.13
	l1.259-0.447c0.042-0.015,0.064-0.058,0.05-0.097l-0.15-0.418c-0.018-0.05-0.084-0.069-0.13-0.038l-0.505,0.35
	c-0.014,0.01-0.031,0.015-0.049,0.016l-3.99,0.056L9.9,7.034c0.054-0.036,0.129,0,0.129,0.061c0,0.076,0.108,0.105,0.151,0.039
	l0.536-0.814c0.028-0.042,0.005-0.098-0.046-0.112l-0.536-0.149c-0.052-0.014-0.105,0.022-0.105,0.072v0.339
	c0,0.024-0.013,0.047-0.034,0.061L8.299,7.661V5.717c1.075-0.074,2.169-0.061,3.183,0.056c0.993,0.114,1.857,0.32,2.503,0.599
	c0.033,0.014,0.07,0.017,0.105,0.008l0.452-0.117c0.143-0.037,0.152-0.222,0.014-0.271c-0.713-0.252-1.596-0.438-2.582-0.548
	C10.801,5.313,9.539,5.3,8.299,5.387V4.468c0-0.023,0.012-0.045,0.033-0.059l0.291-0.19c0.028-0.018,0.04-0.051,0.029-0.081
	l-0.45-1.269C8.177,2.801,8.073,2.803,8.053,2.872L7.5,4.703c-0.019,0.064,0.057,0.116,0.117,0.08l0.207-0.124
	c0.052-0.031,0.12,0.003,0.12,0.06v0.695C7.04,5.491,6.155,5.621,5.328,5.796C5.721,4.228,6.46,2.945,7.412,2.373
	C7.993,2.022,8.59,1.971,9.157,2.21C9.2,2.228,9.224,2.272,9.217,2.315l-0.112,0.67C9.093,3.059,9.172,3.119,9.248,3.092
	l1.262-0.448c0.056-0.02,0.083-0.079,0.06-0.13l-0.836-1.85c-0.04-0.089-0.181-0.076-0.202,0.019L9.426,1.181
	C9.413,1.243,9.341,1.279,9.28,1.252C8.615,0.96,7.915,1.006,7.23,1.406c-1.234,0.72-2.171,2.459-2.596,4.552
	C3.588,6.225,2.667,6.569,1.976,6.976C-0.32,8.329,0.504,9.994,4.22,10.641c0.119,0.021,0.242,0.039,0.364,0.057
	c0.003,0.019,0.006,0.038,0.01,0.057c0.728,3.881,3.082,5.547,5.109,3.831c0.507-0.429,0.95-1.029,1.321-1.782
	c0.013-0.027,0.013-0.059-0.002-0.086l-0.25-0.461c-0.039-0.072-0.151-0.072-0.189,0c-0.304,0.572-0.66,1.03-1.062,1.362
	c-1.643,1.358-3.519,0.118-4.227-2.83c0.849,0.089,1.745,0.118,2.649,0.092v0.79c0,0.024-0.013,0.047-0.035,0.06l-0.381,0.231
	c-0.03,0.018-0.043,0.054-0.03,0.085l0.539,1.338c0.026,0.066,0.128,0.061,0.148-0.007l0.552-1.954
	c0.018-0.062-0.055-0.113-0.115-0.08l-0.204,0.114c-0.052,0.029-0.117-0.006-0.117-0.062v-0.529c1.657-0.073,3.323-0.331,4.757-0.76
	c0.034-0.01,0.07-0.009,0.103,0.003l0.879,0.329c0.06,0.023,0.129,0.007,0.172-0.038l1.102-1.156
	C15.405,9.15,15.32,8.997,15.18,9.012z M7.943,5.744v2.114L5.028,7.899c0.026-0.59,0.099-1.167,0.213-1.715
	C6.074,5.977,6.997,5.827,7.943,5.744z M2.843,7.097C3.306,6.82,3.892,6.576,4.558,6.372C4.475,6.87,4.421,7.385,4.398,7.908
	L3.893,7.915c-0.07,0.001-0.11-0.073-0.068-0.124l0.03-0.038c0.052-0.064-0.022-0.15-0.101-0.118L2.608,8.108
	C2.56,8.128,2.543,8.185,2.574,8.225l0.309,0.397c0.03,0.038,0.088,0.043,0.125,0.011l0.364-0.315
	c0.015-0.013,0.035-0.021,0.056-0.021l0.959-0.015c-0.009,0.619,0.027,1.246,0.111,1.869C1.61,9.572,0.971,8.219,2.843,7.097z
	 M5.184,10.269c-0.12-0.661-0.173-1.334-0.166-1.996l2.418-0.039l-0.87,0.578c-0.054,0.036-0.129,0-0.129-0.061V8.745
	c0-0.076-0.107-0.104-0.151-0.04L5.668,9.618c-0.034,0.05,0.004,0.114,0.067,0.116L6.353,9.75c0.046,0.001,0.084-0.033,0.084-0.076
	V9.393c0-0.024,0.013-0.047,0.034-0.061l1.473-0.987v2.068C6.992,10.439,6.051,10.392,5.184,10.269z"/>
</svg>
