<?xml version="1.0" encoding="UTF-8"?>
<svg xmlns="http://www.w3.org/2000/svg" width="135.46666" height="135.46666" viewBox="0 0 135.46666 135.46666">
  <title>3DPrintIcon</title>
  <path d="M 256.016 183.328 58.953 127.031 c 7.719 -6.406 16.656 -11.484 26.766 -14.375 L 209.516 77.281 c 30.375 -8.688 62.594 -8.688 92.969 0 l 123.797 35.375 c 10.109 2.891 19.047 7.969 26.766 14.375 z M 480 183.875 v 189.75 c 0 25.078 -16.625 47.125 -40.75 54.016 l -119.844 34.25 c -15.531 4.438 -31.422 7.203 -47.406 8.313 V 212.031 l 201.641 -57.594 c 3.968 9.11 6.359 19.032 6.359 29.438 z m -39.75 112.156 c 0 -50.828 -31.203 -71.156 -80.516 -57.063 -16.656 4.766 -25.016 7.141 -41.672 11.906 0 62.828 0 94.266 0 157.094 17.281 -4.938 25.906 -7.391 43.188 -12.328 47.328 -13.531 79 -52.156 79 -99.609 z m -79.594 -30.734 c -5.266 1.5 -7.875 2.266 -13.141 3.766 0 41.609 0 62.422 0 104.031 6.328 -1.813 9.484 -2.719 15.813 -4.531 19.281 -5.516 46.547 -22.609 46.547 -65.281 0 -42.672 -25.641 -44.719 -49.219 -37.985 z M 38.359 154.438 240 212.047 v 258.156 c -15.984 -1.109 -31.875 -3.875 -47.406 -8.313 L 72.75 427.641 C 48.625 420.75 32 398.703 32 373.625 v -189.75 c 0 -10.406 2.391 -20.328 6.359 -29.437 z m 113.454 195.156 c 0 14.609 -8.516 23.75 -22.219 19.531 -11.047 -3.359 -20.5 -13.641 -22.453 -29.938 l -29.359 -5.406 c 3 27.25 22.906 51.656 52.016 60.563 31.125 9.5 53.109 -6.781 53.109 -33.969 0 -19.453 -11.969 -37.359 -29.906 -46.688 15.188 -3.641 22.781 -12.375 22.781 -26.266 0 -19.547 -17.125 -45.813 -46.953 -54.938 -28.172 -8.594 -43.391 1.609 -48.781 26.438 L 108 272.219 c 1.656 -14.016 10.203 -18.031 19.969 -15.063 10.375 3.172 17.375 11.969 17.375 22.797 0 11.859 -8.078 18.391 -25.25 12.688 l -3.344 23.703 c 5.391 0.125 10.031 0.781 13.922 1.953 10.953 3.359 21.141 15 21.141 31.297 z" fill="#525966"/>
  <rect x="0" y="0" width="512" height="512" fill="none"/>
</svg>