<?xml version="1.0" encoding="UTF-8"?>
<svg xmlns="http://www.w3.org/2000/svg" width="400" height="400" viewBox="0 0 400 400">
  <title>3DPrintIcon_DPF1</title>
  <path d="M 170.91406 24.851562 L 171.75195 28.759766 C 178.59936 60.639899 174.62056 75.524159 151.33789 105.12891 C 136.69042 123.75369 130.46735 132.85117 125.12109 143.45508 C 121.37598 150.88319 115.23438 167.51331 115.23438 170.22461 C 115.23438 170.81299 120.46387 174.14485 126.85547 177.62891 L 138.47656 183.96484 L 138.47656 190.68945 L 138.47656 197.41406 L 145.99609 197.41406 L 153.51562 197.41406 L 153.51562 203.40039 C 153.51563 206.6921 154.32379 210.0541 155.31055 210.87305 C 156.31787 211.70904 164.26215 212.5325 173.42578 212.75 L 189.74609 213.13672 L 190.125 233.55078 C 190.35211 245.75933 191.10688 254.68908 192.00195 255.76758 C 192.85704 256.79789 196.28561 257.57031 200 257.57031 C 203.71439 257.57031 207.14296 256.79789 207.99805 255.76758 C 208.89312 254.68908 209.64789 245.75933 209.875 233.55078 L 210.25391 213.13672 L 226.57422 212.75 C 235.73785 212.5325 243.68213 211.70904 244.68945 210.87305 C 245.67621 210.0541 246.48438 206.6921 246.48438 203.40039 L 246.48438 197.41406 L 254.00391 197.41406 L 261.52344 197.41406 L 261.52344 190.7793 L 261.52344 184.14453 L 271.0332 177.82031 C 282.82027 169.98244 283.95945 166.90619 284.03125 142.72656 C 284.07435 128.21597 283.57813 124.09918 280.74609 115.45117 C 277.31296 104.96762 267.36816 88.605925 260.75977 82.570312 L 257.01758 79.152344 L 257.95508 82.570312 C 263.56739 103.01965 263.99899 121.17283 259.17383 133.85352 C 257.74043 137.62055 252.86783 146.23383 248.34766 152.99414 C 243.8275 159.75444 239.73291 166.36181 239.24805 167.67773 C 238.74474 169.04378 236.9647 170.07031 235.09766 170.07031 C 233.29912 170.07031 228.91713 170.46965 225.36133 170.95703 L 218.89648 171.84375 L 223.02148 163.67383 C 225.28956 159.18077 231.1879 148.83752 236.12891 140.68945 C 246.58384 123.44849 247.86337 119.85853 248.81445 105.12891 C 249.41823 95.778133 249.00349 92.650529 245.95312 83.570312 C 243.99074 77.728744 240.77771 70.345932 238.8125 67.164062 C 232.6447 57.177734 217.52748 42.921875 213.10547 42.921875 C 212.71887 42.921875 213.54605 45.589837 214.94336 48.849609 C 223.11117 67.904354 224.0048 90.269031 217.20312 105.35352 C 215.08815 110.04398 207.39841 121.2608 199.86328 130.64648 C 188.2878 145.06478 179.18146 159.86805 176.24219 169.04492 C 175.62419 170.9744 173.88046 171.4375 167.23047 171.4375 C 162.53748 171.4375 158.98438 170.83652 158.98438 170.04297 C 158.98438 167.13456 166.1133 151.27898 171.5625 142.06641 C 174.68313 136.79061 182.08359 126.07794 188.00781 118.26172 C 200.51891 101.75496 203.36737 96.593584 206.3125 85.097656 C 210.56647 68.49274 205.60518 53.478824 191.29688 39.662109 C 186.53449 35.063355 179.99965 29.849988 176.77539 28.076172 L 170.91406 24.851562 z M 200.09961 197.41406 C 233.31309 197.41406 235.71582 197.5774 235.28711 199.80664 C 234.86574 201.99763 231.94074 202.23043 200.57422 202.56445 C 181.73531 202.76506 165.90065 202.50807 165.38672 201.99414 C 164.87279 201.48022 164.45312 200.2409 164.45312 199.23828 C 164.45313 197.7658 171.30514 197.41406 200.09961 197.41406 z M 375 279.07422 L 368.65625 279.94336 C 365.1675 280.42153 359.01517 280.8125 354.98438 280.8125 L 347.65625 280.8125 L 347.65625 314.30859 L 347.65625 347.80469 L 200 347.80469 L 52.34375 347.80469 L 52.34375 313.625 L 52.34375 279.44531 L 38.671875 279.44531 L 25 279.44531 L 25 327.29688 L 25 375.14844 L 200 375.14844 L 375 375.14844 L 375 327.11133 L 375 279.07422 z M 68.75 300.94336 L 68.75 306.60156 L 68.75 312.25781 L 75.244141 312.26953 C 86.969631 312.2882 99.33597 314.96484 107.03125 319.15234 C 123.93121 328.3487 132.13951 331.74933 141.55859 333.45703 C 147.0075 334.44493 154.38721 335.30915 157.95898 335.37695 L 164.45312 335.5 L 164.45312 330.23242 L 164.45312 324.96484 L 153.17383 324.08203 C 137.94548 322.88922 132.94485 321.33142 119.33594 313.54297 C 106.10777 305.97243 96.939892 303.23074 80.351562 301.88477 L 68.75 300.94336 z M 157.27539 301.34766 C 152.20094 301.32085 152.14844 301.37625 152.14844 306.78906 L 152.14844 312.25781 L 158.64258 312.26953 C 169.4214 312.28667 182.54629 314.89141 189.0625 318.30664 C 192.44629 320.08013 199.55969 323.78917 204.86914 326.55078 C 210.68934 329.57806 218.56136 332.30435 224.69336 333.41406 L 224.69336 333.41211 C 230.28723 334.42443 237.78564 335.30915 241.35742 335.37695 L 247.85156 335.5 L 247.85156 330.23242 L 247.85156 324.9668 L 236.48633 324.0918 C 221.90756 322.97119 215.08591 320.86067 203.54883 313.90234 C 198.41008 310.80301 191.3551 307.33087 187.87305 306.18555 C 180.82923 303.8687 165.14834 301.38926 157.27539 301.34766 z M 240.67383 301.34766 C 235.63227 301.32103 235.54688 301.40775 235.54688 306.58398 L 235.54688 311.84961 L 247.50977 312.69922 C 262.62714 313.77331 269.51822 315.86223 281.2168 322.91797 C 291.93604 329.38305 299.89426 332.29154 311.47461 333.97852 C 315.95946 334.63189 322.24365 335.24228 325.43945 335.33398 L 331.25 335.5 L 331.25 330.23438 L 331.25 324.9668 L 319.88477 324.09375 C 305.306 322.97313 298.48435 320.86067 286.94727 313.90234 C 281.80852 310.80301 274.75353 307.33087 271.27148 306.18555 C 264.22766 303.8687 248.54678 301.38926 240.67383 301.34766 z " fill="#000000" stroke-width="1.3671875"/>
</svg>