<?xml version="1.0" encoding="UTF-8"?>
<svg xmlns="http://www.w3.org/2000/svg" width="32.000" height="32.000" viewBox="0 0 32.000 32.000">
  <title>CADAICrown</title>
  <path d="F1 M 32.000,32.000 L 0.000,32.000 L 0.000,0.000 L 32.000,0.000 L 32.000,32.000 Z" fill="currentColor"/>
  <path d="F1 M 28.680,22.929 C 28.923,22.172 29.166,21.416 29.410,20.660 C 30.499,17.285 31.574,14.305 31.003,10.643 C 30.938,10.226 30.820,9.863 30.636,9.472 L 30.616,9.429 C 30.281,8.715 29.797,8.049 29.339,7.446 C 28.231,5.990 26.868,4.729 25.331,3.735 C 24.748,3.358 24.171,2.885 23.462,3.144 C 22.951,3.330 22.493,3.697 22.078,4.038 C 21.379,4.611 20.790,5.305 20.226,6.008 C 19.279,7.189 18.345,8.440 17.036,9.201 C 15.719,9.968 14.366,9.915 12.892,9.885 C 11.702,9.843 10.612,9.850 9.435,9.657 C 9.315,9.637 9.190,9.616 9.088,9.550 C 8.985,9.484 8.909,9.360 8.937,9.242 C 8.984,9.042 9.248,9.007 9.453,9.008 C 10.347,9.013 11.241,8.902 12.106,8.675 C 12.309,8.622 12.543,8.531 12.593,8.327 C 12.649,8.097 12.438,7.898 12.249,7.757 C 11.811,7.429 11.369,7.105 10.934,6.773 C 10.796,6.773 10.592,6.509 10.554,6.405 C 11.075,6.276 12.029,6.803 12.539,6.967 C 13.271,7.203 14.010,7.437 14.771,7.554 C 15.364,7.646 16.377,7.874 16.874,7.431 C 16.694,7.091 15.732,7.102 15.370,7.013 C 14.778,6.866 14.199,6.662 13.646,6.404 C 12.538,5.888 11.529,5.160 10.702,4.261 C 10.304,3.829 9.939,3.352 9.443,3.038 C 8.912,2.701 8.262,2.666 7.683,2.892 C 6.973,3.183 6.506,3.651 5.988,4.219 C 4.798,5.738 3.495,7.537 2.736,9.429 C 2.502,10.009 2.320,10.599 2.209,11.191 C 1.375,15.611 3.804,19.543 5.304,23.507 C 5.589,24.263 5.846,25.031 6.032,25.818 C 6.152,26.327 6.251,26.840 6.330,27.357 C 6.364,27.581 6.401,27.808 6.423,28.035 C 6.454,28.191 6.489,28.347 6.517,28.504 C 6.584,28.872 8.876,28.562 9.175,28.523 C 10.190,28.392 11.186,28.149 12.166,27.859 C 14.156,27.270 16.082,26.481 18.085,25.934 C 19.136,25.647 20.209,25.428 21.297,25.349 C 23.005,25.226 24.717,25.450 26.415,25.673 C 27.069,25.759 27.683,26.037 27.924,25.286 C 28.177,24.500 28.428,23.714 28.680,22.929 Z" fill="#fffeff"/>
  <path d="F1 M 31.003,10.648 C 30.938,10.230 30.820,9.868 30.636,9.476 L 30.616,9.433 C 30.281,8.719 29.797,8.054 29.339,7.451 C 28.231,5.994 26.868,4.733 25.331,3.739 C 24.748,3.362 24.171,2.889 23.462,3.148 C 22.951,3.334 22.493,3.701 22.078,4.042 C 21.379,4.616 20.790,5.309 20.226,6.012 C 19.279,7.193 18.345,8.444 17.036,9.206 C 16.461,9.540 15.878,9.714 15.281,9.806 L 15.281,26.829 C 15.335,26.811 15.388,26.793 15.441,26.774 C 16.316,26.474 17.193,26.182 18.085,25.939 C 19.136,25.652 20.209,25.432 21.297,25.354 C 23.005,25.230 24.717,25.454 26.415,25.678 C 27.069,25.763 27.683,26.041 27.924,25.290 C 28.177,24.505 28.428,23.719 28.680,22.933 C 28.923,22.177 29.166,21.420 29.410,20.664 C 30.499,17.289 31.574,14.309 31.003,10.648 Z" fill="#fffeff"/>
  <path d="F1 M 7.614,12.117 L 15.206,12.117" fill="currentColor" stroke="#fffeff" stroke-width="1.7"/>
  <path d="F1 M 3.063,5.461 L 7.614,12.117" fill="currentColor" stroke="#fffeff" stroke-width="1.7"/>
  <path d="F1 M 6.451,20.885 L 15.281,20.885" fill="currentColor" stroke="#fffeff" stroke-width="1.7"/>
  <path d="F1 M 3.702,26.313 L 6.451,20.885" fill="currentColor" stroke="#fffeff" stroke-width="1.7"/>
  <path d="F1 M 3.524,16.268 L 15.281,16.268" fill="currentColor" stroke="#fffeff" stroke-width="1.7"/>
  <path d="F1 M 5.774,5.461 C 5.774,6.958 4.560,8.172 3.063,8.172 C 1.566,8.172 0.352,6.958 0.352,5.461 C 0.352,3.964 1.566,2.750 3.063,2.750 C 4.560,2.750 5.774,3.964 5.774,5.461 Z" fill="#fffeff"/>
  <path d="F1 M 3.524,14.018 C 4.766,14.018 5.774,15.026 5.774,16.268 C 5.774,17.511 4.766,18.519 3.524,18.519 C 2.281,18.519 1.273,17.511 1.273,16.268 C 1.273,15.026 2.281,14.018 3.524,14.018 Z" fill="#fffeff"/>
  <path d="F1 M 3.702,23.409 C 5.306,23.409 6.606,24.710 6.606,26.313 C 6.606,27.917 5.306,29.217 3.702,29.217 C 2.098,29.217 0.798,27.917 0.798,26.313 C 0.798,24.710 2.098,23.409 3.702,23.409 Z" fill="#fffeff"/>
  <path d="F1 M 10.094,25.671 L 15.281,25.671" fill="currentColor" stroke="#fffeff" stroke-width="1.7"/>
  <path d="F1 M 10.661,23.697 C 11.752,23.697 12.636,24.581 12.636,25.671 C 12.636,26.762 11.752,27.646 10.661,27.646 C 9.571,27.646 8.687,26.762 8.687,25.671 C 8.687,24.581 9.571,23.697 10.661,23.697 Z" fill="#fffeff"/>
</svg>