<?xml version="1.0" encoding="UTF-8"?>
<svg xmlns="http://www.w3.org/2000/svg" width="32" height="32" viewBox="0 0 32 32">
  <title>ChangeMaterialForBridgeAndRecosWithSameMaterial.Icon</title>
  <path d="M2.1980162,0 C2.7520161,0 3.0870161,0.2409997 3.0870161,1.0889997 3.0870161,1.9379997 2.266016,3.3590002 1.3780155,3.3590002 0.49101639,3.3590002 1.6212463E-05,1.6349998 1.6212463E-05,1.1619997 -0.0019836426,0.6869998 0.18001556,0.50600004 0.64501572,0.34399986 0.64501572,0.34399986 1.6440163,0 2.1980162,0 z" fill="#000000"/>
  <path d="M1.7936277,0.41300011 C1.426137,0.41300011 1.2438498,0.60962915 0.94708633,0.85447359 0.62407398,1.1196589 0.68313503,1.0669236 0.47678566,1.2786198 0.27189445,1.4925761 0.66855145,2.0387683 0.91208744,2.1691003 1.1534357,2.2979264 1.1315613,2.5940003 1.6463394,2.5940003 2.1618471,2.5940003 2.2719488,1.8790536 2.2719488,1.438334 2.2719488,0.99761343 2.1611185,0.41300011 1.7936277,0.41300011 z M1.8839493,0 C2.387949,0 2.5399494,0.77600002 2.5399494,1.3609996 2.5399494,1.9459996 2.3889494,2.895 1.6819487,2.895 0.97594929,2.895 1.005949,2.5020003 0.67494869,2.3309999 0.34094906,2.1580005 -0.20305061,1.4330001 0.077949524,1.1490002 0.36094952,0.86800003 0.27994919,0.9380002 0.72294903,0.58599997 1.1299496,0.26100016 1.3799496,0 1.8839493,0 z" fill="#000000"/>
  <path d="M1.3929996,0 C2.5220003,0 2.7040005,1.2409992 2.7040005,1.8659992 2.7040005,2.4919996 2.1110001,2.8039999 1.474,2.8039999 0.32299995,2.8039999 0.00099992752,1.9979992 0,1.573 0,1.1489992 0.26300049,0 1.3929996,0 z" fill="#000000"/>
  <path d="M1.1395264,0 C1.1449013,0 1.1504951,9.8228455E-05 1.1562986,0.00029754639 1.1621027,0.00049591064 1.168117,0.00079441071 1.1743331,0.0011959076 1.1805496,0.0015964508 1.1869683,0.0020999908 1.1935811,0.0027074814 1.2001939,0.0033149719 1.2070007,0.004026413 1.2139935,0.0048437119 1.2209864,0.0056610107 1.2281651,0.0065841675 1.2355218,0.0076160431 1.2428784,0.008646965 1.2504125,0.0097856522 1.2581167,0.011034966 1.2658205,0.012283325 1.2736945,0.013642311 1.2817297,0.015111923 1.2897649,0.016582489 1.2979612,0.018163681&#xD;&#xA;1.3063116,0.019859314 1.3146615,0.021554947 1.3231649,0.023363113 1.3318138,0.025287628 1.3404627,0.027212143 1.3492565,0.029252052 1.3581877,0.03140831 1.3671184,0.033565521 1.3761868,0.035840034 1.3853841,0.038233757 1.3945808,0.040626526 1.4039073,0.043139458 1.4133539,0.045773506 1.422801,0.048407555 1.4323688,0.051161766 1.442049,0.054039955 1.4517293,0.056918144 1.4615226,0.059918404 1.4714203,0.063044548 1.4813175,0.066169739 1.4913197,0.069420815 1.5014181,0.072797775 1.5115166,0.07617569&#xD;&#xA;1.5217123,0.079679489 1.5319948,0.083312035 1.5422783,0.086945534 1.5526495,0.090706825 1.5631018,0.09459877 1.5735531,0.098490715 1.5840845,0.10251331 1.5946884,0.10666847 1.6052923,0.11082363 1.6159678,0.11511135 1.6267071,0.11953259 1.6374464,0.12395477 1.6482496,0.12851048 1.6591091,0.13320351 1.6699677,0.13789558 1.6808825,0.14272404 1.6918449,0.14769077 1.7028074,0.15265751 1.7138166,0.15776253 1.7248659,0.16300774 1.7359152,0.16825199 1.7470036,0.17363739 1.7581244,0.17916393&#xD;&#xA;1.7692442,0.18469048 1.7803946,0.19035912 1.7915697,0.19617176 1.8027439,0.20198441 1.813941,0.20794106 1.8251534,0.21404266 1.8363657,0.22014427 1.8475933,0.22639275 1.8588276,0.23278713 1.8700619,0.23918247 1.8813028,0.24572563 1.8925428,0.25241756 1.9037828,0.25911045 1.9150209,0.26595211 1.9262505,0.2729454 1.93748,0.2799387 1.948699,0.28708267 1.9599018,0.29438114 1.9711037,0.30167866 1.9822884,0.30912971 1.9934473,0.31673622 2.0046062,0.32434177 2.0157394,0.33210373&#xD;&#xA;2.0268383,0.34002209 2.0379372,0.34794044 2.0490026,0.35601521 2.0600262,0.36425018 2.0710497,0.37248421 2.0820313,0.38087749 2.0929623,0.38943195 2.1038942,0.39798546 2.1147747,0.40670109 2.125598,0.41557884 2.1364212,0.4244566 2.1471853,0.43349648 2.1578836,0.44270134 2.168582,0.4519062 2.1792135,0.46127605 2.1897707,0.4708128 2.2003279,0.48034859 2.2108107,0.49005127 2.2212114,0.4999218 2.2316113,0.50979328 2.2419281,0.51983261 2.2521544,0.53004265 2.2623816,0.54025173&#xD;&#xA;2.2725172,0.55063248 2.2825537,0.56118393 2.2925901,0.57173634 2.3025284,0.5824604 2.3123589,0.59335899 2.3221893,0.60425758 2.331912,0.6153307 2.3415203,0.62657833 2.3511286,0.63782692 2.3606215,0.64925194 2.3699913,0.66085434 2.3793612,0.67245579 2.388607,0.68423653 2.3977213,0.69619656 2.4068365,0.70815659 2.4158192,0.72029591 2.4246626,0.73261738 2.433506,0.74493885 2.4422102,0.75744152 2.4507656,0.77012825 2.459322,0.78281403 2.4677296,0.79568386 2.4759817,0.80873966&#xD;&#xA;2.4842339,0.82179546 2.4923296,0.83503628 2.5002623,0.84846401 2.508194,0.8618927 2.5159616,0.87550735 2.5235577,0.88931274 2.5311537,0.90311718 2.5385771,0.9171114 2.5458202,0.93129635 2.5530634,0.9454813 2.5601254,0.95985699 2.5670004,0.97442627 2.5738745,0.98899555 2.5805597,1.0037575 2.5870485,1.018714 2.5935373,1.0336714 2.5998297,1.0488234 2.6059179,1.0641718 2.6120052,1.0795202 2.6178875,1.0950661 2.623558,1.1108103 2.6292276,1.1265535 2.6346846,1.1424971&#xD;&#xA;2.6399202,1.1586399 2.6451559,1.1747837 2.6501703,1.1911268 2.6549559,1.207674 2.6597414,1.2242203 2.6642971,1.2409687 2.6686163,1.2579222 2.6729355,1.2748747 2.6770163,1.2920322 2.6808529,1.3093958 2.6846886,1.3267593 2.6882792,1.3443298 2.6916161,1.3621082 2.694953,1.3798857 2.6980362,1.397872 2.7008572,1.4160681 2.7036791,1.4342642 2.7062387,1.4526711 2.7085276,1.4712887 2.7096729,1.4805984 2.7107506,1.4899597 2.7117586,1.4993753 2.7127676,1.508791&#xD;&#xA;2.7137079,1.518259 2.7145786,1.5277815 2.7154503,1.537303 2.7162514,1.5468788 2.7169819,1.5565071 2.7177124,1.5661364 2.7183733,1.575819 2.7189617,1.585556 2.7195501,1.595293 2.720068,1.6050835 2.7205124,1.6149282 2.7209568,1.624773 2.7213287,1.6346722 2.7216272,1.6446257 2.7219257,1.6545782 2.7221508,1.6645861 2.7223005,1.6746483 2.7224512,1.6847115 2.7225266,1.694828 2.7225266,1.7049999 2.7225266,1.7141562 2.7223692,1.7232752 2.7220573,1.7323561&#xD;&#xA;2.7217455,1.741437 2.7212782,1.7504797 2.7206602,1.7594833 2.7200422,1.768487 2.7192726,1.7774515 2.7183533,1.786375 2.7174349,1.7952986 2.7163677,1.804183 2.7151546,1.8130245 2.7139416,1.821867 2.7125826,1.8306675 2.7110806,1.839426 2.7095795,1.8481846 2.7079344,1.8569002 2.7061501,1.865572 2.7043657,1.8742447 2.7024412,1.8828726 2.7003794,1.8914566 2.6983175,1.9000406 2.6961193,1.9085808 2.6937866,1.9170742 2.6914539,1.9255676 2.6889868,1.9340153&#xD;&#xA;2.686389,1.9424171 2.6837902,1.9508181 2.6810608,1.9591722 2.6782036,1.9674788 2.6753464,1.9757853 2.6723604,1.9840441 2.6692486,1.9922533 2.6661377,2.0004635 2.6629009,2.0086241 2.6595421,2.0167341 2.6561832,2.0248451 2.6527014,2.0329056 2.6491003,2.0409155 2.6454992,2.0489254 2.6417789,2.0568838 2.6379414,2.0647898 2.6341038,2.0726967 2.6301508,2.0805502 2.6260824,2.0883512 2.622015,2.0961523 2.6178341,2.1039 2.6135426,2.1115932 2.6092501,2.1192865&#xD;&#xA;2.604847,2.1269255 2.600337,2.1345091 2.5958261,2.1420927 2.5912075,2.149621 2.586484,2.157093 2.5817604,2.1645651 2.576932,2.1719799 2.5720015,2.1793375 2.5670719,2.1866961 2.5620394,2.1939955 2.5569077,2.2012377 2.5517759,2.2084789 2.546545,2.215662 2.5412188,2.222785 2.5358915,2.229908 2.5304689,2.2369719 2.5249529,2.2439747 2.5194359,2.2509775 2.5138264,2.2579193 2.5081263,2.2648001 2.5024271,2.2716799 2.4966364,2.2784977 2.4907589,2.2852535&#xD;&#xA;2.4848814,2.2920084 2.4789162,2.2987013 2.4728661,2.3053293 2.4668169,2.3119583 2.4606829,2.3185225 2.4544668,2.3250217 2.4482508,2.331521 2.4419537,2.3379555 2.4355774,2.3443241 2.4292021,2.3506918 2.4227467,2.3569937 2.4162169,2.3632288 2.4096861,2.369463 2.40308,2.3756304 2.3964005,2.3817301 2.3897219,2.3878288 2.3829699,2.3938599 2.3761482,2.3998213 2.3693266,2.4057827 2.3624344,2.4116755 2.3554754,2.4174967 2.3485174,2.4233189 2.3414907,2.4290695&#xD;&#xA;2.3344011,2.4347496 2.3273115,2.4404287 2.320158,2.4460373 2.3129425,2.4515724 2.305727,2.4571085 2.2984514,2.4625711 2.2911167,2.4679604 2.283782,2.4733496 2.2763891,2.4786654 2.2689409,2.4839058 2.2614927,2.4891472 2.2539892,2.4943132 2.2464342,2.499403 2.2388783,2.5044937 2.2312698,2.5095081 2.2236118,2.5144453 2.2159538,2.5193825 2.2082472,2.5242434 2.2004929,2.529026 2.1927395,2.5338087 2.1849384,2.5385132 2.1770945,2.5431385 2.1692505,2.5477638&#xD;&#xA;2.1613626,2.5523109 2.1534348,2.556777 2.1455059,2.5612431 2.137537,2.565629 2.12953,2.5699339 2.1215229,2.5742388 2.1134777,2.5784626 2.1053982,2.5826044 2.0973186,2.5867462 2.0892038,2.5908051 2.0810575,2.5947809 2.0729103,2.5987568 2.0647316,2.6026487 2.0565243,2.6064568 2.048316,2.6102648 2.0400801,2.6139889 2.0318165,2.6176262 2.0235538,2.6212645 2.0152645,2.6248169 2.0069523,2.6282825 1.9986401,2.6317492 1.9903049,2.635128 1.9819489,2.6384201&#xD;&#xA;1.9735928,2.6417112 1.9652166,2.6449156 1.9568233,2.6480303 1.9484301,2.6511459 1.9400187,2.6541719 1.9315929,2.6571093 1.9231682,2.6600456 1.9147282,2.6628923 1.9062767,2.6656485 1.8978252,2.6684046 1.8893623,2.6710691 1.8808899,2.6736422 1.8724184,2.6762161 1.8639383,2.6786966 1.8554525,2.6810846 1.8469667,2.6834726 1.8384743,2.6857681 1.8299799,2.6879692 1.8214855,2.6901693 1.8129883,2.692277 1.804491,2.6942883 1.7959938,2.6962996 1.7874966,2.6982164&#xD;&#xA;1.7790022,2.700036 1.7705088,2.7018566 1.7620173,2.7035799 1.7535324,2.7052069 1.7450476,2.7068329 1.7365675,2.7083616 1.7280979,2.7097931 1.7196274,2.7112236 1.7111664,2.7125559 1.7027168,2.713788 1.6942663,2.7150211 1.6858292,2.7161541 1.6774054,2.7171869 1.6689825,2.7182198 1.660574,2.7191515 1.6521835,2.7199821 1.6437922,2.7208128 1.6354198,2.7215414 1.6270666,2.722168 1.6187143,2.7227936 1.6103821,2.7233171 1.6020737,2.7237368 1.5937643,2.7241564&#xD;&#xA;1.5854797,2.724472 1.5772209,2.7246828 1.5689621,2.7248936 1.56073,2.7249994 1.5525265,2.7249994 1.544323,2.7249994 1.5359707,2.7248793 1.5274763,2.7246389 1.518981,2.7243986 1.5103436,2.7240381 1.5015717,2.7235594 1.4927998,2.7230797 1.4838915,2.7224808 1.4748564,2.7217627 1.4658208,2.7210445 1.4566574,2.7202082 1.4473729,2.7192535 1.4380884,2.718298 1.4286828,2.7172241 1.4191637,2.716033 1.4096446,2.7148418 1.4000115,2.7135315 1.3902717,2.7121048&#xD;&#xA;1.3805323,2.7106781 1.3706856,2.7091341 1.3607397,2.7074728 1.3507938,2.7058115 1.3407483,2.7040329 1.3306103,2.7021379 1.3204727,2.700243 1.3102422,2.6982317 1.2999263,2.696105 1.2896109,2.6939774 1.2792096,2.6917343 1.2687306,2.6893759 1.2582512,2.6870165 1.247694,2.6845427 1.2370653,2.6819534 1.2264371,2.6793642 1.2157373,2.6766596 1.2049737,2.6738405 1.1942105,2.6710215 1.183383,2.668088 1.1724987,2.665041 1.1616144,2.661993 1.1506734,2.6588316&#xD;&#xA;1.1396828,2.6555567 1.1286917,2.6522808 1.1176515,2.6488924 1.1065683,2.6453905 1.0954852,2.6418886 1.0843596,2.6382742 1.0731983,2.6345463 1.062037,2.6308184 1.0508404,2.6269789 1.0396156,2.6230259 1.0283909,2.6190739 1.0171375,2.6150093 1.0058627,2.6108332 0.99458838,2.606658 0.98329258,2.6023703 0.97198296,2.597971 0.96067333,2.5935726 0.9493494,2.5890627 0.93801832,2.5844412 0.92668724,2.5798206 0.91534948,2.5750895 0.90401173,2.5702477 0.89267445,2.5654068&#xD;&#xA;0.88133669,2.5604544 0.87000656,2.5553932 0.85867596,2.5503321 0.84735298,2.5451612 0.83604431,2.5398808 0.82473612,2.5346003 0.81344175,2.529211 0.80216885,2.5237122 0.79089642,2.5182142 0.77964497,2.5126066 0.7684226,2.5068913 0.75719976,2.5011768 0.74600601,2.4953527 0.73484802,2.4894218 0.72368956,2.48349 0.71256733,2.4774513 0.70148802,2.4713049 0.69040823,2.4651585 0.67937183,2.4589052 0.66838503,2.4525442 0.65739822,2.4461842 0.64646196,2.4397173 0.63558245,2.4331436&#xD;&#xA;0.62470293,2.4265699 0.61388016,2.4198904 0.60312223,2.4131041 0.59236431,2.4063187 0.58167028,2.3994274 0.57104778,2.3924303 0.56042528,2.3854332 0.54987383,2.3783312 0.53940153,2.3711243 0.52892876,2.3639174 0.51853466,2.3566055 0.50822592,2.3491888 0.49791765,2.341773 0.48769426,2.3342524 0.47756433,2.3266277 0.46743393,2.3190031 0.45739651,2.3112745 0.44745874,2.303443 0.43752146,2.2956114 0.42768383,2.2876759 0.41795301,2.2796383 0.4082222,2.2715998 0.39859819,2.2634583&#xD;&#xA;0.38908863,2.2552147 0.37957907,2.2469711 0.37018347,2.2386255 0.36090899,2.2301779 0.3516345,2.2217302 0.34248161,2.2131796 0.33345652,2.2045288 0.3244319,2.1958771 0.31553555,2.1871243 0.30677462,2.1782713 0.29801321,2.1694174 0.2893877,2.1604624 0.28090477,2.1514072 0.27242184,2.1423521 0.26408148,2.1331959 0.25589085,2.1239405 0.24770021,2.1146851 0.23965931,2.1053286 0.23177528,2.0958738 0.22389126,2.0864182 0.21616411,2.0768633 0.208601,2.0672092 0.20103741,2.0575552&#xD;&#xA;0.19363832,2.0478029 0.18640995,2.0379515 0.17918158,2.0281 0.17212439,2.0181494 0.16524553,2.0081015 0.15836668,1.9980536 0.15166569,1.9879074 0.14515018,1.977664 0.13863468,1.9674196 0.13230467,1.957078 0.12616682,1.94664 0.12002945,1.9362011 0.11408377,1.9256659 0.10833836,1.9150333 0.10259247,1.9044018 0.097046375,1.8936729 0.09170723,1.8828478 0.086367607,1.8720226 0.081234932,1.8611012 0.07631588,1.8500853 0.071396828,1.8390684 0.066691875,1.8279552 0.062207699,1.8167477&#xD;&#xA;0.057723522,1.8055401 0.053460121,1.7942381 0.049425125,1.7828407 0.045389652,1.7714424 0.041582584,1.7599506 0.038010597,1.7483644 0.03443861,1.7367783 0.03110218,1.7250977 0.028007507,1.7133236 0.024912834,1.7015495 0.022060871,1.6896811 0.019457817,1.6777201 0.01685524,1.6657591 0.014502048,1.6537046 0.012404919,1.6415567 0.010308266,1.6294098 0.0084676743,1.6171703 0.0068912506,1.6048384 0.005314827,1.5925055 0.0040016174,1.580081 0.0029597282,1.567565 0.0024385452,1.561307 0.0019850731,1.5550261&#xD;&#xA;0.0016002655,1.5487223 0.0012154579,1.5424185 0.00089931488,1.5360909 0.00065231323,1.5297413 0.00040578842,1.5233917 0.000228405,1.5170193 0.00012159348,1.5106239 1.4781952E-05,1.5042295 -2.1934509E-05,1.4978113 1.2874603E-05,1.4913702 4.7683716E-05,1.48493 0.00015354156,1.478466 0.00033187866,1.4719801 0.00051021576,1.4654942 0.00076007843,1.4589853 0.001083374,1.4524546 0.0014071465,1.4459229 0.0018033981,1.4393692 0.0022735596,1.4327927 0.002743721,1.4262161 0.003288269,1.4196177 0.0039072037,1.4129963 0.0045261383,1.4063749&#xD;&#xA;0.0052199364,1.3997307 0.0059895515,1.3930645 0.0067591667,1.3863983 0.007604599,1.3797102 0.0085263252,1.3729992 0.010119915,1.3616552 0.011663914,1.3505297 0.013167381,1.3396101 0.014670372,1.3286905 0.016132832,1.3179779 0.017563343,1.3074608 0.018993855,1.2969427 0.020392418,1.2866211 0.021768093,1.2764826 0.023144245,1.266345 0.024497509,1.2563915 0.025836945,1.2466106 0.027175903,1.2368298 0.028501511,1.2272224 0.02982235,1.2177763 0.031143188,1.2083302 0.032459259,1.1990461 0.033779144,1.1899118&#xD;&#xA;0.035099506,1.1807785 0.036423683,1.1717958 0.037761688,1.1629515 0.039099216,1.154108 0.040450096,1.1454039 0.04182291,1.1368275 0.043196201,1.1282511 0.044591427,1.1198034 0.046017647,1.1114721 0.047444344,1.1031408 0.048902035,1.0949268 0.05039978,1.0868187 0.051898003,1.0787106 0.053435802,1.0707083 0.055023193,1.0628004 0.056610584,1.0548925 0.058247089,1.0470791 0.059942245,1.0393486 0.061636925,1.0316191 0.063389778,1.0239725 0.065210342,1.0163984 0.06703043,1.0088234 0.068918228,1.0013218&#xD;&#xA;0.070881844,0.99388027 0.072845459,0.98643875 0.074885368,0.97905827 0.077010632,0.97172832 0.079135895,0.96439743 0.081346512,0.95711708 0.083651066,0.94987488 0.08595562,0.94263268 0.088354588,0.93542862 0.090856552,0.92825222 0.093358994,0.92107582 0.095964432,0.91392708 0.098681927,0.90679455 0.10139942,0.89966202 0.10422945,0.8925457 0.1071806,0.88543415 0.11013174,0.8783226 0.113204,0.87121582 0.11640692,0.86410332 0.11960936,0.85698986 0.12294245,0.84987164 0.1264143,0.84273529 0.12988663,0.83559799&#xD;&#xA;0.13349819,0.82844448 0.13725758,0.82126236 0.14101744,0.81407928 0.14492512,0.80686855 0.14899015,0.79961777 0.15305567,0.79236698 0.15727806,0.78507614 0.16166639,0.7777338 0.1660552,0.77039242 0.17060995,0.76299953 0.17534018,0.75554466 0.1800704,0.74808884 0.1849761,0.74057198 0.19006586,0.73298168 0.19515562,0.72539043 0.20042944,0.71772671 0.20589685,0.7099781 0.21136379,0.70222855 0.21702433,0.69439602 0.22288752,0.68646622 0.22875023,0.67853737 0.23481512,0.6705122 0.24109125,0.66238022&#xD;&#xA;0.24736786,0.65424824 0.25385523,0.64600849 0.26056337,0.63765144 0.26727104,0.6292944 0.27419949,0.62081909 0.28135681,0.61221409 0.28851414,0.60360909 0.29590082,0.59487438 0.30352592,0.58599949 0.32040119,0.56624985 0.3370924,0.5466795 0.35364103,0.5273428 0.36191511,0.5176754 0.3701539,0.50806618 0.3783617,0.4985218 0.38656998,0.48897839 0.39474726,0.47949982 0.40289927,0.47009373 0.4110508,0.46068668 0.41917753,0.45135307 0.42728329,0.44209862 0.43538904,0.43284321 0.44347477,0.42366791&#xD;&#xA;0.45154476,0.41457748 0.45961523,0.40548801 0.46766996,0.39648438 0.47571468,0.38757324 0.4837594,0.37866211 0.49179363,0.36984348 0.49982309,0.36112499 0.50785208,0.35240555 0.51587629,0.34378624 0.52390051,0.33527374 0.53192472,0.32676125 0.53994894,0.31835461 0.54797792,0.31006241 0.55600739,0.30176926 0.56404161,0.29358959 0.57208586,0.28553009 0.5801301,0.27747059 0.58818483,0.26953125 0.59625483,0.26171875 0.60432434,0.25390625 0.61240959,0.24622059 0.62051487,0.23866844 0.62862062,0.23111725&#xD;&#xA;0.63674641,0.22369862 0.64489746,0.21642113 0.65304852,0.20914459 0.66122532,0.20200729 0.66943264,0.19501781 0.67763996,0.18802929 0.6858778,0.18118763 0.6941514,0.17449951 0.70242453,0.16781235 0.71073389,0.16127872 0.71908331,0.15490723 0.7274332,0.14853477 0.73582411,0.14232445 0.74426031,0.13628101 0.75269651,0.13023853 0.76117897,0.12436295 0.76971197,0.11866283 0.77824545,0.11296272 0.78682947,0.10743713 0.79546928,0.1020937 0.80410957,0.096750259 0.81280565,0.09158802 0.82156324,0.086614609&#xD;&#xA;0.83032036,0.081640244 0.83913898,0.076855659 0.84802341,0.072265625 0.85690832,0.067675591 0.86585903,0.063281059 0.87488127,0.059088707 0.8839035,0.054896355 0.89299679,0.050906181 0.90216684,0.047124863 0.9113369,0.043343544 0.92058325,0.03977108 0.92991114,0.0364151 0.93923903,0.033058167 0.94864798,0.029917717 0.95814419,0.027000427 0.96763992,0.024082184 0.97722292,0.0213871 0.98689699,0.018920898 0.99657106,0.016454697 1.0063372,0.01421833 1.0162001,0.012218475 1.026063,0.01021862 1.0360227,0.0084552765&#xD;&#xA;1.0460839,0.006934166 1.0561457,0.0054140091 1.066309,0.0041370392 1.0765791,0.0031089783 1.0868497,0.002081871 1.0972271,0.0013046265 1.1077166,0.00078392029 1.118206,0.00026321411 1.1288075,0 1.1395264,0 z" fill="#000000"/>
  <path d="M1.0705314,7.6293945E-06 C1.0807915,5.0544739E-05 1.0911117,0.00026416779 1.1014843,0.00064563751 1.1118569,0.0010271072 1.1222816,0.00157547 1.1327505,0.0022859573 1.143219,0.0029964447 1.1537318,0.0038700104 1.1642799,0.004901886 1.1748285,0.0059337616 1.1854124,0.0071229935 1.1960239,0.0084667206 1.206635,0.009809494 1.2172737,0.011305809 1.2279315,0.012951851 1.2385893,0.014596939 1.2492661,0.016391754 1.2599535,0.018330574 1.2706409,0.020269394 1.2813392,0.022353172 1.2920399,0.024576187 1.3027406,0.026799202 1.3134437,0.029162407&#xD;&#xA;1.324141,0.031661034 1.3348384,0.03415966 1.3455296,0.036793709 1.3562069,0.039557457 1.3668842,0.042322159 1.3775473,0.045217514 1.3881879,0.048238754 1.3988285,0.051260948 1.4094467,0.054408073 1.4200339,0.057677269 1.4306216,0.060947418 1.4411778,0.06433773 1.4516954,0.067846298 1.462213,0.071354866 1.4726915,0.074979782 1.4831228,0.078717232 1.4935541,0.082455635 1.5039377,0.086305618 1.514266,0.09026432 1.5245938,0.094223022 1.5348663,0.09828949 1.5450749,0.10245991 1.5552835,0.10662937&#xD;&#xA;1.5654278,0.11090279 1.5755005,0.11527538 1.5855727,0.11964798 1.5955725,0.12411976 1.6054921,0.128685 1.6154113,0.13325119 1.6252503,0.13791084 1.6350002,0.14266109 1.6398907,0.14500523 1.644949,0.14738274 1.6501679,0.14979649 1.6553874,0.15221024 1.6607676,0.15465832 1.6663022,0.15714359 1.6718373,0.15962887 1.6775265,0.16215038 1.6833644,0.16470814 1.6892018,0.16726685 1.695188,0.16986179 1.7013154,0.17249584 1.7074432,0.17512894 1.7137127,0.17780113 1.7201171,0.18051147&#xD;&#xA;1.726522,0.18322182 1.7330618,0.18597126 1.7397308,0.1887598 1.7463999,0.1915493 1.7531981,0.1943779 1.7601185,0.19724751 1.7670388,0.20011711 1.7740817,0.20302773 1.7812405,0.20597935 1.7883992,0.20893097 1.7956743,0.21192455 1.8030591,0.21496105 1.8104439,0.2179966 1.8179379,0.22107506 1.8255353,0.22419739 1.8331327,0.22731876 1.8408337,0.23048401 1.8486309,0.23369408 1.8564286,0.23690319 1.8643227,0.24015713 1.8723073,0.24345589 1.8802919,0.2467556 1.8883667,0.25009918&#xD;&#xA;1.8965254,0.25348949 1.9046841,0.25687981 1.9129272,0.2603159 1.9212475,0.26379967 1.9295673,0.26728249 1.9379654,0.27081299 1.946434,0.27439117 1.9549026,0.27796936 1.9634428,0.28159523 1.9720473,0.28527069 1.9892559,0.29261971 2.0067239,0.30016422 2.0243983,0.30791187 2.0420728,0.31565857 2.0599546,0.32360744 2.0779924,0.33176613 2.0960298,0.33992481 2.114223,0.34829235 2.1325202,0.35687733 2.1508179,0.36546135 2.1692195,0.37426281 2.187674,0.38328743 2.2061286,0.392313&#xD;&#xA;2.2246366,0.40156174 2.2431455,0.41104126 2.2616534,0.42052078 2.2801642,0.43023109 2.2986245,0.44017982 2.3170848,0.45012856 2.3354955,0.46031475 2.3538041,0.47074699 2.3721128,0.48117924 2.3903203,0.49185658 2.4083753,0.50278568 2.4264302,0.51371574 2.4443316,0.52489758 2.462029,0.53633976 2.4797273,0.54778099 2.4972205,0.55948257 2.5144582,0.57145119 2.5230765,0.57743454 2.5316319,0.5834856 2.5401158,0.58960438 2.5486007,0.5957222 2.5570149,0.60190868 2.5653529,0.60816288&#xD;&#xA;2.5736899,0.61441708 2.5819507,0.62073994 2.5901284,0.62713242 2.5983052,0.63352489 2.6064,0.63998604 2.6144042,0.64651871 2.6224093,0.65305042 2.6303239,0.65965271 2.6381431,0.66632652 2.6459622,0.67299938 2.6536851,0.67974377 2.661305,0.68656063 2.6689258,0.69337749 2.6764436,0.70026588 2.6838527,0.70722771 2.6912618,0.71418953 2.6985621,0.72122478 2.7057462,0.72833347 2.7129312,0.73544121 2.7200007,0.74262428 2.7269483,0.74988174 2.7338958,0.75713825 2.7407222,0.7644701&#xD;&#xA;2.7474198,0.77187824 2.7541175,0.77928543 2.7606864,0.78676891 2.7671218,0.79432869 2.7735562,0.80188847 2.7798562,0.80952549 2.786016,0.81723881 2.7921748,0.82495308 2.7981935,0.8327446 2.8040633,0.84061432 2.8099341,0.84848404 2.8156571,0.85643196 2.8212266,0.86445904 2.8267961,0.87248611 2.832211,0.88059235 2.8374667,0.88877964 2.8427215,0.89696598 2.847816,0.90523243 2.8527436,0.91358089 2.8576722,0.92192841 2.862433,0.93035698 2.8670211,0.93886852 2.8716092,0.94737911&#xD;&#xA;2.8760238,0.95597172 2.880259,0.96464729 2.8844943,0.97332287 2.8885493,0.98208141 2.8924193,0.99092388 2.8962884,0.9997654 2.8999724,1.0086918 2.9034629,1.0177021 2.9069543,1.0267124 2.9102521,1.0358076 2.9133515,1.0449886 2.9164519,1.0541687 2.9193521,1.0634346 2.9220481,1.0727873 2.9247432,1.08214 2.9272332,1.0915794 2.9295115,1.1011057 2.9317899,1.1106319 2.9338565,1.1202459 2.9357047,1.1299477 2.9375529,1.1396494 2.9391828,1.1494389 2.9405885,1.159318&#xD;&#xA;2.9419942,1.1691971 2.9431748,1.1791658 2.9441247,1.1892242 2.9450746,1.1992826 2.9457936,1.2094307 2.9462743,1.2196693 2.9467559,1.2299089 2.947,1.2402391 2.947,1.2506609 2.947,1.2610674 2.9467883,1.2714367 2.9463677,1.2817678 2.9459472,1.292099 2.9453187,1.302392 2.9444871,1.312645 2.9436545,1.3228979 2.9426179,1.3331118 2.9413819,1.3432846 2.940146,1.3534565 2.9387097,1.3635883 2.937078,1.3736773 2.9354463,1.3837662 2.933619,1.3938131&#xD;&#xA;2.9315991,1.4038162 2.9295802,1.4138193 2.9273686,1.4237776 2.9249701,1.433692 2.9225717,1.4436054 2.9199853,1.453474 2.9172158,1.4632969 2.9144454,1.4731188 2.9114919,1.4828939 2.9083591,1.4926214 2.9052262,1.5023489 2.9019141,1.5120287 2.8984265,1.5216589 2.8949389,1.5312891 2.8912759,1.5408697 2.8874421,1.5503998 2.8836074,1.5599298 2.879602,1.5694094 2.8754296,1.5788364 2.8712573,1.5882635 2.8669171,1.5976391 2.8624139,1.6069603 2.8579116,1.6162825&#xD;&#xA;2.8532453,1.6255503 2.8484197,1.6347628 2.843595,1.6439762 2.8386111,1.6531343 2.8334718,1.6622362 2.8283334,1.6713381 2.8230395,1.6803837 2.817595,1.6893711 2.8121505,1.6983595 2.8065543,1.7072897 2.8008122,1.7161608 2.7950702,1.7250319 2.7891812,1.7338438 2.7831502,1.7425957 2.7771182,1.7513466 2.7709441,1.7600374 2.7646317,1.7686672 2.7583184,1.7772961 2.7518678,1.7858639 2.7452817,1.7943678 2.7386956,1.8028717 2.731976,1.8113127 2.7251248,1.8196888&#xD;&#xA;2.7182746,1.8280649 2.7112937,1.8363771 2.704186,1.8446226 2.6970792,1.8528681 2.6898456,1.8610477 2.6824899,1.8691597 2.6751342,1.8772717 2.6676564,1.8853159 2.6600604,1.8932924 2.6524644,1.901268 2.6447501,1.9091749 2.6369224,1.9170122 2.6290936,1.9248495 2.6211514,1.9326162 2.6130996,1.9403105 2.6050477,1.9480057 2.5968852,1.9556293 2.5886178,1.9631805 2.5803494,1.9707308 2.5719762,1.9782085 2.5635009,1.9856119 2.5550256,1.9930153 2.5464482,2.0003443&#xD;&#xA;2.5377736,2.007597 2.529099,2.0148506 2.5203261,2.022028 2.5114598,2.0291281 2.5025945,2.0362282 2.4936347,2.043251 2.4845853,2.0501957 2.4755368,2.0571404 2.4663978,2.0640068 2.4571738,2.0707932 2.4479499,2.0775795 2.4386411,2.0842857 2.4292502,2.0909109 2.4198594,2.0975351 2.4103875,2.1040792 2.4008384,2.1105404 2.3912892,2.1170015 2.3816628,2.1233797 2.371963,2.129674 2.3622642,2.1359682 2.3524919,2.1421785 2.3426499,2.148303 2.332808,2.1544275&#xD;&#xA;2.3228974,2.1604671 2.312922,2.166419 2.3029466,2.1723719 2.2929063,2.178237 2.282804,2.1840143 2.2727027,2.1897917 2.2625413,2.1954813 2.2523217,2.2010803 2.2421031,2.2066793 2.2318273,2.2121897 2.221499,2.2176085 2.2111707,2.2230272 2.200789,2.2283545 2.1903596,2.2335901 2.1799297,2.2388258 2.1694517,2.243969 2.1589289,2.2490177 2.148406,2.2540665 2.1378388,2.2590218 2.1272311,2.2638826 2.1166234,2.2687426 2.1059752,2.2735071 2.0952911,2.2781763&#xD;&#xA;2.0846066,2.2828445 2.0738859,2.2874165 2.0631328,2.2918901 2.0523801,2.2963638 2.041595,2.3007402 2.0307817,2.3050165 2.019968,2.3092928 2.0091267,2.3134699 1.9982615,2.3175468 1.9873958,2.3216228 1.9765062,2.3255987 1.9655967,2.3294725 1.9546876,2.3333464 1.943758,2.3371172 1.9328127,2.340786 1.9218674,2.3444538 1.9109063,2.3480177 1.8999333,2.3514776 1.8889604,2.3549376 1.8779755,2.3582916 1.8669829,2.3615398 1.8559904,2.3647881 1.8449903,2.3679304&#xD;&#xA;1.8339868,2.370965 1.8229833,2.3739996 1.8119755,2.3769264 1.8009686,2.3797436 1.7899618,2.3825617 1.7789555,2.3852701 1.7679539,2.3878679 1.7569523,2.3904657 1.745955,2.3929539 1.7349663,2.3953295 1.723978,2.3977051 1.7129979,2.3999691 1.7020311,2.4021196 1.6910639,2.4042702 1.6801095,2.4063082 1.6691718,2.4082308 1.6582346,2.4101534 1.6473141,2.4119616 1.6364141,2.4136543 1.6255145,2.4153461 1.6146355,2.4169226 1.6037817,2.4183817 1.5929279,2.4198399&#xD;&#xA;1.5820994,2.4211817 1.5712996,2.4224043 1.5605001,2.4236269 1.5497298,2.4247303 1.5389924,2.4257145 1.528255,2.4266977 1.5175509,2.4275618 1.5068841,2.4283037 1.4962173,2.4290457 1.4855876,2.4296656 1.4749999,2.4301634 1.4644117,2.4306602 1.4538646,2.431035 1.4433637,2.4312849 1.4328623,2.4315348 1.4224062,2.4316607 1.4120002,2.4316607 1.399375,2.4316607 1.3867998,2.4314613 1.3742762,2.4310656 1.361752,2.4306707 1.3492799,2.4300795 1.3368602,2.4292974&#xD;&#xA;1.3244405,2.4285154 1.3120737,2.4275427 1.2997613,2.4263821 1.2874489,2.4252214 1.2751908,2.4238739 1.2629886,2.4223442 1.2507863,2.4208136 1.2386398,2.4190998 1.2265511,2.4172077 1.2144623,2.4153166 1.2024312,2.4132452 1.1904588,2.4110003 1.1784863,2.4087553 1.1665726,2.4063358 1.1547198,2.4037457 1.1428666,2.4011555 1.1310744,2.3983955 1.1193438,2.3954697 1.1076136,2.3925428 1.0959449,2.389451 1.0843401,2.3861961 1.0727353,2.3829422 1.0611939,2.3795261&#xD;&#xA;1.0497174,2.3759527 1.0382409,2.3723783 1.0268297,2.3686476 1.0154853,2.3647623 1.0041404,2.360877 0.99286222,2.3568392 0.98165226,2.3526516 0.9704423,2.348464 0.95930052,2.3441267 0.94822836,2.3396454 0.9371562,2.3351631 0.92615366,2.3305359 0.91522217,2.3257685 0.90429068,2.3210001 0.89343071,2.3160915 0.88264322,2.3110466 0.87185574,2.3060007 0.86114073,2.3008184 0.85050011,2.2955046 0.83985949,2.2901897 0.82929325,2.2847433 0.81880236,2.2791681 0.80831194,2.2735929&#xD;&#xA;0.79789686,2.267889 0.78755903,2.2620621 0.77722168,2.2562342 0.7669611,2.2502832 0.75677967,2.2442122 0.74659777,2.2381401 0.73649502,2.2319498 0.72647285,2.2256422 0.71645021,2.2193356 0.70650816,2.2129135 0.69664764,2.2063799 0.68678761,2.1998463 0.67700911,2.1932001 0.66731405,2.1864481 0.657619,2.1796961 0.64800739,2.1728363 0.63848066,2.1658735 0.62895393,2.1589108 0.6195116,2.151845 0.61015654,2.14468 0.60080099,2.137516 0.59153175,2.1302519 0.58235073,2.1228943&#xD;&#xA;0.57316971,2.1155367 0.56407642,2.1080837 0.55507278,2.1005411 0.54606915,2.0929976 0.53715515,2.0853643 0.52833176,2.0776443 0.51950884,2.0699253 0.51077652,2.0621195 0.50213671,2.0542316 0.49349737,2.0463438 0.48495007,2.0383739 0.47649717,2.0303259 0.4680438,2.0222788 0.45968485,2.0141535 0.45142126,2.0059538 0.44315815,1.9977551 0.43499041,1.9894829 0.42691946,1.9811401 0.41884851,1.9727983 0.41087484,1.9643869 0.40299988,1.9559107 0.39512491,1.9474344 0.38734865,1.9388924&#xD;&#xA;0.37967253,1.9302893 0.3719964,1.9216871 0.36442041,1.913023 0.35694599,1.9043026 0.34947157,1.8955822 0.34209871,1.8868046 0.33482933,1.8779755 0.32755995,1.8691454 0.32039356,1.8602629 0.31333208,1.8513317 0.3062706,1.8424015 0.29931355,1.8334217 0.2924633,1.824399 0.28561258,1.8153753 0.27886868,1.8063078 0.27223206,1.7972002 0.26559544,1.7880926 0.25906658,1.7789459 0.2526474,1.769762 0.24622822,1.7605791 0.23991823,1.7513599 0.23371887,1.7421103 0.22751951,1.7328596&#xD;&#xA;0.22143126,1.7235775 0.21545506,1.7142677 0.20947933,1.7049589 0.20361567,1.6956215 0.19786596,1.6862621 0.19211578,1.6769018 0.18648005,1.6675186 0.1809597,1.6581173 0.17543936,1.648715 0.17003441,1.6392937 0.16474628,1.629858 0.15945816,1.6204224 0.15428686,1.6109724 0.14923429,1.601511 0.14418173,1.5920506 0.13924742,1.5825787 0.13443327,1.573101 0.12961912,1.5636234 0.12492466,1.5541391 0.12035179,1.5446529 0.1157794,1.5351667 0.11132813,1.5256786 0.10699987,1.5161915&#xD;&#xA;0.1026721,1.5067053 0.098466873,1.497221 0.094386101,1.4877434 0.090305805,1.4782658 0.086349964,1.4687939 0.082520008,1.4593325 0.078690052,1.4498711 0.074986458,1.4404202 0.071410179,1.4309845 0.067834377,1.4215488 0.064385891,1.4121275 0.061066628,1.4027243 0.057746887,1.393322 0.054556847,1.3839388 0.051497459,1.3745785 0.048438072,1.3652172 0.045508862,1.3558798 0.042712212,1.34657 0.039915562,1.3372602 0.037251472,1.3279772 0.034720421,1.3187256 0.032189846,1.3094749 0.029792786,1.3002548&#xD;&#xA;0.027531147,1.2910709 0.025269508,1.2818871 0.023143291,1.2727385 0.02115345,1.2636299 0.019163609,1.2545214 0.017310619,1.2454529 0.01559639,1.2364283 0.013881683,1.2274036 0.01230526,1.2184238 0.010869026,1.2094917 0.0094323158,1.2005596 0.0081357956,1.1916761 0.0069804192,1.1828442 0.0058250427,1.1740131 0.0048112869,1.1652346 0.0039401054,1.1565132 0.0030694008,1.1477909 0.0023412704,1.1391258 0.0017571449,1.1305218 0.0011734962,1.1219168 0.00073432922,1.1133738 0.00044107437,1.1048956 0.00014734268,1.0964174&#xD;&#xA;0,1.0880041 0,1.0796604 0,1.071332 0.00011587143,1.0630722 0.0003452301,1.0548801 0.00057411194,1.0466881 0.00091648102,1.0385637 0.0013694763,1.0305052 0.0018219948,1.0224476 0.0023856163,1.0144567 0.0030560493,1.0065317 0.0037269592,0.99860668 0.0045056343,0.99074745 0.0053887367,0.98295307 0.006272316,0.97515869 0.0072603226,0.96743011 0.0083508492,0.95976543 0.0094413757,0.95210171 0.010633469,0.94450092 0.01192522,0.93696499 0.013216972,0.9294281 0.014608383,0.92195511 0.016096115,0.91454506&#xD;&#xA;0.01758337,0.90713501 0.0191679,0.8997879 0.02084589,0.89250183 0.02252388,0.88521671 0.02429533,0.87799358 0.026158333,0.87083149 0.028020859,0.8636694 0.029974937,0.85656834 0.032016754,0.84952736 0.034058571,0.84248638 0.036189079,0.83550644 0.038404942,0.82858562 0.040620327,0.82166481 0.042921543,0.81480408 0.045305252,0.80800152 0.047689438,0.80119896 0.05015564,0.79445553 0.052702427,0.78777027 0.055248737,0.78108501 0.057875156,0.77445698 0.060578823,0.76788712 0.063282013,0.7613163 0.066062927,0.75480366&#xD;&#xA;0.068917751,0.74834633 0.071773052,0.74188995 0.074702263,0.73548985 0.077702999,0.72914505 0.083704948,0.71645546 0.089993477,0.70398808 0.096546173,0.69173717 0.10309839,0.67948627 0.10991526,0.66745186 0.11697388,0.6556263 0.1240325,0.64380074 0.13133335,0.63218498 0.13885403,0.62077236 0.1463747,0.60936069 0.15411472,0.59815121 0.16205311,0.58713913 0.16999102,0.57612705 0.17812634,0.56531143 0.18643761,0.55468655 0.1947484,0.54406166 0.20323515,0.53362751 0.21187496,0.52337742 0.22051477,0.51312733&#xD;&#xA;0.22930765,0.50306129 0.23823166,0.4931736 0.24715614,0.48328495 0.25621128,0.47357464 0.26537514,0.46403599 0.27453947,0.45449638 0.28381205,0.44512939 0.29317188,0.43592644 0.30253172,0.42672348 0.31197786,0.41768646 0.32148886,0.4088068 0.33099985,0.39992809 0.34057522,0.3912077 0.35019255,0.38263988 0.35981035,0.37407112 0.3694706,0.3656559 0.37915087,0.35738564 0.38883066,0.34911537 0.39853096,0.34099102 0.40822935,0.33300686 0.41792774,0.32502174 0.42762375,0.31717682 0.43729591,0.30946445&#xD;&#xA;0.44696808,0.30175304 0.45661592,0.29417419 0.46621704,0.28672218 0.47581863,0.27926922 0.4853735,0.27194405 0.4948597,0.26473904 0.50434589,0.25753403 0.5137639,0.25044918 0.52309084,0.24347878 0.53241777,0.23650742 0.54165363,0.22965145 0.55077696,0.2229023 0.55990028,0.21615314 0.56891012,0.2095108 0.57778549,0.2029705 0.58666039,0.19643021 0.59540033,0.18999195 0.60398293,0.18364716 0.61256552,0.17730331 0.62099075,0.17105389 0.62923622,0.16489315 0.63748169,0.15873146 0.64554787,0.15265942&#xD;&#xA;0.65341234,0.14666939 0.66127682,0.14067841 0.66893911,0.13477039 0.67637825,0.12893772 0.68381691,0.12310505 0.69103146,0.11734867 0.69800043,0.11166096 0.70493793,0.10600471 0.71205235,0.10058403 0.71933508,0.095394135 0.72661781,0.090203285 0.73406887,0.085244179 0.74168015,0.080511093 0.74929142,0.075778008 0.75706291,0.071271896 0.76498604,0.066986084 0.77290964,0.062701225 0.78098488,0.058637619 0.78920364,0.054791451 0.79742241,0.050945282 0.8057847,0.047316551 0.81428194,0.04390049 0.82277966,0.040483475&#xD;&#xA;0.83141232,0.037280083 0.84017229,0.034284592 0.84893179,0.031288147 0.8578186,0.028500557 0.86682415,0.025917053 0.87582922,0.023332596 0.8849535,0.020952225 0.89418793,0.018770218 0.90342236,0.016589165 0.91276693,0.014606476 0.92221355,0.012817383 0.93166065,0.011029243 0.94120932,0.0094356537 0.95085192,0.0080318451 0.96049452,0.0066280365 0.97023058,0.0054140091 0.98005247,0.0043849945 0.98987436,0.0033559799 0.99978161,0.0025129318 1.0097661,0.0018501282 1.0197501,0.0011882782 1.0298119,0.00070571899 1.0399423,0.00040054321&#xD;&#xA;1.0500727,9.4413757E-05 1.0602717,-3.4332275E-05 1.0705314,7.6293945E-06 z" fill="#000000"/>
  <path d="M1.0746107,2.5749207E-05 C1.0912328,-6.0081482E-05 1.1080751,6.6757202E-05 1.1251407,0.0004119873 1.1422062,0.00075626373 1.1594944,0.0013189316 1.1770072,0.0021057129 1.19452,0.0028915405 1.2122569,0.003900528 1.2302208,0.0051393509 1.2481847,0.0063772202 1.2663751,0.0078439713 1.2847934,0.0095453262 1.3032122,0.011246681 1.3218589,0.013181686 1.3407364,0.015356064 1.3596134,0.017531395 1.3787208,0.019946098 1.3980603,0.022604942 1.4173994,0.02526474 1.4369712,0.028168678 1.4567766,0.031323433 1.4765821,0.034478188 1.4966216,0.037883759&#xD;&#xA;1.5168967,0.041544914 1.5371718,0.04520607 1.557683,0.04912281 1.5784316,0.053299904 1.5991807,0.057477951 1.6201673,0.061917305 1.6413932,0.066623688 1.6626191,0.071329117 1.6840849,0.076301575 1.705792,0.08154583 1.727499,0.086790085 1.7494473,0.092306137 1.7716393,0.098100662 1.7938313,0.10389423 1.8162665,0.10996532 1.8389468,0.11631966 1.8616271,0.12267399 1.8845525,0.12931061 1.9077253,0.13623524 1.9308977,0.14316082 1.9543176,0.15037441 1.9779863,0.15788078 2.0016546,0.16538811&#xD;&#xA;2.0255723,0.17318821 2.0497408,0.18128777 2.0739093,0.18938732 2.0983281,0.19778633 2.1230001,0.20648956 2.1353207,0.21082592 2.1475344,0.21518707 2.1596422,0.21957207 2.1717501,0.22395802 2.1837525,0.22836876 2.1956496,0.23280334 2.2075472,0.23723698 2.2193398,0.24169636 2.2310286,0.24617863 2.2427173,0.2506609 2.2543025,0.25516605 2.2657843,0.25969505 2.277266,0.26422405 2.2886453,0.26877689 2.299922,0.27335167 2.3111987,0.27792645 2.3223734,0.28252316 2.3334475,0.28714275&#xD;&#xA;2.344521,0.29176235 2.3554935,0.29640388 2.3663659,0.30106735 2.3772383,0.30572987 2.38801,0.31041527 2.3986831,0.3151207 2.4093556,0.31982708 2.419929,0.32455349 2.4304042,0.32930088 2.4408793,0.33404827 2.4512558,0.33881664 2.461535,0.34360504 2.4718142,0.34839344 2.4819961,0.35320187 2.4920807,0.35802937 2.5021658,0.36285686 2.5121546,0.36770439 2.5220475,0.37257099 2.5319405,0.37743759 2.5417376,0.38232327 2.5514398,0.38722706 2.5611424,0.39213085 2.5707502,0.39705372&#xD;&#xA;2.5802641,0.40199471 2.5897779,0.40693569 2.5991979,0.41189384 2.6085248,0.41687012 2.6178522,0.42184639 2.6270862,0.42684078 2.6362286,0.43185139 2.6545129,0.4418726 2.6724296,0.45196247 2.6899853,0.4621172 2.707541,0.47227001 2.7247357,0.48248959 2.7415776,0.49276638 2.758419,0.50304508 2.7749071,0.51338291 2.7910495,0.52377796 2.8071918,0.5341711 2.8229876,0.54462147 2.8384452,0.55512333 2.8539023,0.56562519 2.8690209,0.57618046 2.8838081,0.5867815 2.8985953,0.59738255&#xD;&#xA;2.9130507,0.60803318 2.9271822,0.61872578 2.9413137,0.62942028 2.9551215,0.64015675 2.9686117,0.65093517 2.9821024,0.66171169 2.9952765,0.67252827 3.0081406,0.68338108 3.0210047,0.69423389 3.0335598,0.70512104 3.0458121,0.71604061 3.0580645,0.72696209 3.070015,0.73791218 3.0816703,0.74889278 3.0933261,0.75987148 3.1046867,0.77087879 3.1157594,0.78190899 3.1268325,0.79293919 3.1376181,0.80399227 3.1481228,0.81506634 3.1586285,0.8261385 3.1688538,0.83723164 3.1788054,0.84834003&#xD;&#xA;3.1887569,0.85944843 3.1984367,0.87057209 3.2078495,0.88170719 3.2172632,0.89284229 3.2264109,0.90398884 3.2353001,0.91514111 3.2441902,0.92629528 3.252821,0.93745708 3.2612009,0.9486208 3.2695808,0.95978451 3.27771,0.97095203 3.2855959,0.98211956 3.2934809,0.99328709 3.3011227,1.0044527 3.3085279,1.0156145 3.3159332,1.0267744 3.323103,1.0379305 3.3300428,1.0490789 3.3369827,1.0602255 3.3436928,1.0713644 3.3501825,1.08249 3.3566713,1.0936155 3.3629389,1.1047277&#xD;&#xA;3.3689919,1.1158228 3.3750448,1.1269197 3.3808832,1.1379976 3.3865137,1.1490545 3.3921452,1.1601133 3.3975697,1.1711493 3.4027939,1.1821604 3.4080181,1.1931715 3.413043,1.2041578 3.4178743,1.2151155 3.4227066,1.2260714 3.4273462,1.2370005 3.4318008,1.2478952 3.4362555,1.25879 3.4405241,1.2696505 3.4446154,1.2804747 3.4487066,1.2912989 3.4526205,1.3020849 3.4563627,1.3128309 3.4601059,1.3235769 3.4636784,1.334281 3.4670868,1.3449392 3.4704962,1.3555975&#xD;&#xA;3.4737415,1.3662119 3.4768314,1.3767748 3.4799213,1.3873396 3.4828548,1.3978548 3.4856405,1.4083147 3.4884253,1.4187765 3.4910622,1.429183 3.4935579,1.4395323 3.4960527,1.4498835 3.4984064,1.4601755 3.5006266,1.4704065 3.5028467,1.4806376 3.5049324,1.4908056 3.5068922,1.5009089 3.5088511,1.5110121 3.510684,1.5210505 3.5123968,1.5310183 3.5141106,1.5409861 3.5157042,1.5508852 3.5171862,1.56071 3.5186672,1.5705347 3.5200377,1.5802851 3.5213022,1.5899572&#xD;&#xA;3.5225668,1.5996313 3.5237274,1.6092253 3.5247898,1.6187391 3.5258532,1.6282511 3.5268183,1.6376829 3.5276937,1.6470289 3.5285683,1.656373 3.5293541,1.6656332 3.530056,1.6748018 3.5307579,1.6839724 3.5313778,1.6930513 3.5319214,1.7020369 3.5324659,1.7110224 3.5329342,1.7199144 3.5333347,1.7287073 3.5337343,1.7375002 3.5340662,1.7461958 3.534338,1.7547884 3.5346088,1.763381 3.5348196,1.7718706 3.534976,1.7802553 3.5351324,1.78864 3.5352364,1.7969179&#xD;&#xA;3.5352926,1.8050871 3.5353498,1.8132544 3.5353603,1.8213129 3.5353327,1.8292551 3.5353041,1.8371992 3.5352373,1.8450289 3.5351381,1.8527384 3.5350389,1.8604498 3.5349092,1.8680429 3.5347538,1.8755121 3.5345993,1.8829813 3.53442,1.8903303 3.5342245,1.8975496 3.5340281,1.9047709 3.5338154,1.9118662 3.5335922,1.9188299 3.53337,1.9257936 3.5331373,1.9326277 3.5329027,1.9393263 3.5326681,1.9460249 3.5324306,1.9525881 3.5321989,1.9590139 3.5319662,1.9654398&#xD;&#xA;3.5317392,1.9717264 3.5315237,1.97787 3.5313091,1.9840155 3.531106,1.990016 3.5309229,1.9958715 3.5307398,2.0017252 3.5305758,2.0074339 3.5304394,2.01299 3.530302,2.018548 3.5301924,2.0239534 3.530117,2.0292044 3.5300417,2.0344553 3.5299997,2.0395517 3.5299997,2.0444899 3.5299997,2.049365 3.529954,2.0544939 3.5298586,2.059865 3.5297632,2.065238 3.5296183,2.0708532 3.5294199,2.076705 3.5292215,2.0825567 3.5289688,2.0886431 3.5286598,2.0949545&#xD;&#xA;3.5283499,2.1012678 3.5279818,2.1078043 3.5275526,2.1145601 3.5271235,2.121314 3.5266333,2.1282854 3.5260773,2.1354647 3.5255203,2.1426439 3.5248985,2.1500311 3.5242071,2.1576166 3.5235157,2.1652021 3.5227547,2.172986 3.5219202,2.1809587 3.5210857,2.1889334 3.5201769,2.1970949 3.5191908,2.2054396 3.5182056,2.2137823 3.5171423,2.2223063 3.5159969,2.2309999 3.5148516,2.2396955 3.5136251,2.2485628 3.5123129,2.2575903 3.5110016,2.2666178 3.5096035,2.2758093&#xD;&#xA;3.5081167,2.2851515 3.506629,2.2944956 3.5050526,2.3039923 3.5033817,2.313632 3.5017118,2.3232737 3.4999475,2.3330584 3.4980869,2.3429766 3.4962254,2.3528967 3.4942665,2.3629503 3.4922056,2.3731298 3.4901457,2.3833113 3.4879837,2.3936167 3.4857159,2.4040384 3.483449,2.4144602 3.4810762,2.4250002 3.4785938,2.435647 3.4761114,2.4462919 3.4735193,2.4570475 3.4708138,2.4678984 3.4681082,2.4787512 3.4652891,2.4897032 3.4623528,2.5007429 3.4594164,2.5117826&#xD;&#xA;3.4563627,2.522912 3.4531879,2.5341215 3.4500122,2.5453329 3.4467154,2.5566225 3.4432936,2.5679827 3.4398708,2.5793447 3.4363232,2.5907774 3.4326458,2.6022711 3.4289694,2.6137667 3.4251623,2.6253214 3.4212227,2.6369314 3.4172821,2.6485415 3.413209,2.660203 3.4089985,2.6719084 3.4047871,2.6836157 3.4004393,2.695365 3.3959494,2.7071505 3.3914595,2.7189341 3.3868284,2.7307539 3.3820515,2.7425985 3.3772755,2.7544432 3.3723536,2.7663145 3.3672819,2.7782011&#xD;&#xA;3.3622103,2.7900896 3.3569899,2.8019934 3.351615,2.8139048 3.346241,2.8258142 3.3407135,2.8377333 3.3350286,2.8496504 3.3293438,2.8615675 3.3235016,2.8734827 3.3174982,2.8853865 3.3114939,2.8972921 3.3053293,2.9091845 3.2989988,2.9210577 3.2926683,2.9329329 3.2861729,2.944787 3.2795076,2.9566107 3.2728424,2.9684362 3.2660074,2.9802313 3.2589998,2.9919901 3.2519922,3.003747 3.2448111,3.0154676 3.2374525,3.0271387 3.230094,3.0388117 3.222558,3.050437&#xD;&#xA;3.2148409,3.062007 3.2071238,3.073575 3.1992254,3.0850878 3.1911421,3.0965357 3.1830578,3.1079836 3.1747894,3.1193647 3.1663303,3.1306734 3.1578722,3.1419802 3.1492243,3.1532125 3.1403837,3.1643629 3.1315427,3.1755114 3.1225085,3.1865778 3.113277,3.1975508 3.1040454,3.2085238 3.0946164,3.2194052 3.0849867,3.2301836 3.0753565,3.240962 3.0655251,3.2516375 3.0554886,3.2622042 3.0454516,3.2727709 3.0352101,3.2832251 3.0247588,3.293561 3.0143075,3.303895&#xD;&#xA;3.0036473,3.3141108 2.9927735,3.3241968 2.9819002,3.3342829 2.9708133,3.3442392 2.9595089,3.3540583 2.948205,3.3638754 2.9366837,3.3735571 2.9249411,3.38309 2.9131985,3.3926229 2.9012346,3.402009 2.8890457,3.4112368 2.8768568,3.4204664 2.8644428,3.4295397 2.8517995,3.438447 2.8391557,3.4473543 2.8262835,3.4560976 2.8131776,3.4646635 2.8000717,3.4732313 2.7867327,3.4816236 2.7731566,3.4898329 2.7595801,3.4980421 2.7457671,3.5060682 2.7317123,3.5138998&#xD;&#xA;2.717658,3.5217314 2.7033625,3.5293722 2.6888213,3.536809 2.6742806,3.5442476 2.6594944,3.5514822 2.6444592,3.558507 2.6294241,3.5655317 2.61414,3.5723467 2.5986023,3.5789404 2.583065,3.5855341 2.5672741,3.5919065 2.5512266,3.598052 2.5351787,3.6041956 2.5188737,3.6101103 2.5023079,3.6157866 2.4857421,3.6214647 2.4689145,3.6269026 2.4518223,3.6320944 2.4347301,3.6372843 2.4173727,3.6422281 2.3997464,3.6469145 2.3821201,3.6516027 2.3642244,3.6560316&#xD;&#xA;2.3460555,3.6601973 2.3278871,3.6643629 2.3094454,3.6682615 2.2907267,3.6718855 2.2720075,3.6755095 2.2530117,3.6788607 2.2337346,3.6819258 2.2144575,3.6849928 2.1948996,3.6877737 2.1750565,3.6902628 2.1552134,3.6927519 2.1350851,3.6949492 2.1146679,3.6968431 2.0942507,3.6987371 2.0735445,3.7003298 2.0525451,3.7016096 2.0315456,3.7028913 2.0102534,3.7038603 1.9886637,3.7045107 1.9670744,3.7051592 1.945188,3.7054892 1.9230003,3.7054892 1.9008284,3.7054892&#xD;&#xA;1.8788877,3.7053156 1.8571758,3.7049723 1.835464,3.7046289 1.8139815,3.7041159 1.792726,3.703433 1.771471,3.7027502 1.750443,3.7018995 1.7296405,3.700881 1.708838,3.6998644 1.6882615,3.6986799 1.6679082,3.6973333 1.6475554,3.6959848 1.6274257,3.6944742 1.6075182,3.6927996 1.5876112,3.6911268 1.5679255,3.68929 1.54846,3.687295 1.528995,3.6852999 1.5097494,3.6831465 1.4907227,3.6808329 1.4716959,3.6785212 1.4528871,3.6760511 1.4342952,3.6734266&#xD;&#xA;1.4157033,3.6708021 1.3973274,3.6680212 1.3791666,3.6650877 1.3610063,3.6621542 1.34306,3.6590681 1.3253269,3.6558313 1.3075938,3.6525946 1.2900734,3.6492052 1.2727642,3.645669 1.255455,3.6421309 1.2383571,3.6384459 1.2214684,3.634614 1.2045794,3.6307821 1.1879001,3.6268034 1.1714282,3.6226816 1.1549563,3.6185579 1.1386919,3.6142912 1.122633,3.6098814 1.1065745,3.6054716 1.0907211,3.6009207 1.0750723,3.5962305 1.059423,3.5915384 1.0439777,3.5867071&#xD;&#xA;1.0287347,3.5817385 1.0134916,3.5767698 0.99845028,3.5716639 0.98360968,3.5664225 0.9687686,3.5611792 0.95412827,3.5558023 0.9396863,3.550292 0.92524433,3.5447817 0.91100073,3.5391378 0.89695358,3.5333624 0.88290691,3.5275869 0.8690567,3.5216799 0.85540152,3.515645 0.84174585,3.5096102 0.82828569,3.5034456 0.81501818,3.4971552 0.80175066,3.4908648 0.78867626,3.4844465 0.77579355,3.4779043 0.76291037,3.471364 0.75021839,3.4646959 0.7377162,3.4579077 0.72521353,3.4511194&#xD;&#xA;0.71290064,3.4442072 0.70077562,3.4371767 0.68865013,3.4301462 0.67671299,3.4229937 0.66496086,3.4157248 0.65320921,3.4084558 0.64164352,3.4010687 0.63026142,3.3935652 0.6188798,3.3860617 0.60768175,3.3784437 0.59666634,3.3707113 0.58565092,3.3629789 0.57481718,3.355134 0.56416464,3.3471766 0.55351162,3.3392191 0.54303932,3.331151 0.53274536,3.3229742 0.5224514,3.3147955 0.51233625,3.30651 0.50239801,3.2981157 0.49245977,3.2897234 0.48269796,3.2812223 0.47311163,3.2726164&#xD;&#xA;0.46352482,3.2640123 0.45411348,3.2553015 0.44487524,3.2464895 0.435637,3.2376776 0.42657185,3.2287626 0.41767836,3.2197466 0.40878439,3.2107306 0.40006208,3.2016153 0.39150953,3.1924009 0.38295698,3.1831884 0.37457418,3.1738749 0.36635876,3.1644678 0.35814381,3.1550589 0.35009623,3.1455564 0.34221458,3.1359587 0.33433342,3.1263609 0.32661772,3.1166697 0.31906652,3.1068869 0.31151533,3.0971041 0.30412865,3.0872278 0.29690409,3.0772657 0.28967905,3.0673018 0.28261709,3.0572481&#xD;&#xA;0.27571535,3.0471067 0.26881361,3.0369673 0.26207256,3.0267401 0.2554903,3.016427 0.24890804,3.006114 0.24248457,2.995717 0.23621798,2.9852362 0.22995138,2.9747572 0.22384214,2.9641943 0.21788788,2.9535494 0.21193314,2.9429064 0.20613432,2.9321833 0.20048809,2.92138 0.19484234,2.9105768 0.18935013,2.8996973 0.18400908,2.8887396 0.1786685,2.8777819 0.17347908,2.8667498 0.16843939,2.8556414 0.1633997,2.8445349 0.15851021,2.833354 0.15376806,2.8221006 0.14902639,2.8108473&#xD;&#xA;0.14443254,2.7995234 0.13998461,2.7881289 0.13553715,2.7767344 0.1312356,2.7652712 0.12707853,2.7537394 0.12292099,2.7422094 0.11890793,2.7306089 0.11503792,2.7189455 0.11116743,2.7072821 0.10743952,2.6955538 0.10385275,2.6837606 0.1002655,2.6719694 0.096819401,2.6601152 0.093512058,2.6481981 0.090204716,2.6362829 0.087036133,2.6243067 0.084004879,2.6122713 0.080973625,2.6002359 0.078079224,2.5881414 0.075320244,2.5759916 0.072561741,2.5638418 0.069938183,2.5516348 0.067448139,2.5393744&#xD;&#xA;0.064958096,2.5271139 0.062601566,2.5148001 0.060376644,2.5024328 0.058152199,2.4900656 0.056058884,2.4776468 0.054095745,2.4651785 0.052132607,2.4527082 0.050299644,2.4401903 0.048594475,2.4276247 0.046889305,2.4150572 0.045312405,2.4024439 0.043861389,2.3897848 0.042410851,2.3771257 0.041086674,2.3644209 0.039886475,2.3516741 0.038686752,2.3389254 0.037611485,2.3261347 0.036658764,2.313302 0.035706043,2.3004713 0.03487587,2.2875986 0.034166813,2.2746859 0.033457756,2.261775 0.032869339,2.2488241&#xD;&#xA;0.032400131,2.235837 0.0319314,2.2228498 0.031580925,2.2098246 0.031348228,2.1967669 0.031115532,2.1837091 0.031000137,2.1706152 0.031000137,2.1574907 0.031031609,2.1463652 0.031309605,2.1354322 0.03181982,2.124692 0.032329559,2.1139498 0.033071041,2.1034002 0.03402853,2.0930395 0.034986496,2.0826807 0.036159992,2.0725088 0.037534714,2.0625277 0.038908958,2.0525465 0.040483952,2.0427542 0.042244434,2.0331507 0.04400444,2.0235453 0.045949936,2.0141287 0.048065186,2.004899 0.050180435,1.9956694&#xD;&#xA;0.052464962,1.9866247 0.054903984,1.977767 0.057343483,1.9689093 0.059936523,1.9602365 0.0626688,1.9517469 0.0654006,1.9432592 0.068271637,1.9349546 0.071265697,1.9268332 0.074259758,1.9187136 0.077377319,1.9107752 0.080602646,1.903018 0.083827972,1.8952627 0.087161064,1.8876886 0.090586185,1.8802958 0.094011784,1.872901 0.097529411,1.8656893 0.10112429,1.8586569 0.10471869,1.8516226 0.10839033,1.8447695 0.11212301,1.8380957 0.11585617,1.8314199 0.11965036,1.8249235 0.12349081,1.8186045&#xD;&#xA;0.12733078,1.8122854 0.131217,1.8061438 0.13513374,1.8001795 0.13905048,1.7942133 0.14299726,1.7884245 0.1469593,1.7828093 0.15092134,1.777194 0.15489864,1.7717562 0.15887499,1.76649 0.16285181,1.7612238 0.16682768,1.7561331 0.17078781,1.751214 0.17474794,1.7462931 0.17869234,1.7415476 0.18260479,1.7369719 0.18651772,1.732398 0.19039869,1.727994 0.19423342,1.7237616 0.19806767,1.7195272 0.20185518,1.7154646 0.20558023,1.7115717 0.20930529,1.7076788 0.21296787,1.7039537&#xD;&#xA;0.21655321,1.7003965 0.22013807,1.6968412 0.22364473,1.6934519 0.22705841,1.6902304 0.23047209,1.6870089 0.23379278,1.6839552 0.23700428,1.6810656 0.24021578,1.6781778 0.24331856,1.6754541 0.24629736,1.6728964 0.24927568,1.6703367 0.25213003,1.667943 0.25484419,1.6657133 0.25755882,1.6634817 0.26013374,1.6614141 0.26255322,1.6595087 0.26497269,1.6576052 0.26723719,1.6558619 0.26933098,1.6542807 0.27142429,1.6526976 0.27334738,1.6512766 0.2750845,1.6500177 0.27682114,1.648757&#xD;&#xA;0.27837181,1.6476545 0.27972078,1.6467123 0.28106976,1.645772 0.28221703,1.6449881 0.28314734,1.6443624 0.28407764,1.6437368 0.28479099,1.6432676 0.28527164,1.6429567 0.2857523,1.6426439 0.28600025,1.6424894 0.28600025,1.6424894 0.28600025,1.6424894 0.28572083,1.64223 0.28517962,1.6417131 0.28463888,1.6411963 0.28383589,1.64042 0.28278828,1.6393862 0.28174114,1.6383524 0.28044939,1.6370611 0.27893066,1.6355124 0.27741194,1.6339617 0.27566624,1.6321554 0.2737112,1.6300917&#xD;&#xA;0.27175617,1.628026 0.26959133,1.6257048 0.2672348,1.623126 0.26487827,1.6205473 0.26233006,1.6177111 0.25960684,1.6146193 0.25688362,1.6115274 0.25398588,1.6081781 0.25093126,1.6045732 0.24787617,1.6009684 0.24466419,1.597106 0.2413125,1.5929899 0.23796129,1.588872 0.23446989,1.5844984 0.23085642,1.5798712 0.22724295,1.575242 0.2235074,1.5703573 0.21966696,1.5652189 0.21582699,1.5600805 0.21188164,1.5546865 0.2078495,1.549037 0.20381689,1.5433874 0.19969749,1.5374842&#xD;&#xA;0.195508,1.5313253 0.19131851,1.5251665 0.1870594,1.518754 0.18274784,1.5120878 0.1784358,1.5054216 0.17407179,1.4985018 0.16967297,1.4913263 0.16527414,1.4841528 0.16084003,1.4767237 0.15638876,1.4690428 0.15193748,1.4613619 0.14746904,1.4534273 0.14300013,1.4452391 0.13853121,1.4370527 0.13406277,1.4286127 0.12961149,1.419919 0.12516022,1.4112253 0.12072611,1.4022799 0.11632729,1.3930826 0.11192846,1.3838854 0.10756445,1.3744345 0.10325289,1.3647337 0.098940849,1.355031&#xD;&#xA;0.09468174,1.3450785 0.090492249,1.3348722 0.086302757,1.3246679 0.082183361,1.3142118 0.078150749,1.303504 0.074118614,1.2927961 0.070173264,1.2818365 0.066333294,1.270627 0.062492847,1.2594175 0.058757305,1.2479582 0.055143833,1.2362471 0.051530361,1.2245378 0.04803896,1.2125769 0.044687748,1.200366 0.04133606,1.1881533 0.038124084,1.1756926 0.035069466,1.162982 0.03201437,1.1502714 0.029116631,1.1373129 0.026393414,1.1241026 0.023670197,1.1108923 0.021121979,1.097434 0.01876545,1.0837259&#xD;&#xA;0.01640892,1.0700197 0.01424408,1.0560617 0.012289047,1.0418577 0.010334015,1.0276518 0.0085883141,1.0131979 0.0070695877,0.99849796 0.0055508614,0.98379612 0.0042591095,0.96884441 0.0032119751,0.95364666 0.0021643639,0.93844891 0.0013613701,0.9230051 0.00082063675,0.90731144 0.00027942657,0.89161777 0,0.87567806 0,0.85949039 0,0.85136509 0.00013303757,0.84319973 0.00040054321,0.83499622 0.00066757202,0.82679272 0.0010700226,0.81855488 0.0016088486,0.81028652 0.0021476746,0.80201626 0.002822876,0.79371548&#xD;&#xA;0.0036363602,0.7853899 0.0044503212,0.77706623 0.005402565,0.76871395 0.0064949989,0.76034451 0.0075874329,0.75197315 0.0088200569,0.74358273 0.010195255,0.73517895 0.011569977,0.72677326 0.013087273,0.71835423 0.014748573,0.70992565 0.016409397,0.70149708 0.018214703,0.69305897 0.02016592,0.68461895 0.022117138,0.67617702 0.024214268,0.66773129 0.026459217,0.65928936 0.02870369,0.65084553 0.031096458,0.64240551 0.033638954,0.63397121 0.03618145,0.62553692 0.038873196,0.61710835 0.041716576,0.60869503 0.044560432,0.60027981&#xD;&#xA;0.047555447,0.59187794 0.050704002,0.58349323 0.053852558,0.57511044 0.057154179,0.5667429 0.060611725,0.55840015 0.064068794,0.55005932 0.067681313,0.54173946 0.071451187,0.53344822 0.075220585,0.52515697 0.079147339,0.51689625 0.083233356,0.50866795 0.087319374,0.50044155 0.091564178,0.49224758 0.095969677,0.48409367 0.10037565,0.47593975 0.10494232,0.46782494 0.10967207,0.4597559 0.11440134,0.45168686 0.11929369,0.44366169 0.12435055,0.43568802 0.12940741,0.42771435 0.13462925,0.41979027 0.14001703,0.41192245&#xD;&#xA;0.14540529,0.40405464 0.15095997,0.3962431 0.15668297,0.38849258 0.16240597,0.38074112 0.16829729,0.37305164 0.17435932,0.36542892 0.18042088,0.35780621 0.18665266,0.35024929 0.19305706,0.34276485 0.19946098,0.33528042 0.20603752,0.32786846 0.21278763,0.32053375 0.21953773,0.31319809 0.22646236,0.30594063 0.23356247,0.29876614 0.24066257,0.29159164 0.24793863,0.28450012 0.25539255,0.27749634 0.26284647,0.27049255 0.27047825,0.26357651 0.27828932,0.25675488 0.28610086,0.24993324 0.2940917,0.24320507&#xD;&#xA;0.30226374,0.23657608 0.31043625,0.22994709 0.31879044,0.22341633 0.32732773,0.21699142 0.33586502,0.21056557 0.34458542,0.20424461 0.35349131,0.19803238 0.36239767,0.1918211 0.37148857,0.18571949 0.38076687,0.17973328 0.39004517,0.17374706 0.39951086,0.16787624 0.40916538,0.16212654 0.4188199,0.15637589 0.42866325,0.15074635 0.43869734,0.14524269 0.4487319,0.13973904 0.4589572,0.13436127 0.46937513,0.1291151 0.47979307,0.12386894 0.49040365,0.11875439 0.50120926,0.11377621 0.51201439,0.10879898&#xD;&#xA;0.52301455,0.10395813 0.53421068,0.099259377 0.5454073,0.094560623 0.55680037,0.090004921 0.5683918,0.085596085 0.57998276,0.081187248 0.59177256,0.076926231 0.60376263,0.072818756 0.6157527,0.068710327 0.62794256,0.06475544 0.64033508,0.060959816 0.65272713,0.057163239 0.66532183,0.053525925 0.67812014,0.050051689 0.69091845,0.046577454 0.70392084,0.043268204 0.71712923,0.040126801 0.73033714,0.036986351 0.74375153,0.034015656 0.75737333,0.031218529 0.77099514,0.028422356 0.78482437,0.025799751 0.79886389,0.023358345&#xD;&#xA;0.81290293,0.020915985 0.82715178,0.018654823 0.84161186,0.016578674 0.85607195,0.014502525 0.87074375,0.012611389 0.88562918,0.010911942 0.90051413,0.0092124939 0.9156127,0.0077037811 0.93092632,0.0063915253 0.94623995,0.0050783157 0.96176863,0.0039625168 0.97751474,0.0030479431 0.99326086,0.0021343231 1.0092239,0.0014209747 1.0254059,0.00091552734 1.0415878,0.00041007996 1.0579886,0.0001115799 1.0746107,2.5749207E-05 z" fill="#000000"/>
  <path d="M1.3129187,0.32584953 C0.65378571,0.31517601 0.34124088,0.90968323 0.33114862,1.1193295 0.31848431,1.3824158 0.57581234,1.4859257 0.57581234,1.4859257 0.13674164,1.8494473 0.49202681,2.1649208 0.79968834,2.4966507 1.1073499,2.8283787 1.308156,3.0622272 1.8468595,3.0881596 2.8486438,3.1363831 3.4148698,2.6967297 3.4497652,1.9718361 3.4846601,1.2469425 2.8477817,0.90742874 1.885251,0.46837425 1.6714668,0.3706131 1.4809327,0.32856941 1.3129187,0.32584953 z M1.1539941,9.5367432E-06 C1.3403201,0.00070953369 1.551187,0.043144226 1.7879996,0.14326859 2.9429998,0.6302681 3.71,1.0132675 3.71,1.9142685 3.71,2.8152676 3.0699997,3.394268 1.8909998,3.394268 1.257,3.394268 1.0079999,3.1162682 0.62799978,2.7232685 0.24799967,2.330267 -0.18700027,1.960268 0.30799961,1.4832668 0.30799961,1.4832668 0,1.3702679 0,1.0432682 0,0.77758026 0.34658194,-0.0030288696 1.1539941,9.5367432E-06 z" fill="#000000"/>
  <path d="M1.0384283,0.25452042 C0.99005938,0.25450897 0.94806862,0.25560951 0.91385317,0.25740051 0.4758954,0.28032112 0.30788898,0.86154747 0.3217535,1.135788 0.33643389,1.4108467 0.60801649,1.6236897 0.60801649,1.6236897 0.60801649,1.6236897 0.46529293,1.6777191 0.47915745,1.9118462 0.50851774,2.4750614 1.3281593,2.6797199 1.6494913,2.662529 1.9700079,2.6461563 3.1778579,2.5069885 3.1199527,1.4149399 3.0680752,0.40971565 1.6091847,0.25465393 1.0384283,0.25452042 z M0.87971354,0 C1.5795445,0.00016593933 3.3683562,0.18958282 3.4319663,1.4175186 3.5029655,2.7515202 2.021966,2.9215183 1.6289659,2.9415188 1.2349658,2.9625187 0.22996569,2.7125187 0.19396591,2.024519 0.17696571,1.7385197 0.3519659,1.6725197 0.3519659,1.6725197 0.3519659,1.6725197 0.018965721,1.4125195 0.00096607208,1.076519 -0.016034126,0.74151993 0.18996572,0.031518936 0.7269659,0.0035190582 0.76891899,0.0013313293 0.82040596,-1.335144E-05 0.87971354,0 z" fill="#000000"/>
  <path d="M1.0195875,0.33399963 C0.57579708,0.33399963 0.31000042,0.5270009 0.31000042,1.2061076 0.31000042,1.8860154 0.96451283,3.0239992 1.6740999,3.0239992 2.3828897,3.0239992 2.7739992,1.6433625 2.7739992,1.2645683 2.7739992,0.88417244 2.6303263,0.73922157 2.2583723,0.60948658 2.2583723,0.60948658 1.4617834,0.33399963 1.0195875,0.33399963 z M0.88900089,0 C1.4429998,0 2.4410009,0.34399986 2.4410009,0.34399986 2.9070005,0.50600004 3.0870008,0.6869998 3.0870008,1.1619997 3.0870008,1.6349998 2.5970011,3.3590002 1.7090006,3.3590002 0.82000065,3.3590002 0,1.9379997 0,1.0889997 0,0.2409997 0.33300114,0 0.88900089,0 z" fill="#000000"/>
  <path d="M0.77815819,0.41300011 C0.39582634,0.41300011 0.27900124,0.99761343 0.27900124,1.438334 0.27900124,1.8790536 0.39582634,2.5940003 0.93139458,2.5940003 1.4662056,2.5940003 1.4442062,2.2979264 1.6953011,2.1691003 1.9486732,2.0387683 2.3621082,1.4925761 2.1489429,1.2786198 1.9335022,1.0669236 1.9949474,1.1196589 1.6588898,0.85447359 1.3501396,0.60962915 1.1597328,0.41300011 0.77815819,0.41300011 z M0.65800095,0 C1.1610012,0 1.4120007,0.26100016 1.8190002,0.58599997 2.262001,0.9380002 2.1810017,0.86800003 2.4650002,1.1490002 2.7460003,1.4330001 2.2010002,2.1580005 1.8670006,2.3309999 1.5360012,2.5020003 1.5650005,2.895 0.86000061,2.895 0.15400124,2.895 0,1.9459996 0,1.3609996 0,0.77600002 0.15400124,0 0.65800095,0 z" fill="#000000"/>
  <path d="M1.3120003,0 C2.4430008,0 2.7049999,1.1489992 2.7049999,1.573 2.7040005,1.9979992 2.382,2.8039999 1.2310009,2.8039999 0.59499931,2.8039999 0,2.4919996 0,1.8659992 0,1.2409992 0.18300056,0 1.3120003,0 z" fill="#000000"/>
  <path d="M1.585001,0 C1.9280014,0 2.151001,0.2699995 2.4210014,0.58599949 2.6650009,0.86999989 2.6650009,1.0099993 2.7140007,1.3729992 2.8340015,2.2319994 1.6960011,2.7249994 1.1710014,2.7249994 0.64600182,2.7249994 0,2.2909994 0,1.7049999 0,0.40299988 1.2420006,0 1.585001,0 z" fill="#000000"/>
  <path d="M1.8358536,0.22166729 C1.6864414,0.22227955 1.5213146,0.26756954 1.3794613,0.33623981 1.1256618,0.45671272 0.31899834,0.69043064 0.31899834,1.2261353 0.31899834,1.7610359 1.020586,2.1746607 1.5597076,2.1746607 2.2119904,2.1746607 2.7009983,1.5176802 2.7009983,1.0887957 2.7009983,0.66071415 2.3170662,0.45751572 2.1376286,0.31134129 2.0587711,0.2477417 1.9520645,0.22119045 1.8358536,0.22166729 z M1.876646,7.6293945E-06 C2.020422,-0.00058460236 2.1524372,0.032473564 2.25,0.11166096 2.4720001,0.29366112 2.9470005,0.54666042 2.9470005,1.0796604 2.9470005,1.6136608 2.3419991,2.4316607 1.5349998,2.4316607 0.86800003,2.4316607 0,1.9166603 0,1.2506609 0,0.58366108 0.99799919,0.29266071 1.3120003,0.14266109 1.4874992,0.057160378 1.6917934,0.00077056885 1.876646,7.6293945E-06 z" fill="#000000"/>
  <path d="M2.4597054,2.5749207E-05 C3.240427,0.0040578842 3.5343494,0.4776144 3.5343494,0.85949039 3.5343494,1.37749 3.2493496,1.6424894 3.2493496,1.6424894 3.2493496,1.6424894 3.5043488,1.8014898 3.5043488,2.1574907 3.5043488,2.997489 3.0313492,3.7054892 1.613348,3.7054892 0.19334793,3.7054892 0.0053482056,2.3564901 0.0053482056,2.0444899 0.0053482056,1.7284899 -0.16465187,0.76149082 1.4123497,0.20648956 1.8312397,0.05853653 2.1773167,-0.0014324188 2.4597054,2.5749207E-05 z" fill="#000000"/>
  <path d="M2.4218483,0.37927437 C2.2734413,0.37981224 2.1054859,0.41234207 1.9168663,0.48909569 0.99532127,0.86242294 0.38600159,1.1560249 0.38600159,1.8467197 0.38600159,2.5374146 0.89575958,2.9812679 1.8340302,2.9812679 2.3398056,2.9812679 2.5381336,2.7681561 2.8408012,2.4668884 3.1434708,2.1656189 3.4891491,1.8819828 3.094883,1.5163212 3.094883,1.5163212 3.3410015,1.429697 3.3410015,1.1790218 3.3410015,0.97534943 3.064949,0.3769455 2.4218483,0.37927437 z M2.5560074,9.5367432E-06 C3.3634186,-0.0030288696 3.710001,0.77758026 3.710001,1.0432682 3.710001,1.3702679 3.401001,1.4832668 3.401001,1.4832668 3.8960018,1.960268 3.4620018,2.330267 3.0820007,2.7232685 2.7020016,3.1162682 2.453001,3.394268 1.8180008,3.394268 0.6400013,3.394268 0,2.8152676 0,1.9142685 0,1.0132675 0.7650013,0.6302681 1.9220009,0.14326859 2.1588135,0.043144226 2.3696804,0.00070953369 2.5560074,9.5367432E-06 z" fill="#000000"/>
  <path d="M1.417,0.7085 C1.417,1.0997937 1.0997937,1.417 0.7085,1.417 C0.31720625,1.417 0,1.0997937 0,0.7085 C0,0.31720625 0.31720625,0 0.7085,0 C1.0997937,0 1.417,0.31720625 1.417,0.7085 z" fill="#000000"/>
  <path d="M2.3636036,0.25452042 C1.796257,0.25465393 0.34358597,0.40971565 0.29123116,1.4149399 0.23525429,2.5069885 1.4351425,2.6461563 1.7564106,2.662529 2.0752449,2.6797199 2.8889637,2.4750614 2.9206047,1.9118462 2.9319611,1.6777191 2.7916088,1.6236897 2.7916088,1.6236897 2.7916088,1.6236897 3.0617676,1.4108467 3.0763702,1.135788 3.0917854,0.86154747 2.9238491,0.28032112 2.4873791,0.25740051 2.4534073,0.25560951 2.411684,0.25450897 2.3636036,0.25452042 z M2.5567703,0 C2.6160355,-1.335144E-05 2.6674614,0.0013313293 2.7093372,0.0035190582 3.2473373,0.031518936 3.4543362,0.74151993 3.4353371,1.076519 3.4173374,1.4125195 3.0843372,1.6725197 3.0843372,1.6725197 3.0843372,1.6725197 3.2573357,1.7385197 3.2433357,2.024519 3.2043362,2.7125187 2.2013359,2.9625187 1.8083363,2.9415188 1.4123363,2.9215183 -0.066663742,2.7515202 0.0023365021,1.4175186 0.066867828,0.18958282 1.8574505,0.00016593933 2.5567703,0 z" fill="#000000"/>
  <path d="M1.417,0.7085 C1.417,1.0997937 1.0997937,1.417 0.7085,1.417 C0.31720625,1.417 0,1.0997937 0,0.7085 C0,0.31720625 0.31720625,0 0.7085,0 C1.0997937,0 1.417,0.31720625 1.417,0.7085 z" fill="#000000"/>
</svg>