<?xml version="1.0" encoding="UTF-8"?>
<svg xmlns="http://www.w3.org/2000/svg" width="32" height="32" viewBox="0 0 32 32">
  <title>Dentalshare.UnknownDirection</title>
  <path d="m 12.736208 287.0654 q -0.09409 -0.25538 -0.188173 -0.57796 -0.08065 -0.32259 -0.147851 -0.72582 -0.0672 -0.40322 -0.107528 -0.79301 -0.02688 -0.38979 -0.02688 -0.77958 0 -1.1828 0.497316 -2.20432 0.510757 -1.00807 1.25001 -1.84141 0.389789 -0.43011 0.793018 -0.84678 0.403229 -0.41667 0.83334 -0.80646 0.443552 -0.40323 0.846781 -0.79302 0.403229 -0.38979 0.779576 -0.76613 0.739253 -0.73926 1.25001 -1.59948 0.510757 -0.83334 0.510757 -1.82797 0 -0.90054 -0.376347 -1.55915 -0.389788 -0.67205 -1.021514 -1.12904 -0.309142 -0.2285 -0.685489 -0.38979 -0.376347 -0.16129 -0.793017 -0.26882 -0.403229 -0.10753 -0.860222 -0.16129 -0.443552 -0.0538 -0.913986 -0.0538 -3.077982 0 -5.8199401 2.64787 v -4.59681 q 1.6801211 -0.96775 3.4140061 -1.43818 1.747326 -0.48388 3.561857 -0.48388 1.680121 0 3.131746 0.41667 1.505388 0.43012 2.594107 1.23657 1.102159 0.8199 1.747326 2.02959 0.631726 1.22313 0.631726 2.83604 0 1.50539 -0.537639 2.72852 -0.26882 0.60484 -0.604844 1.15592 -0.336024 0.53764 -0.739253 1.0484 -0.403229 0.49732 -0.846781 0.95431 -0.430111 0.44355 -0.900545 0.83334 -0.470434 0.38979 -0.900545 0.77958 -0.430111 0.37634 -0.83334 0.76613 -0.806458 0.76614 -1.344097 1.61292 -0.537639 0.83334 -0.537639 1.85485 0 0.90055 0.215056 1.55915 0.120968 0.34947 0.228496 0.64517 0.120969 0.2957 0.228497 0.53764 z m 2.379052 9.18018 q -1.034955 0 -1.854854 -0.79302 -0.779576 -0.73925 -0.779576 -1.82797 0 -0.56452 0.188174 -1.02151 0.201614 -0.45699 0.577961 -0.83334 0.819899 -0.77958 1.868295 -0.77958 1.034955 0 1.841413 0.77958 0.779576 0.75269 0.779576 1.85485 0 1.08872 -0.779576 1.84141 -0.819899 0.77958 -1.841413 0.77958 z" fill="#000000" stroke-width="2.29392529"/>
</svg>