<?xml version="1.0" encoding="UTF-8"?>
<svg xmlns="http://www.w3.org/2000/svg" width="32" height="32" viewBox="0 0 32 32">
  <title>GenerateDependentTextualParameterTranslations</title>
  <path d="m 15.878906 3.84375 c -0.06526 0.0117 -0.137573 0.042106 -0.224609 0.1035156 L 8.5839844 6.2890625 h 1.5253906 1.5 V 11.3125 H 7.5644531 v 4.042969 H 4.1933594 l 0.029297 4.722656 c 0.0069 0.38086 0.09812 0.733889 0.5253907 0.974609 L 16.066406 27.5 c 0.162379 0.17494 0.465492 0.255438 1.050782 0.148438 l 0.734374 -0.332032 -0.607421 0.261719 c -0.487659 0.210306 -0.88086 -0.04297 -0.88086 -0.568359 V 15.517578 c 0 -0.52539 0.393201 -1.119772 0.88086 -1.330078 L 27.808594 9.6328125 c 0.121914 -0.052575 0.236414 -0.07464 0.341797 -0.072266 0.316146 0.00725 0.537109 0.2485356 0.537109 0.6425785 v 1.373047 L 28.73633 9.958984 C 28.71683 9.688134 28.69653 9.418036 28.435549 9.2851558 L 16.447266 3.9804688 c -0.243668 -0.03 -0.37257 -0.1697757 -0.56836 -0.1347657 z" fill="#000000" stroke-width="0.84812182"/>
  <path d="m 14.922944 -2.6448226 c 0.0014 7.78e-4 0.0019 10e-4 0.0016 8.33e-4 z" fill="#000000" stroke-width="0.05554198"/>
  <path d="m 2.1301754 -24.684346 c 0.124254 -0.0028 0.260551 0.02395 0.404297 0.08594 l 12.4550776 5.371094 c 0.574986 0.247967 1.039063 0.946931 1.039063 1.566406 v 13.5507814 c 0 0.619475 -0.464077 0.917889 -1.039063 0.669922 L 3.4875974 -8.4011436 c 0.264491 -0.438362 0.388389 -0.97486 0.53125 -1.498046 l 0.769532 -0.1464854 c 1.003976 1.4108814 2.343852 2.4080054 3.871093 2.1523444 h 0.002 c 1.3501866 -0.229033 2.3222646 -1.300327 2.8437496 -2.5878914 0.521486 -1.287565 0.665765 -2.864545 0.384766 -4.515625 -0.26149 -1.535748 -0.854234 -2.897267 -1.681641 -3.923828 -0.8269826 -1.026037 -1.9403536 -1.761153 -3.2148426 -1.751953 h -0.002 -0.0039 c -0.159588 0.0016 -0.325214 0.01397 -0.49414 0.04297 h -0.002 c -0.99682 0.170783 -1.818095 0.823161 -2.36914 1.673828 -0.409743 0.632534 -0.561789 1.477223 -0.71875 2.310547 l -0.757813 0.142578 c -0.342518 -0.402674 -0.724587 -0.758849 -1.148437 -1.023438 v -6.40039 c 0 -0.464606 0.260051 -0.749268 0.632812 -0.757812 z" fill="#000000" stroke-width="3.50882912"/>
  <path d="M 4.0429688 3.7460938 V 7.7910156 H 0 V 9.8125 h 4.0429688 v 4.042969 H 6.0664062 V 9.8125 H 10.109375 V 7.7910156 H 6.0664062 V 3.7460938 Z M 24.021484 13.810547 c -1.481402 -0.01156 -2.911394 1.765129 -3.310546 4.109375 -0.429136 2.521492 0.484457 4.78055 2.042968 5.044922 1.017419 0.170316 2.106635 -0.559365 2.84961 -1.908203 l 1.552734 0.296875 c 0.187331 1.288797 0.825176 2.264532 1.736328 2.419922 1.306997 0.222672 2.659816 -1.310917 3.019531 -3.425782 0.360027 -2.11439 -0.408137 -4.009568 -1.714843 -4.232422 -0.07877 -0.0131 -0.157759 -0.01917 -0.238282 -0.01953 -0.724553 -0.0059 -1.430014 0.507327 -1.96289 1.318359 L 26.4375 17.123047 c -0.140277 -1.791724 -0.982412 -3.0914 -2.128906 -3.287109 -0.0939 -0.01619 -0.189131 -0.02444 -0.285156 -0.02539 z" fill="#000000" stroke-width="0.05230099"/>
  <path d="m 13.087891 4.3867188 c -2.052004 0 -3.7438975 1.4392747 -4.1542972 3.3886718 H 0.13378906 V 9.6210938 H 8.8808594 c 0.4103997 1.8980872 2.1555456 3.3867192 4.1562496 3.3867182 2.052004 0 3.741944 -1.437325 4.152344 -3.3867182 H 31.866211 V 7.7753906 H 17.244141 C 16.833741 5.877303 15.088593 4.3867188 13.087891 4.3867188 Z m 9.484375 7.7851562 c -2.052004 0 -3.741944 1.441228 -4.152344 3.390625 H 0.13378906 v 1.845703 H 18.367188 c 0.410399 1.898087 2.153592 3.386719 4.154296 3.386719 2.052004 0 3.741944 -1.437325 4.152344 -3.386719 h 5.192383 V 15.5625 h -5.137695 c -0.4104 -1.898088 -2.155548 -3.390625 -4.15625 -3.390625 z M 9.4277344 19.958984 c -2.0007027 0 -3.7458503 1.490584 -4.15625 3.388672 H 0.13378906 v 1.845703 H 5.3261719 c 0.4104002 1.949394 2.1003403 3.386719 4.1523437 3.386719 2.0007044 0 3.7438974 -1.488631 4.1542964 -3.386719 H 31.866211 V 23.347656 H 13.580078 c -0.4104 -1.949397 -2.10034 -3.388672 -4.1523436 -3.388672 z" fill="#000000" stroke-width="0.12825026"/>
  <path d="m 101.32812 310.03516 c -1.612685 -0.0747 -4.880313 4.7355 -6.089839 5.63672 -2.52088 1.53847 -7.22271 0.61793 -7.787109 0.39257 -0.564458 -0.22521 2.41571 -0.24666 3.302734 -0.69726 0.734522 -0.37316 -0.961478 -1.51075 -1.591797 -1.90821 h -4.492187 v 4.62305 h -3.9375 c -0.150992 1.99966 1.32796 7.65779 2.537109 9.98047 1.290136 2.47833 1.625591 4.91727 1.544922 5.81836 h 21.361327 v -0.81836 c -0.2874 -5.15504 2.76663 -10.85912 1.9082 -16.11914 -0.64506 -2.92893 -5.1432 -6.833 -6.75586 -6.9082 z m -12.035151 1.24804 v 2.16602 c 0.971057 0.40781 4.289697 1.69551 5.945312 0.82812 0.672258 -0.11316 -3.42322 -0.63256 -4.726562 -1.81836 -0.530993 -0.49454 -0.859265 -0.82348 -1.21875 -1.17578 z" fill="#000000" stroke-width="0.96953875"/>
  <path d="m -23.402484 -26.770445 v 2.383883 h -4.767767 v 4.767767 h -2.383883 v -4.767767 h -4.767767 v -2.383883 h 4.767767 v -4.767767 h 2.383883 v 4.767767 z" fill="#000000" stroke-width="2.04332876"/>
  <path d="M 2.4824219 0 V 32 H 24.484375 v -2 h -20 V 2 h 14 v 8 h 8 v 4.304688 A 4.7034271 4.7034271 0 0 1 28.472656 16 h 0.0098 V 8.578125 L 19.904297 0 Z M 20.484375 3.421875 25.0625 8 h -4.578125 z m 4.314453 12.726563 c -1.149286 0 -2.152905 0.856909 -2.388672 1.947265 h -8.322265 v 1.060547 h 8.353515 c 0.235748 1.119836 1.206014 1.945312 2.384766 1.945312 1.149286 10e-7 2.152943 -0.854956 2.388672 -1.945312 h 3.802734 V 18.095703 H 27.183594 C 26.947842 16.975867 25.97758 16.148438 24.798828 16.148438 Z m -6.314453 4.259765 c -1.149287 0 -2.15099 0.85691 -2.386719 1.947266 h -2.009765 v 1.060547 h 2.039062 c 0.235752 1.119836 1.207968 1.945312 2.386719 1.945312 1.149287 0 2.150953 -0.854956 2.386719 -1.945312 H 31.017578 V 22.355469 H 20.869141 c -0.235752 -1.119836 -1.206015 -1.947266 -2.384766 -1.947266 z m 8.291016 4.261719 c -1.178755 0 -2.149014 0.82743 -2.384766 1.947266 H 13.808594 v 1.060546 h 10.550781 c 0.235767 1.090356 1.237432 1.945313 2.386719 1.945313 1.178751 0 2.150967 -0.825514 2.386718 -1.945313 h 1.605469 v -1.060546 h -1.576172 c -0.23573 -1.090356 -1.237435 -1.947266 -2.386718 -1.947266 z" fill="#000000" stroke-width="0.07367206"/>
  <path d="M 23.010631 142.26138 V 154.163 h 8.1825 v -0.74397 h -7.43854 v -10.41368 h 5.207016 v 2.97513 h 2.975484 v 2.23154 h 0.743624 v -2.7602 l -3.190462 -3.19044 z m 6.694936 1.27261 1.702521 1.70288 h -1.702521 z" fill="#000000" stroke-width="0.6375851"/>
  <path d="M 213.333 0 C 95.467 0 0 95.467 0 213.333 0 331.199 95.467 426.666 213.333 426.666 331.199 426.666 426.667 331.2 426.667 213.333 426.667 95.466 331.2 0 213.333 0 Z m 0 384 C 119.253 384 42.666 307.413 42.666 213.333 42.666 119.253 119.253 42.667 213.333 42.667 307.413 42.667 384 119.253 384 213.333 384 307.413 307.413 384 213.333 384 Z" fill="#000000"/>
  <path d="M 377.707 56.053 327.893 6.24 c -8.32 -8.32 -21.867 -8.32 -30.187 0 l -39.04 39.04 80 80 39.04 -39.04 c 8.321 -8.32 8.321 -21.867 10e-4 -30.187 z" fill="#000000"/>
  <path d="m 15.806641 5.90625 c -0.06556 0.011723 -0.139132 0.043797 -0.226563 0.1054688 l -2.935547 0.9707031 c 0.747135 1.1269474 1.146504 2.4486649 1.148438 3.8007811 1.22e-4 3.808874 -3.087611 6.896607 -6.8964846 6.896485 C 5.918894 17.677796 4.9528767 17.468082 4.0625 17.064453 l 0.033203 5.150391 c 0.0069 0.38259 0.1000834 0.736698 0.5292969 0.978515 l 11.3691411 6.476563 c 0.163115 0.175742 0.466743 0.257871 1.054687 0.15039 l 0.738281 -0.333984 -0.609375 0.261719 c -0.489871 0.211261 -0.884765 -0.04254 -0.884765 -0.570313 V 17.632812 c 0 -0.527774 0.394894 -1.122723 0.884765 -1.333984 l 10.611328 -4.576172 c 0.122468 -0.05281 0.23789 -0.0766 0.34375 -0.07422 0.317582 0.0073 0.539063 0.250653 0.539063 0.646484 v 1.376953 l 0.04883 -1.623047 c -0.01963 -0.272072 -0.03863 -0.544246 -0.300781 -0.677734 L 16.376953 6.0429688 C 16.132179 6.0128345 16.003319 5.8710866 15.806641 5.90625 Z" fill="#000000" stroke-width="0.85197073"/>
  <path d="m 14.922944 -2.6448226 c 0.0014 7.78e-4 0.0019 10e-4 0.0016 8.33e-4 z" fill="#000000" stroke-width="0.05554198"/>
  <path d="m 2.1301754 -24.684346 c 0.124254 -0.0028 0.260551 0.02395 0.404297 0.08594 l 12.4550776 5.371094 c 0.574986 0.247967 1.039063 0.946931 1.039063 1.566406 v 13.5507814 c 0 0.619475 -0.464077 0.917889 -1.039063 0.669922 L 3.4875974 -8.4011436 c 0.264491 -0.438362 0.388389 -0.97486 0.53125 -1.498046 l 0.769532 -0.1464854 c 1.003976 1.4108814 2.343852 2.4080054 3.871093 2.1523444 h 0.002 c 1.3501866 -0.229033 2.3222646 -1.300327 2.8437496 -2.5878914 0.521486 -1.287565 0.665765 -2.864545 0.384766 -4.515625 -0.26149 -1.535748 -0.854234 -2.897267 -1.681641 -3.923828 -0.8269826 -1.026037 -1.9403536 -1.761153 -3.2148426 -1.751953 h -0.002 -0.0039 c -0.159588 0.0016 -0.325214 0.01397 -0.49414 0.04297 h -0.002 c -0.99682 0.170783 -1.818095 0.823161 -2.36914 1.673828 -0.409743 0.632534 -0.561789 1.477223 -0.71875 2.310547 l -0.757813 0.142578 c -0.342518 -0.402674 -0.724587 -0.758849 -1.148437 -1.023438 v -6.40039 c 0 -0.464606 0.260051 -0.749268 0.632812 -0.757812 z" fill="#000000" stroke-width="3.50882912"/>
  <path d="m 6.1210938 5.4160156 c -0.1351434 0 -0.219367 0.064821 -0.2519532 0.1953125 -0.060594 0.232902 -0.1286003 0.6670275 -0.203125 1.3007813 -0.2190448 0.07002 -0.4317024 0.1584651 -0.6367187 0.265625 L 4.0644531 6.4296875 c -0.06057 -0.04659 -0.1210709 -0.070312 -0.1816406 -0.070312 -0.1025082 0 -0.3222979 0.1668178 -0.6601563 0.5 -0.3378583 0.3332557 -0.5662382 0.5842725 -0.6875 0.7519531 -0.041963 0.06057 -0.0625 0.1135661 -0.0625 0.1601563 0 0.055967 0.021769 0.1121242 0.068359 0.1679687 0.3121763 0.37752 0.5616372 0.6991108 0.7480469 0.9648438 C 3.1725503 9.1186166 3.0827505 9.3325553 3.0175781 9.546875 L 1.7167969 9.7421875 c -0.051242 0.00935 -0.095501 0.04053 -0.1328125 0.091797 -0.037385 0.051217 -0.056641 0.1043361 -0.056641 0.1601562 v 1.5527343 c 0 0.06067 0.019329 0.115122 0.056641 0.164063 0.037311 0.04892 0.08589 0.07671 0.1464844 0.08594 l 1.2792968 0.189453 c 0.065197 0.228299 0.1612694 0.45848 0.2871094 0.691406 -0.083828 0.116562 -0.2091991 0.282098 -0.3769531 0.494141 -0.1677296 0.212141 -0.2875978 0.366987 -0.3574219 0.464844 -0.037336 0.05146 -0.056641 0.104214 -0.056641 0.160156 0 0.0605 0.018195 0.113566 0.050781 0.160156 0.1817336 0.251778 0.5651557 0.642632 1.1523438 1.173828 0.051291 0.05127 0.1086557 0.07813 0.1738281 0.07813 0.069946 0 0.1292156 -0.02061 0.1757813 -0.0625 l 0.9863281 -0.748046 c 0.1911593 0.09786 0.4005825 0.183165 0.6289062 0.257812 L 5.86914 15.943367 c 0.00473 0.0605 0.031211 0.11068 0.080078 0.150391 0.048891 0.03971 0.1066536 0.05859 0.171875 0.05859 h 1.550782 c 0.1353882 0 0.219269 -0.06477 0.2519531 -0.195313 0.060496 -0.232926 0.1285758 -0.667052 0.203125 -1.300781 0.2190204 -0.06997 0.4317024 -0.158416 0.6367188 -0.265625 l 0.9628906 0.755859 c 0.065197 0.04191 0.125845 0.0625 0.1816406 0.0625 0.1024839 0 0.3227439 -0.165139 0.6582029 -0.496093 0.335631 -0.330783 0.565713 -0.583332 0.691406 -0.75586 0.04189 -0.04657 0.0625 -0.09966 0.0625 -0.160156 0 -0.06067 -0.02355 -0.120035 -0.07031 -0.175781 -0.335361 -0.41018 -0.582967 -0.729818 -0.746094 -0.962891 0.09318 -0.17243 0.182931 -0.385063 0.271485 -0.636719 l 1.292968 -0.195312 c 0.0558 -0.0094 0.103436 -0.04053 0.140625 -0.0918 0.03729 -0.05136 0.05469 -0.104263 0.05469 -0.160156 v -1.552735 c 1.22e-4 -0.060569 -0.0173 -0.115097 -0.05469 -0.164062 C 12.171556 9.808409 12.122996 9.78074 12.062502 9.771486 L 10.783203 9.5742188 c -0.06987 -0.2236966 -0.16597 -0.450545 -0.287109 -0.6835938 0.08378 -0.1164877 0.209223 -0.2820488 0.376953 -0.4941406 0.167729 -0.2120429 0.287451 -0.3669383 0.357422 -0.4648438 0.03729 -0.051266 0.05469 -0.1041893 0.05469 -0.1601562 0 -0.065197 -0.01607 -0.1169611 -0.04883 -0.1542969 -0.167656 -0.237676 -0.551201 -0.6329471 -1.152344 -1.1875 -0.0557 -0.04659 -0.1152846 -0.070312 -0.1757809 -0.070312 -0.069946 0 -0.1260057 0.020586 -0.1679687 0.0625 L 8.7480469 7.1699219 C 8.5569366 7.0720164 8.3473664 6.9866586 8.1191406 6.9121094 L 7.9238281 5.625 C 7.919152 5.5644303 7.892666 5.514222 7.84375 5.4746094 7.7947605 5.4349477 7.7372188 5.4160156 7.671875 5.4160156 Z m 0.7753906 3.578125 c 0.4940321 0 0.9162598 0.1759765 1.265625 0.5253906 0.349463 0.3495366 0.5234375 0.7696888 0.5234375 1.2636718 0 0.493934 -0.17395 0.91626 -0.5234375 1.265625 -0.3493896 0.349537 -0.7715929 0.525391 -1.265625 0.525391 -0.4939832 0 -0.9160885 -0.175854 -1.265625 -0.525391 -0.3494141 -0.349389 -0.5234375 -0.771691 -0.5234375 -1.265625 0 -0.493983 0.1739254 -0.9141352 0.5234375 -1.2636718 C 5.9803959 9.1701171 6.4025746 8.9941406 6.8964844 8.9941406 Z M 23.984375 15.919922 c -1.488125 -0.01161 -2.925208 1.772068 -3.326172 4.126953 -0.431083 2.532935 0.489104 4.802788 2.054688 5.068359 1.022036 0.17109 2.114981 -0.563009 2.861328 -1.917968 l 1.560547 0.298828 c 0.188181 1.294646 0.828854 2.275546 1.74414 2.43164 1.312929 0.223684 2.669902 -1.316944 3.03125 -3.441406 0.361661 -2.123986 -0.408066 -4.028088 -1.720703 -4.251953 -0.07913 -0.01316 -0.159346 -0.01917 -0.240234 -0.01953 -0.727842 -0.006 -1.437362 0.509505 -1.972657 1.324218 l -1.564453 -0.292968 c -0.140913 -1.799855 -0.986974 -3.104184 -2.138671 -3.300782 -0.09433 -0.01626 -0.190649 -0.02444 -0.28711 -0.02539 z" fill="#000000" stroke-width="0.05253834"/>
  <path d="m 2.1301754 -24.684346 c 0.124254 -0.0028 0.260551 0.02395 0.404297 0.08594 l 12.4550776 5.371094 c 0.574986 0.247967 1.039063 0.946931 1.039063 1.566406 v 13.5507814 c 0 0.619475 -0.464077 0.917889 -1.039063 0.669922 L 3.4875974 -8.4011436 c 0.264491 -0.438362 0.388389 -0.97486 0.53125 -1.498046 l 0.769532 -0.1464854 c 1.003976 1.4108814 2.343852 2.4080054 3.871093 2.1523444 h 0.002 c 1.3501866 -0.229033 2.3222646 -1.300327 2.8437496 -2.5878914 0.521486 -1.287565 0.665765 -2.864545 0.384766 -4.515625 -0.26149 -1.535748 -0.854234 -2.897267 -1.681641 -3.923828 -0.8269826 -1.026037 -1.9403536 -1.761153 -3.2148426 -1.751953 h -0.002 -0.0039 c -0.159588 0.0016 -0.325214 0.01397 -0.49414 0.04297 h -0.002 c -0.99682 0.170783 -1.818095 0.823161 -2.36914 1.673828 -0.409743 0.632534 -0.561789 1.477223 -0.71875 2.310547 l -0.757813 0.142578 c -0.342518 -0.402674 -0.724587 -0.758849 -1.148437 -1.023438 v -6.40039 c 0 -0.464606 0.260051 -0.749268 0.632812 -0.757812 z" fill="#000000" stroke-width="3.50882912"/>
  <path d="M 6.2382812 0.060546875 C 6.0594577 0.060546875 5.9474154 0.14764408 5.9042969 0.3203125 C 5.8241178 0.62849161 5.7353309 1.2024238 5.6367188 2.0410156 C 5.3468755 2.133667 5.0662024 2.2507827 4.7949219 2.3925781 L 3.5175781 1.4023438 C 3.4374315 1.340695 3.3574904 1.3105469 3.2773438 1.3105469 C 3.1417035 1.3105469 2.8513558 1.5298317 2.4042969 1.9707031 C 1.9572379 2.4116717 1.6526428 2.7429665 1.4921875 2.9648438 C 1.4366615 3.0449904 1.4101563 3.1160856 1.4101562 3.1777344 C 1.4101562 3.2517907 1.4403043 3.3264963 1.5019531 3.4003906 C 1.9150291 3.8999304 2.2455276 4.3241597 2.4921875 4.6757812 C 2.338017 4.9593721 2.2170964 5.2437529 2.1308594 5.5273438 L 0.41015625 5.7851562 C 0.34235231 5.7975314 0.28374586 5.8384137 0.234375 5.90625 C 0.18490696 5.9740215 0.16015625 6.0452787 0.16015625 6.1191406 L 0.16015625 8.171875 C 0.16015625 8.2521512 0.18500414 8.3239131 0.234375 8.3886719 C 0.28374586 8.4533982 0.34950845 8.4936462 0.4296875 8.5058594 L 2.1210938 8.7558594 C 2.2073632 9.0579481 2.3354399 9.3617104 2.5019531 9.6699219 C 2.3910307 9.8241572 2.2239276 10.041688 2.0019531 10.322266 C 1.780011 10.602973 1.6216891 10.808015 1.5292969 10.9375 C 1.4798936 11.005595 1.4550781 11.076367 1.4550781 11.150391 C 1.4550781 11.23044 1.4783659 11.301632 1.5214844 11.363281 C 1.7619567 11.696437 2.2698995 12.215082 3.046875 12.917969 C 3.1147437 12.985805 3.1911067 13.019531 3.2773438 13.019531 C 3.3698979 13.019531 3.4481492 12.990976 3.5097656 12.935547 L 4.8125 11.945312 C 5.0654447 12.074798 5.3443632 12.190288 5.6464844 12.289062 L 5.9042969 13.990234 C 5.9105492 14.070284 5.9470572 14.136908 6.0117188 14.189453 C 6.0764127 14.241999 6.1519794 14.267578 6.2382812 14.267578 L 8.2910156 14.267578 C 8.4701632 14.267578 8.5817519 14.180546 8.625 14.007812 C 8.7050495 13.699601 8.7939336 13.127622 8.8925781 12.289062 C 9.1823889 12.196476 9.4630945 12.07936 9.734375 11.9375 L 11.009766 12.935547 C 11.096035 12.991008 11.17617 13.019531 11.25 13.019531 C 11.385608 13.019531 11.675256 12.799252 12.119141 12.361328 C 12.563252 11.923632 12.868837 11.591573 13.035156 11.363281 C 13.090585 11.301665 13.119141 11.23044 13.119141 11.150391 C 13.119141 11.070114 13.089219 10.993687 13.027344 10.919922 C 12.583589 10.377166 12.252961 9.950984 12.037109 9.6425781 C 12.160407 9.4144161 12.281263 9.1337754 12.398438 8.8007812 L 14.109375 8.5429688 C 14.183205 8.5305612 14.24376 8.4897113 14.292969 8.421875 C 14.342307 8.3539091 14.367187 8.2829435 14.367188 8.2089844 L 14.367188 6.15625 C 14.367349 6.0761033 14.342437 6.0042443 14.292969 5.9394531 C 14.243436 5.8745972 14.179659 5.8345112 14.099609 5.8222656 L 12.40625 5.5644531 C 12.313793 5.2684548 12.187637 4.9665766 12.027344 4.6582031 C 12.138201 4.504065 12.305402 4.2865022 12.527344 4.0058594 C 12.749286 3.7252813 12.90546 3.5201749 12.998047 3.390625 C 13.047385 3.3227887 13.072266 3.2517907 13.072266 3.1777344 C 13.072266 3.091465 13.051158 3.0240126 13.007812 2.9746094 C 12.785968 2.6601131 12.277863 2.1361359 11.482422 1.4023438 C 11.408722 1.340695 11.330049 1.3105469 11.25 1.3105469 C 11.157446 1.3105469 11.084823 1.3371169 11.029297 1.3925781 L 9.7148438 2.3828125 C 9.4619639 2.2532626 9.1848041 2.1396602 8.8828125 2.0410156 L 8.6230469 0.33789062 C 8.6168593 0.25774397 8.5823045 0.19108792 8.5175781 0.13867188 C 8.4527546 0.086191043 8.3774794 0.060546875 8.2910156 0.060546875 L 6.2382812 0.060546875 z M 7.2636719 4.796875 C 7.9173822 4.796875 8.4752151 5.0278847 8.9375 5.4902344 C 9.3999144 5.952746 9.6328125 6.510417 9.6328125 7.1640625 C 9.6328125 7.8176432 9.3999468 8.3756058 8.9375 8.8378906 C 8.4751827 9.3004023 7.9173822 9.53125 7.2636719 9.53125 C 6.6100263 9.53125 6.0523554 9.3004023 5.5898438 8.8378906 C 5.1274941 8.3755734 4.8964844 7.8176432 4.8964844 7.1640625 C 4.8964844 6.510417 5.1273645 5.952746 5.5898438 5.4902344 C 6.0523554 5.0278847 6.6101235 4.796875 7.2636719 4.796875 z M 20.482422 6.9511719 C 18.362994 6.9511719 16.615291 8.4396688 16.191406 10.453125 L 14.896484 10.453125 C 14.50659 11.141292 14.037116 11.78046 13.496094 12.357422 L 16.138672 12.357422 C 16.562557 14.317881 18.365196 15.855469 20.431641 15.855469 C 22.551069 15.855469 24.294864 14.370869 24.71875 12.357422 L 32 12.357422 L 32 10.453125 L 24.775391 10.453125 C 24.351506 8.4926643 22.548865 6.9511719 20.482422 6.9511719 z M 20.482422 8.9160156 C 21.860051 8.9160156 23.025391 10.026427 23.025391 11.457031 C 23.025391 12.834669 21.913037 14 20.482422 14 C 19.104794 14 17.9375 12.887635 17.9375 11.457031 C 17.9375 10.026427 19.051807 8.9160156 20.482422 8.9160156 z M 26.039062 13.587891 L 19.378906 25.134766 L 22.310547 25.134766 L 23.662109 22.566406 L 27.802734 22.566406 L 28.132812 25.134766 L 30.789062 25.134766 L 29.138672 13.587891 L 26.039062 13.587891 z M 27.158203 15.648438 L 27.207031 15.648438 C 27.201773 15.686086 27.194922 15.745618 27.189453 15.826172 C 27.184195 15.901468 27.179297 15.987445 27.173828 16.083984 L 27.173828 16.390625 C 27.179086 16.492632 27.183985 16.586063 27.189453 16.671875 L 27.609375 20.568359 L 24.636719 20.568359 L 26.748047 16.638672 C 26.796358 16.547391 26.841817 16.453961 26.884766 16.357422 C 26.933077 16.260673 26.971685 16.169797 27.003906 16.083984 C 27.041491 15.992704 27.074725 15.90907 27.101562 15.833984 C 27.128421 15.758899 27.147477 15.696812 27.158203 15.648438 z M 7.5722656 23.033203 C 5.5058234 23.033203 3.7031816 24.574701 3.2792969 26.535156 L 0 26.535156 L 0 28.441406 L 3.3339844 28.441406 C 3.7578696 30.454853 5.5036182 31.939453 7.6230469 31.939453 C 9.6894911 31.939453 11.492131 30.401861 11.916016 28.441406 L 31.994141 28.441406 L 31.994141 26.535156 L 11.861328 26.535156 C 11.437443 24.521705 9.6916943 23.033203 7.5722656 23.033203 z M 7.5722656 25 C 9.0028813 25 10.117188 26.108456 10.117188 27.539062 C 10.117188 28.969672 8.9498943 30.083984 7.5722656 30.083984 C 6.1416515 30.083984 5.0292969 28.9167 5.0292969 27.539062 C 5.0292969 26.108456 6.1946365 25 7.5722656 25 z " fill="#000000" stroke-width="0.13246433"/>
  <rect x="192" y="192" width="42.667" height="128" fill="#000000"/>
  <rect x="192" y="106.667" width="42.667" height="42.667" fill="#000000"/>
</svg>