<?xml version="1.0" encoding="UTF-8"?>
<svg xmlns="http://www.w3.org/2000/svg" width="32" height="32" viewBox="0 0 32 32">
  <title>ImplantType.AnyImplant.Parameter</title>
  <path d="M29.344654,36.013806 C28.347033,36.013806 27.545446,36.130535 27.545446,36.269501 27.545446,36.40847 28.347033,36.516087 29.344654,36.516087 30.342489,36.516087 31.153193,36.40847 31.153193,36.269501 31.153193,36.130535 30.342489,36.013806 29.344654,36.013806 z M32.14658,35.955658 L32.151135,35.964337 C32.16209,35.993084 32.161659,36.022701 32.14875,36.053074 z M29.344654,35.767002 C30.736937,35.767002 31.865606,35.979305 31.865606,36.242054 31.865606,36.504807 30.736937,36.716999 29.344654,36.716999 27.952478,36.716999 26.823917,36.504807 26.823917,36.242054 26.823917,35.979305 27.952478,35.767002 29.344654,35.767002 z M29.473749,31.584166 C30.516281,31.594797 31.561199,31.777594 32.061745,32.122357 L32.14658,35.955658 32.136383,35.935913 C31.767538,35.372769 26.990114,35.166866 26.562143,35.983753 L26.735285,32.226502 C27.114111,31.781174 28.292357,31.572016 29.473749,31.584166 z M28.358643,31.009524 C28.426228,31.008982 28.494789,31.009308 28.564001,31.010609 29.782604,31.033499 31.217197,31.334761 31.217197,31.334761 30.128233,31.261534 27.551411,30.914059 27.657618,31.499439 27.657618,31.499439 26.865791,31.373816 27.191137,31.20664 27.462128,31.067347 27.885866,31.013865 28.358643,31.009524 z M28.336618,29.837784 C29.570625,29.828671 31.58127,30.113117 32.027355,30.470139 32.576286,30.909285 31.560658,31.14719 31.560658,31.14719 L31.405092,31.028183 C31.637682,30.123423 28.523754,30.122664 27.836508,30.406025 27.815352,30.406025 26.361015,30.159006 27.635162,29.893654 27.808409,29.857527 28.051849,29.839846 28.336618,29.837784 z M28.336618,28.665934 C29.570625,28.656822 31.58127,28.941376 32.027355,29.29829 32.576393,29.737543 31.560658,29.975451 31.560658,29.975451 L31.405092,29.856444 C31.637682,28.951574 28.523863,28.950924 27.836508,29.234177 27.815352,29.234177 26.361015,28.987158 27.635162,28.721804 27.808409,28.685679 28.051849,28.667996 28.336618,28.665934 z M28.336618,27.494194 C29.570625,27.485081 31.58127,27.769636 32.027355,28.126549 32.576393,28.565804 31.560658,28.803709 31.560658,28.803709 L31.405092,28.684702 C31.637682,27.779833 28.523863,27.779183 27.836508,28.062435 27.815352,28.062435 26.361015,27.815416 27.635162,27.550064 27.808409,27.513937 28.051849,27.496254 28.336618,27.494194 z M11.683611,27.039904 C10.193758,27.031599 8.5417204,28.533135 7.5273919,31.128285 7.5273919,31.128285 10.068411,28.840666 11.736514,28.938755 13.362933,29.034466 14.925244,32.701344 14.925244,32.701344 14.671764,28.768524 13.269581,27.048742 11.683611,27.039904 z M28.336618,26.322344 C29.570625,26.313233 31.58127,26.597786 32.027355,26.954701 32.576393,27.393953 31.560658,27.631861 31.560658,27.631861 L31.405092,27.512854 C31.637682,26.607985 28.523863,26.607334 27.836508,26.890587 27.815352,26.890587 26.361015,26.643566 27.635162,26.378214 27.808409,26.342089 28.051849,26.324406 28.336618,26.322344 z M28.336618,25.150604 C29.570625,25.141491 31.58127,25.426047 32.027355,25.782852 32.576393,26.222214 31.560658,26.460119 31.560658,26.460119 L31.405092,26.341112 C31.637682,25.436243 28.523863,25.435593 27.836508,25.718846 27.815352,25.718846 26.361015,25.471718 27.635162,25.206474 27.808409,25.170347 28.051849,25.152664 28.336618,25.150604 z M13.058549,10.264248 L13.217215,10.317621 C14.53396,10.801644 15.657534,11.585181 16.613518,12.535011 L16.814051,12.742026 16.739931,12.795968 C15.446884,13.657981 14.159124,13.581539 13.196018,13.532928 z M9.6590529,9.7204982 C10.37461,9.7117244 11.140017,9.7849685 11.957125,9.9596454 L12.133009,10.000027 6.3683858,15.639755 13.380741,21.557421 C13.370746,20.590721 13.356685,19.315258 13.34669,18.348559 13.373445,18.312006 14.468692,18.458016 16.5187,18.056372 16.645628,18.031504 16.771935,18.001372 16.897198,17.96673 L17.019598,17.93058 16.94401,18.265169 C16.596069,19.868805 16.420553,21.285339 16.580984,21.912911 16.74741,22.563727 17.33065,23.858238 18.080622,25.185751 L18.291275,25.548096 18.286076,25.594698 C18.087276,27.483229 18.072693,33.69841 17.476227,34.678299 17.183178,35.159645 16.790649,35.335217 16.392641,35.343552 16.335758,35.344734 16.278793,35.342514 16.221994,35.337284 15.767518,35.295452 15.318603,35.045056 15.031535,34.805843 14.45748,34.327496 13.602003,32.55798 12.693132,31.362118 11.784262,30.166182 11.067048,29.741165 10.014602,30.171694 8.9622364,30.602221 6.8526106,33.179558 5.6566711,33.849255 4.4607311,34.518952 3.0631712,33.227478&#xA;2.8718467,32.892662 2.6805237,32.557781 2.595491,21.652743 2.4041665,21.413574 2.2128425,21.174334 0.049573028,19.271832 0.0019901371,19.032726 -0.045590761,18.793484 0.77260075,16.455319 1.1074163,15.737803 1.4004532,15.109976 3.9345932,9.7906839 9.6590529,9.7204982 z M29.669237,7.9211022 C31.528654,7.9118806 33.347176,8.298628 35.133366,9.0131065 35.553524,11.054567 35.658104,11.209808 36.877789,12.550134 37.348503,13.611762 40.618649,19.887806 40.202503,21.777388 39.686878,24.118918 36.089436,27.23958 34.800102,27.299681 34.15538,27.329514 33.180328,26.383204 32.245407,25.339367 L32.028984,25.094193 31.99991,25.11437 C31.814619,25.228821 31.560658,25.288271 31.560658,25.288271 L31.405092,25.169264 C31.637682,24.264395 28.523863,24.263743 27.836508,24.546997 27.815352,24.546997 26.361015,24.29987 27.635162,24.034624 28.357124,23.884264 30.296709,24.052633 31.372547,24.342829 L31.380032,24.344998 31.230215,24.170338 C30.697449,23.549482 30.234655,23.019209 29.932529,22.794104 27.917219,21.564108 24.158463,22.298981 23.707277,22.479065 23.255983,22.659258 25.638294,22.676182 26.347347,23.036242 27.012136,23.373953 25.110086,24.547539 24.869684,24.692907 L24.853519,24.702671 24.874458,24.690521 C25.011147,24.611979 25.618551,24.28121 26.591761,24.016073 26.422852,24.352917 26.420464,24.689871 26.644484,25.026714 26.453337,25.1301 26.285618,25.2426 26.153702,25.362583 24.70327,26.713431 24.119951,27.55809 23.294928,27.566553 23.019705,27.566553 22.721483,27.495062 22.350792,27.299681 20.868139,26.519243 18.700085,22.408117 18.37767,21.14731 18.216517,20.516907 18.455318,18.947218 18.86334,17.287474 L18.929043,17.031618 18.949207,17.019392 C19.828713,16.465365 20.420774,15.913124 20.420776,15.913124 20.420774,15.913124 22.404436,17.658478 24.435301,18.056372 26.48531,18.458017 27.580555,18.312006 27.607311,18.348559 27.597317,19.315258 27.583254,20.590721 27.573259,21.557421 L34.585617,15.639756 27.942701,9.1407663 27.75798,13.532928 C26.794876,13.58154 25.507118,13.657982 24.214069,12.795968 23.544487,12.34959 23.219421,11.488595 23.0541,10.589646 L23.016876,10.360239 23.264347,10.190952 C24.055546,9.6521064 24.67412,9.2319671 24.64588,8.916772 26.356026,8.2455789 28.028524,7.929238 29.669237,7.9211022 z M29.545565,3.8718103 C31.212099,3.885805 32.791733,4.450575 34.087578,5.1645113 L35.002316,8.4382469 C32.099064,7.173535 28.938814,6.8344127 24.63308,8.3158761 L25.59219,5.0274955 C26.900724,4.1831609 28.249397,3.860962 29.545565,3.8718103 z M11.635934,0.22684182 C14.274945,0.20218074 16.932913,1.1792284 18.16552,3.0976483 L18.184771,3.1296169 18.181545,3.3892225 C18.156921,5.3704211 18.12878,7.6346485 18.12878,7.6346485 L18.101397,8.1556074 C18.066973,8.8285695 18.064219,9.930215 17.830055,10.924237 L17.802082,11.029275 17.671457,10.884723 C13.76046,6.7618596 7.1727295,5.5916854 3.6424573,10.784891 3.6424566,10.784891 3.8217397,10.063089 3.9295257,8.9671518 4.2165943,6.0491134 4.5393706,5.3384067 4.7906485,4.422722 5.5589371,1.6228974 8.5847674,0.25535472 11.635934,0.22684182 z M28.216202,0 L32.965633,0.51616879 33.921166,0.95748432 33.991463,4.2601844 C33.396317,3.9631545 32.76841,3.7076737 32.11718,3.5159813 L31.885025,3.4507824 31.861485,3.4444908 31.649508,3.3907906 31.58626,3.3759281 31.399776,3.3339447 31.295416,3.312682 31.141693,3.2825228 30.909645,3.243143 30.877859,3.2378277 30.586037,3.1983386 30.582132,3.1979057 30.291935,3.1688312 30.281414,3.1680721 29.9897,3.1493038 C29.390432,3.1217491 28.780972,3.1596102 28.167275,3.277316 L28.167275,3.2765561 28.00314,3.3087768 C27.295498,3.4610883 26.583082,3.7216681 25.875114,4.1126458 L25.60141,4.2704908 25.538815,1.4717002 z" fill="#FFFFFF" stroke-width="0.29868802"/>
  <path d="M8.0264244,0 C8.0264244,0 8.0989586,3.6957715 8.0989586,3.6957715 L8.1054646,3.8136187 C8.1401732,4.3953605 8.1984793,4.8774071 8.2945032,5.1695905 8.4341307,5.5946293 8.5961719,6.3086515 9.3365202,6.7746516 10.076869,7.2405615 11.452823,7.1603532 11.999036,7.136715 L12.070812,5.3169241 14.561955,7.7883935 11.93947,10.049013 C11.945138,9.5789523 11.979152,9.2553239 11.98482,8.7852636 11.969646,8.7674899 10.556625,8.9565063 9.370882,8.54067 8.2687755,8.1541562 7.281846,7.0554839 7.281846,7.0554839 7.281846,7.0554839 6.2946799,8.1541648 5.1923034,8.5406432 4.0062447,8.9564624 2.5929358,8.7674737 2.5777144,8.7852865 2.5834315,9.2552829 2.6173761,9.5789361 2.6230929,10.049006 L0,7.7883826 2.4916739,5.3168927 2.5634935,7.1367145 C3.1098938,7.1602922 4.486185,7.2405587 5.2266768,6.7746277 5.9671685,6.3086224 6.1293163,5.5946479 6.2689535,5.1695891 6.3650032,4.8773866 6.423324,4.3953343 6.4580404,3.8135927 L6.4647963,3.6912403 C6.4647963,3.6912403 6.4984902,0.24960463 6.497061,0.019142644 L7.281647,0.0093221856 z" fill="White" stroke="White" stroke-width="0"/>
</svg>