<?xml version="1.0" encoding="UTF-8"?>
<svg xmlns="http://www.w3.org/2000/svg" width="32" height="32" viewBox="0 0 32 32">
  <title>ImplantType.StockAbutment.Parameter</title>
  <path d="M46.794177,139.06137 C41.68487,139.06125 36.784727,140.18402 33.17171,142.18271 29.558727,144.1814 27.528868,146.89232 27.528694,149.71899 27.528128,152.54611 29.557674,155.25731 33.170726,157.25641 36.783815,159.25539 41.684377,160.37845 46.794177,160.37817 L48.383821,160.37817 C53.49362,160.37845 58.394186,159.25539 62.007272,157.25642 65.620327,155.25731 67.649874,152.54611 67.649309,149.71901 67.649134,146.89232 65.619274,144.18141 62.006288,142.18272 58.39327,140.18402 53.493132,139.06125 48.383821,139.06139 z M47.655001,50.23397 L47.655001,50.239738 53.236732,50.483593 C88.211334,53.518543 105.98827,77.752739 88.164024,92.957756 85.178539,96.621429 83.069332,150.36772 83.004982,150.14911 82.192978,160.51657 67.856504,168.7509 50.111336,169.26092 L48.38379,169.28593 47.589,169.27451 46.794212,169.28593 45.066659,169.26092 C27.321497,168.75088 12.985027,160.51656 12.173019,150.14909 12.108669,150.36772 9.9994621,96.621429 7.0139771,92.957748 -10.810261,77.752731 6.9666672,53.518539 41.941269,50.483593 L47.523,50.239738 47.523,50.233974 47.588972,50.236854 z M47.585197,-0.085067677 L47.589023,-0.084873343 47.592803,-0.085065154 C63.717888,-0.073545781 77.723289,6.5636068 81.449772,15.961111 81.416332,15.71832 81.399471,15.649613 81.372219,15.499272 81.404324,15.644131 81.496765,15.982046 81.550926,16.200531 81.816883,16.904178 82.021725,17.615411 82.164608,18.331707 83.646477,23.134149 88.996452,43.106449 93.977978,59.61306 86.132118,49.387985 69.147808,43.126293 51.738637,42.14212 L47.655001,42.050148 47.588889,42.048656 47.523,42.05014 43.439363,42.14212 C26.030193,43.126289 9.0458832,49.387981 1.2000198,59.613056 6.1815491,43.106445 11.531525,23.134145 13.01339,18.331703 13.156281,17.615409 13.361115,16.904176 13.627071,16.200531 13.681244,15.982044 13.773674,15.644129 13.805786,15.499269 13.778534,15.64961 13.761665,15.718318 13.728222,15.961109 17.454714,6.5636044 31.460114,-0.073547653 47.585197,-0.085067677 z" fill="#FFFFFF" stroke-width="1.74157333"/>
  <path d="M44.041667,28.958333" fill="#FFFFFF" stroke-width="1.74157333"/>
</svg>