<?xml version="1.0" encoding="UTF-8"?>
<svg xmlns="http://www.w3.org/2000/svg" width="32" height="32" viewBox="0 0 32 32">
  <title>Import.DentalProjectFallback.ContinueIteroImport.Icon</title>
  <path d="M26.278015,8.1595699 C25.756834,8.1597244 25.26532,8.3640281 24.892858,8.7337896 24.51186,9.1117889 24.301649,9.6223804 24.301649,10.17168 24.301649,11.23728 25.225616,12.172071 26.278015,12.172071 27.331017,12.172071 28.254383,11.23728 28.254383,10.17168 28.254383,9.6226799 28.045643,9.1117889 27.664343,8.7337896 27.297041,8.3661405 26.798275,8.1593544 26.278601,8.1595699 z M13.622352,8.1595699 C12.604752,8.1595699 12.070587,8.775859 11.879188,9.4058591 L11.863367,9.4609377 15.387196,9.4609377 C15.190095,8.6830379 14.498352,8.1595699 13.622352,8.1595699 z M18.44286,6.8347661 L22.079187,6.8347661 22.079773,6.8347661 22.079773,8.5046875 20.112196,8.5046875 20.112196,13.525 18.44286,13.525 z M3.1797733,6.8347661 L4.8496952,6.8347661 4.8496952,13.524414 3.1797733,13.524414 z M26.278015,6.6912109 C27.268015,6.6912109 28.181839,7.0596344 28.852039,7.7277342 29.503233,8.3740875 29.868679,9.2541734 29.866297,10.17168 29.866297,11.11218 29.514992,11.980741 28.878992,12.619141 28.221691,13.27764 27.297716,13.641016 26.278015,13.641016 25.258316,13.641016 24.334911,13.27764 23.678211,12.619141 23.041311,11.980741 22.69911,11.11218 22.69911,10.17168 22.69911,9.2476799 23.050863,8.3799345 23.705164,7.7277342 24.374464,7.0596344 25.288916,6.6912109&#xD;&#xA;26.278015,6.6912109 z M13.634656,6.6912109 C14.631256,6.6912109 15.524586,7.0756237 16.150085,7.7740237 16.757887,8.4526235 17.089668,9.3768579 17.113367,10.451758 L17.114538,10.576563 17.114538,10.810938 11.870398,10.810938 C11.972154,11.160897 12.174618,11.47316 12.45282,11.708594 12.81102,12.011594 13.276977,12.172071 13.800477,12.172071 14.437676,12.172071 15.033406,11.886827 15.528406,11.344727 L15.595789,11.26914 16.666883,12.342578 C15.828382,13.226978 14.917095,13.641016 13.812195,13.641016 12.718995,13.641016 11.791016,13.268462 11.128015,12.564062 10.530415,11.928363 10.201062,11.074361 10.201062,10.159961 10.201062,9.2251608 10.534077,8.359975 11.137977,7.7218753 11.766777,7.0573751 12.653956,6.6912109 13.634656,6.6912109 z M4.8508672,3.4949221 L11.141492,3.4949221 11.141492,5.1648437 8.8311405,5.1648437 8.8311405,13.525 7.1606326,13.525 7.1606326,5.1648437 4.8508672,5.1648437 z M3.1797733,1.8250003 L4.8496952,1.8250003 4.8496952,3.4949221 3.1797733,3.4949221 z M0,0 L32,0 32,0.02851586 31.979773,0.02851586 31.979773,0.025000215 1.3797732,0.025000215 1.3797732,0.02851586 0.77977344,0.02851586 0,0.02851586 z" fill="#FFFFFF"/>
  <path d="M3.4794922,5.3482027 L3.4794922,8.3970308 L4.5869141,8.3970308 C5.1155596,8.3970308 5.5405273,8.2432222 5.8618164,7.935605 C6.1831055,7.6279883 6.34375,7.2440367 6.34375,6.7837496 C6.34375,5.8267183 5.7718096,5.3482027 4.6279297,5.3482027 z M1.2236328,3.6323824 L4.9355469,3.6323824 C7.4557285,3.6323824 8.7158203,4.5894136 8.7158203,6.5034761 C8.7158203,7.2235284 8.5050449,7.8410416 8.0834961,8.3560152 C7.6619463,8.8709888 7.0820313,9.2332935 6.34375,9.4429293 L6.34375,9.470273 C6.8313799,9.6343355 7.371419,10.172096 7.9638672,11.083554 L9.9599609,14.22125 L7.3623047,14.22125 L5.7011719,11.466367 C5.359375,10.896706 5.0791016,10.529843 4.8603516,10.365781 C4.6416016,10.201718 4.4091797,10.119687 4.1630859,10.119687 L3.4794922,10.119687 L3.4794922,14.22125 L1.2236328,14.22125 z M10.125299,3.6323824 L12.873346,3.6323824 L14.452448,6.8726168 C14.580051,7.13694 14.689426,7.428607 14.780573,7.7476168 L14.807917,7.7476168 C14.90362,7.4605074 15.019831,7.1574478 15.156549,6.8384371 L16.899714,3.6323824 L19.422174,3.6323824 L16.222956,8.8823824 L19.504206,14.22125 L16.824518,14.22125 L14.924128,10.707578 C14.855768,10.579973 14.78513,10.349831 14.712214,10.017148 L14.68487,10.017148 C14.648411,10.181211 14.56638,10.41819 14.438776,10.728086 L12.531549,14.22125 L9.8313541,14.22125 L13.228815,8.923398 z" fill="White"/>
</svg>