<?xml version="1.0" encoding="UTF-8"?>
<svg xmlns="http://www.w3.org/2000/svg" width="32" height="32" viewBox="0 0 32 32">
  <title>LaboratoryIcon</title>
  <path d="M22.38,12.3 L24.22,16.86 C24.22,16.86 24.56,17.66 24.65,17.93 24.813602,18.436867 24.89134,18.967509 24.880001,19.5 24.87908,19.872674 24.842243,20.244391 24.77,20.609999 24.240686,23.237183 21.92997,25.125105 19.25,25.119999 L0,25.119999 0,21.119999 2.4169998,21.119999 2.4169998,19.25 0.88000011,19.25 0.88000011,17.25 5.8800001,17.25 5.8800001,19.25 4.4169998,19.25 4.4169998,21.119999 19.210001,21.119999 C20.13166,21.109107 20.874611,20.361706 20.88,19.44 20.88,19.36 20.65,18.7 20.65,18.7 L20.54,18.43 18.71,13.9 18.649999,13.75 C20.028955,13.739785 21.356205,13.22383 22.38,12.3 z M18.700001,4.3999999 C20.743454,4.4000001 22.4,6.0565466 22.4,8.0999997 22.4,10.143454 20.743454,11.8 18.700001,11.8 16.656546,11.8 15,10.143454 15,8.0999997 15,6.0565466 16.656546,4.4000001 18.700001,4.3999999 z M0,4.3699999 L14.44,4.3699999 C13.511112,5.3978915 12.997824,6.7345805 13,8.1200006 12.994787,8.2032523 12.994787,8.2867484 13,8.3700004 L4.3330002,8.3700004 4.3330002,15.083 2.3330002,15.083 2.3330002,8.3700004 0,8.3700004 z M0.88000011,0 L5.8800001,0 5.8800001,2.0000002 0.88000011,2.0000002 z" fill="#000000"/>
</svg>