<?xml version="1.0" encoding="UTF-8"?>
<svg xmlns="http://www.w3.org/2000/svg" width="32" height="32" viewBox="0 0 32 32">
  <title>MaterialColor</title>
  <path d="M9.9303236,31.448939 L9.9303236,34.322998 4.8983946,34.322998 4.9672713,34.308003 C6.7997088,33.885002 8.4371414,32.95229 9.7222156,31.667216 z M6.3768916,0.0001773125 C6.4414663,-0.00086003584 6.5065288,0.0029850841 6.5770855,0.003168427 7.9906454,0.0069217548 10.221826,0.74423877 10.772723,1.6663047 11.360486,2.6498314 11.566783,10.289292 12.171391,11.078181 12.289433,11.232322 12.446169,11.292471 12.625,11.342763 12.356326,12.391992 11.751107,13.178838 10.961808,13.761892 10.071802,14.419286 8.9155636,14.805141 7.6732659,14.895837 L7.6732659,16.124485 7.445395,15.993463 C6.5354404,15.499146 5.5391459,15.143625 4.4849238,14.955315 L4.4224424,14.944963 4.4224424,14.480045 C2.441993,13.834187 0.7089775,12.491752 0,10.435589 0.13500845,10.382642 0.26672105,10.306808 0.37804792,10.246598 0.88915155,9.9692003 0.85619286,9.1129896 0.90721766,8.659052 0.95824269,8.2051145 1.301257,2.2465819 1.9655572,1.3639133 2.6298573,0.48127529 4.9325695,0.10402629 6.3124389,0.003168427 6.3339233,0.0013982092 6.3554072,0.0005132213 6.3768916,0.0001773125 z" fill="#000000" stroke-width="1"/>
  <path d="M0.032226756,4.1976638 L4.2391562,4.1976638 4.206315,4.3690763 C4.104917,4.9367342 4.052,5.5211873 4.052,6.118 4.052,6.203259 4.0530801,6.2882657 4.0552268,6.3730073 L4.0617032,6.5434604 4.045908,6.5429168 C4.0004191,6.5418916 3.954206,6.5413804 3.9072621,6.5413804 L1.4697398,6.5413804 1.4697398,13.260036 4.0635133,13.260036 C4.8273144,13.260036 5.4348636,13.05905 5.87603,12.697543 6.0139704,12.584573 6.1267343,12.462041 6.2165852,12.328141 L6.2303915,12.306096 6.3081117,12.402597 C6.7611461,12.951549 7.2723236,13.450736 7.8322163,13.890734 L7.8447976,13.900379 7.8447976,15.76 0.032226756,15.76 z M2.2415974,0 L5.6152854,3.0515075E-05 5.8850756,0.38451283 5.8748078,0.39859145 C5.2779274,1.2379267 4.8089156,2.1745308 4.4961853,3.1799901 L4.4905186,3.1990388 0,3.2143099 z" fill="#000000" stroke-width="1"/>
</svg>