<?xml version="1.0" encoding="UTF-8"?>
<svg xmlns="http://www.w3.org/2000/svg" width="32" height="32" viewBox="0 0 32 32">
  <title>Materials</title>
  <path d="m 15.878906 3.84375 c -0.06526 0.0117 -0.137573 0.042106 -0.224609 0.1035156 L 8.5839844 6.2890625 h 1.5253906 1.5 V 11.3125 H 7.5644531 v 4.042969 H 4.1933594 l 0.029297 4.722656 c 0.0069 0.38086 0.09812 0.733889 0.5253907 0.974609 L 16.066406 27.5 c 0.162379 0.17494 0.465492 0.255438 1.050782 0.148438 l 0.734374 -0.332032 -0.607421 0.261719 c -0.487659 0.210306 -0.88086 -0.04297 -0.88086 -0.568359 V 15.517578 c 0 -0.52539 0.393201 -1.119772 0.88086 -1.330078 L 27.808594 9.6328125 c 0.121914 -0.052575 0.236414 -0.07464 0.341797 -0.072266 0.316146 0.00725 0.537109 0.2485356 0.537109 0.6425781 v 1.373047 l 0.04883 -1.6171876 c -0.0195 -0.27085 -0.0398 -0.540948 -0.300781 -0.6738282 L 16.447266 3.9804688 c -0.243668 -0.03 -0.37257 -0.1697757 -0.56836 -0.1347657 z" fill="#000000" stroke-width="0.84812182"/>
  <path d="m 14.922944 -2.6448226 c 0.0014 7.78e-4 0.0019 10e-4 0.0016 8.33e-4 z" fill="#000000" stroke-width="0.05554198"/>
  <path d="m 2.1301754 -24.684346 c 0.124254 -0.0028 0.260551 0.02395 0.404297 0.08594 l 12.4550776 5.371094 c 0.574986 0.247967 1.039063 0.946931 1.039063 1.566406 v 13.5507814 c 0 0.619475 -0.464077 0.917889 -1.039063 0.669922 L 3.4875974 -8.4011436 c 0.264491 -0.438362 0.388389 -0.97486 0.53125 -1.498046 l 0.769532 -0.1464854 c 1.003976 1.4108814 2.343852 2.4080054 3.871093 2.1523444 h 0.002 c 1.3501866 -0.229033 2.3222646 -1.300327 2.8437496 -2.5878914 0.521486 -1.287565 0.665765 -2.864545 0.384766 -4.515625 -0.26149 -1.535748 -0.854234 -2.897267 -1.681641 -3.923828 -0.8269826 -1.026037 -1.9403536 -1.761153 -3.2148426 -1.751953 h -0.002 -0.0039 c -0.159588 0.0016 -0.325214 0.01397 -0.49414 0.04297 h -0.002 c -0.99682 0.170783 -1.818095 0.823161 -2.36914 1.673828 -0.409743 0.632534 -0.561789 1.477223 -0.71875 2.310547 l -0.757813 0.142578 c -0.342518 -0.402674 -0.724587 -0.758849 -1.148437 -1.023438 v -6.40039 c 0 -0.464606 0.260051 -0.749268 0.632812 -0.757812 z" fill="#000000" stroke-width="3.50882912"/>
  <path d="M 4.0429688 3.7460938 L 4.0429688 7.7910156 L 0 7.7910156 L 0 9.8125 L 4.0429688 9.8125 L 4.0429688 13.855469 L 6.0664062 13.855469 L 6.0664062 9.8125 L 10.109375 9.8125 L 10.109375 7.7910156 L 6.0664062 7.7910156 L 6.0664062 3.7460938 L 4.0429688 3.7460938 z M 24.021484 13.810547 C 22.540082 13.798987 21.11009 15.575676 20.710938 17.919922 C 20.281802 20.441414 21.195395 22.700472 22.753906 22.964844 C 23.771325 23.13516 24.860541 22.405479 25.603516 21.056641 L 27.15625 21.353516 C 27.343581 22.642313 27.981426 23.618048 28.892578 23.773438 C 30.199575 23.99611 31.552394 22.462521 31.912109 20.347656 C 32.272136 18.233266 31.503972 16.338088 30.197266 16.115234 C 30.118492 16.102131 30.039507 16.096068 29.958984 16.095703 C 29.234431 16.089766 28.52897 16.60303 27.996094 17.414062 L 26.4375 17.123047 C 26.297223 15.331323 25.455088 14.031647 24.308594 13.835938 C 24.214692 13.819747 24.119463 13.811497 24.023438 13.810547 L 24.021484 13.810547 z " fill="#000000" stroke-width="0.05230099"/>
</svg>