<?xml version="1.0" encoding="UTF-8"?>
<svg xmlns="http://www.w3.org/2000/svg" width="110" height="54" viewBox="0 0 110 54">
  <title>myItero</title>
  <path d="M 6 0 L 6 0.01171875 L 4 0.01171875 L 0.12109375 0.01171875 L 0.12109375 54 L 4 54 L 6 54 L 108 54 L 110.05078 54 L 110.05078 0.01171875 L 108 0.01171875 L 108 0 L 6 0 z M 12 6 L 17.566406 6 L 17.566406 11.566406 L 12 11.566406 L 12 6 z M 17.570312 11.566406 L 38.539062 11.566406 L 38.539062 17.132812 L 30.837891 17.132812 L 30.837891 45 L 25.269531 45 L 25.269531 17.132812 L 17.570312 17.132812 L 17.570312 11.566406 z M 46.849609 22.220703 C 50.171609 22.220703 53.149375 23.502078 55.234375 25.830078 C 57.260375 28.092078 58.366313 31.172859 58.445312 34.755859 L 58.449219 35.171875 L 58.449219 35.953125 L 40.96875 35.953125 C 41.307935 37.119656 41.982815 38.160533 42.910156 38.945312 C 44.104156 39.955312 45.657344 40.490234 47.402344 40.490234 C 49.526344 40.490234 51.512109 39.539422 53.162109 37.732422 L 53.386719 37.480469 L 56.957031 41.058594 C 54.162031 44.006594 51.124406 45.386719 47.441406 45.386719 C 43.797406 45.386719 40.704141 44.144875 38.494141 41.796875 C 36.502141 39.677875 35.404297 36.831203 35.404297 33.783203 C 35.404297 30.667203 36.514344 27.78325 38.527344 25.65625 C 40.623344 23.44125 43.580609 22.220703 46.849609 22.220703 z M 88.994141 22.220703 C 92.294141 22.220703 95.340219 23.448781 97.574219 25.675781 C 99.744862 27.830292 100.96302 30.76391 100.95508 33.822266 C 100.95508 36.957266 99.784062 39.852469 97.664062 41.980469 C 95.473062 44.175469 92.393141 45.386719 88.994141 45.386719 C 85.595141 45.386719 82.517125 44.175469 80.328125 41.980469 C 78.205125 39.852469 77.064453 36.957266 77.064453 33.822266 C 77.064453 30.742266 78.236969 27.849781 80.417969 25.675781 C 82.648969 23.448781 85.697141 22.220703 88.994141 22.220703 z M 12 22.699219 L 17.566406 22.699219 L 17.566406 44.998047 L 12 44.998047 L 12 22.699219 z M 62.876953 22.699219 L 74.998047 22.699219 L 75 22.699219 L 75 28.265625 L 68.441406 28.265625 L 68.441406 45 L 62.876953 45 L 62.876953 22.699219 z M 46.808594 27.115234 C 43.416594 27.115234 41.636047 29.169531 40.998047 31.269531 L 40.945312 31.453125 L 52.691406 31.453125 C 52.034406 28.860125 49.728594 27.115234 46.808594 27.115234 z M 88.994141 27.115234 C 87.256869 27.115746 85.618485 27.796761 84.376953 29.029297 C 83.106953 30.289297 82.40625 31.991266 82.40625 33.822266 C 82.40625 37.374266 85.486141 40.490234 88.994141 40.490234 C 92.504141 40.490234 95.582031 37.374266 95.582031 33.822266 C 95.582031 31.992266 94.886234 30.289297 93.615234 29.029297 C 92.390889 27.803802 90.72834 27.114514 88.996094 27.115234 L 88.994141 27.115234 z " fill="#FFFFFF"/>
</svg>