<?xml version="1.0" encoding="UTF-8"?>
<svg xmlns="http://www.w3.org/2000/svg" width="6.3499999" height="6.3499999" viewBox="0 0 6.3499999 6.3499999">
  <title>myIteroConnector.Profile</title>
  <path d="M 12 2 C 6.48 2 2 6.48 2 12 2 17.52 6.48 22 12 22 17.52 22 22 17.52 22 12 22 6.48 17.52 2 12 2 Z m 0 3 c 1.66 0 3 1.34 3 3 0 1.66 -1.34 3 -3 3 C 10.34 11 9 9.66 9 8 9 6.34 10.34 5 12 5 Z m 0 14.2 c -2.5 0 -4.71 -1.28 -6 -3.22 0.03 -1.99 4 -3.08 6 -3.08 1.99 0 5.97 1.09 6 3.08 -1.29 1.94 -3.5 3.22 -6 3.22 z" fill="#000000"/>
  <path d="M 0 0 H 24 V 24 H 0 Z" fill="currentColor"/>
</svg>