<?xml version="1.0" encoding="UTF-8"?>
<svg xmlns="http://www.w3.org/2000/svg" width="32" height="32" viewBox="0 0 32 32">
  <title>OffsetSubstructure.WorkType</title>
  <path d="M6.5797206,12.784655 C6.6880234,12.691366 9.7350705,15.039225 9.7350705,15.039225 9.7350705,15.039225 10.973355,16.080239 14.448955,16.615454 17.924554,17.150669 19.620287,16.372575 21.066028,16.162571 22.37944,15.971789 26.011411,15.447527 26.115505,15.744124 26.169677,15.898477 25.536475,16.221192 25.499697,16.217857 24.447711,16.122468 23.739171,18.110317 23.573198,18.167413 23.227124,18.286466 22.511068,17.869584 21.916129,17.964803 21.45227,18.039043 21.239714,18.309095&#xD;&#xA;20.464976,18.816717 20.246044,18.960165 19.668442,18.871037 19.092433,19.117462 18.564424,19.407638 18.251011,20.068303 18.105287,20.141582 17.362319,20.515192 17.864904,20.381222 16.836398,20.639731 16.613206,20.695829 16.08369,20.50456 15.438115,20.631745 14.79254,20.75893 14.386448,21.213129 14.21514,21.255754 13.627894,21.401871 13.493966,21.415333 12.047276,21.231839 11.380811,21.147306 11.38694,21.191957 10.895436,20.896755 10.719646,20.791173&#xD;&#xA;10.412646,20.403865 10.045336,20.107101 9.6780262,19.810336 9.1186983,19.711256 9.0060158,19.602329 8.4762109,19.090183 8.5880249,19.12502 8.413311,18.649654 8.3643879,18.516543 8.5427043,17.785941 8.409137,17.388489 8.2755697,16.991037 7.7889425,16.864894 7.6786909,16.529909 7.2567715,15.247962 6.8771046,14.01919 6.7875929,13.602634 6.674691,13.077229 6.4714179,12.877944 6.5797206,12.784655 z" fill="#FFFFFF"/>
  <path d="M1.517409,2.8222437 C1.4855293,2.8203313 1.4532282,2.8363542 1.4206115,2.8736419 1.0726983,3.2713778 1.4308496,4.4031479 1.5571444,5.11187 1.6737518,5.7662294 2.4831395,7.6231071 3.234494,8.1912433 3.9666581,8.7448684 4.9870811,9.2726428 6.9854255,9.5583436 9.045794,9.8529116 10.083965,9.8319682 11.374124,9.6537227 12.664282,9.4754781 13.783665,9.0110994 14.837261,8.4395538 15.890858,7.8680077 18.087776,6.3319779 17.71233,5.9390403 17.336882,5.5461021 15.836458,6.679125&#xA;14.49714,7.44714 13.157823,8.2151549 12.140001,8.6074011 11.229265,8.7681563 10.31853,8.9289114 8.0324551,8.9279102 7.0502831,8.7847132 6.0681116,8.6415171 4.9072797,8.584682 3.6884972,7.3858199 2.4697147,6.1869577 2.2623436,4.9897657 2.2283724,4.8978231 2.0943731,4.5351555 1.8255794,2.840729 1.517409,2.8222437 z M1.772707,0.26592436 C2.1041975,0.29030572 2.6561946,2.1055435 2.6561946,2.1055435 2.7764341,2.4680395 2.8696699,2.7864283 2.8696699,2.7864283 2.8696699,2.7864283 3.3790724,3.125554 3.4871684,3.5918517 3.5952644,4.0581495 3.4750076,4.4184705 3.4966268,4.6516194 3.518246,4.8847682 3.9389607,5.7934185 4.1641196,5.9405618 4.3892786,6.087705 4.9897029,6.1723859 5.3356101,6.4691209 5.6815174,6.7658558 5.8600278,7.0839344 5.9936446,7.2268547 6.1272614,7.3697751 6.5177749,7.5106071&#xA;7.3208218,7.6370836 8.6300175,7.8432764 9.5594617,7.7328938 9.7175522,7.6971266 9.8756426,7.6613595 10.337753,7.2162571 10.864721,7.120878 11.391689,7.0254989 11.76462,7.1606193 11.995676,7.1645934 12.226731,7.1685675 13.465144,6.5895971 13.637384,6.4691209 13.809624,6.3486446 14.189349,5.7286082 14.567685,5.4954594 14.946021,5.2623105 15.616892,5.2755576 15.892537,5.2318422 16.168182,5.1881267 16.655516,4.5083522 17.172123,4.4701342 18.047123,4.4054021&#xA;18.418833,4.82465 18.923279,4.7244784 19.59503,4.5910856 19.806122,2.8023812 20.447432,2.8963792 21.057494,2.9857971 21.284948,2.7791424 21.479163,3.2560378 21.673379,3.7329333 19.927814,7.1336225 18.696395,8.1698031 16.89278,9.6874656 15.099973,10.724165 14.211533,11.094584 13.323093,11.465004 10.662391,11.570725 10.662391,11.570725 10.662391,11.570725 6.412608,11.715063 3.3334399,10.489724 2.5521114,10.146009 1.2704495,8.5936361 0.53235422,7.6531978&#xA;-0.29819645,6.594956 -0.045961873,4.7205043 -0.045961873,4.7205043 -0.045961873,4.7205043 0.13169221,2.6441644 0.2745505,1.9127489 0.41740855,1.1813331 0.63595539,0.50796757 0.96200793,0.36112916 0.97219711,0.35654052 1.7620138,0.26513808 1.772707,0.26592436 z" fill="#FFFFFF"/>
  <path d="M31.809046,9.4415094 C31.810493,9.441374 31.811359,9.4421722 31.811624,9.4439318 31.824825,9.531603 31.796144,13.631697 31.378536,14.34072 29.819839,16.987115 26.184885,19.887914 26.184885,19.887914 26.184885,19.887914 19.177019,24.078212 19.177019,24.078212 19.177019,24.078212 14.159327,24.440705 9.9667024,24.065179 5.5254635,23.667386 2.9907261,22.014741 2.8118571,21.770822 2.6441671,21.542146 2.2924141,19.278894 2.315134,19.293874 3.2774908,19.928352 4.3935112,20.31454&#xD;&#xA;5.8556694,20.710384 7.2913717,21.099065 9.7669381,21.024642 10.614269,21.193498 11.4616,21.362354 14.728532,22.164416 15.349908,22.218358 15.971284,22.272298 18.106871,21.939111 19.236645,21.663942 20.366421,21.38877 25.3186,18.349395 26.063949,17.738836 26.809299,17.128276 29.001568,13.685177 29.159832,13.421352 29.315626,13.16165 31.71784,9.4500238 31.809046,9.4415094 z M1.7324808,0 L1.7694438,0.13544583 C2.0213374,0.89849585 2.7767488,1.4525269 3.6694998,1.4525269 3.9441926,1.4525269 4.2058825,1.4000742 4.4439029,1.3052196 L4.5046801,1.277634 4.5246648,1.3423232 C4.7456664,2.1036336 4.8193392,3.6974847 4.9989985,4.9927308 4.6858348,5.114289 3.6976489,4.9961459 3.3137716,5.4007966 2.9298929,5.8054478 2.5041091,7.4927203 2.2593271,9.2187912 2.0145456,10.944863 2.2564827,13.264908 2.4829258,13.949072 2.7747809,14.830869 5.0904964,17.583551 5.8775977,17.952743 7.5847491,18.753486 8.6705274,18.963908 10.013709,19.244197 11.35689,19.524482 14.063779,19.738998 15.199541,19.669471 16.335304,19.599942 18.749084,19.490417&#xD;&#xA;19.842468,19.053451 20.97221,18.847068 24.01153,16.630017 25.386049,15.391722 26.76057,14.153426 28.469421,10.189112 28.587477,9.2891476 28.705534,8.3891842 27.568338,8.0860569 27.608351,8.0508797 27.648361,8.0157015 28.032797,6.4872157 28.245024,5.7053844 28.650497,4.5655529 28.582737,3.4866363 29.354772,2.6959926 30.126806,1.9053487 30.751799,2.0207257 31.137285,2.070604 31.52277,2.1204819 31.750416,7.7157204 31.649996,8.3585684 31.549581,9.0014154&#xD;&#xA;26.486032,16.523267 25.858379,17.123637 25.230728,17.724008 21.363006,20.434608 19.224092,21.038554 18.019348,21.378728 15.88655,21.73055 15.415811,21.690683 14.945071,21.650815 11.498859,20.728603 10.57661,20.593122 9.808711,20.480315 7.4906796,20.629289 6.1192779,20.278865 4.7478761,19.928439 3.0836216,19.210574 2.4227919,18.535945 1.3843122,17.475785 0.59226754,10.055233 0.018541554,6.667236 -0.16826538,4.6931164 1.1042679,0.46454185 1.6888067,0.031734049&#xD;&#xA; z" fill="#FFFFFF"/>
</svg>