<?xml version="1.0" encoding="UTF-8"?>
<svg xmlns="http://www.w3.org/2000/svg" width="32.000" height="32.000" viewBox="0 0 32.000 32.000">
  <title>ProstheticProductionProcess.1.MaterialProstheticToothMonoOrMultiQuestion.MaterialProstheticToothMultiColored</title>
  <path d="F1 M 32.000,32.000 L 0.000,32.000 L 0.000,0.000 L 32.000,0.000 L 32.000,32.000 Z" fill="currentColor"/>
  <path d="F1 M 27.373,7.242 C 27.782,7.781 28.215,8.376 28.514,9.015 C 20.486,12.697 7.111,15.273 3.585,9.015 C 4.264,7.323 5.429,5.715 6.493,4.356 C 6.956,3.849 7.374,3.430 8.008,3.170 C 8.527,2.967 9.108,2.999 9.582,3.300 C 10.026,3.581 10.352,4.007 10.708,4.394 C 11.448,5.198 12.350,5.849 13.340,6.310 C 13.835,6.540 14.352,6.724 14.883,6.855 C 15.205,6.935 16.066,6.924 16.227,7.228 C 15.782,7.625 14.877,7.421 14.347,7.339 C 13.666,7.233 13.005,7.025 12.351,6.814 C 11.895,6.667 11.042,6.196 10.575,6.311 C 10.610,6.404 10.792,6.640 10.915,6.640 C 11.305,6.937 11.699,7.226 12.091,7.520 C 12.260,7.646 12.449,7.824 12.399,8.029 C 12.354,8.212 12.145,8.293 11.963,8.341 C 11.190,8.543 10.390,8.643 9.591,8.638 C 9.408,8.637 9.172,8.669 9.130,8.847 C 9.105,8.953 9.173,9.064 9.265,9.123 C 9.357,9.182 9.468,9.201 9.575,9.219 C 10.628,9.391 11.603,9.385 12.666,9.423 C 13.984,9.449 15.194,9.497 16.372,8.811 C 17.542,8.131 18.377,7.012 19.224,5.955 C 19.728,5.327 20.255,4.707 20.880,4.194 C 21.252,3.889 21.661,3.561 22.117,3.395 C 22.752,3.164 23.268,3.587 23.789,3.923 C 25.163,4.812 26.382,5.940 27.373,7.242 Z" fill="#fffeff"/>
  <path d="F1 M 28.861,10.101 C 29.160,12.021 29.043,13.990 28.642,15.887 C 28.555,16.296 28.455,16.702 28.343,17.104 L 28.343,17.104 C 20.237,20.216 8.851,22.548 3.958,17.104 C 3.248,15.035 2.701,12.781 3.114,10.590 C 3.214,10.061 3.376,9.534 3.585,9.015 C 7.111,15.273 20.486,12.697 28.514,9.015 L 28.532,9.053 C 28.696,9.403 28.802,9.727 28.861,10.101 Z" fill="#fffeff"/>
  <path d="F1 M 28.343,17.104 L 28.320,17.186 C 28.171,17.721 28.023,18.169 27.832,18.691 C 27.366,19.963 26.673,21.084 26.675,22.476 C 26.676,23.223 26.751,23.968 26.843,24.709 C 26.958,25.628 27.284,26.368 26.742,27.252 C 26.230,28.085 25.234,28.524 24.260,28.608 C 22.993,28.717 21.590,28.387 20.364,28.094 C 19.290,27.837 18.347,27.339 17.225,27.283 C 15.755,27.210 14.586,27.815 13.233,28.236 C 11.589,28.746 8.188,29.746 7.044,27.846 C 6.673,27.228 6.809,26.476 6.887,25.792 C 6.946,25.272 7.017,24.751 7.018,24.227 C 7.018,23.614 7.112,22.840 6.715,22.322 C 6.282,21.756 5.873,21.202 5.520,20.582 C 4.894,19.481 4.369,18.302 3.958,17.104 C 8.851,22.548 20.237,20.216 28.343,17.104 Z" fill="#fffeff"/>
</svg>