<?xml version="1.0" encoding="UTF-8"?>
<svg xmlns="http://www.w3.org/2000/svg" width="32.000" height="32.000" viewBox="0 0 32.000 32.000">
  <title>ProstheticProductionProcess.ProstheticMultiColorMaterialProcess.Parameter</title>
  <path d="F1 M 32.000,32.000 L 0.000,32.000 L 0.000,0.000 L 32.000,0.000 L 32.000,32.000 Z" fill="currentColor"/>
  <path d="F1 M 24.700,15.935 C 24.644,16.232 24.570,16.511 24.487,16.798 L 24.477,16.854 C 24.264,17.625 23.920,18.339 23.493,19.008 C 23.280,19.073 23.066,19.166 22.862,19.277 L 22.509,19.491 C 21.896,19.881 21.404,20.419 21.116,21.023 C 20.996,21.264 20.903,21.505 20.791,21.793 C 20.578,22.322 20.411,22.740 20.049,23.074 C 19.687,23.427 19.232,23.715 18.684,23.966 C 17.561,24.458 16.233,24.643 14.952,24.486 C 13.503,24.309 12.222,23.669 11.349,22.685 C 11.062,22.369 10.848,21.942 10.644,21.533 L 10.579,21.385 C 10.133,20.503 9.585,19.825 8.954,19.361 C 8.713,19.184 8.453,19.036 8.183,18.924 C 7.812,18.247 7.506,17.522 7.255,16.798 C 6.754,15.341 6.364,13.744 6.661,12.193 C 6.726,11.822 6.847,11.451 6.995,11.079 C 7.469,9.882 8.295,8.749 9.047,7.793 C 9.372,7.430 9.669,7.133 10.115,6.948 C 10.486,6.808 10.894,6.827 11.229,7.040 C 11.544,7.245 11.776,7.542 12.027,7.811 C 12.547,8.387 13.188,8.842 13.884,9.167 C 14.237,9.334 14.599,9.464 14.980,9.556 C 15.202,9.612 15.815,9.603 15.926,9.816 C 15.611,10.095 14.970,9.956 14.599,9.900 C 14.116,9.826 13.652,9.677 13.188,9.529 C 12.863,9.417 12.259,9.092 11.934,9.167 C 11.953,9.241 12.083,9.399 12.176,9.399 C 12.445,9.612 12.723,9.816 13.002,10.021 C 13.123,10.114 13.262,10.244 13.225,10.383 C 13.188,10.513 13.039,10.569 12.918,10.606 C 12.371,10.745 11.804,10.819 11.238,10.819 C 11.108,10.810 10.941,10.838 10.913,10.958 C 10.894,11.042 10.941,11.116 11.006,11.154 C 11.071,11.200 11.154,11.209 11.229,11.228 C 11.971,11.349 12.658,11.339 13.410,11.367 C 14.339,11.386 15.193,11.423 16.029,10.940 C 16.855,10.457 17.449,9.668 18.043,8.916 C 18.405,8.480 18.777,8.034 19.213,7.672 C 19.482,7.458 19.770,7.226 20.095,7.106 C 20.541,6.948 20.903,7.245 21.274,7.486 C 22.240,8.108 23.103,8.907 23.809,9.826 C 24.097,10.207 24.403,10.634 24.617,11.079 L 24.626,11.107 C 24.737,11.358 24.812,11.581 24.858,11.850 C 25.072,13.205 24.988,14.598 24.700,15.935 Z" fill="#fffeff"/>
  <path d="F1 M 28.386,27.512 C 28.349,27.782 28.117,27.977 27.848,27.977 L 3.848,27.977 C 3.578,27.977 3.356,27.791 3.319,27.531 C 3.170,26.686 3.059,25.841 3.012,24.987 C 2.994,24.523 2.938,24.040 2.966,23.576 C 3.031,23.557 3.105,23.548 3.161,23.529 C 3.690,23.353 4.126,22.991 4.488,22.397 C 4.674,22.016 5.361,20.753 6.503,20.540 C 7.691,20.326 8.471,21.338 8.908,22.202 L 9.047,22.490 C 9.298,22.972 9.548,23.474 9.966,23.928 C 11.136,25.238 12.826,26.092 14.720,26.333 C 15.072,26.380 15.444,26.398 15.852,26.398 C 17.106,26.398 18.340,26.148 19.427,25.665 C 20.169,25.340 20.810,24.913 21.330,24.411 C 21.980,23.799 22.268,23.093 22.537,22.443 C 22.611,22.239 22.704,22.025 22.797,21.821 C 23.150,21.078 24.245,20.512 25.016,20.689 C 25.647,20.828 26.260,21.366 26.826,22.285 C 27.123,22.777 27.476,23.121 27.894,23.334 C 28.015,23.390 28.135,23.437 28.265,23.464 C 28.321,23.706 28.367,23.947 28.395,24.188 C 28.525,25.293 28.525,26.408 28.386,27.512 Z" fill="#fffeff"/>
  <path d="F1 M 30.154,21.604 C 30.001,21.696 29.854,21.798 29.707,21.894 C 29.054,22.323 28.431,22.238 28.015,21.561 C 27.263,20.326 26.334,19.556 25.322,19.324 C 24.561,19.156 23.707,19.324 22.973,19.751 C 22.351,20.094 21.831,20.605 21.534,21.227 C 21.423,21.459 21.330,21.691 21.237,21.923 C 21.005,22.499 20.810,23.000 20.374,23.409 C 19.965,23.799 19.464,24.124 18.870,24.393 C 17.681,24.913 16.270,25.117 14.896,24.950 C 13.327,24.755 11.953,24.068 11.006,23.000 C 10.681,22.647 10.458,22.202 10.226,21.728 L 10.161,21.589 C 9.752,20.772 9.251,20.150 8.675,19.732 C 7.961,19.203 7.134,19.008 6.252,19.175 C 5.405,19.331 4.670,19.818 4.105,20.456 C 3.874,20.719 3.669,21.005 3.490,21.306 C 3.412,21.438 3.362,21.606 3.279,21.729 C 3.166,21.896 2.936,22.004 2.755,22.083 C 2.556,22.170 2.334,22.218 2.120,22.181 C 1.718,22.112 1.478,21.646 1.087,21.645 C 0.760,21.644 0.527,21.919 0.636,22.240 C 0.760,22.609 1.131,22.885 1.487,23.006 C 2.397,23.314 3.612,23.142 4.071,22.192 C 4.340,21.635 5.110,20.326 6.419,20.085 C 7.886,19.825 8.815,20.985 9.325,22.007 L 9.390,22.146 C 9.650,22.647 9.901,23.167 10.310,23.622 C 11.405,24.848 12.993,25.646 14.785,25.869 C 15.137,25.915 15.490,25.934 15.852,25.934 C 17.041,25.934 18.210,25.693 19.241,25.238 C 19.937,24.931 20.532,24.541 21.014,24.077 C 21.590,23.529 21.850,22.889 22.101,22.276 C 22.184,22.063 22.277,21.840 22.379,21.626 C 22.825,20.670 24.134,20.011 25.118,20.233 C 26.083,20.447 26.789,21.338 27.225,22.044 C 27.460,22.423 27.769,22.839 28.227,22.952 C 28.850,23.105 29.414,22.984 30.002,22.787 C 30.244,22.706 30.486,22.578 30.686,22.421 C 30.896,22.255 31.193,22.101 31.322,21.859 C 31.412,21.688 31.394,21.444 31.232,21.341 C 31.125,21.273 30.987,21.282 30.862,21.306 C 30.608,21.356 30.375,21.470 30.154,21.604 Z" fill="#fffeff" stroke="#fffeff" stroke-width="1.0"/>
</svg>