<?xml version="1.0" encoding="UTF-8"?>
<svg xmlns="http://www.w3.org/2000/svg" width="32.000" height="32.000" viewBox="0 0 32.000 32.000">
  <title>ProstheticProductionProcess.2.MaterialProstheticToothMonoOrMultiQuestion.MaterialProstheticToothMonoColored</title>
  <path d="F1 M 32.000,32.000 L 0.000,32.000 L 0.000,0.000 L 32.000,0.000 L 32.000,32.000 Z" fill="currentColor"/>
  <path d="F1 M 28.520,9.015 L 28.538,9.053 C 28.702,9.403 28.808,9.727 28.866,10.101 C 29.165,12.021 29.048,13.990 28.647,15.887 C 28.561,16.296 28.461,16.702 28.349,17.104 L 28.349,17.104 L 28.326,17.186 C 28.176,17.721 28.028,18.169 27.837,18.691 C 27.371,19.963 26.678,21.084 26.680,22.476 C 26.682,23.223 26.756,23.968 26.849,24.709 C 26.964,25.628 27.290,26.368 26.747,27.252 C 26.235,28.085 25.240,28.524 24.265,28.608 C 22.999,28.717 21.595,28.387 20.369,28.094 C 19.295,27.837 18.352,27.339 17.231,27.283 C 15.760,27.210 14.591,27.815 13.238,28.236 C 11.595,28.746 8.193,29.746 7.050,27.846 C 6.678,27.228 6.815,26.476 6.892,25.792 C 6.951,25.272 7.022,24.751 7.023,24.227 C 7.024,23.614 7.117,22.840 6.720,22.322 C 6.287,21.756 5.879,21.202 5.526,20.582 C 4.899,19.481 4.375,18.302 3.964,17.104 C 3.253,15.035 2.706,12.781 3.119,10.590 C 3.219,10.061 3.382,9.534 3.590,9.015 C 4.270,7.323 5.435,5.715 6.498,4.356 C 6.961,3.849 7.380,3.430 8.014,3.170 C 8.532,2.967 9.113,2.999 9.588,3.300 C 10.031,3.581 10.358,4.007 10.713,4.394 C 11.453,5.198 12.356,5.849 13.346,6.310 C 13.841,6.540 14.358,6.724 14.888,6.855 C 15.211,6.935 16.071,6.924 16.232,7.228 C 15.788,7.625 14.882,7.421 14.352,7.339 C 13.671,7.233 13.010,7.025 12.356,6.814 C 11.900,6.667 11.047,6.196 10.581,6.311 C 10.615,6.404 10.797,6.640 10.921,6.640 C 11.310,6.937 11.705,7.226 12.097,7.520 C 12.266,7.646 12.455,7.824 12.404,8.029 C 12.359,8.212 12.150,8.293 11.969,8.341 C 11.195,8.543 10.396,8.643 9.597,8.638 C 9.414,8.637 9.177,8.669 9.135,8.847 C 9.110,8.953 9.178,9.064 9.270,9.123 C 9.362,9.182 9.473,9.201 9.581,9.219 C 10.633,9.391 11.608,9.385 12.672,9.423 C 13.989,9.449 15.199,9.497 16.377,8.811 C 17.547,8.131 18.382,7.012 19.229,5.955 C 19.733,5.327 20.261,4.707 20.885,4.194 C 21.257,3.889 21.666,3.561 22.123,3.395 C 22.757,3.164 23.273,3.587 23.794,3.923 C 25.168,4.812 26.388,5.940 27.378,7.242 C 27.788,7.781 28.220,8.376 28.520,9.015" fill="#fffeff"/>
</svg>