<?xml version="1.0" encoding="UTF-8"?>
<svg xmlns="http://www.w3.org/2000/svg" width="32.000" height="32.000" viewBox="0 0 32.000 32.000">
  <title>ProstheticProductionProcess.ProstheticMillingOversizeProcess.Parameter</title>
  <path d="F1 M 32.000,32.000 L 0.000,32.000 L 0.000,0.000 L 32.000,0.000 L 32.000,32.000 Z" fill="currentColor"/>
  <path d="F1 M 29.960,13.042 C 30.122,11.915 30.014,10.703 29.829,9.697 C 29.483,7.819 28.619,6.025 27.203,4.721 C 24.627,2.350 20.588,2.009 17.540,3.641 C 16.671,4.107 15.992,5.136 14.968,4.762 C 14.086,4.441 13.496,3.594 12.777,3.035 C 11.312,1.898 9.187,1.808 7.508,2.594 C 4.671,3.924 2.579,7.399 2.415,10.469 C 2.308,12.483 2.916,14.732 4.215,16.308 C 5.187,17.488 7.236,17.412 7.979,18.728 C 7.515,17.904 7.125,17.023 6.818,16.129 C 6.277,14.554 5.860,12.838 6.175,11.170 C 6.251,10.767 6.375,10.366 6.534,9.971 C 7.051,8.683 7.938,7.458 8.747,6.424 C 9.100,6.038 9.418,5.719 9.901,5.521 C 10.296,5.367 10.738,5.391 11.099,5.620 C 11.437,5.834 11.686,6.159 11.956,6.453 C 12.520,7.065 13.207,7.561 13.960,7.912 C 14.337,8.087 14.731,8.227 15.134,8.327 C 15.380,8.387 16.035,8.379 16.158,8.611 C 15.819,8.913 15.130,8.757 14.726,8.695 C 14.208,8.615 13.705,8.456 13.207,8.295 C 12.860,8.183 12.210,7.825 11.855,7.912 C 11.882,7.984 12.020,8.163 12.114,8.163 C 12.411,8.389 12.711,8.609 13.010,8.833 C 13.138,8.929 13.282,9.065 13.244,9.221 C 13.209,9.360 13.050,9.422 12.912,9.458 C 12.323,9.612 11.715,9.688 11.106,9.684 C 10.967,9.684 10.787,9.708 10.755,9.843 C 10.736,9.924 10.788,10.008 10.858,10.053 C 10.927,10.098 11.012,10.113 11.094,10.126 C 11.895,10.257 12.637,10.252 13.447,10.281 C 14.450,10.302 15.371,10.338 16.268,9.816 C 17.159,9.298 17.795,8.446 18.440,7.642 C 18.823,7.164 19.225,6.691 19.700,6.301 C 19.983,6.069 20.295,5.819 20.642,5.692 C 21.125,5.516 21.518,5.838 21.915,6.095 C 22.961,6.771 23.889,7.630 24.643,8.621 C 24.955,9.032 25.284,9.485 25.512,9.971 L 25.526,10.000 C 25.651,10.266 25.731,10.513 25.776,10.798 C 26.004,12.259 25.914,13.759 25.609,15.202 C 25.543,15.514 25.467,15.823 25.382,16.129 L 25.364,16.191 C 25.251,16.598 25.138,16.939 24.993,17.335 C 24.713,18.101 24.273,18.845 24.162,19.661 C 24.180,19.528 24.286,19.456 24.355,19.353 C 24.444,19.219 24.528,19.081 24.623,18.950 C 24.811,18.688 25.020,18.441 25.247,18.211 C 26.283,17.157 27.741,16.698 28.771,15.641 C 28.902,15.506 29.026,15.362 29.139,15.211 C 29.595,14.600 29.845,13.842 29.960,13.042 Z" fill="#fffeff"/>
  <path d="F1 M 25.364,16.191 L 25.382,16.129 L 25.382,16.129 C 25.467,15.823 25.543,15.514 25.609,15.202 C 25.914,13.759 26.004,12.259 25.776,10.798 C 25.731,10.513 25.651,10.266 25.526,10.000 L 25.512,9.971 C 25.284,9.485 24.955,9.032 24.643,8.621 C 23.889,7.630 22.961,6.771 21.915,6.095 C 21.518,5.838 21.125,5.516 20.642,5.692 C 20.295,5.819 19.983,6.069 19.700,6.301 C 19.225,6.691 18.823,7.164 18.440,7.642 C 17.795,8.446 17.159,9.298 16.268,9.816 C 15.371,10.338 14.450,10.302 13.447,10.281 C 12.637,10.252 11.895,10.257 11.094,10.126 C 11.012,10.113 10.927,10.098 10.858,10.053 C 10.788,10.008 10.736,9.924 10.755,9.843 C 10.787,9.708 10.967,9.684 11.106,9.684 C 11.715,9.688 12.323,9.612 12.912,9.458 C 13.050,9.422 13.209,9.360 13.244,9.221 C 13.282,9.065 13.138,8.929 13.010,8.833 C 12.711,8.609 12.411,8.389 12.114,8.163 C 12.020,8.163 11.882,7.984 11.855,7.912 C 12.210,7.825 12.860,8.183 13.207,8.295 C 13.705,8.456 14.208,8.615 14.726,8.695 C 15.130,8.757 15.819,8.913 16.158,8.611 C 16.035,8.379 15.380,8.387 15.134,8.327 C 14.731,8.227 14.337,8.087 13.960,7.912 C 13.207,7.561 12.520,7.065 11.956,6.453 C 11.686,6.159 11.437,5.834 11.099,5.620 C 10.738,5.391 10.296,5.367 9.901,5.521 C 9.418,5.719 9.100,6.038 8.747,6.424 C 7.938,7.458 7.051,8.683 6.534,9.971 C 6.375,10.366 6.251,10.767 6.175,11.170 C 5.860,12.838 6.277,14.554 6.818,16.129 C 7.125,17.023 7.515,17.904 7.980,18.728 C 7.989,18.744 7.998,18.761 8.007,18.777 C 8.276,19.249 8.587,19.671 8.916,20.101 C 9.219,20.496 9.148,21.085 9.147,21.552 C 9.146,21.951 9.092,22.347 9.047,22.743 C 8.988,23.264 8.884,23.836 9.167,24.307 C 10.038,25.754 12.627,24.992 13.878,24.603 C 14.908,24.283 15.799,23.823 16.918,23.878 C 17.772,23.921 18.490,24.300 19.307,24.496 C 20.240,24.719 21.309,24.970 22.273,24.887 C 23.015,24.823 23.773,24.489 24.162,23.854 C 24.576,23.182 24.327,22.618 24.240,21.919 C 24.169,21.355 24.113,20.788 24.112,20.219 C 24.112,20.033 24.127,19.855 24.156,19.680 C 24.289,18.857 24.700,18.137 24.992,17.338 C 25.138,16.940 25.251,16.599 25.364,16.191 Z" fill="#fffeff"/>
  <path d="F1 M 29.577,27.663 C 29.547,27.853 29.437,28.013 29.277,28.103 C 29.197,28.143 29.097,28.173 28.997,28.173 L 3.147,28.173 C 3.047,28.173 2.957,28.143 2.877,28.103 C 2.717,28.023 2.607,27.873 2.567,27.683 C 2.417,26.783 2.297,25.873 2.247,24.953 C 2.207,24.193 2.097,23.413 2.317,22.673 C 2.327,22.643 2.337,22.603 2.347,22.573 C 2.417,22.343 2.567,22.123 2.757,21.913 C 3.057,21.573 3.457,21.263 3.777,21.023 C 3.797,21.003 3.817,20.993 3.837,20.983 C 4.127,20.813 4.437,20.653 4.757,20.533 C 4.777,20.523 4.807,20.513 4.827,20.503 C 4.887,20.483 4.947,20.463 5.007,20.443 C 5.077,20.413 5.157,20.383 5.227,20.363 C 5.237,20.363 5.247,20.353 5.267,20.353 C 5.367,20.323 5.467,20.293 5.577,20.273 C 5.647,20.253 5.707,20.233 5.777,20.223 C 6.117,20.153 6.467,20.113 6.817,20.123 C 7.077,20.133 7.327,20.183 7.577,20.253 C 7.817,20.323 7.877,20.403 7.897,20.553 C 7.907,20.563 7.907,20.563 7.897,20.573 C 7.907,20.643 7.907,20.723 7.907,20.833 C 7.907,21.463 7.757,22.083 7.647,22.703 C 7.497,23.473 7.417,24.293 7.727,25.013 C 8.147,25.973 9.197,26.533 10.227,26.653 C 11.267,26.773 12.307,26.533 13.327,26.283 C 13.937,26.123 14.557,25.973 15.167,25.813 C 15.687,25.673 16.257,25.423 16.777,25.353 C 17.327,25.273 18.037,25.523 18.567,25.643 C 19.187,25.783 19.807,25.953 20.427,26.083 C 21.677,26.353 23.037,26.453 24.197,25.923 C 24.737,25.673 25.237,25.283 25.487,24.743 C 25.747,24.213 25.747,23.593 25.617,23.013 C 25.527,22.623 25.187,22.093 25.087,21.633 C 25.017,21.353 25.047,21.093 25.277,20.903 C 25.697,20.543 26.377,20.573 26.897,20.613 C 27.017,20.623 27.127,20.633 27.247,20.663 C 27.267,20.663 27.287,20.663 27.317,20.673 C 27.457,20.703 27.587,20.743 27.717,20.793 C 27.827,20.833 27.927,20.883 28.027,20.933 C 28.187,21.013 28.327,21.103 28.457,21.213 C 29.357,21.943 29.457,23.023 29.587,24.083 C 29.727,25.273 29.727,26.483 29.577,27.663 Z" fill="#fffeff"/>
  <path d="F1 M 2.757,21.913 C 2.567,22.123 2.417,22.343 2.347,22.573 C 2.337,22.603 2.327,22.643 2.317,22.673 C 2.317,22.643 2.327,22.603 2.337,22.573 C 2.417,22.333 2.567,22.113 2.757,21.913 Z" fill="#fffeff"/>
  <path d="F1 M 7.897,20.553 C 7.877,20.403 7.817,20.323 7.577,20.253 C 7.327,20.183 7.077,20.133 6.817,20.123 C 6.467,20.113 6.117,20.153 5.777,20.223 C 5.707,20.233 5.647,20.253 5.577,20.273 C 5.557,20.263 5.537,20.263 5.507,20.263 C 5.437,20.263 5.337,20.313 5.267,20.353 C 5.247,20.353 5.237,20.363 5.227,20.363 C 5.157,20.383 5.077,20.413 5.007,20.443 C 4.947,20.453 4.887,20.473 4.827,20.503 C 4.807,20.513 4.777,20.523 4.757,20.533 C 4.437,20.653 4.127,20.813 3.837,20.983 C 3.817,20.993 3.797,21.003 3.777,21.023 C 3.457,21.263 3.057,21.573 2.757,21.913 C 2.567,22.123 2.417,22.343 2.347,22.573 C 2.337,22.603 2.327,22.643 2.317,22.673 C 2.097,23.413 2.207,24.193 2.247,24.953 C 2.297,25.873 2.417,26.783 2.567,27.683 C 2.607,27.873 2.717,28.023 2.877,28.103 C 2.677,28.073 2.487,27.993 2.317,27.883 C 1.598,27.417 1.265,26.576 1.132,25.763 C 0.912,24.420 0.714,23.019 0.686,21.657 C 0.662,20.468 0.884,19.245 1.730,18.353 C 2.664,17.369 3.973,17.326 5.203,17.751 C 6.448,18.180 7.521,18.894 7.877,20.203 C 7.907,20.313 7.937,20.443 7.897,20.553 Z" fill="#fffeff"/>
  <path d="F1 M 29.887,27.733 C 29.717,27.933 29.497,28.063 29.277,28.103 C 29.437,28.013 29.547,27.853 29.577,27.663 C 29.727,26.483 29.727,25.273 29.587,24.083 C 29.457,23.023 29.357,21.943 28.457,21.213 C 28.327,21.103 28.187,21.013 28.027,20.933 C 27.967,20.893 27.897,20.863 27.827,20.833 C 27.787,20.823 27.757,20.803 27.717,20.793 C 27.587,20.733 27.447,20.673 27.317,20.673 C 27.287,20.663 27.267,20.663 27.247,20.663 C 27.127,20.633 27.017,20.623 26.897,20.613 C 26.377,20.573 25.697,20.543 25.277,20.903 C 25.047,21.093 25.017,21.353 25.087,21.633 C 25.062,21.531 24.981,21.463 24.943,21.368 C 24.909,21.282 24.911,21.181 24.907,21.088 C 24.898,20.864 24.914,20.639 24.955,20.419 C 25.143,19.398 25.889,18.562 26.798,18.094 C 27.977,17.487 29.642,17.486 30.707,18.368 C 31.272,18.835 31.544,19.487 31.593,20.208 C 31.672,21.358 31.632,22.545 31.481,23.688 C 31.292,25.123 30.840,26.613 29.887,27.733 Z" fill="#fffeff"/>
</svg>