<?xml version="1.0" encoding="UTF-8"?>
<svg xmlns="http://www.w3.org/2000/svg" width="32.000" height="32.000" viewBox="0 0 32.000 32.000">
  <title>ProstheticProductionProcess.ProstheticStandardProcess.Parameter</title>
  <path d="F1 M 32.000,32.000 L 0.000,32.000 L 0.000,0.000 L 32.000,0.000 L 32.000,32.000 Z" fill="currentColor"/>
  <path d="F1 M 25.581,9.962 L 25.594,9.991 C 25.719,10.258 25.800,10.504 25.844,10.789 C 26.072,12.250 25.983,13.750 25.678,15.193 C 25.612,15.505 25.536,15.814 25.450,16.120 L 25.450,16.120 L 25.433,16.182 C 25.319,16.590 25.206,16.931 25.061,17.329 C 24.706,18.297 24.179,19.150 24.180,20.210 C 24.181,20.779 24.238,21.346 24.308,21.910 C 24.396,22.610 24.644,23.173 24.231,23.845 C 23.841,24.480 23.084,24.814 22.342,24.878 C 21.378,24.961 20.309,24.710 19.376,24.487 C 18.558,24.291 17.840,23.912 16.986,23.870 C 15.867,23.814 14.977,24.275 13.947,24.595 C 12.696,24.983 10.106,25.745 9.236,24.298 C 8.953,23.827 9.057,23.255 9.116,22.734 C 9.161,22.338 9.215,21.942 9.215,21.543 C 9.216,21.076 9.287,20.487 8.985,20.092 C 8.655,19.662 8.344,19.240 8.076,18.768 C 7.599,17.930 7.199,17.032 6.886,16.120 C 6.346,14.545 5.929,12.829 6.243,11.161 C 6.320,10.758 6.443,10.357 6.602,9.962 C 7.119,8.674 8.006,7.450 8.816,6.416 C 9.169,6.029 9.487,5.710 9.970,5.512 C 10.364,5.358 10.807,5.383 11.168,5.611 C 11.505,5.825 11.754,6.150 12.025,6.444 C 12.588,7.056 13.275,7.552 14.029,7.903 C 14.406,8.078 14.799,8.218 15.203,8.318 C 15.449,8.378 16.104,8.370 16.226,8.602 C 15.888,8.904 15.199,8.748 14.795,8.686 C 14.277,8.606 13.774,8.447 13.276,8.286 C 12.928,8.174 12.279,7.816 11.924,7.904 C 11.950,7.975 12.089,8.154 12.183,8.154 C 12.479,8.380 12.780,8.601 13.078,8.824 C 13.207,8.920 13.351,9.056 13.312,9.212 C 13.278,9.351 13.119,9.413 12.980,9.449 C 12.392,9.603 11.783,9.679 11.175,9.676 C 11.035,9.675 10.856,9.699 10.824,9.834 C 10.805,9.915 10.856,9.999 10.926,10.044 C 10.996,10.089 11.081,10.104 11.163,10.117 C 11.964,10.248 12.706,10.243 13.516,10.272 C 14.519,10.293 15.440,10.329 16.337,9.807 C 17.227,9.289 17.863,8.437 18.508,7.633 C 18.892,7.155 19.293,6.683 19.769,6.292 C 20.052,6.060 20.363,5.810 20.711,5.684 C 21.194,5.508 21.586,5.830 21.983,6.086 C 23.029,6.762 23.957,7.621 24.711,8.613 C 25.023,9.023 25.353,9.476 25.581,9.962" fill="#fffeff"/>
  <path d="F1 M 29.693,27.602 C 29.663,27.792 29.553,27.952 29.393,28.042 C 29.313,28.082 29.213,28.112 29.113,28.112 L 3.263,28.112 C 3.163,28.112 3.073,28.082 2.993,28.042 C 2.833,27.962 2.723,27.812 2.683,27.622 C 2.533,26.722 2.413,25.812 2.363,24.892 C 2.323,24.132 2.213,23.352 2.433,22.612 C 2.443,22.582 2.453,22.542 2.463,22.512 C 2.533,22.282 2.683,22.062 2.873,21.852 C 3.173,21.512 3.573,21.202 3.893,20.962 C 3.913,20.942 3.933,20.932 3.953,20.922 C 4.243,20.752 4.553,20.592 4.873,20.472 C 4.893,20.462 4.923,20.452 4.943,20.442 C 5.003,20.422 5.063,20.402 5.123,20.382 C 5.193,20.352 5.273,20.322 5.343,20.302 C 5.353,20.302 5.363,20.292 5.383,20.292 C 5.483,20.262 5.583,20.232 5.693,20.212 C 5.763,20.192 5.823,20.172 5.893,20.162 C 6.233,20.092 6.583,20.052 6.933,20.062 C 7.193,20.072 7.443,20.122 7.693,20.192 C 7.933,20.262 7.993,20.342 8.013,20.492 C 8.023,20.502 8.023,20.502 8.013,20.512 C 8.023,20.582 8.023,20.662 8.023,20.772 C 8.023,21.402 7.873,22.022 7.763,22.642 C 7.613,23.412 7.533,24.232 7.843,24.952 C 8.263,25.912 9.313,26.472 10.343,26.592 C 11.383,26.712 12.423,26.472 13.443,26.222 C 14.053,26.062 14.673,25.912 15.283,25.752 C 15.803,25.612 16.373,25.362 16.893,25.292 C 17.443,25.212 18.153,25.462 18.683,25.582 C 19.303,25.722 19.923,25.892 20.543,26.022 C 21.793,26.292 23.153,26.392 24.313,25.862 C 24.853,25.612 25.353,25.222 25.603,24.682 C 25.863,24.152 25.863,23.532 25.733,22.952 C 25.643,22.562 25.303,22.032 25.203,21.572 C 25.133,21.292 25.163,21.032 25.393,20.842 C 25.813,20.482 26.493,20.512 27.013,20.552 C 27.133,20.562 27.243,20.572 27.363,20.602 C 27.383,20.602 27.403,20.602 27.433,20.612 C 27.573,20.642 27.703,20.682 27.833,20.732 C 27.943,20.772 28.043,20.822 28.143,20.872 C 28.303,20.952 28.443,21.042 28.573,21.152 C 29.473,21.882 29.573,22.962 29.703,24.022 C 29.843,25.212 29.843,26.422 29.693,27.602 Z" fill="#fffeff"/>
</svg>