<?xml version="1.0" encoding="UTF-8"?>
<svg xmlns="http://www.w3.org/2000/svg" width="32" height="32" viewBox="0 0 32 32">
  <title>ScanIconGC2</title>
  <path d="M3.966 4.886L3.966 18.928C3.966 18.928 5.857 20.552 6.912 21.458C7.354 21.837 7.932 22.019 8.511 21.962C10.841 21.732 16.976 21.126 18.715 20.955C18.979 20.929 19.18 20.707 19.18 20.441C19.18 19.67 19.18 18.217 19.18 18.217C19.18 18.217 19.132 18.451 18.849 18.478C17.289 18.583 10.654 19.03 8.375 19.184C7.877 19.217 7.382 19.075 6.978 18.781C6.553 18.472 6.019 18.083 5.738 17.879C5.617 17.792 5.546 17.651 5.546 17.502C5.546 16.409 5.546 11.873 5.546 10.643C5.546 10.579 5.58 10.52 5.635 10.488C5.69 10.456 5.759 10.456 5.814 10.487C6.136 10.671 6.682 10.983 7.086 11.214C7.425 11.407 7.81 11.504 8.2 11.493C10.369 11.436 17.781 11.238 19.007 11.206C19.103 11.203 19.18 11.125 19.18 11.029C19.18 10.307 19.18 7.572 19.18 7.572C19.18 7.572 10.614 7.37 8.219 7.314C7.817 7.304 7.426 7.181 7.091 6.959C6.088 6.294 3.966 4.886 3.966 4.886ZM11.296 20.412C11.407 20.403 11.518 20.394 11.629 20.385C11.566 20.568 11.503 20.75 11.44 20.933C11.329 20.941 11.218 20.951 11.107 20.96C11.17 20.777 11.234 20.595 11.296 20.412ZM13.174 19.503L13.189 19.502C13.255 19.499 13.322 19.498 13.388 19.513C13.439 19.525 13.492 19.546 13.53 19.588C13.543 19.603 13.556 19.617 13.568 19.633C13.594 19.668 13.612 19.71 13.621 19.754C13.636 19.823 13.634 19.896 13.615 19.962C13.509 19.971 13.402 19.982 13.295 19.992C13.3 19.953 13.299 19.912 13.282 19.876C13.27 19.853 13.249 19.838 13.226 19.834C13.185 19.828 13.144 19.842 13.107 19.859C13.043 19.891 12.988 19.942 12.942 20C12.903 20.051 12.87 20.109 12.849 20.172C12.832 20.225 12.82 20.28 12.812 20.335C12.799 20.421 12.797 20.51 12.818 20.594C12.834 20.658 12.865 20.719 12.911 20.763C12.932 20.783 12.959 20.794 12.983 20.809C12.849 20.819 12.716 20.829 12.582 20.84C12.539 20.782 12.509 20.712 12.489 20.64C12.465 20.55 12.458 20.455 12.465 20.362C12.474 20.263 12.499 20.166 12.533 20.075C12.562 19.999 12.599 19.928 12.643 19.862C12.729 19.734 12.841 19.626 12.973 19.562C13.037 19.531 13.105 19.512 13.174 19.503ZM12.997 20.811C13.061 20.628 13.123 20.445 13.187 20.263C13.298 20.254 13.409 20.245 13.52 20.236C13.458 20.413 13.397 20.59 13.336 20.768C13.333 20.773 13.333 20.781 13.328 20.784C13.218 20.793 13.107 20.802 12.997 20.811ZM14.017 20.787L13.987 20.789C13.919 20.792 13.848 20.786 13.784 20.757C13.72 20.73 13.663 20.679 13.627 20.614C13.591 20.549 13.575 20.473 13.57 20.399C13.566 20.325 13.573 20.252 13.585 20.18C13.6 20.097 13.622 20.015 13.655 19.939C13.709 19.81 13.788 19.695 13.887 19.605C13.923 19.571 13.962 19.54 14.005 19.516C14.155 19.503 14.307 19.492 14.458 19.479C14.461 19.489 14.463 19.5 14.466 19.51C14.395 19.552 14.329 19.601 14.265 19.654C14.16 19.743 14.064 19.847 13.989 19.968C13.953 20.024 13.928 20.087 13.91 20.153C13.895 20.215 13.886 20.279 13.892 20.343C13.895 20.378 13.904 20.416 13.928 20.442C13.945 20.462 13.971 20.471 13.995 20.469C14.045 20.467 14.095 20.452 14.137 20.421C14.175 20.394 14.207 20.356 14.224 20.309C14.342 20.299 14.459 20.29 14.576 20.28C14.571 20.302 14.565 20.323 14.557 20.344C14.529 20.417 14.491 20.485 14.444 20.545C14.371 20.64 14.274 20.712 14.167 20.752C14.118 20.77 14.068 20.78 14.017 20.787ZM14.978 20.113C15.089 20.104 15.2 20.095 15.311 20.086C15.247 20.268 15.185 20.452 15.121 20.634C15.01 20.643 14.899 20.652 14.788 20.661C14.852 20.479 14.914 20.296 14.978 20.113ZM12.141 19.669C12.252 19.661 12.363 19.651 12.474 19.643C12.411 19.825 12.347 20.007 12.285 20.19C12.19 20.199 12.095 20.205 12 20.213C11.984 20.214 11.968 20.217 11.952 20.217C12.015 20.034 12.078 19.852 12.141 19.669ZM14.519 19.476C14.629 19.467 14.74 19.458 14.851 19.449C14.788 19.632 14.725 19.814 14.662 19.997C14.551 20.006 14.44 20.015 14.329 20.024C14.392 19.841 14.455 19.659 14.519 19.476ZM15.821 19.37C15.931 19.361 16.042 19.352 16.152 19.343L16.153 19.345C16.09 19.527 16.027 19.709 15.964 19.891C15.853 19.9 15.742 19.909 15.631 19.918C15.694 19.735 15.757 19.552 15.821 19.37ZM17.805 8.302L15.274 8.302C15.059 8.302 14.884 8.477 14.884 8.692L14.884 9.97C14.884 10.185 15.059 10.36 15.274 10.36L17.805 10.36C18.02 10.36 18.195 10.185 18.195 9.97L18.195 8.692C18.195 8.477 18.02 8.302 17.805 8.302Z" fill="#000000" stroke="#000000" stroke-width="0.06"/>
  <path d="M3.966 4.253L7.084 6.322C7.419 6.544 7.81 6.667 8.212 6.676L19.18 6.932L19.18 7.348C19.18 7.348 10.614 7.147 8.219 7.09C7.817 7.081 7.426 6.958 7.091 6.735C6.088 6.07 3.966 4.662 3.966 4.662L3.966 4.253Z" fill="#000000" stroke="#000000" stroke-width="0.06"/>
  <path d="M16.729 3.001C16.729 3.001 8.164 2.8 5.769 2.744C5.367 2.734 4.975 2.611 4.64 2.389C3.638 1.724 1.516 0.316 1.516 0.316L12.094 0.78L16.729 3.001Z" fill="#000000" stroke="#000000" stroke-width="0.06"/>
  <path d="M16.729 6.472C16.701 6.589 16.547 6.639 16.547 6.639C16.547 6.639 7.376 6.88 5.49 6.93C5.27 6.936 5.052 6.881 4.861 6.772C4.416 6.518 3.587 6.045 3.247 5.851C3.215 5.833 3.177 5.833 3.146 5.851C3.114 5.869 3.095 5.903 3.095 5.939C3.095 6.959 3.095 12.132 3.095 13.035C3.095 13.119 3.136 13.199 3.204 13.248C3.499 13.463 4.323 14.062 4.8 14.408C5.028 14.575 5.308 14.655 5.589 14.636C7.451 14.511 14.714 14.021 16.399 13.908C16.691 13.884 16.729 13.647 16.729 13.647L16.72 13.026C16.72 13.026 16.729 13.311 16.348 13.339C14.864 13.445 7.349 13.863 5.751 13.952C5.556 13.962 5.363 13.912 5.198 13.809C4.954 13.656 4.59 13.427 4.37 13.289C4.25 13.214 4.178 13.083 4.178 12.942C4.178 12.142 4.178 9.451 4.178 8.63C4.178 8.584 4.204 8.541 4.245 8.52C4.287 8.498 4.336 8.501 4.374 8.528C4.499 8.616 4.664 8.732 4.81 8.835C5.032 8.991 5.301 9.068 5.572 9.052C6.552 8.997 8.91 8.862 8.91 8.862L10.311 7.503C10.311 7.503 15.827 7.356 16.632 7.335C16.686 7.333 16.729 7.289 16.729 7.234C16.729 7.032 16.729 6.576 16.729 6.472Z" fill="#000000" stroke="#000000" stroke-width="0.06"/>
  <path d="M16.565 12.751C16.685 12.819 16.746 12.958 16.715 13.093C16.683 13.227 16.567 13.325 16.429 13.333C13.832 13.483 7.238 13.865 5.752 13.951C5.556 13.962 5.362 13.912 5.197 13.808C4.953 13.655 4.59 13.427 4.37 13.289C4.25 13.214 4.178 13.083 4.178 12.942C4.178 12.141 4.178 9.441 4.178 8.625C4.178 8.579 4.204 8.537 4.244 8.515C4.285 8.494 4.335 8.496 4.373 8.522C4.506 8.613 4.679 8.73 4.787 8.804C4.781 9.034 4.786 12.269 4.787 12.914C4.787 12.984 4.822 13.048 4.88 13.086C5.026 13.181 5.311 13.366 5.484 13.478C5.578 13.539 5.69 13.569 5.802 13.563C7.086 13.499 15.128 13.093 16.323 13.033C16.342 13.032 16.358 13.019 16.362 13.001C16.366 12.982 16.358 12.964 16.341 12.955C15.857 12.69 14.172 11.771 13.785 11.559C13.736 11.533 13.705 11.481 13.705 11.425C13.705 10.821 13.705 7.404 13.705 7.404L14.141 7.404C14.141 7.404 14.154 10.723 14.156 11.302C14.156 11.354 14.185 11.403 14.231 11.429C14.535 11.602 15.713 12.269 16.565 12.751Z" fill="#000000" stroke="#000000" stroke-width="0.06"/>
  <path d="M11.569 12.102C11.569 12.102 12.758 12.187 13.148 12.489C14.025 13.168 8.33 13.242 7.805 12.845C7.228 12.409 9.049 12.194 9.049 12.194L9.049 12.357L9.959 12.748L11.556 12.57L11.569 12.102ZM11.702 7.466L11.702 12.005L11.572 12.005L11.577 11.827L9.972 12.011L9.075 11.597L9.055 12.194L8.769 12.102C8.759 12.091 8.762 10.256 8.765 8.87L8.91 8.862L10.311 7.503L11.702 7.466ZM11.214 11.724L10.004 11.875L9.366 11.585C9.366 11.585 9.397 11.204 9.512 11.1C9.574 11.043 9.836 11.361 10.177 11.367C10.518 11.373 10.939 11.287 10.939 11.287L11.223 11.272L11.214 11.724ZM11.005 11.146L11.072 11.224L10.502 11.296C10.502 11.296 10.217 11.34 10.089 11.306C9.991 11.281 9.816 11.183 9.71 11.121C9.64 11.118 9.584 11.05 9.584 10.966C9.584 10.902 9.616 10.847 9.663 10.823C9.663 10.757 9.703 10.703 9.753 10.703C9.778 10.703 9.8 10.716 9.817 10.739C9.833 10.695 9.865 10.665 9.902 10.665C9.931 10.665 9.956 10.682 9.974 10.71C9.993 10.664 10.027 10.633 10.066 10.633C10.097 10.633 10.125 10.653 10.144 10.683C10.163 10.655 10.19 10.637 10.219 10.637C10.259 10.637 10.294 10.669 10.31 10.716C10.328 10.698 10.35 10.688 10.374 10.688C10.419 10.688 10.458 10.724 10.475 10.776C10.494 10.762 10.516 10.754 10.54 10.754C10.593 10.754 10.638 10.793 10.656 10.849C10.674 10.839 10.694 10.834 10.716 10.834C10.764 10.834 10.807 10.861 10.833 10.902C10.85 10.895 10.869 10.89 10.888 10.89C10.967 10.89 11.032 10.963 11.032 11.052C11.032 11.087 11.022 11.119 11.005 11.146Z" fill="#000000"/>
  <rect x="13.78" y="4.022" width="1.731" height="1.565" fill="#000000"/>
</svg>