<?xml version="1.0" encoding="UTF-8"?>
<svg xmlns="http://www.w3.org/2000/svg" width="32.000" height="32.000" viewBox="0 0 32.000 32.000">
  <title>SystemInformation</title>
  <path d="F1 M 32.000,32.000 L 0.000,32.000 L 0.000,0.000 L 32.000,0.000 L 32.000,32.000 Z" fill="currentColor"/>
  <path d="F1 M 8.668,28.892 L 10.668,25.836 L 5.022,25.836 C 4.223,25.845 3.455,25.527 2.896,24.956 C 2.311,24.399 1.986,23.622 2.000,22.814 L 2.000,6.170 C 1.990,5.358 2.315,4.578 2.900,4.014 C 3.453,3.434 4.221,3.109 5.022,3.114 L 26.944,3.114 C 28.630,3.117 29.997,4.484 30.000,6.170 L 30.000,22.814 C 30.014,23.622 29.689,24.399 29.104,24.956 C 28.534,25.531 27.755,25.849 26.946,25.836 L 21.330,25.836 L 23.330,28.892 L 8.668,28.892 Z M 9.340,18.492 C 10.062,18.522 10.672,17.962 10.702,17.240 C 10.704,17.204 10.704,17.167 10.702,17.130 C 10.700,16.394 10.102,15.800 9.366,15.802 C 9.358,15.802 9.349,15.802 9.340,15.802 C 8.982,15.795 8.638,15.940 8.394,16.202 C 8.143,16.459 8.005,16.806 8.012,17.166 C 7.999,17.886 8.571,18.481 9.292,18.494 C 9.308,18.494 9.324,18.494 9.340,18.494 L 9.340,18.492 Z M 9.340,13.178 C 9.705,13.191 10.060,13.053 10.320,12.796 C 10.572,12.546 10.709,12.204 10.700,11.850 C 10.707,11.490 10.569,11.143 10.318,10.886 C 10.063,10.619 9.707,10.474 9.338,10.486 C 8.980,10.479 8.636,10.624 8.392,10.886 C 8.141,11.143 8.003,11.490 8.010,11.850 C 7.997,12.570 8.569,13.165 9.290,13.178 C 9.306,13.178 9.322,13.178 9.338,13.178 L 9.340,13.178 Z M 12.300,18.296 L 23.900,18.296 L 23.900,16.002 L 12.300,16.002 L 12.300,18.296 Z M 12.300,13.014 L 23.900,13.014 L 23.900,10.720 L 12.300,10.720 L 12.300,13.014 Z" fill="#000000"/>
</svg>