<?xml version="1.0" encoding="UTF-8"?>
<svg xmlns="http://www.w3.org/2000/svg" width="400" height="400" viewBox="0 0 400 400">
  <title>3DPrintIcon_DPF2</title>
  <path d="M 170.91406 32.371094 L 171.75195 36.279297 C 178.59936 68.15943 174.62056 83.043689 151.33789 112.64844 C 131.02105 138.48202 124.03392 150.17673 118.05664 168.33984 C 114.60206 178.83726 118.04027 176.98821 85.498047 185.83984 L 68.75 190.39648 L 68.75 196.98047 L 68.75 203.56641 L 200 203.56641 L 331.25 203.56641 L 331.25 196.90039 L 331.25 190.23438 L 311.08398 185.21289 C 299.99268 182.45119 288.71432 179.61055 286.02148 178.90039 L 281.125 177.60938 L 283.06836 168.37109 C 284.32146 162.41176 284.79817 154.2805 284.41016 145.46094 C 283.479 124.29468 276.92434 108.30192 262.83594 92.824219 C 258.09761 87.618626 257.36304 87.197846 258.06445 90.089844 C 265.89557 122.37858 264.09011 137.07472 249.66602 158.48828 C 245.8811 164.10725 241.75596 170.70263 240.49805 173.14648 C 238.24792 177.51804 238.05683 177.58984 228.64844 177.58984 L 219.08594 177.58984 L 222.0332 171.7793 C 223.65469 168.5835 228.81275 159.81641 233.49609 152.29688 C 244.35809 134.85689 245.13679 133.32674 247.34961 125.01758 C 252.83298 104.42749 245.59957 79.853017 228.90234 62.345703 C 222.30731 55.430714 215.68691 50.441406 213.10547 50.441406 C 212.71887 50.441406 213.54605 53.109356 214.94336 56.369141 C 219.8793 67.884237 222.25809 81.111229 221.61133 93.433594 C 221.08362 103.48773 220.31125 106.42592 215.93164 115.01367 C 213.1434 120.48098 206.47637 130.18262 201.11523 136.57422 C 189.07047 150.93409 181.49288 162.45061 178.44531 171.03125 L 176.11523 177.58984 L 167.45898 177.58984 C 157.28761 177.58984 157.35026 178.25252 165.8418 160.5 C 170.68018 150.38484 174.71894 144.23429 194.15039 117.40234 C 203.81963 104.05055 207.26532 94.784752 207.35352 81.886719 C 207.41075 73.521801 206.74024 70.156162 203.71484 63.613281 C 199.54463 54.594574 186.3315 40.852935 176.77539 35.595703 L 170.91406 32.371094 z M 375 271.53711 L 366.5957 272.41602 C 361.97368 272.89911 355.82134 273.29297 352.92383 273.29297 L 347.65625 273.29297 L 347.65625 306.78906 L 347.65625 340.28516 L 200 340.28516 L 52.34375 340.28516 L 52.34375 306.10547 L 52.34375 271.92578 L 38.671875 271.92578 L 25 271.92578 L 25 319.77734 L 25 367.62891 L 200 367.62891 L 375 367.62891 L 375 319.58398 L 375 271.53711 z M 68.75 293.39844 L 68.75 298.86328 L 68.75 304.33008 L 80.712891 305.17969 C 95.830271 306.25378 102.72133 308.3427 114.41992 315.39844 C 125.13916 321.86352 133.09737 324.772 144.67773 326.45898 C 149.16258 327.11234 155.44678 327.72275 158.64258 327.81445 L 164.45312 327.98047 L 164.45312 322.71484 L 164.45312 317.44727 L 153.17383 316.5625 C 137.94548 315.3697 132.94485 313.81383 119.33594 306.02539 C 106.13964 298.47309 96.260917 295.51809 80.029297 294.26758 L 68.75 293.39844 z M 152.14844 293.80078 L 152.14844 299.06445 L 152.14844 304.33008 L 164.11133 305.17969 C 179.2287 306.25378 186.11977 308.3427 197.81836 315.39844 C 208.5376 321.86352 216.49582 324.772 228.07617 326.45898 C 232.56103 327.11234 238.84521 327.72275 242.04102 327.81445 L 247.85156 327.98047 L 247.85156 322.80273 L 247.85156 317.62695 L 233.43164 316.10938 C 222.79511 314.99117 217.32565 313.70015 212.58203 311.18359 C 190.12608 299.27041 186.31874 297.66985 176.04688 295.83984 C 170.04679 294.77087 162.21436 293.87591 158.64258 293.84961 L 152.14844 293.80078 z M 235.54688 293.80078 L 235.54688 299.06445 L 235.54688 304.33008 L 247.50977 305.20508 C 263.31236 306.36187 268.20227 307.85053 282.03125 315.7168 C 293.79342 322.4074 300.40144 324.74762 312.79297 326.61133 C 316.55273 327.1768 322.24365 327.71675 325.43945 327.81055 L 331.25 327.98047 L 331.25 322.80273 L 331.25 317.62695 L 316.91211 316.11914 C 302.16203 314.5685 301.25295 314.24401 282.03125 303.67383 C 271.44829 297.85417 254.81695 293.80078 241.51953 293.80078 L 235.54688 293.80078 z " fill="#000000" stroke-width="1.3671875"/>
</svg>