<?xml version="1.0" encoding="UTF-8"?>
<svg xmlns="http://www.w3.org/2000/svg" width="24" height="24" viewBox="0 0 24 24">
  <title>AddRestoration</title>
  <path d="M13.104213,18.501061 L13.104213,21.706402 12.251947,21.708725 C7.1566826,21.721821 1.9879433,21.721821 1.6940426,21.669441 L1.6940426,20.764395 C1.6940426,20.135765 2.274392,19.419754 2.274392,19.419754 2.274392,19.419754 4.9237581,20.76969 7.6668078,20.350659 9.7241594,20.036324 10.842448,19.134705 13.008864,18.526726 z M17.986693,18.457014 L19.545271,18.457014 19.764593,18.532934 C21.265427,19.075867 22.078825,19.83349 22.078825,19.83349 L22.369,21.669441 C22.369,21.669441 20.598623,21.678675 18.093651,21.688917 L17.986693,21.68935 z M4.8617846,5.7569851E-05 C5.6670429,0.0088709144 6.2267872,0.89135474 7.6426264,2.3014599 8.659732,3.2910236 11.866947,3.7585984 11.342356,3.8529671 9.8321267,4.6990653 6.3610216,2.9996382 6.3610216,2.9996382 6.3610216,2.9996382 8.5282623,4.3820082 7.8360764,4.7580124 7.14389,5.1340409 4.8082014,5.1388851 5.2486845,5.3268987 5.6891652,5.5149366 9.3508865,6.2746025 11.318174,4.9907385 12.262069,4.2386829 14.823351,0.24768814 16.081879,0.31035915 17.340399,0.37305384 20.874161,3.6326114&#xD;&#xA;21.377569,6.0767938 21.663216,7.463677 21.080921,11.133609 20.550308,13.575621 L20.527651,13.678964 17.986693,13.678964 17.986693,9.4829999 13.104213,9.4829999 13.104213,13.678964 8.8409997,13.678964 8.8409997,18.332245 8.7917949,18.346977 C7.4893857,18.720904 5.824617,18.888992 3.1932794,18.488852 3.1932791,18.488852 3.2512594,18.491011 3.3141855,17.738957 3.3771092,16.986899 2.9910332,17.402273 1.9842173,15.33412 0.97739708,13.265966 -0.26491308,8.0393525 0.04971835,6.7232548 0.36434758,5.4071571 2.4955941,1.1251098 3.9428972,0.31035915 4.3047229,0.10667719 4.5933653,-0.0028799329 4.8617846,5.7569851E-05 z" fill="Black"/>
</svg>