<?xml version="1.0" encoding="UTF-8"?>
<svg xmlns="http://www.w3.org/2000/svg" width="32" height="32" viewBox="0 0 32 32">
  <title>ChangeMaterialForRecosWithSameMaterial.Icon</title>
  <path d="M1.7936277,0.41300011 C1.426137,0.41300011 1.2438498,0.60962915 0.94708633,0.85447359 0.62407398,1.1196589 0.68313503,1.0669236 0.47678566,1.2786198 0.27189445,1.4925761 0.66855145,2.0387683 0.91208744,2.1691003 1.1534357,2.2979264 1.1315613,2.5940003 1.6463394,2.5940003 2.1618471,2.5940003 2.2719488,1.8790536 2.2719488,1.438334 2.2719488,0.99761343 2.1611185,0.41300011 1.7936277,0.41300011 z M1.8839493,0 C2.387949,0 2.5399494,0.77600002 2.5399494,1.3609996 2.5399494,1.9459996 2.3889494,2.895 1.6819487,2.895 0.97594929,2.895 1.005949,2.5020003 0.67494869,2.3309999 0.34094906,2.1580005 -0.20305061,1.4330001 0.077949524,1.1490002 0.36094952,0.86800003 0.27994919,0.9380002 0.72294903,0.58599997 1.1299496,0.26100016 1.3799496,0 1.8839493,0 z" fill="#000000"/>
  <path d="M1.3813887,0.38799953 C0.4335928,0.38799953 0.2130003,1.2636814 0.2130003,1.5868225 0.21383858,1.9107265 0.48391914,2.5249996 1.4493284,2.5249996 1.9836168,2.5249996 2.4809999,2.2872162 2.4809999,1.8101254 2.4809999,1.3337975 2.3283463,0.38799953 1.3813887,0.38799953 z M1.3929996,0 C2.5220003,0 2.7040005,1.2409992 2.7040005,1.8659992 2.7040005,2.4919996 2.1110001,2.8039999 1.474,2.8039999 0.32299995,2.8039999 0.00099992752,1.9979992 0,1.573 0,1.1489992 0.26300049,0 1.3929996,0 z" fill="#000000"/>
  <path d="M1.1680775,0.26966667 C1.0599232,0.269207 0.9607048,0.29484749 0.88757277,0.35626507 0.71966076,0.49742413 0.36200047,0.69365215 0.36200047,1.1070471 0.36200047,1.5212183 0.81679392,2.1556606 1.4251928,2.1556606 1.9266701,2.1556606 2.5810008,1.7562256 2.5810008,1.2396755 2.5810008,0.72234917 1.828784,0.49664879 1.5931048,0.38030815 1.460959,0.31399441 1.3071327,0.27025795 1.1680775,0.26966667 z M1.0705314,7.6293945E-06 C1.2552075,0.00077056885 1.4595003,0.057160378 1.6350002,0.14266109 1.9480004,0.29266071 2.947,0.58366108 2.947,1.2506609 2.947,1.9166603 2.0780001,2.4316607 1.4120002,2.4316607 0.60400009,2.4316607 0,1.6136608 0,1.0796604 0,0.54666042 0.47500038,0.29366112 0.69800043,0.11166096 0.79512548,0.032473564 0.92689466,-0.00058460236 1.0705314,7.6293945E-06 z" fill="#000000"/>
  <path d="M1.3129187,0.32584953 C0.65378571,0.31517601 0.34124088,0.90968323 0.33114862,1.1193295 0.31848431,1.3824158 0.57581234,1.4859257 0.57581234,1.4859257 0.13674164,1.8494473 0.49202681,2.1649208 0.79968834,2.4966507 1.1073499,2.8283787 1.308156,3.0622272 1.8468595,3.0881596 2.8486438,3.1363831 3.4148698,2.6967297 3.4497652,1.9718361 3.4846601,1.2469425 2.8477817,0.90742874 1.885251,0.46837425 1.6714668,0.3706131 1.4809327,0.32856941 1.3129187,0.32584953 z M1.1539941,9.5367432E-06 C1.3403201,0.00070953369 1.551187,0.043144226 1.7879996,0.14326859 2.9429998,0.6302681 3.71,1.0132675 3.71,1.9142685 3.71,2.8152676 3.0699997,3.394268 1.8909998,3.394268 1.257,3.394268 1.0079999,3.1162682 0.62799978,2.7232685 0.24799967,2.330267 -0.18700027,1.960268 0.30799961,1.4832668 0.30799961,1.4832668 0,1.3702679 0,1.0432682 0,0.77758026 0.34658194,-0.0030288696 1.1539941,9.5367432E-06 z" fill="#000000"/>
  <path d="M1.0384283,0.25452042 C0.99005938,0.25450897 0.94806862,0.25560951 0.91385317,0.25740051 0.4758954,0.28032112 0.30788898,0.86154747 0.3217535,1.135788 0.33643389,1.4108467 0.60801649,1.6236897 0.60801649,1.6236897 0.60801649,1.6236897 0.46529293,1.6777191 0.47915745,1.9118462 0.50851774,2.4750614 1.3281593,2.6797199 1.6494913,2.662529 1.9700079,2.6461563 3.1778579,2.5069885 3.1199527,1.4149399 3.0680752,0.40971565 1.6091847,0.25465393 1.0384283,0.25452042 z M0.87971354,0 C1.5795445,0.00016593933 3.3683562,0.18958282 3.4319663,1.4175186 3.5029655,2.7515202 2.021966,2.9215183 1.6289659,2.9415188 1.2349658,2.9625187 0.22996569,2.7125187 0.19396591,2.024519 0.17696571,1.7385197 0.3519659,1.6725197 0.3519659,1.6725197 0.3519659,1.6725197 0.018965721,1.4125195 0.00096607208,1.076519 -0.016034126,0.74151993 0.18996572,0.031518936 0.7269659,0.0035190582 0.76891899,0.0013313293 0.82040596,-1.335144E-05 0.87971354,0 z" fill="#000000"/>
  <path d="M1.0195875,0.33399963 C0.57579708,0.33399963 0.31000042,0.5270009 0.31000042,1.2061076 0.31000042,1.8860154 0.96451283,3.0239992 1.6740999,3.0239992 2.3828897,3.0239992 2.7739992,1.6433625 2.7739992,1.2645683 2.7739992,0.88417244 2.6303263,0.73922157 2.2583723,0.60948658 2.2583723,0.60948658 1.4617834,0.33399963 1.0195875,0.33399963 z M0.88900089,0 C1.4429998,0 2.4410009,0.34399986 2.4410009,0.34399986 2.9070005,0.50600004 3.0870008,0.6869998 3.0870008,1.1619997 3.0870008,1.6349998 2.5970011,3.3590002 1.7090006,3.3590002 0.82000065,3.3590002 0,1.9379997 0,1.0889997 0,0.2409997 0.33300114,0 0.88900089,0 z" fill="#000000"/>
  <path d="M0.77815819,0.41300011 C0.39582634,0.41300011 0.27900124,0.99761343 0.27900124,1.438334 0.27900124,1.8790536 0.39582634,2.5940003 0.93139458,2.5940003 1.4662056,2.5940003 1.4442062,2.2979264 1.6953011,2.1691003 1.9486732,2.0387683 2.3621082,1.4925761 2.1489429,1.2786198 1.9335022,1.0669236 1.9949474,1.1196589 1.6588898,0.85447359 1.3501396,0.60962915 1.1597328,0.41300011 0.77815819,0.41300011 z M0.65800095,0 C1.1610012,0 1.4120007,0.26100016 1.8190002,0.58599997 2.262001,0.9380002 2.1810017,0.86800003 2.4650002,1.1490002 2.7460003,1.4330001 2.2010002,2.1580005 1.8670006,2.3309999 1.5360012,2.5020003 1.5650005,2.895 0.86000061,2.895 0.15400124,2.895 0,1.9459996 0,1.3609996 0,0.77600002 0.15400124,0 0.65800095,0 z" fill="#000000"/>
  <path d="M1.8358536,0.22166729 C1.6864414,0.22227955 1.5213146,0.26756954 1.3794613,0.33623981 1.1256618,0.45671272 0.31899834,0.69043064 0.31899834,1.2261353 0.31899834,1.7610359 1.020586,2.1746607 1.5597076,2.1746607 2.2119904,2.1746607 2.7009983,1.5176802 2.7009983,1.0887957 2.7009983,0.66071415 2.3170662,0.45751572 2.1376286,0.31134129 2.0587711,0.2477417 1.9520645,0.22119045 1.8358536,0.22166729 z M1.876646,7.6293945E-06 C2.020422,-0.00058460236 2.1524372,0.032473564 2.25,0.11166096 2.4720001,0.29366112 2.9470005,0.54666042 2.9470005,1.0796604 2.9470005,1.6136608 2.3419991,2.4316607 1.5349998,2.4316607 0.86800003,2.4316607 0,1.9166603 0,1.2506609 0,0.58366108 0.99799919,0.29266071 1.3120003,0.14266109 1.4874992,0.057160378 1.6917934,0.00077056885 1.876646,7.6293945E-06 z" fill="#000000"/>
  <path d="M2.4218483,0.37927437 C2.2734413,0.37981224 2.1054859,0.41234207 1.9168663,0.48909569 0.99532127,0.86242294 0.38600159,1.1560249 0.38600159,1.8467197 0.38600159,2.5374146 0.89575958,2.9812679 1.8340302,2.9812679 2.3398056,2.9812679 2.5381336,2.7681561 2.8408012,2.4668884 3.1434708,2.1656189 3.4891491,1.8819828 3.094883,1.5163212 3.094883,1.5163212 3.3410015,1.429697 3.3410015,1.1790218 3.3410015,0.97534943 3.064949,0.3769455 2.4218483,0.37927437 z M2.5560074,9.5367432E-06 C3.3634186,-0.0030288696 3.710001,0.77758026 3.710001,1.0432682 3.710001,1.3702679 3.401001,1.4832668 3.401001,1.4832668 3.8960018,1.960268 3.4620018,2.330267 3.0820007,2.7232685 2.7020016,3.1162682 2.453001,3.394268 1.8180008,3.394268 0.6400013,3.394268 0,2.8152676 0,1.9142685 0,1.0132675 0.7650013,0.6302681 1.9220009,0.14326859 2.1588135,0.043144226 2.3696804,0.00070953369 2.5560074,9.5367432E-06 z" fill="#000000"/>
  <path d="M2.3636036,0.25452042 C1.796257,0.25465393 0.34358597,0.40971565 0.29123116,1.4149399 0.23525429,2.5069885 1.4351425,2.6461563 1.7564106,2.662529 2.0752449,2.6797199 2.8889637,2.4750614 2.9206047,1.9118462 2.9319611,1.6777191 2.7916088,1.6236897 2.7916088,1.6236897 2.7916088,1.6236897 3.0617676,1.4108467 3.0763702,1.135788 3.0917854,0.86154747 2.9238491,0.28032112 2.4873791,0.25740051 2.4534073,0.25560951 2.411684,0.25450897 2.3636036,0.25452042 z M2.5567703,0 C2.6160355,-1.335144E-05 2.6674614,0.0013313293 2.7093372,0.0035190582 3.2473373,0.031518936 3.4543362,0.74151993 3.4353371,1.076519 3.4173374,1.4125195 3.0843372,1.6725197 3.0843372,1.6725197 3.0843372,1.6725197 3.2573357,1.7385197 3.2433357,2.024519 3.2043362,2.7125187 2.2013359,2.9625187 1.8083363,2.9415188 1.4123363,2.9215183 -0.066663742,2.7515202 0.0023365021,1.4175186 0.066867828,0.18958282 1.8574505,0.00016593933 2.5567703,0 z" fill="#000000"/>
</svg>