<?xml version="1.0" encoding="UTF-8"?>
<svg xmlns="http://www.w3.org/2000/svg" width="32.000" height="32.000" viewBox="0 0 32.000 32.000">
  <title>CheckForUpdatesIcon</title>
  <path d="F1 M 32.000,32.000 L 0.000,32.000 L 0.000,0.000 L 32.000,0.000 L 32.000,32.000 Z" fill="#ffffff"/>
  <path d="F1 M 1.012,7.935 L 1.012,7.942 L 13.215,13.747 C 13.215,13.747 13.584,13.924 13.602,13.933 C 14.063,14.185 14.313,14.735 14.298,15.299 C 14.283,15.857 13.835,16.458 13.374,16.266 C 13.041,16.126 1.152,10.464 1.152,10.464 C 1.111,10.454 1.069,10.447 1.025,10.447 C 0.734,10.448 0.499,10.686 0.500,10.977 C 0.501,11.196 0.635,11.383 0.825,11.462 L 0.825,11.462 L 13.519,17.558 C 13.623,17.603 13.737,17.629 13.858,17.628 C 13.991,17.628 14.116,17.595 14.228,17.539 L 26.625,11.539 L 27.208,11.253 L 27.209,11.252 L 27.209,11.252 C 27.859,10.814 28.285,10.154 28.281,9.311 C 28.277,8.458 27.873,7.724 27.165,7.365 C 26.947,7.255 14.154,1.051 14.154,1.051 C 14.037,0.989 13.903,0.954 13.760,0.955 C 13.627,0.956 13.502,0.988 13.391,1.044 L 13.391,1.042 L 1.060,6.966 L 1.034,6.977 L 1.034,6.978 C 0.845,7.059 0.711,7.244 0.712,7.463 C 0.713,7.672 0.836,7.850 1.012,7.935 Z" fill="#000000"/>
  <path d="F1 M 24.810,16.180 C 25.987,16.174 27.106,16.416 28.120,16.857 C 28.225,16.597 28.283,16.311 28.281,16.000 C 28.277,15.147 27.873,14.413 27.165,14.054 C 27.128,14.035 26.721,13.837 26.073,13.522 L 14.228,19.255 C 14.116,19.311 13.991,19.344 13.858,19.344 C 13.737,19.345 13.623,19.319 13.519,19.274 L 1.439,13.473 L 1.060,13.655 L 1.034,13.666 L 1.034,13.667 C 0.845,13.748 0.711,13.933 0.712,14.152 C 0.713,14.360 0.836,14.539 1.012,14.623 L 1.012,14.630 L 13.215,20.435 C 13.215,20.435 13.584,20.612 13.602,20.622 C 14.063,20.874 14.313,21.424 14.298,21.988 C 14.283,22.545 13.835,23.147 13.374,22.954 C 13.041,22.815 1.152,17.153 1.152,17.153 C 1.111,17.143 1.069,17.136 1.025,17.136 C 0.734,17.137 0.499,17.375 0.500,17.666 C 0.501,17.885 0.635,18.072 0.825,18.151 L 0.825,18.151 L 13.519,24.247 C 13.623,24.292 13.737,24.317 13.858,24.317 C 13.991,24.316 14.116,24.284 14.228,24.228 L 16.751,23.007 C 17.409,19.147 20.760,16.199 24.810,16.180 Z" fill="#000000"/>
  <path d="F1 M 14.228,25.967 C 14.116,26.022 13.991,26.055 13.858,26.055 C 13.737,26.056 13.623,26.031 13.519,25.985 L 1.439,20.184 L 1.060,20.366 L 1.034,20.377 L 1.034,20.378 C 0.845,20.459 0.711,20.644 0.712,20.863 C 0.713,21.072 0.836,21.250 1.012,21.334 L 1.012,21.342 L 13.215,27.147 C 13.215,27.147 13.584,27.324 13.602,27.333 C 14.063,27.585 14.313,28.135 14.298,28.699 C 14.283,29.257 13.835,29.858 13.374,29.665 C 13.041,29.526 1.152,23.864 1.152,23.864 C 1.111,23.854 1.069,23.847 1.025,23.847 C 0.734,23.848 0.499,24.086 0.500,24.377 C 0.501,24.596 0.635,24.783 0.825,24.862 L 0.825,24.862 L 13.519,30.958 C 13.623,31.003 13.737,31.029 13.858,31.028 C 13.991,31.027 14.116,30.995 14.228,30.939 L 18.093,29.069 C 17.245,27.845 16.721,26.380 16.645,24.797 L 14.228,25.967 Z" fill="#000000"/>
  <path d="F1 M 24.818,17.745 C 21.145,17.763 18.182,20.755 18.200,24.427 C 18.218,28.100 21.210,31.063 24.882,31.045 C 28.555,31.027 31.518,28.036 31.500,24.363 C 31.482,20.690 28.490,17.728 24.818,17.745 Z M 24.874,29.383 L 20.694,24.415 L 23.188,24.403 L 23.167,20.247 L 26.492,20.231 L 26.513,24.387 L 29.006,24.375 L 24.874,29.383 Z" fill="#000000"/>
</svg>