<?xml version="1.0" encoding="UTF-8"?>
<svg xmlns="http://www.w3.org/2000/svg" width="32" height="32" viewBox="0 0 32 32">
  <title>ConnectionLost</title>
  <path d="M0.57433387,16.9995 C0.57433387,16.9995 3.332864E-07,0 3.332864E-07,0 L2.4195826,0 4.8391648,0 C4.8794065,2.2692364 4.4493339,16.937 4.4493339,16.937 4.4493339,16.937 0.57433387,16.9995 0.57433886,16.999499 z" fill="#000000" stroke-width="0.35277778"/>
  <path d="M11.31161,4.7638904 C11.31161,4.7638904 8.9783618,5.5972046 7.1450903,6.5555159 5.3118188,7.5138272 3.1938087,9.2987863 3.1181988,9.2987863 3.0425915,9.2987863 4.4408921E-16,6.2397777 4.4408921E-16,6.2397777 4.4408921E-16,6.2397777 1.8952694,4.2222362 5.3118208,2.4306108 8.7283722,0.63898531 11.314926,-3.5527137E-15 11.314926,-3.5527137E-15" fill="#000000" stroke-width="0.35277778"/>
  <path d="M11.353284,4.7638904 C11.353284,4.7638904 8.9783637,5.5972046 7.1450923,6.5555159 5.3118208,7.5138272 3.1938087,9.2987863 3.1181988,9.2987863 3.0425915,9.2987863 4.4408921E-16,6.2397777 4.4408921E-16,6.2397777 4.4408921E-16,6.2397777 1.8952694,4.2222362 5.3118208,2.4306108 8.7283722,0.63898531 11.2993,-3.5527137E-15 11.2993,-3.5527137E-15" fill="#000000" stroke-width="0.35277778"/>
  <path d="M6.2179693,6.4184031 C4.3846978,7.3767144 2.6471106,8.928962 2.5715007,8.928962 2.4958934,8.928962 -0.055558765,6.0884118 -0.055558765,6.0884118 -0.055558765,6.0884118 2.7695097,3.7311278 6.1921151,2.3094027" fill="Black" stroke-width="0.35277778"/>
  <path d="M6.2179693,6.4184031 C4.3846978,7.3767144 2.6471106,8.928962 2.5715007,8.928962 2.4958934,8.928962 -0.055558765,6.0884118 -0.055558765,6.0884118 -0.055558765,6.0884118 2.7226382,3.7311278 6.1452436,2.3094027" fill="Black" stroke-width="0.35277778"/>
  <path d="M4.5,2.2815 C4.5,3.5415377 3.4926407,4.563 2.25,4.563 C1.0073593,4.563 0,3.5415377 0,2.2815 C0,1.0214623 1.0073593,0 2.25,0 C3.4926407,0 4.5,1.0214623 4.5,2.2815 z" fill="#000000" stroke-width="0.35277778"/>
</svg>