<?xml version="1.0" encoding="UTF-8"?>
<svg xmlns="http://www.w3.org/2000/svg" width="32.000" height="32.000" viewBox="0 0 32.000 32.000">
  <title>DatabaseMaintenance</title>
  <path d="F1 M 32.000,32.000 L 0.000,32.000 L 0.000,0.000 L 32.000,0.000 L 32.000,32.000 Z" fill="#ffffff"/>
  <path d="F1 M 26.289,8.096 C 26.289,11.533 20.602,14.319 13.586,14.319 C 6.571,14.319 0.884,11.533 0.884,8.096 C 0.884,4.659 6.571,1.872 13.586,1.872 C 20.602,1.872 26.289,4.659 26.289,8.096 Z" fill="#000000"/>
  <path d="F1 M 25.427,14.489 C 25.716,14.489 26.000,14.509 26.283,14.533 L 26.283,11.830 L 26.239,11.830 C 26.103,12.812 25.498,13.729 24.542,14.534 C 24.834,14.509 25.128,14.489 25.427,14.489 Z" fill="#000000"/>
  <path d="F1 M 18.547,17.129 C 17.023,17.448 15.349,17.628 13.586,17.628 C 6.864,17.628 1.376,15.067 0.928,11.830 L 0.884,11.830 L 0.884,16.056 L 0.896,16.056 C 1.016,19.442 6.646,22.170 13.586,22.170 C 14.229,22.170 14.855,22.139 15.472,22.094 C 16.004,20.149 17.087,18.437 18.547,17.129 Z" fill="#000000"/>
  <path d="F1 M 15.133,25.534 C 15.133,25.534 15.133,25.534 15.133,25.534 C 14.625,25.564 14.111,25.585 13.586,25.585 C 6.864,25.585 1.376,23.025 0.928,19.787 L 0.884,19.787 L 0.884,24.013 L 0.896,24.013 C 1.016,27.400 6.646,30.128 13.586,30.128 C 14.582,30.128 15.546,30.066 16.475,29.959 C 15.716,28.640 15.243,27.138 15.133,25.534 Z" fill="#000000"/>
  <path d="F1 M 29.267,28.523 L 22.994,22.250 C 23.099,21.988 23.158,21.702 23.158,21.403 C 23.158,20.138 22.133,19.113 20.868,19.113 C 20.568,19.113 20.283,19.172 20.021,19.277 L 21.933,21.189 L 20.722,22.400 L 18.783,20.461 C 18.653,20.748 18.578,21.067 18.578,21.403 C 18.578,22.667 19.604,23.692 20.868,23.692 C 21.204,23.692 21.523,23.618 21.810,23.488 L 28.056,29.734 L 29.267,28.523 Z" fill="#000000"/>
  <path d="F1 M 27.797,19.813 L 27.798,19.812 L 31.116,23.190 L 29.078,25.191 L 27.326,23.406 L 20.813,29.729 L 19.613,28.508 L 26.126,22.185 L 25.761,21.813 L 25.762,21.812 L 24.216,18.762 L 24.775,18.213 L 27.797,19.813 Z" fill="#000000"/>
</svg>