<?xml version="1.0" encoding="UTF-8"?>
<svg xmlns="http://www.w3.org/2000/svg" width="32" height="32" viewBox="0 0 32 32">
  <title>HourglassIconWhite</title>
  <path d="m 19.177842 21.043101 c -2.215124 -1.256456 -2.337801 -2.886883 -2.337801 -3.876219 l 0 -1.985597 c 0 -0.989336 0.117731 -2.625698 2.341758 -3.885123 1.190172 -0.691546 2.22007 -1.7412314 3.000656 -3.0402298 l -12.664491 0 c 0.781576 1.2989984 1.812464 2.3506628 3.003625 3.0422088 2.216112 1.256457 2.33879 2.886882 2.33879 3.876219 l 9.81e-4 1.985597 c 0 0.989336 -0.117731 2.625698 -2.341758 3.885123 -2.244804 1.303945 -3.918761 3.887101 -4.424311 6.997574 l 15.509821 0 C 23.09957 24.929213 21.424624 22.346057 19.177842 21.043101 M 4.9680077 30.021326 c 0 -5.778712 2.478287 -10.678893 6.9253533 -12.295469 l 0 -3.109483 C 7.4462947 12.99881 4.9680077 8.0986279 4.9680077 2.3199161 l 21.7653943 0 c 0 5.7787118 -2.478287 10.6788939 -6.925353 12.2954679 l 0 3.109484 c 4.447066 1.617565 6.925353 6.517746 6.925353 12.296458 l -21.7653943 0 z M 22.559393 16.170621 c 4.259092 -2.698909 7.142017 -7.8889662 7.142017 -13.8507049 0 -0.6697807 -0.0366 -1.33065731 -0.108827 -1.97867239 l -27.4847459 0 C 2.0366049 0.98925879 1.9999995 1.6501354 1.9999995 2.3199161 c 0 5.9617387 2.8829253 11.1517959 7.1410275 13.8507049 -4.2581022 2.699898 -7.1410275 7.889955 -7.1410275 13.850705 0 0.669781 0.036605 1.330657 0.1078376 1.978672 l 27.4857349 0 c 0.07123 -0.648015 0.108827 -1.308891 0.108827 -1.978672 -9.81e-4 -5.96075 -2.883914 -11.150807 -7.143006 -13.850705" fill="#FFFFFF"/>
</svg>