<?xml version="1.0" encoding="UTF-8"?>
<svg xmlns="http://www.w3.org/2000/svg" width="32" height="32" viewBox="0 0 32 32">
  <title>Import.DentalProjectFallback.ImportDentalProject.Icon</title>
  <path d="M2.5080001,7.1386671 L2.5080001,9.574667 L3.3406875,9.574667 C3.8386874,9.574667 4.2224064,9.4806671 4.4918437,9.2926674 C4.761281,9.1046677 4.8959999,8.7786674 4.8959999,8.3146667 C4.8959999,7.9226675 4.7755938,7.6286669 4.5347815,7.4326673 C4.2939687,7.2366672 3.9571874,7.1386671 3.5244374,7.1386671 z M0.85200006,5.7706671 L3.576,5.7706671 C4.2639999,5.7706676 4.8359995,5.8786674 5.2919998,6.094667 C5.7479997,6.310667 6.0879998,6.6046672 6.3120003,6.9766669 C6.5359998,7.3486671 6.6479998,7.778667 6.6480002,8.2666664 C6.6479998,8.7866669 6.5306249,9.2486668 6.2958751,9.652667 C6.0611248,10.056667 5.7070313,10.372667 5.2335939,10.600667 C4.7601562,10.828667 4.1834998,10.942667 3.5036249,10.942667 L2.5080001,10.942667 L2.5080001,13.546667 L0.85200006,13.546667 z" fill="White"/>
</svg>