<?xml version="1.0" encoding="UTF-8"?>
<svg xmlns="http://www.w3.org/2000/svg" width="24" height="24" viewBox="0 0 24 24">
  <title>Menu</title>
  <path d="m 2.2955922 277 c -0.1636876 0 -0.295592 0.1318 -0.295592 0.29558 v 2.40915 c 0 0.1636 0.1319052 0.29558 0.295592 0.29558 H 21.704409 c 0.163682 0 0.295591 -0.132 0.295591 -0.29558 v -2.40915 C 22 277.13198 21.868099 277 21.704409 277 Z m 0.03514 6.49983 C 2.1475066 283.49983 2 283.64733 2 283.83055 v 2.33887 c 0 0.1832 0.1475074 0.33074 0.3307323 0.33074 H 21.669269 c 0.183222 0 0.330731 -0.1476 0.330731 -0.33074 v -2.33887 c 0 -0.1832 -0.147501 -0.33072 -0.330731 -0.33072 z m -0.082683 6.50088 C 2.11063 290.00071 2 290.11029 2 290.24771 v 2.50423 C 2 292.88934 2.110631 293 2.2480491 293 H 21.751952 C 21.889373 293 22 292.8894 22 292.75194 v -2.50423 c 0 -0.1374 -0.110621 -0.247 -0.248048 -0.247 z" fill="#FFFFFF" stroke-width="0.08486172"/>
</svg>