<?xml version="1.0" encoding="UTF-8"?>
<svg xmlns="http://www.w3.org/2000/svg" width="32" height="32" viewBox="0 0 32 32">
  <title>Parameters</title>
  <path d="m 15.878906 3.84375 c -0.06526 0.0117 -0.137573 0.042106 -0.224609 0.1035156 L 8.5839844 6.2890625 h 1.5253906 1.5 V 11.3125 H 7.5644531 v 4.042969 H 4.1933594 l 0.029297 4.722656 c 0.0069 0.38086 0.09812 0.733889 0.5253907 0.974609 L 16.066406 27.5 c 0.162379 0.17494 0.465492 0.255438 1.050782 0.148438 l 0.734374 -0.332032 -0.607421 0.261719 c -0.487659 0.210306 -0.88086 -0.04297 -0.88086 -0.568359 V 15.517578 c 0 -0.52539 0.393201 -1.119772 0.88086 -1.330078 L 27.808594 9.6328125 c 0.121914 -0.052575 0.236414 -0.07464 0.341797 -0.072266 0.316146 0.00725 0.537109 0.2485356 0.537109 0.6425785 v 1.373047 L 28.73633 9.958984 C 28.71683 9.688134 28.69653 9.418036 28.435549 9.2851558 L 16.447266 3.9804688 c -0.243668 -0.03 -0.37257 -0.1697757 -0.56836 -0.1347657 z" fill="#000000" stroke-width="0.84812182"/>
  <path d="m 14.922944 -2.6448226 c 0.0014 7.78e-4 0.0019 10e-4 0.0016 8.33e-4 z" fill="#000000" stroke-width="0.05554198"/>
  <path d="m 2.1301754 -24.684346 c 0.124254 -0.0028 0.260551 0.02395 0.404297 0.08594 l 12.4550776 5.371094 c 0.574986 0.247967 1.039063 0.946931 1.039063 1.566406 v 13.5507814 c 0 0.619475 -0.464077 0.917889 -1.039063 0.669922 L 3.4875974 -8.4011436 c 0.264491 -0.438362 0.388389 -0.97486 0.53125 -1.498046 l 0.769532 -0.1464854 c 1.003976 1.4108814 2.343852 2.4080054 3.871093 2.1523444 h 0.002 c 1.3501866 -0.229033 2.3222646 -1.300327 2.8437496 -2.5878914 0.521486 -1.287565 0.665765 -2.864545 0.384766 -4.515625 -0.26149 -1.535748 -0.854234 -2.897267 -1.681641 -3.923828 -0.8269826 -1.026037 -1.9403536 -1.761153 -3.2148426 -1.751953 h -0.002 -0.0039 c -0.159588 0.0016 -0.325214 0.01397 -0.49414 0.04297 h -0.002 c -0.99682 0.170783 -1.818095 0.823161 -2.36914 1.673828 -0.409743 0.632534 -0.561789 1.477223 -0.71875 2.310547 l -0.757813 0.142578 c -0.342518 -0.402674 -0.724587 -0.758849 -1.148437 -1.023438 v -6.40039 c 0 -0.464606 0.260051 -0.749268 0.632812 -0.757812 z" fill="#000000" stroke-width="3.50882912"/>
  <path d="M 4.0429688 3.7460938 V 7.7910156 H 0 V 9.8125 h 4.0429688 v 4.042969 H 6.0664062 V 9.8125 H 10.109375 V 7.7910156 H 6.0664062 V 3.7460938 Z M 24.021484 13.810547 c -1.481402 -0.01156 -2.911394 1.765129 -3.310546 4.109375 -0.429136 2.521492 0.484457 4.78055 2.042968 5.044922 1.017419 0.170316 2.106635 -0.559365 2.84961 -1.908203 l 1.552734 0.296875 c 0.187331 1.288797 0.825176 2.264532 1.736328 2.419922 1.306997 0.222672 2.659816 -1.310917 3.019531 -3.425782 0.360027 -2.11439 -0.408137 -4.009568 -1.714843 -4.232422 -0.07877 -0.0131 -0.157759 -0.01917 -0.238282 -0.01953 -0.724553 -0.0059 -1.430014 0.507327 -1.96289 1.318359 L 26.4375 17.123047 c -0.140277 -1.791724 -0.982412 -3.0914 -2.128906 -3.287109 -0.0939 -0.01619 -0.189131 -0.02444 -0.285156 -0.02539 z" fill="#000000" stroke-width="0.05230099"/>
  <path d="m 13.087891 4.3867188 c -2.052004 0 -3.7438975 1.4392747 -4.1542972 3.3886718 H 0.13378906 V 9.6210938 H 8.8808594 c 0.4103997 1.8980872 2.1555456 3.3867192 4.1562496 3.3867182 2.052004 0 3.741944 -1.437325 4.152344 -3.3867182 H 31.866211 V 7.7753906 H 17.244141 C 16.833741 5.877303 15.088593 4.3867188 13.087891 4.3867188 Z m 9.484375 7.7851562 c -2.052004 0 -3.741944 1.441228 -4.152344 3.390625 H 0.13378906 v 1.845703 H 18.367188 c 0.410399 1.898087 2.153592 3.386719 4.154296 3.386719 2.052004 0 3.741944 -1.437325 4.152344 -3.386719 h 5.192383 V 15.5625 h -5.137695 c -0.4104 -1.898088 -2.155548 -3.390625 -4.15625 -3.390625 z M 9.4277344 19.958984 c -2.0007027 0 -3.7458503 1.490584 -4.15625 3.388672 H 0.13378906 v 1.845703 H 5.3261719 c 0.4104002 1.949394 2.1003403 3.386719 4.1523437 3.386719 2.0007044 0 3.7438974 -1.488631 4.1542964 -3.386719 H 31.866211 V 23.347656 H 13.580078 c -0.4104 -1.949397 -2.10034 -3.388672 -4.1523436 -3.388672 z" fill="#000000" stroke-width="0.12825026"/>
</svg>