<?xml version="1.0" encoding="UTF-8"?>
<svg xmlns="http://www.w3.org/2000/svg" width="32" height="32" viewBox="0 0 32 32">
  <title>ProjectParameters</title>
  <path d="m 15.878906 3.84375 c -0.06526 0.0117 -0.137573 0.042106 -0.224609 0.1035156 L 8.5839844 6.2890625 h 1.5253906 1.5 V 11.3125 H 7.5644531 v 4.042969 H 4.1933594 l 0.029297 4.722656 c 0.0069 0.38086 0.09812 0.733889 0.5253907 0.974609 L 16.066406 27.5 c 0.162379 0.17494 0.465492 0.255438 1.050782 0.148438 l 0.734374 -0.332032 -0.607421 0.261719 c -0.487659 0.210306 -0.88086 -0.04297 -0.88086 -0.568359 V 15.517578 c 0 -0.52539 0.393201 -1.119772 0.88086 -1.330078 L 27.808594 9.6328125 c 0.121914 -0.052575 0.236414 -0.07464 0.341797 -0.072266 0.316146 0.00725 0.537109 0.2485356 0.537109 0.6425785 v 1.373047 L 28.73633 9.958984 C 28.71683 9.688134 28.69653 9.418036 28.435549 9.2851558 L 16.447266 3.9804688 c -0.243668 -0.03 -0.37257 -0.1697757 -0.56836 -0.1347657 z" fill="#000000" stroke-width="0.84812182"/>
  <path d="m 14.922944 -2.6448226 c 0.0014 7.78e-4 0.0019 10e-4 0.0016 8.33e-4 z" fill="#000000" stroke-width="0.05554198"/>
  <path d="m 2.1301754 -24.684346 c 0.124254 -0.0028 0.260551 0.02395 0.404297 0.08594 l 12.4550776 5.371094 c 0.574986 0.247967 1.039063 0.946931 1.039063 1.566406 v 13.5507814 c 0 0.619475 -0.464077 0.917889 -1.039063 0.669922 L 3.4875974 -8.4011436 c 0.264491 -0.438362 0.388389 -0.97486 0.53125 -1.498046 l 0.769532 -0.1464854 c 1.003976 1.4108814 2.343852 2.4080054 3.871093 2.1523444 h 0.002 c 1.3501866 -0.229033 2.3222646 -1.300327 2.8437496 -2.5878914 0.521486 -1.287565 0.665765 -2.864545 0.384766 -4.515625 -0.26149 -1.535748 -0.854234 -2.897267 -1.681641 -3.923828 -0.8269826 -1.026037 -1.9403536 -1.761153 -3.2148426 -1.751953 h -0.002 -0.0039 c -0.159588 0.0016 -0.325214 0.01397 -0.49414 0.04297 h -0.002 c -0.99682 0.170783 -1.818095 0.823161 -2.36914 1.673828 -0.409743 0.632534 -0.561789 1.477223 -0.71875 2.310547 l -0.757813 0.142578 c -0.342518 -0.402674 -0.724587 -0.758849 -1.148437 -1.023438 v -6.40039 c 0 -0.464606 0.260051 -0.749268 0.632812 -0.757812 z" fill="#000000" stroke-width="3.50882912"/>
  <path d="M 4.0429688 3.7460938 V 7.7910156 H 0 V 9.8125 h 4.0429688 v 4.042969 H 6.0664062 V 9.8125 H 10.109375 V 7.7910156 H 6.0664062 V 3.7460938 Z M 24.021484 13.810547 c -1.481402 -0.01156 -2.911394 1.765129 -3.310546 4.109375 -0.429136 2.521492 0.484457 4.78055 2.042968 5.044922 1.017419 0.170316 2.106635 -0.559365 2.84961 -1.908203 l 1.552734 0.296875 c 0.187331 1.288797 0.825176 2.264532 1.736328 2.419922 1.306997 0.222672 2.659816 -1.310917 3.019531 -3.425782 0.360027 -2.11439 -0.408137 -4.009568 -1.714843 -4.232422 -0.07877 -0.0131 -0.157759 -0.01917 -0.238282 -0.01953 -0.724553 -0.0059 -1.430014 0.507327 -1.96289 1.318359 L 26.4375 17.123047 c -0.140277 -1.791724 -0.982412 -3.0914 -2.128906 -3.287109 -0.0939 -0.01619 -0.189131 -0.02444 -0.285156 -0.02539 z" fill="#000000" stroke-width="0.05230099"/>
  <path d="m 13.087891 4.3867188 c -2.052004 0 -3.7438975 1.4392747 -4.1542972 3.3886718 H 0.13378906 V 9.6210938 H 8.8808594 c 0.4103997 1.8980872 2.1555456 3.3867192 4.1562496 3.3867182 2.052004 0 3.741944 -1.437325 4.152344 -3.3867182 H 31.866211 V 7.7753906 H 17.244141 C 16.833741 5.877303 15.088593 4.3867188 13.087891 4.3867188 Z m 9.484375 7.7851562 c -2.052004 0 -3.741944 1.441228 -4.152344 3.390625 H 0.13378906 v 1.845703 H 18.367188 c 0.410399 1.898087 2.153592 3.386719 4.154296 3.386719 2.052004 0 3.741944 -1.437325 4.152344 -3.386719 h 5.192383 V 15.5625 h -5.137695 c -0.4104 -1.898088 -2.155548 -3.390625 -4.15625 -3.390625 z M 9.4277344 19.958984 c -2.0007027 0 -3.7458503 1.490584 -4.15625 3.388672 H 0.13378906 v 1.845703 H 5.3261719 c 0.4104002 1.949394 2.1003403 3.386719 4.1523437 3.386719 2.0007044 0 3.7438974 -1.488631 4.1542964 -3.386719 H 31.866211 V 23.347656 H 13.580078 c -0.4104 -1.949397 -2.10034 -3.388672 -4.1523436 -3.388672 z" fill="#000000" stroke-width="0.12825026"/>
  <path d="m 101.32812 310.03516 c -1.612685 -0.0747 -4.880313 4.7355 -6.089839 5.63672 -2.52088 1.53847 -7.22271 0.61793 -7.787109 0.39257 -0.564458 -0.22521 2.41571 -0.24666 3.302734 -0.69726 0.734522 -0.37316 -0.961478 -1.51075 -1.591797 -1.90821 h -4.492187 v 4.62305 h -3.9375 c -0.150992 1.99966 1.32796 7.65779 2.537109 9.98047 1.290136 2.47833 1.625591 4.91727 1.544922 5.81836 h 21.361327 v -0.81836 c -0.2874 -5.15504 2.76663 -10.85912 1.9082 -16.11914 -0.64506 -2.92893 -5.1432 -6.833 -6.75586 -6.9082 z m -12.035151 1.24804 v 2.16602 c 0.971057 0.40781 4.289697 1.69551 5.945312 0.82812 0.672258 -0.11316 -3.42322 -0.63256 -4.726562 -1.81836 -0.530993 -0.49454 -0.859265 -0.82348 -1.21875 -1.17578 z" fill="#000000" stroke-width="0.96953875"/>
  <path d="m -23.402484 -26.770445 v 2.383883 h -4.767767 v 4.767767 h -2.383883 v -4.767767 h -4.767767 v -2.383883 h 4.767767 v -4.767767 h 2.383883 v 4.767767 z" fill="#000000" stroke-width="2.04332876"/>
  <path d="M 2.4824219 0 L 2.4824219 32 L 24.484375 32 L 24.484375 30 L 4.484375 30 L 4.484375 2 L 18.484375 2 L 18.484375 10 L 26.484375 10 L 26.484375 14.304688 A 4.7034271 4.7034271 0 0 1 28.472656 16 L 28.482422 16 L 28.482422 8.578125 L 19.904297 0 L 2.4824219 0 z M 20.484375 3.421875 L 25.0625 8 L 20.484375 8 L 20.484375 3.421875 z M 24.798828 16.148438 C 23.649542 16.148438 22.645923 17.005347 22.410156 18.095703 L 14.087891 18.095703 L 14.087891 19.15625 L 22.441406 19.15625 C 22.677154 20.276086 23.64742 21.101562 24.826172 21.101562 C 25.975458 21.101563 26.979115 20.246606 27.214844 19.15625 L 31.017578 19.15625 L 31.017578 18.095703 L 27.183594 18.095703 C 26.947842 16.975867 25.97758 16.148438 24.798828 16.148438 z M 18.484375 20.408203 C 17.335088 20.408203 16.333385 21.265113 16.097656 22.355469 L 14.087891 22.355469 L 14.087891 23.416016 L 16.126953 23.416016 C 16.362705 24.535852 17.334921 25.361328 18.513672 25.361328 C 19.662959 25.361328 20.664625 24.506372 20.900391 23.416016 L 31.017578 23.416016 L 31.017578 22.355469 L 20.869141 22.355469 C 20.633389 21.235633 19.663126 20.408203 18.484375 20.408203 z M 26.775391 24.669922 C 25.596636 24.669922 24.626377 25.497352 24.390625 26.617188 L 13.808594 26.617188 L 13.808594 27.677734 L 24.359375 27.677734 C 24.595142 28.76809 25.596807 29.623047 26.746094 29.623047 C 27.924845 29.623047 28.897061 28.797533 29.132812 27.677734 L 30.738281 27.677734 L 30.738281 26.617188 L 29.162109 26.617188 C 28.926379 25.526832 27.924674 24.669922 26.775391 24.669922 z " fill="#000000" stroke-width="0.07367206"/>
</svg>