<?xml version="1.0" encoding="UTF-8"?>
<svg xmlns="http://www.w3.org/2000/svg" width="32.000" height="32.000" viewBox="0 0 32.000 32.000">
  <title>ProstheticMonoblockMode.2.ProstheticMonoblockProductionType.Mill</title>
  <path d="F1 M 32.000,32.000 L 0.000,32.000 L 0.000,0.000 L 32.000,0.000 L 32.000,32.000 Z" fill="currentColor"/>
  <path d="F1 M 21.569,5.940 L 10.431,5.940 C 9.185,5.940 8.175,4.930 8.175,3.684 L 8.175,2.455 C 8.175,2.143 8.427,1.891 8.739,1.891 L 23.261,1.891 C 23.573,1.891 23.825,2.143 23.825,2.455 L 23.825,3.684 C 23.825,4.930 22.815,5.940 21.569,5.940 Z" fill="#fffeff"/>
  <path d="F1 M 19.790,11.020 L 12.210,11.020 C 11.119,11.020 10.235,10.136 10.235,9.045 L 10.235,7.299 C 10.235,7.027 10.456,6.806 10.729,6.806 L 21.271,6.806 C 21.544,6.806 21.765,7.027 21.765,7.299 L 21.765,9.045 C 21.765,10.136 20.881,11.020 19.790,11.020 Z" fill="#fffeff"/>
  <path d="F1 M 18.980,12.526 L 18.980,13.006 L 13.295,17.498 C 13.183,17.586 13.020,17.507 13.020,17.365 L 13.020,12.526 C 13.020,12.172 13.307,11.885 13.660,11.885 L 18.330,11.885 C 18.690,11.885 18.980,12.165 18.980,12.526 Z" fill="#fffeff"/>
  <path d="F1 M 18.980,15.485 L 18.980,17.075 C 18.980,17.202 18.922,17.321 18.822,17.400 L 13.326,21.744 C 13.202,21.842 13.020,21.754 13.020,21.596 L 13.020,20.029 C 13.020,19.888 13.085,19.755 13.195,19.667 L 18.674,15.337 C 18.798,15.239 18.980,15.327 18.980,15.485 Z" fill="#fffeff"/>
  <path d="F1 M 13.199,23.851 L 18.685,19.513 C 18.760,19.454 18.872,19.507 18.872,19.604 L 18.872,22.740 C 18.872,24.321 17.720,25.758 16.143,25.885 C 14.796,25.994 13.615,25.218 13.141,24.064 C 13.110,23.989 13.136,23.901 13.199,23.851 Z" fill="#fffeff"/>
  <path d="F1 M 29.362,24.172 L 29.362,29.252 C 29.362,29.528 29.148,29.752 28.884,29.752 L 3.116,29.752 C 2.858,29.752 2.638,29.532 2.638,29.252 L 2.638,24.172 C 2.638,23.892 2.858,23.672 3.116,23.672 L 7.531,23.672 C 7.809,23.672 8.034,23.908 8.034,24.199 L 8.034,27.312 C 8.034,27.587 8.249,27.812 8.512,27.812 L 23.507,27.812 C 23.765,27.812 23.975,27.591 23.975,27.322 L 23.975,24.199 C 23.975,23.908 24.201,23.672 24.479,23.672 L 28.884,23.672 C 29.148,23.672 29.362,23.896 29.362,24.172 Z" fill="#fffeff"/>
</svg>