<?xml version="1.0" encoding="UTF-8"?>
<svg xmlns="http://www.w3.org/2000/svg" width="32.000" height="32.000" viewBox="0 0 32.000 32.000">
  <title>RapidPlanningIcon</title>
  <path d="F1 M 32.000,32.000 L 0.000,32.000 L 0.000,0.000 L 32.000,0.000 L 32.000,32.000 Z" fill="#ffffff"/>
  <path d="F1 M 24.535,15.672 L 21.165,15.672 L 21.165,14.441 L 24.535,14.441 L 24.535,15.672 Z" fill="#000000"/>
  <path d="F1 M 22.850,24.244 C 22.688,24.244 22.556,24.113 22.556,23.951 C 22.556,23.788 22.688,23.657 22.850,23.657 C 23.012,23.657 23.144,23.788 23.144,23.951 C 23.144,24.113 23.012,24.244 22.850,24.244 Z M 22.850,23.087 C 22.373,23.087 21.986,23.473 21.986,23.951 C 21.986,24.428 22.373,24.815 22.850,24.815 C 23.327,24.815 23.714,24.428 23.714,23.951 C 23.714,23.473 23.327,23.087 22.850,23.087 Z" fill="#000000"/>
  <path d="F1 M 23.825,23.413 L 23.371,22.991 L 25.203,21.024 L 25.656,21.446 L 23.825,23.413 Z" fill="#000000"/>
  <path d="F1 M 23.568,16.940 L 23.568,16.082 L 22.132,16.082 L 22.132,16.940 C 19.718,17.184 17.680,18.656 16.611,20.712 L 15.121,20.712 L 15.121,21.254 L 16.342,21.254 L 18.299,21.254 C 19.222,19.700 20.912,18.656 22.850,18.656 C 25.774,18.656 28.145,21.026 28.145,23.951 C 28.145,26.875 25.774,29.245 22.850,29.245 C 21.107,29.245 19.564,28.400 18.600,27.100 L 16.551,27.100 C 17.706,29.410 20.091,30.998 22.850,30.998 C 26.742,30.998 29.897,27.843 29.897,23.951 C 29.897,20.301 27.123,17.300 23.568,16.940 Z" fill="#000000"/>
  <path d="F1 M 16.085,21.972 C 15.971,22.363 15.906,22.772 15.863,23.188 L 13.246,23.188 L 13.246,23.811 L 15.813,23.811 C 15.813,23.813 15.812,23.816 15.812,23.818 L 17.562,23.818 C 17.578,23.167 17.710,22.545 17.941,21.972 L 16.085,21.972 Z" fill="#000000"/>
  <path d="F1 M 18.148,26.382 C 17.856,25.818 17.662,25.196 17.589,24.536 L 15.832,24.536 C 15.867,24.955 15.952,25.358 16.057,25.752 L 15.149,25.752 L 15.149,26.375 L 16.241,26.375 C 16.242,26.377 16.243,26.380 16.243,26.382 L 18.148,26.382 Z" fill="#000000"/>
  <path d="F1 M 5.057,12.926 C 7.040,13.742 16.024,13.741 15.353,11.130 L 15.802,10.787 C 15.802,10.787 18.733,11.473 17.150,12.741 C 15.565,14.008 7.143,14.959 4.477,14.404 C 0.800,13.639 4.997,12.926 5.057,12.926" fill="#000000"/>
  <path d="F1 M 4.450,10.286 C 4.145,11.975 11.576,10.972 14.719,10.760 C 14.719,10.760 5.964,12.600 3.104,11.130 C 2.166,10.647 4.450,10.286 4.450,10.286" fill="#000000"/>
  <path d="F1 M 10.131,1.002 C 6.113,1.002 2.857,1.615 2.857,2.372 C 2.857,3.131 6.113,3.743 10.131,3.743 C 14.145,3.743 17.402,3.131 17.402,2.372 C 17.402,1.615 14.145,1.002 10.131,1.002 M 10.131,1.582 C 13.008,1.582 15.347,1.892 15.347,2.293 C 15.347,2.694 13.008,3.031 10.131,3.031 C 7.251,3.031 4.938,2.694 4.938,2.293 C 4.938,1.892 7.251,1.582 10.131,1.582" fill="#000000"/>
  <path d="F1 M 2.103,3.118 C 3.418,5.632 19.012,4.788 18.221,2.918 L 17.970,9.090 C 14.889,11.212 4.660,11.208 2.602,8.790 L 2.103,3.118 Z" fill="#000000"/>
  <path d="F1 M 17.230,14.302 C 16.692,13.936 15.882,13.744 15.882,13.744 L 15.433,14.088 C 16.102,16.698 7.119,16.700 5.136,15.882 C 5.076,15.882 0.880,16.595 4.555,17.360 C 6.357,17.736 10.784,17.422 13.956,16.788 C 14.862,15.750 15.974,14.902 17.230,14.302 Z" fill="#000000"/>
  <path d="F1 M 12.408,19.166 C 9.787,19.618 6.200,19.426 5.031,18.944 C 4.969,18.944 0.775,19.657 4.450,20.423 C 5.920,20.729 9.142,20.576 12.003,20.165 C 12.120,19.823 12.256,19.490 12.408,19.166 Z" fill="#000000"/>
  <path d="F1 M 11.531,22.196 C 9.092,22.439 6.277,22.238 5.268,21.822 C 5.207,21.822 1.012,22.535 4.687,23.301 C 6.025,23.579 8.813,23.478 11.458,23.149 C 11.469,22.827 11.492,22.509 11.531,22.196 Z" fill="#000000"/>
  <path d="F1 M 11.582,25.095 C 9.265,25.320 6.602,25.129 5.645,24.738 C 5.587,24.738 1.588,25.411 5.091,26.135 C 6.403,26.405 9.175,26.295 11.759,25.962 C 11.688,25.678 11.629,25.389 11.582,25.095 Z" fill="#000000"/>
  <path d="F1 M 12.240,27.441 C 10.328,27.651 7.992,27.527 6.347,26.586 C 6.347,26.586 6.189,27.588 6.347,28.006 C 6.618,28.992 10.497,29.417 13.101,29.046 C 12.770,28.540 12.478,28.005 12.240,27.441 Z" fill="#000000"/>
</svg>