<?xml version="1.0" encoding="UTF-8"?>
<svg xmlns="http://www.w3.org/2000/svg" width="32.000" height="32.000" viewBox="0 0 32.000 32.000">
  <title>RestoPlanIcon</title>
  <path d="F1 M 16.033,26.796 L 15.920,26.795 L 15.763,26.796 C 14.345,26.796 12.535,26.469 10.997,25.636 L 11.699,30.074 C 11.829,30.895 12.465,31.544 13.283,31.690 L 14.148,31.845 C 15.301,32.052 16.480,32.052 17.633,31.845 L 18.499,31.690 C 19.317,31.544 19.952,30.895 20.082,30.074 L 20.785,25.636 C 18.786,26.723 16.557,26.796 16.033,26.796 Z" fill="#000000"/>
  <path d="F1 M 15.358,5.099 C 14.395,5.077 12.311,5.066 10.748,5.337 C 10.109,5.458 9.515,5.720 9.075,6.183 C 8.833,6.465 8.635,6.787 8.525,7.130 C 8.459,7.391 8.437,7.673 8.437,7.955 C 8.459,9.506 8.525,9.198 8.635,10.729 C 8.701,11.796 8.789,12.844 8.921,13.891 C 9.053,14.938 9.229,16.005 9.471,17.032 C 9.669,17.939 9.933,18.865 10.307,19.731 C 10.572,20.376 10.946,21.040 11.496,21.524 C 12.582,22.603 14.237,22.965 15.358,23.038 L 15.358,5.099 Z" fill="#000000"/>
  <path d="F1 M 15.358,2.429 C 14.182,2.398 11.322,2.370 9.215,2.735 C 8.387,2.892 7.616,3.232 7.045,3.833 C 6.730,4.199 6.473,4.617 6.330,5.061 C 6.245,5.401 6.216,5.767 6.216,6.133 C 6.245,8.146 6.330,7.746 6.473,9.733 C 6.559,11.118 6.673,12.478 6.845,13.837 C 7.016,15.196 7.244,16.581 7.559,17.915 C 7.816,19.091 8.158,20.293 8.644,21.417 C 8.987,22.254 9.473,23.116 10.187,23.744 C 11.647,25.195 13.904,25.651 15.358,25.720 L 15.358,2.429 Z" fill="#000000"/>
  <path d="F1 M 23.790,12.003 C 23.392,12.202 22.967,12.452 22.880,12.536 C 22.795,12.623 22.546,13.048 22.347,13.446 L 21.895,14.348 L 21.443,13.446 C 21.243,13.048 20.994,12.623 20.909,12.536 C 20.822,12.452 20.397,12.202 19.999,12.003 L 19.098,11.551 L 19.999,11.099 C 20.397,10.899 20.822,10.650 20.909,10.565 C 20.994,10.479 21.243,10.054 21.443,9.655 L 21.895,8.753 L 22.347,9.656 C 22.546,10.053 22.795,10.478 22.880,10.565 C 22.967,10.650 23.392,10.899 23.790,11.099 L 24.691,11.551 L 23.790,12.003 Z M 23.189,6.860 L 21.678,6.103 L 23.189,5.345 C 23.856,5.011 24.569,4.593 24.713,4.451 C 24.845,4.317 25.211,3.696 25.530,3.075 C 25.510,2.931 25.487,2.787 25.441,2.649 C 25.298,2.205 25.041,1.786 24.727,1.420 C 24.184,0.819 23.384,0.479 22.556,0.323 C 20.369,-0.056 17.469,-0.011 16.423,0.020 L 16.423,25.723 C 17.829,25.676 20.076,25.243 21.584,23.744 C 22.327,23.116 22.784,22.254 23.155,21.417 C 23.641,20.293 23.955,19.091 24.241,17.914 C 24.526,16.581 24.755,15.196 24.926,13.837 C 25.098,12.478 25.212,11.118 25.298,9.733 C 25.320,9.420 25.332,9.103 25.352,8.789 C 25.085,8.296 24.821,7.864 24.713,7.755 C 24.569,7.613 23.856,7.194 23.189,6.860 Z" fill="#000000"/>
  <path d="F1 M 21.895,9.882 C 21.895,9.882 21.481,10.707 21.266,10.922 C 21.051,11.137 20.226,11.551 20.226,11.551 C 20.226,11.551 21.051,11.964 21.266,12.179 C 21.481,12.394 21.895,13.219 21.895,13.219 C 21.895,13.219 22.308,12.394 22.523,12.179 C 22.738,11.964 23.563,11.551 23.563,11.551 C 23.563,11.551 22.738,11.137 22.523,10.922 C 22.308,10.707 21.895,9.882 21.895,9.882 Z" fill="#000000"/>
  <path d="F1 M 26.365,3.306 C 26.365,3.306 25.672,4.689 25.312,5.050 C 24.952,5.410 23.568,6.103 23.568,6.103 C 23.568,6.103 24.952,6.796 25.312,7.156 C 25.672,7.516 26.365,8.900 26.365,8.900 C 26.365,8.900 27.058,7.516 27.418,7.156 C 27.779,6.796 29.162,6.103 29.162,6.103 C 29.162,6.103 27.779,5.410 27.418,5.050 C 27.058,4.689 26.365,3.306 26.365,3.306 Z" fill="#000000"/>
  <path d="F1 M 32.000,32.000 L 0.000,32.000 L 0.000,0.000 L 32.000,0.000 L 32.000,32.000 Z" fill="currentColor"/>
  <rect x="0" y="0" width="0" height="0" fill="none"/>
</svg>