<?xml version="1.0" encoding="UTF-8"?>
<svg xmlns="http://www.w3.org/2000/svg" width="512" height="512" viewBox="0 0 512 512">
  <title>ScanIconDOF</title>
  <path d="M256 15C122.9 15 15 122.9 15 256s107.9 241 241 241s241-107.9 241-241S389.1 15 256 15z M256 471.7  c-119 0-215.4-96.4-215.4-215.4c0-84.5 48.6-157.6 119.4-192.9v46.1h39.5v26.3L157.8 188h196.4l-41.7-52.2v-26.3H352v-0.1v-46  c70.8 35.3 119.4 108.4 119.4 192.9C471.4 375.3 375 471.7 256 471.7z" fill="#000000"/>
  <path d="M298.4 188h-84.6L46.3 305.5c9.3 38.6 28.5 73.2 55 100.7c0.4 0.4 0.8 0.9 1.3 1.3c0.5 0.5 1 1.1 1.6 1.6  c34 33.8 79.2 56.4 129.6 61.5c0.2 0 0.5 0 0.7 0.1c1.4 0.1 2.9 0.3 4.3 0.4c0.5 0 1 0.1 1.5 0.1c1.2 0.1 2.4 0.2 3.6 0.2  c0.6 0 1.2 0.1 1.8 0.1c1.1 0.1 2.3 0.1 3.4 0.1c0.6 0 1.2 0 1.8 0.1c1.6 0 3.2 0.1 4.7 0.1c0.1 0 0.3 0 0.4 0c1.8 0 3.6 0 5.3-0.1  c0.3 0 0.5 0 0.8 0c1.6 0 3.1-0.1 4.7-0.2c0.2 0 0.4 0 0.6 0c65.9-3.4 124-36.5 161.2-86.2c0 0 0 0 0 0c0.9-1.1 1.7-2.3 2.5-3.5  c0.4-0.5 0.7-1 1.1-1.5c0.4-0.6 0.8-1.2 1.2-1.8c10.6-15.4 19.2-32.2 25.6-50.1c0.2-0.5 0.3-1 0.5-1.4c0.3-0.8 0.5-1.5 0.8-2.3  c2.1-6.2 3.8-12.4 5.3-18.8L298.4 188z M327.7 349.1c-9.4 17.7-2.5 18.1-7.1 52.7c-5 38-17 36.2-23.6 36.2c-6.6 0-9.7-4-12-15.5  c-2.3-11.5 1.3-13.1-1.6-30.5c-2.6-15.5-13.9-22.2-27.2-20.9c-14.9 1.4-20.9 17.2-21.4 25.1c-0.5 7.9-0.3 7.6-0.6 23.8  s-6.9 18.1-15.4 18.1s-12.3-4.3-17-17.5c-5-14.1-6.2-34.9-8.4-55.1c-1.5-13.3-11.8-23-18-38.6c-9.1-23-6.5-44.4 1.5-58.3  c6.9-12 17.7-16.8 17.7-16.8c10.6-3.8 19.2-4.2 30.3-1.9c10.9 2.3 22.8 11.1 34.3 10.8s25.7-9.1 35.8-11.6  c10.1-2.5 30.3-2.9 42 17.9C350.6 291.2 335.1 335.2 327.7 349.1z" fill="#000000"/>
</svg>