<?xml version="1.0" encoding="UTF-8"?>
<svg xmlns="http://www.w3.org/2000/svg" width="200" height="200" viewBox="0 0 200 200">
  <title>ScanIconZFXE</title>
  <path d="M 246.74609 20.117188 C 127.78086 20.117188 31.339844 116.55819 31.339844 235.52344 C 31.339844 354.48867 127.78086 450.92969 246.74609 450.92969 C 270.87421 450.92969 293.99203 446.77247 315.65039 439.45508 C 338.25408 483.84688 362.71297 531.90798 383.25781 572.24805 C 355.02331 564.32453 325.48147 554.01982 301.25 546.14453 C 247.45605 528.66225 191.12025 547.66336 159.13672 594.21289 C 152.41641 603.99302 146.89014 614.38169 143.10742 626.23047 L 470.19727 731.79102 C 581.68263 751.49214 680.63943 696.96539 715.59375 599.33203 C 736.15755 518.59996 722.04516 430.74342 666.29297 376.88477 C 628.384 351.73398 623.31925 352.32955 591.28711 373.05859 C 576.5623 380.62988 540.25999 333.22931 500.62695 371.17773 C 471.1325 344.94777 451.70263 340.74253 427.16602 352.97461 C 449.21892 319.17344 462.15234 278.89298 462.15234 235.52344 C 462.15234 116.55819 365.71134 20.117187 246.74609 20.117188 z M 133.11719 63.001953 C 228.28276 101.74851 277.73763 100.68243 362.21289 65.070312 C 386.06592 80.930008 405.5591 100.48039 417.6582 121.64453 C 410.89674 141.20227 401.58303 173.11233 400.54102 195.81445 C 339.77992 202.93376 340.0834 269.63756 400.54102 275.23047 C 404.0488 299.95157 407.38989 331.21769 420.16602 349.15039 C 415.5878 354.75961 410.9021 360.10247 406.14258 365.22266 C 405.66658 364.34992 368.8253 296.47847 344.00977 249.37891 C 344.65524 244.83825 345.0957 240.23892 345.0957 235.52344 C 345.0957 181.31429 300.95524 137.17188 246.74609 137.17188 C 192.53695 137.17188 148.39453 181.31429 148.39453 235.52344 C 148.39453 289.73257 192.53695 333.87305 246.74609 333.87305 C 251.70142 333.87305 256.53003 333.37369 261.29102 332.66211 C 278.62164 366.71303 294.36642 397.6382 311.09375 430.49023 C 307.14962 431.90956 303.20997 433.35094 299.22266 434.50195 C 286.92738 325.51888 204.26426 324.99086 194.49805 434.50195 C 124.87942 414.80767 68.754068 356.38036 47.076172 287.54102 C 156.21821 276.8741 156.88794 193.94237 47.765625 183.94531 C 60.22593 133.75714 93.914662 91.181581 133.11719 63.001953 z M 246.74609 147.66406 C 293.94006 147.66406 332.18035 184.64944 334.39648 231.28125 C 333.63249 229.80544 332.17427 227.15536 331.4707 225.78516 C 329.21937 221.44328 326.2532 217.71708 322.83789 214.51953 C 314.73466 185.15301 290.0729 162.70097 259.51562 157.7168 L 259.51562 191.25977 L 272.53516 191.25977 C 274.4658 194.74539 276.49243 198.1758 278.44922 201.64648 C 272.16396 202.46106 266.0044 204.15924 260.41406 206.93359 C 232.49072 221.64224 226.3605 262.90998 236.29688 283.58984 C 243.31004 297.37314 249.30714 309.14803 256.27539 322.83984 C 253.14553 323.17535 249.96713 323.36133 246.74609 323.36133 C 198.12086 323.36133 158.88672 284.14866 158.88672 235.52344 C 158.88672 186.8982 198.12086 147.66406 246.74609 147.66406 z M 233.97656 157.7168 C 196.46305 163.83558 167.78906 196.28003 167.78906 235.52344 C 167.78906 274.76683 196.46305 307.2113 233.97656 313.33008 L 233.97656 279.78711 L 220.95703 279.78711 C 212.68726 264.85657 204.13961 250.08544 195.62695 235.29297 C 204.56539 220.73694 212.95776 205.8659 221.41602 191.0293 L 233.97656 191.25977 L 233.97656 157.7168 z " fill="#000000" stroke-width="12.218"/>
</svg>