<?xml version="1.0" encoding="UTF-8"?>
<svg xmlns="http://www.w3.org/2000/svg" width="96" height="96" viewBox="0 0 96 96">
  <title>ScanImport01Icon</title>
  <path d="m 34.849 16.221 c 3.322 0 6.3 1.282 8.385 3.61 2.026 2.262 3.132 5.341 3.211 8.924 l 0.005 0.416 v 0.783 H 28.968 a 6.18 6.18 0 0 0 1.942 2.992 c 1.194 1.01 2.747 1.544 4.492 1.544 2.124 0 4.11 -0.951 5.76 -2.758 l 0.224 -0.251 3.572 3.578 c -2.795 2.948 -5.833 4.327 -9.516 4.327 -3.644 0 -6.737 -1.242 -8.947 -3.59 -1.992 -2.119 -3.09 -4.964 -3.09 -8.012 0 -3.116 1.109 -6.001 3.122 -8.128 2.096 -2.215 5.053 -3.435 8.322 -3.435 z m 42.146 0 c 3.3 0 6.346 1.227 8.58 3.454 a 11.437 11.437 0 0 1 3.38 8.147 c 0 3.135 -1.17 6.031 -3.29 8.159 -2.191 2.195 -5.271 3.405 -8.67 3.405 -3.399 0 -6.478 -1.21 -8.667 -3.405 -2.123 -2.128 -3.263 -5.024 -3.263 -8.159 0 -3.08 1.172 -5.973 3.353 -8.147 2.231 -2.227 5.28 -3.454 8.577 -3.454 z M 26.54 5.566 v 5.566 H 18.838 V 39 H 13.27 V 11.132 H 5.57 V 5.566 Z M 63 16.699 v 5.567 H 56.442 V 39 H 50.876 V 16.7 h 12.123 z m -57.434 0 v 22.3 H 0 V 16.7 h 5.566 z m 71.43 4.417 c -1.738 0 -3.378 0.68 -4.62 1.913 -1.27 1.26 -1.969 2.962 -1.969 4.793 0 3.552 3.08 6.668 6.588 6.668 3.51 0 6.588 -3.116 6.588 -6.668 0 -1.83 -0.697 -3.533 -1.968 -4.793 a 6.524 6.524 0 0 0 -4.62 -1.913 z m -42.187 0 c -3.392 0 -5.173 2.053 -5.811 4.153 l -0.053 0.185 h 11.747 c -0.657 -2.593 -2.963 -4.338 -5.883 -4.338 z m 58.04 -4.946 c 0.331 0 0.643 0.064 0.933 0.19 a 2.465 2.465 0 0 1 1.28 1.279 c 0.126 0.292 0.19 0.603 0.19 0.934 0 0.332 -0.064 0.643 -0.19 0.934 a 2.458 2.458 0 0 1 -1.28 1.279 2.31 2.31 0 0 1 -0.933 0.19 c -0.332 0 -0.643 -0.063 -0.933 -0.19 a 2.454 2.454 0 0 1 -1.28 -1.28 2.302 2.302 0 0 1 -0.19 -0.933 c 0 -0.331 0.063 -0.642 0.19 -0.933 a 2.45 2.45 0 0 1 1.28 -1.28 c 0.29 -0.126 0.601 -0.19 0.933 -0.19 z m 0 0.427 a 1.993 1.993 0 0 0 -1.398 0.578 1.988 1.988 0 0 0 -0.579 1.398 1.991 1.991 0 0 0 0.578 1.399 1.99 1.99 0 0 0 1.399 0.578 1.995 1.995 0 0 0 1.399 -0.578 1.993 1.993 0 0 0 0.577 -1.399 1.99 1.99 0 0 0 -0.578 -1.399 1.997 1.997 0 0 0 -1.398 -0.577 z m -0.823 0.72 h 0.957 c 0.3 0 0.52 0.065 0.662 0.193 0.142 0.128 0.213 0.313 0.213 0.554 0 0.218 -0.056 0.381 -0.167 0.49 a 0.675 0.675 0 0 1 -0.3 0.17 l -0.122 0.023 0.641 1.05 h -0.478 l -0.618 -1.015 h -0.333 v 1.015 h -0.455 v -2.48 h 0.957 z m 0.788 0.385 h -0.333 v 0.695 h 0.333 c 0.07 0 0.14 -0.003 0.21 -0.009 a 0.64 0.64 0 0 0 0.19 -0.044 0.324 0.324 0 0 0 0.136 -0.105 0.314 0.314 0 0 0 0.053 -0.192 0.314 0.314 0 0 0 -0.053 -0.193 0.323 0.323 0 0 0 -0.137 -0.105 0.578 0.578 0 0 0 -0.19 -0.04 3.88 3.88 0 0 0 -0.21 -0.007 z" fill="#3D3935"/>
  <path d="M 0 5.566 H 5.566 V 0 H 0 Z" fill="#2AD2C9"/>
  <path d="M 56.443 22.267 H 63 V 16.699 H 50.876 v 22.3 h 5.567 z" fill="#3D3935"/>
</svg>