<?xml version="1.0" encoding="UTF-8"?>
<svg xmlns="http://www.w3.org/2000/svg" width="32" height="32" viewBox="0 0 32 32">
  <title>ScanIconGC</title>
  <path d="M9.33946 26.6014c0.349587 0.0321872 0.709463 0.0301596 1.05132 -0.00184306c2.00672 -0.18786 10.0321 -1.00353 10.0321 -1.00353l-0.0856747 3.31119c0 0 -7.91606 0.832964 -9.913 0.996334c-0.383562 0.0313792 -0.729027 0.0653725 -1.07878 0.0461526l-0.00595498 -3.34831ZM9.15892 26.5816l0.00596379 3.35326c-0.226565 -0.0251403 -0.457908 -0.0762238 -0.705283 -0.168077c-1.29763 -0.481825 -6.07199 -2.68395 -6.07199 -2.68395l-0.159947 -25.1288c0 0 4.62706 -0.593657 6.00081 -0.78908c0.294301 -0.0418659 0.589459 -0.0729633 0.885074 -0.0946239l0.0213343 11.9956c-0.992121 -0.0294553 -2.82646 -0.262327 -3.92888 -0.397377c-1.20713 -0.147877 -1.1432 0.764361 -1.14383 1.5735c-0.00120684 1.54324 0.0325582 6.8138 0.04925 9.31445c0.00544862 0.816272 0.246587 1.41773 0.816416 1.62091c0.673826 0.240259 2.35553 0.86192 3.45469 1.23173c0.239959 0.0807332 0.503426 0.137514 0.7764 0.172439ZM9.29403 1.05828c0.402302 -0.0243146 0.805303 -0.0316741 1.208 -0.0254305c2.06389 0.0319989 10.1098 0.323146 10.1098 0.323146l-0.133805 11.4164c0 0 -8.24483 0.244686 -11.0703 0.295936c-0.0294516 0.000534206 -0.0602387 0.000756483 -0.0922885 0.000681472l-0.0213612 -12.0108Z" fill="#000000"/>
  <path d="M20.4154 25.5968c-0.271434 0.027584 -8.05304 0.818199 -10.0247 1.00277c-0.6714 0.0628533 -1.41232 0.0100837 -2.00825 -0.190415c-1.09916 -0.369809 -2.78086 -0.99147 -3.45469 -1.23173c-0.569829 -0.203177 -0.810967 -0.804634 -0.816416 -1.62091c-0.0166918 -2.50064 -0.0504568 -7.77121 -0.04925 -9.31445c0.000632766 -0.809143 -0.0632967 -1.72138 1.14383 -1.5735c1.21357 0.148666 3.31409 0.415874 4.20168 0.399774c2.82548 -0.0512498 11.0703 -0.295936 11.0703 -0.295936l0.000131686 -0.0112356l0.0125193 0.0227637l-0.0285066 1.36801c0 0 -8.0976 0.328094 -10.1245 0.380941c-0.674975 0.0175985 -1.35173 -0.0202805 -2.02383 -0.0849449c-0.935614 -0.0900176 -3.58985 -0.45516 -3.58985 -0.45516l0.0954437 9.6045c0 0 2.34839 0.899987 3.77151 1.41045c0.522279 0.187337 1.2986 0.264954 1.85115 0.214322c1.96992 -0.180514 10.0144 -1.03758 10.0144 -1.03758l-0.023626 1.3831l-0.0173783 0.0292187Z" fill="#000000"/>
  <path d="M10.6067 16.1289c2.57849 0 4.56163 1.79755 4.53388 4.37589c-0.0150079 1.39421 -0.597884 2.09888 -0.597884 2.09888l3.25279 1.20317l-8.0162 0.738099l-3.44479 -1.29476c0 0 -0.490575 -0.504242 -0.481588 -2.4295c0.0120358 -2.57846 2.17529 -4.69178 4.75379 -4.69178ZM15.8893 14.6358l-0.170658 7.79721l4.41483 1.53417c0 0 -7.73537 0.837763 -9.68688 0.968726c-0.617387 0.041432 -1.25524 -0.09105 -1.85026 -0.260863c-0.892983 -0.254849 -3.50764 -1.30022 -3.50764 -1.30022l-0.0914401 -9.02543c0 0 2.59621 0.332483 3.469 0.42368c0.586111 0.0612426 1.2015 0.0684336 1.7907 0.0575376c1.23718 -0.0228788 5.63235 -0.19481 5.63235 -0.19481Z" fill="#000000"/>
  <path d="M13.3493 22.7545l0.920828 -0.0691408l2.54673 0.991442l-6.9939 0.646274l-2.89125 -1.08671l2.38354 -0.178969l-0.00362019 0.10597l1.45756 0.62715l2.55857 -0.285488l0.0215406 -0.750531ZM9.32054 22.9025l-2.72975 0.204965c-0.0257251 -0.0279929 -0.458685 -0.525297 -0.450507 -2.27743c0.0112887 -2.41842 2.04028 -4.40056 4.45872 -4.40056c2.41845 0 4.2785 1.68598 4.25247 4.10429c-0.0109351 1.01585 -0.412477 1.72978 -0.591158 1.99784l-0.906573 0.0680704l0.00818513 -0.285192l-2.57185 0.294155l-1.43686 -0.662682l-0.0326781 0.956553ZM12.7798 22.1488l-1.93823 0.242586l-1.02267 -0.464589c0 0 0.0500685 -0.610644 0.233574 -0.777933c0.100036 -0.0911957 0.520132 0.418295 1.06677 0.428038c0.546639 0.00974293 1.21982 -0.127187 1.21982 -0.127187l0.455578 -0.0239616l-0.014848 0.723046ZM12.4461 21.2231l0.106294 0.125901l-0.912848 0.113875c0 0 -0.456642 0.0706941 -0.662406 0.0172805c-0.156576 -0.040645 -0.436897 -0.196911 -0.607473 -0.297259c-0.11207 -0.00413388 -0.201855 -0.113672 -0.201855 -0.248194c0 -0.102833 0.0524672 -0.191067 0.127251 -0.228779c2.70646e-05 -0.106745 0.0643331 -0.193268 0.143655 -0.193268c0.0401532 0 0.0764588 0.0221712 0.102526 0.0579136c0.0267211 -0.070233 0.0782865 -0.117808 0.137514 -0.117808c0.0452596 0 0.0860448 0.0277811 0.114686 0.0722217c0.0297397 -0.0736298 0.0847475 -0.123057 0.147689 -0.123057c0.0494896 0 0.0940744 0.0305575 0.12533 0.0794141c0.029615 -0.0456542 0.0724346 -0.074339 0.120058 -0.074339c0.0638965 0 0.119145 0.0516374 0.145461 0.126619c0.0289507 -0.0277208 0.0644105 -0.0440334 0.102716 -0.0440334c0.0721349 0 0.134179 0.0578494 0.161671 0.140795c0.0303669 -0.02246 0.066221 -0.035434 0.104625 -0.035434c0.084686 0 0.156971 0.0630861 0.185382 0.151863c0.0291186 -0.0148084 0.061465 -0.0230557 0.0955314 -0.0230557c0.0778146 0 0.146656 0.043031 0.188588 0.109005c0.0268881 -0.0122487 0.0562923 -0.0189951 0.0871034 -0.0189951c0.127764 0 0.231337 0.116004 0.231337 0.259103c0 0.0560091 -0.0158669 0.107868 -0.0428345 0.150231Z" fill="#000000"/>
</svg>