<?xml version="1.0" encoding="UTF-8"?>
<svg xmlns="http://www.w3.org/2000/svg" width="32" height="32" viewBox="0 0 32 32">
  <title>ScanFinalize</title>
  <path d="F1 M15.43755,0.0042475232 C15.09921,0.25140554 14.66091,0.58665254 13.81245,1.2229975 12.69243,2.0630145 11.43871,3.0654915 11.18745,3.3167475 11.15795,3.3946575 11.13395,3.5242905 11.09375,3.6917475 11.01335,4.0266605 10.92502,4.5083875 10.84375,5.0667475 10.68121,6.1834685 10.53849,7.6355992 10.40625,9.0979967 10.27401,10.560395 10.15031,12.020875 10.0625,13.191747 9.9746995,14.362619 9.9167095,15.201789 9.8749995,15.535497 9.8290995,15.902715 9.7008295,16.102465&#xD;&#xA;9.5312495,16.347997 9.3616699,16.593529 9.1215999,16.851951 8.8749999,17.129247 8.6197499,17.416269 8.2766599,17.749272 7.9687499,18.066747 8.2317199,18.314558 8.4913299,18.565634 8.7812499,18.785497 9.4099099,18.172356 10.02054,17.570749 10.46875,17.066747 10.69285,16.814746 10.88394,16.578539 11,16.410497 11.0871,16.284467 11.11911,16.188613 11.125,16.191747 11.1462,16.007547 11.1945,15.129663 11.28125,13.972997 11.36925,12.800119&#xD;&#xA;11.49161,11.323099 11.625,9.8479966 11.75839,8.3728957 11.92426,6.8875265 12.09375,5.7229975 12.17845,5.1407325 12.24595,4.6615215 12.34375,4.2542475 12.39265,4.0506105 12.46911,3.8560215 12.53125,3.6917475 12.59335,3.5274735 12.62475,3.3795525 12.8125,3.1917475 13.31124,2.6930035 14.49502,1.8204805 15.625,0.97299754 16.26505,0.49296454 16.43791,0.36460954 16.84375,0.066747523 16.536,0.034487523 16.21282,0.0049375232 15.9375,0.0042475232&#xD;&#xA;15.79064,0.0039375232 15.66563,-0.0051524768 15.53125,0.0042475232 15.50375,0.0061475232 15.46545,0.0022475232 15.43755,0.0042475232 z M18.46875,0.34799754 L18.5937,0.50424754 C18.5937,0.50424754 17.55747,1.2579805 16.43745,2.0979975 15.31743,2.9380145 14.06371,3.9404915 13.81245,4.1917475 13.78295,4.2696575 13.75895,4.3992905 13.71875,4.5667475 13.63835,4.9016605 13.55002,5.3833875 13.46875,5.9417475 13.30621,7.0584685 13.16349,8.5105997 13.03125,9.9729966 12.89901,11.435395 12.77531,12.895875 12.6875,14.066747 12.5997,15.237619 12.54171,16.076789 12.5,16.410497 12.4541,16.777715 12.32583,16.977465&#xD;&#xA;12.15625,17.222997 11.98667,17.468529 11.7466,17.726951 11.5,18.004247 11.076,18.481025 10.54161,19.030602 9.9999995,19.566747 10.31208,19.744476 10.6394,19.916004 10.96875,20.066747 11.11882,19.922553 11.25731,19.805764 11.40625,19.660497 12.03491,19.047356 12.64554,18.445749 13.09375,17.941747 13.31785,17.689746 13.50894,17.453539 13.625,17.285497 13.7121,17.159467 13.74411,17.063613 13.75,17.066747 13.7712,16.882547&#xD;&#xA;13.8195,16.004663 13.90625,14.847997 13.99425,13.675119 14.11661,12.198099 14.25,10.722997 14.38339,9.2478946 14.54926,7.7625262 14.71875,6.5979975 14.80345,6.0157325 14.87095,5.5365215 14.96875,5.1292475 15.01765,4.9256105 15.09411,4.7310215 15.15625,4.5667475 15.21835,4.4024735 15.24975,4.2545525 15.4375,4.0667475 15.93624,3.5680035 17.12002,2.6954805 18.25,1.8479975 19.04016,1.2553805 19.37671,0.99607254 19.75,0.72299754&#xD;&#xA;19.33703,0.57828554 18.90157,0.45267654 18.46875,0.34799754 z M12.65625,0.37924754 C11.68598,0.55713054 10.75028,0.78928954 9.9999495,1.1292475 9.3913999,1.5990525 8.8887999,1.9753145 8.6874499,2.1604975 8.6341499,2.2569175 8.5817199,2.3739655 8.5311999,2.5042475 8.5185999,2.5594075 8.5164999,2.5915475 8.4999999,2.6604975 8.4195999,2.9954105 8.3312699,3.4771375 8.2499999,4.0354975 8.0874599,5.1522185 7.9447399,6.6043495 7.8124999,8.0667472 7.6802599,9.5291446 7.5565599,10.989625 7.4687499,12.160497 7.3809499,13.331369 7.3229599,14.139289&#xD;&#xA;7.2812499,14.472997 7.2353499,14.840215 7.0758299,15.039965 6.9062499,15.285497 6.7482499,15.514261 6.5374399,15.748264 6.3124999,16.004247 6.5242699,16.372244 6.7705999,16.705003 7.0312499,17.035497 7.3094199,16.754146 7.6257899,16.436834 7.8437499,16.191747 8.0678499,15.939746 8.2589399,15.703539 8.3749999,15.535497 8.4329999,15.451477 8.4814299,15.388519 8.4999999,15.347997 8.5207999,15.181705 8.5682999,14.270875 8.6562499,13.097997 8.7442499,11.925119&#xD;&#xA;8.8666099,10.448099 8.9999999,8.9729967 9.1333899,7.4978952 9.2992599,6.0125265 9.4687499,4.8479975 9.5534499,4.2657325 9.6209495,3.7865215 9.7187495,3.3792475 9.7676495,3.1756105 9.8441095,2.9810215 9.9062495,2.8167475 9.9683495,2.6524735 9.9997495,2.5045525 10.1875,2.3167475 10.63291,1.8713395 11.64438,1.1368105 12.65625,0.37924754 z M21.21875,1.3792475 C21.2187,1.3792475 20.18247,2.1329805 19.06245,2.9729975 17.94243,3.8130145 16.68871,4.8154915 16.43745,5.0667475 16.40795,5.1446575 16.38395,5.2742905 16.34375,5.4417475 16.26335,5.7766605 16.17502,6.2583875 16.09375,6.8167475 15.93121,7.9334682 15.78849,9.3855986 15.65625,10.847997 15.52401,12.310395 15.40031,13.770875 15.3125,14.941747 15.2247,16.112619 15.16671,16.951789 15.125,17.285497 15.0791,17.652715 14.95083,17.852465&#xD;&#xA;14.78125,18.097997 14.61167,18.343529 14.3716,18.601951 14.125,18.879247 13.6491,19.414385 13.05083,20.028875 12.4375,20.629247 12.92772,20.786414 13.43141,20.901512 13.9375,21.004247 14.0598,20.886515 14.15997,20.778786 14.28125,20.660497 14.90991,20.047356 15.52054,19.445749 15.96875,18.941747 16.19285,18.689746 16.38394,18.453539 16.5,18.285497 16.5871,18.159467 16.61911,18.063613 16.625,18.066747 16.6462,17.882547&#xD;&#xA;16.6945,17.004663 16.78125,15.847997 16.86925,14.675119 16.99161,13.198099 17.125,11.722997 17.25839,10.247895 17.42426,8.7625267 17.59375,7.5979972 17.67845,7.0157325 17.74595,6.5365215 17.84375,6.1292475 17.89265,5.9256105 17.96911,5.7310215 18.03125,5.5667475 18.09335,5.4024735 18.12475,5.2545525 18.3125,5.0667475 18.81124,4.5680035 21.125,2.8479975 21.125,2.8479975 21.125,2.8479975 21.59876,1.5919465 21.21875,1.3792475&#xD;&#xA; z M20.468074,4.825 C19.348054,5.665017 19.56371,5.8154915 19.31245,6.0667475 19.28295,6.1446575 19.25895,6.2742905 19.21875,6.4417475 19.13835,6.7766605 19.05002,7.2583875 18.96875,7.8167472 18.80621,8.9334677 18.66349,10.385599 18.53125,11.847997 18.39901,13.310395 18.27531,14.770875 18.1875,15.941747 18.0997,17.112619 18.04171,17.951789 18,18.285497 17.9541,18.652715 17.82583,18.852465 17.65625,19.097997 17.48667,19.343529 17.2466,19.601951&#xD;&#xA;17,19.879247 16.6279,20.297665 16.15674,20.784265 15.6875,21.254247 15.83239,21.265567 15.98024,21.278597 16.125,21.285497 16.64373,21.310207 17.14945,21.319537 17.65625,21.285497 18.03354,20.910038 18.43501,20.51081 18.71875,20.191747 18.94285,19.939746 19.13394,19.703539 19.25,19.535497 19.3371,19.409467 19.36911,19.313613 19.375,19.316747 19.3962,19.132547 19.4445,18.254663 19.53125,17.097997 19.61925,15.925119&#xD;&#xA;19.74161,14.448099 19.875,12.972997 20.00839,11.497895 20.17426,10.012526 20.34375,8.8479967 20.42845,8.2657322 20.49595,7.7865212 20.59375,7.3792472 20.64265,7.1756105 21.012609,6.6120833 21.074749,6.4478093 21.136849,6.2835353 20.468074,4.825 20.468074,4.825 z M21.810667,8.2277778 C21.810667,8.2277778 21.28125,13.097997 21.28125,13.097997 21.14901,14.560395 21.02531,16.020875 20.9375,17.191747 20.8497,18.362619 20.79171,19.201789 20.75,19.535497 20.7041,19.902715 20.57583,20.102465 20.40625,20.347997 20.28455,20.5242 20.10816,20.718806 19.9375,20.910497 20.71169,20.705253 21.43603,20.4276 22.09375,20.066747 22.11605,19.725993 22.12325,19.662969 22.15625,19.222997 22.24425,18.050119 22.36661,16.573099&#xD;&#xA;22.5,15.097997 22.63339,13.622895 22.72914,12.609899 22.89863,11.44537 22.98333,10.863105 21.810667,8.2277778 21.810667,8.2277778 z M23.986593,13.922222 C23.986593,13.922222 23.9579,14.651263 23.9062,15.222997 23.78507,16.562527 23.67948,17.857784 23.5937,18.972997 24.36341,18.258477 24.631599,17.839213 24.970389,16.769444 24.979389,16.674574 23.986593,13.922222 23.986593,13.922222 z M4.4061999,16.035497 C3.1748999,16.115997 1.38932,16.001647 1.62495,17.660497 1.54075,18.148098 1.43248,18.625571 1.2812,19.097997 1.42749,18.953649 1.5706,18.807241 1.74995,18.629247 2.27603,18.107132 2.9337899,17.492388 3.5624499,16.879247 3.8738699,16.575515 4.1211799,16.323106 4.4061999,16.035497 z M5.2187499,17.160497 C4.9793199,17.404554 4.7826499,17.634003 4.5311999,17.879247 3.8942399,18.500481 3.2590199,19.124018 2.7499499,19.629247 2.24088,20.134476 1.81455,20.625547 1.81245,20.629247 1.63547,20.938959 0.81116004,22.678949 0.0937,24.254247 0.0489,24.352537 0.0441,24.344487 -4.8169635E-46,24.441747 0.20785,24.959384 0.51968004,25.448038 0.90625004,25.910497 1.13141,25.408134 1.15847,25.33565 1.4375,24.722997 2.15754,23.142045 2.8957299,21.538285&#xD;&#xA;3.2187499,20.972997 3.4666399,20.53919 3.8176699,20.182612 4.3437499,19.660497 4.7820999,19.225455 5.3155699,18.700897 5.8437499,18.191747 5.6149699,17.862152 5.4029199,17.516063 5.2187499,17.160497 z M27.3437,17.191747 C27.08721,17.172637 26.83905,17.226147 26.62495,17.347997 26.51102,18.627936 26.38956,19.913626 26.31245,20.941747 26.22465,22.112619 26.16666,22.951789 26.12495,23.285497 26.07905,23.652715 25.95078,23.852465 25.7812,24.097997 25.61162,24.343529 25.37155,24.601951 25.12495,24.879247 24.63175,25.433838 24.01191,26.070513 23.37495,26.691747 22.73799,27.312981 22.10277,27.905268 21.5937,28.410497 21.08463,28.915726 20.6583,29.406797&#xD;&#xA;20.6562,29.410497 20.6017,29.505867 20.2802,30.21133 20.12495,30.535497 20.98345,30.413952 21.8166,30.238785 22.62495,30.035497 22.73737,29.809649 22.89467,29.477542 22.9687,29.347997 23.21659,28.91419 23.56762,28.557612 24.0937,28.035497 24.61978,27.513382 25.27754,26.898638 25.9062,26.285497 26.53486,25.672356 27.14549,25.070749 27.5937,24.566747 27.8178,24.314746 28.00889,24.078539 28.12495,23.910497 28.21205,23.784467&#xD;&#xA;28.24406,23.688613 28.24995,23.691747 28.27115,23.507547 28.31945,22.629663 28.4062,21.472997 28.4741,20.56705 28.55797,19.413316 28.6562,18.285497 28.49672,17.628728 27.92313,17.234926 27.3437,17.191747 z M6.7499499,19.316747 C6.2545099,19.793061 5.7437199,20.263497 5.3436999,20.660497 4.8346299,21.165726 4.4082999,21.656797 4.4061999,21.660497 4.2292199,21.970209 3.4049099,23.741449 2.6874499,25.316747 2.3106,26.144178 2.22588,26.342611 1.9687,26.910497 2.31691,27.197062 2.6805999,27.496469 3.0936999,27.754247 3.3302299,27.222158 3.5554299,26.711239 4.0624499,25.597997 4.7824899,24.017045 5.5206799,22.413285 5.8436999,21.847997 6.0915899,21.41419 6.4426199,21.057612&#xD;&#xA;6.9686999,20.535497 7.1210199,20.384325 7.3294499,20.199913 7.4999499,20.035497 7.2401199,19.803673 6.9853799,19.570203 6.7499499,19.316747 z M24.9687,20.191747 C24.54167,20.655816 24.05132,21.088703 23.56245,21.472997 23.49985,21.516157 23.43838,21.556377 23.37495,21.597997 23.37395,21.607497 23.37595,21.651657 23.37495,21.660497 23.32905,22.027715 23.20078,22.227465 23.0312,22.472997 22.86162,22.718529 22.62155,22.976951 22.37495,23.254247 21.88175,23.808838 21.26191,24.445513 20.62495,25.066747 19.98799,25.687981 19.35277,26.280268 18.8437,26.785497 18.33463,27.290726 17.9083,27.781797&#xD;&#xA;17.9062,27.785497 17.75924,28.042676 17.07655,29.49305 16.4687,30.816747 17.15631,30.806467 17.82204,30.779087 18.49995,30.722997 18.90781,29.845782 19.27158,29.067955 19.4687,28.722997 19.71659,28.28919 20.06762,27.932612 20.5937,27.410497 21.11978,26.888382 21.77754,26.273638 22.4062,25.660497 23.03486,25.047356 23.64549,24.445749 24.0937,23.941747 24.3178,23.689746 24.50889,23.453539 24.62495,23.285497 24.71205,23.159467&#xD;&#xA;24.74406,23.063613 24.74995,23.066747 24.77115,22.882547 24.81945,22.004663 24.9062,20.847997 24.9202,20.661219 24.953,20.392715 24.9687,20.191747 z M29.90625,20.347997 C29.8744,20.740071 29.8386,21.218372 29.8125,21.566747 29.7247,22.737619 29.66671,23.576789 29.625,23.910497 29.5791,24.277715 29.45083,24.477465 29.28125,24.722997 29.11167,24.968529 28.8716,25.226951 28.625,25.504247 28.1318,26.058838 27.51196,26.695513 26.875,27.316747 26.23804,27.937981 25.60282,28.530268 25.09375,29.035497 24.92124,29.206708 24.92147,29.229704 24.78125,29.379247 28.34707,28.027693 30.95303,25.683151&#xD;&#xA;31.375,22.160497 31.03987,21.449986 30.45323,20.910737 29.90625,20.347997 z M8.6249499,20.910497 C8.4108599,21.115955 8.1550799,21.350526 7.9686999,21.535497 7.4596299,22.040726 7.0332999,22.531797 7.0311999,22.535497 6.8542199,22.845209 6.0299099,24.616449 5.3124499,26.191747 4.7878699,27.34354 4.5393699,27.90875 4.3124499,28.410497 4.7122599,28.608001 5.1260699,28.798312 5.5624499,28.972997 5.7423999,28.567251 6.0994399,27.764062 6.6874499,26.472997 7.4074899,24.892045 8.1456799,23.288285 8.4686999,22.722997 8.7050699,22.309356 9.0449399,21.956666&#xD;&#xA;9.5311995,21.472997 9.2214199,21.293874 8.9176399,21.114597 8.6249499,20.910497 z M10.84375,22.160497 C10.7662,22.236027 10.6664,22.338344 10.5937,22.410497 10.08463,22.915726 9.6582995,23.406797 9.6561995,23.410497 9.4792199,23.720209 8.6549099,25.491449 7.9374499,27.066747 7.3738499,28.304213 7.0436499,28.999484 6.8436999,29.441747 7.3726899,29.615252 7.9059399,29.768351 8.4686999,29.910497 8.6619699,29.474906 8.9894099,28.731183 9.5624495,27.472997 10.28249,25.892045 11.02068,24.288285 11.3437,23.722997 11.5455,23.369855 11.84141,23.042245&#xD;&#xA;12.2187,22.660497 11.78395,22.5213 11.35203,22.398211 10.93745,22.222997 10.90325,22.208457 10.87775,22.175327 10.84375,22.160497 z M20.87495,22.785497 C19.80511,23.138522 18.67047,23.35502 17.5312,23.410497 17.07201,23.85098 16.59146,24.290554 16.2187,24.660497 15.70963,25.165726 15.2833,25.656797 15.2812,25.660497 15.10422,25.970209 14.27991,27.741449 13.56245,29.316747 13.24302,30.018098 13.18038,30.124416 12.93745,30.660497 13.60599,30.723927 14.29235,30.763857 14.9687,30.785497 15.679,29.226423 16.40024,27.65531 16.7187,27.097997 16.96659,26.66419 17.31762,26.307612&#xD;&#xA;17.8437,25.785497 18.36978,25.263382 19.02754,24.648638 19.6562,24.035497 20.11185,23.591096 20.49322,23.185008 20.87495,22.785497 z M13.81245,23.097997 C13.70889,23.198522 13.5642,23.315716 13.4687,23.410497 12.95963,23.915726 12.5333,24.406797 12.5312,24.410497 12.35422,24.720209 11.52991,26.491449 10.81245,28.066747 10.30292,29.185493 10.07873,29.703388 9.8436995,30.222997 10.38759,30.331217 10.93847,30.424871 11.49995,30.504247 11.7586,29.924015 11.89253,29.644991 12.31245,28.722997 13.03249,27.142045 13.77068,25.538285 14.0937,24.972997 14.34159,24.53919 14.69262,24.182612&#xD;&#xA;15.2187,23.660497 15.311,23.568927 15.4317,23.444758 15.5312,23.347997 14.94893,23.295567 14.38321,23.216218 13.81245,23.097997 z" fill="#FFFFFF"/>
</svg>