<?xml version="1.0" encoding="UTF-8"?>
<svg xmlns="http://www.w3.org/2000/svg" width="32.000" height="32.000" viewBox="0 0 32.000 32.000">
  <title>Settings.Group.UserInterface</title>
  <path d="F1 M 0.000,0.000 L 32.000,0.000 L 32.000,32.000 L 0.000,32.000 L 0.000,0.000 Z" fill="#000000"/>
  <path d="F1 M 3.500,5.580 L 19.570,5.580 C 20.122,5.580 20.570,6.028 20.570,6.580 L 20.570,18.190 C 20.570,18.742 20.122,19.190 19.570,19.190 L 3.500,19.190 C 2.948,19.190 2.500,18.742 2.500,18.190 L 2.500,6.580 C 2.500,6.028 2.948,5.580 3.500,5.580 Z" fill="#ffffff"/>
  <path d="F1 M 3.500,21.080 L 19.570,21.080 C 20.122,21.080 20.570,21.528 20.570,22.080 L 20.570,25.650 C 20.570,26.202 20.122,26.650 19.570,26.650 L 3.500,26.650 C 2.948,26.650 2.500,26.202 2.500,25.650 L 2.500,22.080 C 2.500,21.528 2.948,21.080 3.500,21.080 Z" fill="#ffffff"/>
  <path d="F1 M 23.810,5.580 L 28.450,5.580 C 29.002,5.580 29.450,6.028 29.450,6.580 L 29.450,14.030 C 29.450,14.582 29.002,15.030 28.450,15.030 L 23.810,15.030 C 23.258,15.030 22.810,14.582 22.810,14.030 L 22.810,6.580 C 22.810,6.028 23.258,5.580 23.810,5.580 Z" fill="#ffffff"/>
  <path d="F1 M 23.810,17.390 L 28.450,17.390 C 29.002,17.390 29.450,17.838 29.450,18.390 L 29.450,25.840 C 29.450,26.392 29.002,26.840 28.450,26.840 L 23.810,26.840 C 23.258,26.840 22.810,26.392 22.810,25.840 L 22.810,18.390 C 22.810,17.838 23.258,17.390 23.810,17.390 Z" fill="#ffffff"/>
</svg>