<?xml version="1.0" encoding="UTF-8"?>
<svg xmlns="http://www.w3.org/2000/svg" width="32.000" height="32.000" viewBox="0 0 32.000 32.000">
  <title>Settings.Group.Cloud</title>
  <path d="F1 M 0.000,0.000 L 32.000,0.000 L 32.000,32.000 L 0.000,32.000 L 0.000,0.000 Z" fill="#ffffff"/>
  <path d="F1 M 31.370,17.680 C 30.632,16.055 29.285,14.784 27.620,14.140 C 26.984,8.693 22.053,4.793 16.605,5.429 C 13.788,5.758 11.246,7.276 9.620,9.600 C 9.415,9.561 9.208,9.538 9.000,9.530 C 6.414,9.530 4.316,11.624 4.310,14.210 C 4.316,14.482 4.343,14.752 4.390,15.020 C 1.223,15.995 -0.554,19.353 0.421,22.520 C 1.037,24.520 2.651,26.055 4.680,26.570 L 28.350,26.570 C 31.546,24.879 32.864,20.984 31.350,17.700 L 31.350,17.700 L 31.370,17.680 Z" fill="#000000"/>
</svg>