<?xml version="1.0" encoding="UTF-8"?>
<svg xmlns="http://www.w3.org/2000/svg" width="32" height="32" viewBox="0 0 32 32">
  <title>SurgicalGuide</title>
  <path d="m 19.089891 316.6468 c -0.0449 0.003 -0.09564 0.0139 -0.154297 0.0391 -0.4691 0.201 -0.875 1.34375 -0.875 1.34375 0 0 -1.243847 1.43336 -2.136719 3.33789 0.18009 0.16722 0.338651 0.34825 0.46875 0.53125 0.1023 0.14404 0.1145 0.15977 0.1875 0.28125 0.1477 -0.0844 0.1893 -0.0953 0.4375 -0.3125 0.451 -0.3942 1.0221 -0.3577 1.4375 -0.3125 0.2958 0.0322 0.40815 0.0908 0.53125 0.125 0.106 -0.0812 0.08245 -0.13145 0.28125 -0.21875 0.3889 -0.1707 1.00245 -0.34375 1.84375 -0.34375 0.4372 0 0.75835 0.0623 1.03125 0.1875 0.101404 0.0465 0.170431 0.1191 0.230469 0.19922 0.182807 0.007 1.753983 -0.41224 3.335937 -0.0508 0.05837 0.0133 0.08958 0.0693 0.134766 0.10351 0.636318 0.21255 1.080341 0.21671 1.298828 0.12305 0.0998 -0.0428 0.0959 -0.0854 0.25 -0.25 0.1542 -0.16456 0.4622 -0.36525 0.875 -0.40625 0.5012 -0.0501 0.765375 0.38004 0.984375 0.5625 0.1096 0.0912 0.357625 -0.0242 0.390625 0 0.03788 0.37119 0.109357 0.6689 0.203125 0.91211 0.597198 -0.14779 1.606521 -0.31641 1.849609 -0.31641 0.293 0 1.107966 -0.15625 1.384766 0.14063 0.2768 0.29687 0.277344 0.26562 0.277344 0.26562 0 0 -5.66e-4 -0.15625 0.927734 -0.23437 0.9282 -0.0781 1.221263 0.045 1.351563 0.0918 0.1303 0.0469 0.390306 -0.21875 0.878906 -0.21875 0.4885 0 0.732981 -0.0625 0.863281 0.0312 0.1302 0.0937 0.326172 0.98437 0.326172 1.25 0 0.26562 -0.228784 0.71875 -0.896484 0.78125 -0.6677 0.0625 -0.78096 -0.42188 -1.31836 -0.29688 -0.5373 0.125 -0.130393 0.3125 -1.058593 0.4375 -0.928201 0.125 -0.601947 -0.26562 -1.123047 -0.15625 -0.5211 0.10938 -0.830979 0.78125 -1.580079 0.89063 -0.708632 0.10346 -1.729239 0.1315 -2.017578 -0.32813 -0.364628 0.25289 -0.817326 0.30387 -1.255859 0.25 -0.5391 -0.0662 -1.1074 -0.28375 -1.5625 -0.625 -0.3323 -0.24925 -0.4275 -0.22075 -0.4375 -0.21875 -0.0064 10e-4 -0.0936 0.0676 -0.21875 0.1875 -0.237503 0.7365 -0.572391 1.48875 -0.792969 2.15039 -0.54325 0.0986 -2.295065 0.43716 -2.916015 -0.13867 -0.639877 -0.59338 -0.621478 -1.17107 -0.654297 -2.09765 -0.214636 0.0958 -0.547401 0.24396 -1.167969 0.49218 -0.3246 0.1298 -0.56215 0.2083 -0.78125 0.25 -0.2191 0.0417 -0.4493 0.0274 -0.625 -0.0312 -0.3515 -0.11716 -0.43515 -0.23457 -0.96875 -0.375 -1.1364 -0.2995 -2.09375 -0.375 -2.09375 -0.375 -0.1534 0.0523 -0.67925 0.24714 -1.65625 0.125 -0.06712 -0.008 -0.06538 -0.023 -0.125 -0.0312 -1.007661 -0.0687 -4.094068 -0.0194 -4.410156 0.0859 -0.6033002 0.2011 0.02696 2.28367 -0.777344 3.28907 -0.8043 1.0054 -2.35625 5.54755 1.53125 7.15625 3.8875 1.6086 5.14365 0.12455 9.03125 0.59375 3.8875 0.4692 11.3489 -0.13195 15.4375 -2.34375 4.0885 -2.2119 4.817 -3.25775 4.75 -4.53125 -0.067 -1.2735 -0.4774 -3.7627 -0.8125 -4.5 L 39.002 323.66047 c 0.258106 -0.16829 0.40625 -0.45992 0.40625 -0.71289 0 -0.53697 0.4419 -2.11551 0 -2.27344 -0.0075 -0.003 -0.02689 -0.001 -0.03516 -0.004 -0.04411 -0.18268 -0.63037 0.34893 -0.248047 -0.63672 0.213745 -0.59002 0.428999 -1.22806 0.166015 -1.38672 -0.322015 -0.19423 -1.376767 -0.34423 -2.017578 -0.3457 -0.119584 -0.0593 -0.236001 -0.12072 -0.36914 -0.17578 l -0.002 0 c -0.01319 -0.0182 -0.02168 -0.0411 -0.04102 -0.0527 -0.153985 -0.093 -0.488742 -0.17832 -0.867132 -0.24414 -0.415004 -0.11259 -0.867681 -0.21078 -1.388672 -0.27735 -0.60271 0.0267 -1.378907 -0.30859 -1.378907 -0.30859 -1.269039 0.1606 -1.704652 -0.0366 -2.228515 -0.19531 0 0 -0.367503 -0.0709 -0.970703 -0.004 -0.6033 0.067 -0.945313 0.49023 -0.945313 0.49023 0 0 -0.632884 -0.31567 -0.833984 0.0195 l -0.15625 0.50781 c 0.06913 -0.17593 0.11005 -0.52442 -0.59375 -0.625 -0.9384 -0.134 -1.490235 -0.4121 -1.490235 -0.4121 0 0 -0.168658 0.0442 -0.523437 0.31835 -0.6033 0.067 -1.351563 0.30079 -1.351563 0.30079 0 0 -0.366665 -0.3306 -0.634765 -0.0625 -0.22799 0.4377 0.0073 -0.44555 -0.294922 -0.0762 0 0 -0.127863 -0.40886 -0.664063 -0.54296 -0.5362 -0.134 -1.447265 0.26953 -1.447265 0.26953 0 0 -0.293285 -0.1504 -0.896485 -0.15039 -0.6032 0 -0.791015 0.0117 -0.791015 0.0117 0 0 -1.64e-4 -0.46378 -0.314453 -0.4453 z m 9.333984 5.3457 c -0.2122 0.0211 -0.20125 0.0394 -0.28125 0.125 -0.0802 0.0856 -0.25595 0.324 -0.59375 0.46875 -0.325423 0.13947 -0.6816 0.17133 -1.068359 0.12695 0.01968 0.16835 0.12272 0.84049 0.10742 1.02149 0.357238 -0.002 0.607378 -0.3199 0.960937 -0.0547 0.295 0.22125 0.7108 0.36305 1.0625 0.40625 0.3516 0.0432 0.574 -0.0358 0.625 -0.0937 0.04597 -0.0373 0.07445 -0.0757 0.113281 -0.11328 -0.16214 -0.46499 -0.372585 -1.05529 -0.373047 -1.05664 0 0 0.08146 -0.0781 0.472657 -0.23438 0.01682 -0.007 0.07865 -0.0164 0.09961 -0.0234 -0.229693 0.0118 -0.401839 -0.0937 -0.5 -0.16602 -0.1155 -0.0852 -0.20325 -0.15375 -0.28125 -0.21875 -0.156 -0.1299 -0.219852 -0.1999 -0.343749 -0.18749 z m -7.3125 0.125 c -0.7213 0 -1.15445 0.13945 -1.40625 0.25 -0.2523 0.11055 -0.3125 0.15625 -0.3125 0.15625 l -0.1875 0.25 -0.3125 -0.0937 c 0 0 -0.2591 -0.092 -0.5625 -0.125 -0.3034 -0.0331 -0.576 0.051 -0.625 0.0937 -0.5555 0.48606 -1.09375 0.6875 -1.09375 0.6875 0.213423 0.0168 0.921565 0.0908 2 0.375 0.6538 0.17207 0.96125 0.38275 1.03125 0.40625 0.035 0.0117 0.026 0.0189 0.125 0 0.0992 -0.0189 0.29325 -0.0673 0.59375 -0.1875 0.5219 -0.20878 0.5185 -0.20838 0.75 -0.3125 l 0.6875 -1.34375 c 0 0 -0.01 -0.0525 0 -0.0312 0.005 0.0107 0.0215 0.008 -0.0625 -0.0312 -0.0846 -0.0388 -0.2811 -0.0937 -0.625 -0.0937 z m -5.625 0.21875 c -0.171023 0.39912 -0.355405 0.77163 -0.53125 1.125 0.733954 0.0498 1.15625 -0.0937 1.15625 -0.0937 l -0.125 -0.25 c 0 0 -0.18275 -0.34193 -0.40625 -0.65625 -0.03277 -0.0461 -0.05982 -0.0813 -0.09375 -0.125 z" fill="#000000" stroke-width="0.24234763"/>
  <path d="m 18.982469 316.69953 -0.160157 0.0918 c 0.08637 -0.0307 0.216979 -0.0679 0.160157 -0.0918 z m -0.212891 0.12305 -0.07617 0.043 c -0.2647 0.52405 -0.719731 1.02705 -0.769531 1.37695 -0.091 0.6396 1.1032 1.60325 2.0625 1.96875 0.9594 0.3654 1.84375 -0.5625 1.84375 -0.5625 0 0 0.3003 0.659 1.625 0.75 0.8484 0.0585 1.2469 -0.26503 1.4375 -0.5 0.1577 0.13783 0.32815 0.27948 0.84375 0.375 0.7582 0.1404 0.9375 -0.21875 0.9375 -0.21875 0 0 0.17395 0.3035 0.46875 0.5 0.2948 0.1966 0.45795 0.31675 1.46875 0.21875 0.9513 -0.0925 1.41425 -0.84793 1.46875 -0.9375 0.02 0.0232 0.0395 0.0417 0.0625 0.0625 0.6608 0.5948 2.25 0.34375 2.25 0.34375 0 0 0.076 0.0152 0.125 0.0312 0.1035 -0.007 0.18595 -0.0125 0.28125 0 0.056 -0.0272 0.092 -0.0736 0.125 -0.15625 0.045 -0.11242 0.1172 -0.21767 0.1875 -0.3125 0.01 0.0236 0.02225 0.0375 0.03125 0.0625 0.1238 0.33008 0.1277 0.47167 0.125 0.53125 0.1142 0.055 0.2215 0.14637 0.3125 0.21875 0.01 0.005 0.02525 -0.005 0.03125 0 0.1324 0.0507 0.28625 0.092 0.46875 0.0937 0.126087 -0.12809 0.264083 -0.25696 0.431641 -0.38477 0.05247 0.0819 0.103128 0.16569 0.175781 0.24024 0.8215 0.84291 1.616156 0.26066 1.722656 -0.26563 0.04455 -0.22037 0.198287 -0.60813 0.335938 -0.99804 -0.08858 0.40083 -0.150239 1.01591 0.162109 1.54882 -0.02082 0.0122 -0.0381 0.0238 -0.05273 0.0371 -0.441437 0.0279 -0.857783 0.10308 -1.15625 0.20508 -0.357839 -0.18953 -1.329741 -0.0756 -1.859375 0.006 -0.128649 0.0198 -0.230091 0.10847 -0.314453 0.22656 -0.08213 -0.24812 -0.245568 -0.43027 -0.56836 -0.44726 -0.8396 -0.0442 -2.122341 0.13354 -2.43164 0.17773 -0.309402 0.0442 -0.529297 0.44141 -0.529297 0.44141 0 0 0.105475 0.43208 0.179687 0.92578 0.608314 -0.1245 1.318146 -0.24219 1.519531 -0.24219 0.293 0 1.107966 -0.15625 1.384766 0.14063 0.2768 0.29687 0.277344 0.26562 0.277344 0.26562 0 0 -5.66e-4 -0.15625 0.927734 -0.23437 0.9282 -0.0781 1.221263 0.045 1.351563 0.0918 0.1303 0.0469 0.390306 -0.21875 0.878906 -0.21875 0.4885 0 0.732981 -0.0625 0.863281 0.0312 0.1302 0.0937 0.326172 0.98437 0.326172 1.25 0 0.26562 -0.228784 0.71875 -0.896484 0.78125 -0.6677 0.0625 -0.78096 -0.42188 -1.31836 -0.29688 -0.5373 0.125 -0.130393 0.3125 -1.058593 0.4375 -0.928201 0.125 -0.601947 -0.26562 -1.123047 -0.15625 -0.5211 0.10938 -0.830979 0.78125 -1.580079 0.89063 -0.734983 0.10731 -1.810388 0.13645 -2.050781 -0.37891 0.0089 0.0875 0.01872 0.18107 0.02734 0.26953 -0.011 -0.0639 -0.0315 -0.13109 -0.0625 -0.1875 -0.016 -0.0288 -0.01725 -0.0356 -0.03125 -0.0625 -0.3569 0.22184 -0.79975 0.27022 -1.21875 0.21875 -0.5391 -0.0662 -1.1074 -0.28375 -1.5625 -0.625 -0.3323 -0.24925 -0.4275 -0.22075 -0.4375 -0.21875 0.251449 1.37907 0.538936 2.75524 1.71875 3 0.7333 -0.14102 1.13415 -0.4428 1.21875 -0.78125 0.0584 -0.23165 0.313112 -0.65833 0.382813 -1.04492 0.01475 0.19427 0.07944 0.4011 0.18164 0.61719 0.155284 0.52324 0.413685 0.97309 0.873047 1.08398 0.232118 0.056 0.474756 0.0689 0.712891 0.0605 0.405559 0.0438 0.778084 -0.0479 1.001953 -0.25976 0.145139 -0.0909 0.25777 -0.20015 0.316406 -0.33203 0.1693 -0.38076 0.43835 -0.99184 0.46875 -1.53125 0.1587 0.56767 0.3525 1.18346 0.5 1.3125 0.2257 0.19743 0.7927 0.37586 1.1875 0.0937 0.3949 -0.28205 0.6654 -0.80786 0.75 -1.34375 0.024 -0.1519 0.083 -0.3488 0.125 -0.53125 l 0 0.21875 c 0 0 0.3026 0.45577 0.5 0.625 0.118366 0.10142 0.403871 0.0566 0.699219 -0.0195 0.127753 -0.003 0.242799 -0.0398 0.345703 -0.10547 0.06622 -0.0228 0.150389 -0.0415 0.205078 -0.0625 0.09964 -0.0383 0.165328 -0.22276 0.210937 -0.4668 0.07342 -0.18239 0.115235 -0.37968 0.115235 -0.5625 0 -0.0421 0.01112 -0.12506 0.01367 -0.17578 0.17406 -0.0614 0.397191 -0.13498 0.816406 -0.16992 0.610238 -0.0508 0.457357 -0.0383 0.263672 -0.14063 0.257071 -0.172 0.408203 -0.46395 0.408203 -0.71679 0 -0.53697 0.4419 -2.11551 0 -2.27344 -0.103398 -0.0369 -0.279553 -0.0558 -0.482422 -0.0645 0.208207 -0.63506 0.717142 -1.75059 0.365234 -1.96289 -0.375634 -0.22667 -1.787703 -0.40528 -2.324218 -0.34185 -0.01022 -0.10307 -0.03624 -0.19066 -0.105469 -0.23242 -0.236687 -0.14277 -0.88902 -0.26285 -1.480469 -0.32227 -0.173225 -0.11004 -0.378807 -0.2166 -0.644531 -0.32031 -0.1044 0.0196 -0.19095 0.0421 -0.28125 0.0937 -0.13 0.0743 -0.20225 0.12284 -0.28125 0.1875 -0.2399 -0.4799 -0.95125 -0.50028 -1.09375 -0.5 -0.044 0.006 -0.078 0.0281 -0.125 0.0312 -0.4489 0.0299 -0.73465 0.0933 -1.09375 0.0625 -0.2943 -0.0252 -0.61445 -0.13079 -0.96875 -0.3125 -1.528217 -0.17887 -1.701058 0.83333 -2.5 0.53125 -0.4987 0.0192 -1.08485 -0.10973 -1.78125 -0.375 -0.286 -0.10895 -0.453 -0.12535 -0.5625 -0.15625 -0.122 0.0665 -0.2235 0.0625 -0.3125 0.0625 -0.021 0.0103 -0.0487 0.0412 -0.0957 0.0625 -0.094 0.0425 -0.2277 0.1139 -0.375 0.1875 -0.2945 0.14725 -0.64585 0.3125 -1.09375 0.3125 -0.5035 0 -0.8686 -0.24622 -1.1875 -0.4375 -0.3188 -0.19128 -0.6295 -0.3125 -0.5625 -0.3125 0 0 -0.30515 0.13312 -0.71875 0.25 -0.4136 0.11688 -0.97025 0.18053 -1.65625 0 -0.5712 -0.15032 -0.95775 -0.20035 -1.28125 -0.28125 -0.01187 -0.003 0.0022 -0.009 0.0039 -0.0137 z m 9.060547 6.79492 c -0.092 -0.005 -0.18765 0.007 -0.28125 0.0312 0.2903 0.19865 0.6697 0.33443 1 0.375 -0.1663 -0.20806 -0.29275 -0.38383 -0.71875 -0.40625 z m -8.3125 0.15625 c -0.098 0.0111 -0.2109 0.0345 -0.3125 0.0937 0.1972 0.0876 0.3368 0.17468 0.375 0.1875 0.035 0.0117 0.026 0.0189 0.125 0 0.099 -0.0189 0.29325 -0.0673 0.59375 -0.1875 0.09 -0.0358 0.063 -0.0374 0.125 -0.0625 -0.1926 0.0174 -0.375 0.0625 -0.375 0.0625 0 0 -0.23675 -0.12714 -0.53125 -0.0937 z m -6.257812 0.43359 c -0.09499 0.0122 -0.213888 0.0409 -0.398438 0.0977 -2.58058 0.0138 -2.774532 -0.0579 -2.9375 1.125 -0.1017 1.0163 0.10365 1.82795 0.78125 2.03125 0.6776 0.2033 1.6875 -0.21875 1.6875 -0.21875 0 0 0.26035 0.2553 0.53125 0.1875 0.271 -0.068 0.34375 -0.0937 0.34375 -0.0937 0 0 0.14815 0.25 0.65625 0.25 0.5082 0 1.43505 -1.23685 1.46875 -1.40625 0.034 -0.1694 0.51265 0.97635 1.15625 1.28125 0.6437 0.3049 1.75 -0.28125 1.75 -0.28125 0 0 0.51 0.4323 1.1875 0.5 0.6776 0.068 1.7396 -0.90865 1.875 -1.28125 0.233423 -0.72222 0.311212 -1.25341 0.375 -1.90625 -0.218 0.0968 -0.54165 0.0604 -1.09375 0.28125 -0.3246 0.1298 -0.56205 0.2083 -0.78125 0.25 -0.2191 0.0417 -0.4493 0.0274 -0.625 -0.0312 -0.3514 -0.11716 -0.43515 -0.23457 -0.96875 -0.375 -0.4637 -0.1222 -0.86755 -0.19229 -1.21875 -0.25 0 0.006 -0.03125 0.0312 -0.03125 0.0312 0 0 -0.69775 -0.0238 -0.96875 0.28125 -0.2709 0.3049 -0.375 0.40625 -0.375 0.40625 0 0 0.041 -0.36629 -0.1875 -0.71875 -0.2533 0.0243 -0.57145 0.0497 -0.96875 0 -0.5294 -0.0657 -0.8166 -0.13255 -1 -0.15625 -0.09175 -0.0118 -0.162825 -0.0161 -0.257812 -0.004 z" fill="#000000"/>
  <path d="m 14.982469 320.85187 c -0.625 -0.062 -1.25 1.125 -1.8125 0.75 -0.5625 -0.375 -1.875 0.0625 -1.875 0.0625 0 0 -0.75 -0.125 -0.8125 0.5 -0.062 0.625 -0.0625 0.9375 -0.0625 0.9375 0 0 1.4375 0.4375 2.25 0.1875 0.8125 -0.25 0.875 -0.0615 1.875 0.0625 1 0.125 1.625 -0.125 1.625 -0.125 0 0 1 0.062 2.1875 0.375 1.1875 0.3125 0.8125 0.68749 2.0625 0.1875 0.979498 -0.39179 1.245161 0.40977 1.474609 0.32813 0.01775 -0.20041 0.03608 -1.35815 0.05859 -1.4707 l 0.130859 -0.66211 0.04102 -0.082 -0.01758 0.0117 c 0 0 0.4375 -0.875 -1.125 -0.875 -1.5625 0 -2.0625 0.5625 -2.0625 0.5625 0 0 -1.1875 -0.3745 -1.6875 0.0625 -0.5 0.4375 -0.9375 0.625 -0.9375 0.625 0 0 -0.6875 -1.375 -1.312498 -1.43751 z m 13.25 0.0625 c -0.625 0.062 -0.5625 0.4375 -1 0.625 -0.36492 0.1564 -0.868324 0.12897 -1.494141 -0.0625 0.624922 0.41089 0.806777 1.94463 0.765625 2.61915 0.165665 0.0356 0.355764 -0.80496 0.603516 -0.61915 0.75 0.5625 1.9375 0.74999 2.375 0.25 0.267692 -0.4854 0.482949 -1.23226 -0.0625 -2.25 -0.25 0.062 -0.5625 -0.625 -1.1875 -0.5625 z" fill="#000000"/>
  <path d="m 24.091525 321.23132 a 2.768292 1.0150404 0 0 0 -2.768506 1.01493 2.768292 1.0150404 0 0 0 2.768506 1.01493 2.768292 1.0150404 0 0 0 2.767996 -1.01493 2.768292 1.0150404 0 0 0 -2.767996 -1.01493 z m 0.0418 0.35632 a 1.584166 0.58086088 0 0 1 1.207621 0.20594 l 0 0.75088 a 1.584166 0.58086088 0 0 1 -1.207621 0.20492 1.584166 0.58086088 0 0 1 -1.076103 -0.15547 l 0 -0.85079 a 1.584166 0.58086088 0 0 1 1.076103 -0.15548 z" fill="#000000" stroke-width="1"/>
  <path d="m 21.328116 323.05415 -0.01618 3.04967 c 0.464574 1.35394 5.568685 1.11981 5.513563 -0.1305 l 0.01775 -2.83898 c -0.20102 1.36406 -5.424563 1.30965 -5.515076 -0.0802 z" fill="#000000" stroke-width="1"/>
  <path d="m 29.3301 321.51789 c 0 0 0.078 -0.0781 0.4531 -0.23438 0.375 -0.15625 1.875 -0.40625 2.1563 -0.40625 0.2812 0 1.0625 -0.15625 1.3281 0.14063 0.2656 0.29687 0.2656 0.26562 0.2656 0.26562 0 0 0 -0.15625 0.8907 -0.23437 0.8906 -0.0781 1.1718 0.0469 1.2968 0.0937 0.125 0.0469 0.375 -0.21875 0.8438 -0.21875 0.4687 0 0.7031 -0.0625 0.8281 0.0312 0.125 0.0937 0.3125 0.98437 0.3125 1.25 0 0.26562 -0.2187 0.71875 -0.8594 0.78125 -0.6406 0.0625 -0.75 -0.42188 -1.2656 -0.29688 -0.5156 0.125 -0.125 0.3125 -1.0156 0.4375 -0.8906 0.125 -0.5781 -0.26562 -1.0781 -0.15625 -0.5 0.10938 -0.7969 0.78125 -1.5157 0.89063 -0.7187 0.10937 -1.7812 0.14062 -1.9843 -0.40625 -0.2032 -0.54688 -0.6563 -1.9375 -0.6563 -1.9375 z" fill="#000000" stroke-width="1"/>
</svg>