<?xml version="1.0" encoding="UTF-8"?>
<svg xmlns="http://www.w3.org/2000/svg" width="725.67" height="725.668" viewBox="0 0 725.67 725.668">
  <title>ZfxASCGenModIcon</title>
  <path d="   M138.79 70.529c22.586 126.357 71.776 248.66 90.93 375.557v119.537c0.001 3.449 2.797 6.244 6.246 6.244h76.522V700.51   c0 3.449 2.796 6.244 6.245 6.246h172.932c3.448-0.002 6.244-2.797 6.245-6.246V571.868h82.724c3.449 0 6.246-6.244 6.246-6.244   V446.086L281.31 37.059C246 1.266 152.95 22.536 138.79 70.529z" fill="currentColor" stroke="#000000" stroke-width="40"/>
  <path d="M410.088 1334.168   c-0.484-242.426-0.121-649.432 0.363-891.834" fill="currentColor" stroke="#000000" stroke-width="40"/>
  <path d="M104.335-120.666   c12.543 22.351 25.242 44.756 35.632 68.136c1.155 0.975 2.309 2.922 3.464 3.896c15.008 29.225 31.169 57.474 45.023 86.699   c1.154 0.974 2.309 2.922 3.463 3.896c70.421 133.457 139.688 263.019 211.264 395.501c1.154 1.949 0 2.922 1.154 4.871" fill="currentColor" stroke="#000000" stroke-width="40"/>
</svg>