<?xml version="1.0" encoding="UTF-8"?>
<svg xmlns="http://www.w3.org/2000/svg" width="32" height="32" viewBox="0 0 32 32">
  <title>AestheticPlateScan.Parameter</title>
  <path d="M122.57825,65.029631 L122.5805,65.083464 C122.68201,66.763228 123.03152,68.528998 123.45838,70.557662 L123.3831,70.896384 123.17463,69.905966 C122.85052,68.246382 122.63839,66.62876 122.5795,65.123038 z M122.70515,62.114077 L122.61127,62.957121 C122.5851,63.301207 122.56979,63.654471 122.56471,64.015822 L122.57825,65.029631 122.55439,64.457243 C122.54058,63.834357 122.56464,63.220461 122.63558,62.606223 z M123.52207,58.53372 L123.44665,58.931582 C123.3598,59.3729 123.27432,59.772917 123.19067,60.125323 122.97873,60.75706 122.82566,61.376017 122.72247,61.991522 L122.70515,62.114077 122.72303,61.953497 C122.82014,61.304232 122.9633,60.696055 123.15768,60.137713 L123.1803,60.068606 123.19797,59.999495 C123.2541,59.762999 123.30933,59.521578 123.36364,59.275725 z M125.45683,44.446135 L125.43962,44.629668 C125.04711,48.748854 124.41629,54.204035 123.52385,58.525404 L123.52207,58.53372 123.57787,58.239417 C124.15038,55.112654 124.77019,50.374274 125.30717,45.757384 z M9.788167,39.881659 L9.9269944,40.337241 C10.706539,42.930228 11.286077,45.087714 11.286078,45.087714 8.8811121,51.996069 6.0969725,60.239157 5.9152327,70.880675 7.1207376,75.728919 10.980457,82.956053 16.670109,88.790762 L51.532463,103.45244 C76.559845,118.24221 95.999237,109.54853 104.50108,106.19349 113.00293,102.83831 119.24644,109.94163 124.94568,101.19679 125.85556,98.801123 125.1364,90.528662 126.04628,88.132864 121.63189,83.118933 122.53548,74.836424 123.37729,70.92253 L123.3831,70.896384 123.43805,71.157423 C124.0043,73.67169 124.79924,76.241019 125.68352,78.629332 129.95514,90.081679 131.34277,90.654685 133.77876,103.75582 134.68864,107.26955 134.08224,109.18561 131.95915,109.50503 L78.273178,116.69148 71.904556,116.69148 0.47740218,103.75582 0.022500464,45.775271 C0.022500539,45.775271 -0.4327156,44.814673 2.7519129,42.898089 4.5693212,41.804331 9.0799475,41.197634 9.7851296,39.888964 z M9.4054938,38.643038 L9.585495,38.856204 C9.8541994,39.182353 9.9267073,39.472392 9.8492375,39.734782 L9.788167,39.881659 9.5817623,39.204318 z M126.09506,38.550253 L126.08227,38.675597 C125.92455,40.207728 125.74422,41.895884 125.54867,43.641455 L125.45683,44.446135 125.50642,43.917124 C125.76375,41.126444 125.90302,39.073836 125.93241,38.627985 z M128.32722,14.225978 L132.00956,23.659559 129.56094,37.03541 C126.45268,38.402399 129.70387,36.878439 126.56507,38.325629 L126.09506,38.550253 126.17413,37.775832 C126.41153,35.430586 126.58724,33.53525 126.67094,32.493712 123.50038,34.591635 115.85504,40.227747 111.16653,46.322291 94.154282,44.877051 89.736954,35.917403 56.427406,42.482069 41.021053,41.12995 22.499187,39.596354 6.7349339,31.835822 7.4014011,32.702128 8.3558264,35.346911 9.2186804,38.04819 L9.4054938,38.643038 8.9239731,38.07281 C7.400847,36.311182 6.0744562,35.049876 6.0744553,35.049876 L6.2051473,34.898894 C5.7364211,34.608061 5.2698169,34.341605 4.8002277,34.036005 L0.022500464,28.284226 0.2512877,15.278018 0.0061645036,11.655159 0.31576857,11.613655 0.31655404,11.568655 0.34961766,11.609126 89.401725,1.9668913 104.12597,1.6574545" fill="#FFFCFC" stroke-width="1"/>
  <path d="M2.26167,6.250001E-07 C3.53702,1.5739806 4.70457,3.3297306 4.89844,5.1523406 L4.92574,5.4023406 4.83784,5.6386706 C3.62069,8.9583206 2.17059,12.142331 1.17378,16.001951 6.10089,19.089041 15.43392,21.634371 25.1855,23.269531 36.03167,25.087831 47.35469,26.053561 54.23823,26.828121 60.8424,27.571121 64.35045,27.123311 67.05854,26.492181 69.76668,25.860111 71.97076,24.858841 75.38862,24.718751 78.62322,24.584871 81.09328,25.009501 83.15815,25.250001 85.15714,25.484281 86.75982,25.531991 88.82612,25.015621 90.29659,24.331811 91.39745,23.677391&#xA;92.2519,23.089841 91.96632,20.772831 92.04174,18.540521 92.73237,16.585931 93.85286,12.104011 94.5673,4.6768206 94.8476,1.3652306 92.19331,3.0328206 89.13204,5.7180806 85.20698,10.562501 70.96497,9.4137106 69.10222,2.4889106 41.21675,7.7070306 28.31913,6.6322506 15.45892,6.1686906 2.26167,6.250001E-07 z M0.23824,21.048811 C0.10969,22.192741 0.02313,23.393251 0,24.679681 0.92472,28.210931 3.17073,31.922321 7.20117,36.085931 7.64733,36.481391 8.13243,36.916481 8.61328,37.341791 L36.26562,48.078121 C57.21761,59.834221 69.78685,52.819201 76.9043,50.152341 83.97544,47.502721 88.94061,54.164941 93.68359,47.435541 93.90638,46.850171 94.03273,46.224581 94.11328,45.585931 94.24195,43.787511 93.99649,41.614731 94.50586,40.197261 94.51586,40.155961 94.52226,40.110661 94.53316,40.070311 91.71389,37.022391 91.67646,32.236771 92.13668,28.748041 91.66003,28.998801 91.15481,29.250361 90.60152,29.500001 L90.42379,29.585901 90.23629,29.632801 C87.32466,30.404011 84.85317,30.268811 82.60738,30.005851 80.36159,29.742881 78.30584,29.390541 75.5859,29.501941 73.04922,29.607131 71.29815,30.417971 68.14254,31.154281 64.98688,31.890591 60.71259,32.365061 53.69527,31.576161 46.95737,30.817861 35.50206,29.852991 24.39254,27.990221 15.26099,26.458791 6.43979,24.465281 0.23824,21.048811 z" fill="White" stroke-width="1.07725632"/>
</svg>