<?xml version="1.0" encoding="UTF-8"?>
<svg xmlns="http://www.w3.org/2000/svg" width="32.000" height="32.000" viewBox="0 0 32.000 32.000">
  <title>AvailabilityPartialGingiva.true.ProductionMethodPartialGingiva.3DPrint</title>
  <path d="F1 M 32.000,32.000 L 0.000,32.000 L 0.000,0.000 L 32.000,0.000 L 32.000,32.000 Z" fill="currentColor"/>
  <path d="F1 M 23.150,2.365 L 23.150,3.465 C 23.150,4.235 22.520,4.855 21.740,4.855 L 9.540,4.855 C 8.760,4.855 8.130,4.235 8.130,3.465 L 8.130,2.365 C 8.130,2.105 8.340,1.896 8.620,1.896 L 22.660,1.896 C 22.930,1.896 23.150,2.105 23.150,2.365 Z" fill="currentColor"/>
  <path d="F1 M 23.150,2.365 L 23.150,3.465 C 23.150,4.235 22.520,4.855 21.740,4.855 L 9.540,4.855 C 8.760,4.855 8.130,4.235 8.130,3.465 L 8.130,2.365 C 8.130,2.105 8.340,1.896 8.620,1.896 L 22.660,1.896 C 22.930,1.896 23.150,2.105 23.150,2.365 Z" fill="#fffeff"/>
  <path d="F1 M 20.498,5.835 C 20.770,5.835 20.990,6.055 20.990,6.327 L 20.990,9.516 C 20.990,9.646 20.970,9.766 20.940,9.896 C 20.870,10.235 20.700,10.565 20.430,10.826 L 16.990,14.215 C 16.620,14.576 16.130,14.425 15.640,14.425 C 15.160,14.425 14.660,14.576 14.290,14.215 L 10.850,10.826 C 10.580,10.565 10.400,10.235 10.330,9.896 C 10.300,9.766 10.280,9.646 10.280,9.516 L 10.280,6.327 C 10.280,6.055 10.500,5.835 10.771,5.835 L 20.498,5.835 Z" fill="#fffeff"/>
  <path d="F1 M 15.638,15.821 C 15.638,20.717 15.663,20.808 22.184,20.808 L 29.144,20.808" fill="currentColor" stroke="#fffeff" stroke-width="1.0"/>
  <path d="F1 M 29.082,23.590 L 3.008,23.590 C 2.699,23.590 2.448,23.339 2.448,23.030 L 2.448,23.020 C 2.448,22.711 2.699,22.460 3.008,22.460 L 29.082,22.460 C 29.392,22.460 29.643,22.711 29.643,23.020 L 29.643,23.030 C 29.643,23.339 29.392,23.590 29.082,23.590 Z" fill="#fffeff"/>
  <path d="F1 M 28.947,26.745 L 3.143,26.745 C 2.759,26.745 2.448,26.433 2.448,26.049 L 2.448,25.718 C 2.448,25.334 2.759,25.023 3.143,25.023 L 28.947,25.023 C 29.331,25.023 29.643,25.334 29.643,25.718 L 29.643,26.049 C 29.643,26.433 29.331,26.745 28.947,26.745 Z" fill="#fffeff"/>
  <path d="F1 M 28.947,29.811 L 3.143,29.811 C 2.759,29.811 2.448,29.500 2.448,29.116 L 2.448,28.785 C 2.448,28.401 2.759,28.089 3.143,28.089 L 28.947,28.089 C 29.331,28.089 29.643,28.401 29.643,28.785 L 29.643,29.116 C 29.643,29.500 29.331,29.811 28.947,29.811 Z" fill="#fffeff"/>
</svg>