<?xml version="1.0" encoding="UTF-8"?>
<svg xmlns="http://www.w3.org/2000/svg" width="32" height="32" viewBox="0 0 32 32">
  <title>BiteSplintToothMode.BiteSplintTooth.Parameter</title>
  <path d="F1 M8.7936559,0.16578 C8.5289559,0.68983 8.0738559,1.19162 8.0240559,1.54152 7.9330559,2.18112 9.1272559,3.14477 10.086556,3.51027 11.045956,3.87567 11.930356,2.94777 11.930356,2.94777 11.930356,2.94777 12.230656,3.60677 13.555356,3.69777 14.403756,3.75627 14.802256,3.43274 14.992856,3.19777 15.150556,3.3356 15.320956,3.47725 15.836556,3.57277 16.594756,3.71317 16.774056,3.35402 16.774056,3.35402 16.774056,3.35402 16.948056,3.65752&#xD;&#xA;17.242856,3.85402 17.537656,4.05062 17.700756,4.17077 18.711556,4.07277 19.662856,3.98027 20.125856,3.22484 20.180356,3.13527 20.200356,3.15847 20.219356,3.17697 20.242356,3.19777 20.903156,3.79257 22.492356,3.54152 22.492356,3.54152 22.492356,3.54152 22.568356,3.55672 22.617356,3.57272 22.720856,3.56572 22.803256,3.56022 22.898556,3.57272 22.954556,3.54552 22.990556,3.49912 23.023556,3.41647 23.068556,3.30405&#xD;&#xA;23.140756,3.1988 23.211056,3.10397 23.221056,3.12757 23.233056,3.14147 23.242056,3.16647 23.365856,3.49655 23.369756,3.63814 23.367056,3.69772 23.481256,3.75272 23.588556,3.84409 23.679556,3.91647 23.689556,3.92147 23.704556,3.91147 23.710556,3.91647 23.842956,3.96717 23.996856,4.00847 24.179356,4.01017 24.415656,3.77011 24.669556,3.53071 25.148056,3.29142 25.450756,3.13988 25.751656,3.14246 25.991856,3.19772&#xD;&#xA;26.070856,3.10052 26.116856,2.98745 26.116856,2.88522 26.116856,2.70467 26.209856,2.38362 26.241856,2.04147 26.177856,1.99597 26.144856,1.95647 26.085556,1.88522 26.105556,1.53497 25.790056,1.1015 24.835556,0.72897 24.731156,0.74857 24.644656,0.77107 24.554356,0.82267 24.424356,0.89697 24.352056,0.94551 24.273056,1.01017 24.033156,0.53027 23.321856,0.50989 23.179356,0.51017 23.135356,0.51617 23.101356,0.53827&#xD;&#xA;23.054356,0.54137 22.605456,0.57127 22.319656,0.63467 21.960556,0.60387 21.666256,0.57867 21.346156,0.47308 20.991856,0.29137 20.761156,0.31447 20.533556,0.35127 20.398056,0.47887 20.332056,0.3384 20.225156,0.2538 20.116856,0.16637 20.022856,0.23847 19.956656,0.27312 19.741856,0.41637 19.403756,0.6418 18.990556,0.80342 18.491856,0.82262 17.993156,0.84182 17.406956,0.71289 16.710556,0.44762 16.424556,0.33867&#xD;&#xA;16.257556,0.32227 16.148056,0.29137 16.026056,0.35787 15.924556,0.35387 15.835556,0.35387 15.814556,0.36417 15.788556,0.39507 15.741556,0.41637 15.647556,0.45887 15.513856,0.53027 15.366556,0.60387 15.072056,0.75112 14.720656,0.91637 14.272756,0.91637 13.769256,0.91637 13.404156,0.67015 13.085256,0.47887 12.766456,0.28759 12.455756,0.16637 12.522756,0.16637 12.522756,0.16637 12.217656,0.29949 11.804056,0.41637&#xD;&#xA;11.390456,0.53325 10.833756,0.5969 10.147756,0.41637 9.5765559,0.26605 9.1900559,0.21602 8.8665559,0.13512 8.7715559,0.11142 9.1728559,0.03802 9.0822559,1.6313261E-55 z M28.652456,4.9767 C28.569056,5.0144 28.457256,5.0508 28.402056,5.0705 28.349056,5.64479 28.458056,5.91274 27.492856,6.04147 27.033456,6.10267 26.846356,6.17152 26.805356,6.19772 26.764356,6.22392 26.708356,6.29742 26.555356,6.60397 26.432556,6.84966 26.234356,7.04302 25.992856,7.13522 25.751256,7.22742 25.521356,7.22782 25.305356,7.19772 24.873456,7.13742 24.465656,6.97119 24.055356,6.85397 23.940356,6.81977 23.942356,6.82567&#xD;&#xA;23.930356,6.82277 23.858356,6.96619 23.713856,7.31914 23.242856,7.57277 22.747056,7.83973 22.228556,7.85022 21.836556,7.69777 21.444556,7.54532 21.151356,7.30435 20.836556,7.10402 20.742556,7.04352 20.752556,7.03952 20.742556,7.04152 20.732556,7.04352 20.692556,7.06802 20.617556,7.13522 20.467956,7.26977 20.253056,7.58749 19.992556,7.88522 19.927556,7.95942 19.848156,7.98752 19.773756,8.04147 19.783756,8.13957&#xD;&#xA;19.794756,8.25142 19.804756,8.35397 19.793756,8.29007 19.773756,8.22288 19.742756,8.16647 19.726756,8.13767 19.725756,8.13087 19.711756,8.10397 19.354856,8.32581 18.912056,8.37419 18.493056,8.32272 17.953956,8.25652 17.385656,8.03897 16.930556,7.69772 16.598256,7.44847 16.503056,7.47697 16.493056,7.47897 16.493056,7.47919 16.466056,7.47697 16.462056,7.47897 16.393056,7.51757 16.327156,7.58393 16.274556,7.69772&#xD;&#xA;16.105356,8.06438 16.170556,9.51552 16.368556,9.85397 16.565956,10.19243 17.478956,10.62 18.212256,10.47897 18.945556,10.33795 19.346456,10.03617 19.431056,9.69772 19.495056,9.44387 19.805656,8.95396 19.837256,8.54147 19.938956,9.33262 20.201556,10.19295 20.868556,10.35397 21.686556,10.5514 22.674056,10.33037 22.899756,9.82272 23.069056,9.44196 23.338156,8.83088 23.368556,8.29147 23.527256,8.85914 23.721056,9.47493&#xD;&#xA;23.868556,9.60397 24.094256,9.8014 24.661256,9.97978 25.056056,9.69767 25.450956,9.41562 25.721456,8.88981 25.806056,8.35392 25.830056,8.20202 25.889056,8.00512 25.931056,7.82267 L25.931056,8.04142 C25.931056,8.04142 26.233656,8.49719 26.431056,8.66642 26.628556,8.83565 27.314456,8.61992 27.681056,8.47892 27.864456,8.40842 27.948156,7.88724 27.962256,7.29142 28.141856,7.22732 28.377856,7.14221 28.837256,7.10392 29.852656,7.01932 28.759256,7.15972 28.871256,6.5392 28.953256,6.08666 28.804256,5.54285 28.652456,4.9767 z M12.555556,7.38517 C12.486356,7.39322 12.402456,7.40342 12.336556,7.41642 12.326556,7.42242 12.311556,7.41042 12.305556,7.41642 12.272556,7.44722 12.211556,7.51012 12.211556,7.51012 L11.805356,7.88512 C11.805356,7.88512 11.815356,7.75576 11.805356,7.63512 11.587356,7.73192 11.294956,7.85177 10.742856,8.07262 10.418256,8.20242 10.180756,8.28092 9.9615559,8.32262 9.7424559,8.36432 9.5122559,8.35002 9.3365559,8.29142 8.9851559,8.17426 8.9014559,8.05685 8.3678559,7.91642 7.9041559,7.79422 7.5002559,7.72413 7.1490559,7.66642 7.1490559,7.67242 7.1180559,7.69762 7.1180559,7.69762 7.1180559,7.69762 6.4202559,7.67382&#xD;&#xA;6.1492559,7.97887 5.8783559,8.28377 5.7742559,8.38512 5.7742559,8.38512 5.7742559,8.38512 5.8152559,8.01883 5.5867559,7.66637 5.3334559,7.69067 5.0153559,7.71607 4.6180559,7.66637 4.0886559,7.60067 3.8014559,7.53382 3.6180559,7.51012 3.4345559,7.48642 3.3308559,7.49032 2.9617559,7.60382 2.3979559,7.7773 1.8001559,7.68762 1.3055559,7.60382 1.2535559,7.59482 1.2615559,7.58172 1.2115559,7.57262 1.1425559,7.69696&#xD;&#xA;1.1495559,7.82262 1.1495559,7.82262 1.1495559,7.82262 0.1261559,7.71257 0.024555904,8.72887 -0.077144096,9.74517 0.1282559,10.55682 0.8058559,10.76012 1.4834559,10.96342 2.4933559,10.54137 2.4933559,10.54137 2.4933559,10.54137 2.7536559,10.79667 3.0245559,10.72887 3.2955559,10.66087 3.3683559,10.63517 3.3683559,10.63517 3.3683559,10.63517 3.5164559,10.88517 4.0245559,10.88517 4.5327559,10.88517 5.4596559,9.64832 5.4933559,9.47892&#xD;&#xA;5.5273559,9.30952 6.0059559,10.45527 6.6495559,10.76017 7.2932559,11.06507 8.3995559,10.47892 8.3995559,10.47892 8.3995559,10.47892 8.9095559,10.91122 9.5870559,10.97892 10.264656,11.04692 11.326656,10.07027 11.462056,9.69767 11.597656,9.32497 11.837056,8.63517 11.837056,8.63517 11.837056,8.63517 12.263756,10.19212 12.805856,10.66642 13.347956,11.14072 13.961956,11.33582 14.368356,11.16642 14.774956,10.99702 16.058556,9.29432&#xD;&#xA;16.024556,8.85392 16.006556,8.61587 15.990556,8.27817 15.930556,7.97892 15.184856,8.59885 14.003656,8.53579 13.305556,7.76017 12.975256,7.39313 12.761856,7.3598 12.555556,7.38517 z" fill="#FFFFFF"/>
  <path d="F1 M11.921692,0.43393869 C11.318492,0.43393869 11.129532,0.44706769 11.129532,0.44706769 11.129532,0.44706769 11.130082,-0.16028231 10.660782,0.040817691 10.191682,0.24181769 9.7857818,1.3845677 9.7857818,1.3845677 9.7857818,1.3845677 8.5429302,2.8165893 7.6500585,4.7211163 7.8301486,4.8883343 7.9887099,5.0693623 8.1188085,5.2523663 8.2211085,5.3964063 8.2333085,5.4121363 8.3063085,5.5336163 8.4540085,5.4491963 8.4956085,5.4383263 8.7438085,5.2211163 9.1948085,4.8269163 9.7659085,4.8634163&#xD;&#xA;10.181309,4.9086163 10.477109,4.9408163 10.589459,4.9994163 10.712559,5.0336163 10.818559,4.9524163 10.795009,4.9021663 10.993809,4.8148663 11.382709,4.6441663 11.996259,4.4711163 12.837559,4.4711163 13.274759,4.4711163 13.595909,4.5333663 13.868809,4.6586163 14.055509,4.7443063 14.135109,4.9184663 14.243809,5.0648663 L14.618809,4.8148663 C15.437309,4.2684363 16.477809,4.5033963 17.368809,4.8461163 18.122009,5.1357963 18.626809,5.1373563 18.868809,5.0336163 18.968609,4.9908663 18.964709,4.9481763 19.118809,4.7836163 19.273009,4.6190563 19.581009,4.4183663 19.993809,4.3773663 20.495009,4.3272463 20.899809,4.5699063 21.118809,4.7523663 21.228409,4.8435663 21.335809,4.9156663 21.368809,4.9398663 21.519209,4.9408663 21.652809,4.9262663 21.743809,4.9398663 21.884109,4.9607663 21.985309,4.9443663&#xD;&#xA;21.931309,4.9711163 21.867109,5.0032263 21.982109,4.9273863 22.118809,4.8148663 22.255609,4.7023463 22.413109,4.5598063 22.618809,4.4086163 23.030409,4.1062263 23.592259,3.7725663 24.212559,3.6898663 24.872459,3.6018763 25.357609,3.9491863 25.618809,4.2836163 25.639809,4.3140163 25.629059,4.3158163 25.650059,4.3461163 25.948659,4.0478363 27.751344,0.84317849 26.331277,0.90601439 25.728567,0.93268339 24.952765,0.59591379 24.952765,0.59591379 23.683726,0.75650989&#xD;&#xA;23.247145,0.56033779 22.723282,0.40157269 22.723282,0.40157269 22.356252,0.32995669 21.753052,0.39695269 21.149752,0.46395269 20.807602,0.88752229 20.807602,0.88752229 20.807602,0.88752229 20.174382,0.57192269 19.973282,0.90712229 L19.817032,1.4158123 C19.886162,1.2398769 19.927082,0.89138789 19.223282,0.79081289 18.284882,0.65681289 17.734192,0.37735189 17.734192,0.37735189 17.734192,0.37735189 17.565672,0.42138289 17.210893,0.69558339 16.607593,0.76258339 15.859192,0.99717349 15.859192,0.99717349 15.859192,0.99717349 15.492122,0.66731329 15.224022,0.93541349 14.996032,1.3731197 15.231122,0.48985459 14.928903,0.85923049 14.928903,0.85923049 14.801642,0.44895189 14.265442,0.31485189 13.729242,0.18085189 12.817772,0.58445229&#xD;&#xA;12.817772,0.58445229 12.817772,0.58445229 12.524892,0.43393379 11.921692,0.43393869 z M30.135696,5.1929821 C30.171411,5.987625 29.777951,6.0790583 29.181309,6.1586163 28.721909,6.2198663 28.534809,6.2886663 28.493809,6.3148663 28.452709,6.3410763 28.397109,6.4145763 28.243809,6.7211163 28.121009,6.9668063 28.046839,7.0963179 27.805339,7.1885179 27.609119,7.2633998 27.702661,7.6193214 27.666946,8.1639643 27.65899,8.2853002 27.855557,8.5532065 27.858911,8.7041429 27.876586,9.4995418 27.675875,9.7309286 27.247304,10.239857 26.818732,10.748786 26.166946,10.686286&#xD;&#xA;25.756232,10.525571 25.345518,10.364857 25.104446,9.7666429 25.104446,9.7666429 25.104446,9.7666429 25.007746,10.816647 24.523412,11.033051 24.10377,11.220551 22.687914,11.359727 22.286805,11.155819 21.885696,10.951911 21.537482,10.335839 21.537482,10.335839 21.150682,10.778339 21.10147,11.736881 19.812036,11.768875 18.522601,11.800869 17.714893,10.338304 17.704893,10.340304 17.695993,10.342204 17.517393,11.331375 16.53525,11.849232 15.553107,12.367089&#xD;&#xA;14.823014,12.031998 14.320964,11.474232 13.880564,10.984852 13.53525,10.018875 13.53525,10.018875 13.53525,10.018875 13.629,10.860393 12.539714,11.521107 12.240811,11.702409 12.039714,11.851464 11.307571,11.842536 10.575429,11.833607 10.111143,11.360393 10.111143,11.360393 10.111143,11.360393 9.4653095,11.738369 8.4772143,11.619321 7.4891191,11.500274 7.129,10.335839 7.129,10.335839 7.129,10.335839 7.5062321,8.4608393 7.5062321,8.4608393&#xD;&#xA;7.5062321,8.4608393 7.5081664,7.8494494 7.300875,7.7554821 7.0935836,7.6615149 6.9545992,7.8474647 6.3063085,7.7836163 5.6580179,7.7197679 5.3515634,7.5985736 5.2919464,7.5903036 4.9932033,7.5699419 4.5162185,7.8258608 4.1044464,7.800125 3.7814065,7.779935 3.3723036,7.7956607 2.988375,7.706375 2.4805619,7.5882789 1.8927854,7.797567 1.7709798,7.8381563 1.1676798,8.0392563 1.7981088,10.12197 0.99380854,11.12737 0.18950854,12.13277 -1.3624415,16.67492&#xD;&#xA;2.5250585,18.28362 6.4125585,19.89222 7.6687085,18.40817 11.556309,18.87737 15.443809,19.34657 22.905209,18.74542 26.993809,16.53362 31.082309,14.32172 31.810809,13.27587 31.743809,12.00237 31.676809,10.72887 31.266409,8.2396703 30.931309,7.5023703 L30.618809,6.7523703 C30.618809,6.7523703 30.385696,5.1394107 30.385696,5.1394107 30.385696,5.1394107 30.162482,5.2108393 30.135696,5.1929821 z" fill="#FFFFFF" stroke-width="0"/>
  <path d="M4.9802523,13.542881 L4.9759212,13.558137 C4.9705439,13.576466 4.9693141,13.577675 4.9735265,13.5565 4.9745889,13.551207 4.9760857,13.547197 4.9780083,13.544406 z M6.6292262,11.744 C6.9804263,11.80171 7.3843265,11.8718 7.8480263,11.994 8.3816261,12.13443 8.4653263,12.25184 8.8167267,12.369 8.9924259,12.4276 9.2226267,12.4419 9.4417267,12.4002 9.6609268,12.3585 9.8984261,12.28 10.223026,12.1502 10.775126,11.92935 10.942946,11.920661 11.160947,11.823861 11.170946,11.944501 11.187732,12.047075 11.187732,12.047075 11.187732,12.047075 11.223447,12.699161 11.223447,12.699161 11.223447,12.699161 11.077826,13.40255&#xD;&#xA;10.942226,13.77525 10.806827,14.14785 9.7448263,15.1245 9.0672264,15.0565 8.3897266,14.9888 7.8797264,14.5565 7.8797264,14.5565 7.8797264,14.5565 6.7734261,15.14265 6.1297264,14.83775 5.5263515,14.551907 5.067996,13.527035 4.9850435,13.539623 L4.9802523,13.542881 4.9807115,13.541264 C5.0304585,13.36199 5.2544265,12.4627 5.2544265,12.4627 5.2544265,12.4627 5.3585262,12.36135 5.6294265,12.05645 5.9004264,11.7514 6.5982261,11.7752 6.5982261,11.7752 6.5982261,11.7752 6.6292262,11.75 6.6292262,11.744 z M15.997772,11.553627 C16.044344,11.556451 16.160202,11.587154 16.40943,11.774096 16.864534,12.115349 17.432842,12.332902 17.971951,12.399102 18.390957,12.450573 18.833763,12.402192 19.190668,12.180349 19.204668,12.20725 19.205667,12.214049 19.22167,12.242851 19.25267,12.299261 19.257538,12.518642 19.268539,12.582544 19.236938,12.995039 18.963251,13.584074 18.89925,13.837927 18.81465,14.176381 18.347532,14.888514 17.614223,15.029536 16.880911,15.170567 16.044825,14.268836&#xD;&#xA;15.847422,13.93037 15.649419,13.591917 15.584217,12.140758 15.75342,11.774096 15.806021,11.660303 15.871922,11.593942 15.940923,11.555343 15.944922,11.553342 15.971923,11.555562 15.971923,11.555343 15.974422,11.554842 15.982248,11.552686 15.997772,11.553627 z M12.112279,11.455316 C12.295849,11.449717 12.495362,11.515381 12.784379,11.836545 13.482489,12.612175 14.879972,12.58641 15.625682,11.966473 15.685681,12.265726 15.585597,12.683422 15.603597,12.921474 15.637598,13.36188 14.253798,15.073435 13.847194,15.242837 13.440788,15.412239 12.826779,15.217137 12.284672,14.742831 11.742564,14.268525 11.315858,12.711556 11.315858,12.711556 11.315858,12.711556 11.284158,11.961496 11.284158,11.961496 L11.690364,11.586493 C11.690364,11.586492 11.751365,11.523591 11.784365,11.492791 11.790364,11.486792 11.805366,11.498791 11.815365,11.492791 11.881267,11.479791 11.965167,11.469591 12.034369,11.461541 12.060156,11.45837 12.086055,11.456116 12.112279,11.455316 z M23.409327,10.899134 C23.421328,10.902034 23.624519,10.947897 23.739521,10.982097 24.149826,11.099318 24.470341,11.30342 25.363197,11.231992 25.580593,11.2146 25.247021,13.147285 24.927675,13.512693 24.380888,14.138348 23.620016,13.918813 23.394312,13.721381 23.246809,13.592339 22.815413,12.828079 22.752913,11.774508 22.833271,12.926294 22.548016,13.518356 22.378714,13.89912 22.153009,14.406777 21.165497,14.62781 20.347485,14.430378 19.680475,14.269356 19.370241,13.373704&#xD;&#xA;19.268539,12.582544 19.258539,12.479993 19.262669,12.21595 19.25267,12.117849 19.327068,12.063898 19.406471,12.035798 19.47147,11.961596 19.731976,11.663863 19.89349,11.563078 20.043093,11.428526 20.118093,11.361325 20.194529,11.01375 20.418091,11.196383 20.641655,11.379017 20.979654,11.645579 21.37166,11.798032 21.763666,11.950483 22.230322,11.907543 22.726128,11.64058 23.197134,11.386947 23.337326,11.042556 23.409327,10.899134 z M11.104783,0.00017652641 C11.491371,0.017821599 12.312672,1.3524327 12.312673,1.3524327 12.312672,1.3524327 12.812678,1.1649304 13.750192,1.3524327 14.687706,1.539935 15.187713,1.289932 16.187725,0.97742812 17.18774,0.66492424 17.687746,1.539935 17.687746,1.539935 17.687746,1.539935 17.93775,1.3524327 18.812763,1.1024297 19.687775,0.85242657 20.312784,1.7274374 20.312784,1.7274372 20.312784,1.7274374 20.937792,1.7274374 21.312798,1.7274372 21.687803,1.7274374 21.687803,1.4149334&#xD;&#xA;22.562815,1.1649304 23.437826,0.91492734 23.312824,1.7274374 23.312824,1.7274372 23.312824,1.7274374 23.68783,2.1029427 24.125336,2.1649425 24.562843,2.2279441 24.750345,1.8524389 25.687859,2.2899441 26.625372,2.7274496 26.125364,3.5399601 26.125364,3.5399601 26.125364,3.5399601 26.50037,2.9779529 27.18788,3.0399539 27.875389,3.1024546 27.125378,4.102467 27.312881,4.3524699 27.500383,4.6024732 28.687901,4.4774713 29.000404,5.4149833 29.312908,6.3524947&#xD;&#xA;29.187906,6.9150009 28.750401,7.4150071 28.312895,7.9150133 27.875889,7.7275109 27.937889,8.0400152 28.000391,8.352519 27.873463,9.116024 26.935949,9.2410259 25.998436,9.3660278 25.87536,9.2900305 25.562857,9.9150381 25.250353,10.540046 24.747011,10.762861 23.872,10.512857 22.996986,10.262855 23.411406,10.624949 22.598894,11.062455 21.786383,11.49996 21.286406,11.285674 20.598896,10.848169 20.20122,10.595103 19.810057,10.656449 19.399342,11.308236&#xD;&#xA;18.988628,11.960021 17.241762,11.785676 16.491753,11.223169 15.741742,10.660662 15.547563,10.938936 15.047556,11.501443 14.547549,12.064439 13.560957,11.883881 12.998449,11.258883 12.435942,10.633876 11.935954,10.846436 11.623449,10.908438 11.310945,10.970938 11.284181,10.872716 10.034164,11.372723 8.7841463,11.872719 8.9850731,11.535673 7.7975569,11.223169 6.6100402,10.910166 5.7171998,10.955312 5.7171998,10.955312 5.7171998,10.955312 5.1547136,11.151742&#xD;&#xA;4.1546998,11.02674 3.1546855,10.902739 2.9047112,10.687452 2.0921998,10.937455 1.2796886,11.187458 0,10.478545 0,10.478545 L0,10.478044 C0,10.478045 0,10.165542 0.06200112,9.540534 0.12450201,8.9155264 0.87451249,9.0405273 0.87451267,9.0405273 0.87451249,9.0405273 2.1870308,8.6035223 2.7495387,8.978527 3.3120465,9.3535318 3.9370551,8.1665163 4.5620637,8.2285175 5.1870728,8.2910185 5.8745823,9.6660356 5.8745823,9.6660356 5.8745823,9.6660356 6.3120885,9.4785328 6.8120952,9.041027 7.3121023,8.604022 8.4996185,8.9790268 8.4996185,8.9790268 8.4996185,8.9790268 8.9996262,8.4165191&#xD;&#xA;10.562147,8.4165191 12.124669,8.4165191 11.687163,9.2915306 11.687163,9.2915306 11.687163,9.2915306 12.062168,9.0415277 12.624677,8.666523 13.187184,8.2910185 14.124698,8.4160194 14.937208,8.7285232 15.74972,9.041027 16.374729,9.103528 16.812235,8.9160261 17.249741,8.7285232 17.187241,8.3530197 17.812248,8.2910185 18.437258,8.2285175 18.749762,8.9155264 18.999765,8.8535251 19.249769,8.7915239 19.624775,8.978527 19.874777,8.8535251 20.124781,8.7285232&#xD;&#xA;21.062294,7.7285108 21.999807,7.6035094 22.937321,7.478508 23.583269,8.4151325 23.583269,8.4151325 23.583269,8.4151325 24.062336,7.6660104 24.812346,7.2910056 25.562357,6.9155011 25.937862,7.6655106 25.999863,7.3530073 26.062365,7.0405025 26.49987,7.2280049 26.49987,7.2280044 26.49987,7.2280049 26.812374,6.978002 26.812374,6.4779958 26.812374,5.9779897 26.750374,5.352982 26.750374,5.352982 26.750374,5.352982 26.187864,5.4779835 25.87536,5.1029792&#xD;&#xA;25.562857,4.7279744 25.062849,4.4154706 24.187838,3.5404601 23.312824,2.6649489 23.375326,3.5404598 22.437813,3.6024606 21.500299,3.6649616 21.312798,3.7899632 20.437784,3.2899573 19.562773,2.7899503 19.437771,3.1649554 18.875263,3.5399601 18.312756,3.9149647 17.625246,4.0399661 16.312727,3.5399601 15.00021,3.0399539 15.562718,3.4149585 15.250214,3.4149585 14.937709,3.4149585 14.250199,3.9774654 13.687692,3.9774654 13.125183,3.9774654 12.375173,3.2274563&#xD;&#xA;11.937668,3.2274561 11.50016,3.2274563 10.875152,3.7899632 9.6876364,3.4774589 8.5001192,3.1649554 8.0626135,3.2274563 7.8751101,2.8524511 7.6876078,2.4774465 8.3751173,0.91492734 8.8751249,0.60242353 9.3751307,0.28991965 9.4376316,0.78942607 10.125142,0.7274252 10.812651,0.66492424 10.687649,0.35242043 11.000154,0.039916608 11.02945,0.010619361 11.064791,-0.0016488561 11.104783,0.00017652641 z" fill="#FFFFFF"/>
</svg>