<?xml version="1.0" encoding="UTF-8"?>
<svg xmlns="http://www.w3.org/2000/svg" width="32" height="32" viewBox="0 0 32 32">
  <title>CopyInWizardMode.ExtractKeepPreopUnlessPreopExists.Parameter</title>
  <path d="F1 M737.02055,374.60639 C737.30637,375.17804 739.45491,375.90612 740.66038,375.91828 741.86584,375.93044 744.8621,375.79401 745.52797,375.19121 746.08449,374.68741 746.6461,373.18295 746.80943,372.32548 746.80943,372.32548 747.47188,369.87162 747.47188,369.87162 747.47188,369.87162 747.75479,368.96815 747.56472,368.64975 747.37465,368.33135 746.73108,366.88146 745.34279,366.84063 743.9545,366.79983 743.80248,367.34625 743.3125,367.46875 742.82252,367.59125 742.38208,367.52415&#xA;742.21875,367.6875 742.05542,367.85083 742.01416,368.10083 741.6875,367.9375 741.36084,367.77417 740.25164,367.02624 739.3125,366.78125 739.07772,366.72005 738.86807,366.70535 738.65625,366.71875 738.0208,366.75895 737.49311,367.06813 737.15625,367.34375 736.7071,367.71124 736.5,367.875 736.5,367.875 736.5,367.875 735.52624,367.7721 735.28125,368.34375 735.03626,368.9154 736.33297,371.6738 736.59073,372.5495 M738.40625,367.65625 C738.45085,367.65025 738.47515,367.67215 738.53125,367.68745 738.9361,367.79786 739.31775,367.94414 739.65625,368.0312 739.68065,368.0272 739.69325,368.0039 739.71875,368 740.01854,367.9539 740.32966,368.044 740.625,368.1875 740.25751,368.065 740.14874,368.1442 739.78125,368.0625 739.74505,368.0545 739.69325,368.0408 739.65625,368.0313 738.66718,368.20931 738.61181,368.75005 738.09375,368.75005 737.56293,368.75005 736.96875,368.18755&#xA;736.96875,368.18755 736.96875,368.18755 737.56751,368.53838 737.8125,368.37505 738.02687,368.23214 738.09419,367.70152 738.40625,367.6563 z M743.96875,367.8125 C743.8165,368.02658 743.52591,368.496 743.65625,368.59375 743.81958,368.71625 744.99085,368.25 745.5625,368.25 745.73063,368.25 745.90393,368.3088 746.0625,368.3437 745.64397,368.2825 745.08123,368.3079 744.46875,368.5937 743.24379,369.16535 742.82415,369.60078 742.375,369.43745 742.0617,369.32352 741.41298,368.59432 740.6875,368.2187 741.07085,368.36297 741.81736,368.7812 742.5625,368.7812 743.14436,368.7812 743.71419,368.134&#xA;743.96875,367.81245 z" fill="#FFFFFF" stroke="#FFFFFF" stroke-width="0"/>
  <path d="F1 M754.34375,366.125 C752.95546,366.41082 753.17748,366.83417 752.6875,366.875 752.19751,366.9158 751.62206,366.11792 750.96875,366.28125 750.31544,366.44458 749.57208,367.65168 749.53125,367.9375 749.49045,368.22332 749.43755,368.46875 749.43755,368.46875 749.43755,368.46875 749.56255,368.90168 749.56255,369.1875 749.56255,369.47332 750.21596,371.21364 750.29762,371.74446 750.37932,372.27528 750.76506,374.69794 751.72652,375.22836 752.78701,375.81342 755.1126,375.86707&#xA;755.35759,375.09126 755.60258,374.31545 756.05547,371.96832 756.2188,371.4375 756.38213,370.90668 756.80046,369.69665 756.7188,369.125 756.6371,368.55335 755.9688,367.75 755.9688,367.75 755.9688,367.75 755.73209,365.83918 754.3438,366.125 z M755.15625,367.65625 C755.58539,367.66325 755.87625,367.81563 755.9375,367.96875 756.0192,368.17291 755.9687,368.1875 755.9687,368.1875 755.9687,368.1875 755.48743,368.41082 754.87495,368.125 754.58898,367.99155 754.28627,367.76781 753.9687,367.71088 754.16693,367.70988 754.29353,367.77785 754.68745,367.6875 754.85246,367.6497 755.01315,367.6538 755.1562,367.6563 z M753.3125,367.8125 C753.17852,367.8346 753.06288,367.8745 752.9375,367.9375 753.04867,367.884 753.16191,367.82862 753.3125,367.8125 z M751.5625,368.0625 C752.09332,368.0217 752.23585,368.28833 752.5625,368.125 752.2275,368.30881 751.99249,368.43938 751.625,368.53125 751.13502,368.65375 749.9375,368.6875 749.9375,368.6875 749.9375,368.6875 750.3321,368.21875 750.78125,368.21875 751.2304,368.21875 751.03168,368.10333 751.5625,368.0625 z" fill="#FFFFFF" stroke="#FFFFFF" stroke-width="0"/>
  <path d="F1 M738.65625,366.71875 C738.0208,366.75895 737.49311,367.06813 737.15625,367.34375 736.7071,367.71124 736.5,367.875 736.5,367.875 736.5,367.875 735.52624,367.7721 735.28125,368.34375 735.03626,368.9154 735.35335,370.29377 735.31245,370.90625 735.27165,371.51873 735.73293,372.5758 735.80868,373.78509 735.88443,374.99437 736.55002,375.44385 737.34539,375.84699 738.14077,376.25013 741.05581,375.97515 741.05581,375.97515 741.05581,375.97515 742.54714,375.66516&#xA;743.87277,375.35496 745.1984,375.04476 745.68139,374.86284 746.09793,373.97904 746.51448,373.09524 746.76465,372.80242 746.92798,371.94495 747.09131,371.08748 747.30036,370.28082 747.2187,369.75 747.13709,369.21918 747,368.5 747,368.5 747,368.5 746.41954,366.85333 745.03125,366.8125 743.64296,366.7717 743.80248,367.34625 743.3125,367.46875 742.82252,367.59125 742.38208,367.52415 742.21875,367.6875 742.05542,367.85083&#xA;742.01416,368.10083 741.6875,367.9375 741.36084,367.77417 740.25164,367.02624 739.3125,366.78125 739.07772,366.72005 738.86807,366.70535 738.65625,366.71875 z M738.40625,367.65625 C738.45085,367.65025 738.47515,367.67215 738.53125,367.68745 738.9361,367.79786 739.31775,367.94414 739.65625,368.0312 739.68065,368.0272 739.69325,368.0039 739.71875,368 740.01854,367.9539 740.32966,368.044 740.625,368.1875 740.25751,368.065 740.14874,368.1442 739.78125,368.0625 739.74505,368.0545 739.69325,368.0408 739.65625,368.0313 738.66718,368.20931 738.61181,368.75005 738.09375,368.75005 737.56293,368.75005 736.96875,368.18755&#xA;736.96875,368.18755 736.96875,368.18755 737.56751,368.53838 737.8125,368.37505 738.02687,368.23214 738.09419,367.70152 738.40625,367.6563 z M743.96875,367.8125 C743.8165,368.02658 743.52591,368.496 743.65625,368.59375 743.81958,368.71625 744.99085,368.25 745.5625,368.25 745.73063,368.25 745.90393,368.3088 746.0625,368.3437 745.64397,368.2825 745.08123,368.3079 744.46875,368.5937 743.24379,369.16535 742.67502,369.60078 742.22587,369.43745 741.91257,369.32352 741.41298,368.59432 740.6875,368.2187 741.07085,368.36297 741.81736,368.7812 742.5625,368.7812 743.14436,368.7812 743.71419,368.134&#xA;743.96875,367.81245 z" fill="#FFFFFF" stroke="#FFFFFF" stroke-width="0"/>
  <path d="M16.446149,1.674581 C16.5896,1.7828121 16.381597,3.3668467 17.570032,4.0840792 18.511546,4.6522923 21.165637,4.6789146 22.165637,4.393112 23.165637,4.1073094 25.366313,3.6253959 25.680533,2.8111069 25.837647,2.4039625 26.544076,0.5724065 26.79283,0.49268397 27.041585,0.41296143 27.316153,0.27513583 27.673399,0.81124316 28.030646,1.3473505 28.184119,2.2853672 28.21653,3.2331557 28.248941,4.1809442 28.232812,9.1374964 28.232812,9.1374964 28.232812,9.1374964 22.112676,10.071592&#xD;&#xA;13.39957,10.011749 4.6864638,9.9519054 -0.67221472,9.4584294 -0.93463494,8.9797454 -1.1970552,8.5010624 -0.99626008,3.7154845 -0.99626008,3.7154845 -0.99626008,3.7154845 -0.5526249,1.4128781 0,1.2991526 0.5526249,1.185427 0.47792349,1.2537554 0.9251659,1.1668482 1.3318955,1.1239167 1.9679603,3.6830387 2.4545869,3.938215 3.4088072,4.4385938 6.9290132,4.4665692 7.3343357,3.9355884 7.7396581,3.4046077 7.6257519,1.6305426 8.1619538,1.5727629 8.6981557,1.5149832&#xD;&#xA;8.7625692,2.9937301 9.1119385,3.724182 9.4613077,4.4546339 12.740332,4.5532446 13.490334,4.5425825 13.99561,4.535399 14.993736,4.0942039 15.623512,3.5536371 15.928546,3.2918124 16.023406,2.9791481 16.086969,2.8414142 16.281765,2.4193131 16.302698,1.56635 16.446149,1.674581 z" fill="#FFFFFF" stroke="#FFFFFF" stroke-width="0"/>
  <path d="M34.35498,15.689022 L34.815109,16.529022 34.143948,16.540327 C31.754639,16.577766 29.611782,16.589172 28.049253,16.583612 27.853928,16.58292 27.653828,16.580949 27.449396,16.577751 L26.88023,16.565717 27.442558,15.704637 27.713371,15.713067 C28.089722,15.722939 28.452314,15.728658 28.798004,15.72988 30.18075,15.734767 32.077038,15.724723 34.191414,15.691763 z M45.739052,15.263422 L47.771183,16.011014 47.162662,16.056013 C45.490639,16.173252 43.628578,16.266921 41.717335,16.34085 L39.911449,16.404247 39.452534,15.566473 40.893345,15.516156 C42.584667,15.451075 44.232468,15.368615 45.712101,15.265404 z M16.947956,14.753829 L17.064215,14.77123 C18.405353,14.966356 19.905203,15.14625 21.429007,15.296232 L22.46228,15.391668 21.880201,16.282991 21.200998,16.228347 C19.229589,16.057384 17.236717,15.835815 15.449686,15.588536 L14.970852,15.520425 z M53.584198,13.337225 L56.662769,13.437875 56.434124,13.608162 C55.454899,14.308554 54.369102,14.910631 53.287041,15.2557 53.071274,15.324509 52.808304,15.38999 52.503357,15.452287 L52.461323,15.460486 50.468723,14.727437 50.633675,14.692263 C50.82193,14.650073 50.988632,14.606289 51.131847,14.560857 51.929806,14.307721 52.730045,13.897464 53.476086,13.410933 z M11.031536,11.833044 L12.097462,13.620552 C12.220407,13.706721 12.41847,13.7951 12.681043,13.884534 L12.912676,13.957811 10.824964,14.767293 10.523627,14.691796 C9.8759879,14.520784 9.4086427,14.350669 9.1770829,14.187531 L7.9046497,12.042506 z M56.58659,10.593302 L59.497887,10.688484 59.251079,11.007332 C58.960876,11.364231 58.611847,11.742836 58.2178,12.123312 L58.13966,12.196058 55.175754,12.099158 55.495117,11.803363 C55.843811,11.468425 56.15266,11.135131 56.409462,10.820947 z M8.3126048,8.5997843 L8.5295247,8.7920288 C9.2360553,9.4201817 9.8296603,9.9613747 10.125329,10.313374 L10.272147,10.559582 7.1490773,10.768788 6.9485616,10.430765 C6.6561522,10.080893 6.1059899,9.5664782 5.4381313,8.965322 L5.2586087,8.8043637 z M58.799015,7.6329331 L61.689545,7.7274355 61.648735,7.7806849 C61.219421,8.3409094 60.7901,8.9011359 60.468109,9.3213057 L60.386776,9.427442 57.489529,9.3327212 57.716499,9.0381026 C57.96138,8.7202315 58.246334,8.3503451 58.531288,7.9804596 z M5.242917,5.7548885 L5.4555454,5.9734568 C5.8726005,6.3947071 6.3449158,6.8368997 6.8273219,7.2750759 L6.9306907,7.3680238 3.8777024,7.5725359 3.2215211,6.9794239 C2.894437,6.680777 2.5714597,6.3804883 2.2636139,6.0846819 L2.1383466,5.9628558 z M64.097,4.3564834 L64.060821,4.4573192 C63.830116,5.0176653 63.366016,5.5397782 63.366016,5.5397791 63.366016,5.5397782 63.094337,5.8942966 62.703796,6.4039168 L62.654026,6.4688668 59.768471,6.3745274 59.770542,6.3718414 C59.944179,6.1464428 60.051041,6.0077357 60.051041,6.0077357 60.051041,6.0077357 60.558098,5.4402952 60.725479,4.8897304 L60.730221,4.8698677 z M1.7984517,2.1549672 L4.684329,3.2534508 4.6800884,3.2548701 C4.4503421,3.3383088 4.2575855,3.4362532 4.1170749,3.5511455 3.9063095,3.7234814 3.9442305,4.0194268 4.1527857,4.3958496 L4.2155947,4.4993743 0.94330142,4.7185768 0.90152131,4.6713476 C0.14557757,3.7918267 -0.23807606,3.0755157 0.15888581,2.749237 0.47645403,2.4882144 1.0301822,2.3041942 1.6821418,2.1749896 z M59.800133,1.233214 L60.059551,1.3272863 C61.525772,1.8776793 62.548527,2.4841084 63.207443,2.9018766 L63.323589,2.9760365 59.66576,3.5337996 59.592014,3.4887795 C59.072719,3.1759157 58.365711,2.7898263 57.441261,2.4213883 L57.263538,2.3528072 z M10.268104,2.6408877 C10.268104,2.6408877 8.9084062,2.4639682 8.9084062,2.4639687 8.9084062,2.4639682 6.9119348,1.7711328 6.9119348,1.7711328 L6.9405355,1.7630659 C7.4597954,1.6164488 10.692442,2.5214393 10.268104,2.6408877 z M55.978592,0.2866922 L53.561756,1.3910969 53.513657,1.3832938 C53.032207,1.3109543 54.890476,0.12234312 55.978592,0.2866922 z" fill="#FFFFFF" stroke="#FFFFFF" stroke-width="0.5"/>
  <path d="M3.563,-2.6569436 L0,3.563 2.435463,3.563 2.435463,10.478114 4.6191956,10.478114 4.6191956,3.563 7.1260001,3.563 z" fill="White" stroke="#FFFFFF" stroke-width="0"/>
</svg>