<?xml version="1.0" encoding="UTF-8"?>
<svg xmlns="http://www.w3.org/2000/svg" width="32" height="32" viewBox="0 0 32 32">
  <title>CopyInWizardMode.Default.Parameter</title>
  <path d="M26.583,0 C26.686812,0.091625214 26.789427,0.18457603 26.890816,0.27882385 26.992206,0.37307358 27.092371,0.4686203 27.191284,0.56544113 27.290198,0.66226006 27.38786,0.76035309 27.484245,0.85969162 27.580629,0.95902824 27.675736,1.0596123 27.769539,1.1614151 27.863342,1.2632198 27.95584,1.3662415 28.047009,1.4704571 28.138176,1.5746727 28.228013,1.6800804 28.316493,1.7866554 28.404973,1.8932304 28.492096,2.0009727 28.577835,2.1098537 28.663574,2.2187347 28.74793,2.3287563&#xD;&#xA;28.830875,2.4398899 28.91382,2.5510254 28.995356,2.6632729 29.075454,2.7766094 29.155553,2.8899441 29.234214,3.0043659 29.311413,3.1198502 29.388612,3.2353325 29.464347,3.3518772 29.538593,3.4694538 29.61284,3.5870323 29.685596,3.7056446 29.756836,3.825264 29.828076,3.9448833 29.8978,4.0655098 29.965982,4.1871185 30.034163,4.3087273 30.100802,4.4313183 30.165873,4.554863 30.230942,4.6784058 30.294442,4.802906 30.356348,4.9283333 30.418253,5.0537605&#xD;&#xA;30.478562,5.1801167 30.537251,5.307375 30.595938,5.4346333 30.653003,5.5627918 30.70842,5.6918278 30.763837,5.8208618 30.817605,5.9507732 30.869698,6.0815315 30.921791,6.2122917 30.97221,6.3439007 31.020926,6.4763317 31.069643,6.6087627 31.116658,6.7420158 31.161945,6.8760643 31.207232,7.0101147 31.250792,7.1449585 31.292596,7.2805748 31.3344,7.4161892 31.374451,7.5525742 31.41272,7.6897011 31.450989,7.826828 31.487476,7.9646988 31.522158,8.1032867&#xD;&#xA;31.556838,8.2418747 31.589711,8.3811779 31.62075,8.5211716 31.651789,8.6611671 31.680994,8.8018513 31.708339,8.9431992 31.735683,9.084547 31.761168,9.2265587 31.784765,9.3692074 31.808362,9.5118561 31.830072,9.6551437 31.849869,9.7990398 31.869665,9.9429379 31.887548,10.087444 31.903492,10.232536 31.919436,10.37763 31.933439,10.523306 31.945477,10.66954 31.957513,10.815775 31.967584,10.962568 31.975661,11.109892 31.983739,11.257215 31.989823,11.405071&#xD;&#xA;31.993889,11.553431 31.997954,11.701792 32,11.850657 32,12 32,12.138078 31.998251,12.275747 31.994775,12.412987 31.991298,12.550227 31.986094,12.687037 31.979182,12.823397 31.972271,12.959757 31.963653,13.095666 31.953348,13.231103 31.943044,13.366541 31.931054,13.501507 31.917398,13.635981 31.903744,13.770453 31.888423,13.904435 31.871459,14.037903 31.854495,14.171371 31.835886,14.304325 31.815655,14.436745 31.795424,14.569165&#xD;&#xA;31.773568,14.701051 31.750112,14.83238 31.726655,14.963712 31.701595,15.094486 31.674955,15.224686 31.648314,15.354884 31.620093,15.484508 31.590311,15.613533 31.560529,15.742558 31.529187,15.870987 31.496305,15.998797 31.463424,16.126608 31.429003,16.2538 31.393063,16.380354 31.321183,16.63346 31.243231,16.88401 31.159371,17.131838 31.075512,17.379664 30.985747,17.624768 30.890243,17.86698 30.746986,18.230299 30.590817,18.587112 30.422302,18.936855&#xD;&#xA;30.309958,19.170017 30.192127,19.400037 30.068975,19.626747 30.007401,19.740102 29.944494,19.852629 29.88028,19.964308 29.816065,20.075987 29.750542,20.186818 29.683729,20.296779 29.616918,20.406741 29.548818,20.515832 29.47945,20.624034 29.410084,20.732236 29.339449,20.839547 29.267569,20.945947 29.195687,21.052347 29.122561,21.157836 29.048208,21.262393 28.973857,21.36695 28.898279,21.470574 28.821497,21.573246 28.744716,21.675918 28.666729,21.777636&#xD;&#xA;28.58756,21.87838 28.508389,21.979125 28.428037,22.078895 28.346521,22.17767 28.265006,22.276445 28.182327,22.374226 28.098508,22.47099 28.014688,22.567755 27.929728,22.663503 27.843645,22.758215 27.757564,22.852926 27.670362,22.946601 27.58206,23.039218 27.493757,23.131835 27.404355,23.223394 27.313875,23.313875 27.042434,23.585316 26.761284,23.847049 26.47099,24.098508 26.374226,24.182328 26.276445,24.265006 26.17767,24.346521 26.078895,24.428037&#xD;&#xA;25.979124,24.50839 25.87838,24.58756 25.777636,24.666729 25.675918,24.744715 25.573246,24.821497 25.470574,24.898279 25.36695,24.973856 25.262393,25.048209 25.157836,25.122561 25.052347,25.195688 24.945948,25.267568 24.839547,25.339449 24.732236,25.410083 24.624034,25.479451 24.515832,25.548818 24.40674,25.616918 24.29678,25.68373 24.186818,25.750541 24.075987,25.816065 23.964308,25.88028 23.852629,25.944494 23.740102,26.0074 23.626747,26.068976&#xD;&#xA;23.513392,26.130551 23.399209,26.190797 23.284221,26.249692 23.169231,26.308586 23.053436,26.36613 22.936855,26.422302 22.820274,26.478474 22.702908,26.533274 22.584776,26.586681 22.466645,26.640088 22.347749,26.692103 22.228109,26.742703 22.108469,26.793304 21.988086,26.842491 21.86698,26.890243 21.745874,26.937995 21.624045,26.984312 21.501514,27.029174 21.378983,27.074036 21.255751,27.117442 21.131837,27.159371 21.007924,27.201301 20.88333,27.241754&#xD;&#xA;20.758075,27.28071 20.632821,27.319665 20.506907,27.357123 20.380353,27.393063 20.2538,27.429002 20.126608,27.463423 19.998797,27.496305 19.870987,27.529187 19.742558,27.560529 19.613533,27.590311 19.484507,27.620093 19.354884,27.648315 19.224686,27.674955 19.094486,27.701595 18.963711,27.726655 18.832381,27.750112 18.701051,27.773568 18.569165,27.795423 18.436745,27.815655 18.304325,27.835886 18.17137,27.854495 18.037903,27.871459 17.904435,27.888423&#xD;&#xA;17.770454,27.903743 17.63598,27.917398 17.501507,27.931054 17.366541,27.943044 17.231103,27.953348 17.095666,27.963653 16.959757,27.972271 16.823397,27.979182 16.550678,27.993005 16.276156,28 16,28 15.861937,28 15.724283,27.998251 15.587058,27.994774 15.449833,27.991297 15.313037,27.986092 15.176691,27.979179 15.040345,27.972267 14.90445,27.963647 14.769025,27.953341 14.6336,27.943036 14.498647,27.931044 14.364185,27.917387&#xD;&#xA;14.229724,27.903729 14.095755,27.888407 13.962298,27.87144 13.828842,27.854473 13.695899,27.835862 13.563489,27.815628 13.43108,27.795393 13.299205,27.773535 13.167884,27.750074 13.036564,27.726614 12.905799,27.701551 12.775609,27.674906 12.64542,27.648262 12.515806,27.620036 12.38679,27.590249 12.257773,27.560462 12.129353,27.529115 12.001551,27.496228 11.87375,27.463341 11.746565,27.428914 11.62002,27.392969 11.493475,27.357024 11.367568,27.31956&#xD;&#xA;11.242322,27.280598 11.117075,27.241636 10.992489,27.201176 10.868583,27.159239 10.744677,27.117303 10.621451,27.073889 10.498928,27.02902 10.376404,26.984151 10.254582,26.937825 10.133483,26.890065 10.012384,26.842305 9.8920078,26.793109 9.7723751,26.7425 9.6527419,26.691891 9.5338531,26.639867 9.4157286,26.586451 9.2976036,26.533034 9.180244,26.478224 9.0636697,26.422042 8.9470954,26.365861 8.8313065,26.308307 8.7163243,26.249401 8.6013422,26.190496&#xD;&#xA;8.4871664,26.130239 8.3738184,26.068653 8.2604699,26.007066 8.1479497,25.944148 8.0362773,25.879922 7.9246054,25.815695 7.8137817,25.750159 7.7038269,25.683334 7.593873,25.61651 7.4847879,25.548397 7.3765945,25.479017 7.2683992,25.409636 7.1610956,25.338988 7.0547028,25.267094 6.9483109,25.195199 6.8428297,25.122058 6.7382803,25.047691 6.6337318,24.973325 6.5301151,24.897732 6.4274521,24.820935 6.324789,24.744138 6.2230787,24.666136 6.1223431,24.586951&#xD;&#xA;6.0216074,24.507765 5.9218464,24.427396 5.8230801,24.345863 5.7243137,24.264331 5.626543,24.181636 5.529789,24.097799 5.4330339,24.013962 5.3372955,23.928983 5.2425938,23.842884 5.147893,23.756783 5.0542288,23.669563 4.9616222,23.581242 4.8690166,23.492921 4.7774687,23.4035 4.6870003,23.313 L0,28 0,16 12,16 7.5150003,20.484 C7.6506882,20.619812 7.7896137,20.752383 7.9316521,20.881586 8.0736904,21.010789 8.2188411,21.136624 8.3669786,21.258967 8.4410477,21.320138 8.5158629,21.380436 8.5914097,21.439846 8.7425027,21.558665 8.8965197,21.673928 9.0533347,21.785511 9.2101502,21.897094 9.3697639,22.004996 9.5320497,22.109093 9.6943355,22.21319 9.8592939,22.31348 10.026799,22.40984 10.194304,22.5062 10.364356,22.598629 10.536829,22.687001 10.709302,22.775374 10.884196,22.85969&#xD;&#xA;11.061385,22.939825 11.327169,23.060027 11.598117,23.170821 11.873806,23.271783 11.965702,23.305437 12.058125,23.337999 12.151059,23.369453 12.336926,23.432361 12.524837,23.490836 12.714667,23.544755 12.809582,23.571714 12.904976,23.597534 13.000834,23.622199 13.096692,23.646863 13.193014,23.670373 13.289783,23.692713 13.386554,23.715052 13.483772,23.736221 13.581422,23.756203 13.776723,23.796168 13.973753,23.831388 14.172387,23.861737 14.271704,23.876912&#xD;&#xA;14.371422,23.890869 14.471525,23.903593 14.571628,23.916317 14.672117,23.927807 14.772974,23.938049 14.873833,23.94829 14.97506,23.957283 15.076641,23.965012 15.178222,23.97274 15.280157,23.979204 15.382431,23.984387 15.484703,23.989571 15.587315,23.993474 15.690248,23.996081 15.793182,23.998689 15.896438,24 16,24 16.103547,24 16.206788,23.998688 16.309706,23.99608 16.412625,23.993473 16.515222,23.989569 16.617482,23.984385&#xD;&#xA;16.719741,23.9792 16.821663,23.972736 16.923232,23.965006 17.0248,23.957277 17.126015,23.948284 17.226861,23.938041 17.327708,23.927798 17.428185,23.916306 17.528277,23.903582 17.62837,23.890857 17.728078,23.876899 17.827385,23.861723 17.926693,23.846548 18.0256,23.830154 18.124091,23.81256 18.222581,23.794965 18.320656,23.776168 18.418299,23.756186 18.515942,23.736203 18.613153,23.715034 18.709916,23.692695 18.806679,23.670356 18.902995,23.646847&#xD;&#xA;18.998848,23.622182 19.0947,23.597518 19.19009,23.5717 19.285,23.544742 19.47482,23.490827 19.662725,23.432356 19.848588,23.369455 19.941519,23.338004 20.03394,23.305446 20.125835,23.271796 20.40152,23.170847 20.67247,23.060071 20.93826,22.939894 21.115453,22.859776 21.290354,22.775479 21.462835,22.687129 21.635317,22.59878 21.805379,22.506377 21.972898,22.410047 22.140416,22.313717 22.30539,22.21346 22.467694,22.109402 22.629997,22.005343&#xD;&#xA;22.789631,21.897483 22.946468,21.785947 23.103306,21.674411 23.257348,21.5592 23.408468,21.440438 23.484028,21.381057 23.558857,21.320789 23.632941,21.259649 23.781108,21.137368 23.926291,21.0116 24.068363,20.882472 24.210436,20.753342 24.349399,20.620852 24.485125,20.485125 24.552988,20.417262 24.620043,20.348589 24.686272,20.279124 24.752501,20.209659 24.817906,20.1394 24.882471,20.068364 25.0116,19.926291 25.137368,19.781108 25.259649,19.632941&#xD;&#xA;25.443069,19.41069 25.618644,19.181725 25.785948,18.946468 26.009019,18.632793 26.217387,18.307935 26.410048,17.972898 26.554542,17.721621 26.690201,17.464618 26.816599,17.202314 26.942997,16.940011 27.060134,16.672407 27.167587,16.399926 27.239223,16.218272 27.306554,16.034451 27.369455,15.848588 27.400906,15.755656 27.431249,15.662214 27.460468,15.568277 27.489688,15.474341 27.517784,15.37991 27.544743,15.285 27.5717,15.190089 27.597518,15.0947&#xD;&#xA;27.622183,14.998848 27.646847,14.902995 27.670356,14.80668 27.692696,14.709916 27.715034,14.613153 27.736203,14.515942 27.756186,14.418299 27.776168,14.320656 27.794965,14.222581 27.812559,14.12409 27.830154,14.025599 27.846547,13.926693 27.861723,13.827385 27.876899,13.728078 27.890857,13.62837 27.903582,13.528277 27.916306,13.428185 27.927798,13.327708 27.938041,13.226862 27.948283,13.126016 27.957277,13.0248 27.965006,12.923231 27.972735,12.821663&#xD;&#xA;27.9792,12.719741 27.984385,12.617481 27.989569,12.515223 27.993473,12.412625 27.99608,12.309706 27.998689,12.206788 28,12.103547 28,12 28,11.888 27.998465,11.776358 27.995415,11.665096 27.992364,11.553831 27.987799,11.442947 27.981737,11.33246 27.975677,11.221973 27.968121,11.111883 27.959089,11.002213 27.950057,10.892542 27.93955,10.783289 27.927588,10.674475 27.915626,10.56566 27.902207,10.457283 27.887354,10.349363&#xD;&#xA;27.872501,10.241444 27.856212,10.133982 27.838508,10.026999 27.820803,9.9200134 27.801683,9.8135071 27.781168,9.7074986 27.760652,9.60149 27.73874,9.4959793 27.715453,9.3909836 27.692166,9.2859898 27.667503,9.1815128 27.641485,9.0775738 27.615466,8.9736347 27.588092,8.8702316 27.559381,8.7673874 27.530671,8.6645412 27.500625,8.562252 27.469263,8.4605408 27.437901,8.3588295 27.405222,8.2576962 27.371248,8.1571579 27.337274,8.0566216 27.302004,7.9566803&#xD;&#xA;27.265457,7.8573551 27.228911,7.7580318 27.191089,7.6593246 27.15201,7.5612526 27.112932,7.4631824 27.072598,7.3657475 27.031027,7.2689705 26.989456,7.1721916 26.946649,7.0760708 26.902625,6.9806252 26.858602,6.8851795 26.813362,6.790411 26.766926,6.6963387 26.72049,6.6022644 26.672857,6.5088882 26.624048,6.4162273 26.575239,6.3235664 26.525254,6.2316208 26.474112,6.1404133 26.42297,6.0492039 26.370671,5.9587307 26.317236,5.8690128 26.263802,5.7792969&#xD;&#xA;26.209229,5.6903343 26.153542,5.6021481 26.097853,5.5139637 26.041048,5.4265518 25.983147,5.3399372 25.925244,5.2533226 25.866246,5.1675034 25.806171,5.0824986 25.746096,4.9974957 25.684943,4.9133072 25.622734,4.8299522 25.560526,4.7465992 25.497259,4.6640816 25.432957,4.5824184 25.368654,4.5007553 25.303314,4.4199467 25.236958,4.3400135 25.170601,4.2600803 25.103227,4.1810226 25.034856,4.1028576 24.966485,4.0246944 24.897117,3.9474258 24.826771,3.8710728&#xD;&#xA;24.756426,3.7947178 24.685103,3.7192783 24.612824,3.6447735 24.540545,3.5702686 24.467308,3.4966984 24.393133,3.4240837 24.318959,3.3514671 24.243848,3.2798061 24.167819,3.2091179 24.09179,3.1384315 24.014844,3.068718 23.937,3 z" fill="#FFFFFF"/>
</svg>