<?xml version="1.0" encoding="UTF-8"?>
<svg xmlns="http://www.w3.org/2000/svg" width="32.000" height="32.000" viewBox="0 0 32.000 32.000">
  <title>CrownGenActivationMode.Default.Parameter</title>
  <path d="F1 M 15.353,9.888 L 10.059,9.888 L 6.365,4.847 C 6.712,4.349 6.918,3.745 6.918,3.091 C 6.918,1.387 5.540,0.000 3.836,0.000 C 2.132,0.000 0.754,1.387 0.754,3.091 C 0.754,4.795 2.132,6.173 3.836,6.173 C 4.322,6.173 4.776,6.051 5.185,5.851 L 9.043,11.117 C 9.054,11.132 9.071,11.137 9.082,11.150 C 9.135,11.213 9.198,11.263 9.268,11.307 C 9.294,11.323 9.316,11.345 9.344,11.358 C 9.443,11.404 9.550,11.433 9.667,11.433 L 15.353,11.433 C 15.780,11.433 16.126,11.087 16.126,10.661 C 16.126,10.234 15.780,9.888 15.353,9.888 Z" fill="#FFFFFF"/>
  <path d="F1 M 15.353,14.072 L 5.285,14.072 C 5.005,12.948 3.999,12.110 2.790,12.110 C 1.363,12.110 0.209,13.271 0.209,14.698 C 0.209,16.125 1.363,17.279 2.790,17.279 C 3.896,17.279 4.832,16.581 5.199,15.604 C 5.222,15.606 5.242,15.617 5.265,15.617 L 15.353,15.617 C 15.780,15.617 16.126,15.271 16.126,14.845 C 16.126,14.418 15.780,14.072 15.353,14.072 Z" fill="#FFFFFF"/>
  <path d="F1 M 15.431,19.132 L 8.222,19.132 C 8.147,19.132 8.080,19.155 8.011,19.175 C 7.711,18.344 6.925,17.746 5.992,17.746 C 4.800,17.746 3.836,18.716 3.836,19.908 C 3.836,21.100 4.800,22.064 5.992,22.064 C 6.927,22.064 7.714,21.467 8.013,20.635 C 8.081,20.655 8.148,20.678 8.222,20.678 L 15.431,20.678 C 15.857,20.678 16.203,20.331 16.203,19.905 C 16.203,19.478 15.857,19.132 15.431,19.132 Z" fill="#FFFFFF"/>
  <path d="F1 M 15.431,23.995 L 5.991,23.995 C 5.891,23.995 5.791,24.016 5.696,24.055 C 5.602,24.094 5.516,24.150 5.445,24.222 L 3.797,25.870 C 3.657,25.850 3.519,25.827 3.374,25.827 C 1.670,25.827 0.292,27.214 0.292,28.918 C 0.292,30.622 1.670,32.000 3.374,32.000 C 5.078,32.000 6.456,30.622 6.456,28.918 C 6.456,27.955 6.006,27.104 5.316,26.536 L 6.311,25.541 L 15.431,25.541 C 15.857,25.541 16.203,25.194 16.203,24.768 C 16.203,24.341 15.857,23.995 15.431,23.995 Z" fill="#FFFFFF"/>
  <path d="F1 M 31.445,9.602 L 31.407,9.640 L 30.700,10.347 L 29.993,9.640 L 27.534,7.181 L 25.074,9.640 L 24.367,10.347 L 23.660,9.640 L 22.360,8.340 L 21.653,7.633 L 22.360,6.925 L 24.819,4.466 L 23.253,2.900 C 22.963,3.084 22.689,3.299 22.433,3.510 C 21.713,4.101 21.106,4.815 20.525,5.539 C 19.549,6.756 18.587,8.045 17.239,8.830 C 16.646,9.174 16.045,9.353 15.431,9.448 L 15.431,26.987 C 15.486,26.967 15.541,26.948 15.596,26.930 C 16.496,26.620 17.400,26.320 18.319,26.069 C 19.402,25.773 20.508,25.547 21.629,25.466 C 23.388,25.339 25.152,25.570 26.901,25.800 C 27.575,25.888 28.207,26.174 28.456,25.401 C 28.716,24.591 28.976,23.782 29.235,22.972 C 29.485,22.193 29.735,21.413 29.987,20.634 C 31.109,17.158 32.216,14.087 31.628,10.315 C 31.589,10.064 31.525,9.831 31.445,9.602 Z" fill="#FFFFFF"/>
  <path d="F1 M 31.447,9.600 L 31.407,9.640 L 30.700,10.347 L 29.993,9.640 L 27.534,7.181 L 25.074,9.640 L 24.367,10.347 L 23.660,9.640 L 22.360,8.340 L 21.653,7.633 L 22.360,6.925 L 24.819,4.466 L 23.251,2.898 C 22.962,3.081 22.688,3.296 22.433,3.505 C 21.713,4.096 21.106,4.811 20.525,5.535 C 19.549,6.751 18.587,8.041 17.239,8.825 C 15.881,9.615 14.488,9.560 12.969,9.529 C 11.743,9.486 10.620,9.493 9.408,9.294 C 9.284,9.274 9.156,9.253 9.050,9.184 C 8.944,9.116 8.866,8.989 8.895,8.866 C 8.943,8.661 9.215,8.625 9.426,8.626 C 10.347,8.632 11.268,8.516 12.159,8.283 C 12.368,8.228 12.609,8.134 12.661,7.924 C 12.719,7.688 12.501,7.483 12.307,7.337 C 11.855,6.999 11.400,6.665 10.952,6.323 C 10.810,6.323 10.600,6.051 10.560,5.944 C 11.097,5.812 12.080,6.354 12.606,6.523 C 13.359,6.767 14.121,7.007 14.905,7.128 C 15.516,7.222 16.559,7.458 17.072,7.001 C 16.886,6.651 15.895,6.663 15.523,6.571 C 14.912,6.420 14.316,6.209 13.746,5.943 C 12.605,5.412 11.565,4.661 10.713,3.735 C 10.303,3.290 9.927,2.799 9.416,2.475 C 8.869,2.129 8.199,2.091 7.602,2.325 C 6.871,2.624 6.390,3.107 5.856,3.692 C 4.631,5.257 3.288,7.111 2.506,9.059 C 2.265,9.657 2.078,10.265 1.963,10.875 C 1.104,15.429 3.606,19.479 5.151,23.563 C 5.446,24.342 5.710,25.133 5.902,25.945 C 6.026,26.468 6.127,26.998 6.209,27.530 C 6.244,27.760 6.281,27.995 6.305,28.228 C 6.337,28.390 6.373,28.550 6.402,28.712 C 6.470,29.091 8.831,28.771 9.140,28.731 C 10.185,28.596 11.212,28.346 12.221,28.048 C 14.271,27.440 16.256,26.627 18.319,26.064 C 19.402,25.769 20.508,25.543 21.629,25.462 C 23.388,25.334 25.152,25.565 26.901,25.795 C 27.575,25.884 28.207,26.170 28.456,25.396 C 28.716,24.587 28.976,23.777 29.235,22.968 C 29.485,22.188 29.735,21.409 29.987,20.630 C 31.109,17.153 32.216,14.083 31.628,10.311 C 31.589,10.060 31.525,9.829 31.447,9.600 Z" fill="#FFFFFF"/>
  <path d="F1 M 27.534,5.767 L 30.700,8.933 L 32.000,7.633 L 28.834,4.466 L 32.000,1.300 L 30.700,0.000 L 27.534,3.166 L 24.367,0.000 L 23.067,1.300 L 26.233,4.466 L 23.067,7.633 L 24.367,8.933 L 27.534,5.767 Z" fill="#FFFFFF"/>
  <path d="F1 M 32.000,32.000 L 0.000,32.000 L 0.000,0.000 L 32.000,0.000 L 32.000,32.000 Z" fill="currentColor"/>
  <rect x="0" y="0" width="0" height="0" fill="none"/>
</svg>