<?xml version="1.0" encoding="UTF-8"?>
<svg xmlns="http://www.w3.org/2000/svg" width="30.852" height="30.850" viewBox="0 0 30.852 30.850">
  <title>CrownGenDoMaxDepth.true.parameter</title>
  <path d="F1 M 19.412,22.700 C 19.412,21.450 20.392,20.420 21.642,20.360 L 21.682,20.360 L 21.722,20.360 L 28.952,20.360 L 29.002,20.360 L 29.052,20.360 C 29.302,20.380 29.532,20.450 29.752,20.540 C 29.922,19.150 30.002,17.910 29.852,17.210 C 29.242,14.600 25.322,11.200 23.932,11.120 C 22.542,11.030 19.662,15.210 18.532,16.080 C 16.352,17.470 12.172,16.600 11.742,16.430 C 11.222,16.260 13.832,16.260 14.612,15.820 C 15.392,15.380 12.962,13.990 12.962,13.990 C 12.962,13.990 16.882,15.820 18.532,14.860 C 19.142,14.770 15.482,14.250 14.352,13.210 C 12.782,11.900 12.172,10.950 11.222,10.950 C 10.962,10.950 10.612,11.040 10.262,11.300 C 8.612,12.170 6.252,16.700 5.912,18.000 C 5.562,19.390 6.952,24.880 8.092,27.050 C 9.222,29.230 9.662,28.790 9.572,29.570 C 9.482,30.350 9.402,30.350 9.402,30.350 C 15.252,31.160 16.852,29.690 19.432,28.790 L 19.432,22.690 L 19.412,22.700 Z" fill="#FFFFFF"/>
  <path d="F1 M 22.322,3.460 L 25.242,5.910 L 29.242,0.000 L 30.852,1.160 L 25.592,8.960 L 21.042,5.000 L 22.322,3.460 Z" fill="#FFFFFF"/>
  <path d="F1 M 3.002,15.360 L 4.862,15.360 L 2.382,12.340 L 0.002,15.360 L 1.862,15.360 L 1.862,18.630 L 0.002,18.630 L 2.482,21.650 L 4.862,18.630 L 3.002,18.630 L 3.002,15.360 Z" fill="#FFFFFF"/>
  <path d="F1 M 23.842,24.140 L 24.662,24.140 L 26.262,28.410 L 25.322,28.410 L 25.022,27.530 L 23.482,27.530 L 23.192,28.410 L 22.252,28.410 C 22.252,28.410 23.842,24.140 23.842,24.140 Z M 27.072,24.140 L 27.952,24.140 L 27.952,28.410 L 27.072,28.410 L 27.072,24.140 Z M 28.862,30.850 C 29.442,30.850 29.922,30.380 29.922,29.790 L 29.922,22.700 C 29.922,22.140 29.492,21.700 28.942,21.660 L 21.712,21.660 C 21.152,21.690 20.712,22.140 20.712,22.700 L 20.712,29.790 C 20.712,30.370 21.182,30.850 21.772,30.850 L 28.862,30.850 Z" fill="#FFFFFF"/>
  <path d="F1 M 23.722,26.780 L 24.792,26.780 L 24.252,25.180 L 23.722,26.780 Z" fill="#FFFFFF"/>
  <path d="F1 M 21.552,2.820 L 22.192,2.050 L 22.962,2.690 L 23.972,3.530 C 23.872,2.610 23.722,1.600 23.542,0.620 L 0.752,0.620 C 0.212,2.660 -0.138,4.700 0.052,5.480 C 0.402,6.790 2.752,11.310 4.402,12.180 C 4.752,12.440 5.102,12.530 5.362,12.530 C 6.322,12.530 6.932,11.570 8.492,10.270 C 9.622,9.230 13.282,8.700 12.672,8.620 C 11.022,7.660 7.102,9.490 7.102,9.490 C 7.102,9.490 9.542,8.100 8.752,7.660 C 7.972,7.220 5.352,7.220 5.882,7.050 C 6.322,6.880 10.492,6.010 12.672,7.400 C 13.802,8.270 16.682,12.450 18.072,12.360 C 19.142,12.290 21.712,10.260 23.122,8.130 L 20.382,5.750 L 19.642,5.110 L 20.272,4.360 L 21.552,2.820 Z" fill="#FFFFFF"/>
</svg>