<?xml version="1.0" encoding="UTF-8"?>
<svg xmlns="http://www.w3.org/2000/svg" width="32.000" height="32.000" viewBox="0 0 32.000 32.000">
  <title>CrownGenActivationMode.AutomaticallyOnLoadOfProject.Parameter</title>
  <path d="F1 M 26.200,5.945 C 26.171,5.945 26.141,5.935 26.116,5.915 L 23.271,3.535 L 22.067,5.081 L 26.504,8.901 C 26.529,8.922 26.559,8.933 26.590,8.933 C 26.631,8.933 26.673,8.913 26.698,8.875 L 31.896,1.194 L 30.304,0.000 L 26.309,5.888 C 26.284,5.925 26.242,5.945 26.200,5.945 Z" fill="#FFFFFF"/>
  <path d="F1 M 15.249,9.888 L 9.954,9.888 L 6.261,4.847 C 6.608,4.349 6.813,3.745 6.813,3.091 C 6.813,1.387 5.435,0.000 3.731,0.000 C 2.027,0.000 0.649,1.387 0.649,3.091 C 0.649,4.795 2.027,6.173 3.731,6.173 C 4.218,6.173 4.672,6.051 5.081,5.851 L 8.939,11.118 C 8.950,11.132 8.966,11.137 8.978,11.150 C 9.030,11.213 9.093,11.263 9.164,11.307 C 9.190,11.323 9.212,11.345 9.240,11.358 C 9.338,11.404 9.446,11.434 9.562,11.434 L 15.249,11.434 C 15.676,11.434 16.022,11.088 16.022,10.661 C 16.022,10.234 15.676,9.888 15.249,9.888 Z" fill="#FFFFFF"/>
  <path d="F1 M 15.249,14.072 L 5.181,14.072 C 4.901,12.948 3.895,12.110 2.685,12.110 C 1.258,12.110 0.104,13.271 0.104,14.698 C 0.104,16.125 1.258,17.279 2.685,17.279 C 3.792,17.279 4.727,16.581 5.094,15.604 C 5.117,15.606 5.137,15.618 5.161,15.618 L 15.249,15.618 C 15.676,15.618 16.022,15.271 16.022,14.845 C 16.022,14.418 15.676,14.072 15.249,14.072 Z" fill="#FFFFFF"/>
  <path d="F1 M 15.326,19.132 L 8.118,19.132 C 8.043,19.132 7.975,19.155 7.907,19.174 C 7.607,18.344 6.821,17.745 5.887,17.745 C 4.695,17.745 3.731,18.716 3.731,19.908 C 3.731,21.100 4.695,22.064 5.887,22.064 C 6.823,22.064 7.610,21.467 7.909,20.635 C 7.977,20.655 8.044,20.677 8.118,20.677 L 15.326,20.677 C 15.753,20.677 16.099,20.331 16.099,19.905 C 16.099,19.478 15.753,19.132 15.326,19.132 Z" fill="#FFFFFF"/>
  <path d="F1 M 15.326,23.995 L 5.887,23.995 C 5.787,23.995 5.686,24.016 5.592,24.055 C 5.497,24.094 5.412,24.151 5.341,24.222 L 3.693,25.870 C 3.553,25.850 3.414,25.827 3.269,25.827 C 1.565,25.827 0.187,27.214 0.187,28.918 C 0.187,30.622 1.565,32.000 3.269,32.000 C 4.973,32.000 6.351,30.622 6.351,28.918 C 6.351,27.955 5.902,27.104 5.211,26.537 L 6.207,25.541 L 15.326,25.541 C 15.753,25.541 16.099,25.195 16.099,24.768 C 16.099,24.342 15.753,23.995 15.326,23.995 Z" fill="#FFFFFF"/>
  <path d="F1 M 31.146,9.104 L 31.125,9.059 C 30.780,8.324 30.282,7.638 29.810,7.017 C 29.697,6.869 29.571,6.732 29.453,6.588 L 27.527,9.435 C 27.316,9.747 26.966,9.933 26.590,9.933 C 26.319,9.933 26.056,9.835 25.852,9.659 L 21.415,5.839 L 20.694,5.218 L 20.694,5.218 C 20.584,5.351 20.528,5.401 20.421,5.534 C 19.445,6.751 18.483,8.041 17.134,8.825 C 15.777,9.615 14.383,9.560 12.865,9.529 C 11.639,9.486 10.516,9.493 9.303,9.294 C 9.179,9.274 9.051,9.253 8.946,9.184 C 8.840,9.116 8.762,8.989 8.790,8.867 C 8.839,8.661 9.111,8.625 9.322,8.626 C 10.242,8.631 11.164,8.516 12.055,8.283 C 12.264,8.228 12.505,8.134 12.557,7.924 C 12.615,7.688 12.397,7.483 12.202,7.337 C 11.751,6.999 11.296,6.665 10.847,6.323 C 10.705,6.323 10.495,6.052 10.456,5.944 C 10.993,5.812 11.976,6.354 12.502,6.523 C 13.255,6.766 14.016,7.007 14.801,7.128 C 15.412,7.222 16.455,7.458 16.968,7.001 C 16.782,6.650 15.791,6.663 15.418,6.571 C 14.808,6.420 14.212,6.209 13.641,5.943 C 12.501,5.411 11.461,4.661 10.608,3.735 C 10.199,3.290 9.822,2.799 9.312,2.475 C 8.765,2.128 8.095,2.092 7.498,2.325 C 6.767,2.624 6.286,3.107 5.752,3.692 C 4.526,5.257 3.184,7.111 2.401,9.059 C 2.161,9.658 1.973,10.265 1.858,10.875 C 0.999,15.429 3.502,19.479 5.047,23.563 C 5.341,24.342 5.606,25.134 5.798,25.945 C 5.921,26.469 6.023,26.998 6.104,27.530 C 6.140,27.761 6.177,27.995 6.200,28.228 C 6.233,28.389 6.268,28.550 6.298,28.712 C 6.366,29.091 8.727,28.771 9.035,28.731 C 10.081,28.596 11.108,28.347 12.117,28.047 C 14.167,27.440 16.151,26.627 18.215,26.064 C 19.298,25.769 20.403,25.543 21.525,25.462 C 23.284,25.335 25.048,25.565 26.797,25.795 C 27.471,25.884 28.103,26.170 28.352,25.396 C 28.612,24.587 28.871,23.777 29.131,22.968 C 29.381,22.188 29.631,21.409 29.882,20.630 C 31.004,17.153 32.112,14.083 31.524,10.311 C 31.457,9.880 31.335,9.507 31.146,9.104 Z" fill="#FFFFFF"/>
  <path d="F1 M 31.146,9.108 L 31.125,9.064 C 30.780,8.328 30.282,7.642 29.810,7.022 C 29.697,6.873 29.570,6.736 29.451,6.591 L 27.527,9.435 C 27.316,9.747 26.966,9.933 26.590,9.933 C 26.319,9.933 26.056,9.835 25.852,9.659 L 21.415,5.839 L 20.694,5.218 L 20.694,5.218 C 20.598,5.334 20.515,5.422 20.421,5.539 C 19.445,6.756 18.483,8.045 17.134,8.829 C 16.541,9.174 15.941,9.353 15.327,9.448 L 15.327,26.986 C 15.382,26.967 15.437,26.949 15.491,26.930 C 16.392,26.620 17.296,26.319 18.215,26.069 C 19.298,25.773 20.403,25.547 21.525,25.466 C 23.284,25.339 25.048,25.570 26.797,25.800 C 27.471,25.888 28.103,26.174 28.352,25.401 C 28.612,24.591 28.871,23.782 29.131,22.972 C 29.381,22.193 29.631,21.413 29.882,20.634 C 31.004,17.158 32.112,14.087 31.524,10.315 C 31.457,9.885 31.335,9.511 31.146,9.108 Z" fill="#FFFFFF"/>
  <path d="F1 M 32.000,32.000 L 0.000,32.000 L 0.000,0.000 L 32.000,0.000 L 32.000,32.000 Z" fill="currentColor"/>
  <rect x="0" y="0" width="0" height="0" fill="none"/>
</svg>