<?xml version="1.0" encoding="UTF-8"?>
<svg xmlns="http://www.w3.org/2000/svg" width="30.900" height="30.850" viewBox="0 0 30.900 30.850">
  <title>CrownGenDoMaxDepth.false.parameter</title>
  <path d="F1 M 19.410,22.700 C 19.410,21.450 20.390,20.420 21.640,20.360 L 21.680,20.360 L 21.720,20.360 L 28.950,20.360 L 29.000,20.360 L 29.050,20.360 C 29.300,20.380 29.530,20.450 29.750,20.540 C 29.920,19.150 30.000,17.910 29.850,17.210 C 29.240,14.600 25.320,11.200 23.930,11.120 C 22.540,11.030 19.660,15.210 18.530,16.080 C 16.350,17.470 12.170,16.600 11.740,16.430 C 11.220,16.260 13.830,16.260 14.610,15.820 C 15.390,15.380 12.960,13.990 12.960,13.990 C 12.960,13.990 16.880,15.820 18.530,14.860 C 19.140,14.770 15.480,14.250 14.350,13.210 C 12.780,11.900 12.170,10.950 11.220,10.950 C 10.960,10.950 10.610,11.040 10.260,11.300 C 8.610,12.170 6.250,16.700 5.910,18.000 C 5.560,19.390 6.950,24.880 8.090,27.050 C 9.220,29.230 9.660,28.790 9.570,29.570 C 9.480,30.350 9.400,30.350 9.400,30.350 C 15.250,31.160 16.850,29.690 19.430,28.790 L 19.430,22.690 L 19.410,22.700 Z" fill="#FFFFFF"/>
  <path d="F1 M 3.000,15.360 L 4.860,15.360 L 2.380,12.340 L 0.000,15.360 L 1.860,15.360 L 1.860,18.630 L 0.000,18.630 L 2.480,21.650 L 4.860,18.630 L 3.000,18.630 L 3.000,15.360 Z" fill="#FFFFFF"/>
  <path d="F1 M 23.840,24.140 L 24.660,24.140 L 26.260,28.410 L 25.320,28.410 L 25.020,27.530 L 23.480,27.530 L 23.190,28.410 L 22.250,28.410 C 22.250,28.410 23.840,24.140 23.840,24.140 Z M 27.070,24.140 L 27.950,24.140 L 27.950,28.410 L 27.070,28.410 L 27.070,24.140 Z M 28.860,30.850 C 29.440,30.850 29.920,30.380 29.920,29.790 L 29.920,22.700 C 29.920,22.140 29.490,21.700 28.940,21.660 L 21.710,21.660 C 21.150,21.690 20.710,22.140 20.710,22.700 L 20.710,29.790 C 20.710,30.370 21.180,30.850 21.770,30.850 L 28.860,30.850 Z" fill="#FFFFFF"/>
  <path d="F1 M 23.720,26.780 L 24.790,26.780 L 24.250,25.180 L 23.720,26.780 Z" fill="#FFFFFF"/>
  <path d="F1 M 30.900,1.320 L 29.590,0.000 L 26.430,3.160 L 23.270,0.000 L 21.950,1.320 L 25.110,4.480 L 21.950,7.640 L 23.270,8.950 L 26.430,5.790 L 29.590,8.950 L 30.900,7.640 L 27.740,4.480 L 30.900,1.320 Z" fill="#FFFFFF"/>
  <path d="F1 M 21.250,8.350 L 20.540,7.640 L 21.250,6.930 L 23.710,4.470 L 21.250,2.010 L 20.540,1.300 L 21.230,0.610 L 0.750,0.610 C 0.620,1.120 0.490,1.620 0.390,2.110 C 0.390,2.120 0.390,2.130 0.390,2.140 C 0.340,2.350 0.300,2.560 0.260,2.770 C 0.260,2.820 0.240,2.870 0.230,2.920 C 0.200,3.080 0.170,3.240 0.150,3.400 C 0.140,3.470 0.130,3.530 0.120,3.600 C 0.100,3.730 0.090,3.860 0.070,3.980 C 0.070,4.060 0.050,4.130 0.040,4.200 C 0.030,4.300 0.020,4.400 0.020,4.500 C 0.020,4.570 0.010,4.650 0.010,4.720 C 0.010,4.810 0.010,4.890 0.010,4.960 C 0.010,5.020 0.010,5.090 0.010,5.140 C 0.010,5.240 0.030,5.310 0.040,5.390 C 0.040,5.410 0.040,5.440 0.050,5.470 C 0.400,6.780 2.750,11.300 4.400,12.170 C 4.750,12.430 5.100,12.520 5.360,12.520 L 5.360,12.520 L 5.360,12.520 C 6.320,12.520 6.930,11.560 8.490,10.260 C 9.620,9.220 13.280,8.690 12.670,8.610 C 12.280,8.380 11.750,8.320 11.190,8.340 C 9.390,8.420 7.130,9.470 7.100,9.480 C 7.130,9.460 9.530,8.090 8.750,7.650 C 7.970,7.210 5.350,7.210 5.880,7.040 C 6.120,6.940 7.550,6.620 9.150,6.610 C 10.390,6.610 11.720,6.780 12.680,7.390 C 13.810,8.260 16.690,12.440 18.080,12.350 L 18.080,12.350 L 18.080,12.350 C 18.200,12.350 18.350,12.300 18.500,12.250 C 18.530,12.240 18.570,12.230 18.600,12.210 C 18.760,12.150 18.930,12.070 19.120,11.960 C 19.120,11.960 19.130,11.960 19.140,11.950 C 19.330,11.840 19.530,11.710 19.730,11.570 C 19.760,11.550 19.780,11.530 19.810,11.510 C 20.600,10.950 21.470,10.170 22.220,9.300 L 21.250,8.330 L 21.250,8.350 Z" fill="#FFFFFF"/>
</svg>