<?xml version="1.0" encoding="UTF-8"?>
<svg xmlns="http://www.w3.org/2000/svg" width="32.000" height="32.000" viewBox="0 0 32.000 32.000">
  <title>CrownGenActivationMode.InWizardUseMustClick.Parameter</title>
  <path d="F1 M 26.305,5.945 C 26.275,5.945 26.245,5.935 26.220,5.915 L 23.375,3.535 L 22.172,5.081 L 26.608,8.901 C 26.633,8.922 26.664,8.933 26.694,8.933 C 26.736,8.933 26.777,8.913 26.803,8.875 L 32.000,1.194 L 30.408,0.000 L 26.413,5.888 C 26.388,5.925 26.346,5.945 26.305,5.945 Z" fill="#FFFFFF"/>
  <path d="F1 M 15.353,9.888 L 10.059,9.888 L 6.365,4.847 C 6.712,4.349 6.918,3.745 6.918,3.091 C 6.918,1.387 5.540,0.000 3.836,0.000 C 2.132,0.000 0.754,1.387 0.754,3.091 C 0.754,4.795 2.132,6.173 3.836,6.173 C 4.322,6.173 4.776,6.051 5.185,5.851 L 9.043,11.117 C 9.054,11.132 9.071,11.137 9.082,11.150 C 9.135,11.213 9.198,11.263 9.268,11.307 C 9.294,11.323 9.316,11.345 9.344,11.358 C 9.443,11.404 9.550,11.433 9.667,11.433 L 15.353,11.433 C 15.780,11.433 16.126,11.087 16.126,10.661 C 16.126,10.234 15.780,9.888 15.353,9.888 Z" fill="#FFFFFF"/>
  <path d="F1 M 15.353,14.072 L 5.285,14.072 C 5.005,12.948 3.999,12.110 2.790,12.110 C 1.363,12.110 0.209,13.271 0.209,14.698 C 0.209,16.125 1.363,17.279 2.790,17.279 C 3.896,17.279 4.832,16.581 5.199,15.604 C 5.222,15.606 5.242,15.617 5.265,15.617 L 15.353,15.617 C 15.780,15.617 16.126,15.271 16.126,14.845 C 16.126,14.418 15.780,14.072 15.353,14.072 Z" fill="#FFFFFF"/>
  <path d="F1 M 15.431,19.132 L 8.222,19.132 C 8.147,19.132 8.080,19.155 8.011,19.175 C 7.711,18.344 6.925,17.746 5.992,17.746 C 4.800,17.746 3.836,18.716 3.836,19.908 C 3.836,21.100 4.800,22.064 5.992,22.064 C 6.927,22.064 7.714,21.467 8.013,20.635 C 8.081,20.655 8.148,20.678 8.222,20.678 L 15.431,20.678 C 15.857,20.678 16.203,20.331 16.203,19.905 C 16.203,19.478 15.857,19.132 15.431,19.132 Z" fill="#FFFFFF"/>
  <path d="F1 M 15.431,23.995 L 5.991,23.995 C 5.891,23.995 5.791,24.016 5.696,24.055 C 5.602,24.094 5.516,24.150 5.445,24.222 L 3.797,25.870 C 3.657,25.850 3.519,25.827 3.374,25.827 C 1.670,25.827 0.292,27.214 0.292,28.918 C 0.292,30.622 1.670,32.000 3.374,32.000 C 5.078,32.000 6.456,30.622 6.456,28.918 C 6.456,27.955 6.006,27.104 5.316,26.536 L 6.311,25.541 L 15.431,25.541 C 15.857,25.541 16.203,25.194 16.203,24.768 C 16.203,24.341 15.857,23.995 15.431,23.995 Z" fill="#FFFFFF"/>
  <path d="F1 M 23.290,19.818 L 21.315,19.712 L 20.044,19.644 L 19.392,20.733 L 18.175,22.765 L 17.567,20.476 L 17.242,19.250 L 16.005,18.966 L 15.431,18.834 L 15.431,26.987 C 15.486,26.967 15.541,26.948 15.596,26.930 C 16.249,26.705 16.905,26.493 17.566,26.293 L 23.186,19.936 L 23.290,19.818 Z" fill="#FFFFFF"/>
  <path d="F1 M 15.685,17.152 L 16.755,16.458 L 16.642,15.197 L 16.431,12.834 L 18.270,14.332 L 19.254,15.134 L 20.416,14.641 L 22.581,13.723 L 21.741,15.919 L 21.290,17.097 L 21.437,17.267 L 22.094,16.904 L 23.458,16.151 L 23.430,14.593 L 23.387,12.232 L 25.112,13.845 L 26.251,14.909 L 27.718,14.404 L 29.948,13.637 L 28.949,15.773 L 28.293,17.177 L 29.234,18.422 L 30.262,19.784 C 31.279,16.649 32.168,13.775 31.628,10.315 C 31.561,9.885 31.439,9.511 31.250,9.108 L 31.229,9.064 C 30.885,8.328 30.386,7.643 29.914,7.021 C 29.801,6.873 29.674,6.736 29.556,6.591 L 27.631,9.435 C 27.420,9.747 27.070,9.933 26.694,9.933 C 26.423,9.933 26.161,9.835 25.956,9.659 L 21.519,5.839 L 20.798,5.219 L 20.798,5.219 C 20.702,5.336 20.620,5.421 20.525,5.539 C 19.549,6.756 18.587,8.045 17.239,8.830 C 16.646,9.174 16.045,9.353 15.431,9.448 L 15.431,17.317 L 15.685,17.152 Z" fill="#FFFFFF"/>
  <path d="F1 M 23.186,19.936 L 23.290,19.818 L 21.315,19.712 L 20.044,19.644 L 19.392,20.733 L 18.175,22.765 L 17.567,20.476 L 17.242,19.250 L 16.005,18.966 L 13.702,18.438 L 15.685,17.152 L 16.755,16.458 L 16.642,15.197 L 16.431,12.834 L 18.270,14.332 L 19.254,15.134 L 20.416,14.641 L 22.581,13.723 L 21.741,15.919 L 21.290,17.097 L 21.437,17.267 L 22.094,16.904 L 23.458,16.151 L 23.430,14.593 L 23.387,12.232 L 25.112,13.845 L 26.251,14.909 L 27.718,14.404 L 29.948,13.637 L 28.949,15.773 L 28.293,17.177 L 29.234,18.422 L 30.261,19.782 C 31.278,16.646 32.168,13.772 31.628,10.311 C 31.561,9.880 31.439,9.507 31.250,9.104 L 31.229,9.059 C 30.885,8.324 30.386,7.638 29.914,7.017 C 29.801,6.869 29.675,6.732 29.557,6.588 L 27.631,9.435 C 27.420,9.747 27.070,9.933 26.694,9.933 C 26.423,9.933 26.161,9.835 25.956,9.659 L 21.519,5.839 L 20.798,5.219 L 20.798,5.219 C 20.688,5.352 20.633,5.400 20.525,5.535 C 19.549,6.751 18.587,8.041 17.239,8.825 C 15.882,9.615 14.488,9.560 12.969,9.529 C 11.743,9.486 10.620,9.493 9.408,9.294 C 9.284,9.274 9.156,9.253 9.050,9.184 C 8.944,9.116 8.866,8.989 8.895,8.866 C 8.943,8.661 9.215,8.625 9.426,8.626 C 10.347,8.632 11.268,8.516 12.159,8.283 C 12.368,8.228 12.609,8.134 12.661,7.924 C 12.719,7.688 12.501,7.483 12.307,7.337 C 11.855,6.999 11.400,6.665 10.952,6.323 C 10.810,6.323 10.600,6.051 10.560,5.944 C 11.097,5.812 12.080,6.354 12.606,6.523 C 13.359,6.767 14.121,7.007 14.905,7.128 C 15.516,7.222 16.559,7.458 17.072,7.001 C 16.886,6.651 15.895,6.663 15.523,6.571 C 14.912,6.420 14.316,6.209 13.746,5.943 C 12.605,5.412 11.565,4.661 10.713,3.735 C 10.303,3.290 9.927,2.799 9.416,2.475 C 8.869,2.129 8.200,2.091 7.602,2.325 C 6.871,2.624 6.390,3.107 5.856,3.692 C 4.631,5.257 3.288,7.111 2.506,9.059 C 2.265,9.657 2.078,10.265 1.963,10.875 C 1.104,15.429 3.606,19.479 5.151,23.563 C 5.446,24.342 5.710,25.133 5.902,25.945 C 6.026,26.468 6.127,26.998 6.209,27.530 C 6.244,27.760 6.281,27.995 6.305,28.228 C 6.337,28.390 6.373,28.550 6.402,28.712 C 6.470,29.091 8.831,28.771 9.140,28.731 C 10.185,28.596 11.212,28.346 12.221,28.048 C 14.021,27.514 15.773,26.832 17.569,26.290 L 23.186,19.936 Z" fill="#FFFFFF"/>
  <path d="F1 M 24.070,21.210 L 22.103,23.371 L 23.044,24.186 L 24.944,21.933 L 24.070,21.210 Z M 17.157,32.000 L 17.157,32.000 L 15.271,30.400 L 23.935,20.598 L 25.605,21.949 L 17.158,32.000 L 17.157,32.000 Z" fill="#fffeff"/>
  <path d="F1 M 28.436,19.025 L 27.132,17.299 L 28.043,15.350 L 26.008,16.050 L 24.430,14.575 L 24.469,16.735 L 22.577,17.779 L 24.646,18.409 L 25.055,20.531 L 26.291,18.759 L 28.436,19.025 Z" fill="#fffeff"/>
  <path d="F1 M 21.369,18.714 L 20.141,17.300 L 20.807,15.562 L 19.089,16.290 L 17.638,15.108 L 17.805,16.970 L 16.229,17.991 L 18.053,18.410 L 18.534,20.220 L 19.496,18.613 L 21.369,18.714 Z" fill="#fffeff"/>
  <path d="F1 M 32.000,23.375 L 30.929,22.145 L 31.512,20.627 L 30.015,21.262 L 28.749,20.233 L 28.892,21.858 L 27.523,22.744 L 29.113,23.109 L 29.532,24.686 L 30.369,23.286 L 32.000,23.375 Z" fill="#fffeff"/>
  <path d="F1 M 29.878,28.938 L 28.973,27.894 L 29.467,26.612 L 28.202,27.149 L 27.129,26.281 L 27.252,27.653 L 26.097,28.406 L 27.441,28.714 L 27.795,30.047 L 28.501,28.860 L 29.878,28.938 Z" fill="#fffeff"/>
  <path d="F1 M 32.000,32.000 L 0.000,32.000 L 0.000,0.000 L 32.000,0.000 L 32.000,32.000 Z" fill="currentColor"/>
  <rect x="0" y="0" width="0" height="0" fill="none"/>
</svg>