<?xml version="1.0" encoding="UTF-8"?>
<svg xmlns="http://www.w3.org/2000/svg" width="32.000" height="32.000" viewBox="0 0 32.000 32.000">
  <title>DentureImplantType.BallAttachment.Parameter</title>
  <path d="F1 M 32.000,32.000 L 0.000,32.000 L 0.000,0.000 L 32.000,0.000 L 32.000,32.000 Z" fill="#ffffff"/>
  <path d="F1 M 27.995,21.552 C 26.230,23.846 21.539,25.494 16.000,25.518 C 10.461,25.494 5.770,23.846 4.005,21.552 C 3.995,21.545 3.983,21.538 3.973,21.530 L 3.973,24.194 C 3.973,27.973 9.358,31.037 16.000,31.037 C 22.642,31.037 28.027,27.973 28.027,24.194 L 28.027,21.530 C 28.017,21.538 28.005,21.545 27.995,21.552 Z" fill="#ffffff"/>
  <path d="F1 M 23.256,13.742 C 23.073,16.402 20.021,18.380 16.001,18.380 C 11.980,18.380 8.928,16.402 8.745,13.742 C 5.920,14.759 4.091,16.351 4.091,18.146 C 4.091,21.218 9.423,23.708 16.000,23.708 C 22.577,23.708 27.909,21.218 27.909,18.146 C 27.909,16.351 26.081,14.759 23.256,13.742 Z" fill="#ffffff"/>
  <path d="F1 M 16.001,14.202 C 13.994,14.202 12.083,13.623 10.544,12.584 L 10.544,13.492 C 10.544,15.188 13.019,16.563 16.000,16.563 C 18.981,16.563 21.456,15.188 21.456,13.492 L 21.456,12.573 C 19.912,13.613 17.988,14.202 16.001,14.202 Z" fill="#ffffff"/>
  <path d="F1 M 15.980,6.062 C 18.375,6.062 20.316,5.046 20.316,3.793 C 20.316,2.540 18.375,1.525 15.980,1.525 C 13.586,1.525 11.645,2.540 11.645,3.793 C 11.645,5.046 13.586,6.062 15.980,6.062 Z" fill="#ffffff"/>
  <path d="F1 M 15.980,6.062 C 13.586,6.062 11.645,5.046 11.645,3.793 C 11.645,2.540 13.586,1.525 15.980,1.525 C 18.375,1.525 20.316,2.540 20.316,3.793 C 20.316,5.046 18.375,6.062 15.980,6.062 Z M 16.001,0.963 C 12.114,0.963 8.962,3.533 8.962,6.703 C 8.962,8.051 9.536,9.288 10.490,10.268 C 11.779,11.592 13.766,12.443 16.001,12.443 C 18.092,12.443 19.964,11.695 21.253,10.515 C 22.361,9.501 23.039,8.168 23.039,6.703 C 23.039,3.533 19.888,0.963 16.001,0.963 Z" fill="#ffffff"/>
</svg>