<?xml version="1.0" encoding="UTF-8"?>
<svg xmlns="http://www.w3.org/2000/svg" width="32.000" height="32.000" viewBox="0 0 32.000 32.000">
  <title>ImplantType.CustomAbutmentManual.AbutmentCutScrewChannelAlsoThroughSuperstructureMode.EnabledByDefault</title>
  <path d="F1 M 27.920,14.083 C 27.890,13.874 27.849,13.664 27.775,13.464 C 26.768,10.735 22.521,7.093 20.991,7.126 C 20.359,7.140 19.289,8.012 18.226,9.045 L 15.553,14.787 C 15.419,14.957 14.825,15.595 13.453,15.595 C 12.932,15.595 12.298,15.503 11.534,15.258 C 9.115,14.481 8.554,13.575 8.435,13.103 L 8.348,12.759 L 9.910,9.396 C 7.798,7.678 7.195,6.801 6.180,6.829 C 4.583,6.732 0.051,11.654 0.001,15.688 C -0.016,17.055 0.347,18.433 0.729,19.741 C 1.176,21.271 1.728,22.773 2.322,24.256 C 2.824,25.509 3.250,26.843 3.990,28.010 C 4.815,29.312 6.031,30.188 7.490,30.781 C 9.800,31.719 12.371,32.000 14.863,32.000 C 17.996,32.000 21.364,31.507 24.009,29.797 C 24.416,29.535 24.752,29.244 25.033,28.926 C 25.743,28.124 26.098,27.153 26.344,26.040 C 26.635,24.719 26.907,23.394 27.152,22.065 C 27.425,20.584 27.669,19.096 27.832,17.600 C 27.958,16.447 28.088,15.239 27.920,14.083 Z" fill="#FFFFFF"/>
  <path d="F1 M 17.911,0.394 C 18.996,0.540 19.830,0.999 19.774,1.421 C 19.718,1.843 18.793,2.067 17.708,1.922 C 16.622,1.777 15.788,1.317 15.844,0.896 C 15.900,0.474 16.826,0.249 17.911,0.394 Z M 11.840,14.306 C 14.091,15.028 14.767,14.169 14.767,14.169 L 20.538,1.712 L 20.559,1.666 C 20.580,1.624 20.599,1.582 20.604,1.534 C 20.685,0.934 19.500,0.278 17.955,0.073 C 16.409,-0.133 15.094,0.186 15.013,0.786 L 9.405,12.859 C 9.405,12.859 9.588,13.583 11.840,14.306 Z" fill="#FFFFFF"/>
  <path d="F1 M 26.305,5.945 C 26.275,5.945 26.245,5.935 26.220,5.915 L 23.375,3.535 L 22.172,5.081 L 26.608,8.901 C 26.633,8.922 26.664,8.933 26.694,8.933 C 26.736,8.933 26.777,8.913 26.803,8.875 L 32.000,1.194 L 30.408,0.000 L 26.413,5.888 C 26.388,5.925 26.346,5.945 26.305,5.945 Z" fill="#FFFFFF"/>
  <path d="F1 M 32.000,32.000 L 0.000,32.000 L 0.000,0.000 L 32.000,0.000 L 32.000,32.000 Z" fill="currentColor"/>
  <rect x="0" y="0" width="0" height="0" fill="none"/>
</svg>