<?xml version="1.0" encoding="UTF-8"?>
<svg xmlns="http://www.w3.org/2000/svg" width="32" height="32" viewBox="0 0 32 32">
  <title>ImplantType.WithoutAbutment.Parameter</title>
  <path d="m 1469.2559 -578.32031 c -0.4126 0 -0.8599 0.10732 -1.4161 0.40039 -2.2245 1.17093 -5.4773 7.33887 -5.9609 9.23047 -0.4836 1.8916 1.433 9.42004 2.9805 12.39257 1.5474 2.97267 6.5205 4.87624 6.4238 5.95704 5.4735 2.14826 10.69 1.87333 15.7344 -0.14454 0.6304 -3.06279 0.7873 -3.2957 2.6172 -5.30664 0.7062 -1.5928 5.6125 -11.00881 4.9882 -13.84375 -0.7737 -3.51306 -6.171 -8.19502 -8.1054 -8.28515 -1.9343 -0.0893 -5.8521 5.67883 -7.3028 6.75976 -3.0237 1.84534 -8.6629 0.74293 -9.3398 0.47266 -0.6771 -0.27027 2.8971 -0.29567 3.9609 -0.83594 1.0639 -0.54053 -2.2539 -2.50781 -2.2539 -2.50781 0 0 0.9518 0.58313 2.6206 1.03784 -0.2534 -0.50546 -0.257 -1.01091 0.079 -1.51636 -0.2868 -0.15505 -0.5384 -0.32385 -0.7363 -0.5039 -2.1761 -2.02667 -3.0513 -3.29398 -4.289 -3.30664 z" fill="#FFFFFF" stroke-width="0.27437931"/>
  <path d="m 1103.448 1253.9988 c 4.8449 -1.667 8.401 -1.2854 11.6678 0.1376 l -1.0293 -3.6837 c -2.5923 -1.4282 -6.1937 -2.3256 -9.5593 -0.1542 z" fill="#FFFFFF" stroke-width="0.87218076"/>
  <path d="m 1472.7168 -543.36914 -0.094 4.19922 4.0169 2.2081 7.1257 -0.77451 1.4336 -0.66211 0.1055 -4.95508 c -3.6869 1.84005 -8.2105 2.61759 -12.5879 -0.0156 z" fill="#FFFFFF" stroke-width="1.24810767"/>
  <path d="m 1483.625 -542.61523 c -2.1933 0.82756 -4.6033 1.20714 -7.0586 0.73632 v 4.00586 l 0.082 0.86704 6.9766 -0.73032 z" fill="#FFFFFF" stroke-width="1.24810755"/>
  <path d="m 1107.3177 1284.4386 c 0.7734 -0.3188 4.2773 -0.318 4.0156 0.7001 l 0.175 0.1339 c 0 0 1.1428 -0.2677 0.5251 -0.7619 -0.6178 -0.4943 -3.9023 -0.8652 -4.9422 -0.6487 -1.4337 0.2986 0.2027 0.5766 0.2265 0.5766 z" fill="#FFFFFF" stroke-width="0.05032952"/>
  <path d="m 1107.3178 1283.12 c 0.7734 -0.3187 4.2772 -0.318 4.0154 0.7002 l 0.1751 0.1339 c 0 0 1.1429 -0.2677 0.5251 -0.762 -0.6177 -0.4942 -3.9023 -0.8652 -4.9422 -0.6486 -1.4337 0.2985 0.2027 0.5765 0.2266 0.5765 z" fill="#FFFFFF" stroke-width="0.05032952"/>
  <path d="m 1107.1165 1285.669 c -0.1195 -0.6587 2.78 -0.2677 4.0053 -0.1854 0 0 -3.4151 -0.7172 -4.5303 -0.1441 -0.366 0.1881 0.525 0.3295 0.525 0.3295 z" fill="#FFFFFF" stroke-width="0.21331269"/>
  <path d="m 1109.0148 1291.5399 c -1.5665 0 -2.8365 -0.2387 -2.8365 -0.5344 0 -0.2957 1.27 -0.5345 2.8365 -0.5345 1.5666 0 2.8366 0.2388 2.8366 0.5345 0 0.2957 -1.27 0.5344 -2.8366 0.5344 z m 0 -0.2261 c 1.1228 0 2.035 -0.1211 2.035 -0.2774 0 -0.1564 -0.9122 -0.2878 -2.035 -0.2878 -1.1226 0 -2.0246 0.1314 -2.0246 0.2878 0 0.1563 0.902 0.2774 2.0246 0.2774 z" fill="#FFFFFF" stroke-width="0.43729097"/>
  <path d="m 1105.8838 1290.7149 c 0.5136 -0.9805 6.5958 -0.6516 6.2863 0.078 l -0.098 -4.423 c -1.2015 -0.8275 -5.1911 -0.8261 -5.9935 0.1172 z" fill="#FFFFFF" stroke-width="0.29868802"/>
  <path d="m 1107.3178 1281.8015 c 0.7734 -0.3187 4.2772 -0.318 4.0154 0.7002 l 0.1751 0.1339 c 0 0 1.1429 -0.2677 0.5251 -0.762 -0.6177 -0.4942 -3.9023 -0.8652 -4.9422 -0.6486 -1.4337 0.2985 0.2027 0.5765 0.2266 0.5765 z" fill="#FFFFFF" stroke-width="0.05032952"/>
  <path d="m 1107.3178 1280.4829 c 0.7734 -0.3187 4.2772 -0.318 4.0154 0.7002 l 0.1751 0.1339 c 0 0 1.1429 -0.2677 0.5251 -0.762 -0.6177 -0.4942 -3.9023 -0.8652 -4.9422 -0.6486 -1.4337 0.2985 0.2027 0.5765 0.2266 0.5765 z" fill="#FFFFFF" stroke-width="0.05032952"/>
  <path d="m 1107.3178 1279.1644 c 0.7734 -0.3187 4.2772 -0.318 4.0154 0.7002 l 0.1751 0.1339 c 0 0 1.1429 -0.2677 0.5251 -0.762 -0.6177 -0.4942 -3.9023 -0.8652 -4.9422 -0.6486 -1.4337 0.2985 0.2027 0.5765 0.2266 0.5765 z" fill="#FFFFFF" stroke-width="0.05032952"/>
  <path d="m 1107.3178 1277.8458 c 0.7734 -0.3187 4.2772 -0.318 4.0154 0.7002 l 0.1751 0.1339 c 0 0 1.1429 -0.2677 0.5251 -0.762 -0.6177 -0.4942 -3.9023 -0.8652 -4.9422 -0.6486 -1.4337 0.2985 0.2027 0.5765 0.2266 0.5765 z" fill="#FFFFFF" stroke-width="0.05032952"/>
</svg>