<?xml version="1.0" encoding="UTF-8"?>
<svg xmlns="http://www.w3.org/2000/svg" width="32" height="32" viewBox="0 0 32 32">
  <title>ImplantType.AnyImplantAbutment.Parameter</title>
  <path d="M36.590363,104.09839 C37.492493,104.18359 38.409515,104.24597 39.336945,104.28589 38.417206,104.24683 37.499878,104.18445 36.590363,104.09839 z M50.594269,103.58716 C49.705933,103.74023 48.798187,103.86951 47.876984,103.97681 48.792938,103.87073 49.699829,103.74023 50.594269,103.58716 z M55.986359,102.32288 C55.19101,102.56213 54.376038,102.78259 53.54007,102.98218 54.372681,102.78296 55.189026,102.56287 55.986359,102.32288 z M61.105988,100.39075 C60.362518,100.73914 59.589996,101.06812 58.79007,101.37512 59.591095,101.06763 60.363129,100.73877 61.105988,100.39075 z M15.939117,96.327881 L16.675781,96.965942 C16.420227,96.757202 16.175629,96.544312 15.939392,96.328125 z M15.253448,95.671021 L15.939117,96.327881 15.938538,96.327393 C15.701324,96.111572 15.472839,95.892822 15.253448,95.671021 z M71.480011,90.348999 C71.311066,90.891479 71.0961,91.426758 70.836945,91.950073 71.097565,91.422974 71.312042,90.887817 71.480011,90.348999 z M11.403839,87.434204 C11.403839,88.003784 11.457611,88.565063 11.556183,89.120239 11.455322,88.55957 11.403961,87.997681 11.403839,87.434204 z M41.692413,77.22998 C32.448792,77.230225 24.955444,81.37561 24.955109,86.489258 24.95462,88.94519 26.717773,91.300659 29.856659,93.037354 32.995575,94.77417 37.253052,95.749878 41.692413,95.749878 46.13205,95.750122 50.389893,94.774414 53.529114,93.03772 56.668304,91.300903 58.431671,88.945435 58.431183,86.489258 58.43103,84.033447 56.667389,81.678223 53.528259,79.941772 50.389099,78.205322 46.131622,77.229858 41.692413,77.22998 z M30.115173,0.61218262 L29.923187,16.025879 C24.478088,16.253052 20.292786,15.832886 18.208313,14.807373 15.386078,13.418701 14.025879,11.67395 12.634338,7.5783691 L12.491608,7.1281738 12.927643,6.8376465 C17.296906,4.0150146 22.720551,1.8309326 29.116882,0.76525879 z M39.636841,0.00012207031 C74.099579,0.068725586 92.774323,23.084717 76.255341,37.175415 73.661407,40.358398 71.936981,82.359741 71.936981,87.434204 71.889313,87.241089 71.828827,87.052856 71.772919,86.862915 71.067413,95.870117 58.611206,103.02405 43.193359,103.46716 L41.692383,103.48889 40.198456,103.46741 C32.751862,103.25378 25.685608,101.44995 20.388733,98.388184 14.738739,95.122437 11.564728,90.693237 11.564941,86.074829 11.570984,85.834473 11.585602,85.594238 11.608856,85.354126 11.491241,86.023682 11.421021,86.716553 11.403778,87.434204 11.403778,82.32605 10.720703,42.114868 4.2802429,36.527954 1.2284241,33.880493 -0.15414429,30.20459 0.013580322,26.198486 L0.018341064,26.124268 0.13391113,26.26123 C2.6022034,29.042847 5.6022644,31.440796 9.1519165,33.186523 14.964478,36.045776 22.029724,36.665405 29.703827,36.408936 L29.532928,49.995361 58.317261,24.909912 32.302795,0.34143066 33.07077,0.26379395 C33.522888,0.22387695 33.979279,0.18933105 34.439911,0.16027832 36.208862,0.048828125 37.941925,-0.0032958984 39.636841,0.00012207031 z" fill="#FFFFFF" stroke-width="1.74157333"/>
  <path d="M59.803223,13.195801 C59.808044,13.208496 59.836182,13.335693 59.87323,13.539673 59.816895,13.285278 59.798401,13.183228 59.803223,13.195801 z M1.2134705,12.345703 C1.1876831,12.576416 1.1740723,12.806396 1.1739807,13.037109 1.1739807,12.80542 1.1876831,12.574829 1.2134705,12.345703 z M30.52359,0 C44.534027,0.010009766 56.702759,5.7763672 59.940552,13.940918 59.911499,13.72998 59.896851,13.670288 59.873169,13.539673 59.901062,13.665527 59.981384,13.959106 60.028442,14.148926 60.259521,14.760254 60.4375,15.378174 60.561646,16.000488 61.849182,20.172852 66.497559,37.52478 70.825806,51.865723 58.706787,36.072754 21.493317,31.162598 1.7236633,43.550171 L0.71606445,44.208862 0.65011597,43.653198 C-0.044952393,37.33667 -0.048248291,29.177734 0.039337158,20.220581 L0.052490234,18.935913 0.12399292,18.581421 C0.17379761,18.33374 0.2220459,18.092896 0.26870728,17.859375 0.30621338,16.678467 0.53631592,15.502441 0.95571899,14.348267 1.093689,13.604736 1.1739807,13.133179 1.1739807,13.037109 1.1799927,13.243164 1.2003784,13.44397 1.2193909,13.64502 4.6397095,5.6225586 16.699585,0.0070800781 30.52359,0 z" fill="#FFFFFF" stroke-width="1.74157333"/>
  <path d="M20.518311,31.167725 C21.93335,31.171768 23.018677,31.324539 23.615356,31.618103 24.236816,31.923904 24.657104,32.278702 25.004639,32.85408 L25.028198,32.895615 24.967041,32.96402 C23.491455,34.5681 21.723511,35.907471 19.613037,36.7211 L19.418091,36.79158 19.487915,31.188797 C19.847656,31.173782 20.191772,31.166794 20.518311,31.167725 z M21.94043,3.8846741 C21.94043,3.8846741 20.177734,9.631134 16.941528,10.172241 13.733154,10.405411 11.06543,6.1971741 11.06543,6.1971741 11.955078,17.516006 21.739624,20.16452 21.94043,3.8846741 z M24.097534,0.00045776367 C24.682617,0.012710571 25.259644,0.27081299 25.69043,0.97842407 26.674927,2.5958252 26.581055,13.915817 27.00293,15.040924 27.424927,16.166122 31.87793,17.509674 31.87793,17.509674 31.87793,17.509674 31.227905,21.745926 29.180298,26.324982 L29.035645,26.642212 28.761597,26.40448 C28.172241,25.920593 27.520752,25.494095 26.806152,25.142639 24.758301,24.135239 22.269043,23.916946 19.565186,24.007263 L19.625488,19.220428 9.4838867,28.058701 18.913696,36.964279 18.614502,37.058334 C18.44397,37.108002 18.271362,37.154327 18.09668,37.197174 6.9155273,39.939774 2.1202393,29.876968 1.6279297,28.822174 1.1357422,27.76738 -0.067016602,24.330124 0.0029296875,23.978424 0.072875977,23.626923 3.2529297,20.830124 3.5341797,20.478424 3.8154297,20.126831 3.9404297,4.0957184 4.2216797,3.6034241 4.5029297,3.1112213 6.557373,1.212677 8.3154297,2.1971741 10.073486,3.1816711 13.174683,6.97052 14.72168,7.6034241 16.268799,8.2363281 17.32312,7.6115265&#xD;&#xA;18.65918,5.8534241 19.995239,4.0954285 21.252808,1.4941254 22.09668,0.79092407 22.518677,0.43927002 23.178589,0.071166992 23.84668,0.0096740723 23.930176,0.0019836426 24.013916,-0.0012817383 24.097534,0.00045776367 z" fill="#FFFFFF" stroke-width="1"/>
  <path d="M20.589111,0 L20.60083,0.064437866 C21.09729,2.9833984 20.985718,7.44664 20.939575,12.284058 L20.939209,12.316849 20.71228,12.588364 C16.141724,17.775848 3.6916504,17.101166 1.6878662,9.7987213 1.3184814,8.4526062 0.84399414,7.4078217 0.42199707,3.1181183 0.2635498,1.507019 0,0.44592285 0,0.44592285 5.0626221,6.6322327 14.707153,5.4242249 20.512085,0.072860718 z" fill="#FFFFFF" stroke-width="1"/>
  <path d="M8.0264244,0 L8.0266508,0.018641838 8.0664419,0.019139606 C8.0650139,0.24960216 8.0631416,0.48964379 8.0615039,0.73492876 L8.0600357,0.98324636 8.0602829,0.98885528 C8.0902717,1.6674929 8.1267269,2.4979515 8.1095366,3.3419566 L8.0989586,3.6957715 8.1054646,3.8136187 C8.1401732,4.3953605 8.1984793,4.8774071 8.2945032,5.1695905 8.4341307,5.5946293 8.5961719,6.3086515 9.3365202,6.7746516 10.076869,7.2405615 11.452823,7.1603532 11.999036,7.136715 L12.070812,5.3169241 14.561955,7.7883935 11.93947,10.049013 C11.945138,9.5789523 11.979152,9.2553239 11.98482,8.7852636 11.969646,8.7674899 10.556625,8.9565063 9.370882,8.54067 8.2687755,8.1541562 7.434935,7.317792 7.434935,7.317792 7.434935,7.317792 7.3832986,7.2382384 7.3049113,7.0973792 L7.281846,7.0554839 7.2587718,7.097385 C7.1803651,7.2382431 7.1287158,7.3177953 7.1287158,7.3177953 7.1287158,7.3177953 6.2946799,8.1541648 5.1923034,8.5406432 4.0062447,8.9564624 2.5929358,8.7674737 2.5777144,8.7852865 2.5834315,9.2552829 2.6173761,9.5789361 2.6230929,10.049006 L0,7.7883826 2.4916739,5.3168927 2.5634935,7.1367145 C3.1098938,7.1602922 4.486185,7.2405587 5.2266768,6.7746277 5.9671685,6.3086224 6.1293163,5.5946479 6.2689535,5.1695891 6.3650032,4.8773866 6.423324,4.3953343 6.4580404,3.8135927 L6.4647963,3.6912403 6.45436,3.341954 C6.43841,2.5582378 6.4687036,1.7862014 6.4971112,1.1365563 L6.5035181,0.99097941 6.5020028,0.73492793 C6.5003639,0.48964483 6.4984902,0.24960463 6.497061,0.019142644 L6.5372044,0.018640181 6.5374294,1.2368432E-05 7.281647,0.0093221856 z" fill="#FFFFFF" stroke="White" stroke-width="0"/>
</svg>