<?xml version="1.0" encoding="UTF-8"?>
<svg xmlns="http://www.w3.org/2000/svg" width="32" height="32" viewBox="0 0 32 32">
  <title>ImplantType.SubstructureScan.Parameter</title>
  <path d="m 2829.1012 452.71868 c -3.42 10.43866 33.6826 14.00191 30.2759 -1.18803 -1.4001 -2.99023 -3.1749 -0.44505 -5.2115 1.12424 -5.1231 0.49763 -11.3056 0.45455 -15.4529 0.1907 -2.8071 -1.19393 -5.7196 1.01894 -6.6997 -1.81099 -2.4759 -0.17829 -2.5017 0.8919 -2.9118 1.68408 z" fill="#FFFFFF"/>
  <path d="m 3344.4707 760.21657 c 0 0 -0.1757 2.37247 -0.1318 2.59215 0.044 0.21967 0.703 1.14229 1.4498 1.49378 0.7469 0.35148 2.3725 -0.30755 2.724 -0.96656 0.3515 -0.65903 0.1318 -3.29511 0.1318 -3.29511 0 0 -0.4833 -0.83476 -1.6256 -0.87868 -1.1423 -0.0439 -1.7135 0.30754 -2.0649 0.61507 -0.3514 0.30755 -0.4833 0.43935 -0.4833 0.43935 z" fill="#FFFFFF"/>
  <path d="m 3348.8202 760.52412 c 0 0 0.6151 0.26361 0.703 0.43935 0.088 0.17574 0.2197 1.5377 0.9665 1.66952 0.7469 0.1318 1.3181 0.0439 1.4939 -0.30755 0.1756 -0.35148 0.3074 -1.53771 0.3074 -1.53771 l 0.5273 -0.48328 c 0 0 -0.2636 -1.40591 -1.5377 -1.31804 -1.2741 0.0879 -1.8453 0.48328 -2.0649 0.83476 -0.2197 0.35147 -0.3955 0.70295 -0.3955 0.70295 z" fill="#FFFFFF"/>
  <path d="m 3354.3486 760.14355 c 0 0 -0.5712 1.93312 -0.3075 2.72394 0.2635 0.79082 1.0983 1.31804 1.9331 1.62558 0.8347 0.30755 1.977 0.17574 2.4164 -0.39542 0.4394 -0.57114 0.6151 -2.89969 0.044 -4.04199 -0.5712 -1.1423 -0.7469 -1.80132 -1.9331 -1.84524 -1.1862 -0.0439 -2.1529 1.93313 -2.1529 1.93313 z" fill="#FFFFFF"/>
  <path d="m 3337.3858 755.31293 c 7.5843 -0.0172 15.2854 -0.26771 22.6287 0.19737 1.5719 0.23794 1.8619 2.09826 1.0855 3.37994 0 0 -1.384 0.74689 -1.7354 1.62559 -0.3515 0.8787 -0.3076 0.83477 -0.3076 0.83477 0 0 -0.044 -2.59216 -0.615 -3.33905 -0.5712 -0.74688 -1.5378 -1.49377 -2.6362 -1.23016 -1.0983 0.26361 -2.1967 2.98755 -2.1967 2.98755 l -0.4393 -0.17573 c 0 0 0.4393 -1.01051 -0.4394 -1.75739 -0.8787 -0.74689 -2.021 -0.52721 -2.8118 -0.26362 -0.7908 0.26362 -1.1863 1.1423 -1.1863 1.1423 0 0 -0.3514 -1.31804 -2.1088 -1.18623 -1.7574 0.1318 -2.5921 1.31804 -2.5921 1.31804 0 0 -0.9227 -1.62559 -2.9436 -1.75739 -2.0211 -0.1318 -3.9981 1.75739 -3.9981 1.75739 -0.7988 -1.37724 -1.2459 -2.67631 0.2961 -3.53338 z" fill="#FFFFFF"/>
  <path d="m 3337.8958 764.24011 c -0.3476 -0.33475 -0.4985 -2.44544 -0.5253 -2.61756 -0.027 -0.17198 -0.015 -0.49767 -0.2803 -0.60273 -0.058 -0.0223 -0.1276 -0.0445 -0.1988 -0.0638 1.4959 -2.85738 5.9599 -2.54355 6.6065 -0.35151 -0.093 0.0193 -0.1824 0.0505 -0.2443 0.1098 -0.3161 0.29914 -0.4515 3.03451 -0.7589 3.40725 -1.1545 1.45992 -3.9841 1.44308 -4.5989 0.11855 z" fill="#FFFFFF"/>
  <path d="m 2831.4162 445.29512 27.0682 0" fill="currentColor" stroke="#FFFFFF" stroke-width="1.60333908"/>
  <rect x="2834.3079" y="447.45547" width="20.25" height="2" fill="#FFFFFF"/>
  <rect x="2837.1272" y="449.30899" width="2.8284271" height="2.6516504" fill="#FFFFFF"/>
  <rect x="2847.1272" y="449.30899" width="2.8284271" height="2.6516504" fill="#FFFFFF"/>
</svg>