<?xml version="1.0" encoding="UTF-8"?>
<svg xmlns="http://www.w3.org/2000/svg" width="32" height="32" viewBox="0 0 32 32">
  <title>LoadToothModelForceUsingPonticMode.ToothModelPonticDefault.Parameter</title>
  <path d="M4.5935812,6.4826512E-05 C4.3399693,-0.0032429274 4.0672501,0.12012232 3.7253852,0.34947545 2.357923,1.2669142 0.34424806,6.0886536 0.04697562,7.5706276 -0.25029902,9.052602 0.92347827,14.937956 1.8747568,17.266772 2.8260309,19.595589 3.1908086,19.127862 3.1313563,19.974705 3.0719015,20.821547 3.01712,20.819114 3.01712,20.819114 11.391615,22.336832 9.4041703,16.594689 18.873121,19.188531 18.873121,19.188531 18.677286,18.295901 18.873121,17.732653 19.307198,16.484792 20.582103,9.0637459&#xD;&#xA;20.198262,6.8426888 19.722624,4.0904518 16.383806,0.42007195 15.194711,0.34947545 14.005612,0.27890568 11.585624,4.7729099 10.6938,5.619752 8.8350387,7.0654292 5.3753189,6.2100174 4.9591374,5.9982802 4.5429538,5.78657 6.7497927,5.7811154 7.403794,5.3576941 8.0577953,4.9342994 6.0101116,3.3777008 6.0101116,3.3777008 6.0101116,3.3777008 9.2897307,5.2913172 10.716647,4.33858 11.212299,4.2323176 8.1820127,3.7058112 7.2210159,2.5915269 5.8832822,1.0036975&#xD;&#xA;5.3544169,0.0099887404 4.5935812,6.4826512E-05 z" fill="#FFFFFF"/>
  <path d="M13.845441,0.0045092633 C13.615617,0.012242885 13.380153,0.03325411 13.137176,0.062744367 9.2495442,0.53468165 8.2350818,2.1822692 5.6432735,2.6542065 3.0515464,3.1260506 0.54833434,1.6059746 0.54833434,1.6059746 0.54833434,1.6059746 -1.110223E-15,2.412228 -1.110223E-15,3.1200873 L-1.110223E-15,4.1392016 C0.55537495,4.2571626 19.53441,4.1392016 19.53441,4.1392016 L19.260243,2.0718554 C19.260243,2.0718554 17.292814,-0.1121063 13.845441,0.0045092633 z" fill="#FFFFFF"/>
</svg>