<?xml version="1.0" encoding="UTF-8"?>
<svg xmlns="http://www.w3.org/2000/svg" width="32" height="32" viewBox="0 0 32 32">
  <title>LoadToothModelForceUsingPonticMode.ToothModelPonticEnforced.Parameter</title>
  <path d="F1 M190.91513,264.30086 C190.56036,264.29686 190.1746,264.39286 189.69638,264.64461 187.78352,265.65159 186.68422,270.8905 186.26838,272.51719 185.85253,274.14377 187.50021,280.61734 188.83088,283.17344 189.1563,283.79857 189.93316,286.84786 189.93316,286.84786 189.93316,286.84786 190.23647,288.95152 190.23647,288.95152 190.23647,288.95152 190.03766,287.47257 190.56183,292.23773 191.08599,297.00288 205.75437,297.53897 207.6408,291.53928 207.69335,291.37214 207.68875,287.93637&#xD;&#xA;207.67503,287.6242 207.64464,286.9325 207.56236,285.64409 207.81505,284.76205 208.06627,283.88517 208.3852,282.1432 208.67478,281.02863 209.79712,276.70869 211.14629,272.75268 210.81783,271.26133 210.1525,268.24038 207.42219,264.72217 205.75888,264.64461 204.09552,264.56761 200.72516,269.5276 199.47763,270.45711 196.87755,272.04391 192.02851,271.09579 191.44638,270.86336 190.86419,270.63094 193.93774,270.60928 194.85263,270.14461 195.76746,269.67986&#xD;&#xA;192.91513,267.98836 192.91513,267.98836 192.91513,267.98836 197.48162,270.06533 199.47763,269.01961 200.17101,268.90295 195.94692,268.36765 194.60263,267.14461 192.73133,265.40178 191.97943,264.31177 190.91513,264.30086 z" fill="#FFFFFF"/>
</svg>