<?xml version="1.0" encoding="UTF-8"?>
<svg xmlns="http://www.w3.org/2000/svg" width="32" height="32" viewBox="0 0 32 32">
  <title>MockupTooth.WorkType</title>
  <path d="F1 M24.072,28.211 C24.072,28.211 22.687,27.173 22.687,25.026 22.687,22.881 20.559939,20.100167 19.452939,19.062167 18.344939,18.023167 16.873,15.96 16.319,13.745 15.765,11.53 15.073737,7.8054552 13.966737,7.8054552 12.859737,7.8054552 10.915369,13.507238 10.777369,16.899238 10.639369,20.291238 11.181685,24.529227 10.004685,27.990227 10.004685,27.990227 11.057,28.418 12.511,27.588 13.965,26.758 15.073,25.927&#xD;&#xA;17.495,25.927 19.919,25.927 21.995,28.211 24.072,28.211 z" fill="#FFFFFF"/>
  <path d="F1 M8.0128134,6.8311477 C7.8980405,7.2736857 7.5245957,7.4152216 7.4055288,6.7924817 7.2864619,6.1697417 6.368166,5.0468643 6.0179616,5.0468643 4.9109616,5.0468643 2.907,11.005 2.769,14.397 2.631,17.789 3.115,21.734 1.938,25.195 1.938,25.195 5.2548695E-46,21.734 5.2548695E-46,15.02 5.2548695E-46,8.307 3.115,6.5253045E-55 6.369,6.5253045E-55 6.369,6.5253045E-55 6.8164109,0.11133985 7.190055,0.75838761 7.6816177,1.6096378 8.9633196,3.1592279&#xD;&#xA;8.0128134,6.8311477 z" fill="#FFFFFF"/>
</svg>