<?xml version="1.0" encoding="UTF-8"?>
<svg xmlns="http://www.w3.org/2000/svg" width="32" height="32" viewBox="0 0 32 32">
  <title>OverlayCrown.WorkType</title>
  <path d="M6.2830006,6.9574496E-05 C7.3236547,0.010720518 8.0470248,1.0772261 9.8767482,2.7813759 11.191178,3.9772907 15.335939,4.5423675 14.657996,4.6564145 12.706291,5.6789475 8.2204991,3.6251433 8.2204991,3.6251433 8.2204991,3.6251433 11.021278,5.295775 10.126748,5.7501869 9.2322198,6.2046266 6.2137533,6.2104807 6.7830006,6.4377008 7.352244,6.6649494 12.084374,7.5830264 14.626746,6.0314427 15.846564,5.1225624 19.156572,0.29933771 20.782995,0.37507742 22.409412,0.45084551 26.976175,4.3901086&#xD;&#xA;27.626743,7.3439689 28.151754,9.7277355 27.732343,10.301331 27.732343,10.301331 27.732343,10.301331 24.56588,7.7492482 20.94075,8.2179981 17.31562,8.686748 15.96012,9.8766333 15.268877,10.897332 14.577634,11.918029 15.464484,14.530518 14.14884,15.67633 12.833197,16.822143 4.5651635,17.301329 4.5651635,17.301329 4.5651635,17.301329 2.8776031,17.256564 2.8776031,19.092996 2.8776031,19.092996 2.736973,18.84337 2.5642517,18.531696 1.1984057,16.067041&#xD;&#xA;-0.34235346,9.7157755 0.064252196,8.1252346 0.47085509,6.5346942 3.2251159,1.3597256 5.095501,0.37507742 5.5630966,0.12892224 5.9361154,-0.0034804708 6.2830006,6.9574496E-05 z" fill="#FFFFFF"/>
  <path d="M18.937499,0.0048395034 C18.62315,0.013139503 18.301088,0.035689503 17.968749,0.067339503 12.651329,0.5738395 11.263769,2.3420895 7.718749,2.8485895 4.17384,3.3549895 0.75,1.7235895 0.75,1.7235895 0.75,1.7235895 8.2718061E-25,2.5888895 8.2718061E-25,3.3485895 L8.2718061E-25,4.4423395 C0.75963,4.5689395 26.718749,4.4423395 26.718749,4.4423395 L26.343749,2.2235895 C26.343749,2.2235895 23.652741,-0.1203165 18.937499,0.0048395034 z" fill="#FFFFFF"/>
  <path d="M20.332594,-0.12310934 C16.596003,0.0081857786 14.515736,0.38109444 13.554789,0.80333953 12.593842,1.2255846 13.703946,2.4279147 11.874974,2.9019176 10.046001,3.3759204 -2.5204238,3.7129057 -2.5204238,3.7129057 -2.5204238,3.7129057 -4.2364422,3.6189764 -4.2364422,4.3786764 L-2.9053352,4.857003 -3.0983218,5.3839452 C-2.9842284,5.40296 -0.37150932,5.5195138 2.2596718,5.5046812 4.5685022,5.4916657 7.0662497,5.2830857 8.4005254,5.1513976 10.515626,4.9426451 13.333494,4.6654071 15.794953,4.5507635 21.792845,4.2714088 26.906504,4.651568 26.906504,4.651568 26.81962,4.4763231 26.61689,4.4791959 26.732735,4.1861635 26.848581,3.893131 27.601577,3.4104894 28.09392,2.7382385 28.586263,2.0659876 28.866532,1.399489 29.252838,0.7301142 29.252838,0.7301142 24.069185,-0.25440446&#xD;&#xA;20.332594,-0.12310934 z" fill="White"/>
</svg>