<?xml version="1.0" encoding="UTF-8"?>
<svg xmlns="http://www.w3.org/2000/svg" width="32" height="32" viewBox="0 0 32 32">
  <title>PartialMCStipplePattern.Leather-1.Parameter</title>
  <path d="M 11.335938 1.8105469 C 11.153997 3.1336476 10.358686 4.2257128 9.265625 4.9570312 C 9.3146942 5.0390398 9.3397367 5.0876899 9.3945312 5.1777344 C 9.5507473 5.4464259 11.048828 3.7233395 11.048828 3.2734375 C 11.048828 3.0547351 11.225443 2.8671875 11.462891 2.8671875 C 11.700343 2.8671875 11.761692 2.6909693 11.636719 2.4785156 C 11.31179 1.9473811 11.5491 1.9849071 12.798828 2.6347656 C 13.592406 3.0471759 13.723742 3.2598201 13.330078 3.5097656 C 13.04264 3.6909762 12.618308 4.3845192 12.380859 5.046875 C 12.043433 5.9966681 12.068454 6.4087215 12.505859 6.9960938 C 12.849534 7.4647417 12.998416 8.3400546 12.898438 9.3085938 A 5.6862619 5.6862619 0 0 0 13.255859 11.902344 C 13.693264 12.814646 13.668215 13.058778 13.005859 13.902344 C 12.043569 15.133326 12.506131 15.564657 13.755859 14.714844 C 14.44321 14.26494 14.617118 14.238363 14.304688 14.613281 L 14.3125 14.539062 A 7.935772 7.935772 0 0 1 12.636719 15.808594 L 11.417969 16.519531 L 11.681641 15.414062 C 11.825359 14.807945 12.181313 14.038598 12.46875 13.701172 C 12.862415 13.238772 12.898765 12.764233 12.611328 11.751953 A 13.247116 13.247116 0 0 1 12.230469 8.7402344 C 12.230469 7.6092307 12.042491 6.9980128 11.642578 6.8417969 C 10.830255 6.5293649 9.7571415 7.4973772 10.269531 8.0097656 C 10.781916 8.5221541 10.800672 9.4335937 10.300781 9.4335938 C 10.094578 9.4335938 10.012135 9.203057 10.130859 8.890625 C 10.249583 8.578193 10.156981 8.2218437 9.9257812 8.078125 C 9.6320939 7.8969143 9.6305314 7.5901174 9.9179688 7.0527344 C 10.367871 6.2091681 10.124058 5.5214844 9.3867188 5.5214844 C 9.2429111 5.5214844 9.0621847 5.3906997 8.890625 5.1972656 C 8.0621269 5.6578674 7.09753 5.9238281 6.0917969 5.9238281 C 5.5277418 5.9238281 4.9696576 5.8447877 4.4335938 5.6875 L 2.65625 8.7597656 C 2.8498487 8.8246295 3.0234939 8.9278247 3.1015625 9.0527344 L 3.1015625 9.046875 C 3.1224089 9.0816191 3.1282387 9.1088977 3.1425781 9.140625 C 5.384714 10.645014 6.6660156 13.45841 6.6660156 16.496094 C 6.6660156 19.871729 5.0842858 23.010591 2.3730469 24.322266 L 2.5429688 24.615234 C 2.578128 24.4378 2.7271737 24.298828 2.9140625 24.298828 C 3.1265163 24.298828 3.3007813 24.475046 3.3007812 24.6875 C 3.3007814 24.899953 3.1265163 25.074219 2.9140625 25.074219 C 2.8712798 25.074219 2.831543 25.06185 2.7929688 25.048828 L 4.7304688 28.402344 C 5.1058156 28.179451 5.5115575 28.011824 5.9277344 27.873047 C 5.8227712 27.623365 5.7225948 27.349913 5.6386719 27.037109 C 5.3762291 26.049824 4.8768783 25.006577 4.5332031 24.712891 C 4.0270637 24.281739 4.0133846 24.21175 4.4882812 24.355469 C 4.8069618 24.449198 5.4137617 25.173609 5.8261719 25.960938 C 6.9446784 28.079225 8.8380811 27.755322 9.7128906 25.287109 C 9.9628362 24.581013 10.024809 24.592766 10.943359 25.455078 L 11.912109 26.361328 L 11.912109 25.199219 C 11.912109 24.574355 12.130914 23.824164 12.380859 23.574219 C 12.749529 23.211798 12.487613 23.105469 11.212891 23.105469 C 10.013152 23.105469 9.5742187 22.944438 9.5742188 22.519531 C 9.5742188 22.194601 9.4183173 21.931641 9.2246094 21.931641 C 9.0309016 21.931641 8.7636447 21.61906 8.6386719 21.244141 C 8.4949532 20.806737 8.7192685 20.918112 9.3066406 21.574219 C 10.206445 22.586499 12.617679 23.068982 13.080078 22.337891 C 13.186305 22.156681 13.498887 22.249283 13.767578 22.542969 C 14.167491 22.980374 14.081075 23.193865 13.28125 23.71875 C 12.612645 24.218642 12.298828 24.718913 12.298828 25.46875 C 12.298828 26.70598 11.724924 27.317773 11.375 26.417969 C 11.025077 25.518165 9.8492812 25.667777 10.136719 26.580078 C 10.274189 26.992489 10.186667 27.449641 9.9492188 27.599609 L 9.9433594 27.591797 C 9.8914626 27.623733 9.8339212 27.678693 9.7753906 27.738281 C 11.068389 28.066848 12.214489 28.767803 12.972656 29.839844 L 18.494141 29.839844 L 18.732422 29.513672 L 18.779297 29.460938 C 19.155289 29.033815 19.597285 28.683044 20.080078 28.396484 C 20.019008 28.232071 19.956027 28.071901 19.898438 27.804688 C 19.492275 25.930091 19.385804 25.754738 18.773438 25.992188 C 17.998606 26.273376 17.954443 25.350245 18.623047 24.681641 C 19.241663 24.063026 18.366157 23.025391 17.222656 23.025391 C 16.754008 23.025391 16.029987 22.737817 15.611328 22.400391 C 14.867735 21.800521 14.868136 21.788338 15.636719 22.050781 L 16.904297 22.511719 C 17.185486 22.630443 17.411328 22.375697 17.423828 21.988281 C 17.433201 21.69772 17.495719 21.553919 17.568359 21.611328 C 17.592573 21.630465 17.617583 21.67267 17.642578 21.738281 C 17.742556 22.000726 18.091087 22.113254 18.416016 21.988281 C 18.740945 21.863309 19.404406 21.975838 19.904297 22.238281 C 20.591648 22.606948 21.016171 22.613206 21.728516 22.269531 C 22.609574 21.838375 22.615078 21.850906 21.896484 22.425781 C 20.99668 23.150623 20.048692 23.193223 19.423828 22.568359 C 19.167634 22.31841 18.835514 22.230891 18.685547 22.380859 C 18.535579 22.530826 18.616853 22.806709 18.873047 23.119141 C 19.129241 23.431573 19.335938 23.975477 19.335938 24.369141 C 19.335938 24.762805 19.997049 25.730639 20.796875 26.511719 C 21.596701 27.292803 21.884671 27.635859 21.447266 27.273438 C 20.335011 26.373633 20.216059 26.437403 20.416016 27.787109 L 20.421875 27.705078 C 20.454367 27.918083 20.447799 28.037196 20.455078 28.191406 C 21.346846 27.747997 22.361274 27.519531 23.40625 27.519531 C 24.595701 27.519531 25.747301 27.816186 26.734375 28.402344 L 29.09375 24.322266 C 27.075228 23.345767 25.685515 21.355538 25.105469 19.009766 C 24.819018 18.990769 24.604841 18.944894 24.558594 18.863281 C 24.481313 18.726903 24.67415 18.605699 25.015625 18.539062 C 24.884435 17.875678 24.798828 17.193738 24.798828 16.496094 C 24.798828 14.946949 25.140842 13.459409 25.761719 12.166016 C 25.610916 12.101748 25.361632 11.920244 24.964844 11.601562 C 24.602423 11.307877 24.42305 11.160932 24.439453 11.136719 C 24.455856 11.112505 24.668061 11.210982 25.089844 11.414062 C 25.441712 11.583142 25.744217 11.773595 25.882812 11.904297 C 26.570256 10.585317 27.567021 9.4941177 28.835938 8.8046875 L 27.568359 6.6132812 C 27.364523 6.6409019 27.158841 6.6434451 26.958984 6.5917969 C 26.402855 6.4480782 25.996067 6.5668703 25.871094 6.9042969 C 25.746121 7.1979829 24.652078 7.791104 23.433594 8.1972656 C 22.215109 8.6034272 21.048002 9.3223336 20.841797 9.6347656 C 20.635592 9.9471975 20.216729 10.259766 19.904297 10.259766 C 19.591865 10.259766 19.110488 10.601658 18.841797 11.039062 L 18.847656 11.109375 C 18.316522 11.977936 17.566474 12.182639 17.878906 11.382812 C 17.978884 11.170359 17.836655 10.446761 17.542969 9.921875 C 16.899359 8.7596281 16.83606 8.2461686 17.398438 8.5898438 C 17.623389 8.7960487 18.148137 8.5467933 18.560547 8.171875 C 19.266643 7.5282656 19.330133 7.5349098 19.580078 8.1972656 C 19.75504 8.6721622 19.566284 9.121585 19.003906 9.5839844 C 17.904144 10.458794 17.916261 10.796356 19.041016 10.208984 C 20.303241 9.5466292 21.684742 8.1346295 21.572266 7.5097656 C 21.516028 7.2473227 21.872371 6.9714684 22.353516 6.8964844 C 22.834661 6.8215007 23.228516 6.9465347 23.228516 7.1777344 C 23.228516 7.8588361 24.402794 7.6474957 24.677734 6.9101562 C 24.887347 6.3476957 25.147007 6.0385614 25.580078 5.9101562 C 25.511425 5.9125404 25.443856 5.9238281 25.375 5.9238281 C 22.803229 5.9238281 20.463341 4.2283922 20.130859 1.8105469 L 18.082031 1.8105469 C 18.080602 1.8192911 18.073391 1.8271602 18.072266 1.8359375 C 17.990165 2.4215891 17.905169 2.4259311 17.607422 1.8105469 L 11.335938 1.8105469 z M 27.033203 5.6875 C 26.785061 5.7603015 26.531444 5.8121036 26.275391 5.8515625 C 26.493783 5.8601273 26.716945 5.8747867 27.001953 5.921875 C 27.060356 5.932032 27.120377 5.9336925 27.179688 5.9414062 L 27.033203 5.6875 z M 16.523438 10.251953 C 16.729644 10.251953 16.980496 10.627445 17.105469 11.089844 C 17.274182 11.714708 17.216332 11.813989 16.878906 11.476562 C 16.247793 10.839201 15.047989 10.927884 14.779297 11.615234 L 14.779297 11.609375 C 14.529351 12.252985 13.855469 12.408074 13.855469 11.814453 C 13.855469 11.439535 15.86733 10.251953 16.523438 10.251953 z M 9.640625 10.521484 C 9.9560836 10.507132 10.127326 10.578936 10.042969 10.714844 C 9.9304934 10.896054 9.5495319 11.046875 9.1933594 11.046875 L 9.1816406 11.046875 C 8.8379654 11.046875 8.1190318 11.533722 7.6191406 12.121094 L 6.6953125 13.195312 L 7.5058594 11.970703 C 7.9495128 11.302099 8.7501156 10.664433 9.28125 10.564453 C 9.4140336 10.539458 9.5354721 10.526269 9.640625 10.521484 z M 15.535156 12.402344 C 15.558882 12.411229 15.584771 12.446499 15.611328 12.513672 C 15.717555 12.782364 15.723804 13.227791 15.611328 13.490234 C 15.498852 13.752677 15.412109 13.539336 15.412109 13.001953 C 15.412109 12.598915 15.46398 12.375689 15.535156 12.402344 z M 12.011719 12.607422 C 12.342896 12.607422 12.617187 12.783641 12.617188 12.996094 C 12.617188 13.208548 12.444098 13.382813 12.244141 13.382812 C 12.044185 13.382812 11.761692 13.208548 11.636719 12.996094 C 11.511746 12.783641 11.680541 12.607422 12.011719 12.607422 z M 18.154297 12.990234 C 18.177082 12.983498 18.199224 12.990239 18.222656 13.013672 C 18.422612 13.20738 18.398779 14.163515 18.173828 15.238281 L 17.779297 17.126953 L 17.830078 14.902344 C 17.857416 13.797897 17.994798 13.037392 18.154297 12.990234 z M 18.347656 17.375 C 18.439042 17.305484 18.486328 17.575133 18.486328 18.1875 C 18.486328 18.749877 18.305029 19.319561 18.080078 19.457031 C 17.817635 19.619496 17.766444 19.326404 17.941406 18.601562 C 18.119492 17.85485 18.25627 17.444516 18.347656 17.375 z M 8.6796875 19.017578 C 8.7221587 19.033786 8.77775 19.078531 8.8496094 19.150391 A 0.9997823 0.9997823 0 0 1 9.09375 20.076172 C 8.9937718 20.369858 8.8191107 20.186994 8.6816406 19.662109 C 8.5551057 19.174715 8.5522738 18.968956 8.6796875 19.017578 z M 24.916016 20.210938 C 25.053388 20.193753 25.140625 20.226194 25.140625 20.326172 L 25.126953 20.326172 C 25.126953 20.513631 24.691283 20.875055 24.128906 21.125 C 23.566528 21.374949 23.241436 21.412451 23.378906 21.1875 C 23.646035 20.756344 24.503898 20.262488 24.916016 20.210938 z M 7.6191406 24.693359 C 7.8690857 24.693359 7.9995904 24.906304 7.9121094 25.15625 C 7.6996556 25.793611 6.9628226 25.999891 6.6503906 25.5 C 6.4941746 25.243805 6.6516537 25.187145 7.0703125 25.349609 C 7.5202142 25.524571 7.6444906 25.46087 7.4570312 25.148438 C 7.3070638 24.898492 7.369195 24.693359 7.6191406 24.693359 z M 18.160156 27.787109 C 18.37261 27.787109 18.548828 28.129001 18.548828 28.566406 C 18.548828 28.997562 18.37261 29.347656 18.160156 29.347656 C 17.947702 29.347656 17.773438 28.997562 17.773438 28.566406 C 17.773438 28.13525 17.947702 27.787109 18.160156 27.787109 z " fill="#FFFFFF" stroke-width="6.24863958"/>
  <path d="M 12.800781 1.8105469 C 12.816776 1.8621537 12.832253 1.9137911 12.865234 1.9667969 L 12.873047 1.9726562 C 13.09503 2.3386275 13.359522 2.2948424 13.949219 1.8105469 L 12.800781 1.8105469 z M 15.541016 1.8105469 L 15.160156 2.2539062 C 14.035402 3.5786179 13.889895 3.9533836 14.121094 5.140625 C 14.408533 6.6278012 14.410075 6.9660984 14.035156 9.140625 L 14.052734 9.140625 C 13.865275 10.234136 13.934071 10.602344 14.333984 10.589844 C 15.383755 10.564849 16.621094 9.1286479 16.621094 7.9414062 C 16.621094 6.9666187 16.752485 6.8098024 17.402344 6.9785156 C 18.264656 7.197218 18.365508 6.8282081 17.828125 5.4160156 C 17.634418 4.9036271 17.595744 4.2784503 17.783203 3.9785156 C 17.970662 3.6785809 17.764348 2.9158387 17.283203 2.1035156 L 17.109375 1.8105469 L 15.541016 1.8105469 z M 19.183594 1.8105469 C 18.435061 2.2431996 18.32993 2.8046875 19.152344 2.8046875 C 20.002159 2.8046875 19.858399 3.8547379 18.964844 4.0859375 C 18.296239 4.2546507 18.252021 4.4541484 18.564453 5.5664062 C 18.764409 6.2662539 19.152794 6.9851945 19.427734 7.1601562 L 19.427734 7.234375 C 20.102587 7.6592824 20.238471 7.640482 21.113281 6.984375 C 21.538188 6.6656944 22.319649 6.4027344 22.863281 6.3964844 C 23.315341 6.3912882 23.894444 6.1398938 24.289062 5.8125 C 22.175064 5.4124676 20.415602 3.8812331 20.130859 1.8105469 L 19.183594 1.8105469 z M 8.1640625 5.5292969 C 7.9199494 5.6225783 7.6686545 5.6938284 7.4101562 5.7539062 C 7.340194 6.4058561 6.9195654 6.4935255 6.3027344 5.90625 C 6.2318312 5.9088372 6.1630953 5.9238281 6.0917969 5.9238281 C 5.8963357 5.9238281 5.7031714 5.9019386 5.5097656 5.8828125 C 5.2205033 6.0478958 4.8565972 6.3474236 4.3554688 6.8339844 C 3.5556428 7.6088157 3.1172419 8.2460938 3.3671875 8.2460938 C 3.6704962 8.2460937 3.7371855 8.6458601 3.6035156 9.4589844 C 4.6808372 10.319966 5.4960321 11.506079 6.0136719 12.871094 C 7.0259851 12.321146 7.7745194 11.245268 7.5664062 10.464844 C 7.4476821 10.014942 7.6985218 9.4280488 8.0859375 9.078125 C 8.4733531 8.7282012 9.0977379 7.9584658 9.4726562 7.3710938 C 10.128764 6.3025778 10.128682 6.296875 9.0976562 6.296875 C 8.319646 6.296875 8.137352 6.1547081 8.1640625 5.5292969 z M 26.599609 7.9726562 C 25.66506 8.0002993 24.202874 8.382946 23.050781 8.9960938 C 21.588599 9.7646761 21.020256 10.328329 20.757812 11.265625 C 20.564104 11.940478 20.083895 12.583226 19.677734 12.689453 C 19.115356 12.833171 18.945312 13.244795 18.945312 14.457031 C 18.945312 15.394327 19.107858 16.19456 19.320312 16.332031 C 19.53277 16.469501 19.621464 17.532287 19.521484 18.707031 C 19.415257 19.969257 19.514108 20.832031 19.726562 20.832031 C 19.939016 20.832031 20.115234 21.09304 20.115234 21.417969 L 20.089844 21.34375 C 20.089844 22.031101 21.358835 22.124871 22.464844 21.53125 C 22.877254 21.312548 23.212891 20.857354 23.212891 20.544922 C 23.212891 20.23249 23.483275 19.869892 23.814453 19.732422 C 24.145634 19.594952 24.32693 19.207346 24.220703 18.857422 C 24.108755 18.474083 24.422528 17.80653 24.845703 17.271484 C 24.82694 17.013707 24.798828 16.757447 24.798828 16.496094 C 24.798828 15.269294 25.007842 14.07802 25.402344 12.992188 C 25.161438 12.957963 24.593987 12.513917 24.207031 11.921875 C 23.538427 10.897098 23.544729 10.890673 24.457031 11.109375 L 26.054688 11.617188 C 26.724955 10.446447 27.640968 9.4696851 28.792969 8.8320312 C 28.617923 8.7304685 28.443586 8.6601562 28.269531 8.6601562 C 27.863369 8.6601562 27.53125 8.5214436 27.53125 8.3339844 C 27.53125 8.066855 27.160339 7.9560706 26.599609 7.9726562 z M 6.6796875 9.828125 C 6.7796654 9.828125 6.8554688 10.002391 6.8554688 10.214844 C 6.8554688 10.427298 6.6808077 10.601563 6.4433594 10.601562 C 6.2059115 10.601562 6.1363567 10.427298 6.2675781 10.214844 C 6.3987995 10.002391 6.5797095 9.828125 6.6796875 9.828125 z M 11.271484 10.074219 C 11.002012 10.13983 10.606178 10.439937 10.273438 10.871094 C 9.8297838 11.445968 9.2112655 11.807789 8.9238281 11.695312 C 8.6363907 11.582838 8.3847656 11.709045 8.3847656 11.990234 C 8.3847656 12.271423 7.8604067 12.896586 7.2167969 13.365234 C 6.8949919 13.599558 6.602166 13.862579 6.390625 14.095703 C 6.571182 14.866469 6.6660156 15.67279 6.6660156 16.496094 C 6.6660156 16.661302 6.6462 16.82244 6.6386719 16.986328 C 6.7897519 17.103508 6.9330497 17.272374 7.0351562 17.482422 C 7.2538588 17.932324 8.1865295 18.532486 9.1113281 18.826172 C 10.036127 19.119858 10.998101 19.687589 11.248047 20.09375 L 11.228516 20.09375 C 11.703413 20.862333 12.279297 21.075653 12.279297 20.488281 C 12.279297 20.363308 12.016336 19.400582 11.691406 18.488281 C 11.366477 17.57598 11.103516 16.406531 11.103516 15.900391 C 11.103516 15.394252 10.942144 14.976563 10.742188 14.976562 C 10.204804 14.976564 10.49235 13.257562 11.242188 12.101562 C 11.992024 10.945564 12.054566 10.439768 11.492188 10.089844 C 11.437511 10.055476 11.361309 10.052348 11.271484 10.074219 z M 17.353516 12.259766 C 17.18324 12.180096 16.890563 12.482585 16.609375 13.232422 C 16.396921 13.769805 16.052687 14.207031 15.833984 14.207031 C 15.615282 14.207031 14.896334 14.733343 14.208984 15.376953 C 13.521634 16.020563 12.833943 16.544922 12.646484 16.544922 C 11.959134 16.544922 12.759984 20.512072 13.759766 22.136719 L 13.771484 22.167969 C 14.06517 22.642865 15.027685 20.856903 14.802734 20.269531 C 14.709004 20.025834 14.878974 19.613226 15.191406 19.363281 C 15.62881 18.988362 15.791057 19.019633 15.978516 19.488281 C 16.315943 20.375588 17.133932 20.213083 16.896484 19.300781 C 16.765263 18.794641 16.884062 18.519531 17.240234 18.519531 C 17.890093 18.519531 17.953002 17.425461 17.390625 15.957031 C 17.134434 15.269681 17.121927 14.440048 17.359375 13.583984 C 17.571829 12.802904 17.523791 12.339436 17.353516 12.259766 z M 25.355469 12.416016 C 25.322155 12.433073 25.321492 12.469544 25.357422 12.527344 C 25.42489 12.636612 25.465439 12.721549 25.490234 12.791016 C 25.534425 12.677826 25.586444 12.569584 25.634766 12.458984 C 25.509935 12.423511 25.396149 12.395187 25.355469 12.416016 z M 7.1640625 19.001953 C 6.9898817 18.996486 6.8120495 19.114114 6.5371094 19.351562 C 6.4412029 19.434291 6.312401 19.516254 6.1816406 19.597656 C 5.6975337 21.135159 4.8526098 22.474665 3.7011719 23.435547 C 3.8775606 23.617925 4.1517122 23.631132 4.6367188 23.580078 C 5.3865555 23.492597 5.6992188 23.642674 5.6992188 24.080078 C 5.6992188 24.573721 5.9611825 24.649954 7.0859375 24.4375 C 8.3169195 24.2063 8.4922351 24.280649 8.7109375 25.105469 L 8.7285156 25.136719 C 8.9597153 26.011529 8.9922556 25.992708 9.3046875 24.792969 C 9.7358437 23.149577 9.0670011 21.680623 8.2109375 22.386719 C 7.2486471 23.186545 7.1869118 22.524654 8.0742188 20.9375 C 8.5428662 20.106431 8.7972302 19.551205 8.6347656 19.701172 C 8.472301 19.851139 8.0866481 19.713601 7.7617188 19.388672 C 7.5086487 19.135603 7.3382433 19.00742 7.1640625 19.001953 z M 25.832031 20.970703 C 25.475629 21.217035 24.899712 21.499478 24.419922 21.644531 C 23.882539 21.806996 22.769354 22.369263 21.957031 22.931641 C 20.69481 23.787704 20.50825 24.093544 20.720703 24.943359 C 20.858173 25.568223 21.308293 26.374706 21.720703 26.818359 C 21.94055 27.054862 22.133967 27.343545 22.271484 27.615234 C 22.643272 27.555132 23.022096 27.519531 23.40625 27.519531 C 24.595701 27.519531 25.747301 27.816186 26.734375 28.402344 L 28.199219 25.869141 C 28.178399 25.065777 28.310923 24.851301 28.792969 24.841797 L 29.09375 24.322266 C 27.670691 23.633833 26.567598 22.435939 25.832031 20.970703 z M 14.597656 23.226562 C 14.472037 23.225903 14.394521 23.301594 14.347656 23.449219 A 4.5615068 4.5615068 0 0 1 13.404297 24.744141 C 12.885662 25.262778 12.716831 25.804823 12.873047 26.429688 C 13.041761 27.104541 12.92292 27.461394 12.341797 27.767578 C 11.967075 27.965011 11.78696 28.221582 11.728516 28.621094 C 12.205292 28.955397 12.630833 29.356509 12.972656 29.839844 L 17.898438 29.839844 C 17.268924 28.897181 17.238595 27.306327 17.871094 26.673828 C 18.252261 26.292661 18.170941 26.148397 17.464844 25.960938 C 16.964953 25.835965 16.633614 25.535887 16.714844 25.304688 C 16.796076 25.073487 16.333063 24.444022 15.689453 23.900391 C 15.146603 23.443459 14.807022 23.227661 14.597656 23.226562 z M 5.0195312 28.244141 C 4.9222276 28.251545 4.8118905 28.296763 4.703125 28.357422 L 4.7304688 28.402344 C 4.8288255 28.343937 4.9355893 28.300698 5.0371094 28.248047 C 5.0302776 28.248271 5.0265193 28.243609 5.0195312 28.244141 z " fill="#FFFFFF" stroke-width="6.24863958"/>
  <path d="m 289.11313 513.35256 h -101.049 c -5.254 0 -10.125 -2.749 -12.841 -7.247 -11.39 -18.864 -36.208 -31.053 -63.229 -31.053 -18.486004 0 -35.919004 5.535 -49.089004 15.587 -3.427 2.617 -7.813 3.631 -12.041 2.785 -4.228 -0.845 -7.887 -3.468 -10.045 -7.2 l -49.6200004 -85.806 c -2.2329996 -3.861 -2.6319996 -8.518 -1.087 -12.703 1.545 -4.185 4.873 -7.466 9.08000002 -8.95 38.30100038 -13.52 65.05100038 -58.887 65.05100038 -110.326 0 -49.85 -24.636 -93.605 -61.3040004 -108.881 -3.983 -1.66 -7.061 -4.955 -8.441 -9.045 -1.382 -4.089 -0.936 -8.574 1.225 -12.311 l 38.9960004 -67.433 c 3.719 -6.43 11.586 -9.169 18.491 -6.444 8.266 3.262 17.114 4.916 26.301 4.916 34.463004 0 62.500004 -23.726 62.500004 -52.889 0 -8.284 6.716 -15 15 -15 h 163.156 c 8.284 0 15 6.716 15 15 0 29.163 28.037 52.889 62.5 52.889 9.188 0 18.036 -1.654 26.3 -4.915 6.907 -2.727 14.771 0.013 18.492 6.443 l 38.997 67.434 c 2.16 3.736 2.607 8.222 1.226 12.311 -1.382 4.09 -4.458 7.385 -8.442 9.045 -36.668 15.275 -61.305 59.031 -61.305 108.881 0 51.439 26.75 96.807 65.051 110.326 4.207 1.484 7.535 4.766 9.08 8.95 1.545 4.186 1.146 8.842 -1.087 12.703 l -49.62 85.806 c -2.158 3.732 -5.817 6.355 -10.045 7.2 -4.229 0.845 -8.614 -0.168 -12.041 -2.785 -13.17 -10.052 -30.603 -15.587 -49.089 -15.587 -23.188 0 -44.73 8.826 -57.768 23.637 l -6.173 8.486 c -2.822 3.88 -7.331 6.176 -12.13 6.176 z" fill="currentColor" stroke="#FFFFFF" stroke-width="16"/>
  <rect x="0" y="0" width="0" height="0" fill="none"/>
</svg>