<?xml version="1.0" encoding="UTF-8"?>
<svg xmlns="http://www.w3.org/2000/svg" width="32" height="32" viewBox="0 0 32 32">
  <title>PartialMeshProfile.Square-1.Parameter</title>
  <path d="M9.4496677,9.2674613 L9.5118957,13.357354 13.877469,13.35742 13.815241,9.2675272 z M17.126624,9.152982 L17.126347,13.311636 22.032868,13.311638 22.033145,9.1529838 z M2.4892633,8.2038038 L2.4892633,12.100833 6.7205001,12.100833 6.7205001,8.2038038 z M24.158,7.6817935 L24.158,11.7675 28.533001,11.7675 28.533001,7.6817935 z M9.5688481,3.9138878 L9.2182808,7.0343506 13.522772,7.511886 13.87334,4.391423 z M20.948457,3.3861564 L16.612971,4.4185588 17.348651,7.4412571 21.684134,6.4088545 z M2.7893679,2.3220955 L2.0944514,5.5698211 6.3106558,6.4689589 7.0055727,3.2212337 z M27.630939,1.5389997 L23.40283,2.7183402 24.237441,5.7358219 28.465553,4.5564821 z M28.028339,1.1022011E-07 C28.749483,-0.00017349213 29.469755,0.20471981 30.318281,0.66835184 31.922029,1.5446401 31.271492,2.6758402 31.271492,4.0285662 31.271492,6.4259594 31.282593,8.2617806 30.472025,10.412974 29.522823,12.932089 29.571215,14.870989 27.489397,15.755716 27.398096,15.794517 27.208923,15.860637 27.042578,15.917056 L27.158,15.919273 27.158,13.932916 22.75175,13.932916 22.75175,16.266159 C22.75175,16.266159 22.033001,16.329634 22.033001,16.329634 21.996428,16.332136 18.158,16.368332 18.158,16.368332 L18.158,14.495095 13.741334,14.515928 13.741334,16.445717 C13.741334,16.445717 13.282999,16.455 13.282999,16.455 13.282999,16.455 9.4938116,16.203585 9.4938116,16.203585 L8.87675,16.033125 C8.8834896,16.000006 8.6111251,15.875751 8.6111251,15.875751 L8.6111251,13.932916 4.3272443,13.932916 4.3272443,15.227353 4.3004036,15.213821 C3.8835726,15.000338 3.2587569,14.631965 2.890384,14.344425 0.56297815,12.527725 0.43048275,11.702657 0.4304828,9.0688894 0.43048275,7.6595629 1.4962175E-14,6.4788192 0,5.1038349 1.4962175E-14,3.988251 0.11566701,2.8712412 0.24599025,1.7772229 0.63261169,0.071581395 1.1799182,0.39953638 2.3676546,0.39953522 3.0889194,0.39953638 3.6931512,0.40883819 4.3970733,0.60114873 5.3024416,0.84849567 6.0842671,1.5679171 6.9492207,1.9116314 11.979913,3.9107311 14.903233,3.4012616&#xD;&#xA;19.863703,2.4156647 21.660124,2.0587323 23.315041,1.6777157 24.967995,0.9035681 26.172523,0.33943818 27.101154,0.00022484505 28.028339,1.1022011E-07 z" fill="#FFFFFF"/>
</svg>