<?xml version="1.0" encoding="UTF-8"?>
<svg xmlns="http://www.w3.org/2000/svg" width="32" height="32" viewBox="0 0 32 32">
  <title>PartialMeshProfile.Smooth-1.Parameter</title>
  <path d="M23.795795,9.0934656E-08 C24.408039,-0.00014327637 25.019543,0.16923144 25.739933,0.55249196 27.101501,1.2768744 26.5492,2.2119791 26.5492,3.3302078 26.5492,5.3120093 26.558624,6.8295879 25.870461,8.6078682 25.064598,10.69029 25.10568,12.293079 23.338238,13.024438 23.18321,13.088587 22.695818,13.243068 22.695818,13.243068 22.695818,13.243068 20.01909,13.447033 20.01909,13.447033 L17.994556,13.56422 C17.115164,13.630403 14.566979,13.662948 14.566979,13.662948 14.566979,13.662948 11.144486,13.614931 11.144486,13.614931 11.144486,13.614931 8.0601559,13.394667 8.0601559,13.394667 8.0601559,13.394667 4.5625832,12.910392 3.5687857,12.528128 2.5749882,12.145864 3.5092915,12.50041 3.4795444,12.486551 3.1290493,12.317445 2.7875035,12.111338 2.4539084,11.857796 0.47796312,10.356024 0.36547577,9.6739826 0.3654758,7.4967828 0.36547577,6.3317656 1.4210855E-14,5.3557057&#xD;&#xA;0,4.2190771 1.4210855E-14,3.2968814 0.098200195,2.373507 0.20884338,1.4691387 0.53708136,0.059172785 1.0017394,0.33027625 2.0101161,0.33027544 2.6224632,0.33027625 3.1354504,0.33796558 3.7330737,0.49693882 4.5017228,0.70140773 5.1654854,1.2961162 5.8998227,1.580247 10.170833,3.2327998 12.652703,2.8116477 16.864096,1.9969056 18.38924,1.7018479 19.794249,1.3868811 21.197592,0.74693328 22.220224,0.28059616 23.008623,0.00018600842 23.795795,9.0934656E-08 z" fill="#FFFFFF"/>
  <path d="M31.351917,0 L31.371998,0.10739303 C31.477325,0.77056241 31.271492,1.5157504 31.271492,2.3365474 31.271492,4.9226317 31.282593,6.9029446 30.472025,9.2234507 29.522823,11.940837 29.571215,14.032343 27.489397,14.986704 27.306795,15.070412 26.73271,15.271997 26.73271,15.271997 26.73271,15.271997 23.579876,15.538155 23.579876,15.538155 L21.195238,15.691074 C20.159428,15.777437 17.157999,15.819904 17.157999,15.819904 17.157999,15.819904 13.12675,15.757248 13.12675,15.757248 13.12675,15.757248 9.4938116,15.46982 9.4938116,15.46982 9.4938116,15.46982 5.3741269,14.837883 4.2035637,14.33906 3.0329998,13.840238 4.1334872,14.302891 4.0984492,14.284807 3.6856115,14.064137 3.2833152,13.795184 2.890384,13.464334 0.56297815,11.504647 0.43048275,10.61464 0.4304828,7.7735777 0.43048275,6.2533283 1.4962175E-14,4.9796519&#xD;&#xA;0,3.4964471 3.1595959E-16,3.3460236 0.001807297,3.1955762 0.0052243969,3.0451565 L0.015491359,2.7339849 0.018497126,2.7937183 C0.10089439,4.0519242 0.43048275,5.1933594 0.4304828,6.5235777 0.43048275,9.3646412 0.56297815,10.254648 2.890384,12.214334 3.2833152,12.545185 3.6856117,12.814137 4.0984492,13.034807 4.1334872,13.052892 3.033,12.590239 4.2035637,13.089062 5.3741274,13.587884 9.4938116,14.219822 9.4938116,14.219822 9.4938116,14.219822 13.12675,14.507248 13.12675,14.507248 13.12675,14.507248 17.157999,14.569906 17.157999,14.569906 17.157999,14.569906 20.15943,14.527437&#xD;&#xA;21.195238,14.441074 L23.579876,14.288155 C23.579876,14.288155 26.732712,14.021997 26.732712,14.021997 26.732712,14.021997 27.306795,13.820414 27.489399,13.736704 29.571215,12.782342 29.522825,10.690837 30.472027,7.9734516 31.282593,5.6529446 31.271492,3.6726322 31.271492,1.0865474 31.271492,0.72174883 31.312151,0.3718853 31.34808,0.037519455 z" fill="#FFFFFF"/>
</svg>