<?xml version="1.0" encoding="UTF-8"?>
<svg xmlns="http://www.w3.org/2000/svg" width="32" height="32" viewBox="0 0 32 32">
  <title>PartialMCStipplePattern.Smooth-1.Parameter</title>
  <path d="M13.550781,-1.6421466E-47 A14,14.000001,0,0,0,7.2909966,1.7340886 C7.3085496,1.8546712 15.265605,0.4006897 16.089844,1.4414062 17.285414,2.9509482 17.375754,3.3781291 16.564456,3.6894531 15.835552,3.9691651 15.096253,3.3645749 14.955081,2.3730469 14.819225,1.4189969 13.295317,1.0978922 12.832034,1.9257812 12.659347,2.2343673 12.283876,2.4863281 11.99805,2.4863281 11.564153,2.4863281 8.267126,4.8690789 6.3339844,4.6386719 6.1148944,4.6125719 5.852279,4.9115894 5.75,5.3027344 5.647722,5.6938801 5.3842686,6.0136719&#xD;&#xA;5.1660156,6.0136719 4.5797996,6.0136719 4.3015384,5.0169299 4.7402344,4.4882812 4.9316134,4.2576763 4.9014273,3.9898361 6.310547,2.2949219 6.4541932,2.4670903 6.5566407,2.6388515 6.5566407,2.7890625 6.5566407,3.0101895 6.7142152,3.1914063 6.9082032,3.1914062 7.1022232,3.1914062 7.2499749,1.8666764 13.550781,-1.6421466E-47 z M17.851566,0.5351561 C16.956312,0.3711144 16.967942,0.4387474 16.992192,0.5019531 17.269178,1.0600717 17.205106,1.056618 16.992192,0.5019531 16.967942,0.4387474 16.956312,0.3711144 16.945316,0.3027343 z M20.755854,1.7246094 C19.264443,1.5060407 19.424938,1.8995794 20.085938,3.296875 L20.990234,5.2070312 C20.365232,1.7786336 20.112493,1.8811584 20.054683,2.0449219 19.969063,2.2874149 20.06943,2.4863281 20.277339,2.4863281 20.841741,2.4863281 22.065603,3.6272165 21.85937,3.9609375 21.76086,4.1203545 21.909617,4.25 22.189448,4.25 22.46928,4.25 22.789084,3.9021885 22.900386,3.4765625 22.927606,3.3724776 22.949526,3.3157724 25.078125,5.4355469 24.677675,5.3157842 24.089102,5.2511232 23.183594,5.2382812 L20.481217,5.1045625 20.085938,3.296875 C19.424938,1.8995794 19.264443,1.5060407 19.488281,1.1054688 z M13.220703,3.4863281 C13.767277,3.5039867 13.962891,3.732304 13.962891,4.2499997 13.962891,4.8188017 13.726654,4.9550778 12.748047,4.9550778 12.080465,4.9550778 11.448103,4.8145948 11.341797,4.6425778 11.113168,4.2726358 11.800963,3.6438381 12.550781,3.5371091 12.817007,3.4992211 13.038512,3.4804381 13.220703,3.4863281 z M10.255859,4.7207031 C10.451394,5.1075303 11.294372,5.6715344 12.128906,5.9746091 13.393403,6.4338462 13.695473,6.4467406 13.941406,6.0488281 14.103685,5.7862272 14.415901,5.6811262 14.634766,5.8164062 14.85363,5.9516541 14.951026,6.1918042 14.853516,6.3496094 14.756006,6.5074147 14.990633,7.0367325 15.375,7.5253906 15.884008,8.172499 16.01635,8.709241 15.857422,9.50391 15.523357,11.174255 16.243724,12.432936 18.152344,13.505863 19.091058,14.033546 20.047149,14.689808&#xD;&#xA;20.275391,14.964848 20.503632,15.239882 20.978419,15.390802 21.330078,15.298832 21.793361,15.177666 22.128145,15.466949 22.548828,16.35352 22.868134,17.026408 23.362741,17.667687 23.648438,17.777348 25.326141,18.421169 24.018926,15.166002 22.265625,14.333988 21.578322,14.00784 21.017578,13.492403 21.017578,13.189457 21.017578,12.780586 20.794031,12.695883 20.150391,12.857426 19.465086,13.029443 19.013627,12.804676 17.996094,11.787113 16.686709,10.477687&#xD;&#xA;16.547906,9.642672 17.320312,7.6894575 17.486427,7.2694062 17.398659,7.07227 17.042969,7.07227 16.505507,7.07227 15.917565,5.1485213 16.277344,4.5664106 16.384908,4.3923317 16.908906,4.2500044 17.441406,4.2500044 18.62109,4.2500044 20.664062,6.2176251 20.664062,7.35352 20.664062,8.354839 20.100864,8.349878 19.5625,7.34375 19.331036,6.9112277 18.939872,6.3558954 18.693359,6.109375 18.211322,5.627323 17.352443,5.4893597 17.550781,5.9257812&#xD;&#xA;17.616901,6.0713089 18.105766,7.105729 18.636719,8.224609 19.167672,9.343521 19.562995,10.450982 19.515625,10.685547 19.468225,10.920144 19.786152,11.165812 20.222656,11.232422 20.733276,11.310312 21.017578,11.599974 21.017578,12.042969 21.017578,12.464568 21.392345,12.88087 21.986328,13.119141 24.147873,13.986184 24.484866,14.260946 25.226562,15.746094 25.65166,16.597252 26.275426,17.493533 26.611328,17.738281 26.775766,17.858112 27.012784,18.112606&#xD;&#xA;26.636719,19.974609 26.230029,19.609482 25.764569,19.417969 25.251953,19.417969 24.693997,19.417969 23.778778,19.026411 23.197266,18.537109 22.620878,18.05206 21.974248,17.654297 21.759766,17.654297 21.545251,17.654297 21.369141,17.53612 21.369141,17.390625 21.369141,17.245098 20.04174,18.167526 20.164062,18.486328 20.287287,18.807481 20.775035,19.064453 21.257812,19.064453 22.221114,19.064453 24.191406,20.810618 24.191406,21.664063 24.191406,21.865071&#xD;&#xA;24.460805,22.326215 23.966797,23.798828 23.890841,23.673542 23.837891,23.561511 23.837891,23.488281 23.837891,23.239248 23.146142,22.398403 22.300781,21.619141 20.676824,20.122201 18.754945,19.422769 18.089844,20.087891 17.8762,20.301542 17.589335,20.476562 17.453125,20.476563 17.085708,20.476563 16.405664,18.334227 16.648438,17.941406 16.763444,17.75534 15.904233,18.196178 15.492638,17.758016 15.081042,17.319886 14.446064,15.88956 14.082482,14.578329&#xD;&#xA;13.348905,11.932795 13.129354,9.678228 13.320312,11.480469 13.418012,12.402617 13.321506,12.539063 12.556641,12.539063 11.958436,12.539063 11.638158,12.315198 11.548828,11.833984 11.350168,10.763892 10.79251,10.246094 9.839844,10.246094 9.080944,10.246094 8.992404,10.110085 9.089844,9.099609 9.175464,8.21143 10.060015,4.3331946 10.255859,4.7207031 z M3.3554688,4.8984375 A14,14.000001,0,0,0,2.7890625,5.6269531 C3.3635699,4.9622922 3.3786935,5.0291071 3.3789062,5.0898438 3.3812463,5.5040524 3.2721597,5.6475436 3.3554688,4.8984375 z M22.326172,6.0839844 C21.717494,6.1069854 21.3837,6.5716487 21.375,7.4414062 22.529065,6.0763174 22.761184,6.1190483 23.023438,6.2109375 23.927671,6.5277726 24.041222,6.7651621 24.320312,8.931641 24.626956,11.312126 24.858503,11.683791 25.517578,10.863281 25.757195,10.565008 25.724624,9.853346 25.416016,8.660156 25.165121,7.6901225 24.993426,6.8610894 25.035156,6.8183594 25.076698,6.7758224 25.651033,7.0124 27.443359,10.099609 27.366274,10.335838 27.267013,10.536346&#xD;&#xA;27.148438,10.634766 26.880367,10.857246 26.660156,11.239434 26.660156,11.484375 26.660156,11.945449 25.184224,13.068359 24.578125,13.068359 24.388746,13.068359 24.13553,12.910791 24.015625,12.716797 23.895719,12.522771 23.498393,12.363281 23.132812,12.363281 22.767201,12.363281 22.193066,11.898299 21.857422,11.330078 21.521778,10.761888 20.95785,10.221556 20.603516,10.128906 19.534006,9.849194 19.836492,9.1085 20.929688,9.330078 21.647443,9.475541&#xD;&#xA;22.174023,9.290843 22.957031,8.623047 L24.015625,7.7207031 22.693359,7.8554688 C21.674826,7.9586207 21.3708,7.8622969 21.375,7.4414062 21.3837,6.5716487 21.717494,6.1069854 22.326172,6.0839844 z M7.2993683,5.4619502 C7.7298221,5.4619507 9.1731579,6.9979064 8.9660006,7.3581171 8.8179973,7.6154693 7.724746,9.1085405 7.6439069,9.0585718 7.0385819,8.6844406 6.5985953,5.4619502 7.2993683,5.4619502 z M1.513675,7.6875005 A14,14.000001,0,0,0,0.9609375,8.929687 C1.512725,7.7120905 1.517395,7.7327065 1.515625,7.7578125 1.4640561,8.490907 1.3181006,8.856037 1.513675,7.6875005 z M4.8225839,6.4202248 C5.4210139,6.4202248 6.7984076,8.4069768 6.9508916,9.7038678 7.0818166,10.817302 3.1425554,11.506567 2.4248644,10.788855 1.9221724,10.286115 4.2374629,6.4202248 4.8225839,6.4202248 z M26.681641,9.189453 C26.476182,9.189453 26.308594,9.347022 26.308594,9.541016 26.308594,9.735042 26.377341,9.894531 26.462891,9.894531 26.548441,9.894531 26.717986,9.735042 26.837891,9.541016 26.957796,9.347022 26.887106,9.189453 26.681641,9.189453 z M6.8270633,10.743801 C8.2390658,10.321938 8.7549746,10.434225 8.8954227,10.685207 9.0539629,10.968496 8.74713,11.12923 9.408203,11.263672 10.307861,11.446613 10.64003,11.71439 10.728516,12.330078 10.802116,12.842164 11.211203,13.290586 11.8125,13.517578 12.9646,13.952453 13.904089,15.736517 13.298838,16.341797 12.691773,16.948881 12.827096,17.301754 13.632822,17.208984 14.165967,17.147594 14.138336,18.070198 14.770053,19.181667 15.677445,20.778023 18.975985,21.37445&#xD;&#xA;20.29349,22.414089 21.462927,23.336881 21.968955,23.151901 20.958994,23.416016 20.31413,23.584649 20.265049,23.7001 20.648448,24.162109 21.019761,24.609551 21.015276,24.818402 20.619148,25.306641 20.234584,25.780766 20.230462,25.845605 20.603518,25.621094 20.809578,25.497095 21.121664,25.572795 18.771486,27.130859 18.734648,27.082517 18.690588,27.042546 18.666018,26.978516 18.536123,26.640089 18.117874,26.476009 17.558596,26.542969 16.836234,26.629429&#xD;&#xA;16.609848,26.460517 16.400393,25.681641 16.131883,24.683005 14.266949,24.76808 13.562503,24.894531 12.479233,25.08904 12.193977,25.00016 11.710941,24.310547 11.01223,23.312962 11.005252,23.129564 11.642581,22.492187 11.919158,22.215601 12.393946,21.395917 12.697269,20.669922 13.187069,19.497678 13.191244,19.265632 12.724609,18.599609 12.43569,18.187098 12.199219,17.16224 12.199219,16.322266 12.199219,14.970593 12.085624,14.756607 11.220703,14.455078&#xD;&#xA;10.683173,14.267691 10.08843,13.759242 9.898438,13.326172 9.645803,12.75041 9.199661,12.509507 8.236328,12.429687 7.0561934,12.331917 6.8270633,10.488838 6.8270633,10.743801 z M2.2578125,11.304687 C2.4168375,11.304687 2.9072853,11.720085 3.3476561,12.226563 3.9050001,12.867584 4.26069,13.034273 4.517578,12.777344 4.774499,12.520447 5.030711,12.552218 5.361328,12.882813 5.622567,13.14406 6.0072128,13.416468 6.2167968,13.486328 6.4813549,13.574498 10.788609,15.879189 10.787109,16.544922 10.787109,16.900137 10.141933,17.397684 9.123047,17.830078 8.208726,18.218098 7.3749554,18.573801 7.2714844,18.619141 7.1680134,18.664481 6.8457015,18.547778&#xD;&#xA;6.5546875,18.361328 6.2636745,18.174904 5.7477141,18.109178 5.4082031,18.214844 5.0686921,18.320477 4.7910156,18.238233 4.7910156,18.03125 4.7910156,17.82414 5.0292985,17.654297 5.3203125,17.654297 6.0680355,17.654297 5.9816269,17.381316 4.9511719,16.490234 4.4571469,16.062996 4.0172734,15.31708 3.9746094,14.832031 3.8756494,13.707672 3.3706855,12.899773 2.5859375,12.611328 1.9739415,12.386398 1.7023045,11.304687 2.2578125,11.304687 z M0.1289062,12.191406 A14,14.000001,0,0,0,0,13.984375 A14,14.000001,0,0,0,0.025391,14.720703 C0.054474,14.741173 0.08114,14.768263 0.111328,14.785153 0.6060042,12.340908 0.9952736,12.748604 1.1230472,13.257813 1.2986992,13.957645 1.5387859,14.122315 2.2753909,14.046875 2.9092349,13.981945 3.2050784,14.119845 3.2050784,14.480469 3.2050784,14.771492 3.0061572,14.968422 2.7636722,14.919922 2.2382619,14.814837 2.1732213,15.404228 2.6757812,15.714844 3.2423092,16.064999 3.1076957,17.31063 2.5273438,17.087891 1.8569577,16.83064 0.4801612,17.592352&#xD;&#xA;0.7695312,18.060547 0.8974602,18.26756 1.460949,18.337905 2.046875,18.220703 2.861978,18.057677 3.2426614,18.187566 3.7558589,18.802728 4.1190539,19.238054 4.4212839,19.713842 4.4277339,19.859369 4.4473939,20.305458 3.4514364,20.153073 3.2792964,19.683588 3.1554604,19.345843 3.0146349,19.339444 2.6777339,19.656248 2.4358299,19.883595 2.0173615,19.985414 1.7499995,19.882811 1.5420114,19.802991 1.4052185,19.819071 0.132812,15.775388 0.6824808,15.166048&#xD;&#xA;0.6798429,15.103329 0.111328,14.785153 0.08114,14.768263 0.054474,14.741173 0.1289062,12.191406 z M27.716797,12.728516 C27.629957,12.734516 27.543554,12.809716 27.449219,12.955078 27.30086,13.183649 26.863624,13.343174 26.478516,13.308594 27.793158,12.723213 27.871012,12.781037 27.724609,16.746094 26.083973,15.682878 24.905894,13.167478 26.478516,13.308594 26.863624,13.343174 27.30086,13.183649 27.449219,12.955078 27.543554,12.809716 27.629957,12.734516 27.716797,12.728516 z M10.750713,17.668926 C11.774044,17.628 12.893394,19.440352 12.403057,20.516582 11.983792,21.436764 10.705588,22.130689 10.183594,21.447263 9.723405,20.844851 8.896953,18.718072 9.064453,18.568356 9.139053,18.501686 9.518242,18.352141 9.90625,18.236325 9.973109,18.216375 10.682493,17.671629 10.750713,17.668926 z M5.7167969,19.451172 C5.382011,19.380062 5.4908001,19.514632 5.9394531,20.017578 6.2789641,20.398154 6.5566406,20.796698 6.5566406,20.904297 5.8283922,19.474876 5.9894808,19.520994 6.203125,19.583984 8.369729,20.222745 9.436737,21.672533 8.054688,22.099609 7.0014498,22.42508 6.5009719,22.756764 6.5292969,23.105469 6.5697669,23.603053 8.169286,23.509716 8.816406,22.972656 9.913822,22.061852 11.041581,23.964246 10.013672,24.992187 9.684441,25.321396 9.729495,25.416016&#xD;&#xA;10.21875,25.416016 10.564738,25.416016 10.785194,25.601442 10.708984,25.830078 10.562071,26.270861 10.042914,26.571744 4.9296875,24.642578 5.0546292,24.555107 4.0170852,23.380223 1.9921878,21.150428 2.0153958,21.162238 2.0344818,21.179058 2.0585938,21.189488 2.4950978,21.378229 3.12924,21.730714 3.46875,21.972691 3.962839,22.324842 4.209004,22.322507 4.703125,21.962891 5.042635,21.715758 5.5999741,21.420653 5.9394531,21.306641 6.2789641,21.192662&#xD;&#xA;6.5566406,21.011895 6.5566406,20.904297 6.5566406,20.796698 6.2789641,20.398154 5.9394531,20.017578 5.4908001,19.514632 5.382011,19.380062 5.7167969,19.451172 z M24.958984,20.554687 C24.984754,20.592057 25.108521,20.680975 25.337891,20.826172 24.908856,20.481989 25.463011,20.738803 25.853516,21.402344 25.744464,21.187438 25.559044,20.96616 25.337891,20.826172 25.108521,20.680975 24.984754,20.592057 24.958984,20.554687 z M22.244141,23.650391 C21.563759,23.650391 21.605892,23.87657 22.515625,25.083984 22.522847,23.650391 22.979938,24.00529 22.515625,25.083984 21.605892,23.87657 21.563759,23.650391 22.244141,23.650391 z M13.671873,25.529296 C13.381186,25.582807 12.975923,25.904061 12.517578,26.453125 11.97003,27.108998 11.379897,27.502718 11.154297,27.363281 13.768769,25.511456 13.852533,25.523546 13.921873,25.566406 14.256647,25.773322 14.217347,25.995696 13.753904,26.507813 13.171618,27.151214 13.186148,27.177734 14.121092,27.177734 14.883702,27.177734 15.046873,27.305563 14.871092,27.763672 14.855522,27.804126 14.861422,27.889275 10.347656,27.482422 10.59347,27.264441 10.879317,27.193328&#xD;&#xA;11.154297,27.363281 11.379897,27.502718 11.97003,27.108998 12.517578,26.453125 12.975923,25.904061 13.381186,25.582807 13.671873,25.529296 z M16.369141,27.646481 C16.311411,27.648484 16.256924,27.658584 16.207031,27.677734 16.461326,27.643311 16.568452,27.677391 15.9375,27.833984 15.996952,27.778389 16.07845,27.727074 16.207031,27.677734 16.256924,27.658584 16.311411,27.648484 16.369141,27.646481 z" fill="#FFFFFF" stroke-width="0.35274124"/>
  <path d="M 11.701172 2.6933594 A 14 14.000001 0 0 0 10.607422 3.09375 c -0.37094 0.4946448 -0.6757814 1.0550111 -0.6757814 1.4140625 0 0.734598 -0.9729132 1.4024216 -1.6757812 1.1503906 -0.242516 -0.086943 -0.4394532 0.00132 -0.4394532 0.1953125 0 0.194026 0.1969372 0.4212394 0.4394532 0.5058594 1.15687 0.403553 2.8558426 -0.9716655 2.5761716 -2.0859375 -0.140077 -0.558135 0.02814 -0.9462151 0.576172 -1.3300781 0.114378 -0.080113 0.210932 -0.1655267 0.292969 -0.25 z m 5.947266 1.1230468 C 17.475218 3.8466818 17.339844 4.0794815 17.339844 4.5 c 0 0.391951 0.23535 0.7070312 0.529297 0.7070312 0.59366 10e-8 0.616971 -0.065102 0.314453 -0.8535156 C 18.032367 3.9594211 17.821657 3.7861307 17.648438 3.8164062 Z M 7.453125 4.921875 A 14 14.000001 0 0 0 6.8242188 5.4492188 C 7.1677426 5.6599034 7.4327217 5.4640308 7.453125 4.921875 Z M 25.378906 6.0859375 C 24.958742 6.0507317 24.69856 6.25596 24.9375 6.6425781 c 0.111624 0.180588 0.625836 0.328125 1.142578 0.328125 h 0.59961 A 14 14.000001 0 0 0 26.152344 6.3710938 C 25.883604 6.2010309 25.607275 6.1050727 25.378906 6.0859375 Z m -6.601562 0.90625 c -0.359683 0.05149 -0.44352 0.3584612 -0.236328 0.8984375 0.210583 0.5487899 0.270059 0.543423 0.724609 -0.072266 0.429517 -0.5817558 0.424724 -0.6875739 -0.03711 -0.7910156 -0.180292 -0.04037 -0.331278 -0.05232 -0.451172 -0.035156 z m -6.84961 0.8046875 c -0.08164 0.013902 -0.147931 0.044341 -0.193359 0.09375 -0.118616 0.1289962 -0.0073 0.3082075 0.246094 0.3984375 0.253312 0.090198 0.649169 0.380674 0.880859 0.6445313 0.562177 0.6402762 0.951172 0.6275233 0.951172 -0.03125 0 -0.5006619 -1.313283 -1.2027803 -1.884766 -1.1054688 z m 10.019532 0.9296875 c -0.074 -0.00713 -0.155451 0.022644 -0.234375 0.1015625 -0.116422 0.1164607 -0.08748 0.4123272 0.06445 0.6582031 v 0.00195 c 0.222248 0.3581796 0.306295 0.3584374 0.425781 0 0.127872 -0.3836533 -0.03386 -0.7403324 -0.255859 -0.7617187 z m 2.417968 0.4042969 c -0.122539 -0.00503 -0.263308 0.017412 -0.390625 0.068359 C 23.69323 9.3118121 23.776581 9.39503 24.1875 9.412109 c 0.371831 0.015307 0.580089 -0.068345 0.462891 -0.1855469 -0.05862 -0.058537 -0.162617 -0.090672 -0.285157 -0.095703 z m -7.83789 0.3632812 c -0.03267 -0.00913 -0.06169 -0.00276 -0.08594 0.021484 -0.09703 0.097029 -0.07476 0.4423843 0.05078 0.7695314 0.125511 0.32715 0.307306 0.516952 0.404296 0.419922 0.09699 -0.097 0.07476 -0.444338 -0.05078 -0.7714846 C 16.75154 9.6882329 16.62535 9.5215202 16.527341 9.4941402 Z m 11.386718 0.1347656 c -0.390581 0.00402 -0.505893 0.5897968 -0.109374 0.9863278 0.395515 0.395496 0.822265 0.262768 0.822265 -0.255859 0 -0.27027 -0.238283 -0.5836533 -0.529297 -0.6953125 -0.06629 -0.025442 -0.127796 -0.03573 -0.183594 -0.035156 z m -8.068359 0.8691408 c -0.492957 0 -0.783624 1.080041 -0.511719 1.900391 0.237716 0.717229 0.255795 0.713438 0.501954 -0.136719 0.366864 -1.267179 0.368997 -1.763672 0.0098 -1.763672 z m -8.066406 0.115234 c -0.05374 -0.01776 -0.08399 -0.01578 -0.08399 0.0078 0 0.09435 -0.106595 0.449038 -0.236328 0.787109 -0.192119 0.500646 -0.08983 0.57574 0.550782 0.408203 0.505593 -0.132218 0.856696 -0.02563 0.980468 0.296875 0.214321 0.558554 0.822266 0.685346 0.822266 0.171875 0 -0.180782 -0.476598 -0.667587 -1.058594 -1.082031 -0.43652 -0.310833 -0.813394 -0.536556 -0.974609 -0.589844 z m 14.134765 0.923828 c -0.203861 0.03109 -0.567211 0.251529 -1.095703 0.658203 -0.537136 0.413318 -0.733303 0.827233 -0.580078 1.226563 0.337287 0.878998 0.771055 0.74177 1.38086 -0.4375 0.529317 -1.023603 0.634691 -1.49908 0.294921 -1.447266 z m -20.429687 0.01953 c -0.076237 0 -0.1386719 0.23632 -0.1386719 0.527343 0 0.291023 0.1538679 0.529297 0.3417969 0.529297 0.187897 0 0.2503279 -0.238274 0.1386719 -0.529297 C 5.7144839 11.792961 5.560615 11.556641 5.484375 11.556641 Z M 17.080078 12.0625 c -0.06567 0.0039 -0.147437 0.02344 -0.24414 0.06055 -0.305129 0.117105 -0.554688 0.44796 -0.554688 0.734375 0 0.694349 0.85128 0.387275 0.996094 -0.359375 0.05953 -0.306915 -2.6e-4 -0.447152 -0.197266 -0.435547 z m -2.910156 1.314453 c -0.227907 0.03432 -0.357422 0.198202 -0.357422 0.470703 -10e-7 0.338877 0.227278 0.533337 0.546875 0.466797 0.766155 -0.159514 0.813814 -0.784526 0.07031 -0.927734 -0.09653 -0.01859 -0.183797 -0.02121 -0.259766 -0.0098 z m 13.513672 0.144531 c -0.09933 -0.01452 -0.305096 0.05948 -0.650391 0.216797 -0.469631 0.214006 -0.772901 0.518622 -0.675781 0.675781 0.242485 0.392339 1.115669 0.01623 1.34375 -0.578124 0.0755 -0.196785 0.08176 -0.299932 -0.01758 -0.314454 z m -10.703125 0.695313 c -0.346994 0.03904 -0.214047 0.869603 0.402343 2.542969 0.329392 0.894208 1.015626 1.072065 1.015626 0.263672 0 -0.291023 -0.159528 -0.529297 -0.353516 -0.529297 -0.19402 0 -0.353516 -0.458271 -0.353516 -1.019532 0 -0.58543 -0.227173 -1.109135 -0.533203 -1.226562 -0.06912 -0.02652 -0.128164 -0.03683 -0.177734 -0.03125 z M 2.1933594 15.427734 c -0.053678 -0.0052 -0.1104727 0.01819 -0.1679688 0.05664 A 14 14.000001 0 0 0 2 16 14 14.000001 0 0 0 2.00391 16.130859 c 0.010312 0.01961 0.00968 0.03949 0.021484 0.05859 0.222248 0.358179 0.3043421 0.358437 0.4238282 0 C 2.5770915 15.8058 2.4153537 15.449121 2.1933594 15.427734 Z m 10.5195316 0.0078 c -0.19402 0 -0.254671 0.159522 -0.134766 0.353515 0.119905 0.194026 0.376292 0.353516 0.570313 0.353516 0.194017 0 0.25467 -0.15949 0.134765 -0.353516 -0.119905 -0.193994 -0.376324 -0.353515 -0.570312 -0.353515 z m -5.9550785 0.353515 c -0.19402 0 -0.3535156 0.238274 -0.3535156 0.529297 0 0.290991 0.1594956 0.529297 0.3535156 0.529297 0.193988 0 0.3515625 -0.238306 0.3515625 -0.529297 0 -0.291023 -0.1575745 -0.529297 -0.3515625 -0.529297 z m 21.4609375 0.37892 c -0.06257 0.0061 -0.112541 0.02466 -0.144531 0.05664 -0.275636 0.275646 0.897509 1.820979 1.685547 2.308594 a 14 14.000001 0 0 0 0.201172 -1.724609 c -0.232943 -0.008 -0.550461 -0.126228 -0.970704 -0.388672 -0.282426 -0.176386 -0.583761 -0.270231 -0.771484 -0.251953 z m -6.292969 1.736328 c -0.193988 0 -0.353515 0.238274 -0.353515 0.529297 0 0.291023 0.159527 0.529297 0.353515 0.529297 0.19402 0 0.351563 -0.238274 0.351563 -0.529297 0 -0.291023 -0.157543 -0.529297 -0.351563 -0.529297 z m -18.4316404 0.04102 c -0.098501 -0.0024 -0.2154694 0.0043 -0.3496094 0.02344 -0.4073803 0.05813 -0.7806099 0.353473 -0.8808593 0.671875 A 14 14.000001 0 0 0 2.375 19.136719 c 0.1245681 -0.0053 0.3161827 -0.07143 0.6523438 -0.22461 0.9782001 -0.445706 1.1563068 -0.950176 0.4667968 -0.966797 z m 8.7695314 0.365235 c -0.07305 0.01561 -0.18422 0.04877 -0.332031 0.0957 -0.355365 0.112856 -0.792569 0.205078 -0.970703 0.205078 -0.178133 0 -0.324219 0.157537 -0.324219 0.351563 0 0.510764 0.471755 0.433844 1.255859 -0.205079 0.469919 -0.382904 0.59024 -0.494108 0.371094 -0.447265 z m 14.193359 1.806641 c -1.235721 0.04927 -1.330641 0.108933 -0.785156 0.507812 0.881452 0.644527 2.637788 0.604633 2.384766 -0.05469 -0.130571 -0.340358 -0.661121 -0.490535 -1.59961 -0.453124 z m -7.05664 0.05078 C 18.988251 20.20133 18.850772 20.505501 19 21.076172 c 0.15693 0.600055 0.380458 0.703402 1.146484 0.535156 1.203466 -0.26434 2.565477 0.251059 4.177735 1.580078 0.695745 0.573474 1.331609 0.976985 1.412109 0.896485 0.305451 -0.30546 -1.417544 -2.302735 -1.986328 -2.302735 -0.327845 0 -1.363292 -0.409136 -2.300781 -0.908203 C 20.49905 20.371119 19.81253 20.134608 19.400391 20.167969 Z M 2.90625 20.933594 a 14 14.000001 0 0 0 0.1582031 0.388672 C 3.1307575 21.158921 3.0560997 21.024971 2.90625 20.933594 Z m 13.253906 0.992187 c -0.151499 -0.01816 -0.312893 0.05719 -0.404297 0.205078 -0.121838 0.197184 0.02567 0.359375 0.328125 0.359375 0.6196 0 0.709958 -0.211306 0.220704 -0.513672 -0.04515 -0.02791 -0.09403 -0.04473 -0.144532 -0.05078 z m -6.8847654 1.513672 c -0.711568 0.07208 -1.9295075 0.638143 -2.0820312 1.095703 -0.199498 0.598481 0.4490373 0.527846 0.9746094 -0.105468 0.2415179 -0.291024 0.7473488 -0.529297 1.1230468 -0.529297 0.375703 0 0.586625 -0.154997 0.46875 -0.345703 C 9.6932074 23.446992 9.51258 23.415425 9.2753906 23.439453 Z m 11.2656254 0.648438 c -0.579047 -0.0067 -1.026034 0.115249 -1.4375 0.365234 -0.732062 0.4448 -0.757036 0.502786 -0.140625 0.337891 0.408405 -0.109275 1.123254 -0.04717 1.58789 0.138672 1.08037 0.432196 1.778758 0.450036 2.390625 0.0625 0.389909 -0.246941 0.355172 -0.347235 -0.175781 -0.498047 -0.934493 -0.265485 -1.645562 -0.399588 -2.224609 -0.40625 z M 5.015625 24.597656 c -0.015653 -0.0015 -0.032655 0.0059 -0.048828 0.0078 a 14 14.000001 0 0 0 0.3417969 0.408203 C 5.285778 24.785356 5.1668099 24.612221 5.015625 24.597656 Z m 8.935547 0.455078 c -0.211007 -0.02988 -0.199652 0.399533 0.07422 1.113282 0.231013 0.601993 0.579924 0.664837 1.814453 0.333984 1.114173 -0.298596 0.990127 -0.835938 -0.19336 -0.835938 -0.543197 0 -1.179324 -0.189083 -1.412109 -0.421874 -0.118374 -0.118379 -0.212867 -0.179493 -0.283203 -0.189454 z M 11.300781 25.3125 c -0.194018 0 -0.25467 0.157536 -0.134765 0.351562 0.119905 0.193995 0.376325 0.353516 0.570312 0.353516 0.194021 0 0.254638 -0.159522 0.134766 -0.353516 C 11.751189 25.470037 11.494769 25.3125 11.300781 25.3125 Z m -3.410156 0.46875 c -0.1723339 -0.0146 -0.311543 0.003 -0.375 0.06641 -0.085135 0.08517 0.2247521 0.306315 0.6894531 0.492188 0.464668 0.185873 0.8850938 0.349078 0.9335938 0.361328 0.0485 0.01228 0.087891 -0.117691 0.087891 -0.289063 0 -0.253094 -0.8189359 -0.587053 -1.3359375 -0.630859 z m 13.837891 0.585938 c -0.526599 -0.01605 -1.281608 0.190028 -1.566407 0.533203 -0.241518 0.291023 -0.658548 0.529297 -0.925781 0.529297 -0.267265 0 -0.486328 0.157536 -0.486328 0.351562 0 0.194026 0.401486 0.353516 0.892578 0.353516 0.491092 0 0.98974 0.249988 1.107422 0.55664 0.06735 0.17548 0.17958 0.290988 0.330078 0.353516 a 14 14.000001 0 0 0 1.623047 -0.769531 c -0.01363 -0.006 -0.01919 -0.0095 -0.0332 -0.01563 -0.895083 -0.390373 -1.095925 -0.620862 -0.794922 -0.921875 0.221152 -0.221192 0.402344 -0.53032 0.402344 -0.685547 0 -0.185954 -0.232869 -0.275529 -0.548828 -0.285156 z m -10.867188 1.27539 c -0.215455 -0.0018 -0.443377 0.02146 -0.664062 0.07422 -0.3395114 0.08117 -0.6171879 0.287612 -0.6171879 0.458984 0 0.414671 2.0180509 0.400752 2.2753909 -0.01563 0.17802 -0.288066 -0.347776 -0.512185 -0.994141 -0.517578 z m 3.84961 2.208984 c -0.172374 -0.01498 -0.386811 -0.0014 -0.591797 0.0059 a 14 14.000001 0 0 0 1.097656 0.103516 c -0.152783 -0.04591 -0.306762 -0.09208 -0.505859 -0.109376 z" fill="#FFFFFF" stroke-width="0.35274124"/>
  <rect x="0" y="0" width="0" height="0" fill="none"/>
</svg>