<?xml version="1.0" encoding="UTF-8"?>
<svg xmlns="http://www.w3.org/2000/svg" width="32" height="32" viewBox="0 0 32 32">
  <title>PartialMCStipplePattern.Leather-2.Parameter</title>
  <path d="M 11.203125 1.984375 C 11.003214 3.4381654 10.069931 4.6234832 8.8046875 5.34375 C 8.6814813 5.5132472 8.5393097 5.6503906 8.4589844 5.6503906 C 8.4225885 5.6503906 8.3930689 5.6066875 8.3652344 5.5625 C 7.6288146 5.8994195 6.8109425 6.0996094 5.9589844 6.0996094 C 5.3949293 6.0996094 4.8368451 6.0186158 4.3007812 5.8613281 L 4.2910156 5.8789062 C 4.388463 6.0674691 4.6475796 6.3485369 4.9667969 6.5996094 C 5.4539849 6.9826094 5.5194219 7.1349063 5.1386719 7.0039062 C 4.8009849 6.8877812 4.1992818 7.1564688 3.7929688 7.6054688 C 3.0725817 8.4011564 3.0740974 8.4124376 3.8183594 8.1328125 C 4.4881094 7.88125 4.515 7.9243749 4.046875 8.5 C 3.582006 9.07155 3.6426503 9.1997498 4.5351562 9.5390625 C 5.0953812 9.7520625 5.5527344 10.018171 5.5527344 10.130859 C 5.5527344 10.243551 5.5088281 10.316016 5.4550781 10.291016 C 5.4013881 10.266076 5.0197818 10.158422 4.6054688 10.052734 C 3.6457605 9.8080816 2.9729309 9.0458634 2.8457031 8.3789062 L 2.4980469 8.9804688 C 4.3678577 9.9964228 5.6436059 11.882117 6.2050781 14.091797 C 6.2372243 14.037923 6.2853638 14.014056 6.3574219 14.058594 C 6.5452349 14.1747 6.6765625 14.8779 6.6484375 15.621094 C 6.6275739 16.176087 6.575954 16.653905 6.5214844 16.861328 C 6.5212459 16.862236 6.521723 16.864337 6.5214844 16.865234 C 6.4628283 20.104673 4.9504107 23.087947 2.3808594 24.414062 C 2.4085865 24.482198 2.4296875 24.550312 2.4296875 24.615234 C 2.4296875 24.927471 2.67175 25.053813 3.015625 24.921875 C 3.3377501 24.79825 3.6015625 24.903045 3.6015625 25.154297 C 3.6015625 25.405482 3.2937818 25.56188 2.9179688 25.5 C 2.887157 25.494932 2.8506132 25.503352 2.8183594 25.5 L 4.5976562 28.576172 C 4.7775335 28.469355 4.9680999 28.382468 5.1582031 28.294922 C 5.0257548 28.226301 4.9205193 28.126506 4.8769531 28.001953 C 4.7635781 27.677637 4.9326734 27.601501 5.3808594 27.773438 C 5.8058344 27.936501 6.2436099 27.777138 6.5605469 27.34375 C 6.8373219 26.965254 7.2329531 26.761047 7.4394531 26.888672 C 7.6460151 27.016298 7.9139844 26.857981 8.0371094 26.537109 C 8.1863404 26.148234 8.0196593 25.953125 7.5351562 25.953125 C 7.1353753 25.953125 6.6918901 25.645343 6.5488281 25.269531 C 6.4445461 24.995593 6.40282 24.849555 6.4375 24.820312 C 6.47218 24.791072 6.5821719 24.878563 6.7792969 25.074219 C 7.0497159 25.342656 7.6590625 25.5625 8.1328125 25.5625 C 8.9111875 25.5625 8.9509067 25.655959 8.5429688 26.535156 C 8.2947508 27.070194 7.9159219 27.449966 7.7011719 27.378906 C 7.5651405 27.333904 7.3623659 27.489925 7.1679688 27.742188 C 7.4192064 27.714793 7.6718178 27.693359 7.9277344 27.693359 C 9.8681943 27.693359 11.707426 28.468361 12.794922 29.958984 C 13.073436 29.595221 13.231772 29.584085 13.505859 30.015625 L 17.658203 30.015625 C 17.639699 29.992588 17.626463 29.979358 17.607422 29.955078 C 17.364587 29.645422 17.247424 29.486954 17.267578 29.466797 C 17.287728 29.446637 17.446203 29.563797 17.755859 29.806641 C 17.848999 29.87969 17.913187 29.944622 17.994141 30.015625 L 18.361328 30.015625 L 18.599609 29.6875 L 18.646484 29.634766 C 19.782837 28.343884 21.487476 27.693359 23.273438 27.693359 C 24.462888 27.693359 25.614489 27.990014 26.601562 28.576172 L 27.523438 26.982422 C 27.377481 26.897115 27.227839 26.779253 27.072266 26.591797 C 26.804206 26.26883 26.79592 26.150905 27.140625 26.175781 C 27.255526 26.184081 27.408239 26.208394 27.605469 26.246094 C 27.715634 26.267151 27.810805 26.297051 27.902344 26.328125 L 28.960938 24.498047 C 28.020428 24.043057 27.226109 23.357658 26.576172 22.529297 C 26.49823 22.600384 26.431842 22.666947 26.341797 22.742188 C 24.903966 23.9436 24.823606 24.244625 25.6875 25.199219 C 26.09275 25.647006 26.158563 25.962374 25.882812 26.132812 C 25.654062 26.274124 25.466797 26.204003 25.466797 25.976562 C 25.466797 25.749125 25.184969 25.5625 24.839844 25.5625 C 24.429849 25.5625 24.293266 25.350594 24.447266 24.949219 C 24.712153 24.258962 24.07256 22.851546 23.201172 22.208984 C 22.736047 21.86594 22.714953 21.639234 23.095703 21.037109 C 23.315078 20.690265 23.429563 20.519186 23.466797 20.541016 C 23.504027 20.562846 23.465 20.77846 23.375 21.201172 C 23.228875 21.888965 23.32188 22.055985 23.757812 21.888672 C 24.075125 21.766797 24.233875 21.831701 24.109375 22.033203 C 23.984812 22.234733 24.209045 22.573922 24.607422 22.787109 C 25.162522 23.084197 25.482719 22.997391 25.980469 22.416016 C 26.07074 22.310583 26.171468 22.212004 26.275391 22.121094 C 25.242181 20.612434 24.666016 18.688847 24.666016 16.671875 C 24.666016 16.007225 24.74291 15.357825 24.861328 14.724609 C 24.204463 14.213432 23.52921 13.458984 23.839844 13.458984 C 24.018781 13.458984 24.288125 13.581094 24.4375 13.730469 C 24.604401 13.897371 24.802226 13.987132 25.007812 14.041016 C 25.576087 11.853458 26.847738 9.9885409 28.703125 8.9804688 L 27.224609 6.4199219 C 27.225407 6.4242357 27.223773 6.4272955 27.224609 6.4316406 C 27.325797 6.9566281 27.163609 7.2128906 26.732422 7.2128906 C 25.945466 7.2128906 26.539903 7.8582344 27.505859 8.0527344 C 28.001546 8.1525404 28.080312 8.3420625 27.804688 8.7734375 C 27.555749 9.163 27.429681 9.1957189 27.425781 8.8710938 C 27.422581 8.6026564 27.200079 8.3805131 26.931641 8.3769531 C 26.663222 8.3736411 26.186609 8.2081407 25.873047 8.0097656 C 25.384266 7.7006094 25.404578 7.5367876 26.017578 6.859375 C 26.277107 6.5726436 26.454488 6.2283056 26.523438 5.9433594 C 26.369375 5.9777063 26.217187 6.0191527 26.060547 6.0410156 C 26.169096 6.152277 26.248047 6.2455965 26.248047 6.2832031 C 26.248047 6.5410005 26.034745 6.4445749 25.689453 6.0664062 C 25.54036 6.0777229 25.392415 6.0996094 25.242188 6.0996094 C 22.670417 6.0996094 20.330528 4.4022203 19.998047 1.984375 L 15.378906 1.984375 C 15.337815 2.0568679 15.314453 2.1473128 15.314453 2.2617188 C 15.314453 3.4815241 14.770414 3.1806095 14.669922 1.984375 L 11.203125 1.984375 z M 16.765625 4.21875 C 16.980106 4.205273 17.210679 4.28882 17.398438 4.4921875 C 17.749621 4.8726875 17.731628 4.9157031 17.320312 4.6816406 C 17.005375 4.5023906 16.651094 4.5973286 16.449219 4.9160156 C 16.225157 5.2698277 16.105463 5.2959843 16.101562 4.9902344 C 16.095662 4.5333984 16.408157 4.2412109 16.765625 4.21875 z M 12.707031 5.078125 C 12.905608 5.088522 13.195572 5.29975 13.767578 5.7226562 C 15.127946 6.7283938 15.170036 6.8116719 14.179688 6.5527344 C 13.671748 6.4198844 13.388016 6.5877504 13.291016 7.078125 C 13.188079 7.5982501 13.063547 7.6633596 12.841797 7.3105469 C 12.673105 7.0421283 12.663111 6.6164843 12.818359 6.3652344 C 13.008984 6.0567968 12.886159 5.9894687 12.441406 6.1601562 C 11.887343 6.3727813 11.84725 6.2910001 12.195312 5.640625 C 12.399881 5.2583812 12.508455 5.0677281 12.707031 5.078125 z M 22.761719 5.8554688 C 23.158779 5.8941878 23.634031 6.0285626 23.828125 6.2226562 C 23.942231 6.3367812 23.665579 6.4296875 23.212891 6.4296875 C 22.760266 6.4296875 22.285906 6.264047 22.160156 6.0605469 C 22.044941 5.8741407 22.364659 5.8167501 22.761719 5.8554688 z M 7.5527344 6.21875 C 7.7370004 6.191278 7.7998756 6.2695631 7.6972656 6.4355469 C 7.5660786 6.6478594 7.2938599 6.8222656 7.0917969 6.8222656 C 6.5301659 6.8222656 6.6536281 6.5408125 7.3300781 6.28125 C 7.4169381 6.247906 7.4913124 6.227907 7.5527344 6.21875 z M 3.7597656 6.7988281 L 3.4628906 7.3105469 C 3.6450889 7.2018739 3.7589777 7.0103463 3.7597656 6.7988281 z M 17.242188 7.8574219 C 17.355194 7.8831779 17.464844 8.1089938 17.480469 8.5136719 C 17.490169 8.764235 17.740093 8.9154213 18.035156 8.8496094 C 18.476776 8.7510464 18.481843 8.8373284 18.066406 9.3378906 C 17.788999 9.6721407 17.363219 9.9430231 17.121094 9.9394531 C 16.878906 9.9361531 16.945453 9.7628745 17.267578 9.5546875 C 17.617328 9.3286248 17.665672 9.1734919 17.388672 9.1699219 C 17.133547 9.1666419 16.950552 8.8206406 16.982422 8.4003906 C 17.012142 8.0060624 17.129179 7.8316657 17.242188 7.8574219 z M 23.048828 7.9921875 C 23.156203 7.9921875 22.927751 8.3439375 22.539062 8.7734375 C 22.15035 9.2029313 21.744094 9.5546875 21.636719 9.5546875 C 21.529344 9.5546875 21.75975 9.2029376 22.148438 8.7734375 C 22.53715 8.3439188 22.941453 7.9921875 23.048828 7.9921875 z M 13.224609 8.0957031 C 13.274749 8.1178201 13.237166 8.2565624 13.134766 8.5234375 C 12.999503 8.875925 12.634078 9.1640625 12.322266 9.1640625 C 12.010703 9.1640625 11.844313 9.3082503 11.953125 9.484375 C 12.358688 10.140563 12.524969 11.909094 12.160156 11.683594 C 11.955026 11.556969 11.881719 11.30225 11.996094 11.117188 C 12.110469 10.932063 12.020434 10.667484 11.796875 10.529297 C 11.573312 10.391104 11.416636 10.422549 11.447266 10.599609 C 11.477916 10.776621 11.482001 11.105516 11.457031 11.330078 C 11.431601 11.55464 10.825841 11.778052 10.111328 11.826172 C 9.1948901 11.887882 8.5901729 11.664734 8.0605469 11.068359 C 7.3105908 10.223859 7.3123128 10.223454 8.2148438 10.697266 C 8.8998877 11.056896 9.2499215 11.062763 9.6621094 10.720703 C 9.9610962 10.472583 10.4145 10.399532 10.671875 10.558594 C 10.957192 10.734969 11.038656 10.682266 10.878906 10.423828 C 10.734844 10.190753 10.808146 9.8822183 11.041016 9.7382812 C 11.273766 9.5943122 11.372782 9.2386563 11.261719 8.9492188 C 11.131157 8.6087812 11.261984 8.5010156 11.630859 8.6425781 C 11.94479 8.7630156 12.466703 8.6402782 12.791016 8.3710938 C 13.036547 8.1673125 13.174469 8.0735859 13.224609 8.0957031 z M 6.4433594 9.703125 C 6.4844194 9.662065 6.5392495 9.7153447 6.6015625 9.8710938 L 6.5996094 9.8710938 C 6.7126094 10.152926 6.7000655 10.491344 6.5703125 10.621094 C 6.4405625 10.750863 6.3483594 10.518984 6.3652344 10.107422 C 6.3745344 9.8799851 6.4022994 9.744188 6.4433594 9.703125 z M 24.652344 10.935547 C 24.935617 10.912737 25.253328 11.097856 25.365234 11.507812 C 25.504922 12.019562 25.475578 12.019481 25.126953 11.517578 C 24.54339 10.677398 24.156469 11.298193 24.667969 12.253906 C 25.018282 12.908443 24.990594 13.068359 24.527344 13.068359 C 24.210325 13.068359 23.841672 12.892484 23.708984 12.677734 C 23.576234 12.462984 23.634334 12.287109 23.837891 12.287109 C 24.041454 12.287109 24.184297 11.981282 24.154297 11.605469 C 24.121267 11.18915 24.36907 10.958361 24.652344 10.935547 z M 14.111328 11.945312 C 14.246967 11.950912 14.362859 11.987862 14.427734 12.052734 C 14.557477 12.182487 14.327641 12.274693 13.916016 12.257812 C 13.461141 12.239123 13.368186 12.146109 13.679688 12.021484 C 13.820619 11.964984 13.975689 11.939743 14.111328 11.945312 z M 10.007812 12.574219 C 10.169534 12.562329 10.306219 12.697125 10.519531 12.96875 C 10.781156 13.301825 10.910406 13.708297 10.808594 13.873047 C 10.706719 14.03786 10.836514 14.243708 11.095703 14.330078 C 11.439448 14.444703 11.447309 14.560579 11.125 14.759766 C 10.573887 15.100379 10.095812 14.396406 10.46875 13.792969 C 10.659875 13.483721 10.422411 13.40825 9.6972656 13.546875 C 8.6920966 13.739019 8.6769591 13.718043 9.3457031 13.054688 C 9.6585251 12.744374 9.8460912 12.58611 10.007812 12.574219 z M 15.21875 13.751953 C 15.254646 13.737828 15.297616 13.741095 15.347656 13.759766 C 15.414376 13.784666 15.495609 13.838146 15.591797 13.917969 C 16.168234 14.396531 16.274593 14.786579 15.738281 14.455078 C 15.541906 14.333703 15.297171 14.454859 15.193359 14.724609 C 15.089479 14.994372 15.022422 14.829672 15.044922 14.357422 C 15.062854 13.988738 15.111062 13.794328 15.21875 13.751953 z M 7.8632812 14.041016 C 7.9332912 14.048616 8.0112659 14.068709 8.0917969 14.099609 C 8.4139219 14.223234 8.6777344 14.392193 8.6777344 14.476562 C 8.6777344 14.560942 8.4139219 14.630859 8.0917969 14.630859 C 7.7696719 14.630859 7.5058594 14.459953 7.5058594 14.251953 C 7.5058594 14.096042 7.6532572 14.018081 7.8632812 14.041016 z M 22.056641 14.548828 C 22.23301 14.531138 22.34375 14.568738 22.34375 14.666016 C 22.34375 14.860579 22.157125 15.021484 21.929688 15.021484 C 21.70225 15.021484 21.643578 15.225312 21.798828 15.476562 C 21.98864 15.783691 21.868518 15.853172 21.431641 15.685547 C 21.074285 15.548422 20.78125 15.606456 20.78125 15.814453 C 20.78125 16.337893 20.106015 16.289816 19.767578 15.742188 C 19.594953 15.462875 19.660141 15.395734 19.939453 15.568359 C 20.187391 15.721359 20.394531 15.705 20.394531 15.53125 C 20.396131 15.357519 20.833891 15.011922 21.369141 14.763672 C 21.636744 14.63955 21.880271 14.566523 22.056641 14.548828 z M 8.2070312 15.544922 C 8.2655413 15.550122 8.3187342 15.574591 8.3632812 15.619141 C 8.4739692 15.729685 8.4825444 16.255234 8.3808594 16.787109 C 8.1659784 17.911346 7.1152344 18.104049 7.1152344 17.019531 C 7.1152344 16.357784 7.7974293 15.508296 8.2070312 15.544922 z M 15.175781 17.074219 C 15.226511 17.095669 15.188748 17.235968 15.085938 17.503906 C 14.950688 17.85645 14.683938 18.144531 14.492188 18.144531 C 13.990049 18.144531 14.060725 17.917781 14.738281 17.355469 C 14.986875 17.149157 15.125055 17.052766 15.175781 17.074219 z M 13.144531 17.753906 C 13.479281 17.753906 13.751953 17.929781 13.751953 18.144531 C 13.752016 18.359343 13.586829 18.535156 13.384766 18.535156 C 13.182704 18.535156 12.910094 18.359281 12.777344 18.144531 C 12.644594 17.929781 12.809714 17.753906 13.144531 17.753906 z M 23.697266 17.943359 C 23.86003 17.998119 24.138469 18.229579 24.410156 18.546875 C 24.772469 18.969981 24.916781 19.314453 24.730469 19.314453 C 24.301106 19.314452 23.345375 18.183922 23.578125 17.951172 C 23.602055 17.927242 23.643015 17.925089 23.697266 17.943359 z M 11.662109 18.144531 C 11.920209 18.144531 11.555188 19.689343 11.226562 19.988281 C 11.04362 20.154843 11.02128 20.071171 11.175781 19.802734 C 11.330219 19.534297 11.283719 19.314453 11.074219 19.314453 C 10.864657 19.314452 10.632701 19.502281 10.556641 19.730469 C 10.480521 19.958659 10.293312 20.019875 10.140625 19.867188 C 9.9106617 19.637187 11.228985 18.144531 11.662109 18.144531 z M 8.3945312 18.291016 C 8.4355912 18.249956 8.4904214 18.305186 8.5527344 18.460938 C 8.6657344 18.742774 8.6512344 19.079234 8.5214844 19.208984 C 8.3917344 19.33869 8.2995313 19.108891 8.3164062 18.697266 C 8.3257062 18.469828 8.3534712 18.332079 8.3945312 18.291016 z M 22.810547 19.324219 C 22.851907 19.329519 22.888517 19.344087 22.916016 19.373047 C 22.987456 19.448217 22.798547 19.736734 22.498047 20.013672 C 22.197547 20.290609 21.953125 20.345266 21.953125 20.134766 C 21.953125 19.779975 22.520998 19.286948 22.810547 19.324219 z M 8.5488281 19.705078 C 8.5696129 19.694209 8.5885243 19.6945 8.6054688 19.708984 C 8.6506587 19.747614 8.6809338 19.880667 8.6835938 20.128906 C 8.6884937 20.584406 8.7547832 20.57795 9.0664062 20.095703 C 9.2938433 19.743765 9.4476019 19.695171 9.4511719 19.974609 C 9.4543719 20.23039 9.2688755 20.557157 9.0390625 20.699219 C 8.8092435 20.841257 8.4607969 21.333735 8.2636719 21.794922 C 7.9722338 22.476791 7.9363594 22.389957 8.0683594 21.328125 C 8.1775428 20.44994 8.4033344 19.781161 8.5488281 19.705078 z M 18.265625 21.267578 C 18.360315 21.267579 18.4375 21.443453 18.4375 21.658203 C 18.4375 21.872953 18.252766 22.048828 18.025391 22.048828 C 17.798204 22.048828 17.720828 21.872952 17.853516 21.658203 C 17.986203 21.44339 18.170935 21.267578 18.265625 21.267578 z M 21.019531 21.402344 C 21.066201 21.410144 21.118191 21.429701 21.171875 21.462891 C 21.386625 21.595578 21.5625 21.782263 21.5625 21.876953 C 21.5625 21.971643 21.386625 22.048828 21.171875 22.048828 C 20.957125 22.048828 20.78125 21.862204 20.78125 21.634766 C 20.78125 21.464376 20.87952 21.378857 21.019531 21.402344 z M 17.443359 22.306641 C 17.531929 22.306309 17.631594 22.319746 17.738281 22.347656 C 18.140531 22.452844 18.370172 22.637641 18.248047 22.759766 C 17.810484 23.197391 17.005859 23.123219 17.005859 22.644531 C 17.005859 22.430871 17.177657 22.307636 17.443359 22.306641 z M 16.347656 22.578125 C 16.438196 22.590785 16.477781 22.827987 16.480469 23.316406 C 16.486969 24.482406 16.295391 24.692851 15.978516 23.867188 C 15.868016 23.579256 15.933376 23.095657 16.125 22.792969 C 16.22006 22.642793 16.293331 22.570529 16.347656 22.578125 z M 11.128906 22.976562 C 11.169966 22.935513 11.224796 22.990732 11.287109 23.146484 C 11.400104 23.428315 11.385609 23.764781 11.255859 23.894531 C 11.126107 24.024274 11.033911 23.794438 11.050781 23.382812 C 11.060081 23.155375 11.087846 23.017609 11.128906 22.976562 z M 4.7949219 23.21875 C 5.0221099 23.21875 5.0995469 23.394625 4.9667969 23.609375 C 4.8340469 23.824125 4.6493755 24 4.5546875 24 C 4.4599975 24 4.3808594 23.824125 4.3808594 23.609375 C 4.3808594 23.394563 4.5674849 23.21875 4.7949219 23.21875 z M 18.056641 24.78125 C 18.279954 24.78125 18.566172 25.053328 18.693359 25.384766 C 19.044815 26.300535 18.665699 26.407609 18.126953 25.544922 C 17.825271 25.061884 17.799702 24.78125 18.056641 24.78125 z M 11.435547 25.294922 C 11.561672 25.306932 11.689172 25.331954 11.8125 25.371094 C 12.393437 25.555469 12.53039 25.744172 12.220703 25.935547 C 11.933634 26.112961 11.855356 26.619622 12.015625 27.259766 C 12.158031 27.828946 12.169576 28.294922 12.039062 28.294922 C 11.908437 28.294922 11.800781 28.022312 11.800781 27.6875 C 11.800781 27.342037 11.614641 27.194016 11.369141 27.345703 C 11.078266 27.525522 11.022032 27.341603 11.199219 26.783203 C 11.399969 26.150747 11.299375 25.953125 10.773438 25.953125 C 10.271748 25.953125 10.199656 25.835499 10.511719 25.523438 C 10.693875 25.34133 11.057171 25.258888 11.435547 25.294922 z M 21 26.734375 C 21.09469 26.734375 21.171875 26.910249 21.171875 27.125 C 21.171875 27.339812 20.985249 27.515625 20.757812 27.515625 C 20.530625 27.515625 20.453187 27.33975 20.585938 27.125 C 20.718625 26.910249 20.90531 26.734375 21 26.734375 z M 18.65625 28.685547 C 18.75094 28.685547 18.828125 28.861422 18.828125 29.076172 C 18.828125 29.290984 18.643454 29.466797 18.416016 29.466797 C 18.188829 29.466797 18.109437 29.290922 18.242188 29.076172 C 18.374938 28.861422 18.56156 28.685547 18.65625 28.685547 z " fill="#FFFFFF" stroke-width="0.39046121"/>
  <path d="M 12.492188 1.984375 C 12.51215 2.1043042 12.501487 2.1041939 12.542969 2.3164062 C 12.654902 2.8892 12.613805 3.4315464 12.453125 3.5214844 C 12.292375 3.6114844 12.380006 3.631844 12.648438 3.5664062 C 12.932001 3.4972752 13.136719 3.8235155 13.136719 4.3457031 C 13.136719 4.8400593 13.255313 5.3627344 13.398438 5.5058594 C 13.823875 5.9312782 13.909719 5.8055469 13.652344 5.1347656 C 13.445663 4.5961406 13.533928 4.5706563 14.255859 4.9570312 C 14.943991 5.3253438 15.143968 5.2967656 15.332031 4.8066406 C 15.459193 4.4752656 15.882484 4.203125 16.271484 4.203125 C 17.195491 4.203125 18.212891 3.8048594 18.212891 3.4433594 C 18.212891 2.9235469 16.099688 2.1482656 15.945312 2.6113281 C 15.868002 2.8433282 15.556203 3.0332031 15.251953 3.0332031 C 14.947703 3.0332031 14.699219 3.2151875 14.699219 3.4375 C 14.699219 4.1093125 13.136547 3.0776313 12.716797 2.1289062 C 12.672007 2.0276736 12.676601 2.0582012 12.642578 1.984375 L 12.492188 1.984375 z M 18.791016 1.984375 C 18.673981 1.9885767 18.603516 2.1721829 18.603516 2.53125 C 18.603515 2.9861501 18.497563 3.636875 18.367188 3.9765625 C 18.236812 4.3162501 18.302937 4.59375 18.515625 4.59375 C 19.044435 4.59375 19.411844 2.5361719 18.964844 2.0761719 C 18.912501 2.0222981 18.866386 1.9948135 18.824219 1.984375 L 18.791016 1.984375 z M 14.201172 2.0449219 C 14.039429 2.0549439 13.867735 2.2085624 13.775391 2.4492188 C 13.652266 2.7701 13.71289 3.03125 13.908203 3.03125 C 14.437516 3.03125 14.764906 2.3370469 14.355469 2.0839844 C 14.306529 2.0537504 14.255086 2.0415814 14.201172 2.0449219 z M 11.117188 2.3359375 C 11.056065 2.6059283 10.972622 2.86525 10.863281 3.1132812 C 11.060608 3.189335 11.237024 3.3228362 11.316406 3.5195312 C 11.424718 3.7879688 11.528042 3.6339064 11.544922 3.1757812 C 11.559959 2.7694628 11.421021 2.5063357 11.117188 2.3359375 z M 20.267578 2.9667969 C 20.245435 3.1221097 20.244275 3.289327 20.287109 3.453125 C 20.395859 3.8689937 20.284909 4.1425 20.027344 4.09375 C 19.774469 4.046169 19.589693 4.4760938 19.601562 5.0820312 C 19.624633 6.2217813 19.114797 6.5331064 18.755859 5.5976562 C 18.526497 4.9999686 17.042969 4.9153124 17.042969 5.5 C 17.042969 5.691875 16.814547 5.7626875 16.537109 5.65625 C 15.816466 5.3797 14.909719 6.2016999 14.800781 7.2304688 C 14.691306 8.2644626 15.52275 8.4011094 16.425781 7.4980469 C 16.761613 7.1624843 17.213313 6.9971094 17.429688 7.1308594 C 17.646126 7.2646094 17.827784 7.0564683 17.833984 6.6679688 C 17.845234 6.0012811 17.868515 5.9996504 18.244141 6.6445312 C 18.463017 7.0203312 19.093281 7.328125 19.644531 7.328125 C 20.500556 7.328125 20.620892 7.1858938 20.462891 6.359375 C 20.326129 5.6438812 20.4757 5.3298281 21.041016 5.1503906 C 21.430347 5.0268319 21.580195 4.8972652 21.535156 4.7246094 C 20.979938 4.2388448 20.537472 3.6478747 20.267578 2.9667969 z M 11.404297 4.3261719 C 11.284547 4.3694829 11.085051 4.5836812 10.757812 4.9824219 C 10.178794 5.6880469 9.8982819 5.813547 9.7460938 5.4355469 C 9.5966123 5.0642591 9.4068592 5.1612811 9.0917969 5.7695312 C 8.6305842 6.6599688 6.109375 7.9574188 6.109375 7.3046875 C 6.109375 7.1003125 5.9426094 6.9335937 5.7402344 6.9335938 C 5.5376296 6.9335938 5.4464682 7.3111719 5.5351562 7.7714844 C 5.7553812 8.9148407 5.3753126 9.412047 4.7070312 8.8574219 C 4.2714061 8.4958594 4.15625 8.5323749 4.15625 9.03125 C 4.15625 9.517125 4.4939874 9.6395934 5.6210938 9.5664062 C 6.8225374 9.4883943 7.0742188 9.5979533 7.0273438 10.173828 C 6.9744817 10.821141 7.0423317 10.828703 7.8867188 10.275391 C 8.4356563 9.9157026 8.8950312 9.8279369 9.0351562 10.054688 C 9.3839438 10.618987 10.794922 9.6073938 10.794922 8.7929688 C 10.794922 8.3701874 11.090062 8.1054688 11.5625 8.1054688 C 12.318337 8.1054688 12.317416 8.0840129 11.523438 6.7382812 C 11.072624 5.9742437 10.906609 5.3710938 11.146484 5.3710938 C 11.382422 5.3710938 11.571006 5.0652656 11.566406 4.6894531 C 11.562806 4.4103437 11.524046 4.2828609 11.404297 4.3261719 z M 23.679688 5.8691406 L 24.248047 6.7441406 L 24.355469 6.0273438 C 24.124013 5.9918711 23.902155 5.9311118 23.679688 5.8691406 z M 6.78125 6.03125 C 6.6637863 6.0479391 6.5429801 6.05098 6.4238281 6.0605469 C 6.5877278 6.1336763 6.7112255 6.1247589 6.78125 6.03125 z M 21.337891 6.1796875 C 21.278611 6.1758475 21.319168 6.3131562 21.423828 6.5898438 C 21.600609 7.0572937 21.303816 7.3272344 20.263672 7.6464844 C 19.495015 7.8824219 18.70036 7.9726563 18.498047 7.8476562 C 18.285675 7.7164126 18.236874 7.958156 18.382812 8.4179688 C 18.563412 8.9869438 18.383034 9.3900313 17.751953 9.8320312 C 16.479096 10.723619 15.607661 10.622588 15.644531 9.5859375 C 15.686971 8.4000437 14.682651 8.2881063 13.355469 9.3320312 C 12.359719 10.115306 12.319 10.238703 12.914062 10.673828 C 13.419187 11.043184 13.45261 11.208 13.060547 11.390625 C 12.780735 11.520875 13.034437 11.534625 13.625 11.421875 C 14.509494 11.253038 14.699219 11.356445 14.699219 12.005859 C 14.699219 12.595834 14.95611 12.794922 15.720703 12.794922 C 16.557115 12.794922 16.705781 12.939422 16.535156 13.591797 C 16.361262 14.256797 16.465786 14.348016 17.171875 14.150391 C 17.779375 13.980329 17.866781 14.019734 17.480469 14.287109 C 17.184469 14.491928 17.060265 14.851625 17.205078 15.085938 C 17.34989 15.320256 17.279128 15.866843 17.046875 16.300781 C 16.761933 16.833024 16.756612 17.089844 17.029297 17.089844 C 17.579417 17.089844 17.542767 18.15825 16.986328 18.34375 C 16.700059 18.43917 16.868093 18.994146 17.457031 19.892578 L 17.458984 19.892578 C 18.298196 21.172875 18.528956 21.288672 20.175781 21.263672 L 21.976562 21.238281 L 21.511719 19.886719 C 21.256181 19.143388 20.687563 18.253844 20.25 17.910156 C 19.701338 17.479187 19.413765 16.720141 19.322266 15.466797 C 19.249266 14.467247 19.32136 13.730518 19.482422 13.830078 C 19.93836 14.111872 19.827657 13.392172 19.339844 12.904297 C 19.018125 12.582622 19.119077 12.331797 19.728516 11.951172 C 20.183366 11.667128 20.556641 11.030656 20.556641 10.535156 C 20.556642 10.039694 20.996266 9.2260781 21.533203 8.7285156 C 22.688732 7.6575145 22.715549 7.477125 21.847656 6.6171875 C 21.55625 6.328375 21.397173 6.1835312 21.337891 6.1796875 z M 13.917969 6.9375 C 13.703156 6.9375 13.527344 7.2101094 13.527344 7.5449219 C 13.527344 7.8798594 13.703219 8.0468125 13.917969 7.9140625 C 14.132719 7.781375 14.308594 7.50675 14.308594 7.3046875 C 14.308594 7.1025625 14.132719 6.9375 13.917969 6.9375 z M 23.955078 7.9257812 C 23.556276 7.9235213 23.25 8.0368843 23.146484 8.3066406 C 22.994784 8.7018906 23.170214 8.8886719 23.691406 8.8886719 C 24.521969 8.8886719 24.777913 9.6405317 23.972656 9.7148438 C 23.7042 9.7396558 23.220562 9.78375 22.898438 9.8125 C 22.575594 9.8415 22.260563 10.322203 22.195312 10.884766 C 22.121833 11.51781 21.713719 12.071797 21.121094 12.341797 C 20.595612 12.581216 20.166016 13.064969 20.166016 13.417969 C 20.166016 13.944219 20.271703 13.972781 20.751953 13.574219 C 21.22414 13.182531 21.33875 13.192938 21.34375 13.625 C 21.34865 14.067812 21.406811 14.069049 21.679688 13.638672 C 21.927063 13.248378 22.067624 13.342303 22.242188 14.009766 C 22.370375 14.499947 22.306097 15.106296 22.097656 15.357422 C 21.843468 15.663722 21.911438 15.974406 22.304688 16.300781 C 22.627246 16.568356 22.785062 16.957516 22.65625 17.166016 C 22.522775 17.382209 22.818375 17.488169 23.34375 17.412109 C 23.850768 17.338669 24.470703 17.541031 24.720703 17.863281 C 24.725188 17.869063 24.733621 17.873161 24.738281 17.878906 C 24.693101 17.481738 24.666016 17.078703 24.666016 16.671875 C 24.666016 16.263462 24.68921 15.859193 24.734375 15.460938 L 24.572266 15.349609 C 22.833947 14.168421 22.434515 11.991532 23.783203 11.046875 C 24.225947 10.736693 24.761671 10.591093 24.974609 10.722656 C 25.203484 10.864156 25.238536 10.759936 25.058594 10.46875 C 24.826669 10.0935 25.044964 10.039954 25.974609 10.244141 C 26.496678 10.358796 26.807797 10.385498 26.986328 10.3125 C 26.986951 10.311836 26.987658 10.31121 26.988281 10.310547 C 27.036072 10.259642 27.093424 10.219333 27.142578 10.169922 C 27.176797 10.100895 27.193359 10.016222 27.193359 9.9042969 C 27.193359 8.9723749 25.151485 7.9325542 23.955078 7.9257812 z M 21.554688 9.6679688 C 21.459998 9.6679687 21.275328 9.8418906 21.142578 10.056641 C 21.009828 10.271391 21.087018 10.447266 21.314453 10.447266 C 21.541828 10.447266 21.728516 10.271391 21.728516 10.056641 C 21.728516 9.8418281 21.649377 9.6679688 21.554688 9.6679688 z M 5.5273438 11.134766 C 5.3483147 11.143378 5.1645213 11.182891 4.9550781 11.253906 C 5.3615471 11.852737 5.696563 12.513429 5.9492188 13.222656 C 5.9578864 13.208427 5.9680837 13.195992 5.9765625 13.181641 C 6.3571362 12.537363 6.9380781 11.996016 7.2675781 11.978516 C 7.5970844 11.961079 7.3460813 11.7175 6.7109375 11.4375 C 6.2201156 11.221156 5.8826063 11.117672 5.5273438 11.134766 z M 12.724609 12.009766 C 12.497422 12.009766 12.418031 12.185641 12.550781 12.400391 C 12.683468 12.615141 12.870154 12.791016 12.964844 12.791016 C 13.059534 12.791016 13.136719 12.615141 13.136719 12.400391 C 13.136719 12.185641 12.952047 12.009766 12.724609 12.009766 z M 25.589844 12.429688 C 25.077097 12.716993 24.996016 12.907377 25.25 13.232422 C 25.348313 12.95555 25.467609 12.691673 25.589844 12.429688 z M 14.085938 12.945312 C 14.031548 12.937912 13.968273 12.955213 13.892578 13.001953 C 13.66327 13.143709 13.568282 13.506203 13.683594 13.806641 C 13.989257 14.603191 13.530791 14.473744 12.716797 13.535156 C 12.037741 12.752239 11.185547 12.797914 11.185547 13.617188 C 11.185547 13.832118 11.355391 13.902624 11.564453 13.773438 C 11.773478 13.644237 12.246296 13.891391 12.615234 14.322266 C 13.116653 14.907891 13.414875 14.998704 13.796875 14.681641 C 14.333307 14.236441 14.466691 12.997101 14.085938 12.945312 z M 6.4824219 13.572266 C 6.2867343 13.572266 6.3272027 14.011015 6.5722656 14.548828 C 6.8172656 15.08659 7.0914688 15.451505 7.1835938 15.359375 C 7.4593625 15.083606 6.8665473 13.572266 6.4824219 13.572266 z M 8.9160156 14.351562 C 8.7063905 14.351562 8.4293281 14.630641 8.2988281 14.970703 C 8.1528905 15.351011 8.2400781 15.528724 8.5253906 15.433594 C 9.1090156 15.23905 9.4292655 14.351562 8.9160156 14.351562 z M 11.804688 15.136719 C 11.323498 15.136719 11.022063 17.289534 11.414062 17.923828 C 11.704094 18.39314 14.102046 17.218087 14.240234 16.539062 C 14.360834 15.946331 12.954306 15.136719 11.804688 15.136719 z M 9.8984375 15.166016 C 9.3690996 15.180836 8.8901562 16.324445 8.9023438 17.916016 C 8.9148437 19.535966 9.0071563 19.780266 9.4648438 19.400391 C 9.7662811 19.150235 10.013672 18.704078 10.013672 18.408203 C 10.013672 18.112328 10.189547 17.869141 10.404297 17.869141 C 10.890047 17.869141 10.905731 16.308197 10.427734 15.552734 C 10.256178 15.281623 10.074884 15.161075 9.8984375 15.166016 z M 16.289062 15.228516 C 16.213542 15.233016 16.127265 15.252963 16.033203 15.289062 C 15.693478 15.419377 15.255782 15.527344 15.058594 15.527344 C 14.861344 15.527344 14.699219 15.68489 14.699219 15.876953 C 14.699219 16.068953 15.139031 16.199219 15.675781 16.167969 C 16.2125 16.137029 16.65021 15.873469 16.650391 15.582031 C 16.650532 15.339875 16.515636 15.21491 16.289062 15.228516 z M 6.4804688 17.601562 C 6.4621359 17.811409 6.4367913 18.01824 6.40625 18.224609 C 6.7075616 17.855264 6.7011163 17.691213 6.4804688 17.601562 z M 22.011719 17.947266 C 21.845901 17.985926 21.729166 18.169948 21.728516 18.423828 C 21.729616 18.762985 22.006305 19.041016 22.345703 19.041016 C 23.03521 19.041016 22.915406 18.200359 22.191406 17.958984 C 22.127636 17.937734 22.067145 17.934346 22.011719 17.947266 z M 15.060547 18.443359 C 14.053711 18.355779 12.929282 18.995137 12.005859 20.244141 C 11.192671 21.344035 11.1282 22.686431 11.789062 24.800781 C 12.119155 25.856981 13.171165 25.195125 14.111328 23.339844 C 15.184015 21.222944 15.286063 20.798828 14.71875 20.798828 C 14.514713 20.798828 14.127812 20.578985 13.859375 20.310547 C 13.59063 20.04211 13.486703 19.822266 13.626953 19.822266 C 14.11674 19.822266 16.069484 20.793781 16.599609 21.300781 C 17.31811 21.987893 17.525609 21.693159 17.208984 20.431641 C 17.064802 19.857103 16.527375 19.112657 16.015625 18.777344 C 15.718028 18.582352 15.396159 18.472553 15.060547 18.443359 z M 23.701172 19.431641 C 23.303272 19.431641 23.305522 20.95814 23.705078 21.205078 C 23.906203 21.329328 24.070313 21.204937 24.070312 20.929688 C 24.070312 20.654487 24.338014 20.813 24.666016 21.28125 C 25.03719 21.811127 25.773437 22.003299 26.105469 21.851562 C 25.956931 21.615343 25.815829 21.374746 25.689453 21.121094 C 25.56662 21.120851 25.436811 21.135141 25.310547 21.183594 C 24.964022 21.316911 24.805937 21.299528 24.960938 21.144531 C 25.238307 20.867162 24.182547 19.431641 23.701172 19.431641 z M 7.4121094 19.621094 C 7.1717721 19.660664 6.6452437 20.083925 5.7675781 20.902344 C 5.6505853 21.011438 5.5869638 21.086227 5.4824219 21.1875 C 5.1612787 21.819041 4.7631338 22.390542 4.3066406 22.900391 C 4.3956665 22.908837 4.5182988 22.89033 4.7109375 22.816406 C 5.0152813 22.699656 5.3601407 22.857456 5.4785156 23.166016 C 5.5969406 23.474578 5.9415781 23.726562 6.2441406 23.726562 C 6.5466969 23.726564 7.0174375 23.994954 7.2890625 24.322266 C 8.0408126 25.228072 8.1282033 24.793707 7.5332031 23.105469 C 7.1762031 22.092688 7.1116718 21.265593 7.3417969 20.644531 C 7.6077187 19.926844 7.6524469 19.581527 7.4121094 19.621094 z M 10.320312 20.712891 L 9.1621094 21.84375 C 8.2104719 22.774137 8.0506406 23.178928 8.2597656 24.130859 C 8.5272969 25.348965 9.2324219 25.734502 9.2324219 24.662109 C 9.2324219 24.280734 9.4510474 24.117156 9.7871094 24.246094 C 10.518473 24.526787 10.803796 23.690275 10.537109 22.046875 L 10.320312 20.712891 z M 20.097656 21.474609 C 19.971089 21.496359 19.806701 21.547029 19.603516 21.625 C 19.080078 21.825875 19.043203 21.954281 19.439453 22.199219 C 19.734841 22.381782 20.069297 22.322532 20.232422 22.058594 C 20.515946 21.599829 20.477357 21.409345 20.097656 21.474609 z M 21.355469 22.175781 C 20.953251 22.179581 20.508406 22.315594 20.34375 22.582031 C 20.202012 22.812006 19.863156 22.913469 19.589844 22.808594 C 18.753987 22.487844 18.049437 24.253462 18.601562 25.285156 C 19.008782 26.046072 18.90405 28.428403 18.431641 29.919922 L 18.599609 29.6875 L 18.646484 29.634766 C 18.900163 29.34659 19.185327 29.09534 19.490234 28.871094 C 19.499187 28.785825 19.516726 28.712275 19.523438 28.626953 C 19.655095 26.955203 19.68505 26.921625 21.359375 26.65625 C 22.420706 26.488075 22.804547 26.60706 23.185547 27.21875 C 23.335479 27.459462 23.409502 27.602065 23.441406 27.703125 C 24.133496 27.719589 24.806101 27.84356 25.443359 28.060547 C 25.727755 26.891217 25.629864 26.460938 25.046875 26.460938 C 24.724688 26.460936 24.460938 26.285063 24.460938 26.070312 C 24.460938 25.855563 24.197125 25.679688 23.875 25.679688 C 23.552875 25.679686 23.289062 25.503813 23.289062 25.289062 C 23.289062 25.074313 23.464938 24.898438 23.679688 24.898438 C 24.484175 24.898438 24.032019 23.692688 23.09375 23.335938 C 22.556906 23.131861 22.117187 22.784515 22.117188 22.564453 C 22.117188 22.299549 21.757686 22.171945 21.355469 22.175781 z M 26.892578 22.900391 C 26.820525 22.926623 26.742039 22.945312 26.65625 22.945312 C 26.360438 22.945314 25.900187 23.209125 25.632812 23.53125 C 25.060375 24.220968 25.664222 25.180141 26.984375 25.673828 C 27.627725 25.914385 27.834843 25.774574 28.066406 24.945312 C 28.177803 24.546373 28.188274 24.205488 28.119141 23.996094 C 27.667104 23.685077 27.262173 23.313266 26.892578 22.900391 z M 3.7050781 23.496094 C 3.305841 23.847301 2.8741716 24.155678 2.4003906 24.402344 C 3.1103866 24.982451 3.5655812 25.130578 3.2011719 24.541016 C 3.0797969 24.344641 3.1855469 24.116513 3.4355469 24.033203 C 3.6164039 23.97292 3.6935101 23.759893 3.7050781 23.496094 z M 26.630859 23.726562 C 26.725549 23.726562 26.802734 23.902438 26.802734 24.117188 C 26.802734 24.331999 26.618 24.507813 26.390625 24.507812 C 26.163437 24.507812 26.086063 24.331936 26.21875 24.117188 C 26.351438 23.902437 26.536169 23.726563 26.630859 23.726562 z M 5.3808594 24.191406 C 5.2604504 24.208396 5.1003501 24.250716 4.8964844 24.3125 C 4.3818718 24.4685 3.8067501 24.739829 3.6171875 24.916016 C 3.1590063 25.341735 3.6506095 26.578891 4.1542969 26.267578 C 4.3706092 26.133953 4.546875 26.221018 4.546875 26.462891 C 4.546875 26.725081 4.8626875 26.803937 5.328125 26.65625 C 5.7760813 26.514062 6.109375 26.58516 6.109375 26.824219 C 6.109375 27.05347 6.197312 27.240234 6.3046875 27.240234 C 6.4120626 27.240234 6.5 26.890438 6.5 26.460938 C 6.5 26.031444 6.2531718 25.679688 5.9511719 25.679688 C 5.5841093 25.679686 5.4730626 25.404766 5.6171875 24.853516 C 5.7582812 24.314032 5.7420871 24.14045 5.3808594 24.191406 z M 28.910156 24.46875 C 28.908716 24.51041 28.904401 24.549318 28.90625 24.591797 L 28.960938 24.498047 C 28.943217 24.489474 28.927781 24.477478 28.910156 24.46875 z M 15.90625 24.761719 C 15.455908 24.738169 14.849438 24.872094 14.230469 25.171875 C 12.039157 26.233138 11.906657 26.419481 12.511719 27.578125 C 12.807388 28.144281 13.240218 29.087516 13.472656 29.673828 C 13.527806 29.812904 13.583986 29.911678 13.638672 30.015625 L 15.509766 30.015625 C 15.451845 29.880058 15.383038 29.742185 15.294922 29.599609 C 15.076484 29.246065 15.117781 28.988125 15.410156 28.890625 C 15.662968 28.806365 15.871094 28.313859 15.871094 27.794922 C 15.871094 27.188553 16.094797 26.851562 16.498047 26.851562 C 16.909798 26.851562 17.044172 26.637734 16.888672 26.232422 C 16.758297 25.892728 16.652344 25.473015 16.652344 25.298828 C 16.652344 24.966672 16.356592 24.785266 15.90625 24.761719 z M 9.2910156 26.1875 C 9.1035453 26.16678 8.9290782 26.319 8.6230469 26.625 C 8.2634218 26.984788 8.0759687 27.384563 8.2070312 27.515625 C 8.2531114 27.561738 8.2724605 27.63316 8.2773438 27.710938 C 9.0817862 27.749917 9.8599151 27.921406 10.568359 28.224609 C 10.572723 28.201804 10.56512 28.163151 10.572266 28.144531 C 10.68949 27.839081 10.446313 27.224798 10.03125 26.779297 C 9.6782934 26.400422 9.4784858 26.208219 9.2910156 26.1875 z M 26.091797 26.496094 C 26.038847 26.490294 26.081637 26.653212 26.185547 26.980469 C 26.310228 27.373028 26.413643 27.856732 26.414062 28.054688 C 26.415072 28.219741 26.540727 28.35409 26.707031 28.394531 L 27.060547 27.78125 C 26.966658 27.570088 26.823456 27.326923 26.576172 27.023438 C 26.293609 26.676748 26.144742 26.501861 26.091797 26.496094 z M 20.580078 27.630859 C 20.352703 27.630859 20.166016 27.806734 20.166016 28.021484 C 20.166016 28.203451 20.226288 28.334119 20.300781 28.376953 C 20.389824 28.332215 20.478839 28.288363 20.570312 28.248047 C 20.633011 28.182396 20.697339 28.109834 20.751953 28.021484 C 20.884703 27.806734 20.807453 27.630859 20.580078 27.630859 z M 21.498047 27.880859 C 21.481211 27.889918 21.468748 27.922888 21.453125 27.9375 C 21.528689 27.916978 21.605092 27.900683 21.681641 27.882812 C 21.612821 27.859336 21.550625 27.852569 21.498047 27.880859 z " fill="#FFFFFF" stroke-width="0.39046121"/>
  <path d="m 289.11313 513.35256 h -101.049 c -5.254 0 -10.125 -2.749 -12.841 -7.247 -11.39 -18.864 -36.208 -31.053 -63.229 -31.053 -18.486004 0 -35.919004 5.535 -49.089004 15.587 -3.427 2.617 -7.813 3.631 -12.041 2.785 -4.228 -0.845 -7.887 -3.468 -10.045 -7.2 l -49.6200004 -85.806 c -2.2329996 -3.861 -2.6319996 -8.518 -1.087 -12.703 1.545 -4.185 4.873 -7.466 9.08000002 -8.95 38.30100038 -13.52 65.05100038 -58.887 65.05100038 -110.326 0 -49.85 -24.636 -93.605 -61.3040004 -108.881 -3.983 -1.66 -7.061 -4.955 -8.441 -9.045 -1.382 -4.089 -0.936 -8.574 1.225 -12.311 l 38.9960004 -67.433 c 3.719 -6.43 11.586 -9.169 18.491 -6.444 8.266 3.262 17.114 4.916 26.301 4.916 34.463004 0 62.500004 -23.726 62.500004 -52.889 0 -8.284 6.716 -15 15 -15 h 163.156 c 8.284 0 15 6.716 15 15 0 29.163 28.037 52.889 62.5 52.889 9.188 0 18.036 -1.654 26.3 -4.915 6.907 -2.727 14.771 0.013 18.492 6.443 l 38.997 67.434 c 2.16 3.736 2.607 8.222 1.226 12.311 -1.382 4.09 -4.458 7.385 -8.442 9.045 -36.668 15.275 -61.305 59.031 -61.305 108.881 0 51.439 26.75 96.807 65.051 110.326 4.207 1.484 7.535 4.766 9.08 8.95 1.545 4.186 1.146 8.842 -1.087 12.703 l -49.62 85.806 c -2.158 3.732 -5.817 6.355 -10.045 7.2 -4.229 0.845 -8.614 -0.168 -12.041 -2.785 -13.17 -10.052 -30.603 -15.587 -49.089 -15.587 -23.188 0 -44.73 8.826 -57.768 23.637 l -6.173 8.486 c -2.822 3.88 -7.331 6.176 -12.13 6.176 z" fill="currentColor" stroke="#FFFFFF" stroke-width="16"/>
  <rect x="0" y="0" width="0" height="0" fill="none"/>
</svg>