<?xml version="1.0" encoding="UTF-8"?>
<svg xmlns="http://www.w3.org/2000/svg" width="32" height="32" viewBox="0 0 32 32">
  <title>PartialMCStipplePattern.Bego-Coarse.Parameter</title>
  <path d="m -23.126954 -3.951173 a 15.000834 14.999891 0 0 0 -1.648185 0.1096201 3.1446889 3.1444911 0 0 0 -0.06048 0.04725 l -2.056452 1.5535816 c -1.251828 0.8768255 -1.209469 1.2036403 0.181452 1.78416189 1.088546 0.4474847 2.147118 1.73696991 1.754032 2.13003221 -0.326565 0.332592 -3.266129 -1.75400901 -3.266129 -2.32848241 0 -0.85263339 -0.59965 -0.67835599 -1.289062 0.3798904 -0.338659 0.5200414 -0.852487 0.943111 -1.124622 0.943111 -0.272137 0 -1.377303 0.81171201 -2.447707 1.79739181 l -1.935488 1.7955019 0.701235 1.0527315 c 0.616843 0.925201 0.761783 0.978575 1.185106 0.470611 0.266089 -0.320496 0.731123 -0.580232 0.888357 -0.580232 0.157235 1e-6 0.83438 -0.405293 1.366557 -0.9072005 0.76803 -0.7256543 1.457955 -0.9367043 3.417338 -1.039501 l 2.455268 -0.1341901 0.120968 1.0886411 c 0.07862 0.6651845 0.398878 1.1491395 0.822202 1.2700815 0.380991 0.163276 0.80521 0.448734 0.926159 0.769231 0.441466 1.148947 -0.104175 0.87067 -1.55557 -0.786241 -1.209495 -1.3726952 -1.608573 -1.6026831 -2.152847 -1.3003215 -0.374944 0.2116995 -0.935678 0.2895482 -1.389239 0.1927801 -0.45356 -0.096758 -0.973826 0.061662 -1.209677 0.3458704 -0.235852 0.284218 -0.648348 0.525421 -0.890247 0.525421 -0.550321 0 -1.886013 1.433522 -2.224672 2.388962 -0.145139 0.387014 4.5e-5 1.052042 0.302419 1.487431 0.399134 0.562378 0.459254 0.907259 0.15688 1.270082 -0.302374 0.362831 -0.120831 0.604897 0.78629 1.209601 1.58444 0.961498 2.122655 1.795056 2.455267 3.832924 0.501941 3.084019 1.469892 3.906722 2.358871 1.995842 0.423324 -0.931257 0.362758 -1.131132 -0.604838 -2.177282 -0.76803 -0.828451 -1.076613 -1.554492 -1.08871 -2.570403 0 -0.822413 0.181487 -1.421145 0.423387 -1.42695 0.241899 -0.006 0.139814 -0.187141 -0.223034 -0.398792 -0.967597 -0.556329 -0.84851 -1.391012 0.179561 -1.209601 0.465656 0.0907 1.65854 -0.254093 2.644279 -0.756001 1.753769 -0.894979 2.327334 -0.74374 1.256931 0.33264 a 5.1403568 5.1400335 0 0 1 -1.512097 0.907201 c -0.538226 0.205603 -1.250933 0.950022 -1.589592 1.657532 -0.568468 1.209418 -0.508352 1.341291 0.0964 2.260442 0.895027 1.233619 1.299436 1.239668 2.406124 0.06048 1.330446 -1.41502 2.154575 -1.227532 1.066029 0.241921 -2.521799 3.410562 -2.969725 4.209509 -2.752016 4.898885 0.314468 0.967526 -0.623118 0.94976 -1.512097 -0.03591 -0.374944 -0.417255 -0.82223 -0.756001 -1.003655 -0.756001 -0.52613 0 -0.380969 4.437385 0.15121 4.655075 l 0.07183 -0.04158 c 0.858741 0.344688 1.051715 0.253871 1.40247 -0.665281 a 3.9308611 3.9306139 0 0 1 1.217237 -1.523342 l 2.50819 -1.825741 2.795489 -2.056322 c 0.628934 -0.465619 0.965815 -0.846721 0.723917 -0.846721 -0.562416 0 -1.746799 -1.838642 -1.40814 -2.177282 0.151187 -0.151171 0.556504 0.114989 0.907258 0.57456 l 0.63508 0.846721 4.124244 -1.682102 c 3.078167 -1.251696 4.256607 -1.570542 4.619455 -1.268192 0.284232 0.241854 1.0404389 0.307664 1.8145159 0.162541 0.403179 -0.07595 0.723363 -0.09905 0.950731 -0.07748 a 15.000834 14.999891 0 0 0 0.07183 -1.468531 15.000834 14.999891 0 0 0 -0.02835 -0.825932 c -0.406182 0.359385 -0.686574 0.225088 -2.0035279 -0.2835 l -1.319305 -0.514079 1.319305 0.0189 c 0.6028259 0.01005 1.3524459 -0.08255 1.9052419 -0.204121 a 15.000834 14.999891 0 0 0 -0.349673 -1.895678 c -0.03385 -0.0098 -0.07117 -0.02814 -0.103956 -0.03591 -0.870838 -0.211651 -1.289204 -0.0422 -2.2265629 0.876961 -0.641033 0.622857 -1.765863 1.404319 -2.51575 1.736911 a 35.075376 35.07317 0 0 0 -2.012979 0.960121 c -1.003876 0.550291 -1.028207 0.521273 -0.907258 -1.897562 0.07257 -1.463395 0.327053 -2.503941 0.750377 -2.963523 0.562415 -0.628896 0.568473 -0.761728 0.06048 -1.185031 -0.320528 -0.260031 -1.209807 -0.713341 -1.995979 -1.0035969 l -1.421371 -0.5329806 1.693548 0.1341902 c 0.931311 0.072566 2.020221 0.2721892 2.419355 0.4536004 0.586605 0.2539776 0.677389 0.1923248 0.483871 -0.3156303 -0.157234 -0.3930624 -0.0559 -0.6350407 0.264617 -0.6350407 0.290278 0 0.738702 -0.2722087 1.016885 -0.6048006 0.429372 -0.5321452 0.38169 -0.7258555 -0.374244 -1.3305594 -1.058309 -0.85264311 -1.935484 -0.92485091 -1.935484 -0.15687021 0 0.30235191 -0.508533 0.81765361 -1.113281 1.13211121 -1.84448 0.9493919 -2.128048 0.6522254 -0.616179 -0.6539407 l 1.413811 -1.22850121 -1.179436 -0.8694009 a 3.386588 3.386375 0 0 0 -2.370212 -0.75600089 c -0.991787 0.1027969 -1.342858 0.4235831 -2.116935 1.93536209 -0.616842 1.20336941 -1.05208 1.68659891 -1.306074 1.43262151 -0.253995 -0.2539776 -0.04753 -0.7977066 0.593499 -1.64430181 a 5.6846299 5.6842724 0 0 0 1.094379 -2.94651299 l 0.07371 -1.0168211 a 15.000834 14.999891 0 0 0 -2.19254 -0.1795501 z m 3.519405 0.4365904 c -0.05691 0.113153 -0.112285 0.2048008 -0.173891 0.3496503 v 0.06048 c -0.604748 1.3545503 -0.616344 1.3485894 0.810862 0.6048008 0.292534 -0.1581969 0.766323 -0.3017179 1.294732 -0.4101304 a 15.000834 14.999891 0 0 0 -1.931703 -0.6048007 z m -7.709803 0.1682102 a 15.000834 14.999891 0 0 0 -2.012979 0.7578908 c 0.0021 0.00615 0.0055 0.00884 0.0076 0.01512 0.09676 0.3023617 0.761901 0.04978 1.971395 -0.7484407 0.01343 -0.00889 0.02078 -0.015756 0.03402 -0.02457 z m -2.66318 1.0546211 a 15.000834 14.999891 0 0 0 -1.965726 1.2303912 c -0.130607 0.78680779 0.331079 0.88442299 1.461063 0.27216029 0.562411 -0.31444789 0.702343 -0.65328139 0.533014 -1.33056139 -0.01566 -0.062226 -0.01976 -0.1146729 -0.02835 -0.1719901 z m 14.414061 0.4025704 c -0.549999 0.040372 -0.965852 0.1698897 -0.965852 0.3213003 0 0.4051487 0.863171 0.79758089 1.812626 0.79758089 0.374944 0 1.088783 0.3315644 1.572581 0.7427707 h 0.05481 c 0.144056 0.120927 0.165001 0.121234 0.292968 0.2230202 a 15.000834 14.999891 0 0 0 -2.767133 -2.08467209 z m -17.288935 1.54413159 A 15.000834 14.999891 0 0 0 -35.73406 2.9492242 c 0.696951 -0.2188647 1.70919 -0.8672224 2.389112 -1.5668117 0.582628 -0.60233511 0.692912 -0.88853781 0.489542 -1.72746181 z M -11.309919 1.817113 c -1.06019 0.9509417 -1.323456 2.5724502 -0.48198 3.513514 0.65268 0.727941 2.2930099 1.569419 3.1054679 1.665091 a 15.000834 14.999891 0 0 0 -0.504662 -1.481761 c -0.476273 -0.620044 -0.9677419 -1.4436178 -0.9677419 -1.803062 0 -0.058656 0.0069 -0.096271 0.0095 -0.1474202 A 15.000834 14.999891 0 0 0 -11.309919 1.817113 Z M -24.31584 2.1932233 c 0.314468 0 0.568926 0.066528 0.568926 0.1512002 0 0.078614 -0.254458 0.2479876 -0.568926 0.3628804 -0.314469 0.1148928 -0.568926 0.048345 -0.568926 -0.1512002 0 -0.1995551 0.254457 -0.3628804 0.568926 -0.3628804 z m 3.585559 0 c 0.417275 0 0.756048 0.066955 0.756048 0.1455302 0 0.084663 -0.338773 0.2351259 -0.756048 0.3439804 -0.417277 0.1088447 -0.756049 0.047977 -0.756049 -0.1455302 0 -0.1935072 0.338772 -0.3439804 0.756049 -0.3439804 z m 7.484878 2.2037423 c -0.07512 -0.012756 -0.251037 0.3119304 -0.446068 0.8561714 -0.332614 0.931258 -0.355679 1.516983 -0.07749 1.982611 l -0.0057 0.01323 c 0.411229 0.689367 1.05675 0.791844 2.205771 0.338311 0.604748 -0.235843 0.557432 -0.386839 -0.470639 -1.366471 -0.62289 -0.604714 -1.168095 -1.36085 -1.168095 -1.693442 0 -0.083148 -0.01276 -0.1261585 -0.0378 -0.1304104 z m -23.47719 0.3515404 a 15.000834 14.999891 0 0 0 -1.353327 5.276885 c 0.286335 0.07759 0.555844 0.13592 0.752268 0.13797 0.792221 0.0121 0.887535 0.09 0.446069 0.374221 v -0.0057 c -0.407846 0.26677 -0.799307 0.376689 -1.23992 0.326969 a 15.000834 14.999891 0 0 0 -0.0095 0.189002 15.000834 14.999891 0 0 0 0.217364 2.551502 c 0.482903 -0.881037 1.697047 -1.714477 2.067793 -1.343761 0.120949 0.120941 -0.145985 0.604878 -0.593498 1.088641 -0.299408 0.322872 -0.675656 1.215644 -0.986643 2.192402 a 15.000834 14.999891 0 0 0 0.911038 2.283123 c 0.133943 -0.101597 0.259095 -0.188608 0.402596 -0.309961 1.040166 -0.92521 4.697636 -1.940537 4.23198 -1.190701 -0.120949 0.169325 -0.574665 0.313604 -1.028225 0.319411 -0.495895 0 -1.322821 0.60607 -2.084804 1.525231 -0.365667 0.423568 -0.612024 0.718688 -0.776839 0.960121 a 15.000834 14.999891 0 0 0 2.03377 2.519373 c 0.203056 -0.181216 0.386968 -0.325714 0.599168 -0.534871 0.846647 -0.8345 1.705675 -1.512002 1.905242 -1.512002 0.792219 0 1.185751 -3.131801 0.447959 -3.585334 -0.211662 -0.133036 -0.381805 -0.696742 -0.381805 -1.253071 0 -0.786124 -0.470881 -1.377995 -2.073462 -2.617652 -2.031956 -1.57224 -2.075353 -1.638157 -2.075353 -3.524854 A 5.0194073 5.0190916 0 0 0 -36.50712 5.022556 c -0.06983 -0.09737 -0.143913 -0.181169 -0.215473 -0.27405 z m 7.895034 0.84861 c 0.332608 1e-6 0.483853 0.168618 0.362904 0.374221 -0.126998 0.205594 -0.380323 0.37611 -0.585938 0.37611 -0.205614 0 -0.362903 -0.170516 -0.362903 -0.37611 0 -0.205603 0.253326 -0.374221 0.585937 -0.374221 z m 7.263734 0.502742 c 0.257113 0.05103 0.698276 0.331186 1.124623 0.72576 0.568462 0.52609 1.366621 1.044425 1.789944 1.147232 0.586605 0.139065 0.525336 0.188622 -0.260836 0.224909 l 0.01323 -0.0057 c -0.786173 0.03629 -1.041467 0.259794 -1.132183 1.003591 -0.108854 0.846596 -0.138042 0.9192 -0.561366 0.241921 -0.338658 -0.550282 -0.338658 -0.829382 0 -1.168022 0.33866 -0.338639 0.228595 -0.544408 -0.497102 -1.14912 -0.52613 -0.387015 -0.816509 -0.839181 -0.665322 -0.990361 0.0378 -0.0378 0.103307 -0.04725 0.189011 -0.03024 z m 6.522808 1.423171 c -0.13758 -0.0091 -0.245362 0.111171 -0.402596 0.359101 -0.193519 0.314448 -0.356903 0.781364 -0.362903 1.04139 h -0.01323 c -0.006 0.586579 1.367367 0.628907 1.71812 0.06048 0.14514 -0.229784 -0.0182 -0.696702 -0.362903 -1.04139 -0.272137 -0.272122 -0.438907 -0.410509 -0.576487 -0.419581 z m -2.315398 0.34209 c 0.217708 1e-6 0.400705 0.168627 0.400705 0.37422 0 0.205603 -0.07335 0.376111 -0.17011 0.376111 -0.09676 0 -0.265771 -0.170508 -0.398816 -0.376111 -0.133045 -0.205593 -0.04949 -0.37422 0.168221 -0.37422 z m -16.194556 1.536572 c -0.205614 0 -0.374244 0.168617 -0.374244 0.374221 0 0.205603 0.16863 0.37422 0.374244 0.37422 0.205614 0 0.376134 -0.168617 0.376134 -0.37422 0 -0.205604 -0.17052 -0.374221 -0.376134 -0.374221 z m 13.121219 1.449631 c 0.23434 -0.04913 0.358341 0.351676 0.189013 1.258742 v -0.01134 c -0.114903 0.574474 -0.446115 1.039501 -0.748489 1.039501 -0.393086 0 -0.472503 -0.242017 -0.291078 -0.846721 0.272137 -0.89195 0.616214 -1.391048 0.850554 -1.440182 z m 5.78755 0.434701 c 0.06548 -2.01e-4 0.124377 0.02042 0.172001 0.06803 h 0.0057 c 0.133044 0.139086 -0.02462 0.603735 -0.326991 1.045172 -0.399134 0.544242 -0.665351 0.665242 -0.846775 0.36288 -0.259285 -0.423293 0.537715 -1.474685 0.996094 -1.476091 z m 3.908771 1.791722 c -1.322969 0.0055 -2.951652 0.706592 -3.205645 1.46853 l -0.01134 -0.01134 c -0.08466 0.253978 0.615988 0.387073 1.861769 0.362881 1.499774 -0.01814 2.1536729 -0.217815 2.6253779 -0.786241 0.616842 -0.731702 0.592544 -0.762466 -0.7258069 -0.992252 -0.171598 -0.02948 -0.355359 -0.04237 -0.544354 -0.04158 z m -5.120338 1.803061 c -0.355514 -0.01134 -0.820397 0.126674 -1.387349 0.421471 -1.330445 0.689366 -1.528939 1.343791 -0.410156 1.343791 0.417276 0 0.756048 0.168618 0.756048 0.374221 0 0.205603 -0.163336 0.37422 -0.362903 0.37422 -0.199567 0 -0.471794 0.472966 -0.604839 1.041392 a 7.4988735 7.4984019 0 0 1 -0.774949 1.897561 c -0.471706 0.749836 -0.464515 0.967798 0.04347 1.693442 0.749885 1.064294 0.730976 1.838806 -0.07939 3.265924 -0.0176 0.03094 -0.03365 0.04968 -0.05103 0.07937 a 15.000834 14.999891 0 0 0 1.428932 -0.52164 c 0.299803 -0.407787 0.675644 -0.775605 1.047127 -0.960121 1.941241 -0.967536 2.884205 -2.644278 2.098034 -3.732753 -0.659179 -0.907066 -0.664092 -1.328672 -0.01701 -1.328672 0.272136 0 0.695601 0.417012 0.9375 0.943111 0.2419 0.526089 0.63928 0.961874 0.905368 0.967681 0.09341 0.0023 0.239899 0.110008 0.402596 0.25893 a 15.000834 14.999891 0 0 0 1.742691 -2.405973 c -0.09545 -0.116465 -0.194739 -0.255316 -0.294858 -0.44226 -0.229804 -0.417254 -0.706583 -0.756001 -1.075479 -0.756001 -0.368896 0 -1.041148 -0.349708 -1.500756 -0.77301 -1.009929 -0.937296 -1.534742 -0.707424 -1.292842 0.57456 0.102807 0.562387 -3.6e-5 0.954451 -0.241936 0.954451 -0.459611 0 -0.545472 -0.374084 -0.436618 -1.982612 0.04914 -0.831474 -0.23913 -1.268195 -0.831653 -1.287092 z m 7.1503269 0.24003 c -0.101559 0.178273 -0.19138 0.377911 -0.264617 0.599132 -0.235853 0.719605 -0.567822 1.305991 -0.767389 1.305991 -0.181491 0 -0.181444 0.292006 -0.02646 0.79758 a 15.000834 14.999891 0 0 0 1.058468 -2.702703 z m -3.3398429 0.09639 c -0.547109 -0.02948 -0.591575 0.179644 -0.364794 0.769231 h -0.0076 c 0.278185 0.725654 2.135838 0.786124 2.135838 0.06048 -1e-6 -0.290266 -0.471105 -0.616916 -1.039567 -0.72576 -0.302374 -0.05745 -0.541547 -0.09412 -0.723916 -0.103951 z m -7.191911 1.901342 c -0.228764 0.02608 -0.622287 0.228355 -1.016884 0.53676 -0.526132 0.411197 -1.160576 0.742771 -1.432712 0.742771 -0.707555 0 -1.071618 1.452753 -0.527344 2.099792 l 0.0057 -0.01323 c 0.677318 0.828451 1.978916 0.720722 1.706779 -0.137969 -0.157235 -0.483774 0.121059 -0.83544 0.725807 -1.198262 0.888979 -0.471676 1.239082 -1.463695 0.706904 -1.995841 -0.03326 -0.03326 -0.09197 -0.04272 -0.168221 -0.03402 z m -12.626007 1.392936 c 0.192008 0 0.167035 0.110787 -0.177671 0.33453 h 0.0057 c -0.308421 0.199552 -0.827918 0.357964 -1.130292 0.345867 -0.380991 -0.0121 -0.314442 -0.134219 0.181452 -0.34587 0.52008 -0.223743 0.928833 -0.33453 1.120841 -0.33453 z m 0.886467 1.50822 -1.476184 1.553582 c -0.22729 0.222538 -0.433054 0.456219 -0.61807 0.687958 a 15.000834 14.999891 0 0 0 2.402344 1.736912 c -0.01405 -0.255763 -0.02326 -0.537982 -0.04158 -0.761671 z m 7.282635 0.952561 c -0.266088 0.02419 -0.603409 0.184892 -1.156753 0.493291 a 2.1166175 2.1164844 0 0 0 -1.383569 2.054433 c -0.151188 1.04615 -0.260154 1.307861 -0.756049 1.18692 -0.296815 -0.07419 -0.624214 0.160945 -0.905367 0.549992 a 15.000834 14.999891 0 0 0 1.523437 0.42525 c -5.59e-4 -0.0058 -0.0076 -0.01543 -0.0076 -0.02079 0 -0.586571 0.586019 -0.447843 1.130293 0.15687 0.02125 0.02632 0.06171 0.04836 0.08883 0.07371 a 15.000834 14.999891 0 0 0 2.03188 0.15687 15.000834 14.999891 0 0 0 3.014742 -0.32319 c -0.01561 -0.257225 -0.01074 -0.560717 0.03591 -0.952561 0.199567 -1.60248 0.151033 -1.704879 -1.028226 -2.309582 a 11.248311 11.247604 0 0 1 -1.857988 -1.168022 c -0.269114 -0.235838 -0.463498 -0.347378 -0.729588 -0.323191 z m 10.987273 0.682291 c -0.383895 0.0138 -0.841432 0.429956 -1.037677 1.090532 a 15.000834 14.999891 0 0 0 1.185107 -1.062181 c -0.04854 -0.01326 -0.09508 -0.03023 -0.14743 -0.02835 z" fill="#FFFFFF" stroke-width="6.04728842"/>
  <path d="m -23.25662 -3.9450412 c -0.290054 0.034893 -0.536718 0.2175826 -0.536718 0.5215482 0 0.7630186 -1.027311 1.5502179 -1.335058 1.0353411 -0.356988 -0.5955226 -0.973401 -0.4710391 -0.973401 0.1492907 0 0.6203398 1.311291 1.1787657 1.908326 0.8065579 0.215417 -0.1364745 0.388591 0.124543 0.388591 0.58359109 l 0.01731 0.06786 c 0 1.2778954 1.231681 0.7865435 1.994893 -0.78910819 0.812466 -1.7493424 0.837099 -2.1384922 0.123123 -1.8593489 -0.307746 0.1178714 -0.665625 0.049604 -0.788724 -0.1551076 -0.175418 -0.2822555 -0.508288 -0.3955172 -0.798342 -0.3606243 z m 5.415262 2.3266092 c -0.94787 0 -2.339566 1.68068669 -1.933336 2.33824229 v -0.00582 c 0.307745 0.48385471 1.231228 0.48269071 1.538973 -0.013573 0.123098 -0.2109162 -0.03698 -0.3838905 -0.369354 -0.3838905 -1.150984 0 -0.596924 -0.7445548 0.738708 -0.9926866 1.452574 -0.2729492 1.471426 -0.94227679 0.02501 -0.94227679 z m -10.497721 1.21953089 c -0.266971 -0.0116331 -0.452502 0.1380902 -0.754096 0.4420557 -0.603187 0.6079709 -0.589689 0.6514506 0.228922 0.6514506 0.480088 0 0.756002 0.168709 0.632903 0.38582981 -0.1231 0.21712 -0.1231 0.56462 0 0.775536 0.295439 0.483866 0.959934 0.508295 0.959934 0.03684 0 -0.192263 0.338639 -0.260947 0.769486 -0.149291 1.304854 0.341185 0.886612 -0.80668881 -0.59058 -1.61311741 -0.630885 -0.3442936 -0.979597 -0.5176706 -1.246569 -0.5293037 z m 14.756828 0.781353 c -0.148005 0.049726 -0.252007 0.2466578 -0.252007 0.511854 0 0.35978911 0.183947 0.58242811 0.411675 0.50797611 0.227739 -0.07444 0.413599 -0.309469 0.413599 -0.50797611 0 -0.1985075 -0.18586 -0.4354637 -0.413599 -0.5099152 -0.05693 -0.018608 -0.110333 -0.018514 -0.159668 -0.00194 z m -8.70674 1.97955611 c -0.713099 -0.02944 -1.208094 0.052 -1.208094 0.275316 0 0.254347 0.325168 0.545987 0.725241 0.651451 0.46777 0.124066 0.665586 0.433206 0.542488 0.88605 -0.203115 0.781621 0.473284 1.415265 0.842588 0.794925 0.443156 -0.725793 1.594839 -0.404294 2.118012 0.575836 l 0.06156 0.0058 c 0.381606 0.731997 0.812725 0.969421 1.785208 0.969421 1.274083 0 1.66001 -0.527425 0.613666 -0.930644 -0.393917 -0.161287 -0.521307 -0.496417 -0.367429 -0.992682 0.184647 -0.583114 -0.04439 -0.881466 -1.029189 -1.328106 -1.104049 -0.504013 -2.895554 -0.858295 -4.084051 -0.907367 z M -33.254173 3.48072 c -0.338527 0 -0.503995 0.172975 -0.380896 0.383891 0.135409 0.210916 0.307035 0.385828 0.380896 0.385828 0.07386 0 0.247409 -0.174912 0.382819 -0.385828 0.135409 -0.210916 -0.0443 -0.383891 -0.382819 -0.383891 z m 7.258181 0.682472 c -0.283128 0 -0.511709 0.229598 -0.511709 0.496343 0 0.266745 -0.34441 0.706553 -0.775257 0.973298 -0.726286 0.459047 -0.739004 0.546504 -0.148126 1.452192 l 0.0058 -0.0058 c 0.990949 1.532231 3.606968 1.128157 3.606968 -0.546755 0 -0.731986 -1.500601 -2.369262 -2.177647 -2.369262 z m -3.662756 0.725126 -0.923384 0.8686 c -0.510863 0.483866 -0.923383 1.209897 -0.923383 1.613117 l 0.01924 -0.01938 c 0 0.632748 0.183682 0.700658 1.248491 0.471139 1.581829 -0.34739 1.514659 -0.228624 1.009951 -1.692609 z m -7.002327 0.06786 c -0.12572 3.63e-4 -0.211609 0.122963 -0.211609 0.397461 0 0.274277 -0.169087 0.385712 -0.415522 0.362564 a 15.267462 15.387498 0 0 0 -0.663682 2.784177 l 0.303947 0.116331 c 2.215788 0.856062 2.634585 0.178701 1.72365 -2.780299 -0.207731 -0.542795 -0.52725 -0.88084 -0.736784 -0.880234 z m 15.185816 1.597605 c -0.112808 -0.0158 -0.221242 0.01164 -0.30587 0.09695 -0.110787 0.111657 -0.109633 0.47777 0.01346 0.806558 v 0.01163 c 0.283131 0.750609 1.021492 0.781233 1.021492 0.03684 0 -0.465254 -0.390662 -0.904574 -0.729088 -0.95197 z M -8.8672231 7.66668 c -0.233894 0 -0.296242 0.174922 -0.173134 0.385829 0.129255 0.210916 0.30741 0.38389 0.405904 0.38389 0.09847 0 0.173135 -0.172974 0.173135 -0.38389 -1e-6 -0.210907 -0.17202 -0.385829 -0.405905 -0.385829 z m -8.5316809 0.862783 c -0.941713 0.07444 -1.156104 0.651043 -1.125374 3.113779 0.0062 0.800235 -0.136613 1.452193 -0.321261 1.452193 -0.184656 0 -0.232749 0.261016 -0.109651 0.58359 v -0.0058 c 0.276966 0.725802 0.251897 0.724988 2.073766 -0.205517 1.661844 -0.843665 1.828547 -1.178935 0.948392 -1.923331 a 1.7849406 1.7989743 0 0 1 -0.57904 -1.209836 c 0 -0.397015 -0.21434 -0.737585 -0.479005 -0.756148 -0.381605 -0.02481 -0.381605 -0.06789 0 -0.222968 0.812451 -0.328777 0.533887 -0.900398 -0.407827 -0.825946 z m -3.520401 1.074118 c -0.344681 0 -0.479755 0.222252 -0.344345 0.575837 v -0.0058 c 0.123099 0.328827 0.380925 0.496323 0.565572 0.372257 0.54164 -0.334982 0.394264 -0.942277 -0.221227 -0.942277 z m 9.895596 0.05817 c -0.4622 -0.04449 -0.545159 0.06634 -0.378972 0.331543 0.221573 0.353595 0.09802 0.423025 -0.517479 0.230721 -0.615491 -0.192302 -0.819502 -0.11277 -0.819502 0.389708 0 0.502478 0.326399 0.615358 1.231178 0.478893 0.640113 -0.09926 1.256975 -0.03875 1.367761 0.147353 l -0.05579 0.05623 c 0.104641 0.179905 0.6141289 0.323785 1.1311459 0.323785 1.821867 0 0.788399 -1.427056 -1.3658379 -1.861287 -0.243121 -0.04963 -0.438439 -0.08211 -0.592506 -0.09694 z m -17.803993 0.331536 c -0.233889 0 -0.296234 0.174914 -0.173135 0.385829 0.129255 0.210917 0.307429 0.38389 0.405904 0.38389 0.09848 0 0.173134 -0.172974 0.173134 -0.38389 1e-6 -0.210916 -0.172015 -0.385829 -0.405903 -0.385829 z m 4.797748 0.114392 c -0.299334 0.0053 -0.621015 0.131494 -0.888757 0.401339 -0.553947 0.564511 -0.535833 0.595971 0.221227 0.397462 0.96018 -0.248132 1.138702 0.446013 0.246235 0.942277 -0.363148 0.204712 -0.492064 0.595671 -0.344344 0.992687 l -0.01346 -0.0058 c 0.227738 0.570704 0.350984 0.539643 0.984942 -0.279204 0.400074 -0.508673 0.727165 -1.217254 0.727165 -1.564645 10e-7 -0.566055 -0.434112 -0.892955 -0.933002 -0.884111 z m -14.096993 0.581651 a 15.267462 15.387498 0 0 0 0 0.0078 15.267462 15.387498 0 0 0 0.03078 0.92095 c 0.490232 0.08163 0.987624 -0.01208 1.242721 -0.321847 0.369297 -0.440425 0.233778 -0.538998 -0.738707 -0.538998 -0.173527 0 -0.353312 -0.02764 -0.534793 -0.06786 z m 3.94939 0.849212 c -0.203115 0 -0.294319 0.217966 -0.20199 0.48471 0.209269 0.583116 -0.849182 2.090012 -1.20617 1.717814 -0.412383 -0.403219 -1.323481 1.724912 -1.077282 2.512738 h -0.0058 c 0.221579 0.700976 0.258315 0.700589 1.267729 -0.0252 0.572413 -0.40322 1.698762 -0.874836 2.498908 -1.023709 0.800146 -0.148883 1.556305 -0.534395 1.679404 -0.856968 0.258509 -0.676169 -1.37826 -2.108643 -2.104545 -1.841898 -0.264664 0.09926 -0.48093 -0.07488 -0.48093 -0.397463 0 -0.322574 -0.166239 -0.57002 -0.369353 -0.57002 z m 12.590723 2.045478 c -0.235428 0.03412 -0.502105 0.243186 -0.625208 0.60298 l -0.0058 0.0058 c -0.08616 0.254346 0.111248 0.459506 0.45592 0.459506 0.34468 0 0.615588 -0.285447 0.615588 -0.62043 0 -0.341186 -0.205102 -0.481989 -0.440529 -0.447872 z m -5.951979 1.147793 c -0.08002 -0.0086 -0.125041 0.04539 -0.125041 0.157047 0 0.223325 0.116214 0.514588 0.257777 0.657267 0.14772 0.148903 0.345132 0.173701 0.455922 0.06204 0.110789 -0.111656 0.01112 -0.378113 -0.259702 -0.657267 -0.135409 -0.139581 -0.248941 -0.210557 -0.328956 -0.219089 z m 12.000143 0.306338 c -0.295443 0 -0.665627 0.172975 -0.788724 0.383891 -0.06155 0.210916 0.184745 0.383889 0.615588 0.383889 0.430854 0 0.788725 -0.172973 0.788725 -0.383889 0 -0.210916 -0.320156 -0.383891 -0.615589 -0.383891 z m -7.577519 0.323786 c -0.183879 -0.02016 -0.44865 0.290145 -0.688691 0.922888 -0.190803 0.496274 -0.536362 1.042341 -0.757944 1.178815 -0.221576 0.136475 -0.405903 0.588692 -0.405903 1.00432 l -0.01154 0.01745 c 0 0.856063 0.596471 0.97474 1.335059 0.26756 l 1.894861 -1.613116 c 0.769378 -0.626534 1.385075 -1.252898 1.385075 -1.401781 0 -0.62033 -2.019181 0.20485 -2.339238 0.930643 -0.320057 0.725793 -0.338554 0.694742 -0.215457 -0.248171 0.08925 -0.688573 -0.01234 -1.038446 -0.196219 -1.058608 z m -7.906474 1.225348 c -0.393918 -0.02249 -0.931531 0.0481 -1.386999 0.224905 -0.338519 0.124066 -0.529387 0.366083 -0.430912 0.527365 0.227733 0.372197 2.056111 0.03638 2.339238 -0.422667 0.1231 -0.192308 -0.127409 -0.307115 -0.521327 -0.329603 z m 18.154111 0.80074 0.861825 0.725128 c 0.473934 0.39081 0.861825 1.024542 0.861825 1.384332 0 0.35593 0.103703 0.50122 0.428988 0.494404 a 15.267462 15.387498 0 0 0 0.9849429 -1.475457 c -0.7161529 -0.688126 -1.5084259 -1.128407 -2.1776459 -1.128407 z m -3.293402 0.469201 c -0.121597 -0.01138 -0.222778 0.01746 -0.294329 0.09501 -0.141566 0.155077 -0.03766 0.360674 0.226999 0.453688 0.326213 0.117862 0.203825 0.409175 -0.380897 0.905439 -0.837092 0.694771 -0.836707 0.731331 -0.09811 0.756148 0.424687 0.01241 1.101588 0.285049 1.513964 0.595225 h 0.0058 c 0.701664 0.53349 1.748659 0.763843 1.748659 0.391645 0 -1.069308 -1.870884 -3.117513 -2.722059 -3.197149 z m -11.209495 2.051294 c -0.136805 0.0055 -0.174982 0.276812 -0.194296 0.903499 -4.1e-5 0.0014 4.1e-5 0.0025 0 0.0038 0 0 0 0.002 0 0.002 -0.03512 1.272523 0.448956 1.580171 0.848359 0.527366 0.13541 -0.347382 0.0065 -0.879111 -0.282786 -1.176877 -0.1708 -0.169817 -0.28887 -0.26315 -0.371277 -0.259805 z m 3.670451 1.744956 c -0.22235 -0.0038 -0.563722 0.172611 -1.040731 0.529305 -0.732437 0.545886 -0.732053 0.577992 0.02501 2.035782 0.603183 1.091787 1.053594 1.525898 2.112239 1.711997 0.316123 0.05646 0.49873 0.07816 0.746403 0.118269 a 15.267462 15.387498 0 0 0 1.891013 -0.255927 c 0.0079 -0.10881 0.0054 -0.232336 -0.01539 -0.389708 -0.09232 -0.669963 -0.413362 -0.899671 -1.373533 -0.992686 -1.107893 -0.09925 -1.207266 -0.198637 -0.850284 -0.868601 0.295434 -0.558257 0.641082 -0.70183 1.342755 -0.515731 1.261801 0.316369 1.211743 -0.147432 -0.08079 -0.643696 -0.689361 -0.266745 -1.14311 -0.261316 -1.413932 0.01163 -0.572409 0.570705 -1.015721 0.496235 -1.015721 -0.186128 0 -0.366004 -0.104683 -0.550632 -0.327031 -0.554509 z m -7.414003 0.0252 c -0.104827 0.0054 -0.229713 0.0512 -0.371277 0.139596 -0.30775 0.248143 -0.295429 0.434371 0.06156 0.868602 h 0.01154 c 0.443158 0.558296 0.504031 0.545888 0.627131 -0.06204 0.120022 -0.618751 -0.01447 -0.962426 -0.328955 -0.946154 z m 7.210088 1.299024 c 0.04558 0.0083 0.0958 0.02948 0.148127 0.06204 0.20927 0.13027 0.382819 0.31608 0.382819 0.409095 0 0.09924 -0.173549 0.174495 -0.382819 0.174495 -0.209271 0 -0.380896 -0.1753 -0.380896 -0.411033 0 -0.176801 0.09601 -0.259319 0.232769 -0.2346 z" fill="#FFFFFF" stroke-width="6.17911625"/>
  <rect x="0" y="0" width="0" height="0" fill="none"/>
</svg>