<?xml version="1.0" encoding="UTF-8"?>
<svg xmlns="http://www.w3.org/2000/svg" width="32" height="32" viewBox="0 0 32 32">
  <title>PartialSupportBar.false.Parameter</title>
  <path d="M2.9533906,19.540493 C2.5809781,19.53089 2.2684505,19.736866 2.2390501,20.023279 2.217489,20.233316 2.3538005,20.431931 2.572608,20.549053 L2.5869982,20.556023 2.7451181,20.484293 C3.1047241,20.317877 3.4606936,20.129084 3.6467831,19.940512 L3.6573138,19.929016 3.6432178,19.900967 C3.5368321,19.715792 3.3068356,19.573889 3.0286054,19.545328 3.0033116,19.542732 2.9782178,19.541134 2.9533906,19.540493 z M25.83531,19.337946 L25.844093,19.412956 C25.859184,19.516685 25.881172,19.625734 25.912437,19.740776 25.951519,19.884571 26.009071,20.004747 26.078604,20.105764 L26.110968,20.14957 26.130505,20.125198 C26.230743,19.987501 26.271852,19.834843 26.232656,19.691349 26.18786,19.527355 26.046658,19.40638 25.854574,19.343359 z M1.3720448,19.30114 C1.1419868,19.31156 0.92032125,19.4617 0.83513954,19.684029 0.81875923,19.726784 0.80839499,19.769678 0.8036333,19.811895 0.77792134,20.039873 0.91558465,20.248108 1.15143,20.307991 1.4309498,20.378965 1.7425338,20.214676 1.8473723,19.941044 1.9522104,19.667412 1.8106026,19.388052 1.5310827,19.31708 1.4786726,19.303772 1.4251353,19.298737 1.3720448,19.30114 z M27.681244,19.092598 C27.565453,19.091932 27.442635,19.107622 27.318478,19.141537 26.821852,19.277195 26.491884,19.653053 26.581476,19.981039 26.671068,20.309027 27.146292,20.464943 27.64292,20.329285 28.139545,20.193628 28.469511,19.817772 28.379919,19.489784 28.312725,19.243793 28.028614,19.094593 27.681244,19.092598 z M29.58465,18.63372 C29.496992,18.634012 29.407684,18.648857 29.321444,18.679869 28.97648,18.803915 28.811226,19.139648 28.952339,19.429754 29.093451,19.719858 29.487493,19.854475 29.832457,19.730429 30.145079,19.618011 30.310108,19.331738 30.233274,19.063128 30.225327,19.035339 30.214788,19.007742 30.201561,18.980543 30.095726,18.762966 29.84762,18.632849 29.58465,18.63372 z M3.4756424,18.202824 C3.1032302,18.19322 2.7907028,18.399195 2.761302,18.68561 2.7299406,18.991117 3.0325904,19.272459 3.437289,19.314001 3.5890507,19.32958 3.7336125,19.309225 3.8566868,19.261585 L3.8811574,19.250902 3.8787284,19.199282 C3.8648142,19.014097 3.8122649,18.839081 3.7792129,18.64929 3.7480874,18.471342 3.7704157,18.382763 3.821141,18.296984 L3.8319637,18.280573 3.831623,18.280409 C3.7468288,18.243418 3.6520321,18.218044 3.5508573,18.207659 3.5255639,18.205063 3.5004701,18.203465 3.4756424,18.202824 z M2.0077839,17.982233 C1.7607685,17.989758 1.5364016,18.16564 1.4804617,18.412636 1.476466,18.430279 1.4734242,18.447866 1.4713022,18.465349 1.4394776,18.727592 1.6146886,18.966225 1.8830939,19.011829 2.1693923,19.060474 2.4533102,18.871075 2.5172407,18.588795 2.5811727,18.306513 2.4009082,18.038244 2.114609,17.989599 2.0788219,17.983519 2.0430717,17.981157 2.0077839,17.982233 z M26.695837,17.655298 C26.580046,17.654633 26.457228,17.670322 26.333071,17.704237 26.146835,17.755108 25.984037,17.839758 25.858011,17.942995 L25.806351,17.988798 25.824944,18.071831 C25.858641,18.268715 25.836578,18.480087 25.823032,18.724152 L25.818596,18.820183 25.840342,18.83383 C26.045088,18.947662 26.34712,18.976772 26.657511,18.891985 27.154137,18.756329 27.484104,18.38047 27.394512,18.052485 27.327318,17.806494 27.043207,17.657293 26.695837,17.655298 z M28.639999,17.363121 C28.552568,17.362715 28.463247,17.376886 28.376717,17.40729 28.030596,17.5289 27.860184,17.864161 27.996094,18.156115 28.132004,18.448069 28.522768,18.586159 28.868889,18.464546 29.182562,18.354336 29.351925,18.068659 29.279768,17.798763 29.272303,17.770844 29.262253,17.743092 29.249512,17.715721 29.147579,17.496756 28.902292,17.364338 28.639999,17.363121 z M3.6640515,16.750118 C3.2916393,16.740517 2.9791116,16.946491 2.949711,17.232906 2.9183497,17.538414 3.2209994,17.819756 3.6256978,17.861298 4.0303969,17.902842 4.383893,17.688856 4.4152541,17.383347 4.4466152,17.077839 4.1439652,16.796497 3.7392661,16.754953 3.7139728,16.752357 3.688879,16.750759 3.6640515,16.750118 z M1.9895219,16.420641 C1.7266484,16.41514 1.5177403,16.603405 1.4907844,16.854311 1.4879961,16.880266 1.4871548,16.906893 1.4884026,16.934044 1.5017091,17.223656 1.7476427,17.463352 2.0377104,17.469421 2.3277783,17.475489 2.5521371,17.24563 2.5388302,16.956018 2.5255236,16.666405 2.2795899,16.426708 1.9895219,16.420641 z M4.3136959,16.104239 L4.2974076,16.156567 C4.2929968,16.174906 4.2897787,16.193642 4.2878184,16.212736 4.2721376,16.36549 4.3399601,16.512203 4.4622898,16.625919 L4.4982795,16.656456 4.4733038,16.551928 C4.4446344,16.445797 4.4078459,16.334265 4.3616428,16.217066 z M26.31636,16.07839 C26.200569,16.077724 26.077751,16.093416 25.953594,16.127331 25.456968,16.262987 25.127001,16.638844 25.216593,16.966831 25.306185,17.294819 25.781408,17.450735 26.278034,17.315077 26.774662,17.17942 27.104628,16.803564 27.015036,16.475576 26.947842,16.229586 26.663731,16.080385 26.31636,16.07839 z M28.0445,15.73724 C28.00374,15.738921 27.962107,15.744104 27.919998,15.75303 27.560678,15.829197 27.302931,16.149103 27.344305,16.46756 27.385679,16.786018 27.710506,16.982433 28.069828,16.906267 28.429148,16.830099 28.686893,16.510193 28.645519,16.191734 28.642933,16.171831 28.63924,16.152405 28.6345,16.133492 28.572294,15.885253 28.329819,15.72547 28.0445,15.73724 z M24.934679,15.567094 L24.915766,15.623738 C24.848244,15.853032 24.79833,16.101177 24.739708,16.360016 24.715282,16.467865 24.715662,16.564634 24.734768,16.653053 L24.735624,16.656317 24.781706,16.634912 C25.127212,16.459734 25.331392,16.16164 25.258598,15.895151 25.223076,15.765109 25.126934,15.662117 24.992872,15.593622 z M3.3663602,15.224825 C2.9939479,15.215222 2.6814203,15.421197 2.6520192,15.707611 2.6206584,16.013121 2.9233081,16.29446 3.3280067,16.336004 3.7327051,16.377546 4.0862016,16.163561 4.1175627,15.858052 4.1234431,15.80077 4.1175804,15.744336 4.1015048,15.690174 L4.0988211,15.682804 4.0904088,15.668971 C4.0194816,15.558556 3.9445369,15.465828 3.867908,15.388033 L3.8553402,15.375937 3.841577,15.36619 C3.7307486,15.294539 3.593337,15.245238 3.4415755,15.22966 3.4162817,15.227063 3.3911879,15.225466 3.3663602,15.224825 z M1.9583261,15.142209 L1.926409,15.260399 C1.8821536,15.429865 1.8434436,15.578997 1.7550068,15.646778 1.6776247,15.706107 1.4690413,15.765428 1.2236858,15.772519 L1.2194811,15.772507 1.2716735,15.859471 C1.3745285,16.000181 1.5398923,16.093924 1.7211035,16.096201 2.0110416,16.099846 2.2317559,15.867965 2.2140827,15.578279 2.2052459,15.433435 2.1384854,15.301567 2.037692,15.205453 z M26.380066,14.472629 C26.264275,14.471963 26.141457,14.487654 26.0173,14.521568 25.520674,14.657225 25.190706,15.033083 25.280298,15.361071 25.36989,15.689057 25.845114,15.844973 26.34174,15.709316 26.838367,15.573659 27.168333,15.197802 27.078741,14.869814 27.011547,14.623823 26.727436,14.474624 26.380066,14.472629 z M28.712687,14.214734 L28.681227,14.245085 C28.490332,14.414365 28.240509,14.459775 27.93347,14.306466 L27.860945,14.266915 27.781698,14.33568 C27.660061,14.459476 27.582161,14.617945 27.576824,14.781742 27.566154,15.109337 27.849791,15.334195 28.210344,15.283977 28.570898,15.233757 28.871834,14.927479 28.882503,14.599884 28.88417,14.548697 28.878653,14.500019 28.866779,14.454506 28.842735,14.362343 28.792627,14.28316 28.723341,14.222419 z M27.160269,4.2892781E-05 C27.299044,-0.00095267969 27.444427,0.015335275 27.595468,0.053865227 28.803802,0.36209954 29.183969,1.8017185 28.766634,2.8912611 28.349297,3.9808028 27.81736,3.7542288 27.205713,4.1771836 27.091026,4.2564874 26.978756,4.326015 26.872023,4.3866444 L26.813295,4.4189844 26.819832,4.4252544 C27.114767,4.7341542 26.596096,5.0113339 26.050709,5.4805517 25.4489,5.9983096 24.636303,6.0448651 24.597464,6.1642451 24.454582,6.6033888 24.323322,6.9323344 24.24618,7.0076122 23.964823,7.2823973 23.257963,8.5037718 23.101654,9.4930649 22.945345,10.482424 23.16358,11.414993 23.569984,12.184525 23.976686,12.953991 26.269443,13.205 26.523478,13.205 26.929928,13.205 27.094681,11.416643 27.501133,11.224891 27.907587,11.033184 28.939941,11.684167&#xD;&#xA;28.939941,11.684167 28.939941,11.684167 29.138,11.809561 29.138,12.806527 29.138,13.05578 29.110605,13.302654 29.056324,13.524971 L29.053091,13.536408 29.07517,13.603395 C29.087303,13.653147 29.095953,13.711541 29.113804,13.776889 29.157164,13.935621 29.190403,14.06944 29.168987,14.241765 29.141441,14.463406 28.950022,14.700593 28.888111,14.922063 28.528021,16.210165 28.872597,16.807396 29.497427,17.809853 29.723707,18.17289 29.949463,18.502605 30.305387,18.796301 30.564753,19.010319 30.732994,19.183981 30.788805,19.388012 30.832214,19.546703 30.807611,19.723764 30.704971,19.952475 30.510975,20.384747 30.096983,20.343981&#xD;&#xA;29.648684,20.466438 28.854177,20.683462 28.246445,20.852093 27.484802,20.868444 27.373314,20.870838 27.265766,20.875841 27.162102,20.882027 L27.064354,20.888422 27.026949,20.901434 C26.610311,21.036963 25.677376,21.124683 25.302189,20.693277 24.801941,20.118107 24.61524,18.852526 24.521444,18.315657 24.451097,17.913033 24.221966,17.46723 24.111797,17.059195 L24.086952,16.95826 24.039162,16.985079 C23.476046,17.298382 22.430042,17.819399 21.501917,17.945709 20.151918,18.129431 19.104418,17.047312 17.721191,17.855473 17.115335,18.209454 15.924217,18.740276 15.039166,18.827768 13.964418,18.934015 13.074224,18.537663 12.282131,18.227842 10.932707,17.700031 10.322404,16.754309 8.5983085,16.58729 6.9313755,16.42581 6.9230642,17.950525 6.2778287,18.213144 5.6938018,18.450855 5.2455282,18.527678 4.9190955,18.535105 L4.9042439,18.535212 4.9001221,18.557858 4.8890166,18.620359 4.8972783,18.622486 C4.9205284,18.627556 4.9442315,18.631821 4.9683346,18.635231 L4.9738998,18.63591 4.9624853,18.690157 C4.9253373,18.8715 4.8894195,19.0532 4.8507132,19.234039 L4.8396568,19.284437 4.8147511,19.277414 4.78162,19.270111 4.7773347,19.297285 C4.7607875,19.403231 4.7431044,19.518446 4.7241172,19.644274 4.5028753,21.108454 3.5606053,20.944063 3.2732587,21.07963 2.985914,21.215195 1.4234066,21.144766 1.7107515,20.954931 1.7197307,20.948999 1.7298995,20.942772 1.7411821,20.936258 L1.750756,20.930996 1.6422817,20.922886 C1.3410073,20.89196 1.0417816,20.837284 0.74907365,20.780239 0.29658368,20.653702 0.3966681,20.550598 0.42166164,20.307121 0.43683901,20.159267 0.45206585,20.035664 0.51881375,19.896696 0.60466387,19.717958 0.81540265,19.577635 0.92642715,19.409855 1.5721644,18.434019 1.4960922,17.820637 1.3343045,16.776455 1.2830372,16.445576 1.2245104,16.136395 1.0939234,15.822893 L1.0696727,15.76896 1.0065785,15.764589 C0.74791839,15.737574 0.47946622,15.643409 0.29565092,15.429875 -0.12420068,14.9418 -0.12420068,13.098036 0.47282352,12.691298 1.0695473,12.28456 1.9762466,13.125103 1.9762468,13.125103 1.9762466,13.125103 2.6323051,14.058621 2.9136955,14.058621 3.1950833,14.058621 3.7263004,14.019687 3.976423,13.712911 4.0018277,13.681753 4.0308275,13.659813 4.0621304,13.645272 L4.0685773,13.643082 4.0877847,13.603797 C4.4134373,12.986769 5.3177223,12.523468 5.6462316,11.609691 6.0213742,10.565374 5.3020587,9.0503416 5.0207004,8.2808104 4.8485217,7.809927 4.6516633,7.4075904 4.5653882,6.9471316 4.5586276,6.9110465 3.904829,6.4970093 3.4154319,6.1915565 L3.3018429,6.1207895 3.2388396,6.1413317 C3.2006526,6.1522355 3.1602819,6.1622505 3.1175561,6.1712709 2.4339575,6.3155918 1.8980031,5.9481468 1.3119591,5.129746 0.72591474,4.3113446 0.9662511,3.5332623 1.0686347,2.9584775 1.2171741,2.1245692 1.787948,1.6575183 2.3061466,1.3643318 2.8243465,1.0711445 3.8909106,0.99605495 3.9508328,0.99412674 4.0706758,0.99026931 4.3430819,1.6899961 4.411035,1.8686249 4.0882177,2.415705 3.4751193,2.2739475 3.4425854,3.5098651 3.4100513,4.7457838 3.843837,4.7791872&#xD;&#xA;4.0444636,5.4138475 L4.0364065,5.4260154 4.0552587,5.4297266 C4.4413352,5.5125527 5.4931273,5.9136381 6.0237789,6.0778585 6.6302375,6.2655392 7.1510586,6.4828744 7.5660739,6.6100531 8.7182846,6.9631395 10.571666,7.406898 10.940476,7.7687945 11.410077,8.2295914 12.861,10.18894 12.861,10.18894 12.988637,11.173932 13.243911,13.143919 13.243911,13.143919 13.243911,13.143919 13.982041,13.597658 15.315775,13.380533 16.649509,13.163409 17.389341,12.607319 17.389341,12.607319 17.389341,12.607319 17.134674,10.584111&#xD;&#xA;17.007341,9.5725088 18.233654,8.901104 18.630672,8.0357428 19.441675,7.4124842 20.588894,6.5308442 22.346777,6.0611162 22.346777,6.0611162 22.346777,6.0611162 24.365169,5.5383616 24.365169,5.5383616 24.367351,5.5318818 25.279362,5.0607519 25.963062,4.7083163 L26.062588,4.6570187 26.06463,4.6445832 C26.153551,4.1852727 26.532818,4.3222709 26.197386,2.9914327 25.839594,1.5718714 25.336836,1.9724253 24.906561,1.4629217 L24.910784,1.4582785 C25.198101,1.1500756 25.541071,0.86084462 25.541071,0.86084396 25.541071,0.86084462 26.188837,0.0070082748 27.160269,4.2892781E-05 z" fill="#FFFFFF"/>
  <path d="M3.8217888E-08,0 C3.8217888E-08,0 13.688,0 20.532,0 L20.532,1.0000064 C13.688,1.0000064 3.8217888E-08,1.0000064 3.8217888E-08,1.0000064 3.8217888E-08,1.0000064 -1.063723,0.93587448 -1.2477536,0.47884514 -1.4317842,0.021815809 3.8217888E-08,0 3.8217888E-08,0 z" fill="White"/>
  <path d="M0.64681686,-0.0015676628 C0.64681686,-0.0015676628 19.639226,-0.0019293002 19.639226,-0.0019293002 19.639226,-0.0019293002 20.473339,0.10787221 20.520996,0.47031976 20.568654,0.8327673 19.702837,0.98911862 19.702837,0.98911862 19.702837,0.98911862 0.66817047,1.0036932 0.66817047,1.0036932 0.66817047,1.0036932 -0.04979975,0.861428 3.8217888E-08,0.48097671 0.049799826,0.10052543 0.64681686,-0.0015676628 0.64681686,-0.0015676628 z" fill="White"/>
</svg>