<?xml version="1.0" encoding="UTF-8"?>
<svg xmlns="http://www.w3.org/2000/svg" width="32" height="32" viewBox="0 0 32 32">
  <title>PartialMeshProfile.Round-1.Parameter</title>
  <path d="M15.673,7.0320001 C14.407716,7.0320001 13.382,8.0362253 13.382,9.2749996 13.382,10.513775 14.407716,11.518 15.673,11.518 16.938284,11.518 17.964001,10.513775 17.964001,9.2749996 17.964001,8.0362253 16.938284,7.0320001 15.673,7.0320001 z M9.6400003,6.9130001 C8.3747158,6.9130001 7.349,7.9172254 7.349,9.1560001 7.349,10.394774 8.3747158,11.399 9.6400003,11.399 10.905285,11.399 11.931,10.394774 11.931,9.1560001 11.931,7.9172254 10.905285,6.9130001 9.6400003,6.9130001 z M3.9380002,5.7470002 C2.6727157,5.7470002 1.647,6.7512255 1.6470001,7.9899998 1.647,9.228775 2.6727157,10.233 3.9380002,10.233 5.2032847,10.233 6.2290001,9.228775 6.2290001,7.9899998 6.2290001,6.7512255 5.2032847,5.7470002 3.9380002,5.7470002 z M21.799,5.6560001 C20.533716,5.6560001 19.507999,6.6602254 19.507999,7.8990002 19.507999,9.1377745 20.533716,10.142 21.799,10.142 23.064285,10.142 24.09,9.1377745 24.09,7.8990002 24.09,6.6602254 23.064285,5.6560001 21.799,5.6560001 z M10.000001,2.9370244 C8.9118395,2.9221666 8.0075417,3.527092 7.9335566,4.3542881 7.8546386,5.2366304 8.7503157,6.0377431 9.9341068,6.1436224 11.117898,6.2495022 12.141526,5.6200547 12.220444,4.7377119 12.299361,3.8553696 11.403685,3.0542572 10.219893,2.9483774 10.145906,2.9417601 10.072545,2.938015 10.000001,2.9370244 z M16.610847,2.4951012 C16.503298,2.4947257 16.393822,2.5004563 16.28307,2.5126774 15.101724,2.6430366 14.22282,3.4625163 14.319983,4.3430362 14.417148,5.2235565 15.453585,5.8316817 16.63493,5.7013226 17.816277,5.5709634 18.695181,4.7514839 18.598017,3.8709638 18.509962,3.0729926 17.650494,2.4987359 16.610847,2.4951012 z M4.2004418,1.3333071 C3.2552881,1.3263111 2.459774,1.8080506 2.3135703,2.5410604 2.1402917,3.4098122 2.9446933,4.302536 4.1102514,4.5350146 5.2758098,4.7674932 6.3611512,4.2516909 6.53443,3.3829389 6.7077084,2.5141864 5.903307,1.6214629 4.7377486,1.3889837 4.5556302,1.3526597 4.3754702,1.3346035 4.2004418,1.3333071 z M22.084749,1.083499 C21.977201,1.0843307 21.867796,1.0912895 21.757189,1.1047522 20.577379,1.2483611 19.707727,2.0776517 19.814768,2.9570262 19.921806,3.8364 20.965002,4.4328561 22.144812,4.289248 23.324619,4.1456394 24.194271,3.3163483 24.087233,2.4369738 23.990229,1.6400418 23.124371,1.0754665 22.084749,1.083499 z M23.795795,9.0934656E-08 C24.408039,-0.00014327637 25.019543,0.16923144 25.739933,0.55249196 27.101501,1.2768744 26.5492,2.2119791 26.5492,3.3302078 26.5492,5.3120093 26.558624,6.8295879 25.870461,8.6078682 25.064598,10.69029 25.10568,12.293079 23.338238,13.024438 23.18321,13.088587 23.028425,13.144077 22.873716,13.192071 L22.695818,13.243068 22.696173,13.240334 C22.703993,13.16493 22.708,13.088423 22.708,13.011 22.708,11.772225 21.682285,10.768 20.417,10.768 19.151716,10.768 18.125999,11.772225 18.125999,13.011 18.125999,13.165847 18.142027,13.317029 18.172544,13.463043 L18.193275,13.550979 17.994556,13.56422 C17.115164,13.630403 16.236782,13.729496 15.357069,13.787359 L15.351685,13.787669 15.354,13.698 C15.354,12.459226 14.328284,11.455 13.063,11.455 11.837255,11.455 10.836342,12.397442 10.774981,13.582576 L10.77454,13.599645 10.547416,13.581937 C9.788578,13.525799 9.0287876,13.473501 8.2713537,13.412487 L8.0601559,13.394667 8.078455,13.317042 C8.1089735,13.171029 8.125,13.019847 8.125,12.865 8.125,11.626225 7.0992846,10.622 5.8340001,10.622 4.687336,10.622 3.7374272,11.446759 3.5693974,12.523413 L3.5687857,12.528128 3.4795444,12.486551 C3.1290493,12.317445 2.7875035,12.111338 2.4539084,11.857796 0.47796312,10.356024 0.36547577,9.6739826 0.3654758,7.4967828 0.36547577,6.3317656 1.4210855E-14,5.3557057 0,4.2190771 1.4210855E-14,3.2968814 0.098200195,2.373507 0.20884338,1.4691387 0.53708136,0.059172785 1.0017394,0.33027625 2.0101161,0.33027544 2.6224632,0.33027625 3.1354504,0.33796558 3.7330737,0.49693882 4.5017228,0.70140773 5.1654854,1.2961162 5.8998227,1.580247 10.170833,3.2327998 12.652703,2.8116477&#xD;&#xA;16.864096,1.9969056 18.38924,1.7018479 19.794249,1.3868811 21.197592,0.74693328 22.220224,0.28059616 23.008623,0.00018600842 23.795795,9.0934656E-08 z" fill="#FFFFFF"/>
</svg>