<?xml version="1.0" encoding="UTF-8"?>
<svg xmlns="http://www.w3.org/2000/svg" width="32.941" height="33.179" viewBox="0 0 32.941 33.179">
  <title>PostMarkerScan.DontUse.Parameter</title>
  <path d="F1 M 32.357,32.000 L 0.362,32.000 L 0.362,0.000 L 32.357,0.000 L 32.357,32.000 Z" fill="currentColor"/>
  <path d="F1 M 32.357,0.000 L 32.357,32.000" fill="currentColor"/>
  <path d="F1 M 26.493,18.234 C 27.555,19.353 28.498,20.259 30.098,20.692 C 27.805,21.026 26.439,20.108 26.493,18.234 Z M 21.335,21.400 C 22.514,20.812 22.820,20.079 24.251,20.070 C 23.314,21.210 22.695,21.226 21.335,21.400 Z M 10.460,20.214 C 12.072,20.340 12.373,20.857 13.513,21.400 C 12.193,21.331 11.633,21.488 10.460,20.214 Z M 8.169,20.169 C 6.952,20.877 5.631,21.278 4.190,21.213 C 5.786,20.550 7.420,19.983 8.761,18.850 C 8.852,19.419 8.620,19.907 8.169,20.169 Z M 32.878,30.474 C 33.154,30.296 32.432,29.853 32.433,29.562 C 32.446,26.507 32.441,23.453 32.441,20.398 C 30.882,20.299 29.432,19.931 28.287,18.766 C 27.005,17.460 26.157,17.358 24.536,18.266 C 23.885,18.631 23.277,19.046 22.697,19.520 C 22.391,19.770 22.063,19.999 21.719,20.194 C 21.400,20.374 21.069,20.431 20.960,20.836 C 20.872,21.169 20.920,21.564 20.903,21.911 C 20.888,22.230 20.879,22.549 20.867,22.868 C 20.842,23.511 20.827,24.156 20.776,24.798 C 20.705,25.681 20.938,26.488 20.465,27.285 C 19.979,28.105 18.741,28.425 17.822,28.534 C 17.079,28.623 16.053,28.388 15.433,27.968 C 14.454,27.304 14.528,26.750 14.378,25.636 C 14.275,24.873 14.250,24.231 14.240,23.462 C 14.237,23.290 14.168,20.887 14.029,20.887 C 13.892,20.524 13.567,20.355 13.252,20.176 C 12.557,19.781 12.125,19.157 11.514,18.668 C 9.820,17.311 9.218,17.279 7.547,18.660 C 6.687,19.372 5.741,19.789 4.670,20.040 C 3.221,20.379 1.762,20.445 0.288,20.398 C 0.288,23.369 0.335,26.340 0.258,29.309 C 0.236,30.184 -0.374,32.630 0.362,32.627 C 6.492,32.607 13.604,33.178 19.734,33.179 C 23.522,33.180 29.032,32.783 32.820,32.848 C 33.140,32.854 32.597,30.655 32.878,30.474 Z" fill="#fffeff"/>
  <path d="F1 M 0.288,11.235 C 1.236,11.412 2.037,11.160 2.720,10.464 C 3.476,9.694 4.254,8.946 5.038,8.205 C 5.844,7.443 6.678,7.498 7.560,8.117 C 9.248,9.301 9.736,10.759 9.111,13.022 C 8.753,14.315 8.190,15.534 7.671,16.770 C 6.404,19.784 2.598,20.054 0.532,18.973 C 0.375,18.891 0.358,19.000 0.288,19.057 C 0.288,16.450 0.288,13.842 0.288,11.235 Z" fill="#fffeff"/>
  <path d="F1 M 32.441,19.504 C 29.716,19.487 28.436,18.573 27.582,15.980 C 27.222,14.887 26.924,13.773 26.597,12.669 C 26.054,10.835 26.684,9.300 27.848,7.928 C 28.485,7.177 29.198,7.167 29.824,7.928 C 30.309,8.517 30.855,8.981 31.615,9.277 C 31.323,9.656 30.936,9.337 30.625,9.579 C 31.810,10.366 31.027,10.492 30.278,10.679 C 29.798,10.799 29.260,10.792 28.849,11.181 C 30.336,11.769 31.175,11.516 32.441,10.117 C 32.441,13.246 32.441,16.375 32.441,19.504 Z" fill="#fffeff"/>
  <path d="F1 M 0.288,8.106 C 0.865,8.408 1.442,8.711 2.114,9.063 C 1.890,9.326 1.344,9.129 1.359,9.508 C 1.370,9.789 1.880,9.754 1.921,10.117 C 1.497,10.688 0.799,10.295 0.288,10.564 C 0.288,9.745 0.288,8.925 0.288,8.106 Z" fill="#fffeff"/>
  <path d="F1 M 24.251,20.069" fill="#fffeff"/>
  <path d="F1 M 20.623,21.625" fill="#fffeff"/>
  <path d="F1 M 8.774,18.841 L 8.811,18.811 C 8.811,18.811 8.761,18.826 8.760,18.826 C 8.760,18.826 8.774,18.841 8.774,18.841 Z" fill="#fffeff"/>
  <path d="F1 M 19.921,20.965 C 19.839,21.005 19.760,21.050 19.682,21.095 C 19.517,21.192 19.515,21.266 19.513,21.438 C 19.512,21.578 19.506,21.718 19.502,21.858 C 19.493,22.161 19.485,22.464 19.477,22.766 C 19.461,23.342 19.445,23.918 19.429,24.494 C 19.421,24.799 19.412,25.103 19.404,25.408 C 19.404,26.441 18.584,27.278 17.573,27.278 C 16.562,27.278 15.742,26.441 15.742,25.408 C 15.738,25.279 15.734,25.150 15.731,25.021 C 15.715,24.459 15.699,23.897 15.684,23.335 C 15.674,22.993 15.664,22.651 15.655,22.309 C 15.650,22.145 15.649,21.981 15.642,21.817 C 15.636,21.647 15.553,21.540 15.433,21.419 C 15.313,21.299 15.191,21.176 15.042,21.093 C 14.943,21.038 14.626,20.919 14.559,21.050 C 14.527,21.112 14.571,21.298 14.575,21.369 C 14.626,22.434 14.677,23.499 14.729,24.563 C 14.759,25.180 14.788,25.797 14.818,26.414 C 14.818,27.317 16.052,28.050 17.574,28.050 C 19.096,28.050 20.329,27.317 20.329,26.414 C 20.358,25.812 20.386,25.210 20.415,24.609 C 20.465,23.555 20.515,22.502 20.565,21.449 C 20.574,21.243 20.619,21.027 20.532,20.839 C 20.527,20.829 20.522,20.818 20.513,20.811 C 20.501,20.803 20.487,20.803 20.473,20.804 C 20.279,20.812 20.096,20.878 19.921,20.965 Z" fill="#fffeff"/>
</svg>