<?xml version="1.0" encoding="UTF-8"?>
<svg xmlns="http://www.w3.org/2000/svg" width="32.941" height="33.179" viewBox="0 0 32.941 33.179">
  <title>PostMarkerScan.Parameter</title>
  <path d="F1 M 32.357,32.000 L 0.363,32.000 L 0.363,0.000 L 32.357,0.000 L 32.357,32.000 Z" fill="currentColor"/>
  <path d="F1 M 32.357,0.000 L 32.357,32.000" fill="currentColor"/>
  <path d="F1 M 14.958,16.503 L 14.940,16.180" fill="#fffeff"/>
  <path d="F1 M 19.054,16.502 L 18.857,20.006 C 18.857,20.517 18.029,20.930 17.008,20.930 L 17.008,20.930 C 15.987,20.930 15.159,20.517 15.159,20.006 L 14.958,16.503" fill="#fffeff"/>
  <path d="F1 M 19.073,16.180 L 19.054,16.502" fill="#fffeff"/>
  <path d="F1 M 14.940,16.180 L 14.659,11.279 C 14.659,10.768 15.987,10.392 17.008,10.392 L 17.008,10.392 C 18.029,10.392 19.348,10.778 19.348,11.289 L 19.073,16.180" fill="#fffeff"/>
  <path d="F1 M 19.939,16.180 L 14.052,16.180 L 14.052,3.614 L 19.939,3.614 L 19.939,16.180 Z" fill="#fffeff"/>
  <path d="F1 M 11.892,1.803 C 11.925,1.633 12.301,1.708 12.419,1.708 C 12.680,1.708 12.941,1.708 13.202,1.708 C 14.455,1.708 15.708,1.708 16.961,1.708 C 18.220,1.708 19.480,1.708 20.740,1.708 C 20.951,1.708 21.162,1.708 21.373,1.708 C 21.490,1.708 22.323,1.695 22.028,2.019 C 21.949,2.106 21.729,2.180 21.623,2.245 C 21.466,2.339 21.310,2.434 21.153,2.529 C 20.874,2.697 20.595,2.866 20.317,3.034 C 20.241,3.080 20.047,3.253 19.939,3.253 C 19.939,3.253 14.052,3.253 14.052,3.253 C 13.775,3.086 13.499,2.918 13.222,2.751 C 12.982,2.606 12.742,2.461 12.502,2.316 C 12.338,2.217 11.915,2.061 11.891,1.847 C 11.889,1.831 11.890,1.816 11.892,1.803 Z" fill="#fffeff"/>
  <path d="F1 M 13.631,15.876 C 13.631,15.876 13.631,3.616 13.631,3.614 C 13.631,3.568 13.261,3.386 13.222,3.362 C 12.928,3.180 12.633,2.999 12.339,2.818 C 12.178,2.719 12.017,2.620 11.857,2.521 C 11.757,2.460 11.550,2.258 11.447,2.242 C 11.049,2.182 11.202,3.002 11.202,3.206 C 11.202,3.539 11.202,3.871 11.202,4.203 C 11.202,5.901 11.202,7.598 11.202,9.295 C 11.202,10.092 11.202,10.888 11.202,11.685 C 11.202,12.409 11.146,13.136 11.426,13.816 C 11.475,13.935 11.650,14.045 11.743,14.132 C 12.015,14.383 12.286,14.633 12.558,14.884 C 12.916,15.215 13.273,15.546 13.631,15.876 Z" fill="#fffeff"/>
  <path d="F1 M 20.347,15.900 L 20.347,3.614 L 22.031,2.564 C 22.359,2.359 22.785,2.595 22.785,2.982 C 22.785,3.069 22.785,3.156 22.785,3.243 C 22.785,3.735 22.785,4.226 22.785,4.717 C 22.785,5.483 22.785,6.249 22.785,7.014 C 22.785,7.871 22.785,8.728 22.785,9.586 C 22.785,10.351 22.785,11.117 22.785,11.883 C 22.785,12.174 22.785,12.465 22.785,12.757 C 22.785,12.870 22.785,12.983 22.785,13.095 C 22.785,13.284 22.818,13.496 22.714,13.664 C 22.672,13.732 22.614,13.788 22.557,13.844 C 22.337,14.058 22.112,14.269 21.886,14.478 C 21.373,14.952 20.860,15.426 20.347,15.900 Z" fill="#fffeff"/>
  <path d="F1 M 10.460,20.214 C 11.633,21.488 12.945,21.578 14.264,21.647 C 13.125,21.104 12.072,20.340 10.460,20.214 Z M 20.623,21.625 C 21.983,21.452 23.314,21.210 24.251,20.069 C 22.820,20.079 21.802,21.038 20.623,21.625 Z M 26.493,18.234 C 26.439,20.108 27.805,21.026 30.098,20.692 C 28.498,20.259 27.555,19.353 26.493,18.234 Z M 8.774,18.841 C 7.430,19.981 5.791,20.548 4.190,21.213 C 5.631,21.278 6.952,20.877 8.169,20.169 C 8.627,19.903 8.863,19.406 8.761,18.826 L 8.811,18.811 L 8.774,18.841 Z M 0.288,20.398 C 1.762,20.445 3.221,20.379 4.670,20.040 C 5.741,19.789 6.687,19.372 7.547,18.660 C 9.218,17.279 9.820,17.311 11.514,18.668 C 12.181,19.201 12.711,19.888 13.466,20.325 C 16.211,21.912 20.164,21.589 22.697,19.520 C 23.277,19.046 23.885,18.631 24.536,18.266 C 26.157,17.358 27.005,17.460 28.287,18.766 C 29.432,19.931 30.882,20.299 32.441,20.398 C 32.441,23.453 32.446,26.507 32.433,29.562 C 32.432,29.853 33.154,30.296 32.878,30.474 C 32.597,30.655 33.140,32.854 32.820,32.848 C 29.032,32.783 23.522,33.180 19.734,33.179 C 13.604,33.178 6.492,32.607 0.363,32.627 C -0.374,32.630 0.236,30.184 0.258,29.309 C 0.335,26.340 0.288,23.369 0.288,20.398 Z" fill="#fffeff"/>
  <path d="F1 M 0.288,11.235 C 1.236,11.412 2.037,11.160 2.720,10.464 C 3.476,9.694 4.254,8.946 5.038,8.205 C 5.844,7.443 6.678,7.498 7.560,8.117 C 9.248,9.301 9.736,10.759 9.111,13.022 C 8.753,14.315 8.190,15.534 7.671,16.770 C 6.404,19.784 2.598,20.054 0.532,18.973 C 0.375,18.891 0.358,19.000 0.288,19.057 C 0.288,16.450 0.288,13.842 0.288,11.235 Z" fill="#fffeff"/>
  <path d="F1 M 32.441,19.504 C 29.716,19.487 28.436,18.573 27.582,15.980 C 27.222,14.887 26.924,13.773 26.597,12.669 C 26.054,10.835 26.684,9.300 27.848,7.928 C 28.485,7.177 29.198,7.167 29.824,7.928 C 30.309,8.517 30.855,8.981 31.615,9.277 C 31.323,9.656 30.936,9.337 30.625,9.579 C 31.810,10.366 31.027,10.492 30.278,10.679 C 29.798,10.799 29.260,10.792 28.849,11.181 C 30.336,11.769 31.175,11.516 32.441,10.117 C 32.441,13.246 32.441,16.375 32.441,19.504 Z" fill="#fffeff"/>
  <path d="F1 M 0.288,8.106 C 0.865,8.408 1.442,8.711 2.114,9.063 C 1.890,9.326 1.344,9.129 1.359,9.508 C 1.370,9.789 1.880,9.754 1.921,10.117 C 1.497,10.688 0.799,10.295 0.288,10.564 C 0.288,9.745 0.288,8.925 0.288,8.106 Z" fill="#fffeff"/>
  <path d="F1 M 24.251,20.069" fill="#fffeff"/>
  <path d="F1 M 20.623,21.625" fill="#fffeff"/>
  <path d="F1 M 8.774,18.841 L 8.811,18.811 C 8.811,18.811 8.761,18.826 8.761,18.826 C 8.760,18.826 8.774,18.841 8.774,18.841 Z" fill="#fffeff"/>
</svg>