<?xml version="1.0" encoding="UTF-8"?>
<svg xmlns="http://www.w3.org/2000/svg" width="32.000" height="32.000" viewBox="0 0 32.000 32.000">
  <title>ProstheticProductionProcess.2.DuplicateDentureMode.SeparateDentureScan.1.false</title>
  <path d="F1 M 0.000,0.000 L 32.000,0.000 L 32.000,32.000 L 0.000,32.000 L 0.000,0.000 Z" fill="#ffffff"/>
  <path d="F1 M 2.200,10.450 C 2.200,11.000 2.290,11.560 2.340,12.110 C 2.345,12.528 2.437,12.940 2.610,13.320 C 2.757,13.610 3.055,13.791 3.380,13.790 C 3.616,13.715 3.816,13.554 3.940,13.340 C 3.966,13.307 3.986,13.270 4.000,13.230 C 3.623,12.546 3.418,11.781 3.400,11.000 C 3.400,10.780 3.400,10.530 3.400,10.230 L 3.400,10.230 L 3.150,10.000 C 2.929,9.777 2.695,9.567 2.450,9.370 C 2.353,9.289 2.245,9.222 2.130,9.170 L 2.130,9.170 C 2.091,9.475 2.091,9.785 2.130,10.090 C 2.180,10.200 2.190,10.330 2.200,10.450 Z" fill="#ffffff"/>
  <path d="F1 M 7.300,11.200 C 7.300,11.670 7.240,12.030 7.490,12.290 C 8.044,12.708 8.749,12.871 9.430,12.740 L 9.540,12.740 C 10.350,12.740 10.470,12.590 10.470,12.520 C 10.470,11.890 10.420,11.220 10.370,10.630 L 10.370,10.440 C 10.351,9.600 10.171,8.772 9.840,8.000 C 9.650,7.600 9.430,7.410 9.140,7.380 L 9.000,7.380 C 8.671,7.387 8.363,7.542 8.160,7.800 C 7.555,8.754 7.258,9.871 7.310,11.000 L 7.300,11.200 Z" fill="#ffffff"/>
  <path d="F1 M 4.090,10.930 C 4.094,11.748 4.353,12.545 4.830,13.210 C 5.070,13.510 5.450,13.760 5.750,13.670 C 5.865,13.623 5.970,13.555 6.060,13.470 C 6.373,13.194 6.622,12.852 6.790,12.470 C 6.591,12.046 6.525,11.572 6.600,11.110 L 6.600,11.000 C 6.600,10.570 6.660,10.220 6.700,9.890 L 6.510,9.570 C 6.370,9.370 6.210,9.180 6.060,8.990 C 5.910,8.800 5.680,8.520 5.520,8.270 C 5.475,8.182 5.435,8.092 5.400,8.000 C 5.315,7.846 5.218,7.699 5.110,7.560 C 5.002,7.413 4.847,7.307 4.670,7.260 L 4.670,7.260 C 4.474,7.271 4.299,7.385 4.210,7.560 C 4.138,7.795 4.138,8.045 4.210,8.280 C 4.226,8.463 4.226,8.647 4.210,8.830 L 4.210,9.430 C 4.144,9.928 4.104,10.428 4.090,10.930 Z" fill="#ffffff"/>
  <path d="F1 M 11.200,11.400 C 11.200,11.950 11.130,12.400 11.480,12.710 C 12.284,13.223 13.247,13.426 14.190,13.280 L 14.340,13.280 C 15.530,13.280 15.700,13.070 15.700,12.960 C 15.700,12.210 15.630,11.430 15.570,10.740 L 15.570,10.510 C 15.546,9.522 15.310,8.550 14.880,7.660 C 14.702,7.248 14.324,6.957 13.880,6.890 C 13.356,6.831 12.835,7.019 12.470,7.400 C 11.649,8.496 11.232,9.842 11.290,11.210 L 11.200,11.400 Z" fill="#ffffff"/>
  <path d="F1 M 29.800,9.330 C 29.558,9.516 29.331,9.720 29.120,9.940 L 28.890,10.150 L 28.890,10.150 C 28.890,10.430 28.890,10.690 28.890,10.920 C 28.867,11.714 28.658,12.491 28.280,13.190 L 28.340,13.300 C 28.464,13.514 28.664,13.675 28.900,13.750 C 29.228,13.761 29.530,13.576 29.670,13.280 C 29.843,12.899 29.938,12.488 29.950,12.070 C 29.950,11.520 30.040,10.960 30.080,10.410 C 30.080,10.280 30.080,10.140 30.080,10.010 C 30.119,9.705 30.119,9.395 30.080,9.090 L 30.080,9.090 C 29.974,9.154 29.879,9.235 29.800,9.330 Z" fill="#ffffff"/>
  <path d="F1 M 26.490,13.670 C 26.800,13.760 27.170,13.510 27.410,13.210 C 27.887,12.545 28.146,11.748 28.150,10.930 C 28.180,10.444 28.180,9.956 28.150,9.470 L 28.150,9.390 L 28.150,8.870 C 28.139,8.690 28.139,8.510 28.150,8.330 C 28.217,8.088 28.199,7.830 28.100,7.600 C 28.008,7.414 27.817,7.298 27.610,7.300 C 27.430,7.345 27.271,7.451 27.160,7.600 C 27.060,7.733 26.969,7.874 26.890,8.020 C 26.840,8.100 26.800,8.180 26.740,8.260 C 26.575,8.511 26.395,8.752 26.200,8.980 C 26.040,9.190 25.890,9.370 25.760,9.560 L 25.560,9.880 C 25.613,10.248 25.646,10.619 25.660,10.990 L 25.660,11.160 C 25.739,11.622 25.672,12.097 25.470,12.520 C 25.638,12.902 25.887,13.244 26.200,13.520 C 26.289,13.584 26.386,13.635 26.490,13.670 Z" fill="#ffffff"/>
  <path d="F1 M 24.070,7.820 C 23.862,7.562 23.551,7.409 23.220,7.400 L 23.110,7.400 C 22.810,7.400 22.600,7.620 22.400,8.020 C 22.083,8.785 21.910,9.602 21.890,10.430 L 21.890,10.620 C 21.890,11.260 21.800,11.890 21.800,12.510 C 21.800,12.580 21.920,12.720 22.720,12.730 L 22.840,12.730 C 23.521,12.861 24.226,12.698 24.780,12.280 C 25.000,12.000 25.000,11.670 25.000,11.200 L 25.000,11.000 C 25.019,9.870 24.695,8.761 24.070,7.820 Z" fill="#ffffff"/>
  <path d="F1 M 17.380,7.650 C 16.954,8.542 16.719,9.512 16.690,10.500 L 16.690,10.730 C 16.630,11.480 16.560,12.230 16.560,12.950 C 16.560,13.060 16.740,13.250 17.920,13.270 L 18.080,13.270 C 19.023,13.419 19.987,13.216 20.790,12.700 C 21.140,12.380 21.100,11.950 21.060,11.390 L 21.060,11.190 C 21.110,9.821 20.690,8.477 19.870,7.380 C 19.503,7.003 18.983,6.815 18.460,6.870 C 17.984,6.912 17.569,7.211 17.380,7.650 Z" fill="#ffffff"/>
  <path d="F1 M 1.570,8.510 C 1.567,8.286 1.702,8.083 1.910,8.000 C 2.340,7.860 2.910,8.380 3.520,9.000 L 3.520,9.000 L 3.520,8.900 L 3.520,8.310 C 3.535,8.160 3.535,8.010 3.520,7.860 C 3.455,7.499 3.511,7.126 3.680,6.800 C 3.866,6.422 4.259,6.190 4.680,6.210 C 5.011,6.261 5.310,6.441 5.510,6.710 C 5.635,6.861 5.742,7.025 5.830,7.200 L 6.000,7.420 C 6.151,7.654 6.318,7.878 6.500,8.090 C 6.650,8.280 6.810,8.470 6.950,8.680 C 7.059,8.036 7.331,7.430 7.740,6.920 C 8.093,6.484 8.642,6.255 9.200,6.310 C 9.719,6.398 10.155,6.751 10.350,7.240 C 10.602,7.798 10.767,8.392 10.840,9.000 C 10.962,8.059 11.366,7.177 12.000,6.470 C 12.483,5.969 13.167,5.716 13.860,5.780 C 14.506,5.854 15.069,6.254 15.350,6.840 C 15.821,7.797 16.080,8.844 16.110,9.910 L 16.110,9.910 C 16.145,8.845 16.404,7.799 16.870,6.840 C 17.151,6.254 17.714,5.854 18.360,5.780 C 19.053,5.713 19.739,5.967 20.220,6.470 C 20.860,7.176 21.275,8.057 21.410,9.000 C 21.475,8.381 21.641,7.776 21.900,7.210 C 22.090,6.717 22.528,6.363 23.050,6.280 C 23.602,6.229 24.143,6.458 24.490,6.890 C 24.897,7.402 25.171,8.007 25.290,8.650 C 25.430,8.440 25.580,8.250 25.730,8.060 C 25.915,7.848 26.085,7.625 26.240,7.390 L 26.370,7.170 C 26.465,6.999 26.572,6.836 26.690,6.680 C 26.890,6.411 27.188,6.231 27.520,6.180 C 27.940,6.166 28.330,6.396 28.520,6.770 C 28.680,7.099 28.722,7.473 28.640,7.830 C 28.625,7.980 28.625,8.130 28.640,8.280 C 28.640,8.480 28.640,8.680 28.640,8.870 L 28.640,9.000 L 28.640,9.000 C 29.250,8.410 29.820,7.890 30.250,8.000 C 30.310,8.022 30.364,8.056 30.410,8.100 C 30.408,8.077 30.408,8.053 30.410,8.030 C 30.918,6.751 31.067,5.357 30.840,4.000 C 30.839,3.638 30.720,3.287 30.500,3.000 C 30.334,2.858 30.145,2.746 29.940,2.670 C 27.761,1.719 25.433,1.154 23.060,1.000 C 20.679,0.849 18.306,1.405 16.240,2.600 C 16.162,2.661 16.068,2.699 15.970,2.710 C 15.866,2.694 15.769,2.649 15.690,2.580 C 13.586,1.266 11.088,0.732 8.630,1.070 C 7.797,1.159 6.971,1.309 6.160,1.520 C 5.350,1.720 4.570,2.010 3.770,2.260 C 3.360,2.380 2.940,2.510 2.520,2.620 C 2.256,2.687 1.998,2.778 1.750,2.890 C 1.620,2.953 1.509,3.050 1.430,3.170 C 1.376,3.262 1.342,3.364 1.330,3.470 C 0.844,5.192 0.921,7.025 1.550,8.700 C 1.560,8.640 1.560,8.570 1.570,8.510 Z" fill="#ffffff"/>
  <path d="F1 M 11.440,15.230 C 11.438,15.084 11.462,14.938 11.510,14.800 C 11.249,14.758 10.984,14.741 10.720,14.750 C 9.990,14.750 9.190,15.090 9.070,15.390 C 9.070,15.390 9.070,20.230 10.440,20.090 C 11.188,19.952 11.792,19.401 12.000,18.670 C 11.647,17.557 11.458,16.398 11.440,15.230 Z" fill="#ffffff"/>
  <path d="F1 M 5.000,16.140 C 5.063,15.678 5.231,15.237 5.490,14.850 C 5.411,14.836 5.329,14.836 5.250,14.850 L 5.180,14.850 C 5.080,14.905 4.988,14.976 4.910,15.060 C 4.553,15.445 4.247,15.876 4.000,16.340 C 3.914,16.471 3.837,16.608 3.770,16.750 C 3.653,17.072 3.580,17.409 3.550,17.750 C 3.499,18.118 3.472,18.489 3.470,18.860 C 3.470,19.140 3.470,19.410 3.470,19.690 C 3.455,19.806 3.455,19.924 3.470,20.040 C 3.482,20.067 3.503,20.088 3.530,20.100 L 3.530,20.100 L 3.640,20.100 L 3.740,20.050 L 3.980,19.920 L 4.450,19.640 L 4.580,19.560 L 4.850,19.380 C 4.763,18.298 4.814,17.209 5.000,16.140 Z" fill="#ffffff"/>
  <path d="F1 M 2.520,18.810 C 2.521,18.392 2.551,17.974 2.610,17.560 C 2.654,17.159 2.752,16.765 2.900,16.390 C 2.960,16.251 3.030,16.118 3.110,15.990 C 1.850,16.990 2.040,19.580 2.110,19.610 C 2.267,19.527 2.415,19.426 2.550,19.310 C 2.530,19.150 2.520,19.000 2.520,18.810 Z" fill="#ffffff"/>
  <path d="F1 M 15.680,17.280 C 15.728,16.925 15.752,16.568 15.750,16.210 L 15.750,15.080 C 15.733,14.968 15.667,14.869 15.570,14.810 C 15.129,14.541 14.616,14.411 14.100,14.440 C 13.553,14.450 13.018,14.605 12.550,14.890 C 12.441,14.952 12.370,15.065 12.360,15.190 C 12.383,16.434 12.630,17.664 13.090,18.820 C 13.881,18.194 14.752,17.676 15.680,17.280 Z" fill="#ffffff"/>
  <path d="F1 M 8.150,15.390 L 8.150,15.210 L 8.220,15.000 C 8.250,14.941 8.283,14.884 8.320,14.830 C 8.073,14.691 7.807,14.590 7.530,14.530 C 7.372,14.506 7.210,14.534 7.070,14.610 C 6.437,14.917 6.001,15.522 5.910,16.220 C 5.740,17.540 5.650,20.170 6.410,20.300 C 6.946,20.333 7.469,20.128 7.840,19.740 C 8.096,19.474 8.324,19.183 8.520,18.870 C 8.265,17.728 8.141,16.560 8.150,15.390 Z" fill="#ffffff"/>
  <path d="F1 M 20.500,16.100 C 20.900,16.100 21.300,16.100 21.710,16.100 C 22.120,16.100 22.520,16.100 22.920,16.100 C 22.920,15.680 22.920,15.390 22.920,15.390 C 22.800,15.090 22.010,14.770 21.270,14.750 C 21.006,14.741 20.741,14.758 20.480,14.800 C 20.533,14.937 20.557,15.083 20.550,15.230 C 20.550,15.503 20.533,15.793 20.500,16.100 Z" fill="#ffffff"/>
  <path d="F1 M 27.090,17.000 C 27.562,17.178 28.023,17.385 28.470,17.620 C 28.437,17.322 28.366,17.030 28.260,16.750 C 28.197,16.608 28.123,16.471 28.040,16.340 C 27.775,15.904 27.460,15.502 27.100,15.140 C 27.020,15.059 26.929,14.988 26.830,14.930 L 26.750,14.930 C 26.671,14.915 26.589,14.915 26.510,14.930 C 26.762,15.292 26.929,15.705 27.000,16.140 C 27.000,16.420 27.070,16.710 27.090,17.000 Z" fill="#ffffff"/>
  <path d="F1 M 29.390,17.560 C 29.390,17.770 29.390,17.970 29.440,18.170 L 29.930,18.510 C 29.925,17.574 29.568,16.675 28.930,15.990 C 29.014,16.115 29.084,16.250 29.140,16.390 C 29.279,16.766 29.363,17.160 29.390,17.560 Z" fill="#ffffff"/>
  <path d="F1 M 10.240,24.150 C 10.244,22.967 10.592,21.810 11.240,20.820 C 11.007,20.916 10.761,20.977 10.510,21.000 L 10.360,21.000 C 9.948,20.999 9.554,20.829 9.270,20.530 C 9.121,20.373 8.997,20.194 8.900,20.000 C 8.776,20.155 8.642,20.302 8.500,20.440 L 8.190,20.720 C 7.972,20.887 7.734,21.025 7.480,21.130 C 7.164,21.264 6.823,21.326 6.480,21.310 C 6.158,21.298 5.850,21.175 5.610,20.960 C 5.411,20.768 5.255,20.536 5.150,20.280 L 5.000,20.330 L 4.510,20.630 L 4.140,20.830 C 3.982,20.914 3.808,20.965 3.630,20.980 C 3.464,20.991 3.298,20.957 3.150,20.880 L 3.000,20.780 C 2.883,20.689 2.787,20.573 2.720,20.440 C 2.720,20.440 2.660,20.330 2.720,20.330 C 2.607,20.392 2.490,20.445 2.370,20.490 C 2.146,20.569 1.899,20.540 1.700,20.410 L 1.560,20.280 C 1.328,20.700 1.185,21.163 1.140,21.640 C 1.046,22.369 1.073,23.109 1.220,23.830 C 1.335,24.366 1.710,24.808 2.220,25.010 C 3.494,25.493 4.796,25.897 6.120,26.220 C 7.471,26.571 8.866,26.719 10.260,26.660 C 10.450,26.660 10.640,26.660 10.830,26.660 C 10.454,25.876 10.252,25.020 10.240,24.150 Z" fill="#ffffff"/>
  <path d="F1 M 16.300,17.000 C 17.351,16.600 18.445,16.325 19.560,16.180 C 19.610,15.740 19.630,15.360 19.640,15.180 C 19.630,15.055 19.559,14.942 19.450,14.880 C 18.983,14.594 18.448,14.439 17.900,14.430 C 17.384,14.401 16.871,14.531 16.430,14.800 C 16.335,14.861 16.270,14.959 16.250,15.070 L 16.250,16.200 C 16.250,16.200 16.250,16.550 16.300,17.000 Z" fill="#ffffff"/>
  <path d="F1 M 23.850,15.210 L 23.850,15.390 C 23.850,15.580 23.850,15.870 23.850,16.200 C 24.627,16.307 25.395,16.467 26.150,16.680 C 26.150,16.530 26.150,16.390 26.100,16.260 C 26.008,15.566 25.577,14.963 24.950,14.650 C 24.806,14.574 24.641,14.546 24.480,14.570 C 24.203,14.630 23.937,14.731 23.690,14.870 C 23.731,14.922 23.764,14.979 23.790,15.040 L 23.850,15.210 Z" fill="#ffffff"/>
  <path d="F1 M 22.000,29.270 C 21.660,29.270 14.350,29.100 13.640,26.050 L 13.640,23.680 C 14.455,24.698 15.615,25.381 16.900,25.600 C 18.605,25.916 20.336,26.064 22.070,26.040 L 22.070,24.120 L 25.720,27.600 L 22.000,31.180 L 22.000,29.270 Z" fill="#ffffff"/>
  <path d="F1 M 30.600,23.640 C 30.078,24.236 29.424,24.701 28.690,25.000 C 27.957,25.315 27.192,25.553 26.410,25.710 L 26.410,29.000 C 27.020,28.870 27.630,28.690 28.230,28.500 C 29.500,27.943 30.419,26.800 30.690,25.440 C 30.760,24.839 30.730,24.231 30.600,23.640 Z" fill="#ffffff"/>
  <path d="F1 M 16.260,22.490 C 16.071,22.191 15.970,21.844 15.970,21.490 L 15.970,21.300 C 15.442,21.506 14.950,21.793 14.510,22.150 C 14.167,22.439 14.079,22.930 14.300,23.320 C 14.416,23.561 14.605,23.761 14.840,23.890 C 15.264,23.486 15.763,23.170 16.310,22.960 C 16.401,22.924 16.495,22.894 16.590,22.870 C 16.463,22.759 16.352,22.631 16.260,22.490 Z" fill="#ffffff"/>
  <path d="F1 M 17.680,20.130 L 18.140,20.130 C 18.403,20.166 18.644,19.981 18.680,19.719 C 18.686,19.676 18.686,19.633 18.680,19.590 C 18.684,19.466 18.641,19.344 18.560,19.250 C 18.457,19.162 18.325,19.115 18.190,19.120 C 18.066,19.118 17.945,19.161 17.850,19.240 C 17.761,19.305 17.708,19.409 17.710,19.520 L 16.710,19.520 C 16.707,19.305 16.774,19.094 16.900,18.920 C 17.028,18.741 17.205,18.602 17.410,18.520 C 17.636,18.419 17.882,18.368 18.130,18.370 C 18.525,18.350 18.916,18.462 19.240,18.690 C 19.506,18.903 19.654,19.230 19.640,19.570 C 19.639,19.757 19.579,19.939 19.470,20.090 C 19.348,20.260 19.182,20.395 18.990,20.480 C 19.199,20.549 19.383,20.678 19.520,20.850 C 19.648,21.027 19.715,21.241 19.710,21.460 C 19.722,21.814 19.557,22.151 19.270,22.360 C 18.940,22.601 18.538,22.721 18.130,22.700 C 17.868,22.704 17.608,22.649 17.370,22.540 C 17.151,22.454 16.963,22.304 16.830,22.110 C 16.709,21.919 16.647,21.696 16.650,21.470 L 17.650,21.470 C 17.650,21.599 17.704,21.723 17.800,21.810 C 18.034,21.997 18.366,21.997 18.600,21.810 C 18.699,21.713 18.754,21.579 18.750,21.440 C 18.768,21.273 18.709,21.108 18.590,20.990 C 18.464,20.894 18.308,20.847 18.150,20.860 L 17.680,20.860 L 17.680,20.130 Z" fill="#ffffff"/>
  <path d="F1 M 21.690,20.550 C 21.577,20.546 21.465,20.578 21.370,20.640 C 21.286,20.693 21.220,20.769 21.180,20.860 L 21.180,21.150 C 21.180,21.680 21.360,21.950 21.730,21.950 C 21.879,21.949 22.017,21.874 22.100,21.750 C 22.205,21.605 22.257,21.429 22.250,21.250 C 22.259,21.068 22.206,20.888 22.100,20.740 C 22.002,20.614 21.849,20.543 21.690,20.550 Z M 22.570,18.370 L 22.570,19.140 L 22.570,19.140 C 22.249,19.125 21.933,19.216 21.670,19.400 C 21.435,19.576 21.280,19.839 21.240,20.130 C 21.442,19.928 21.714,19.810 22.000,19.800 C 22.337,19.787 22.660,19.936 22.870,20.200 C 23.100,20.500 23.217,20.872 23.200,21.250 C 23.197,21.513 23.128,21.771 23.000,22.000 C 22.874,22.218 22.691,22.398 22.470,22.520 C 22.238,22.649 21.976,22.715 21.710,22.710 C 21.431,22.711 21.156,22.642 20.910,22.510 C 20.674,22.370 20.483,22.165 20.360,21.920 C 20.229,21.649 20.160,21.351 20.160,21.050 L 20.160,20.660 C 20.153,20.253 20.249,19.850 20.440,19.490 C 20.623,19.148 20.900,18.867 21.240,18.680 C 21.589,18.478 21.987,18.375 22.390,18.380 L 22.570,18.370 Z" fill="#ffffff"/>
  <path d="F1 M 25.570,20.030 C 25.583,19.797 25.542,19.564 25.450,19.350 C 25.329,19.146 25.065,19.078 24.861,19.199 C 24.799,19.236 24.747,19.288 24.710,19.350 C 24.618,19.547 24.577,19.763 24.590,19.980 L 24.590,21.000 C 24.578,21.235 24.615,21.470 24.700,21.690 C 24.771,21.833 24.921,21.919 25.080,21.910 C 25.234,21.919 25.379,21.837 25.450,21.700 C 25.542,21.489 25.583,21.260 25.570,21.030 L 25.570,20.030 Z M 26.570,20.920 C 26.603,21.391 26.469,21.859 26.190,22.240 C 25.610,22.839 24.654,22.855 24.055,22.275 C 24.043,22.263 24.031,22.252 24.020,22.240 C 23.747,21.856 23.613,21.390 23.640,20.920 L 23.640,20.150 C 23.603,19.685 23.731,19.221 24.000,18.840 C 24.564,18.241 25.507,18.212 26.106,18.776 C 26.128,18.797 26.149,18.818 26.170,18.840 C 26.445,19.223 26.579,19.689 26.550,20.160 L 26.570,20.920 Z" fill="#ffffff"/>
  <path d="F1 M 28.000,19.540 C 28.094,19.544 28.185,19.507 28.250,19.440 C 28.314,19.372 28.349,19.283 28.350,19.190 C 28.349,19.094 28.313,19.002 28.250,18.930 C 28.188,18.857 28.096,18.816 28.000,18.820 C 27.903,18.815 27.808,18.851 27.740,18.920 C 27.670,18.992 27.630,19.089 27.630,19.190 C 27.630,19.285 27.670,19.376 27.740,19.440 C 27.809,19.508 27.903,19.544 28.000,19.540 Z M 27.180,19.190 C 27.175,18.972 27.262,18.761 27.420,18.610 C 27.574,18.456 27.782,18.370 28.000,18.370 C 28.212,18.370 28.414,18.456 28.560,18.610 C 28.869,18.931 28.869,19.439 28.560,19.760 C 28.413,19.912 28.211,19.998 28.000,20.000 C 27.784,20.003 27.575,19.920 27.420,19.770 C 27.262,19.619 27.175,19.408 27.180,19.190 Z" fill="#ffffff"/>
  <path d="F1 M 29.890,22.940 C 29.740,22.290 28.950,21.620 27.590,21.230 L 27.260,21.160 C 27.251,21.710 27.065,22.243 26.730,22.680 C 26.664,22.766 26.586,22.844 26.500,22.910 C 27.392,23.202 28.258,23.567 29.090,24.000 C 29.090,24.000 30.000,23.590 29.890,22.940 Z" fill="#ffffff"/>
</svg>