<?xml version="1.0" encoding="UTF-8"?>
<svg xmlns="http://www.w3.org/2000/svg" width="32" height="32" viewBox="0 0 32 32">
  <title>ProstheticMonoblockMode.Wizard.Parameter</title>
  <path d="M16.481615,18.810978 L16.481615,21.361817 C16.254724,20.850426 16.151115,20.505463 16.135918,20.111788 16.117918,19.632578 16.098808,19.006294 16.098808,19.006294 16.098808,19.006294 16.304832,18.900572 16.481615,18.810978 z M17.573399,18.435969 C18.089493,18.417969 18.661276,18.859806 18.661276,18.859806 18.661276,18.859806 18.421946,20.721129 18.108549,21.439943 17.811058,22.122589 17.73992,22.415034 17.481604,22.475125 L17.481604,18.4555 C17.510063,18.451925 17.547058,18.436907 17.573399,18.435969 z M20.356567,18.158619 C21.167559,18.158619 21.499132,18.785586 21.499132,18.785586 L21.499132,20.352028 C21.499132,20.352028 21.167501,21.532608 20.946403,22.104021 20.725208,22.675255 20.412458,22.637551 20.006962,22.582548 19.601467,22.527247 19.342678,21.863716 19.010881,20.978996 18.679085,20.094277 18.807758,19.172314 18.807758,19.172314 18.807758,19.172314 18.881082,18.803972 19.028459,18.619566 19.175959,18.435263 19.545576,18.158619 20.356567,18.158619 z M30.331173,17.892769 C30.601587,17.881132 30.816074,18.152401 30.905264,18.777773 31.270161,19.246985 31.999,27.381487 31.999,27.381487 31.999,27.381487 30.021225,29.623175 28.561542,30.092486 27.898031,30.305767 22.862333,30.44812 17.481604,30.48312 L17.481604,24.227118 C17.73991,24.167118 17.810965,23.876433 18.108549,23.19389 18.309746,22.162068 18.676338,21.800816 19.012834,22.729037 19.344631,23.613856 19.599514,24.281492 20.005009,24.336495 20.410505,24.391796 20.725307,24.425474 20.946403,23.854061 21.435697,23.253248 21.564959,21.921568 22.235451,23.447802 22.567247,24.056017 23.064733,24.423659 23.544027,24.313057 24.023222,24.202454 24.118456,24.110943 24.192457,23.96344 25.078245,22.006396 25.253794,20.566094&#xD;&#xA;26.161182,22.670441 26.419357,22.817845 26.311369,22.544806 26.403368,22.305199 26.442966,21.46438 27.150139,20.703587 27.579134,21.633309 27.616033,19.575562 28.252783,20.040978 28.709978,20.387186 29.128475,18.951214 29.782923,17.986033 30.276365,17.898848 30.29487,17.895579 30.313147,17.893545 30.331173,17.892769 z M2.4681184,17.562903 C2.7417547,17.585083 2.7896361,18.178404 3.0130329,18.992623 3.1783313,19.427433 3.3790254,20.052757 3.1673283,20.467266 4.5182118,19.866051 4.0397109,19.955446 4.1634097,21.713389 4.6902031,20.158352 5.3398394,20.485836 5.5911264,22.385279 5.7755241,22.661705 5.7597494,22.642866 6.2942428,22.311058 7.1185321,21.323136 7.3008079,22.789467 7.7493028,23.748591 7.9337005,24.209301 7.9126787,24.375557 8.3918723,24.375557 8.871067,24.375557 9.2235126,24.246086&#xD;&#xA;9.6106071,23.582571 10.530596,21.79533 10.696432,23.191975 11.509022,24.340401 12.283112,24.340401 12.468838,23.93285 12.745335,23.158734 13.217828,21.943804 13.464209,23.010889 14.016803,23.727106 14.293199,24.169516 14.532421,24.336495 14.532421,24.336495 14.532421,24.336495 14.93685,24.408371 15.397646,23.320847 15.581842,23.136143 15.769302,22.92568 15.9992,22.910681 16.136251,22.901468 16.28228,22.937006 16.481615,23.223189 L16.481615,30.490933 C16.317915,30.49156 16.16301,30.494425 15.9992,30.494839 10.005474,30.509838 4.0111927,30.38086 3.2767021,30.039749 1.81702,29.362034 0.35579759,28.111252 0.095101292,27.537739 -0.16559592,26.964237 0.14870331,20.236757 0.56579823,19.559042 1.695134,18.089657 2.1944816,17.540701 2.4681184,17.562903 z M25.024021,16.627737 C25.128401,16.626967 25.568096,16.691416 25.922905,17.771891 26.328409,19.006819 26.493612,20.315554 26.401415,20.555159 26.309416,20.794766 26.420732,21.07181 26.163135,20.924307 25.905039,20.776903 25.369944,20.223005 25.038149,20.0571 24.706455,19.891197 24.393627,19.779749 24.393627,19.779749 24.393627,19.779749 24.338409,18.931957 24.319408,18.766054 24.317907,18.752054 24.289299,18.704621 24.282299,18.684021 24.333399,19.028359 24.263603,22.067776&#xD;&#xA;24.190504,22.2134 24.116505,22.360802 24.025175,22.452414 23.54598,22.563017 23.066687,22.673619 22.5692,22.305977 22.237404,21.697762 21.905607,21.089449 21.683025,20.628954 21.590927,20.426249 21.49893,20.223425 21.516708,20.260229 21.516708,20.260229 L21.590927,18.766054 C21.590927,18.766054 22.1077,18.103504 22.420996,17.900801 22.734392,17.697996 23.140161,17.66087 23.342859,17.69767 23.544266,17.734423 23.70804,17.845112 23.710041,17.846111 23.710041,17.846111 23.959261,18.097803 24.129957,18.34417 24.013769,18.124283 23.895586,17.918379 23.895586,17.918379 23.895586,17.918379 23.840273,17.716171 23.950273,17.69767 24.060871,17.679671 24.281801,17.789746 24.503,17.568762 24.724197,17.347557 24.816015,16.978789&#xD;&#xA;24.889713,16.812885 24.963743,16.646982 25.001041,16.629288 25.001041,16.629288 25.001041,16.629288 25.009109,16.627848 25.024021,16.627737 z M27.48929,15.816769 C27.48929,15.816769 28.098465,16.906048 28.227564,17.256254 28.356552,17.606442 28.466244,18.45274 28.374046,18.637146 28.282047,18.821449 27.728371,18.417027 27.415073,18.06682 27.101677,17.716612 27.11994,17.292422 26.954142,17.016014 26.887951,16.905632 26.870357,16.883797 26.807659,16.787493 26.912737,17.09712 27.020168,17.712647 27.139687,18.250418 27.286705,18.913933 27.249262,19.559355 27.157265,19.504353 27.065165,19.449051 26.329149,18.674256&#xD;&#xA;26.329149,18.674256 26.329149,18.674256 26.217604,18.600416 26.143604,18.213309 26.069805,17.8263 25.553768,16.941794 25.553768,16.941794 25.553768,16.941794 25.646501,16.885466 25.794001,16.830464 25.941399,16.775162 26.604536,16.426157 26.604536,16.426157 26.604536,16.426157 26.608442,16.430044 26.608442,16.430063 26.712923,16.403374 27.48929,15.816769 27.48929,15.816769 z M27.987331,15.191755 L28.743181,16.039429 C28.743181,16.039429 28.760649,17.03352 28.72365,17.162502 28.686651,17.291464 28.484644,17.311537 28.374046,17.182034 28.263447,17.053032 27.469761,15.744501 27.469761,15.744501 L27.471714,15.744501 z M28.465841,14.564787 C28.465851,14.564787 28.724682,14.969209 28.743181,15.135112 28.761211,15.301016 28.872908,15.743586 28.854509,15.890989 28.83551,16.038542 28.797869,16.07654 28.797869,16.07654 28.797869,16.07654 28.318321,15.485436 28.170923,15.301131 28.023464,15.116818 28.006863,15.080424 28.006863,15.080424 L28.004909,15.080424 z M16.481615,13.615545 L16.481615,16.359749 C16.446251,16.352539 16.354147,16.350622 16.335133,16.342171 16.021286,16.202767 16.057793,15.992554 16.057793,15.992554 L16.128105,14.84409 16.126152,14.84409 C16.126152,14.84409 16.268175,14.300071 16.481615,13.615545 z M28.012268,11.712159 C28.026051,11.711996 28.039333,11.714771 28.051784,11.720971 28.151743,11.770972 28.181335,11.901263 28.241236,12.150669 28.301235,12.400075 28.330296,12.987786 28.280296,13.117488 28.230299,13.247192 28.141348,13.406601 28.06155,13.496403 27.98237,13.585475 27.845802,13.634078 27.842802,13.635078 27.842602,13.633548 27.811108,13.293143 27.78421,12.974907 27.799208,13.289395 27.811552,13.627265 27.811552,13.627265 27.811552,13.627265 27.802069,13.815346&#xD;&#xA;27.602571,13.97493 27.403074,14.134633 27.353367,14.275249 27.223669,14.295249 27.093971,14.315251 26.993204,14.265951 26.993204,14.265951 L27.034218,12.388955 C27.034218,12.388955 27.113378,12.119608 27.352573,12.019806 27.592022,11.919804 27.553318,11.940743 27.663116,11.980744 27.710535,11.998054 27.742832,12.319678 27.766632,12.666306 27.742231,12.325218 27.716341,11.963262 27.741241,11.92996 27.786241,11.86996 27.882854,11.754172 27.969753,11.720971 27.984203,11.715421 27.998486,11.712321 28.012268,11.712159 z M26.966236,11.702947 L26.966902,11.704391 C26.985521,11.750826 26.999063,11.818286 26.999063,11.916289 26.999063,12.229897 26.998751,14.216494 26.928751,14.355798 26.858753,14.495201 26.615759,14.809545 26.336962,14.879247 26.058266,14.949248 25.465879,14.670258 25.465879,14.670258 L25.395567,14.52963 25.424864,14.058915 C25.401363,14.23471 25.370363,14.514985 25.362364,14.564787 25.327465,14.773892 24.664511,15.819807 24.385815,15.715203 24.107019,15.610702 23.16708,15.262068 23.16708,15.262068 L23.096767,13.449527 C23.096767,13.449527 23.410473,12.926209 23.758869,12.508099 23.788818,12.472159 23.817997,12.432105 23.846672,12.388711 L23.850832,12.382131 24.304905,12.766683 24.36742,12.692866 25.706953,13.587812 z M21.946392,11.672142 C22.329687,11.637242 22.678076,12.334021 22.817474,12.961234 22.956873,13.588449 23.201921,14.844215 23.131924,15.297225 23.062223,15.750235 22.853119,15.923464 22.469822,16.062868 22.086527,16.202271 20.795774,16.098141 20.551878,15.889035 20.30798,15.67993 20.204225,14.635101 20.204225,14.635101 L20.274538,14.076494 C20.274538,14.076494 20.553459,13.972122 20.727657,13.658516 20.901854,13.344908 20.969997,12.995794 21.004997,12.717088 21.039797,12.438282 21.563097,11.707143 21.946392,11.672142 z M22.856419,11.539972 L23.156155,11.793815 23.134081,11.822096 C23.023096,11.953241 22.933079,11.919967 22.858696,11.5523 z M28.524435,11.347916 C28.606714,11.345136 28.633417,11.429008 28.670917,11.54128 28.720556,11.690884 28.779352,12.030775 28.819353,12.250281 28.859253,12.469685 28.760916,12.578366 28.670917,12.76787 28.581118,12.957285 28.360374,12.95928 28.360374,12.95928 28.360374,12.95928 28.321077,12.638883 28.331078,12.558881 28.340977,12.479079 28.20022,11.910429 28.20022,11.910429 28.20022,11.910429 28.201469,11.840506 28.23147,11.740503 28.261368,11.640701 28.251421,11.471122&#xD;&#xA;28.420919,11.381121 28.463339,11.35872 28.497036,11.348846 28.524435,11.347916 z M18.391748,11.219007 C19.088638,11.184106 19.438124,11.812408 19.821419,12.648728 20.205013,13.485048 20.203913,15.400256 20.133913,15.783565 20.064215,16.166872 19.751223,16.445688 19.542124,16.445688 19.41268,16.445688 18.358799,16.454661 17.481604,16.432017 L17.481604,11.54128 C17.743467,11.315191 18.03488,11.23693 18.391748,11.219007 z M29.049818,10.763918 C29.119818,10.753918 29.159462,11.352378 29.139662,11.511982 29.119661,11.671686 29.209816,11.731897 29.049818,11.8616 28.890221,11.991303 28.829119,11.94168 28.829119,11.94168 L28.670917,11.412372 C28.670917,11.412372 28.650761,11.092376 28.760759,10.982674 28.870558,10.872971 28.98002,10.773919 29.049818,10.763918 z M30.006248,7.1527311 L30.007629,7.2011845 C30.008387,7.2368833 30.008791,7.2696692 30.008791,7.2989947 30.008791,7.7682058 29.802597,7.9250276 29.542,8.185734 29.260803,8.9661524 29.257034,9.0541756 28.749041,9.2306807 28.749641,10.311404 28.838749,9.6621277 28.411154,9.6291267 28.362406,9.8193495 28.162405,10.645649 28.059317,10.099134 L28.054979,10.073343 z M17.481604,6.988084 L21.38689,10.295439 21.335318,10.355064 C21.152256,10.577087 21.012731,10.829598 20.995232,10.969001 20.541937,11.956293 20.245684,12.112062 19.8097,10.896733 19.426403,10.060314 19.076919,9.435919 18.38003,9.4709198 18.02861,9.4884693 17.739923,9.5619299 17.481604,9.7795212 z M28.358375,0.24898892 L24.441233,6.0848848 20.636263,2.8673188 18.407391,5.8599679 18.421818,5.8724062 17.481604,6.9825999 17.481604,0.64259327 C21.648027,0.60535795 28.358375,0.24898892 28.358375,0.24898892 z M1.3470387,0 L1.3509448,0 C1.3713143,0.0011100665 9.8923396,0.46754203 14.839058,0.67579646 15.129054,0.68879706 15.670403,0.64649922 15.9992,0.64649934 16.146889,0.64867032 16.327461,0.64364684 16.481615,0.64454634 L16.481615,11.496357 C16.290649,11.797928 16.137628,11.905583 15.9992,11.912383 L15.9992,11.908476 C15.641765,11.916435 15.375862,11.127263 14.79609,10.355706 14.459393,9.8131945 14.226277,9.5688602 13.721885,9.5568592 L13.61837,9.5568592 C13.039778,9.5768606 12.757715,9.7739212 12.358621,10.592039 12.108724,11.104451 11.953298,11.906489 11.872298,12.478801 11.828718,12.471801 11.780722,12.469269 11.729722,12.459269 11.729722,12.44294 11.741442,12.347939 11.741442,12.347939 11.741442,12.347939 11.424482,12.108818 11.264884,11.869413 11.105185,11.629907 11.004668,10.71333 10.565674,10.33422 10.318776,10.121016 10.102505,9.9448692 9.8938074,9.9318678 9.7315092,9.9215681 9.5732831,10.009735&#xD;&#xA;9.407485,10.254141 9.0283899,10.812754 8.9270219,11.590109 8.9270219,11.590109 L8.9270219,11.728784 C8.8926029,11.720784 8.8556013,11.715346 8.819602,11.705346 L8.8098363,11.427995 C8.8098363,11.427995 8.2514333,10.770443 7.8723478,10.092028 7.5406522,9.4984142 7.2061595,8.8903906 6.9680623,8.8673908 6.9340629,8.8644907 6.9023604,8.8717348 6.8723602,8.8947346 6.6328635,9.074239 6.4743966,10.192561 6.4543967,10.611571 6.4506964,10.701273 6.4507245,10.83877 6.4407253,10.982674 6.4179253,10.966773 6.2481493,10.849748 6.173151,10.812748 6.0933513,10.772847 5.6750221,10.451325 5.4954242,10.271719 5.3158268,10.092215 5.0956983,9.7346765&#xD;&#xA;4.9758996,9.8146784 4.8559012,9.894479 4.935822,10.134057 4.8958225,10.453365 L4.8958225,10.646728 C4.8648228,10.532466 4.8411359,10.453365 4.8411359,10.453365 4.7613468,10.393462 4.4808401,10.09359 4.3411421,10.193594 4.2883925,10.230985 4.2452835,10.317712 4.2102842,10.422114 4.2292842,10.353201 4.2415337,10.293204 4.2415337,10.293204 4.2415337,10.293204 4.1398849,10.113904 3.960287,10.013901 3.8281886,9.9405004 3.7398524,10.03035 3.6868526,10.162343 3.7178525,10.07823 3.7454459,9.9963228 3.7454454,9.9963228 3.7454459,9.9963228 3.6484503,9.8171913&#xD;&#xA;3.5286524,9.697488 3.4084834,9.5774853 3.3274824,9.5978758 3.3274822,9.5978758 3.3274824,9.5978758 3.3104669,9.6546432 3.2864673,9.7326452 3.2744674,9.7196447 3.2623114,9.7085354 3.2513115,9.6955349 L3.2864673,9.5978758 C3.2864673,9.5978758 3.2263116,9.2606365 3.1263134,9.140834 3.0266144,9.0217726 2.7884266,8.9806749 2.7884273,8.9806749 L2.7884273,9.0158312 2.4974145,8.185734 C2.4974148,8.185734 2.1817967,8.0278284 2.0774981,7.7150199 1.9731993,7.4022128 2.2369179,5.8903758 2.1849191,5.6817705 2.1328194,5.4732663 0.82829797,4.0132796 0.72399909,3.8047742 0.61980051,3.5961697 0.72399926,0.6253143 0.72399909,0.31250695 0.72399926,0.0030001135 1.3390386,2.005146E-05 1.3470387,0 z" fill="#FFFFFF"/>
  <path d="m 298.05469 522.22266 c 0 0.015 -0.01 0.0328 -0.01 0.0488 0 -0.016 -3.3e-4 -0.0318 0.0137 -0.0488 z m 2.78515 0.13086 c -0.034 -0.003 -0.0658 0.007 -0.0957 0.0293 -0.2394 0.1796 -0.39807 1.29585 -0.41797 1.71485 -0.004 0.0771 -0.003 0.25441 -0.008 0.37304 -0.0111 -0.008 -0.19383 -0.135 -0.27148 -0.17382 -0.0799 -0.0399 -0.50019 -0.35947 -0.67969 -0.53907 -0.1796 -0.1796 -0.39788 -0.53703 -0.51758 -0.45703 -0.12 0.0798 -0.0401 0.31742 -0.0801 0.63672 -0.004 0.0352 0.0113 0.19464 0.0117 0.26172 -0.0347 -0.1269 -0.0723 -0.26172 -0.0723 -0.26172 -0.08 -0.06 -0.35844 -0.35761 -0.49804 -0.25781 -0.10322 0.0739 -0.15966 0.32019 -0.18946 0.54687 0.004 -0.0393 0.005 -0.1564 0.01 -0.16797 0.04 -0.1 0.0801 -0.27929 0.0801 -0.27929 0 0 -0.1 -0.1795 -0.2793 -0.2793 -0.1796 -0.1 -0.28041 0.0995 -0.32031 0.29883 -0.04 0.1995 -0.10055 0.95731 -0.0606 1.03711 0.04 0.08 0.1197 0.23967 0.2793 0.35937 0.1596 0.1197 0.24023 0.24024 0.24023 0.24024 0 0 -3e-5 -0.0368 0 -0.0391 10e-4 0.003 0.20117 0.39859 0.41992 0.49805 0.2195 0.1 0.45899 0.1582 0.45899 0.1582 0 0 0.002 -0.32116 0.002 -0.62304 0.0258 0.2885 0.0566 0.64258 0.0566 0.64258 0 0 0.32049 0.42 0.67969 0.5 0.3591 0.0798 0.79688 -0.33985 0.79688 -0.33985 l -0.0117 -0.36328 c 0.0205 0.12277 0.0378 0.25083 0.0723 0.34375 0.1995 0.5387 0.45871 1.07747 0.65821 1.19727 0.1996 0.1197 1.1967 -0.14044 1.3164 -0.24024 0.1197 -0.1 0.33985 -0.25781 0.33985 -0.25781 l -0.0801 -1.99609 c 0 0 -0.5584 -0.65754 -0.9375 -1.33594 -0.33171 -0.5936 -0.66422 -1.20395 -0.90235 -1.22656 z m -3.32812 1.44531 c 0.006 -0.0238 0.0156 -0.0898 0.0195 -0.0996 0.04 -0.1 0.0801 -0.2207 0.0801 -0.2207 0 0 -0.0992 -0.17913 -0.21875 -0.29883 -0.1197 -0.1197 -0.19922 -0.0996 -0.19922 -0.0996 0 0 -0.29967 0.91805 -0.25977 1.09765 0.04 0.1796 0.39844 0.53907 0.39844 0.53907 0 0 0.12497 -0.69847 0.17969 -0.91797 z m -0.85742 -1.33789 c 0 0 -0.0195 0.22098 -0.0195 0.58008 0 0.3592 0.29882 0.6582 0.29882 0.6582 l 0.21875 -0.61914 c 0 0 -0.0582 -0.33929 -0.1582 -0.45899 -0.0998 -0.1196 -0.33984 -0.16015 -0.33984 -0.16015 z m 10.83398 0.58008 c -0.5787 0.02 -0.85881 0.21911 -1.25781 1.0371 -0.3991 0.8181 -0.55859 2.37324 -0.55859 2.55274 0 0.1796 8e-5 0.85937 0.17968 1.13867 0.1795 0.2793 0.47852 0.39844 0.47852 0.39844 l 2.85351 0.041 c 0 0 0.0399 -8e-5 0.2793 -0.17968 0.2393 -0.1796 0.30078 -0.48047 0.30078 -0.48047 0 0 -0.10091 -1.11689 -0.32031 -2.05469 -0.2195 -0.9377 -0.41814 -1.07765 -0.77734 -1.65625 -0.3591 -0.5786 -0.59914 -0.81687 -1.17774 -0.79687 z m -3.79297 0.37695 c -0.13831 0.0162 -0.27385 0.11087 -0.41601 0.32031 -0.3791 0.5587 -0.48047 1.33789 -0.48047 1.33789 l -0.0195 1.97461 c 0 0 -0.11869 0.49841 0.59961 0.75781 0.7183 0.2594 1.41573 0.0405 1.61523 -0.0195 0.1995 -0.06 0.43909 -0.37983 0.45898 -0.51953 0.02 -0.1397 0.16016 -1.43555 0.16016 -1.43555 0 0 -0.31891 -0.23911 -0.47851 -0.47851 -0.1596 -0.2394 -0.26032 -1.15811 -0.69922 -1.53711 -0.27438 -0.23694 -0.50972 -0.42743 -0.74024 -0.40039 z m -5.84375 3.42773 c 0 0 -0.60867 0.73635 -0.79297 1.03125 -0.184 0.295 -0.0363 1.07 0.0742 1.125 0.1106 0.0553 0.38672 -0.14843 0.38672 -0.14843 l 0.16797 -0.29688 c -0.0687 0.12971 -0.12999 0.25235 -0.15039 0.33398 -0.092 0.3686 -0.16468 1.32711 -0.10938 1.47461 0.055 0.1474 0.68218 -0.23983 0.92188 -0.46093 0.2396 -0.2212 0.47924 -1.14291 0.58984 -1.34571 0.1106 -0.2027 0.1836 -0.40429 0.1836 -0.40429 l -0.75586 -0.68164 c 0 0 -0.30881 0.44551 -0.55274 0.85937 l 0.49805 -0.87891 c 0 0 0.0179 -0.092 -0.0371 -0.16601 -0.0553 -0.0737 -0.42383 -0.44141 -0.42383 -0.44141 z m 1.41797 1.36328 c -0.1106 0 -0.0735 0.16625 -0.25781 0.49805 -0.1843 0.3318 -0.25659 1.10672 -0.36719 1.29102 -0.1106 0.1843 -0.2212 1.28884 0 1.21484 0.2212 -0.0737 0.91992 -0.86523 0.91992 -0.86523 0.0153 -0.0612 0.0464 -0.12073 0.0762 -0.20704 -0.0239 0.0988 -0.0457 0.19841 -0.0566 0.29883 -0.1106 1.0138 -0.3132 1.63952 -0.1289 1.91602 0.1843 0.2765 0.16472 0.25983 0.69922 -0.0723 0.5345 -0.3318 1.32812 -0.84961 1.32812 -0.84961 l 0.0371 -0.38476 c -0.032 0.81015 -0.0562 2.30249 0.0918 2.67187 0.1843 0.4608 0.16533 0.62696 0.64453 0.62696 0.4793 0 0.8298 -0.12947 1.2168 -0.79297 0.3871 -0.6636 0.88476 -1.3081 0.88476 -1.5293 0 -0.2211 -0.10937 -1.49414 -0.10937 -1.49414 l -0.0195 -0.0723 c 0 0 -0.737 -1.27332 -1.4375 -1.10742 -0.43041 0.10195 -0.77334 0.3769 -0.9961 0.63867 l 0.12891 -0.28711 c 0 0 -0.0176 -0.31445 -0.22071 -0.31445 -0.20279 0 -0.18319 0.25789 -0.40429 -0.0371 -0.2212 -0.2949 -0.14764 -1.01428 -0.46094 -0.95898 -0.14719 0.0258 -0.40934 0.2665 -0.65625 0.60742 l 0.28711 -0.4043 c 0 0 -0.38725 0.0179 -0.62695 -0.0371 -0.2396 -0.0553 -0.46177 -0.34961 -0.57227 -0.34961 z m 0.83789 0.89649 c -0.0929 0.13925 -0.17626 0.29884 -0.2539 0.46289 0.0226 -0.0549 0.0801 -0.2168 0.0801 -0.2168 z m 5.57813 0.81836 c -0.9032 0.037 -1.29041 0.36874 -1.34571 0.46094 -0.055 0.092 0.0742 1.6213 0.0742 1.6582 h -0.002 c 0.037 0.074 0.18488 2.26758 0.95898 2.26758 0.7742 0 0.95788 -0.40549 1.23438 -1.17969 0.2764 -0.7741 0.44336 -1.67684 0.44336 -1.99024 0 -0.31329 -0.0547 -0.40624 -0.0547 -0.40624 0 0 -0.40549 -0.84745 -1.30859 -0.81055 z m 2.52343 0.25781 c -0.6267 0.037 -0.66182 -0.0175 -0.91992 0.24024 -0.258 0.25799 -0.24023 0.42382 -0.24023 0.42382 0 0 0.55358 2.41317 0.83008 2.85547 0.2764 0.4424 0.51562 0.60938 0.51562 0.60938 0 0 0.40444 0.0741 0.86524 -1.01367 0.4608 -1.0874 0.51757 -2.58008 0.51757 -2.58008 0 0 -0.94166 -0.57196 -1.56836 -0.53516 z" fill="#FFFFFF"/>
</svg>