<?xml version="1.0" encoding="UTF-8"?>
<svg xmlns="http://www.w3.org/2000/svg" width="32" height="32" viewBox="0 0 32 32">
  <title>ProstheticToothScalingMode.Always.Parameter</title>
  <path d="M3.6184571,0 L7.2369144,3.9486327 7.2369144,6.2531247 4.6089847,3.2882814 4.6089847,4.9900975 4.6216795,4.9900975 4.6216795,11.56666 7.2496092,8.6085553 7.2496092,10.913046 3.6311514,14.854942 0.012694776,10.913046 0.012694776,8.6085553 2.6406243,11.56666 2.6406243,9.8715816 2.6346681,9.8715816 2.6346681,3.2882814 0,6.2531247 0,3.9351563 z" fill="#FFFFFF"/>
  <path d="M9.2813886,0.00010784225 L9.2857665,0.00010784225 C10.820941,0.019752336 11.902255,1.6692409 14.602845,4.3058935 16.544791,6.1579621 22.634662,7.0018075 21.632942,7.1784562 18.749599,8.7620035 12.141288,5.5953352 12.141288,5.5953352 12.141288,5.5953352 16.284797,8.1755707 14.96325,8.879356 13.641586,9.5830074 9.1977469,9.5828171 10.038678,9.9347705 10.87961,10.286737 17.868175,11.725845 21.624187,9.3229362 23.426349,7.9153663 28.298603,0.43419124 30.701447,0.55075862 33.104177,0.6682076 39.833152,6.7688553&#xA;40.794264,11.343519 41.569851,15.035205 38.807207,31.997518 37.929987,34.071642 37.538284,35.007795 37.754891,36.486858 37.754891,36.486858 L37.929987,38.769 6.1909469,38.710876 6.091726,37.7763 C6.091726,37.7763 5.7172809,32.573674 3.7950522,28.702792 1.8728237,24.832048 -0.50598861,15.0426 0.09469318,12.579424 0.69537508,10.116104 4.7569398,2.0756431 7.5202168,0.55075862 8.2090768,0.17062114 8.7700561,-0.0049912289 9.2813886,0.00010784225 z" fill="White" stroke-width="1.71010506"/>
</svg>