<?xml version="1.0" encoding="UTF-8"?>
<svg xmlns="http://www.w3.org/2000/svg" width="32.000" height="32.000" viewBox="0 0 32.000 32.000">
  <title>ProstheticProductionProcess.1.DuplicateDentureMode.Enabled</title>
  <path d="F1 M 25.475,12.442 L 25.837,12.035 C 25.931,12.174 26.004,12.326 26.056,12.486 C 26.098,12.682 26.128,12.881 26.145,13.081 C 26.143,13.132 26.128,13.182 26.101,13.226 C 26.101,13.226 25.725,12.761 25.607,12.616 C 25.559,12.560 25.516,12.502 25.476,12.441" fill="#ffffff"/>
  <path d="F1 M 25.053,12.964 L 25.459,12.528 L 26.055,13.196 C 26.055,13.196 26.069,13.982 26.040,14.084 C 26.010,14.186 25.852,14.200 25.764,14.097 C 25.676,13.995 25.053,12.964 25.053,12.964" fill="#ffffff"/>
  <path d="F1 M 24.355,13.517 C 24.601,13.366 24.838,13.201 25.066,13.022 C 25.066,13.022 25.547,13.880 25.648,14.156 C 25.767,14.506 25.806,14.878 25.763,15.246 C 25.688,15.391 25.255,15.071 25.012,14.795 C 24.768,14.518 24.779,14.185 24.648,13.968 C 24.517,13.752 24.357,13.517 24.357,13.517" fill="#ffffff"/>
  <path d="F1 M 23.540,13.908 C 23.731,14.225 23.887,14.561 24.005,14.911 C 24.064,15.216 24.151,15.274 24.151,15.274 C 24.151,15.274 24.732,15.885 24.805,15.930 C 24.878,15.974 24.906,15.464 24.791,14.941 C 24.725,14.500 24.619,14.067 24.472,13.647 C 24.371,13.517 24.371,13.502 24.371,13.502 C 24.371,13.502 23.844,13.777 23.730,13.822 C 23.665,13.845 23.602,13.874 23.542,13.908 L 23.540,13.908 Z" fill="#ffffff"/>
  <path d="F1 M 23.105,13.662 C 23.105,13.662 23.514,13.586 23.832,14.563 C 24.092,15.265 24.219,16.009 24.208,16.758 C 24.132,16.946 24.222,17.163 24.018,17.048 C 23.814,16.932 23.393,16.495 23.131,16.365 C 22.966,16.283 22.797,16.210 22.623,16.146 C 22.623,16.146 22.580,15.478 22.564,15.347 C 22.474,15.114 22.362,14.890 22.230,14.678 C 22.230,14.678 22.187,14.518 22.273,14.503 C 22.360,14.488 22.535,14.578 22.709,14.402 C 22.848,14.225 22.952,14.023 23.016,13.807 C 23.073,13.677 23.101,13.662 23.101,13.662 L 23.105,13.662 Z" fill="#ffffff"/>
  <path d="F1 M 22.088,14.621 C 22.276,14.799 22.429,15.011 22.539,15.246 C 22.566,16.186 22.541,17.127 22.464,18.064 C 22.405,18.181 22.333,18.253 21.955,18.341 C 21.578,18.429 21.185,18.137 20.923,17.658 C 20.661,17.179 20.488,16.814 20.415,16.654 C 20.342,16.494 20.356,16.523 20.356,16.523 L 20.415,15.346 C 20.606,15.095 20.825,14.865 21.068,14.663 C 21.285,14.529 21.541,14.473 21.795,14.503 C 21.898,14.524 21.996,14.563 22.085,14.619" fill="#ffffff"/>
  <path d="F1 M 20.343,15.363 C 20.151,15.050 19.808,14.861 19.441,14.868 C 18.927,14.724 18.393,15.023 18.248,15.537 C 18.236,15.580 18.227,15.624 18.221,15.668 C 18.167,16.150 18.222,16.638 18.381,17.096 C 18.642,17.794 18.846,18.316 19.166,18.361 C 19.486,18.405 19.733,18.436 19.906,17.985 C 20.080,17.534 20.342,16.604 20.342,16.604 L 20.343,15.363 Z" fill="#ffffff"/>
  <path d="F1 M 14.849,18.358 C 14.849,18.358 15.169,18.416 15.533,17.558 C 15.770,16.904 15.908,16.218 15.940,15.523 C 15.566,15.290 15.143,15.146 14.704,15.102 C 14.210,15.132 14.178,15.088 13.979,15.291 C 13.779,15.494 13.788,15.625 13.788,15.625 C 13.951,16.392 14.170,17.145 14.443,17.880 C 14.548,18.063 14.686,18.226 14.850,18.359" fill="#ffffff"/>
  <path d="F1 M 11.711,16.569 C 11.740,16.627 11.856,18.357 12.462,18.357 C 13.069,18.357 13.218,18.037 13.439,17.426 C 13.622,16.921 13.739,16.393 13.788,15.857 C 13.798,15.749 13.783,15.639 13.744,15.537 C 13.548,15.147 13.149,14.899 12.712,14.898 C 12.323,14.868 11.940,14.999 11.651,15.261 C 11.648,15.698 11.668,16.135 11.710,16.570" fill="#ffffff"/>
  <path d="F1 M 11.564,15.319 C 11.564,15.319 10.984,14.316 10.431,14.447 C 9.984,14.551 9.615,14.865 9.442,15.289 C 9.375,16.157 9.395,17.028 9.501,17.892 C 9.646,18.255 9.631,18.386 10.009,18.386 C 10.429,18.403 10.814,18.152 10.968,17.761 C 11.242,17.384 11.476,16.980 11.666,16.555 C 11.666,16.380 11.581,15.377 11.581,15.377" fill="#ffffff"/>
  <path d="F1 M 9.749,14.723 C 9.749,14.723 9.733,14.477 9.573,14.477 C 9.413,14.477 9.428,14.680 9.254,14.447 C 9.080,14.214 9.138,13.647 8.890,13.691 C 8.339,14.057 7.978,14.647 7.901,15.304 C 7.814,16.104 7.656,16.598 7.800,16.816 C 7.944,17.034 7.931,17.020 8.353,16.758 C 8.775,16.495 9.399,16.089 9.399,16.089 L 9.474,15.333" fill="#ffffff"/>
  <path d="F1 M 7.888,15.231 C 7.673,15.487 7.429,15.716 7.161,15.915 C 6.986,15.973 7.073,15.101 7.161,14.955 C 7.248,14.809 7.306,14.200 7.451,13.937 C 7.597,13.675 7.567,13.545 7.655,13.545 C 7.743,13.545 7.916,13.778 8.106,13.822 C 8.269,13.849 8.435,13.859 8.600,13.851 L 8.179,14.447 C 8.069,14.703 7.972,14.965 7.889,15.231" fill="#ffffff"/>
  <path d="F1 M 7.539,13.502 L 6.943,12.963 C 6.688,13.314 6.469,13.689 6.290,14.083 C 6.209,14.465 6.179,14.857 6.202,15.246 C 6.245,15.362 6.740,15.057 6.929,14.883 C 7.123,14.548 7.279,14.192 7.393,13.822 C 7.449,13.719 7.498,13.612 7.539,13.502" fill="#ffffff"/>
  <path d="F1 M 6.899,12.950 L 6.274,14.054 C 6.274,14.054 6.057,14.215 5.969,14.170 C 5.826,13.896 5.805,13.575 5.910,13.284 C 6.055,13.052 6.535,12.471 6.535,12.471 C 6.535,12.471 6.826,12.761 6.870,12.819 C 6.896,12.857 6.906,12.904 6.899,12.950" fill="#ffffff"/>
  <path d="F1 M 19.322,12.089 C 19.322,12.089 19.405,12.915 19.598,13.078 C 20.079,13.265 20.602,13.312 21.108,13.217 C 21.396,13.150 21.607,12.905 21.631,12.611 C 21.621,11.990 21.537,11.372 21.382,10.771 C 21.273,10.276 20.997,9.727 20.695,9.754 C 20.393,9.781 19.981,10.355 19.953,10.581 C 19.929,10.840 19.854,11.091 19.734,11.322 C 19.654,11.468 19.529,11.584 19.377,11.652 L 19.322,12.089 Z" fill="#ffffff"/>
  <path d="F1 M 23.499,10.660 C 23.499,10.660 24.158,10.303 24.241,10.084 C 24.314,9.928 24.428,9.795 24.570,9.698 C 24.570,9.698 24.680,9.698 24.680,9.947 C 24.680,10.196 24.680,11.760 24.625,11.869 C 24.526,12.059 24.359,12.206 24.159,12.282 C 23.920,12.281 23.685,12.225 23.472,12.117 L 23.417,12.008 L 23.499,10.660 Z" fill="#ffffff"/>
  <path d="F1 M 24.677,11.798 L 24.708,10.320 C 24.749,10.193 24.840,10.088 24.960,10.029 C 25.149,9.949 25.118,9.966 25.204,9.997 C 25.284,10.425 25.324,10.859 25.322,11.295 C 25.306,11.405 25.246,11.504 25.156,11.570 C 24.999,11.696 24.960,11.806 24.855,11.822 C 24.794,11.831 24.732,11.823 24.675,11.799" fill="#ffffff"/>
  <path d="F1 M 25.345,11.303 C 25.295,10.856 25.270,10.407 25.270,9.958 C 25.317,9.895 25.435,9.753 25.514,9.792 C 25.592,9.832 25.615,9.934 25.664,10.130 C 25.717,10.381 25.727,10.640 25.695,10.894 C 25.654,11.003 25.596,11.104 25.523,11.195 C 25.473,11.243 25.415,11.281 25.350,11.305" fill="#ffffff"/>
  <path d="F1 M 25.629,9.942 C 25.673,10.110 25.707,10.281 25.731,10.453 C 25.732,10.558 25.739,10.663 25.753,10.768 C 25.856,10.766 25.950,10.708 25.998,10.617 C 26.069,10.467 26.149,10.382 26.115,10.209 C 26.085,10.021 26.046,9.834 25.998,9.650 C 25.958,9.532 25.935,9.453 25.801,9.524 C 25.668,9.595 25.675,9.728 25.651,9.807 C 25.638,9.851 25.630,9.896 25.629,9.941" fill="#ffffff"/>
  <path d="F1 M 25.998,9.549 C 25.998,9.549 25.982,9.297 26.069,9.211 C 26.129,9.136 26.206,9.076 26.294,9.038 C 26.349,9.029 26.380,9.502 26.365,9.628 C 26.350,9.754 26.420,9.801 26.294,9.902 C 26.169,10.004 26.121,9.965 26.121,9.965 L 25.998,9.549 Z" fill="#ffffff"/>
  <path d="F1 M 15.929,13.026 C 15.894,13.173 15.811,13.305 15.693,13.402 C 15.504,13.543 15.473,13.543 15.473,13.543 L 13.223,13.512 C 13.070,13.444 12.940,13.335 12.847,13.197 C 12.736,12.912 12.688,12.606 12.705,12.300 C 12.749,11.610 12.897,10.931 13.146,10.286 C 13.460,9.641 13.679,9.484 14.136,9.468 C 14.593,9.451 14.781,9.641 15.064,10.097 C 15.367,10.479 15.577,10.926 15.678,11.403 C 15.794,11.938 15.878,12.479 15.930,13.024" fill="#ffffff"/>
  <path d="F1 M 12.656,11.673 C 12.514,11.565 12.388,11.439 12.280,11.297 C 12.154,11.107 12.076,10.384 11.729,10.085 C 11.383,9.785 11.117,9.583 10.818,10.022 C 10.623,10.343 10.496,10.701 10.442,11.074 L 10.426,12.631 C 10.426,12.631 10.332,13.025 10.899,13.233 C 11.314,13.363 11.761,13.358 12.173,13.217 C 12.344,13.135 12.475,12.988 12.535,12.808 C 12.552,12.697 12.661,11.674 12.661,11.674 L 12.656,11.673 Z" fill="#ffffff"/>
  <path d="F1 M 10.343,10.949 C 10.068,10.619 9.821,10.268 9.604,9.897 C 9.304,9.361 9.003,8.811 8.817,8.953 C 8.605,9.373 8.492,9.835 8.487,10.306 C 8.435,10.863 8.467,11.425 8.582,11.973 C 8.679,12.323 8.857,12.646 9.100,12.917 C 9.457,12.944 9.815,12.879 10.139,12.728 C 10.233,12.649 10.406,12.523 10.406,12.523 L 10.343,10.949 Z" fill="#ffffff"/>
  <path d="F1 M 8.533,11.987 C 8.533,11.987 8.189,12.317 7.905,12.255 C 7.692,12.178 7.506,12.041 7.369,11.861 C 7.369,11.861 7.227,10.429 7.260,10.178 C 7.292,9.927 7.227,9.737 7.323,9.674 C 7.418,9.612 7.591,9.895 7.732,10.037 C 7.898,10.193 8.077,10.336 8.267,10.462 C 8.330,10.493 8.487,10.604 8.487,10.604 L 8.533,11.987 Z" fill="#ffffff"/>
  <path d="F1 M 7.215,10.178 C 7.152,10.130 6.934,9.895 6.822,9.973 C 6.701,10.154 6.640,10.369 6.650,10.587 C 6.650,10.775 6.633,11.325 6.633,11.325 C 6.633,11.325 6.792,11.640 6.964,11.719 C 7.082,11.771 7.203,11.813 7.327,11.845 C 7.327,11.845 7.342,10.650 7.294,10.460 C 7.247,10.271 7.219,10.177 7.219,10.177" fill="#ffffff"/>
  <path d="F1 M 6.744,10.052 C 6.690,9.961 6.615,9.885 6.524,9.831 C 6.382,9.756 6.303,9.907 6.271,10.068 C 6.227,10.339 6.211,10.613 6.225,10.886 C 6.274,10.997 6.350,11.094 6.445,11.169 C 6.517,11.222 6.580,11.286 6.633,11.358 C 6.633,11.358 6.650,10.351 6.681,10.273 C 6.707,10.201 6.728,10.127 6.744,10.052 L 6.744,10.052 Z" fill="#ffffff"/>
  <path d="F1 M 6.017,9.502 C 5.918,9.782 5.849,10.072 5.812,10.366 C 5.892,10.525 5.998,10.669 6.126,10.792 C 6.126,10.792 6.253,10.068 6.285,9.989 C 6.317,9.910 6.348,9.816 6.348,9.816 C 6.299,9.731 6.241,9.652 6.174,9.580 C 6.080,9.485 6.017,9.501 6.017,9.501 L 6.017,9.502 Z" fill="#ffffff"/>
  <path d="F1 M 5.812,9.989 C 5.676,9.848 5.593,9.665 5.576,9.469 C 5.576,9.186 5.592,9.014 5.592,9.014 C 5.692,9.029 5.785,9.073 5.860,9.140 C 5.924,9.252 5.966,9.375 5.987,9.502 L 5.812,9.989 Z" fill="#ffffff"/>
  <path d="F1 M 22.812,6.665 C 22.783,6.665 22.753,6.655 22.728,6.635 L 19.883,4.254 L 18.679,5.801 L 23.116,9.621 C 23.141,9.642 23.171,9.653 23.202,9.653 C 23.243,9.653 23.285,9.633 23.310,9.595 L 28.508,1.914 L 26.916,0.720 L 22.921,6.608 C 22.896,6.645 22.854,6.665 22.812,6.665 Z" fill="#ffffff"/>
  <path d="F1 M 23.202,10.678 C 22.925,10.678 22.657,10.579 22.447,10.398 L 22.248,10.227 C 22.208,10.296 22.167,10.361 22.124,10.412 C 21.934,10.648 21.760,10.895 21.602,11.153 L 21.603,11.155 L 21.658,12.583 C 21.658,12.583 22.400,12.858 22.619,12.939 C 22.838,13.021 23.361,12.198 23.389,12.032 C 23.475,11.574 23.496,11.108 23.486,10.642 C 23.394,10.665 23.299,10.678 23.202,10.678 Z" fill="#ffffff"/>
  <path d="F1 M 16.394,18.871 C 15.952,18.177 15.762,18.700 15.528,18.935 C 15.164,19.791 14.846,19.734 14.846,19.734 C 14.682,19.600 14.544,19.437 14.439,19.253 C 14.003,18.689 13.809,17.848 13.437,18.802 C 13.217,19.413 13.072,19.734 12.460,19.734 C 11.820,18.832 11.690,17.727 10.965,19.132 C 10.810,19.524 10.425,19.774 10.004,19.758 C 9.628,19.758 9.640,19.627 9.496,19.263 C 9.141,18.507 9.000,17.351 8.349,18.131 C 7.928,18.392 7.940,18.405 7.795,18.189 C 7.596,16.691 7.084,16.433 6.668,17.662 C 6.569,16.276 6.944,16.205 5.881,16.679 C 5.988,16.290 5.944,15.875 5.760,15.517 C 5.407,14.234 5.609,13.646 3.829,15.964 C 3.500,16.498 3.253,21.802 3.457,22.253 C 4.114,23.112 4.977,23.791 5.966,24.227 C 6.561,24.502 11.549,24.603 16.394,24.585 L 16.394,18.871 Z" fill="#ffffff"/>
  <path d="F1 M 16.394,15.383 C 16.290,15.433 16.183,15.476 16.083,15.535 C 16.083,15.535 16.099,16.033 16.113,16.408 C 16.134,16.765 16.241,17.107 16.394,17.428 L 16.394,15.383 Z" fill="#ffffff"/>
  <path d="F1 M 17.247,15.084 C 17.215,15.091 17.185,15.104 17.154,15.111 L 17.154,18.278 C 17.378,18.244 17.426,18.012 17.669,17.456 C 17.877,16.792 18.023,16.111 18.105,15.421 L 18.105,15.419 C 17.857,15.227 17.559,15.111 17.247,15.084 Z" fill="#ffffff"/>
  <path d="F1 M 16.394,1.108 C 15.920,1.108 15.480,1.101 15.089,1.084 C 11.183,0.920 4.445,0.552 4.445,0.552 L 4.457,0.553 C 4.457,0.553 3.962,0.553 3.962,0.798 C 3.962,1.043 3.881,3.388 3.962,3.552 C 4.043,3.716 5.074,4.867 5.114,5.033 C 5.155,5.198 4.948,6.385 5.030,6.635 C 5.094,6.794 5.211,6.925 5.362,7.006 L 5.591,7.661 L 5.591,7.633 C 5.690,7.649 5.783,7.693 5.859,7.759 C 5.921,7.871 5.964,7.993 5.984,8.120 L 5.956,8.195 C 5.965,8.205 5.974,8.214 5.984,8.224 C 6.002,8.163 6.016,8.117 6.016,8.117 C 6.016,8.117 6.081,8.103 6.175,8.197 C 6.241,8.269 6.299,8.347 6.347,8.432 L 6.299,8.563 C 6.341,8.459 6.412,8.387 6.515,8.446 C 6.606,8.500 6.682,8.577 6.737,8.667 C 6.737,8.667 6.727,8.713 6.712,8.768 C 6.729,8.700 6.765,8.637 6.815,8.588 C 6.925,8.513 7.145,8.745 7.209,8.793 C 7.209,8.793 7.227,8.855 7.252,8.943 L 7.252,8.793 C 7.283,8.541 7.220,8.353 7.315,8.291 C 7.411,8.229 7.584,8.510 7.726,8.652 C 7.891,8.808 8.070,8.951 8.260,9.078 C 8.320,9.107 8.452,9.199 8.470,9.211 C 8.479,9.098 8.479,8.990 8.482,8.919 C 8.487,8.449 8.600,7.986 8.811,7.566 C 8.833,7.550 8.860,7.542 8.887,7.545 C 9.075,7.563 9.338,8.044 9.600,8.512 C 9.816,8.882 10.064,9.234 10.338,9.564 L 10.346,9.783 C 10.374,9.791 10.403,9.793 10.431,9.798 L 10.431,9.690 C 10.484,9.318 10.612,8.960 10.807,8.638 C 10.937,8.446 11.062,8.377 11.190,8.384 C 11.393,8.436 11.576,8.546 11.716,8.701 C 12.063,9.002 12.143,9.725 12.269,9.913 C 12.376,10.055 12.503,10.182 12.645,10.289 C 12.645,10.289 12.637,10.364 12.637,10.376 C 12.677,10.385 12.712,10.388 12.750,10.393 C 12.808,9.882 12.936,9.381 13.132,8.906 C 13.447,8.260 13.670,8.105 14.125,8.089 L 14.206,8.089 C 14.605,8.099 14.787,8.292 15.054,8.719 C 15.694,9.571 15.833,10.601 16.394,9.616 L 16.394,1.108 Z" fill="#ffffff"/>
  <path d="F1 M 16.394,11.230 C 16.286,11.566 16.188,11.905 16.108,12.249 L 16.107,12.253 L 16.053,13.160 C 16.053,13.160 16.025,13.325 16.273,13.435 C 16.313,13.439 16.354,13.440 16.394,13.443 L 16.394,11.230 Z" fill="#ffffff"/>
  <path d="F1 M 19.021,10.519 C 18.720,9.860 18.443,9.365 17.894,9.392 C 17.602,9.406 17.366,9.471 17.154,9.664 L 17.154,13.492 C 17.702,13.521 18.251,13.535 18.801,13.518 C 19.051,13.457 19.236,13.247 19.267,12.992 C 19.347,12.160 19.264,11.319 19.021,10.519 Z" fill="#ffffff"/>
  <path d="F1 M 18.011,6.578 L 17.271,5.942 L 17.870,5.172 L 19.073,3.625 L 19.725,2.787 L 20.540,3.468 L 22.628,5.214 L 25.662,0.743 C 23.411,0.851 19.879,1.067 17.154,1.103 L 17.154,8.277 C 17.362,8.092 17.596,8.029 17.882,8.015 C 18.431,7.988 18.708,8.480 19.009,9.142 C 19.354,10.100 19.585,9.979 19.943,9.201 C 19.960,9.060 20.134,8.777 20.336,8.581 L 18.011,6.578 Z" fill="#ffffff"/>
  <path d="F1 M 21.384,9.483 C 21.463,10.034 21.566,9.996 21.705,9.759 L 21.384,9.483 Z" fill="#ffffff"/>
  <path d="F1 M 25.172,8.674 C 25.266,8.659 25.156,8.549 25.468,8.404 C 25.479,8.402 25.490,8.405 25.498,8.413 C 25.573,9.033 25.750,8.302 25.790,8.142 C 26.126,8.168 26.058,8.679 26.057,7.826 C 26.457,7.688 26.460,7.618 26.682,7.000 C 26.912,6.842 27.050,6.581 27.050,6.302 C 27.050,6.208 27.045,6.070 27.037,5.916 L 25.172,8.674 Z" fill="#ffffff"/>
  <path d="F1 M 10.436,25.824 C 10.436,27.961 11.727,32.000 16.612,32.000 C 21.081,32.000 22.329,28.203 22.395,26.028 L 24.482,26.028 L 21.492,23.233 L 18.503,26.028 L 20.538,26.028 C 20.511,26.798 20.192,30.133 16.612,30.133 C 12.456,30.133 12.303,26.262 12.303,25.824 L 10.436,25.824 Z" fill="#ffffff"/>
  <path d="F1 M 27.753,15.346 C 27.555,13.943 26.551,14.804 26.025,16.615 L 26.031,16.625 C 25.670,16.352 25.166,15.985 25.137,17.609 C 24.800,16.876 24.242,17.475 24.211,18.135 C 24.136,18.324 24.224,18.540 24.019,18.424 C 23.304,16.765 23.164,17.898 22.466,19.443 C 22.408,19.559 22.335,19.631 21.955,19.718 C 21.576,19.806 21.185,19.515 20.923,19.036 C 20.397,17.834 20.294,18.886 19.908,19.358 C 19.733,19.809 19.485,19.780 19.164,19.733 C 18.844,19.687 18.644,19.166 18.382,18.468 C 18.115,17.735 17.828,18.017 17.668,18.834 C 17.427,19.389 17.377,19.619 17.154,19.656 L 17.154,24.581 C 17.641,24.578 18.124,24.574 18.600,24.568 L 20.809,22.503 L 21.492,21.865 L 22.175,22.503 L 24.230,24.424 C 25.115,24.379 25.722,24.327 25.905,24.268 C 27.057,23.897 28.617,22.130 28.617,22.130 C 28.617,22.130 28.042,15.716 27.753,15.346 Z" fill="#ffffff"/>
  <path d="F1 M 32.000,32.000 L 0.000,32.000 L 0.000,0.000 L 32.000,0.000 L 32.000,32.000 Z" fill="currentColor"/>
  <rect x="0" y="0" width="0" height="0" fill="none"/>
</svg>