<?xml version="1.0" encoding="UTF-8"?>
<svg xmlns="http://www.w3.org/2000/svg" width="32" height="32" viewBox="0 0 32 32">
  <title>ProstheticToothScalingMode.Optional.Parameter</title>
  <path d="M3.6184571,0 L7.2369144,3.9486327 7.2369144,6.2531247 4.6089847,3.2882814 4.6089847,4.9900975 4.6216795,4.9900975 4.6216795,11.56666 7.2496092,8.6085553 7.2496092,10.913046 3.6311514,14.854942 0.012694776,10.913046 0.012694776,8.6085553 2.6406243,11.56666 2.6406243,9.8715816 2.6346681,9.8715816 2.6346681,3.2882814 0,6.2531247 0,3.9351563 z" fill="#FFFFFF"/>
  <path d="M8.0412246,9.8414356E-05 L8.0450183,9.8414356E-05 C9.375065,0.018027994 10.311896,1.5234964 12.651637,3.9299374 14.334103,5.6202982 19.610256,6.390466 18.742384,6.5516909 16.244309,7.9969757 10.518989,5.1067951 10.518989,5.1067951 10.518989,5.1067951 14.10885,7.4617451 12.963885,8.1040824 11.81882,8.7462962 7.9687597,8.7461217 8.6973268,9.0673459 9.4258949,9.3885816 15.48066,10.702038 18.734799,8.5089314 20.29616,7.2242597 19.955982,5.3949122 22.037762,5.5013017 22.297972,5.5147012 23.040261,6.2396535&#xD;&#xA;23.040261,6.2396535 L28.45597,10.043618 30.759333,6.6497691 C30.759333,6.6497691 32.547551,8.6465421 33.557437,10.639557 33.842763,11.202647 35.240221,9.8357207 35.343403,10.353093 36.015354,13.722451 33.621849,29.203751 32.861847,31.096779 32.52248,31.951191 32.710144,33.301117 32.710144,33.301117 L32.861847,35.383999 5.3637229,35.330952 5.2777597,34.477974 C5.2777597,34.477974 4.9533474,29.729599 3.2879635,26.196692 1.6225802,22.663912 -0.43837908,13.7292 0.082040372,11.481089 0.60246035,9.2328465 4.1213256,1.8944147 6.5153781,0.50267092 7.1121937,0.15572413 7.5982157,-0.0045551595 8.0412246,9.8414356E-05 z" fill="White" stroke-width="1.71010506"/>
  <path d="M4.1015625,9.0953121 L6.84375,9.0953121 L6.3398438,12.458593 L9.2695313,11.192968 L10.125,13.560156 L6.9140625,13.99375 L9.2109375,16.466406 L7.078125,17.93125 L5.4726563,14.954687 L3.8671875,17.93125 L1.7226561,16.466406 L4.03125,13.99375 L0.8203125,13.560156 L1.6523439,11.192968 L4.6054688,12.458593 z" fill="White"/>
</svg>