<?xml version="1.0" encoding="UTF-8"?>
<svg xmlns="http://www.w3.org/2000/svg" width="32" height="32" viewBox="0 0 32 32">
  <title>ProstheticToothScalingMode.Forbidden.Parameter</title>
  <path d="M8.0412245,9.8418422E-05 L8.0450182,9.8418422E-05 C9.3750648,0.018027901 10.311895,1.5234963 12.651637,3.9299373 14.334103,5.6202981 19.610256,6.3904659 18.742384,6.5516903 16.244308,7.9969756 10.518989,5.106795 10.518989,5.106795 10.518989,5.106795 14.10885,7.461745 12.963885,8.1040823 11.81882,8.7462961 7.9687595,8.7461216 8.6973267,9.0673458 9.4258947,9.3885815 15.480659,10.702038 18.734798,8.5089313 19.808235,7.6257193 22.102896,4.4270831 22.102896,4.4270831 L22.168001,11.555989 35.161964,11.555989 C35.161964,11.555989 35.442741,11.490483 35.481773,11.686197 36.153724,15.055555 33.621849,29.203751 32.861847,31.096779 32.52248,31.951191 32.710144,33.301117 32.710144,33.301117 L32.861847,35.383999 5.3637228,35.330952 5.2777595,34.477974 C5.2777595,34.477974 4.9533472,29.729599 3.2879634,26.196692 1.62258,22.663912 -0.43837924,13.7292 0.082040435,11.481089 0.6024602,9.2328464 4.1213255,1.8944146 6.5153775,0.50267118 7.1121936,0.15572404 7.5982156,-0.004555253 8.0412245,9.8418422E-05 z" fill="White" stroke-width="1.71010506"/>
  <path d="M8.4462891,14.387985 C7.4850374,14.387985 6.7057896,15.205041 6.7057896,16.212927 6.7057896,16.811361 6.9805051,17.342516 7.4049192,17.675318 L7.4431034,17.703787 7.4431034,21.024984 9.4612084,21.024984 9.4612084,17.695036 9.4876576,17.675318 C9.9120742,17.342516 10.18679,16.811361 10.18679,16.212927 10.18679,15.205041 9.4075414,14.387985 8.4462891,14.387985 z M8.4533559,0 L8.4533559,2.4478214 C5.8206812,2.4478214 3.6864758,4.6851549 3.6864758,7.4450479 L3.6864758,10.658918 13.220777,10.658918 13.220777,7.4450479 C13.220777,4.6851549 11.086572,2.4478214 8.4538976,2.4478214 L8.4538976,0 C12.314867,-3.1108877E-15 15.456219,3.2299101 15.553446,7.2528877 L15.555005,7.3820171 15.555765,7.3820171 15.555765,10.658918 16.896,10.658918 16.896,23.943001 0,23.943001 0,10.658918 1.3514881,10.658918 1.3514881,7.3820181 1.3522502,7.3820181 1.3538093,7.2528896 C1.4510331,3.2299101 4.5923863,-3.1108877E-15 8.4533559,0 z" fill="White" stroke-width="1.71010506"/>
  <path d="M3.6184571,0 L7.2369144,3.9486327 7.2369144,6.2531247 4.6089847,3.2882814 4.6089847,4.9900975 4.6216795,4.9900975 4.6216795,11.56666 7.2496092,8.6085553 7.2496092,10.913046 3.6311514,14.854942 0.012694776,10.913046 0.012694776,8.6085553 2.6406243,11.56666 2.6406243,9.8715816 2.6346681,9.8715816 2.6346681,3.2882814 0,6.2531247 0,3.9351563 z" fill="#FFFFFF"/>
</svg>