<?xml version="1.0" encoding="UTF-8"?>
<svg xmlns="http://www.w3.org/2000/svg" width="32.000" height="32.000" viewBox="0 0 32.000 32.000">
  <title>ProstheticBridgeBottomGeneration.Default.Parameter</title>
  <path d="F1 M 0.000,0.000 L 32.000,0.000 L 32.000,32.000 L 0.000,32.000 L 0.000,0.000 Z" fill="#ffffff"/>
  <path d="F1 M 31.620,19.430 L 31.570,19.560 C 31.513,19.713 31.403,19.840 31.260,19.920 C 31.144,19.987 31.020,20.037 30.890,20.070 L 30.740,19.360 C 30.744,19.022 30.696,18.684 30.600,18.360 C 30.450,18.590 30.290,18.820 30.130,19.030 C 30.529,20.031 30.579,21.137 30.270,22.170 C 30.180,22.370 29.910,22.800 29.910,22.800 C 29.910,22.800 29.640,23.060 29.380,22.910 C 28.950,22.670 28.810,22.620 28.680,22.520 C 28.499,22.410 28.312,22.310 28.120,22.220 C 28.243,21.826 28.297,21.413 28.280,21.000 C 28.090,21.160 27.890,21.320 27.690,21.460 L 27.600,21.920 C 27.600,21.920 27.770,24.920 26.600,25.150 C 25.860,25.290 25.490,24.570 25.260,24.150 C 25.180,24.010 24.860,23.380 24.860,23.380 C 24.860,23.380 24.860,23.160 24.860,22.880 L 24.860,22.880 L 24.630,22.950 L 24.380,23.680 C 24.220,24.468 23.826,25.189 23.250,25.750 C 22.430,26.490 21.910,25.250 21.840,24.650 C 21.815,24.344 21.815,24.036 21.840,23.730 L 21.840,23.730 C 21.864,23.685 21.884,23.638 21.900,23.590 L 21.470,23.640 C 21.165,24.584 20.690,25.465 20.070,26.240 C 19.770,26.580 18.920,26.850 18.410,25.670 C 18.214,25.091 18.135,24.479 18.180,23.870 L 17.520,23.870 L 17.520,23.870 C 17.030,25.990 16.390,26.680 15.790,26.510 C 15.190,26.340 15.050,26.270 14.310,23.770 L 13.620,23.770 C 13.649,23.855 13.682,23.938 13.720,24.020 C 13.310,25.850 12.650,26.430 12.100,26.360 C 11.550,26.290 11.480,26.090 10.680,23.420 L 10.150,23.320 L 10.150,23.400 C 9.990,23.971 9.737,24.512 9.400,25.000 C 8.540,26.000 7.750,26.000 7.230,25.420 C 6.710,24.840 6.820,23.860 6.850,22.250 C 6.600,22.140 6.340,22.020 6.100,21.890 C 6.100,22.120 6.100,22.320 6.100,22.460 C 5.572,22.903 4.964,23.242 4.310,23.460 C 3.806,23.583 3.297,23.273 3.174,22.769 C 3.162,22.717 3.154,22.664 3.150,22.610 C 3.012,21.703 3.032,20.780 3.210,19.880 C 3.000,19.680 2.800,19.470 2.590,19.250 C 2.542,19.427 2.512,19.607 2.500,19.790 C 2.500,19.790 2.050,20.620 1.380,20.710 C 1.122,20.761 0.853,20.723 0.620,20.600 C 0.620,21.040 0.550,21.440 0.520,21.760 C 0.520,21.760 0.400,23.660 0.370,24.320 C 0.370,24.670 0.610,25.560 1.970,24.930 C 2.488,24.518 2.940,24.029 3.310,23.480 L 3.410,24.750 C 3.385,25.591 3.409,26.432 3.480,27.270 C 3.704,27.621 4.123,27.796 4.530,27.710 C 4.917,27.611 5.265,27.399 5.530,27.100 C 5.982,26.755 6.597,26.716 7.090,27.000 C 7.090,27.000 7.290,27.660 7.330,27.890 C 7.386,28.408 7.473,28.922 7.590,29.430 C 8.029,29.953 8.749,30.145 9.390,29.910 C 10.030,29.700 10.100,28.830 10.720,28.640 C 11.080,28.520 11.290,28.990 11.360,29.200 C 11.430,29.410 11.560,29.770 11.750,29.830 C 12.176,29.987 12.644,29.987 13.070,29.830 C 13.360,29.680 13.610,29.070 13.730,28.920 C 13.850,28.770 14.260,28.500 14.730,28.990 C 15.009,29.306 15.325,29.588 15.670,29.830 C 16.025,30.107 16.529,30.086 16.860,29.780 C 17.026,29.476 17.173,29.162 17.300,28.840 C 17.450,28.390 18.300,27.780 18.660,28.750 C 18.800,29.100 19.160,29.850 19.840,29.750 C 20.520,29.650 20.520,29.170 20.670,28.920 C 20.820,28.670 21.300,28.120 21.670,28.860 C 22.040,29.600 22.670,29.640 22.910,29.440 C 23.195,29.122 23.462,28.788 23.710,28.440 C 23.890,28.220 24.450,27.610 24.900,28.320 C 25.350,29.030 26.270,29.890 26.580,28.830 C 26.825,27.851 26.965,26.849 27.000,25.840 C 27.000,25.840 27.330,25.110 28.130,26.190 C 28.310,26.430 28.590,26.910 29.130,26.840 C 29.670,26.770 29.540,26.410 29.610,26.080 C 29.760,25.350 29.550,23.190 30.450,23.330 C 30.710,23.330 31.450,23.870 31.580,23.490 C 31.713,22.734 31.760,21.966 31.720,21.200 C 31.720,21.200 31.620,19.900 31.620,19.430 Z" fill="#ffffff"/>
  <path d="F1 M 28.080,16.580 C 27.830,16.709 27.542,16.741 27.270,16.670 C 26.420,16.540 26.320,16.770 26.320,16.770 C 26.113,16.782 25.908,16.819 25.710,16.880 C 25.035,17.419 24.754,18.312 25.000,19.140 L 25.160,19.650 C 25.160,19.650 25.530,19.040 25.890,18.940 C 26.250,18.840 26.360,18.710 26.670,18.640 C 27.200,18.530 27.460,18.540 27.670,18.730 C 28.068,19.299 28.284,19.976 28.290,20.670 C 28.352,21.179 28.297,21.695 28.130,22.180 C 28.322,22.270 28.509,22.370 28.690,22.480 C 28.820,22.580 28.960,22.630 29.390,22.870 C 29.650,23.020 29.920,22.760 29.920,22.760 C 29.920,22.760 30.190,22.330 30.280,22.130 C 30.720,21.130 30.520,18.860 29.100,17.010 C 29.090,17.000 28.620,16.370 28.080,16.580 Z" fill="#ffffff"/>
  <path d="F1 M 30.670,14.700 C 30.450,14.234 29.963,13.955 29.450,14.000 C 29.110,14.080 28.860,14.120 28.620,14.190 C 28.327,14.220 28.033,14.220 27.740,14.190 C 27.740,14.190 26.910,14.040 26.580,14.280 C 26.410,14.410 26.160,14.570 25.920,15.440 C 25.920,15.440 25.490,16.010 25.670,16.440 C 25.910,16.272 26.177,16.147 26.460,16.070 C 26.836,16.065 27.212,16.102 27.580,16.180 C 28.180,16.180 28.630,15.850 29.010,16.030 C 29.390,16.210 29.610,16.360 30.150,17.250 C 30.539,17.885 30.744,18.615 30.740,19.360 L 30.890,20.070 C 31.020,20.037 31.144,19.987 31.260,19.920 C 31.403,19.840 31.513,19.713 31.570,19.560 C 31.632,19.396 31.685,19.229 31.730,19.060 C 32.005,17.522 31.620,15.940 30.670,14.700 Z" fill="#ffffff"/>
  <path d="F1 M 8.530,19.160 C 8.530,19.160 8.130,17.570 7.530,17.480 C 6.930,17.390 6.760,17.480 6.760,17.480 C 6.515,17.305 6.199,17.268 5.920,17.380 C 5.770,17.440 5.540,17.620 5.260,17.440 C 5.029,17.292 4.722,17.349 4.560,17.570 C 4.240,17.927 3.962,18.320 3.730,18.740 C 3.167,19.940 2.995,21.287 3.240,22.590 C 3.275,23.108 3.723,23.499 4.241,23.464 C 4.295,23.461 4.348,23.453 4.400,23.440 C 5.054,23.222 5.662,22.883 6.190,22.440 C 6.102,21.773 6.133,21.096 6.280,20.440 C 6.392,19.699 7.021,19.146 7.770,19.130 C 8.022,19.075 8.283,19.086 8.530,19.160 Z" fill="#ffffff"/>
  <path d="F1 M 5.100,16.810 C 5.292,16.944 5.548,16.944 5.740,16.810 C 6.340,16.560 6.500,16.810 6.500,16.810 C 6.500,16.810 6.070,15.660 5.410,15.660 C 5.290,15.660 5.410,15.070 4.660,14.880 C 4.210,14.744 3.730,14.744 3.280,14.880 C 2.961,14.866 2.646,14.799 2.350,14.680 C 2.000,14.580 1.530,14.970 1.350,15.180 C 1.074,15.523 0.861,15.913 0.720,16.330 C 0.226,17.423 0.060,18.635 0.240,19.820 C 0.289,20.326 0.738,20.696 1.244,20.648 C 1.307,20.642 1.369,20.629 1.430,20.610 C 2.100,20.520 2.550,19.690 2.550,19.690 C 2.642,18.940 2.913,18.223 3.340,17.600 C 3.740,17.060 4.670,16.500 5.100,16.810 Z" fill="#ffffff"/>
  <path d="F1 M 9.700,20.480 C 9.250,20.160 8.960,19.690 8.170,19.840 C 8.170,19.840 6.880,19.410 6.870,21.380 C 6.870,23.500 6.710,24.840 7.230,25.430 C 7.750,26.020 8.540,26.000 9.400,25.000 C 9.782,24.511 10.076,23.960 10.270,23.370 C 10.146,23.162 10.055,22.936 10.000,22.700 C 9.800,22.107 9.946,21.452 10.380,21.000 C 10.165,20.812 9.937,20.639 9.700,20.480 Z" fill="#ffffff"/>
  <path d="F1 M 13.130,21.500 C 12.697,21.559 12.257,21.482 11.870,21.280 C 11.870,21.280 9.870,20.430 10.710,23.280 C 11.550,26.130 11.600,26.280 12.180,26.380 C 12.760,26.480 13.390,25.870 13.800,24.040 C 13.427,23.297 13.504,22.407 14.000,21.740 C 13.860,21.550 13.630,21.440 13.130,21.500 Z" fill="#ffffff"/>
  <path d="F1 M 26.530,19.260 C 26.156,19.388 25.833,19.633 25.610,19.960 C 25.496,20.030 25.389,20.110 25.290,20.200 C 25.465,20.690 25.523,21.214 25.460,21.730 C 25.435,22.164 25.246,22.572 24.930,22.870 C 24.930,23.150 24.930,23.370 24.930,23.370 C 24.930,23.370 25.250,24.000 25.330,24.140 C 25.560,24.540 25.930,25.260 26.670,25.140 C 27.800,24.920 27.670,21.910 27.670,21.910 C 27.762,21.495 27.825,21.074 27.860,20.650 C 27.770,20.190 27.460,18.820 26.530,19.260 Z" fill="#ffffff"/>
  <path d="F1 M 16.910,21.820 C 16.509,21.878 16.101,21.878 15.700,21.820 C 15.700,21.820 13.700,21.390 14.290,23.440 C 15.110,26.300 15.290,26.370 15.870,26.540 C 16.450,26.710 17.110,26.020 17.600,23.900 C 17.802,23.331 17.913,22.734 17.930,22.130 C 17.890,21.850 17.550,21.600 16.910,21.820 Z" fill="#ffffff"/>
  <path d="F1 M 23.510,21.000 C 23.114,21.018 22.725,21.106 22.360,21.260 C 22.462,22.092 22.312,22.934 21.930,23.680 L 21.930,23.680 C 21.905,23.986 21.905,24.294 21.930,24.600 C 22.000,25.200 22.520,26.440 23.340,25.700 C 23.916,25.139 24.310,24.418 24.470,23.630 C 24.795,22.923 24.975,22.158 25.000,21.380 C 24.920,20.360 24.100,21.000 23.510,21.000 Z" fill="#ffffff"/>
  <path d="F1 M 20.930,21.640 C 20.610,21.800 20.430,21.810 19.570,21.640 C 18.710,21.470 18.450,21.640 18.360,21.950 C 18.287,22.409 18.256,22.875 18.270,23.340 C 18.188,24.101 18.266,24.871 18.500,25.600 C 19.010,26.780 19.860,26.510 20.160,26.170 C 21.008,25.112 21.576,23.856 21.810,22.520 C 22.000,21.380 21.220,21.510 20.930,21.640 Z" fill="#ffffff"/>
  <path d="F1 M 31.790,2.350 L 29.700,0.270 L 26.160,3.810 L 22.620,0.270 L 20.530,2.350 L 24.070,5.900 L 20.530,9.440 L 22.620,11.520 L 26.160,7.980 L 29.700,11.520 L 31.790,9.440 L 28.240,5.900 L 31.790,2.350 Z" fill="#ffffff"/>
</svg>