<?xml version="1.0" encoding="UTF-8"?>
<svg xmlns="http://www.w3.org/2000/svg" width="32" height="32" viewBox="0 0 32 32">
  <title>ProstheticMonoblockMode.ExpertMode.Parameter</title>
  <path d="M31.565001,23.037356 L31.612822,23.476177 C31.829376,25.488585 31.999001,27.381752 31.999001,27.381752 31.999001,27.381752 30.021225,29.623463 28.561543,30.092777 28.374929,30.152763 28.671042,29.302811 28.982807,28.535963 L29.012993,25.271635 29.030251,24.155193 z M16.481615,18.811159 L16.481615,20.240559 16.158491,20.355551 16.14583,20.25775 C16.141098,20.209641 16.137817,20.161192 16.135918,20.111982 16.117918,19.632767 16.098808,19.006479 16.098808,19.006479 16.098808,19.006479 16.304832,18.900755 16.481615,18.811159 z M17.573399,18.436148 C18.089493,18.418146 18.661276,18.859989 18.661276,18.859989 18.661276,18.859989 18.627619,19.121739 18.569023,19.486836 L18.567125,19.498367 17.481604,19.884682 17.481604,18.455679 C17.510063,18.452105 17.547058,18.437086 17.573399,18.436148 z M20.356567,18.158795 C20.762062,18.158795 21.047705,18.315539 21.23197,18.472281 L21.293457,18.528122 18.787807,19.41983 18.78804,19.413334 C18.795193,19.262535 18.807758,19.172499 18.807758,19.172499 18.807758,19.172499 18.881083,18.804154 19.02846,18.619747 19.175959,18.435442 19.545576,18.158795 20.356567,18.158795 z M30.331173,17.892941 C30.601587,17.881304 30.816074,18.152577 30.905264,18.777956 31.007891,18.909922 31.139307,19.64823 31.2752,20.641375 L31.317764,20.959953 28.805048,20.082966 28.877199,19.871752 C29.289572,18.723818 29.844605,17.975308 30.276365,17.899021 30.29487,17.895752 30.313147,17.893717 30.331173,17.892941 z M2.4681185,17.563072 C2.7417548,17.585255 2.7896362,18.178579 3.0130332,18.992808 3.1783314,19.42762 3.3790255,20.05295 3.1673279,20.467465 4.5182119,19.866243 4.039711,19.955641 4.1634097,21.713598 4.6902032,20.158547 5.3398395,20.486035 5.5911265,22.385496 5.7755242,22.661924 5.7597494,22.643086 6.2942429,22.311274 7.1185322,21.323341 7.300808,22.789688 7.7493029,23.748819 7.9337006,24.209534 7.9126787,24.375794 8.3918724,24.375794 8.8710671,24.375794 9.2235127,24.246323&#xD;&#xA;9.6106072,23.5828 10.530596,21.79554 10.696432,23.1922 11.509022,24.340637 12.283113,24.340637 12.468838,23.933083 12.745335,23.158959 13.217828,21.944018 13.46421,23.011112 14.016803,23.727335 14.293199,24.16975 14.532421,24.336731 14.532421,24.336731 14.532421,24.336731 14.416408,25.838631 14.416408,26.496626 14.416408,27.103666 14.093298,30.281485 13.838289,30.47904 L13.819296,30.494002 13.761801,30.493879 C8.5890885,30.474575 3.9193812,30.338514 3.2767017,30.040043 1.81702,29.36232 0.35579758,28.111527 0.095101333,27.538006 -0.16559594,26.964499 0.14870328,20.236954 0.56579807,19.559231 1.6951339,18.089832 2.1944816,17.540871 2.4681185,17.563072 z M25.024021,16.627897 C25.128401,16.627127 25.568096,16.691578 25.922905,17.772062 26.074968,18.235165 26.193241,18.708647 26.276817,19.132237 L26.290531,19.205351 22.806927,17.989508 22.013327,18.271935 22.020678,18.263826 C22.15741,18.117668 22.303509,17.976988 22.420996,17.900974 22.734392,17.698168 23.140162,17.661039 23.342859,17.697842 23.544266,17.734593 23.70804,17.845286 23.710041,17.846285 23.710041,17.846285 23.959261,18.097979 24.129957,18.344347 24.013769,18.124458 23.895586,17.918553 23.895586,17.918553 23.895586,17.918553 23.840273,17.716341 23.950274,17.697842 24.060871,17.679842 24.281801,17.789917 24.503,17.568932 24.724197,17.347725 24.816015,16.978953&#xD;&#xA;24.889713,16.813048 24.963743,16.647143 25.001041,16.629448 25.001041,16.629448 25.001041,16.629448 25.00911,16.628008 25.024021,16.627897 z M27.48929,15.816921 C27.48929,15.816921 28.098465,16.906212 28.227564,17.25642 28.356552,17.606613 28.466244,18.452919 28.374046,18.637325 28.282047,18.821631 27.728371,18.417204 27.415073,18.066996 27.101677,17.716782 27.11994,17.292587 26.954142,17.016178 26.887951,16.905796 26.870358,16.883959 26.807659,16.787655 26.912737,17.097286 27.020168,17.712816 27.139687,18.250593 27.286705,18.914116 27.249262,19.559544 27.157265,19.504542 27.065165,19.44924 26.329149,18.674437&#xD;&#xA;26.329149,18.674437 26.329149,18.674437 26.217604,18.600597 26.143604,18.213484 26.069805,17.826473 25.553768,16.941958 25.553768,16.941958 25.553768,16.941958 25.646502,16.885628 25.794001,16.830626 25.941399,16.775324 26.604536,16.426317 26.604536,16.426317 26.604536,16.426317 26.608442,16.430205 26.608442,16.430224 26.712923,16.403532 27.48929,15.816921 27.48929,15.816921 z M27.987331,15.191901 L28.743181,16.039585 C28.743181,16.039585 28.760649,17.033684 28.72365,17.162668 28.686651,17.291632 28.484644,17.311703 28.374046,17.1822 28.263447,17.053196 27.469761,15.744654 27.469761,15.744654 L27.471714,15.744654 z M28.465841,14.564928 C28.465851,14.564928 28.724682,14.969354 28.743181,15.13526 28.761211,15.301165 28.872908,15.743738 28.854509,15.891143 28.83551,16.038696 28.797869,16.076695 28.797869,16.076695 28.797869,16.076695 28.318321,15.485586 28.170923,15.30128 28.023464,15.116964 28.006863,15.080569 28.006863,15.080569 L28.00491,15.080569 z M16.481615,13.615677 L16.481615,16.359909 C16.446251,16.352697 16.354147,16.350781 16.335133,16.342327 16.021286,16.202925 16.057793,15.992709 16.057793,15.992709 L16.128105,14.844234 16.126152,14.844234 C16.126152,14.844234 16.268175,14.30021 16.481615,13.615677 z M21.326796,12.126435 L22.06712,12.868052 22.608393,12.327723 22.630873,12.377413 C22.709942,12.562554 22.773912,12.765354 22.817474,12.96136 22.956873,13.588581 23.201921,14.844359 23.131924,15.297374 23.062223,15.750388 22.853119,15.923618 22.469822,16.063023 22.086527,16.202429 20.795774,16.098295 20.551878,15.88919 20.30798,15.680082 20.204226,14.635244 20.204226,14.635244 L20.274538,14.076631 C20.274538,14.076631 20.553459,13.972259 20.727657,13.658648 20.901854,13.345038 20.969997,12.99592 21.004997,12.717212 21.020222,12.595233 21.128948,12.386673 21.278547,12.187709 z M23.186846,11.750278 L23.162268,11.786097 C23.124096,11.838554 23.088303,11.874314 23.054691,11.887086 L23.04851,11.888373 z M28.012268,11.712273 C28.026051,11.71211 28.039333,11.714884 28.051785,11.721085 28.151743,11.771088 28.181335,11.901379 28.241236,12.150787 28.301235,12.400195 28.330296,12.987911 28.280296,13.117615 28.230299,13.24732 28.141348,13.406731 28.06155,13.496534 27.98237,13.585608 27.845802,13.634211 27.842802,13.63521 27.842602,13.63368 27.811108,13.293272 27.78421,12.975034 27.799208,13.289523 27.811552,13.627398 27.811552,13.627398 27.811552,13.627398 27.802069,13.815479&#xD;&#xA;27.602572,13.975066 27.403074,14.134771 27.353367,14.275387 27.223669,14.295388 27.093971,14.315389 26.993204,14.26609 26.993204,14.26609 L27.034218,12.389076 C27.034218,12.389076 27.113379,12.119726 27.352573,12.019923 27.592022,11.919919 27.553318,11.940858 27.663116,11.980859 27.710535,11.998169 27.742832,12.319798 27.766632,12.666429 27.742231,12.325338 27.716341,11.963378 27.741241,11.930077 27.786242,11.870074 27.882854,11.754285 27.969753,11.721085 27.984203,11.715534 27.998486,11.712435 28.012268,11.712273 z M28.27935,11.544088 L28.779699,12.03333 28.786264,12.06805 C28.798178,12.133122 28.809353,12.195522 28.819353,12.2504 28.859253,12.469806 28.760916,12.578488 28.670918,12.767994 28.581118,12.957411 28.360374,12.959406 28.360374,12.959406 28.360374,12.959406 28.321077,12.639006 28.331078,12.559003 28.340977,12.479201 28.20022,11.910545 28.20022,11.910545 28.20022,11.910545 28.201469,11.84062 28.23147,11.740616 28.246418,11.690715 28.251408,11.623369 28.273844,11.557249 z M18.391748,11.219115 C19.088638,11.184215 19.438124,11.812523 19.821419,12.64885 20.205013,13.485178 20.203913,15.400405 20.133913,15.783717 20.064215,16.167029 19.751223,16.445849 19.542124,16.445849 19.41268,16.445849 18.358799,16.454821 17.481604,16.432177 L17.481604,11.541392 C17.743467,11.3153 18.03488,11.237039 18.391748,11.219115 z M25.085024,10.742538 C25.42757,10.734468 25.313471,11.576577 25.465879,12.125396 25.513077,12.29551 25.526472,12.540659 25.524471,12.807057 25.568611,12.782978 26.34074,12.361278 26.442429,12.090238 26.546928,11.811529 26.860394,11.60194 26.860394,11.60194 26.860394,11.60194 26.999064,11.602794 26.999064,11.916404 26.999064,12.230014 26.998751,14.216632 26.928751,14.355936 26.858753,14.495341 26.615759,14.809689 26.336962,14.879392 26.058266,14.949393 25.465879,14.670401&#xD;&#xA;25.465879,14.670401 L25.395567,14.529771 25.424864,14.059053 C25.401363,14.234847 25.370363,14.515127 25.362364,14.564928 25.327465,14.774035 24.664511,15.81996 24.385815,15.715357 24.107019,15.610853 23.16708,15.262217 23.16708,15.262217 L23.096767,13.449658 C23.096767,13.449658 23.410473,12.926334 23.758869,12.508221 24.107367,12.090007 24.351652,11.114743 24.909245,10.801132 24.978933,10.761931 25.036123,10.743538 25.085024,10.742538 z M26.978214,10.271834 L27.216017,10.504357 27.188272,10.556031 C27.00885,10.884904 26.927849,10.956324 26.973326,10.334535 z M25.811089,9.1306134 L26.731842,10.03093 26.641094,10.163096 C26.174442,10.828862 25.832268,11.103483 25.626034,10.310883 25.559359,10.070775 25.510786,9.7864972 25.448555,9.5434934 L25.437641,9.5034085 z M18.289978,1.8520999 L22.181068,5.6614362 18.502424,9.3336621 18.66757,9.499096 18.625822,9.4879218 C18.548824,9.4725639 18.46714,9.4666358 18.38003,9.4710113 18.02861,9.4885608 17.739923,9.5620223 17.481604,9.7796155 L17.214652,0.65253386 C18.078087,0.6448178 18.577781,0.6230883 19.53025,0.59250003 z M27.34275,0.35812502 L25.749,2.0300001 24.104206,0.40714752 C24.104206,0.40714752 27.34275,0.35812502 27.34275,0.35812502 z M1.3470389,0 L1.3509449,0 C1.3713143,0.0011098407 9.8923397,0.46754631 14.839058,0.67580306 15.129054,0.68880349 15.670404,0.64650529 15.9992,0.64650488 16.146889,0.64867639 16.327461,0.64365279 16.481615,0.64455163 L16.481615,11.496468 C16.290649,11.798042 16.137629,11.905698 15.9992,11.912499 L15.9992,11.908591 C15.641765,11.916551 15.375862,11.127371 14.79609,10.355806 14.459394,9.8132888 14.226277,9.5689527 13.721885,9.5569516 L13.61837,9.5569516 C13.039778,9.576953 12.757715,9.7740155 12.358621,10.592142 12.108724,11.104558 11.953298,11.906604 11.872298,12.478923 11.828718,12.471922 11.780722,12.46939 11.729722,12.459389 11.729722,12.44306 11.741442,12.348058 11.741442,12.348058 11.741442,12.348058 11.424482,12.108935 11.264884,11.869527 11.105186,11.630019 11.004668,10.713433 10.565674,10.33432 10.318776,10.121114 10.102505,9.9449645 9.8938074,9.931964 9.7315092,9.9216644 9.5732832,10.009832&#xD;&#xA;9.407485,10.25424 9.02839,10.812859 8.927022,11.590222 8.927022,11.590222 L8.927022,11.728897 C8.8926029,11.720898 8.8556013,11.715459 8.819602,11.70546 L8.8098364,11.428106 C8.8098364,11.428106 8.2514334,10.770548 7.8723479,10.092126 7.5406523,9.4985067 7.2061596,8.8904763 6.9680624,8.8674756 6.934063,8.8645755 6.9023605,8.8718206 6.8723603,8.8948203 6.6328635,9.0743266 6.4743967,10.192659 6.4543967,10.611674 6.4506965,10.701377 6.4507246,10.838875 6.4407253,10.98278 6.4179254,10.96688 6.2481494,10.849854 6.1731506,10.812853 6.0933514,10.772951 5.6750221,10.451426 5.4954243,10.271818 5.3158269,10.092313 5.0956984,9.7347709&#xD;&#xA;4.9758997,9.8147727 4.8559013,9.8945752 4.935822,10.134155 4.8958225,10.453466 L4.8958225,10.64683 C4.8648229,10.532568 4.841136,10.453466 4.841136,10.453466 4.7613468,10.393563 4.4808402,10.093688 4.3411427,10.193692 4.2883926,10.231084 4.2452836,10.317811 4.2102843,10.422215 4.2292843,10.353302 4.2415338,10.293304 4.2415338,10.293304 4.2415338,10.293304 4.139885,10.114002 3.9602869,10.013998 3.8281887,9.9405957 3.7398524,10.030447 3.686853,10.162441 3.7178526,10.078327 3.745446,9.99642 3.7454457,9.99642 3.745446,9.99642 3.6484504,9.8172857&#xD;&#xA;3.5286525,9.6975814 3.4084835,9.5775777 3.3274825,9.5979682 3.3274822,9.5979682 3.3274825,9.5979682 3.310467,9.6547366 3.2864671,9.7327396 3.2744675,9.7197381 3.2623115,9.7086288 3.2513111,9.6956283 L3.2864671,9.5979682 C3.2864673,9.5979682 3.2263117,9.260727 3.1263128,9.1409236 3.0266144,9.0218593 2.7884267,8.9807607 2.7884274,8.9807607 L2.7884274,9.0159188 2.4974146,8.185814 C2.4974148,8.185814 2.1817968,8.0279056 2.0774982,7.7150947 1.9731993,7.4022847 2.236918,5.8904329 2.1849189,5.6818253 2.1328194,5.4733192 0.82829793,4.0133182 0.72399898,3.8048111 0.61980047,3.5962042 0.72399922,0.62532013 0.72399898,0.31251061 0.72399922,0.002999906 1.3390385,1.9815117E-05 1.3470389,0 z" fill="#FFFFFF"/>
  <path d="M11.695068,7.9589233 C12.314911,7.9914551 13.142548,8.4941406 13.142548,8.4941406 13.142548,8.4941406 13.115723,9.199646 12.949219,9.9939575 L12.943848,10.017822 11.034607,10.697266 11.050018,11.006409 11.031586,10.951233 C10.751923,10.095886 10.414032,8.6230469 10.414032,8.6230469 10.414032,8.6230469 10.396271,8.4572144 10.654266,8.1992188 10.912354,7.9414673 10.947479,7.9959717 11.574188,7.9589844 11.613373,7.956665 11.653748,7.9567871 11.695068,7.9589233 z M9.1338806,7.7002563 C9.9786987,7.7163696 10.359253,8.5117188 10.359253,8.5117188 10.359253,8.5117188 10.413971,8.6046753 10.413971,8.9179688 10.413971,9.2313843 10.247009,10.134094 9.9706116,10.908203 9.6940918,11.682434 9.510437,12.087891 8.7362366,12.087891 7.9621277,12.087891 7.8142395,9.8942871 7.7772522,9.8203125 L7.7792358,9.8203125 C7.7792358,9.7833862 7.6500549,8.2540894 7.7050476,8.1621094 7.7603455,8.0698853 8.1475525,7.7381592 9.0507507,7.7011719 9.0788879,7.7000122 9.1066284,7.699707 9.1338806,7.7002563 z M3.4726257,6.8828125 L3.2988281,7.1289063 C3.2988281,7.1289063 3.241333,7.2908325 3.2187195,7.3457031 3.2963562,7.1816406 3.3797302,7.0220337 3.4726257,6.8828125 z M2.6348267,5.9862671 C2.7453308,5.9862671 2.9674988,6.2805786 3.2070923,6.3358765 3.4468079,6.3908691 3.8340454,6.3729858 3.8340454,6.3729858 L3.546936,6.7772827 C3.7938538,6.4364014 4.0559998,6.1956787 4.203186,6.1698608 4.5164795,6.114563 4.4429321,6.8339233 4.6641235,7.1288452 4.8852234,7.4238281 4.8656311,7.1659546 5.0684204,7.1659546 5.2715149,7.1659546 5.2891235,7.4804077 5.2891235,7.4804077 L5.1602173,7.7675171 C5.3829651,7.5057373 5.7258911,7.2307739 6.156311,7.1288452 6.8568115,6.9629517 7.593811,8.2362671 7.593811,8.2362671 L7.6133118,8.3085938 C7.6133118,8.3085938 7.7226868,9.581604 7.7226868,9.8026733 7.7226868,10.023926 7.2250366,10.668396 6.8379211,11.332031 6.4509277,11.995483 6.1004333,12.125 5.6211243,12.125 5.1419373,12.125 5.1608887,11.958801 4.976593,11.497986 4.8285828,11.128662 4.8527832,9.6362915 4.8847961,8.8261719 L4.8476868,9.2108765 C4.8476868,9.2108765 4.0540771,9.7286987 3.5195618,10.060486 2.9850769,10.392639 3.0046387,10.409302 2.820343,10.132813 2.6360474,9.8563232 2.8386536,9.2305908 2.9492493,8.2167969 2.960144,8.116394 2.9819641,8.0167847 3.0058594,7.9179688 2.9760437,8.0042725 2.9449463,8.0637817 2.929657,8.125 2.929657,8.125 2.2309265,8.9165039 2.0097351,8.9902344 1.7885437,9.064209 1.8991394,7.9597168 2.0097351,7.7753906 2.1203308,7.5910645 2.192627,6.8161621&#xD;&#xA;2.3769226,6.484375 2.5612488,6.1525879 2.5241394,5.9863281 2.6347351,5.9863281 z M1.2167664,4.6230469 C1.2167664,4.6230469 1.5852966,4.9907837 1.6405945,5.0644531 1.6955872,5.1384888 1.6776733,5.2304688 1.6776733,5.2304688 L1.1796265,6.109375 C1.4235535,5.6954956 1.7323608,5.25 1.7323608,5.25 L2.4882202,5.9316406 C2.4882202,5.9316406 2.4152222,6.1332397 2.3046265,6.3359375 2.1940308,6.5387573 1.9544067,7.4604492 1.7147827,7.6816406 1.4750977,7.902771 0.84790039,8.289978 0.79290771,8.1425781 0.73760986,7.9950562 0.81030273,7.0365601 0.90228271,6.6679688 0.92269897,6.5863037 0.98397827,6.4636841 1.0526733,6.3339844 L0.88470459,6.6308594 C0.88470459,6.6308594 0.60858154,6.8345947 0.49798584,6.7792969 0.38748169,6.7243042 0.23980713,5.9492798 0.42379761,5.6542969 0.60809326,5.359375 1.2167664,4.6230469 1.2167664,4.6230469 z M7.1038208,1.1928101 C7.3206482,1.1922607 7.5435486,1.3735962 7.8007813,1.5957642 8.2396851,1.9747314 8.3403931,2.8934326 8.5,3.1328735 8.6596069,3.3722534 8.9785156,3.6113281 8.9785156,3.6113281 8.9785156,3.6113281 8.8383484,4.9072266 8.8183594,5.046875 8.7984619,5.1865845 8.5588684,5.5064087 8.359375,5.5664063 8.1598816,5.6264038 7.4624329,5.8453369 6.7441406,5.5859375 6.0258484,5.3265381 6.1445313,4.828125 6.1445313,4.828125 L6.164032,2.8535156 C6.164032,2.8535156 6.2654114,2.0743408 6.6445007,1.515625 6.7866516,1.3062134 6.9222107,1.2114868 7.0605164,1.1953125 7.0749512,1.1936646 7.089386,1.1928101 7.1038208,1.1928101 z M0.57284546,0.85614014 C0.60083008,0.85614014 0.66799927,0.86724854 0.75778198,0.95703125 0.87731934,1.0767212 0.97653198,1.2558594 0.97653198,1.2558594 0.97653198,1.2558594 0.93643188,1.3765869 0.89642334,1.4765625 0.89251709,1.4863892 0.88293457,1.5523682 0.87692261,1.5761719 0.82220459,1.7957153 0.69723511,2.4941406 0.69723511,2.4941406 0.69723511,2.4941406 0.33877563,2.1347046 0.29879761,1.9550781 0.25888062,1.7755127 0.55856323,0.85742188 0.55856323,0.85742188 0.55856323,0.85742188 0.5635376,0.85614014&#xD;&#xA;0.57284546,0.85614014 z M10.95813,0.81762695 C11.462555,0.82946777 11.69455,1.0727539 12.031219,1.6152344 12.390411,2.1938477 12.58905,2.3338013 12.808563,3.2714844 13.027954,4.2092896 13.128876,5.3261719 13.128876,5.3261719 13.128876,5.3261719 13.067383,5.6270142 12.828094,5.8066406 12.588684,5.9862061 12.548798,5.9863281 12.548798,5.9863281 L9.695282,5.9453125 C9.695282,5.9453125 9.3962708,5.8261719 9.2167664,5.546875 9.0371704,5.2675781 9.0370789,4.5878296 9.0370789,4.4082031 9.0370789,4.2286987 9.1965637,2.673584 9.5956726,1.8554688 9.9946594,1.0374756 10.27478,0.83837891 10.853485,0.81835938 10.889648,0.81713867 10.9245,0.81689453 10.95813,0.81762695 z M0.019500732,0.23828125 C0.01953125,0.23828125 0.25958252,0.27880859 0.359375,0.3984375 0.4593811,0.51812744 0.51757813,0.85742188 0.51757813,0.85742188 L0.29882813,1.4765625 C0.29882813,1.4765625 0,1.1775513 0,0.81835938 0,0.45928955 0.019500732,0.23828125 0.019500732,0.23828125 z M4.2050476,0.13085938 C4.4431763,0.15344238 4.7756653,0.76379395 5.1073914,1.3574219 5.4864807,2.0358276 6.0448914,2.6933594 6.0448914,2.6933594 L6.1249695,4.6894531 C6.1249695,4.6894531 5.9048462,4.847229 5.7851257,4.9472656 5.6654358,5.0470581 4.668335,5.3071899 4.4687195,5.1875 4.2692261,5.067688 4.0100098,4.5289307 3.8105164,3.9902344 3.7760315,3.8972778 3.758728,3.7692261 3.7382202,3.6464844 L3.749939,4.0097656 C3.749939,4.0097656 3.3121338,4.4293823 2.9530334,4.3496094 2.5938416,4.2695923 2.2733459,3.8496094 2.2733459,3.8496094 2.2733459,3.8496094 2.2425537,3.4954834 2.2167664,3.2070313 2.2167664,3.5089111 2.2147522,3.8300781 2.2147522,3.8300781 2.2147522,3.8300781 1.9752502,3.7718506 1.7557678,3.671875 1.5370178,3.5723877 1.336853,3.1768188 1.3358459,3.1738281 1.3358154,3.1760864 1.3358459,3.2128906 1.3358459,3.2128906 1.3358459,3.2128906 1.2552185,3.0923462&#xD;&#xA;1.0956116,2.9726563 0.93600464,2.8529663 0.85632324,2.6932983 0.8163147,2.6132813 0.77636719,2.5335083 0.83691406,1.7756958 0.87692261,1.5761719 0.91680908,1.3768311 1.0176086,1.1773682 1.1972351,1.2773438 1.3765259,1.3771362 1.476532,1.5566406 1.476532,1.5566406 1.476532,1.5566406 1.4364319,1.7359619 1.3964233,1.8359375 1.3914185,1.8475342 1.3904114,1.9645996 1.3864136,2.0039063 1.4162292,1.7772217 1.4726563,1.5309448 1.5758972,1.4570313 1.7154846,1.3572388&#xD;&#xA;1.993927,1.6548462 2.0739136,1.7148438 2.0739136,1.7148438 2.1115112,1.8496704 2.1462097,1.9765625 2.145813,1.9094849 2.1305237,1.750061 2.1345215,1.7148438 2.17453,1.3955688 2.094635,1.157959 2.2146301,1.078125 2.3343201,0.99810791 2.5526123,1.3555908 2.7322083,1.5351563 2.9117126,1.7147827 3.3320007,2.0343628 3.4118958,2.0742188 3.4895325,2.1130371 3.6722717,2.2400513 3.6833801,2.2480469 3.688385,2.1293945 3.6873779,1.9520874 3.6913757,1.875&#xD;&#xA;3.7112732,1.4559937 3.8699341,0.33978271 4.1093445,0.16015625 4.1392517,0.13787842 4.171051,0.12786865 4.2050476,0.13085938 z M1.4181213,0.0085449219 L1.4148865,0.024047852 C1.412384,0.032348633 1.4098816,0.040771484 1.4098816,0.048828125 1.4098816,0.036804199 1.4096985,0.024902344 1.4155273,0.012573242 z M1.4198914,0 L1.423584,0 1.4181213,0.0085449219 z" fill="#FFFFFF"/>
</svg>