<?xml version="1.0" encoding="UTF-8"?>
<svg xmlns="http://www.w3.org/2000/svg" width="32.000" height="32.000" viewBox="0 0 32.000 32.000">
  <title>ProstheticProductionProcess.1.DuplicateDentureMode.Default</title>
  <path d="F1 M 25.447,12.406 L 25.808,12.000 C 25.901,12.139 25.975,12.290 26.026,12.450 C 26.068,12.645 26.098,12.844 26.115,13.043 C 26.113,13.094 26.098,13.144 26.071,13.188 C 26.071,13.188 25.697,12.724 25.578,12.579 C 25.531,12.524 25.487,12.466 25.448,12.405" fill="#ffffff"/>
  <path d="F1 M 25.026,12.926 L 25.431,12.492 L 26.025,13.158 C 26.025,13.158 26.039,13.941 26.010,14.043 C 25.981,14.145 25.823,14.159 25.735,14.057 C 25.647,13.955 25.026,12.927 25.026,12.927" fill="#ffffff"/>
  <path d="F1 M 24.330,13.478 C 24.576,13.327 24.812,13.162 25.039,12.985 C 25.039,12.985 25.518,13.840 25.620,14.115 C 25.738,14.464 25.777,14.835 25.734,15.202 C 25.659,15.346 25.228,15.028 24.985,14.752 C 24.742,14.476 24.753,14.144 24.622,13.928 C 24.492,13.712 24.332,13.478 24.332,13.478" fill="#ffffff"/>
  <path d="F1 M 23.518,13.868 C 23.708,14.183 23.864,14.519 23.982,14.868 C 24.040,15.172 24.127,15.230 24.127,15.230 C 24.127,15.230 24.706,15.839 24.779,15.883 C 24.852,15.928 24.879,15.420 24.765,14.897 C 24.700,14.458 24.593,14.027 24.447,13.608 C 24.346,13.478 24.346,13.463 24.346,13.463 C 24.346,13.463 23.821,13.738 23.707,13.782 C 23.642,13.805 23.579,13.834 23.519,13.868 L 23.518,13.868 Z" fill="#ffffff"/>
  <path d="F1 M 23.084,13.622 C 23.084,13.622 23.492,13.547 23.809,14.521 C 24.068,15.221 24.195,15.963 24.183,16.709 C 24.108,16.897 24.198,17.114 23.994,16.998 C 23.791,16.883 23.371,16.448 23.110,16.317 C 22.946,16.235 22.776,16.163 22.604,16.099 C 22.604,16.099 22.560,15.433 22.545,15.303 C 22.455,15.070 22.344,14.847 22.212,14.636 C 22.212,14.636 22.169,14.476 22.255,14.461 C 22.341,14.446 22.515,14.536 22.689,14.360 C 22.828,14.184 22.931,13.983 22.995,13.768 C 23.052,13.637 23.080,13.622 23.080,13.622 L 23.084,13.622 Z" fill="#ffffff"/>
  <path d="F1 M 22.070,14.578 C 22.258,14.756 22.410,14.968 22.520,15.202 C 22.547,16.139 22.522,17.077 22.445,18.012 C 22.386,18.128 22.314,18.200 21.938,18.288 C 21.562,18.375 21.170,18.085 20.908,17.607 C 20.647,17.129 20.474,16.765 20.402,16.606 C 20.329,16.446 20.343,16.475 20.343,16.475 L 20.402,15.302 C 20.592,15.051 20.811,14.822 21.053,14.621 C 21.269,14.487 21.525,14.431 21.777,14.461 C 21.880,14.482 21.978,14.521 22.067,14.577" fill="#ffffff"/>
  <path d="F1 M 20.330,15.318 C 20.139,15.006 19.797,14.818 19.431,14.825 C 18.918,14.681 18.386,14.980 18.241,15.492 C 18.229,15.535 18.220,15.579 18.214,15.623 C 18.161,16.103 18.215,16.589 18.374,17.046 C 18.634,17.742 18.837,18.263 19.157,18.307 C 19.476,18.351 19.722,18.382 19.895,17.933 C 20.068,17.483 20.329,16.556 20.329,16.556 L 20.330,15.318 Z" fill="#ffffff"/>
  <path d="F1 M 14.852,18.304 C 14.852,18.304 15.171,18.363 15.534,17.507 C 15.771,16.855 15.908,16.171 15.940,15.478 C 15.567,15.246 15.146,15.102 14.708,15.058 C 14.215,15.088 14.184,15.044 13.985,15.247 C 13.785,15.449 13.795,15.580 13.795,15.580 C 13.958,16.344 14.176,17.095 14.448,17.828 C 14.552,18.011 14.690,18.173 14.854,18.306" fill="#ffffff"/>
  <path d="F1 M 11.723,16.521 C 11.753,16.579 11.868,18.303 12.473,18.303 C 13.077,18.303 13.226,17.984 13.447,17.376 C 13.629,16.872 13.746,16.346 13.794,15.811 C 13.804,15.703 13.789,15.594 13.751,15.492 C 13.555,15.103 13.157,14.856 12.721,14.855 C 12.334,14.825 11.952,14.956 11.664,15.217 C 11.661,15.653 11.681,16.088 11.723,16.522" fill="#ffffff"/>
  <path d="F1 M 11.577,15.274 C 11.577,15.274 10.999,14.275 10.447,14.405 C 10.002,14.508 9.634,14.822 9.461,15.245 C 9.395,16.110 9.415,16.979 9.520,17.840 C 9.665,18.202 9.650,18.333 10.026,18.333 C 10.445,18.350 10.830,18.100 10.983,17.709 C 11.256,17.334 11.489,16.931 11.679,16.507 C 11.679,16.333 11.594,15.333 11.594,15.333" fill="#ffffff"/>
  <path d="F1 M 9.767,14.680 C 9.767,14.680 9.751,14.435 9.592,14.435 C 9.432,14.435 9.448,14.637 9.274,14.405 C 9.100,14.173 9.158,13.608 8.911,13.651 C 8.362,14.016 8.001,14.605 7.925,15.260 C 7.838,16.057 7.680,16.550 7.824,16.767 C 7.968,16.985 7.955,16.970 8.376,16.709 C 8.797,16.448 9.419,16.042 9.419,16.042 L 9.494,15.288" fill="#ffffff"/>
  <path d="F1 M 7.912,15.187 C 7.698,15.442 7.454,15.671 7.187,15.868 C 7.013,15.927 7.100,15.057 7.187,14.912 C 7.274,14.766 7.331,14.159 7.477,13.897 C 7.622,13.636 7.592,13.506 7.680,13.506 C 7.767,13.506 7.940,13.738 8.129,13.782 C 8.292,13.809 8.457,13.819 8.622,13.811 L 8.202,14.405 C 8.092,14.661 7.996,14.922 7.913,15.187" fill="#ffffff"/>
  <path d="F1 M 7.564,13.463 L 6.969,12.926 C 6.716,13.276 6.498,13.650 6.318,14.042 C 6.238,14.423 6.208,14.814 6.231,15.202 C 6.274,15.318 6.767,15.013 6.956,14.840 C 7.150,14.506 7.305,14.151 7.419,13.782 C 7.475,13.679 7.523,13.573 7.564,13.463" fill="#ffffff"/>
  <path d="F1 M 6.926,12.913 L 6.303,14.013 C 6.303,14.013 6.086,14.174 5.998,14.129 C 5.856,13.856 5.835,13.536 5.940,13.246 C 6.084,13.014 6.563,12.435 6.563,12.435 C 6.563,12.435 6.853,12.724 6.897,12.782 C 6.923,12.820 6.933,12.867 6.926,12.913" fill="#ffffff"/>
  <path d="F1 M 19.312,12.054 C 19.312,12.054 19.395,12.878 19.587,13.041 C 20.067,13.226 20.588,13.274 21.093,13.179 C 21.380,13.112 21.591,12.868 21.614,12.575 C 21.604,11.955 21.521,11.339 21.366,10.740 C 21.257,10.247 20.983,9.699 20.681,9.726 C 20.380,9.753 19.969,10.325 19.942,10.550 C 19.917,10.808 19.843,11.060 19.723,11.290 C 19.644,11.435 19.519,11.551 19.367,11.619 L 19.312,12.054 Z" fill="#ffffff"/>
  <path d="F1 M 21.586,11.123 L 21.641,12.546 C 21.641,12.546 22.381,12.820 22.599,12.902 C 22.817,12.984 23.339,12.163 23.367,11.998 C 23.485,11.366 23.513,10.720 23.448,10.080 C 23.311,9.587 23.448,8.792 23.011,9.040 C 22.573,9.287 22.380,10.054 22.106,10.382 C 21.917,10.617 21.743,10.864 21.586,11.121" fill="#ffffff"/>
  <path d="F1 M 23.477,10.630 C 23.477,10.630 24.134,10.274 24.216,10.055 C 24.290,9.900 24.403,9.767 24.545,9.671 C 24.545,9.671 24.655,9.671 24.655,9.919 C 24.655,10.167 24.655,11.726 24.600,11.835 C 24.500,12.025 24.335,12.171 24.135,12.247 C 23.897,12.246 23.662,12.190 23.450,12.082 L 23.395,11.973 L 23.477,10.630 Z" fill="#ffffff"/>
  <path d="F1 M 24.652,11.764 L 24.682,10.290 C 24.723,10.163 24.814,10.059 24.934,10.000 C 25.122,9.921 25.091,9.937 25.177,9.969 C 25.257,10.395 25.296,10.828 25.294,11.262 C 25.278,11.372 25.218,11.471 25.129,11.537 C 24.972,11.662 24.934,11.772 24.829,11.788 C 24.768,11.797 24.706,11.789 24.649,11.765" fill="#ffffff"/>
  <path d="F1 M 25.318,11.270 C 25.267,10.825 25.242,10.377 25.243,9.929 C 25.289,9.866 25.407,9.725 25.485,9.764 C 25.564,9.804 25.587,9.906 25.635,10.101 C 25.688,10.352 25.698,10.609 25.666,10.863 C 25.626,10.971 25.568,11.073 25.494,11.162 C 25.445,11.211 25.387,11.248 25.322,11.273" fill="#ffffff"/>
  <path d="F1 M 25.601,9.913 C 25.644,10.081 25.678,10.251 25.702,10.423 C 25.703,10.528 25.711,10.633 25.724,10.737 C 25.827,10.735 25.920,10.677 25.969,10.587 C 26.039,10.437 26.119,10.352 26.085,10.179 C 26.056,9.992 26.017,9.806 25.969,9.623 C 25.928,9.504 25.906,9.426 25.772,9.497 C 25.639,9.567 25.647,9.701 25.623,9.779 C 25.609,9.823 25.602,9.867 25.600,9.913" fill="#ffffff"/>
  <path d="F1 M 25.969,9.522 C 25.969,9.522 25.953,9.271 26.039,9.184 C 26.099,9.110 26.176,9.050 26.264,9.012 C 26.319,9.003 26.349,9.474 26.334,9.600 C 26.319,9.726 26.389,9.773 26.264,9.874 C 26.139,9.975 26.092,9.937 26.092,9.937 L 25.969,9.522 Z" fill="#ffffff"/>
  <path d="F1 M 15.930,12.988 C 15.894,13.135 15.811,13.267 15.694,13.363 C 15.506,13.504 15.475,13.504 15.475,13.504 L 13.231,13.473 C 13.079,13.406 12.949,13.297 12.856,13.159 C 12.746,12.874 12.698,12.569 12.715,12.265 C 12.758,11.577 12.906,10.900 13.154,10.257 C 13.468,9.614 13.686,9.457 14.142,9.441 C 14.597,9.424 14.785,9.614 15.067,10.068 C 15.369,10.449 15.579,10.895 15.679,11.371 C 15.795,11.904 15.879,12.443 15.930,12.986" fill="#ffffff"/>
  <path d="F1 M 12.666,11.639 C 12.525,11.532 12.398,11.406 12.291,11.264 C 12.165,11.075 12.087,10.355 11.742,10.056 C 11.397,9.757 11.131,9.555 10.833,9.993 C 10.639,10.314 10.512,10.671 10.459,11.042 L 10.442,12.595 C 10.442,12.595 10.348,12.988 10.914,13.194 C 11.328,13.325 11.773,13.319 12.184,13.179 C 12.355,13.097 12.485,12.950 12.545,12.771 C 12.562,12.660 12.671,11.640 12.671,11.640 L 12.666,11.639 Z" fill="#ffffff"/>
  <path d="F1 M 10.360,10.917 C 10.085,10.589 9.839,10.238 9.623,9.868 C 9.323,9.334 9.024,8.786 8.838,8.927 C 8.627,9.346 8.514,9.807 8.509,10.276 C 8.457,10.832 8.489,11.392 8.603,11.939 C 8.701,12.288 8.878,12.610 9.120,12.880 C 9.476,12.907 9.833,12.842 10.157,12.692 C 10.250,12.612 10.423,12.487 10.423,12.487 L 10.360,10.917 Z" fill="#ffffff"/>
  <path d="F1 M 8.556,11.953 C 8.556,11.953 8.212,12.282 7.929,12.220 C 7.717,12.143 7.531,12.007 7.394,11.827 C 7.394,11.827 7.253,10.399 7.286,10.149 C 7.318,9.898 7.253,9.709 7.348,9.647 C 7.444,9.584 7.616,9.867 7.757,10.008 C 7.922,10.164 8.100,10.306 8.290,10.432 C 8.352,10.463 8.509,10.573 8.509,10.573 L 8.556,11.953 Z" fill="#ffffff"/>
  <path d="F1 M 7.241,10.149 C 7.178,10.101 6.960,9.866 6.849,9.944 C 6.728,10.125 6.668,10.339 6.677,10.556 C 6.677,10.744 6.661,11.293 6.661,11.293 C 6.661,11.293 6.819,11.607 6.991,11.685 C 7.108,11.737 7.229,11.779 7.352,11.811 C 7.352,11.811 7.367,10.619 7.320,10.430 C 7.273,10.242 7.245,10.148 7.245,10.148" fill="#ffffff"/>
  <path d="F1 M 6.772,10.023 C 6.718,9.932 6.642,9.857 6.552,9.803 C 6.410,9.728 6.332,9.878 6.300,10.039 C 6.255,10.309 6.240,10.582 6.254,10.855 C 6.303,10.966 6.378,11.062 6.473,11.137 C 6.545,11.190 6.608,11.253 6.661,11.325 C 6.661,11.325 6.678,10.322 6.709,10.243 C 6.734,10.171 6.755,10.098 6.772,10.024 L 6.772,10.023 Z" fill="#ffffff"/>
  <path d="F1 M 6.046,9.474 C 5.948,9.754 5.879,10.043 5.842,10.337 C 5.921,10.495 6.028,10.638 6.156,10.761 C 6.156,10.761 6.282,10.039 6.314,9.961 C 6.346,9.882 6.377,9.787 6.377,9.787 C 6.328,9.703 6.269,9.624 6.203,9.553 C 6.109,9.458 6.046,9.474 6.046,9.474 L 6.046,9.474 Z" fill="#ffffff"/>
  <path d="F1 M 5.842,9.961 C 5.707,9.820 5.623,9.637 5.607,9.442 C 5.607,9.160 5.623,8.988 5.623,8.988 C 5.722,9.003 5.815,9.047 5.890,9.114 C 5.953,9.226 5.996,9.348 6.016,9.475 L 5.842,9.961 Z" fill="#ffffff"/>
  <path d="F1 M 16.393,18.816 C 15.952,18.124 15.763,18.645 15.529,18.880 C 15.167,19.734 14.849,19.676 14.849,19.676 C 14.686,19.543 14.548,19.380 14.444,19.197 C 14.009,18.635 13.816,17.796 13.444,18.748 C 13.226,19.357 13.080,19.676 12.470,19.676 C 11.832,18.777 11.703,17.676 10.980,19.077 C 10.825,19.467 10.441,19.717 10.022,19.700 C 9.647,19.700 9.659,19.570 9.515,19.207 C 9.162,18.453 9.021,17.301 8.371,18.078 C 7.952,18.339 7.964,18.351 7.819,18.136 C 7.621,16.642 7.110,16.385 6.695,17.611 C 6.597,16.229 6.971,16.158 5.911,16.630 C 6.017,16.243 5.974,15.829 5.790,15.472 C 5.439,14.192 5.640,13.606 3.864,15.918 C 3.537,16.451 3.291,21.738 3.494,22.188 C 4.149,23.045 5.010,23.721 5.996,24.156 C 6.589,24.431 11.562,24.531 16.393,24.513 L 16.393,18.816 Z" fill="#ffffff"/>
  <path d="F1 M 16.393,15.339 C 16.289,15.388 16.182,15.431 16.083,15.490 C 16.083,15.490 16.099,15.986 16.112,16.361 C 16.134,16.716 16.240,17.057 16.393,17.378 L 16.393,15.339 Z" fill="#ffffff"/>
  <path d="F1 M 17.243,15.040 C 17.211,15.047 17.182,15.060 17.150,15.068 L 17.150,18.225 C 17.374,18.191 17.422,17.960 17.664,17.405 C 17.871,16.744 18.017,16.064 18.099,15.376 L 18.099,15.374 C 17.851,15.183 17.554,15.067 17.243,15.040 Z" fill="#ffffff"/>
  <path d="F1 M 16.393,1.106 C 15.921,1.105 15.481,1.098 15.092,1.082 C 11.197,0.918 4.480,0.552 4.480,0.552 L 4.491,0.552 C 4.491,0.552 3.998,0.552 3.998,0.797 C 3.998,1.041 3.917,3.379 3.998,3.542 C 4.079,3.706 5.106,4.854 5.146,5.019 C 5.187,5.183 4.981,6.367 5.063,6.617 C 5.126,6.775 5.243,6.906 5.393,6.986 L 5.621,7.639 L 5.621,7.612 C 5.721,7.628 5.813,7.671 5.889,7.737 C 5.951,7.848 5.993,7.970 6.013,8.096 L 5.986,8.171 C 5.995,8.182 6.004,8.191 6.013,8.201 C 6.031,8.140 6.046,8.094 6.046,8.094 C 6.046,8.094 6.110,8.080 6.204,8.174 C 6.270,8.245 6.328,8.324 6.376,8.408 L 6.328,8.539 C 6.370,8.434 6.440,8.363 6.543,8.422 C 6.634,8.476 6.710,8.552 6.764,8.643 C 6.764,8.643 6.754,8.688 6.739,8.743 C 6.756,8.675 6.792,8.613 6.842,8.563 C 6.952,8.488 7.172,8.720 7.235,8.768 C 7.235,8.768 7.253,8.830 7.278,8.918 L 7.278,8.768 C 7.309,8.517 7.246,8.329 7.341,8.267 C 7.436,8.205 7.608,8.486 7.750,8.627 C 7.915,8.783 8.094,8.925 8.283,9.052 C 8.343,9.081 8.475,9.173 8.493,9.184 C 8.501,9.072 8.501,8.964 8.504,8.894 C 8.509,8.425 8.621,7.963 8.833,7.545 C 8.854,7.529 8.881,7.521 8.908,7.524 C 9.095,7.541 9.357,8.021 9.619,8.488 C 9.835,8.857 10.081,9.208 10.355,9.537 L 10.363,9.755 C 10.390,9.763 10.420,9.765 10.447,9.770 L 10.447,9.662 C 10.501,9.291 10.628,8.935 10.822,8.613 C 10.952,8.422 11.077,8.353 11.204,8.360 C 11.406,8.412 11.589,8.522 11.729,8.676 C 12.075,8.976 12.154,9.697 12.280,9.885 C 12.387,10.027 12.513,10.153 12.655,10.260 C 12.655,10.260 12.647,10.334 12.647,10.346 C 12.687,10.355 12.722,10.358 12.760,10.363 C 12.817,9.853 12.945,9.355 13.140,8.880 C 13.454,8.237 13.677,8.081 14.131,8.066 L 14.212,8.066 C 14.609,8.075 14.791,8.268 15.057,8.694 C 15.695,9.544 15.833,10.570 16.393,9.589 L 16.393,1.106 Z" fill="#ffffff"/>
  <path d="F1 M 16.393,11.198 C 16.286,11.533 16.187,11.871 16.108,12.214 L 16.107,12.218 L 16.052,13.122 C 16.052,13.122 16.025,13.286 16.272,13.397 C 16.312,13.400 16.353,13.401 16.393,13.404 L 16.393,11.198 Z" fill="#ffffff"/>
  <path d="F1 M 19.012,10.489 C 18.712,9.832 18.436,9.339 17.888,9.365 C 17.598,9.379 17.362,9.444 17.150,9.637 L 17.150,13.453 C 17.697,13.482 18.245,13.496 18.792,13.479 C 19.042,13.418 19.227,13.209 19.257,12.955 C 19.338,12.124 19.254,11.287 19.012,10.489 Z" fill="#ffffff"/>
  <path d="F1 M 23.589,5.741 L 26.741,8.893 L 28.036,7.598 L 24.883,4.446 L 28.036,1.294 L 26.741,0.000 L 23.589,3.152 L 20.437,0.000 L 19.143,1.294 L 22.295,4.446 L 19.143,7.598 L 20.437,8.893 L 23.589,5.741 Z" fill="#ffffff"/>
  <path d="F1 M 24.800,0.783 C 24.098,0.819 23.315,0.861 22.498,0.902 L 23.589,1.994 L 24.800,0.783 Z" fill="#ffffff"/>
  <path d="F1 M 23.589,6.899 L 21.307,9.181 C 21.325,9.242 21.341,9.303 21.355,9.363 C 21.495,10.506 21.716,9.543 22.094,9.007 C 22.368,8.678 22.560,7.911 22.999,7.665 C 23.041,7.639 23.088,7.622 23.137,7.618 C 23.406,7.610 23.451,8.225 23.572,8.656 C 23.757,9.369 24.084,8.981 24.533,8.296 C 24.533,8.296 24.643,8.296 24.643,8.540 C 24.574,9.316 24.682,9.073 24.920,8.622 C 25.243,8.686 25.165,8.639 25.229,8.539 L 23.589,6.899 Z" fill="#ffffff"/>
  <path d="F1 M 18.564,8.178 L 17.985,7.598 L 18.564,7.019 L 21.137,4.446 L 18.564,1.873 L 17.985,1.294 L 18.200,1.079 C 17.841,1.088 17.488,1.096 17.150,1.101 L 17.150,8.253 C 17.358,8.068 17.591,8.006 17.876,7.992 C 18.424,7.965 18.700,8.456 19.000,9.116 C 19.303,9.957 19.518,9.962 19.809,9.422 L 18.564,8.178 Z" fill="#ffffff"/>
  <path d="F1 M 10.436,25.824 C 10.436,27.961 11.727,32.000 16.612,32.000 C 21.080,32.000 22.329,28.203 22.395,26.028 L 24.481,26.028 L 21.492,23.233 L 18.502,26.028 L 20.538,26.028 C 20.511,26.798 20.192,30.133 16.612,30.133 C 12.456,30.133 12.303,26.262 12.303,25.824 L 10.436,25.824 Z" fill="#ffffff"/>
  <path d="F1 M 27.718,15.302 C 27.520,13.903 26.519,14.761 25.995,16.567 L 26.001,16.576 C 25.641,16.304 25.139,15.939 25.110,17.558 C 24.774,16.827 24.218,17.424 24.187,18.082 C 24.112,18.270 24.200,18.486 23.995,18.371 C 23.283,16.716 23.143,17.846 22.447,19.386 C 22.389,19.502 22.316,19.574 21.938,19.661 C 21.559,19.748 21.170,19.458 20.908,18.981 C 20.384,17.782 20.281,18.831 19.897,19.301 C 19.722,19.751 19.475,19.722 19.155,19.676 C 18.835,19.630 18.636,19.110 18.375,18.414 C 18.109,17.684 17.822,17.965 17.663,18.779 C 17.423,19.332 17.373,19.562 17.150,19.599 L 17.150,24.509 C 17.666,24.506 18.176,24.501 18.677,24.496 L 20.809,22.503 L 21.492,21.865 L 22.175,22.503 L 24.156,24.355 C 25.066,24.310 25.690,24.257 25.876,24.197 C 27.024,23.828 28.580,22.065 28.580,22.065 C 28.580,22.065 28.006,15.671 27.718,15.302 Z" fill="#ffffff"/>
  <path d="F1 M 32.000,32.000 L 0.000,32.000 L 0.000,0.000 L 32.000,0.000 L 32.000,32.000 Z" fill="currentColor"/>
  <rect x="0" y="0" width="0" height="0" fill="none"/>
</svg>