<?xml version="1.0" encoding="UTF-8"?>
<svg xmlns="http://www.w3.org/2000/svg" width="32" height="32" viewBox="0 0 32 32">
  <title>ScanAbutmentScan.DontUse.Parameter</title>
  <path d="m 730.3663 422.26598 15.16743 -13.22918 33.3684 -9.88691 29.19736 12.05136 9.47965 13.66196 -1.13758 58.8738 -8.34207 -3.03037 -29.19736 -3.03019 -32.23083 0.86574 -17.44256 4.76186 z" fill="#FFFFFF" stroke-width="0.40515146"/>
  <path d="m 778.52293 477.67645 v -78.09378 l 29.19735 12.05154 0.37921 69.50539 z" fill="#FFFFFF" stroke-width="0.40515146"/>
  <path d="m 778.33335 468.87168 v -69.93836 l -32.37913 9.91482 -0.42049 64.04071 z" fill="#FFFFFF" stroke-width="0.42665631"/>
  <path d="m 20.763672 1.4511719 c 0.08971 0.063794 0.08105 0.1152823 0.160156 0.1835938 -0.07899 -0.068174 -0.07028 -0.1197592 -0.160156 -0.1835938 z m 0.09375 0.1464844 c 0.08152 0.07114 0.06353 -0.3079825 0.132812 -0.2324219 -0.06908 -0.075396 -0.05112 0.3037678 -0.132812 0.2324219 z m 0.169922 -0.083984 C 21.097404 1.590716 20.755942 1.2157396 20.8125 1.296875 20.75614 1.216069 21.097621 1.5910039 21.027344 1.5136723 Z m 0.191406 0.019531 c 0.05666 0.081383 0.137428 0.1649514 0.179688 0.25 -0.04205 -0.084527 -0.12284 -0.168219 -0.179688 -0.25 z m -0.08398 0.4082032 c 0.0406 0.081988 0.120025 -0.3193555 0.146485 -0.2343751 -0.02631 -0.08439 -0.105655 0.316953 -0.146485 0.2343751 z M 21.035156 1.765625 c 0.02403 0.0799 0.245035 -0.3542304 0.255855 -0.2734375 -0.01111 -0.081479 -0.231855 0.352678 -0.255855 0.2734375 z m -8.96378 0.1866475 c -0.04419 0.2923792 -0.05692 1.0846584 -0.003 1.3953837 0.194882 0.1738052 0.419351 0.3390327 0.673829 0.4921876 0.08493 0.051107 0.172854 0.098522 0.263671 0.1464843 l 0.04102 -0.2636719 0.04102 -0.4648437 0.01953 0.00391 c -0.638338 -0.4625154 -1.034921 -0.7254606 -1.03607 -1.30945 z m 9.579015 -0.085085 c -0.003 1.2882479 -1.711373 2.170543 -3.984375 2.3886719 l 0.04687 0.53125 c 1.203433 -0.1212989 2.275227 -0.4652416 3.076171 -0.9472656 0.335621 -0.201982 0.61851 -0.4255258 0.84961 -0.6621094 0.04876 -0.4450448 0.04237 -0.7727519 0.01172 -1.3105469 z m 0.01758 2.3144531 C 21.516925 4.2958684 21.357724 4.4026274 21.189453 4.5039062 20.267559 5.0587308 19.090684 5.4334292 17.783203 5.5625 l 0.0957 1.0644531 c 1.151105 -0.1324203 2.172962 -0.4707138 2.945313 -0.9355469 0.345769 -0.2080779 0.636375 -0.43701 0.871093 -0.6816406 -0.0095 -0.2808792 -0.01925 -0.5688711 -0.02734 -0.828125 z m -9.640625 0.1191406 c -0.01168 0.2489272 -0.027 0.5232626 -0.04102 0.7910157 0.210286 0.2047549 0.553603 0.4098146 0.84375 0.5878906 l 0.04883 -0.8867187 C 12.69187 4.7031138 12.510259 4.6064625 12.339839 4.5039062 c -0.107873 -0.06492 -0.211533 -0.1327958 -0.3125 -0.203125 z m 9.705078 1.7109376 c -0.158997 0.1219443 -0.329356 0.2383001 -0.507813 0.3457031 -0.88601 0.5332264 -2.007322 0.8986534 -3.253906 1.0410156 0.04496 0.3500424 0.08746 0.7101717 0.121094 1.0664063 1.097875 -0.1423758 2.071411 -0.4727336 2.814453 -0.9199219 0.340066 -0.2046595 0.626664 -0.4317767 0.859375 -0.671875 -0.01182 -0.2889944 -0.02258 -0.5784578 -0.0332 -0.8613281 z m -9.800781 0.046875 c -0.01354 0.227466 -0.02786 0.4613762 -0.04297 0.6933593 0.165161 0.1889785 0.609546 0.4727817 0.839844 0.6425781 L 12.855469 6.59375 C 12.776474 6.55069 12.452589 6.4029404 12.376953 6.3574219 12.221451 6.2638323 12.0725 6.1632782 11.931641 6.0585938 Z m -0.113282 1.6992187 c -0.01887 0.2527449 -0.03976 0.5024214 -0.06055 0.7519531 0.137455 0.1709905 0.585498 0.4527328 0.775391 0.609375 -0.006 -0.129345 -0.0039 -0.2050781 -0.0039 -0.2050781 l 0.10351 -0.6582031 C 12.444464 8.1365652 11.983187 7.8936657 11.818359 7.7578125 Z m 9.990235 0.1113281 c -0.157709 0.1206814 -0.325158 0.2334432 -0.501953 0.3398438 -0.862881 0.5193168 -1.948671 0.8812121 -3.15625 1.03125 0.01405 0.2383822 0.02299 0.4695731 0.02539 0.6933594 l 0.03125 0.3593752 C 19.235986 10.139732 20.150747 9.8206183 20.855469 9.3964844 21.261501 9.1521289 21.59177 8.8792437 21.84375 8.5859375 21.831955 8.3485576 21.819614 8.1107224 21.808594 7.8691406 Z m -10.142578 1.65625 c -0.02262 0.229855 -0.04581 0.4531279 -0.07031 0.6718754 0.202329 0.294006 0.479973 0.572932 0.830078 0.826172 l 0.05078 -0.583985 c -0.03803 -0.133148 -0.0711 -0.265777 -0.09766 -0.394531 -0.258204 -0.1574803 -0.497665 -0.331981 -0.71289 -0.5195314 z m 10.23242 0.083984 C 21.7011 9.7720867 21.486386 9.9237632 21.255859 10.0625 c -0.820163 0.493612 -1.842384 0.843477 -2.978515 1.005859 l 0.09375 1.042969 C 19.317474 11.948219 20.15827 11.646082 20.816406 11.25 21.298992 10.959564 21.674192 10.626521 21.9375 10.269531 21.92376 10.056002 21.91144 9.8357705 21.89844 9.609375 Z M 11.464844 11.230469 c -0.130413 0.906652 -0.282173 1.611644 -0.458985 1.941406 -0.229664 0.428322 -0.119382 1.563754 0.708985 2.585937 l 0.11914 -3.75 0.521485 -0.06445 c -0.305237 -0.190571 -0.648675 -0.480357 -0.890625 -0.71289 z m 10.550781 0.0957 c -0.238049 0.214546 -0.505758 0.411517 -0.798828 0.58789 -0.771106 0.464078 -1.720439 0.802771 -2.775391 0.976563 l 0.02539 0.283203 0.511719 0.330078 0.126953 3.888672 c 3.238756 -0.848625 3.91641 -3.411068 3.173828 -4.322266 -0.09705 -0.119088 -0.1848 -0.789691 -0.263671 -1.74414 z" fill="#FFFFFF" stroke-width="0.27280226"/>
  <path d="m 16.863281 0.42382812 a 4.7980998 1.5308203 0 0 0 -4.798828 1.53124998 4.7980998 1.5308203 0 0 0 0.0059 0.039063 c -0.04767 0.2853579 0.126008 0.7180355 0.181641 1.0722656 l 0.75 0.2558594 -0.779297 8.5996099 -0.517578 0.05273 v 3.777344 l 7.398438 1.662108 0.0293 -4.033203 -0.701171 -0.371093 -0.625 -8.6191405 0.576171 -0.064453 0.708985 -0.080078 2.339844 -1.1132813 0.203125 -1.03125 -0.0039 0.00195 a 4.7980998 1.5308203 0 0 0 0.0293 -0.1484375 4.7980998 1.5308203 0 0 0 -4.796875 -1.53124998 z m 0 0.41601563 A 3.4967701 1.1156348 0 0 1 20.359375 1.9550781 3.4967701 1.1156348 0 0 1 16.863281 3.0703125 3.4967701 1.1156348 0 0 1 13.365234 1.9550781 3.4967701 1.1156348 0 0 1 16.863281 0.83984375 Z" fill="#FFFFFF" stroke-width="0.20865692"/>
  <path d="m 705.41814 561.8915 c 5.14817 -21.86831 10.81983 -48.78518 13.526 -62.33116 0.068 -2.14034 0.48496 -4.27162 1.24508 -6.3634 0.25005 -1.34746 0.39556 -2.20196 0.39556 -2.37613 0.0109 0.37352 0.0478 0.73743 0.0823 1.10171 6.19871 -14.5393 28.05501 -24.71636 53.10846 -24.72905 25.3913 0.0181 47.44496 10.46866 53.31286 25.26531 -0.0527 -0.38221 -0.0792 -0.49041 -0.12215 -0.72728 0.0506 0.22817 0.19611 0.76027 0.28141 1.10425 0.4187 1.10786 0.74128 2.22788 0.96631 3.35568 2.33343 7.56152 10.75771 39.00865 18.60192 64.99907 -26.03085 -33.92202 -115.94441 -40.14026 -141.3978 0.701 z m 121.54816 -70.16 c -0.2041 -0.92229 -0.13429 -0.73924 0 0 z m -106.38152 -0.91069 c 1.4e-4 -0.4181 0.0248 -0.83493 0.0716 -1.25303 -0.0468 0.4152 -0.0716 0.83312 -0.0716 1.25303 z" fill="#FFFFFF" stroke-width="3.15628076"/>
  <path d="m 701.5049 668.296 c -14.4316 -4.57446 -34.95754 -14.57573 -35.57047 -27.94808 0.0163 -10.14661 10.4889 -19.90068 29.24217 -27.23512 -6.49648 4.72761 -9.88814 9.96574 -9.89427 15.28072 0.0304 7.02726 5.97562 13.87237 16.99311 19.56558 z" fill="#FFFFFF" stroke-width="1.00021672"/>
  <path d="m 844.14694 676.23032 1.57163 -20.2664 a 89.519508 33.469708 0 0 0 17.87184 -20.00905 89.519508 33.469708 0 0 0 -3.21226 -8.73682 105.5061 39.446802 0 0 1 15.8383 20.69121 105.5061 39.446802 0 0 1 -32.06951 28.32106 z" fill="#FFFFFF" stroke-width="1.00021672"/>
  <path d="m 674.32427 620.08695 c 33.79429 -47.7643 175.63778 -42.10897 202.83658 8.69314 0 0 -5.68514 -78.45424 -95.62296 -83.06641 -94.55698 -4.84903 -107.21362 74.37327 -107.21362 74.37327 z" fill="#FFFFFF" stroke-width="3.15628076"/>
  <path d="m 152.33008 237.09375 0.16406 8.8125 2.81836 2.45703 6.19922 1.83594 5.42383 -2.23828 1.76172 -2.53711 -0.16016 -8.22852 c -1.88266 1.45278 -4.81597 2.36098 -8.04102 2.36328 -3.29546 -0.002 -6.28766 -0.95253 -8.16601 -2.46484 z" fill="#FFFFFF" stroke-width="0.0752706"/>
  <path d="m 166.91797 238.18164 c -1.53273 0.7484 -3.42906 1.21196 -5.47656 1.32813 v 10.60937 l 5.42382 -2.23828 z" fill="#FFFFFF" stroke-width="0.0752706"/>
  <path d="m 155.32617 238.69727 0.0645 9.70117 6.01563 1.84179 v -10.72851 c -0.30342 0.0166 -0.60072 0.0466 -0.91016 0.0469 -1.87428 -9.5e-4 -3.63942 -0.31835 -5.16992 -0.86132 z" fill="#FFFFFF" stroke-width="0.07926586"/>
  <path d="m 20.763672 1.4511719 c 0.08971 0.063794 0.08105 0.1152823 0.160156 0.1835938 -0.07899 -0.068174 -0.07028 -0.1197592 -0.160156 -0.1835938 z m 0.09375 0.1464844 c 0.08152 0.07114 0.06353 -0.3079825 0.132812 -0.2324219 -0.06908 -0.075396 -0.05112 0.3037678 -0.132812 0.2324219 z m 0.169922 -0.083984 C 21.097404 1.590716 20.755942 1.2157396 20.8125 1.296875 20.75614 1.216069 21.097621 1.5910039 21.027344 1.5136723 Z m 0.191406 0.019531 c 0.05666 0.081383 0.137428 0.1649514 0.179688 0.25 -0.04205 -0.084527 -0.12284 -0.168219 -0.179688 -0.25 z m -0.08398 0.4082032 c 0.0406 0.081988 0.120025 -0.3193555 0.146485 -0.2343751 -0.02631 -0.08439 -0.105655 0.316953 -0.146485 0.2343751 z M 21.035156 1.765625 c 0.02403 0.0799 0.245035 -0.3542304 0.255855 -0.2734375 -0.01111 -0.081479 -0.231855 0.352678 -0.255855 0.2734375 z m -8.96378 0.1866475 c -0.04419 0.2923792 -0.05692 1.0846584 -0.003 1.3953837 0.194882 0.1738052 0.419351 0.3390327 0.673829 0.4921876 0.08493 0.051107 0.172854 0.098522 0.263671 0.1464843 l 0.04102 -0.2636719 0.04102 -0.4648437 0.01953 0.00391 c -0.638338 -0.4625154 -1.034921 -0.7254606 -1.03607 -1.30945 z m 9.579015 -0.085085 c -0.003 1.2882479 -1.711373 2.170543 -3.984375 2.3886719 l 0.04687 0.53125 c 1.203433 -0.1212989 2.275227 -0.4652416 3.076171 -0.9472656 0.335621 -0.201982 0.61851 -0.4255258 0.84961 -0.6621094 0.04876 -0.4450448 0.04237 -0.7727519 0.01172 -1.3105469 z m 0.01758 2.3144531 C 21.516925 4.2958684 21.357724 4.4026274 21.189453 4.5039062 20.267559 5.0587308 19.090684 5.4334292 17.783203 5.5625 l 0.0957 1.0644531 c 1.151105 -0.1324203 2.172962 -0.4707138 2.945313 -0.9355469 0.345769 -0.2080779 0.636375 -0.43701 0.871093 -0.6816406 -0.0095 -0.2808792 -0.01925 -0.5688711 -0.02734 -0.828125 z m -9.640625 0.1191406 c -0.01168 0.2489272 -0.027 0.5232626 -0.04102 0.7910157 0.210286 0.2047549 0.553603 0.4098146 0.84375 0.5878906 l 0.04883 -0.8867187 C 12.69187 4.7031138 12.510259 4.6064625 12.339839 4.5039062 c -0.107873 -0.06492 -0.211533 -0.1327958 -0.3125 -0.203125 z m 9.705078 1.7109376 c -0.158997 0.1219443 -0.329356 0.2383001 -0.507813 0.3457031 -0.88601 0.5332264 -2.007322 0.8986534 -3.253906 1.0410156 0.04496 0.3500424 0.08746 0.7101717 0.121094 1.0664063 1.097875 -0.1423758 2.071411 -0.4727336 2.814453 -0.9199219 0.340066 -0.2046595 0.626664 -0.4317767 0.859375 -0.671875 -0.01182 -0.2889944 -0.02258 -0.5784578 -0.0332 -0.8613281 z m -9.800781 0.046875 c -0.01354 0.227466 -0.02786 0.4613762 -0.04297 0.6933593 0.165161 0.1889785 0.609546 0.4727817 0.839844 0.6425781 L 12.855469 6.59375 C 12.776474 6.55069 12.452589 6.4029404 12.376953 6.3574219 12.221451 6.2638323 12.0725 6.1632782 11.931641 6.0585938 Z m -0.113282 1.6992187 c -0.01887 0.2527449 -0.03976 0.5024214 -0.06055 0.7519531 0.137455 0.1709905 0.585498 0.4527328 0.775391 0.609375 -0.006 -0.129345 -0.0039 -0.2050781 -0.0039 -0.2050781 l 0.10351 -0.6582031 C 12.444464 8.1365652 11.983187 7.8936657 11.818359 7.7578125 Z m 9.990235 0.1113281 c -0.157709 0.1206814 -0.325158 0.2334432 -0.501953 0.3398438 -0.862881 0.5193168 -1.948671 0.8812121 -3.15625 1.03125 0.01405 0.2383822 0.02299 0.4695731 0.02539 0.6933594 l 0.03125 0.3593752 C 19.235986 10.139732 20.150747 9.8206183 20.855469 9.3964844 21.261501 9.1521289 21.59177 8.8792437 21.84375 8.5859375 21.831955 8.3485576 21.819614 8.1107224 21.808594 7.8691406 Z m -10.142578 1.65625 c -0.02262 0.229855 -0.04581 0.4531279 -0.07031 0.6718754 0.202329 0.294006 0.479973 0.572932 0.830078 0.826172 l 0.05078 -0.583985 c -0.03803 -0.133148 -0.0711 -0.265777 -0.09766 -0.394531 -0.258204 -0.1574803 -0.497665 -0.331981 -0.71289 -0.5195314 z m 10.23242 0.083984 C 21.7011 9.7720867 21.486386 9.9237632 21.255859 10.0625 c -0.820163 0.493612 -1.842384 0.843477 -2.978515 1.005859 l 0.09375 1.042969 C 19.317474 11.948219 20.15827 11.646082 20.816406 11.25 21.298992 10.959564 21.674192 10.626521 21.9375 10.269531 21.92376 10.056002 21.91144 9.8357705 21.89844 9.609375 Z M 11.464844 11.230469 c -0.130413 0.906652 -0.282173 1.611644 -0.458985 1.941406 -0.229664 0.428322 -0.119382 1.563754 0.708985 2.585937 l 0.11914 -3.75 0.521485 -0.06445 c -0.305237 -0.190571 -0.648675 -0.480357 -0.890625 -0.71289 z m 10.550781 0.0957 c -0.238049 0.214546 -0.505758 0.411517 -0.798828 0.58789 -0.771106 0.464078 -1.720439 0.802771 -2.775391 0.976563 l 0.02539 0.283203 0.511719 0.330078 0.126953 3.888672 c 3.238756 -0.848625 3.91641 -3.411068 3.173828 -4.322266 -0.09705 -0.119088 -0.1848 -0.789691 -0.263671 -1.74414 z" fill="#FFFFFF" stroke-width="0.27280226"/>
  <path d="m 16.863281 0.42382812 a 4.7980998 1.5308203 0 0 0 -4.798828 1.53124998 4.7980998 1.5308203 0 0 0 0.0059 0.039063 c -0.04767 0.2853579 0.126008 0.7180355 0.181641 1.0722656 l 0.75 0.2558594 -0.779297 8.5996099 -0.517578 0.05273 v 3.777344 l 7.398438 1.662108 0.0293 -4.033203 -0.701171 -0.371093 -0.625 -8.6191405 0.576171 -0.064453 0.708985 -0.080078 2.339844 -1.1132813 0.203125 -1.03125 -0.0039 0.00195 a 4.7980998 1.5308203 0 0 0 0.0293 -0.1484375 4.7980998 1.5308203 0 0 0 -4.796875 -1.53124998 z m 0 0.41601563 A 3.4967701 1.1156348 0 0 1 20.359375 1.9550781 3.4967701 1.1156348 0 0 1 16.863281 3.0703125 3.4967701 1.1156348 0 0 1 13.365234 1.9550781 3.4967701 1.1156348 0 0 1 16.863281 0.83984375 Z" fill="#FFFFFF" stroke-width="0.20865692"/>
  <path d="m 705.41814 561.8915 c 5.14817 -21.86831 10.81983 -48.78518 13.526 -62.33116 0.068 -2.14034 0.48496 -4.27162 1.24508 -6.3634 0.25005 -1.34746 0.39556 -2.20196 0.39556 -2.37613 0.0109 0.37352 0.0478 0.73743 0.0823 1.10171 6.19871 -14.5393 28.05501 -24.71636 53.10846 -24.72905 25.3913 0.0181 47.44496 10.46866 53.31286 25.26531 -0.0527 -0.38221 -0.0792 -0.49041 -0.12215 -0.72728 0.0506 0.22817 0.19611 0.76027 0.28141 1.10425 0.4187 1.10786 0.74128 2.22788 0.96631 3.35568 2.33343 7.56152 10.75771 39.00865 18.60192 64.99907 -26.03085 -33.92202 -115.94441 -40.14026 -141.3978 0.701 z m 121.54816 -70.16 c -0.2041 -0.92229 -0.13429 -0.73924 0 0 z m -106.38152 -0.91069 c 1.4e-4 -0.4181 0.0248 -0.83493 0.0716 -1.25303 -0.0468 0.4152 -0.0716 0.83312 -0.0716 1.25303 z" fill="#FFFFFF" stroke-width="3.15628076"/>
  <path d="m 701.5049 668.296 c -14.4316 -4.57446 -34.95754 -14.57573 -35.57047 -27.94808 0.0163 -10.14661 10.4889 -19.90068 29.24217 -27.23512 -6.49648 4.72761 -9.88814 9.96574 -9.89427 15.28072 0.0304 7.02726 5.97562 13.87237 16.99311 19.56558 z" fill="#FFFFFF" stroke-width="1.00021672"/>
  <path d="m 844.14694 676.23032 1.57163 -20.2664 a 89.519508 33.469708 0 0 0 17.87184 -20.00905 89.519508 33.469708 0 0 0 -3.21226 -8.73682 105.5061 39.446802 0 0 1 15.8383 20.69121 105.5061 39.446802 0 0 1 -32.06951 28.32106 z" fill="#FFFFFF" stroke-width="1.00021672"/>
  <path d="m 674.32427 620.08695 c 33.79429 -47.7643 175.63778 -42.10897 202.83658 8.69314 0 0 -5.68514 -78.45424 -95.62296 -83.06641 -94.55698 -4.84903 -107.21362 74.37327 -107.21362 74.37327 z" fill="#FFFFFF" stroke-width="3.15628076"/>
</svg>