<?xml version="1.0" encoding="UTF-8"?>
<svg xmlns="http://www.w3.org/2000/svg" width="32" height="32" viewBox="0 0 32 32">
  <title>ScanAbutmentScan.Parameter</title>
  <path d="M14.240895,22.429804 L14.241018,22.575855 C14.242234,23.458914 14.244144,24.332434 14.243078,25.118982 L14.24206,25.576626 10.363273,30.636496 10.03136,30.770598 C9.2346278,31.071444 8.4074822,31.276939 7.5865598,31.336893 L7.4052473,31.346893 z M10.31066,18.015022 L1.7337149,29.203629 1.7231795,29.194983 C1.2605638,28.800442 0.83888655,28.382797 0.45433296,27.970455 0.43972914,27.954796 0.42598958,27.870068 0.41306816,27.72716 L0.41028361,27.693457 7.6031385,18.310394 7.7510872,18.307711 C8.5969553,18.279112 9.4280272,18.185097 10.212385,18.03541 z M3.2073489,17.763516 L3.2257281,17.769476 C3.8623045,17.960251 4.5261803,18.097935 5.2010141,18.187515 L5.2881103,18.197504 0.30814137,24.693863 0.30785524,24.679697 C0.29208307,23.85434 0.27896036,22.944327 0.26811974,22.036762 L0.2631589,21.604204 z M14.371,16.342867 C14.297511,16.614977 14.264339,17.659025 14.250073,19.023411 L14.247753,19.288023 5.1896921,31.104242 5.020649,31.057695 C4.5394283,30.916329 4.0855275,30.730007 3.6573363,30.510714 L3.2882479,30.308582 13.590386,16.869467 13.807714,16.742792 C14.012823,16.615378 14.201266,16.481861 14.371,16.342867 z M0.22210437,16.253399 C0.46759425,16.449335 0.72705846,16.629814 0.99845396,16.795464 L1.3805933,17.013676 0.23520938,18.507828 0.2349971,18.478378 C0.22568767,17.164381 0.22210461,16.253399 0.22210437,16.253399 z M5.8556338,14.308833 L5.8823915,14.313726 C6.6423402,14.439796 7.4057665,14.476215 8.1725893,14.41725 L8.1870194,14.415884 6.540916,16.563221 6.4920998,16.561583 C5.7720261,16.529312 5.0835844,16.449822 4.442925,16.33024 L4.3242212,16.306557 z M2.0870929,12.948208 L2.3258479,13.077479 C2.7537458,13.302438 3.1828208,13.501064 3.6130577,13.672289 L3.867554,13.769442 2.3614793,15.734113 2.1734081,15.654984 C1.6081242,15.405523 1.1371869,15.114428 0.786242,14.793015 L0.72141342,14.729734 z M12.837175,11.482605 L12.837461,11.482758 C13.537045,11.875491 14.030476,12.343011 14.24389,12.853922 L14.251356,12.874394 12.047919,15.748772 12.022866,15.759313 C11.262088,16.064455 10.351405,16.298102 9.3453255,16.436194 L9.0073977,16.478542 11.128309,13.711818 11.147014,13.704599 C11.590114,13.525334 12.03429,13.312514 12.479528,13.065074 L12.641609,12.973343 12.641609,11.737721 z M4.4131599,9.9138585 L4.4224172,9.9336101 C4.6970511,10.483383 5.1192441,10.951666 5.6394377,11.290654 L5.7264786,11.344479 4.897574,12.425783 4.6850043,12.357526 C4.1382232,12.167534 3.6227546,11.915897 3.147944,11.611484 L3.1241208,11.595408 z M7.5331984,6.3098026 C8.1197405,6.3098031 8.6507521,6.5469314 9.0351296,6.9303156 L9.0759449,6.9751078 6.5303421,10.29584 6.5207482,10.29123 C5.9188209,9.9650899 5.4926301,9.3571788 5.4201155,8.6449767 L5.4179931,8.6030561 7.1479545,6.3463255 7.3160258,6.3207413 C7.3874298,6.3135081 7.4598799,6.3098031 7.5331984,6.3098026 z M4.1568366,3.8772794 L4.2915745,3.912952 C4.8624521,4.0508472 5.4828029,4.1485668 6.1364747,4.1983911 L6.3822184,4.2123891 1.675491,10.352305 1.6304231,10.30293 C1.1938982,9.8009664 0.83207201,9.23833 0.56109505,8.6303502 L0.54427253,8.589861 z M13.901576,3.8129202 L13.966877,4.0024196 C14.170395,4.6318313 14.279929,5.3002621 14.279929,5.9929191 14.279929,6.109861 14.276808,6.2261115 14.270639,6.3415986 L14.25827,6.4959494 9.8332844,12.268334 9.5949145,12.357526 C8.8294182,12.623514 8.0025492,12.768677 7.1399541,12.768677 L7.0381575,12.766235 7.7220598,11.874086 7.8104101,11.87193 C9.6890994,11.780072 11.183081,10.281672 11.183081,8.4466916 11.183081,8.1507274 11.144216,7.8635183 11.071139,7.5895549 L11.0532,7.5286203 z M12.017221,3.138219 L9.9414711,5.8460308 9.8891545,5.8001667 C9.4062348,5.415742 8.8163052,5.1519214 8.1689253,5.0565072 L8.1394692,5.0528971 8.8533774,4.1216045 9.0969429,4.0886975 C10.175496,3.9210661 11.127266,3.6185757 11.865687,3.2225934 z M5.3981696,2.257963 L5.5117984,2.2955228 C5.9709282,2.4333294 6.5595427,2.5161115 7.2013154,2.5161112 7.292996,2.5161115 7.3835917,2.514422 7.4728799,2.5111238 L7.69586,2.4987467 7.2352705,3.0995849 7.2013154,3.1002086 C6.4657312,3.1002084 5.7736698,3.0324346 5.1697627,2.9131199 L4.9356022,2.8613814 z M1.1900095,2.2460376 C1.4403844,2.572889 1.8044821,2.8733147 2.2593043,3.1363245 L2.3041342,3.161286 0.004483126,6.1611754 0,5.9929191 C4.4264311E-08,4.6076051 0.43813457,3.3191949 1.1900095,2.2460376 z M11.220346,1.0338998 L11.27175,1.089152 C11.396279,1.2347669 11.463365,1.3895864 11.463365,1.5501042 11.463365,2.0316609 10.859598,2.4619289 9.9123679,2.7462405 L9.9064732,2.7478436 z M4.4453106,0.3681265 L3.1610218,2.0434784 3.1308604,2.0110584 C3.0063305,1.8654433 2.9392453,1.7106231 2.9392453,1.5501042 2.9392453,1.0953038 3.4777904,0.68624829 4.3355985,0.40269033 z M7.2013154,0 C7.936893,1.0313937E-07 8.6289502,0.067774436 9.2328539,0.18708996 L9.433878,0.23150691 8.9735299,0.83202891 8.8908158,0.80468772 C8.4316884,0.66688035 7.8430791,0.58409707 7.2013154,0.58409731 7.1096335,0.58409707 7.0190368,0.58578651 6.9297472,0.58908479 L6.6662856,0.60370873 7.1280442,0.0013456736 z" fill="#FFFFFF" stroke-width="1"/>
  <path d="M1.0266773,21.457341 C6.834386,25.596052 17.931778,24.511396 21.947281,21.575453 21.560928,22.852728 21.928208,37.013327 21.626023,37.259115 19.125204,39.293166 15.05454,41.395242 11.189032,41.394105 6.7971285,41.392813 3.6444588,39.103371 1.3700511,36.92591 1.0936534,36.661292 1.0266773,21.457341 1.0266773,21.457341 z M3.4484558,14.981224 L3.4484558,16.926971 3.6630859,17.035332 C8.7176514,19.549568 13.883911,19.861511 19.150543,17.248192 L19.390198,17.12709 19.390198,15.020332 C20.974091,15.747871 21.934082,16.692268 21.934082,17.725975 21.934082,20.023315 17.207489,21.885674 11.376923,21.885674 5.5463562,21.885674 0.81976318,20.023315 0.81976318,17.725975 0.81976318,16.673866 1.8137207,15.713768 3.4484558,14.981224 z M11.836884,8.3300476 C13.571411,8.3300476 14.977509,9.5822525 14.977509,11.126923 14.977509,12.6716 13.571411,13.923798 11.836884,13.923798 10.102356,13.923798 8.6962585,12.6716 8.6962585,11.126923 8.6962585,9.5822525 10.102356,8.3300476 11.836884,8.3300476 z M11.976227,6.6233063 C9.0726318,6.6233063 6.7188416,8.6504745 6.7188416,11.151115 6.7188416,13.651756 9.0726318,15.678925 11.976227,15.678925 14.879791,15.678925 17.233612,13.651756 17.233612,11.151115 17.233612,8.6504745 14.879791,6.6233063 11.976227,6.6233063 z M2.4578247,2.9651642 C3.7741089,4.4993896 7.216156,5.5925827 11.255432,5.5925827 15.294739,5.5925827 18.736786,4.4993896 20.05307,2.9651642 21.164795,4.3819199 21.812622,6.0828476 21.812622,7.911705 21.812622,12.851997 17.085999,16.856895 11.255432,16.856895 5.4248962,16.856895 0.69827271,12.851997 0.69827271,7.911705 0.69827271,6.0828476 1.3460999,4.3819199 2.4578247,2.9651642 z M11.346161,0.77111053 C9.1771851,0.77111053 7.4188538,1.3420868 7.4188538,2.0464096 7.4188538,2.7507401 9.1771851,3.3217087 11.346161,3.3217087 13.515106,3.3217087 15.273438,2.7507401 15.273438,2.0464096 15.273438,1.3420868 13.515106,0.77111053 11.346161,0.77111053 z M11.346161,0 C14.826569,0 17.648041,0.91621399 17.648041,2.0464096 17.648041,3.1766129 14.826569,4.0928192 11.346161,4.0928192 7.8657227,4.0928192 5.0442505,3.1766129 5.0442505,2.0464096 5.0442505,0.91621399 7.8657227,0 11.346161,0 z" fill="#FFFFFF" stroke-width="1"/>
</svg>