<?xml version="1.0" encoding="UTF-8"?>
<svg xmlns="http://www.w3.org/2000/svg" width="32" height="32" viewBox="0 0 32 32">
  <title>ScanAbutmentScan.MainScan.Parameter</title>
  <path d="M0.60617065,21.478477 C6.4138794,25.617188 17.789795,24.554588 21.805298,21.618645 21.418945,22.89592 21.6427,37.045029 21.340515,37.290817 18.839696,39.324868 15.05454,41.395242 11.189032,41.394105 6.7971285,41.392813 3.2239522,39.124507 0.9495445,36.947046 0.67314679,36.682428 0.60617065,21.478477 0.60617065,21.478477 z M3.4484558,14.981224 L3.4484558,16.926971 3.6630859,17.035332 C8.7176514,19.549568 13.883911,19.861511 19.150543,17.248192 L19.390198,17.12709 19.390198,15.020332 C20.974091,15.747871 21.934082,16.692268 21.934082,17.725975 21.934082,20.023315 17.207489,21.885674 11.376923,21.885674 5.5463562,21.885674 0.81976318,20.023315 0.81976318,17.725975 0.81976318,16.673866 1.8137207,15.713768 3.4484558,14.981224 z M11.836884,8.3300476 C13.571411,8.3300476 14.977509,9.5822525 14.977509,11.126923 14.977509,12.6716 13.571411,13.923798 11.836884,13.923798 10.102356,13.923798 8.6962585,12.6716 8.6962585,11.126923 8.6962585,9.5822525 10.102356,8.3300476 11.836884,8.3300476 z M11.976227,6.6233063 C9.0726318,6.6233063 6.7188416,8.6504745 6.7188416,11.151115 6.7188416,13.651756 9.0726318,15.678925 11.976227,15.678925 14.879791,15.678925 17.233612,13.651756 17.233612,11.151115 17.233612,8.6504745 14.879791,6.6233063 11.976227,6.6233063 z M2.4578247,2.9651642 C3.7741089,4.4993896 7.216156,5.5925827 11.255432,5.5925827 15.294739,5.5925827 18.736786,4.4993896 20.05307,2.9651642 21.164795,4.3819199 21.812622,6.0828476 21.812622,7.911705 21.812622,12.851997 17.085999,16.856895 11.255432,16.856895 5.4248962,16.856895 0.69827271,12.851997 0.69827271,7.911705 0.69827271,6.0828476 1.3460999,4.3819199 2.4578247,2.9651642 z M11.346161,0.77111053 C9.1771851,0.77111053 7.4188538,1.3420868 7.4188538,2.0464096 7.4188538,2.7507401 9.1771851,3.3217087 11.346161,3.3217087 13.515106,3.3217087 15.273438,2.7507401 15.273438,2.0464096 15.273438,1.3420868 13.515106,0.77111053 11.346161,0.77111053 z M11.346161,0 C14.826569,0 17.648041,0.91621399 17.648041,2.0464096 17.648041,3.1766129 14.826569,4.0928192 11.346161,4.0928192 7.8657227,4.0928192 5.0442505,3.1766129 5.0442505,2.0464096 5.0442505,0.91621399 7.8657227,0 11.346161,0 z" fill="White" stroke-width="1"/>
  <path d="M1.5413723,8.6040827E-05 C2.0715003,0.013428103 2.1999893,0.40525752 2.6469996,0.87956488 2.9681172,1.2124081 3.9771516,1.3580915 3.8115208,1.3898427 3.3347196,1.674432 2.1253309,1.1885428 2.1253309,1.1885428 2.1253309,1.1885428 3.4314649,1.8365914 3.2900576,1.9521961 3.1486499,2.0678008 1.2798539,2.4360983 1.4189237,2.4993515 1.557979,2.5626047 2.701246,2.8142686 3.3223436,2.3824265 3.4255244,2.2824883 3.6912803,1.9596978 4.013895,1.5964426 L4.0181198,1.591713 4.0181198,7.7804837 3.9687938,7.7826304 C3.8775818,7.7858062 3.7805993,7.7868137 3.6773593,7.7853255 2.5761311,7.7694507 2.3208635,7.5530353 1.9669412,7.3210196 1.613019,7.089004 1.2677319,6.7492824 1.0924858,6.4024825 0.91723958,6.0556827 0.82643191,5.686235 0.69306824,5.2941389 0.5597044,4.9020429 -0.016348702,3.3082261 0.00035602316,2.4377906 0.017811649,1.5282254 1.0112446,-0.01325605 1.5413723,8.6040827E-05 z" fill="White"/>
  <path d="M0,1.031146 L0.030820847,1.0458408 C0.44459057,1.2439328 1.1642632,1.6079731 1.0510647,1.6924298 0.98216105,1.7438383 0.54501224,1.844409 0.087991714,1.9466691 L0,1.9663217 z M0,0.24347356 L0.015441179,0.26100615 C0.10809469,0.36635205 0.21038795,0.48163864 0.33485341,0.60216483 0.69250059,0.94047984 1.8163214,1.0885583 1.6318488,1.1208315 1.2501628,1.3287427 0.44696832,1.1320802 0.025363207,1.0050114 L0,0.99725243 z M3.6364455,0.00020948052 C4.2853656,0.023231357 5.6717043,1.1078804 5.631896,2.1827199 5.5920877,3.2575593 5.5297651,3.3220145 5.3131862,3.9843781 5.1099377,4.6059725 4.6820197,5.6019737 4.4634376,6.044687 4.2448559,6.4873993 3.741642,7.0519974 3.442039,7.2085302 3.1424365,7.3650629 2.7089272,7.6375901 1.4824252,7.6214544 0.71586132,7.6113698 0.31734252,7.521661 0.03001523,7.3982217 L0,7.384907 0,2.3809745 0.069985867,2.3801346 C0.42899251,2.3717134 0.80599904,2.3080532 1.0870235,2.1297331 1.3934731,1.85885 2.9875259,-0.022812396 3.6364455,0.00020948052 z" fill="White"/>
  <path d="M15.2077,3.4625442 C15.515948,3.8133095 15.739162,3.9408606 16.111186,4.1640749 16.48321,4.3872892 17.187272,4.6238169 17.524877,4.759313 17.939523,4.9257302 18.584776,5.0775496 18.487356,5.124128 18.310614,5.2086317 16.756517,4.8180434 16.756517,4.8180434 16.756517,4.8180434 15.639355,4.4845158 15.445529,4.2424657 15.251707,4.0004164 14.899452,3.1117789 15.2077,3.4625442 z M6.1694479,4.403918 C6.1694479,4.403918 6.6608834,4.7473795 6.9985514,4.8829543 7.4132752,5.0494677 7.9744868,5.3163039 7.877048,5.362909 7.700273,5.4474618 6.0559144,4.8576333 6.0559144,4.8576333 6.0559144,4.8576333 5.3767953,4.4995524 5.1829343,4.2573621 4.9890757,4.0151722 6.1694479,4.403918 6.1694479,4.403918 z M3.8662885,3.1980225 C3.9505261,3.2063598 4.0469346,3.2035182 3.9752383,3.5316343 3.8961229,3.8936939 3.8637112,3.9522031 3.6882485,4.1693895 3.5127867,4.386575 2.7103574,4.6795932 2.7103574,4.6795936 2.7103574,4.6795932 1.0851865,4.9187288 1.4605525,4.7694067 1.7661739,4.647829 2.3645862,4.4213617 2.4977291,4.3597396 2.7943934,4.2224348 3.1826631,3.9558422 3.3586985,3.7007259 3.534732,3.4456095 3.8575729,3.1971599 3.8662885,3.1980225 z M14.07694,4.43425 C13.883032,4.6764495 13.212478,5.0246073 13.212478,5.0246078 13.212478,5.0246073 11.303177,5.4964992 11.12636,5.4119436 11.028893,5.3653366 11.562833,5.2721431 11.977661,5.1056234 12.315413,4.9700433 12.61631,4.7914416 12.763451,4.7227222 13.091303,4.5696041 14.270849,4.1920497 14.07694,4.43425 z M14.172212,2.853378 C14.172212,2.8533777 13.55664,3.1517619 12.883322,3.8840567 12.365845,4.4468581 11.06221,5.1033837 9.5933666,5.0617687 8.122366,5.0965935 6.7366576,4.2698695 6.3277082,3.9031824 5.918757,3.5364939 5.9947961,3.5689886 4.9185844,2.9590817 3.8423726,2.3491749 2.891199,3.0965775 2.9585154,3.2294282 2.7253134,3.3617849 2.3256681,4.2868196 0.30448702,4.4386164 0.2413251,4.44336 0.17908245,4.4467255 0.117762,4.448795 L0,4.4503547 0,10.779905 0.5091427,10.802625 C4.251122,10.958738 8.7325764,10.957037 10.500272,10.913987 12.366174,10.868547 16.729012,10.877857 20.3403,10.806104 L20.400089,10.106509 20.431,4.4343335 20.328074,4.4475576 C20.125137,4.4697711 19.897057,4.4614279 19.674644,4.459037 18.488434,4.4462826 16.919847,4.1270291 16.432058,3.7242896 15.266161,2.7616779 15.44573,3.0012939 14.980036,2.7470844 14.514341,2.4928748 14.172212,2.853378 14.172212,2.853378 z" fill="White"/>
</svg>