<?xml version="1.0" encoding="UTF-8"?>
<svg xmlns="http://www.w3.org/2000/svg" width="32" height="32" viewBox="0 0 32 32">
  <title>SecondaryTelescope.WorkType</title>
  <path d="M21.958901,0.00033238362 C25.602479,0.044195144 28.164989,4.4269534 34.5713,11.439367 39.173507,16.360389 53.601386,18.605828 51.227752,19.075049 44.394328,23.282611 28.734452,14.867771 28.734452,14.867771 28.734452,14.867771 38.557475,21.724439 35.425529,23.594245 32.293513,25.464194 21.758678,25.464194 23.751765,26.39924 25.744853,27.334285 42.307784,31.156302 51.209254,24.771689 55.480128,21.031791 67.03004,1.1544372 72.724544,1.4660716 78.41904,1.7779894 94.363681,17.984399&#xD;&#xA;96.641467,30.139278 98.479655,39.948192 91.840839,74.752425 90.614535,79.536956 89.950519,82.127868 90.164722,81.205001 89.357448,84.397094 88.489642,87.828475 87.108958,93.930762 85.923335,96.827933 85.214801,96.648948 84.513316,96.474448 83.818812,96.304359 L83.33649,96.188117 83.334582,95.981544 C83.263103,88.300429 82.894092,52.92884 82.121722,48.212413 81.109378,42.030669 76.879611,39.14014 74.269702,37.815471 72.964809,37.153174 28.926591,37.472598 25.61781,39.005218 23.301942,40.077926 19.448955,42.530372 19.403993,48.432776 19.350722,55.426162 19.217784,86.774886 19.185382,94.502799 L19.185218,94.54174 19.016484,94.609496 C18.143905,94.964202 17.367021,95.304938 16.669471,95.613532 16.669471,95.613532 13.58357,90.048003 12.41774,86.518645 10.619,81.073325 10.210124,81.863387 8.9460517,76.265288 6.4404808,65.169349 -1.2493059,39.967589 0.17431912,33.422698 1.5979439,26.877805 11.22384,5.5178867 17.772567,1.4660716 19.409732,0.45318885 20.744376,-0.014289447 21.958901,0.00033238362 z" fill="#FFFFFF" stroke-width="1"/>
  <path d="F1 M3.9010276,1.629085 C3.2488607,1.9266842 2.1638291,2.6070613 2.1511678,4.2445551 2.1340231,6.4618817 2.0875758,17.504492 2.0875758,17.504492 2.0875758,17.504492 0.24193034,18.223586 -0.011711376,19.324668 -0.59151962,21.841667 4.8989149,19.653029 7.1282906,19.653029 9.4266769,19.653029 11.618477,19.519045 15.734092,20.49206 20.760559,21.68042 22.74713,21.104024 22.50215,19.817844 22.25717,18.531684 21.022044,18.303393 21.022044,18.303393 L20.158205,17.843455 C20.158205,17.843455 20.057191,5.6525773 19.812972,4.1834198 19.527888,2.4684302 18.336753,1.6665156 17.601783,1.2990156 17.234313,1.1152756 4.8328059,1.2038926 3.9010276,1.629085 z" fill="White" stroke-width="1"/>
</svg>