<?xml version="1.0" encoding="UTF-8"?>
<svg xmlns="http://www.w3.org/2000/svg" width="32" height="32" viewBox="0 0 32 32">
  <title>SeparateGingivaScan.Parameter</title>
  <path d="M5.7922496,1.516 C5.3172492,1.7906875 5.4256743,1.8516599 5.1922497,2.116 L4.3922497,3.7909999 3.7648603,5.9431846 C3.6148605,6.5765631 3.2953761,7.4693468 3.4297498,7.9503749 3.5641227,8.4314025 3.9332664,9.0414088 4.1297497,9.3253748 4.3262333,9.6093409 5.1672455,10.212875 5.9297496,10.525375 6.6922537,10.837876 8.1742043,11.380908 9.4117112,11.455645 12.372617,11.634465 13.607603,10.581443 14.823632,10.053855 L17.861265,8.7538767 C19.122265,8.2399836 19.968374,7.8163014 21.55168,6.71625 23.134983,5.6161986 22.974817,5.8280974 23.752581,5.1947346 24.385914,4.7613698 24.22891,4.9241734 24.545373,4.4659999 24.861839,4.0078266 25.114128,3.9143795 24.997463,3.5746514 24.880797,3.234924 24.030798,4.0747494 23.547466,4.3247983 L21.911261,5.4027181 C21.011261,5.9692221 20.710964,6.3646064 19.827633,6.7579179 18.9443,7.1512299 17.727686,7.9077526 16.761021,8.2912999 L13.327748,9.8580151 C12.361039,10.121049 12.008755,10.579807 10.346284,10.704813 10.346284,10.704813 8.5547494,10.775375 7.2422495,10.275375 5.9297496,9.7753748 5.0860263,9.1449252 4.7359997,8.8909998 4.3859731,8.6370755 4.2141345,8.0511672 4.1359997,7.5576665 4.057865,7.0641658 4.3266263,6.2597509 4.4641247,5.7347499 4.6016231,5.2097488 4.8180716,4.4639791 5.1963346,3.676313 5.4189313,3.1374587 5.7016246,2.7972499 5.8641246,2.05975 6.0266246,1.32225 5.8516244,1.4816642&#xD;&#xA;5.7922496,1.516 z M5.5338616,0.0002446529 C5.616909,-0.0016899757 5.697473,0.0078753014 5.7762771,0.028010966 6.1965775,0.13637466 6.6578107,0.27286356 7.025043,0.53331583 7.7463417,1.0428148 7.9471283,1.976681 8.0880938,2.7428203 8.2268,3.5082267 8.1778088,4.4294596 8.0880938,5.3271466 7.9984221,6.2246428 7.8735599,7.1097971 7.9220395,7.9151831 7.9705143,8.7205115 8.0505657,8.9509306 8.6925363,9.3021679 9.1321306,9.5430985 9.475935,9.6391783 9.8857717,9.6391783 10.139289,9.6311789 10.503079,9.5962382&#xD;&#xA;10.766726,9.539959 11.199587,9.4058524 11.824297,9.3086758 12.536752,8.9304286 14.821871,8.0000248 17.353806,6.3208352 18.79147,5.8228589 21.275856,4.7432666 22.476295,3.415222 24.543583,2.2452622 24.863777,2.063263 26.593525,1.6254418 27.029049,2.0633259 28.106234,3.039006 28.258865,2.8984671 29.072515,3.4069043 29.767487,3.8411816 30.493132,4.0311981 30.714706,4.3787427 30.936281,4.7262917 31.362225,5.3568907 31.272856,6.4305635 31.183479,7.5042348&#xD;&#xA;31.286776,8.2216616 31.061819,8.9714175 30.422464,11.102314 29.821133,12.373758 28.236969,13.443997 26.777914,14.429647 24.542995,15.023415 22.414339,15.304266 20.284725,15.584359 18.267675,15.5912 17.081837,15.66815 16.166227,15.727218 15.01531,16.397627 13.744672,17.071703 12.466491,17.74968 11.109413,18.485092 10.27627,18.750029 9.1322689,19.113867 8.6505184,19.068863 7.9863219,18.842859 7.3287878,18.619213 6.5072346,18.167524 5.1071463,17.844032&#xD;&#xA;4.0245123,17.593866 2.7578804,17.791714 1.8644626,17.663132 0.97104477,17.53455 0.14537528,16.654215 0.14537537,16.654215 0.14537528,16.654215 0.14720873,16.289349 0.23263594,15.757266 0.2342859,15.727615 0.2342859,15.697816 0.23263594,15.668165 0.23368591,15.653656 0.2315859,15.638045 0.23263594,15.623606 L0.23263594,15.579045 C0.25976005,15.150003 0.15871776,14.71832 0.0371198,14.309165 0.019637305,14.249661 0.022714514,14.185288 0.0023015388,14.127228 0.000203467,14.114167 0.0075264819,14.102978 0.0023015388,14.082667 -0.00082553506,14.075427 0.0085814846,14.034397 0.0023015388,14.034397 -0.0029235395,14.012637 0.0023954012,13.99013 0.0023015388,13.989838 0.26403295,12.956014 0.37656959,11.822312 0.20049589,10.633187 -0.06255894,8.8564063 0.2298388,7.1359211 0.95309859,5.4645401 1.6763177,3.7930809 2.8360226,2.1854835&#xD;&#xA;4.255446,0.74888902 4.7674756,0.23295861 5.1739879,0.0086288867 5.5338616,0.0002446529 z" fill="White"/>
</svg>