<?xml version="1.0" encoding="UTF-8"?>
<svg xmlns="http://www.w3.org/2000/svg" width="32" height="32" viewBox="0 0 32 32">
  <title>SeparateWaxupScan.false.Parameter</title>
  <path d="M14.674255,23.930786 C14.05719,24.133057 13.399292,24.325623 12.628906,24.456177 13.261169,24.318237 13.937561,24.143127 14.674255,23.930786 z M7.2639771,0 C8.4654541,0.011779785 9.3051147,1.1852417 11.417542,3.0626221 12.935059,4.3800659 17.691101,4.9937744 16.908386,5.1193848 14.65509,6.2458496 9.4981079,3.9934692 9.4981079,3.9934692 9.4981079,3.9934692 12.733459,5.8198242 11.700745,6.3204346 10.667969,6.8210449 7.1889038,6.8207397 7.8461304,7.0710449 8.5032959,7.3214111 13.973206,8.3449707 16.908386,6.6356812 18.316711,5.6344604 20.914069,0.32569258 22.791754,0.4090666 23.554571,0.44294111 21.831489,2.3565636&#xD;&#xA;21.831489,2.3565636 L27.849148,7.7644057 29.904451,4.4860067 C29.904451,4.4860067 31.604675,6.8566284 31.886292,8.0769043 32.492432,10.703003 30.510742,19.482483 29.825256,20.957886 29.515991,21.623901 29.809509,22.684387 29.809509,22.684387 28.618713,21.480591 28.154236,17.496704 25.841675,15.338013 23.576111,12.69574 20.787292,10.807007 15.517761,11.584778 11.124695,12.233154 7.6224365,14.712524 7.6224365,18.075378 7.6224365,20.977966 7.3778687,22.73468 5.1143188,24.259033 5.1465454,24.116638 5.6517944,23.774231&#xD;&#xA;5.6906128,23.360229 5.7844849,22.359009 4.4709473,23.171143 2.968811,20.417664 1.4666138,17.664307 -0.39556885,10.700073 0.073913574,8.947937 0.54333496,7.1957397 3.7200317,1.4903564 5.8793945,0.40563965 6.4192505,0.13446045 6.8634644,-0.0037231445 7.263916,0.00024414063 z" fill="#FFFFFF" stroke-width="2"/>
</svg>