<?xml version="1.0" encoding="UTF-8"?>
<svg xmlns="http://www.w3.org/2000/svg" width="32" height="32" viewBox="0 0 32 32">
  <title>ThimbleCrownDesignMode.Wizard.Parameter</title>
  <path d="M3.1534922,0.00011034227 C3.3157923,0.070987615 4.3303203,0.10674685 4.8289603,2.628628 5.3684525,5.3571198 6.4701814,5.397219 6.9965257,6.3637679 7.2900609,6.9027989 7.3323749,8.0444099 7.4024787,8.4122331 7.4725825,8.7800563 7.5720067,9.4335098 7.7793837,10.111384 L7.7912078,10.150036 7.7732182,10.146259 C7.6176643,10.11904 7.2380428,10.118293 6.9775248,10.108824 6.67979,10.098003 6.3612375,10.119324 5.8716545,9.9739933 5.382072,9.8286619 4.8715282,9.4341325 4.1392951,9.4179811 3.4070664,9.4018297 3.008039,9.7261867 2.5861642,9.9062824 2.1642895,10.086378 1.7471006,10.28953 1.5472544,10.360092 1.3576018,10.427056 0.91939986,10.504454 0.75918055,10.540604 0.59895659,10.576754 0.31696627,10.699512 0.18944891,10.757649 0.096396071,10.800075 0.03944247,10.861036&#xA;0.005752157,10.911393 L0,10.920506 0.0032065329,10.891174 C0.016168598,10.800794 0.03735142,10.717522 0.017715688,10.72454 0.01771577,10.72454 0.26298885,7.5228639 0.46444804,6.3141192 0.66590723,5.1053746 1.1820807,3.853324 1.3441696,3.3479594 1.5198556,2.8002017 2.6579388,0.028357615 3.1534922,0.00011034227 z" fill="#FFFFFF"/>
  <path d="M5.7150435,0.91489667 C6.5755991,1.8015497 7.457885,3.5604978 7.457885,3.560498 7.457885,3.5604978 8.2719205,5.3529238 10.05669,6.9652023 11.84146,8.5774808 12.836955,8.9045679 12.836955,8.9045679 12.836955,8.9045679 14.057091,9.5243939 14.367951,10.244148 14.678778,10.963912 15.165508,11.965576 15.165508,11.965576 15.165508,11.965576 15.944503,14.128086 15.944503,14.128086 16.152376,14.683658 16.722481,15.716552 16.722481,15.716552 16.722481,15.716552 17.252153,16.503385&#xA;17.177856,16.634098 17.103594,16.764801 16.604923,16.85679 15.970896,16.811008 15.336866,16.765226 13.962114,16.419718 13.962114,16.419718 13.962114,16.419718 12.519253,16.05995 12.519253,16.05995 12.519253,16.05995 11.199357,15.627951 11.199357,15.627951 11.199357,15.627951 10.777158,15.428614 10.143325,15.392898 9.50949,15.357182 9.1150618,15.423946 8.7316446,15.474836 8.3482266,15.525725 7.2590948,15.763783 6.4118912,16.019716 5.5646876,16.275649&#xA;5.2422409,16.421187 3.5725963,17.041461 1.8021535,17.699182 0.14876977,18.483286 0.026191771,18.361759 -0.096420046,18.240232 0.24996856,17.601423 0.27311054,17.112099 0.51948452,15.163095 1.1011987,13.35956 1.3475727,11.410547 L2.363857,4.2448348 C2.494724,3.3905908 2.6444702,2.4130439 2.7564921,1.6820937 2.8685479,0.95115209 4.854488,0.028243585 5.7150435,0.91489667 z" fill="#FFFFFF" stroke-width="8.10227203"/>
  <path d="M407.58333,100.77778 C407.58333,100.77778 407.55383,106.28454 407.72257,106.88867 407.89131,107.4928 408.18554,107.80386 408.61309,108.02742 409.04064,108.25098 409.42764,108.32177 410.4775,108.38829 411.52736,108.45481 412.50136,108.3947 414.06747,108.38829 415.63358,108.38188 416.60342,108.47501 418.06875,108.4472 419.55299,108.42868 421.93121,108.41593 422.52147,108.39165 423.11173,108.36737 424.48248,108.30327 424.98222,108.0732 425.48195,107.84313 425.88511,107.5346&#xA;425.94964,106.94383 426.01417,106.35306 426.19269,103.63882 426.03489,101.93523 425.91431,100.67605 425.89539,98.283971 425.67314,98.157694 425.4509,98.031417 424.4081,98.033192 423.72317,97.999513 423.03824,97.965834 422.30542,98.032191 421.17915,97.579878 420.05288,97.127565 418.87839,95.899672 417.19391,95.849404 415.50944,95.799136 414.59149,96.808631 413.62098,97.369142 412.65047,97.929653 411.69074,98.561923 411.231,98.781535 410.79471,98.989946&#xA;409.78664,99.230831 409.41806,99.34334 409.04947,99.455849 408.40076,99.837911 408.10741,100.01885 407.67928,100.28293 407.58333,100.77778 407.58333,100.77778 z" fill="#FFFFFF" stroke-width="8.10227203"/>
</svg>