<?xml version="1.0" encoding="UTF-8"?>
<svg xmlns="http://www.w3.org/2000/svg" width="32" height="32" viewBox="0 0 32 32">
  <title>ThimbleCrownDesignMode.ExpertMode.Parameter</title>
  <path d="M3.153813,0 C3.3161295,0.070874706 4.3307606,0.10663265 4.8294517,2.6284225 5.3689986,5.3568158 6.4708396,5.3969135 6.9972373,6.3634276 7.2908026,6.9024391 7.3331209,8.0440083 7.4032317,8.4118185 7.4119955,8.4577942 7.2947474,8.5354996 7.2947474,8.5354996 L4.4909097,9.4555025 4.4043308,9.4400969 C4.3193289,9.4274797 4.2312547,9.419549 4.1397162,9.4175301 3.4074129,9.4013796 3.008345,9.7257242 2.5864273,9.9058132 2.1645096,10.085903 1.7472783,10.289047 1.5474119,10.359607 1.3577399,10.426569 0.91949341,10.503963 0.75925782,10.540112 0.59901759,10.576261 0.31699857,10.699014 0.18946822,10.75715 0.096405969,10.799574 0.039446571,10.860533 0.0057529381,10.910888 L0,10.92 0.0032070254,10.89067 C0.016170333,10.800293 0.037355308,10.717024 0.017717643,10.724041 0.017717662,10.724041 0.26301566,7.5224814 0.46449539,6.3137808 0.66597501,5.1050797 1.182201,3.8530741 1.3443064,3.347728 1.5200102,2.7999899 2.6582092,0.028246252 3.153813,0 z" fill="#FFFFFF"/>
  <path d="M3.3716756,0.00038243308 C3.6204668,0.0069413318 3.8535606,0.098361314 4.0239753,0.31296236 4.6298946,1.0759884 5.2511138,2.5896843 5.2511138,2.5896846 5.2511138,2.5896843 5.8242783,4.1321903 7.0809392,5.5196672 8.3375997,6.9071442 9.0385303,7.1886245 9.0385303,7.1886245 9.0385303,7.1886245 9.8976306,7.7220279 10.116508,8.341426 10.335361,8.9608327 10.67807,9.8228332 10.67807,9.8228332 10.67807,9.8228332 11.226561,11.683822 11.226561,11.683822 11.372926,12.161929 11.774338,13.050806&#xD;&#xA;11.774338,13.050806 11.774338,13.050806 11.787449,13.074612 11.80841,13.114037 L11.815147,13.126808 10.13927,13.746046 10.068885,13.726092 C9.9252852,13.684965 9.830757,13.655929 9.830757,13.655929 9.830757,13.655929 8.8148355,13.346324 8.8148355,13.346324 8.8148355,13.346324 7.8854932,12.974559 7.8854932,12.974559 7.8854932,12.974559 7.5882219,12.803016 7.1419386,12.77228 6.6956538,12.741543 6.4179362,12.798999 6.1479715,12.842794 5.8780059,12.886587 5.1111454,13.091453 4.5146274,13.3117 3.9181096,13.531947 3.691074,13.657193 2.5154735,14.190983 1.2689004,14.756996 0.10474904,15.431771&#xD;&#xA;0.018441748,15.32719 -0.067889677,15.222607 0.17600334,14.672868 0.19229764,14.25177 0.36577015,12.574519 0.77535643,11.022452 0.94882896,9.345193 L1.6643971,3.1786035 C1.7565409,2.4434677 1.8619776,1.6022213 1.9408523,0.97318838 1.9975609,0.52107612 2.7358767,-0.016378981 3.3716756,0.00038243308 z" fill="#FFFFFF" stroke-width="8.10227203"/>
  <path d="M12.512763,6.1629258 C12.512763,6.1629258 16.323747,7.4762156 19.578905,7.3136613 L19.966761,7.1444092 19.961453,7.1770587 C19.89131,7.5859385 19.453207,7.7994795 18.910105,7.9587107 18.367035,8.1179476 16.874456,8.0478505 16.233021,8.0646533 15.591553,8.0814608 12.227894,8.0317088 12.227894,8.0317088 12.227894,8.0317088 11.844594,8.4375281 12.464766,7.5319062 13.034505,6.6999311 12.512763,6.1629258 12.512763,6.1629258 z M7.4504792,0.3274197 L9.9121091,0.98236102 C9.9121081,0.98236126 9.5964502,1.3554797 9.4653009,2.0549417 9.3625501,2.6029396 9.4373281,2.649968 9.4673746,2.840942 8.787874,2.9824156 8.3076069,3.5952678 8.3076069,4.2423983 8.3076069,4.8394175 8.7386086,5.3396111 9.3388636,5.5257316 9.3305056,5.5796061 9.2870038,5.9473672 9.277799,5.9882751 9.1753381,6.4436536 8.1461271,7.506963 7.6564196,8.0680926 7.6564196,8.0680926 7.2160777,8.0910622 7.0033358,8.0916163 5.3013996,8.0960518 4.2429208,8.1376558&#xD;&#xA;3.1019951,8.0916163 1.9610697,8.0455757 1.5858586,8.0817556 1.1212235,7.9270277 0.65658897,7.7723007 0.33681673,7.5570068 0.1534501,7.1388812 -0.029916458,6.7207499 0.0021536265,2.9094279 0.0021538204,2.9094279 0.0021536265,2.9094279 0.10642286,2.5669336 0.5716877,2.3841622 0.89046514,2.2589312 1.5954432,1.9944975 1.9960042,1.9166269 2.3965653,1.8387566 3.4920555,1.6720374 3.9661751,1.5277915 4.4657987,1.3757944 5.5087894,0.93818903 6.563454,0.55025148 6.9589656,0.40477484&#xD;&#xA;7.4504792,0.3274197 7.4504792,0.3274197 z" fill="#FFFFFF" stroke-width="8.10227203"/>
  <path d="F1 M19.28125,7.375 L1.28125,13.28125 1.34375,14.4375 5.9375,15.8125 C5.9375,15.8125 4.7185818,17.126009 4.5,18.4375 4.3287505,19.464997 4.418674,20.235673 4.46875,20.59375 3.3362567,20.859012 2.5,21.849131 2.5,23.0625 2.5,24.181911 3.2183318,25.119774 4.21875,25.46875 4.20482,25.569766 4.2028403,25.735798 4.1875,25.8125 3.9689182,26.905409 1.8537742,30.041947 1.34375,30.40625 0.8337258,30.770553 0.625,30.96875 0.625,30.96875 L1.6152838,31.335081 C1.6152838,31.335081 2.6047834,31.20738 3.40625,29.96875 4.2077166,28.73012 5,26.59375 5,26.59375 5,26.59375 4.8430772,29.313341 3.96875,30.40625 3.0944228,31.499159 3.6089578,30.88423 3.6089578,30.88423 L5.1402078,31.22798 C5.1402078,31.22798 5.9376682,31.259351 6.15625,29.875 6.3034405,28.942793 6.217207,27.025073 6.125,25.40625 7.010931,25.002889 7.625,24.099428 7.625,23.0625 7.625,21.907121 6.8633457,20.944745 5.8125,20.625 5.801344,19.945116 5.864783,19.304313 6.09375,18.875 6.6766348,17.782091 6.4495426,16.926298 8.5625,15.90625 10.675457,14.886202 19.21875,11.75 19.21875,11.75 L19.34375,13.34375 10.03125,17.28125 19.34375,20.40625 36.145443,14.319235 36.207943,13.287985 19.28125,7.375 z M30.71875,18.53125 L19.5625,22.375 8.28125,18.65625 8.0625,20.6875 C9.3691674,21.746405 9.7333698,24.127516 8.5625,24.9375 10.460271,28.627518 27.902112,29.85682 30.65625,24.1875 L30.71875,18.53125 z" fill="White"/>
</svg>