<?xml version="1.0" encoding="UTF-8"?>
<svg xmlns="http://www.w3.org/2000/svg" width="32.000" height="32.000" viewBox="0 0 32.000 32.000">
  <title>ToothAlignmentEngineProductType.2.OrthoMoveableToothMode.MovableByDefault</title>
  <path d="F1 M 6.058,10.289 C 5.087,9.625 4.155,8.873 3.298,8.016 C 1.977,6.695 0.834,5.126 0.001,3.255 C -0.054,6.866 1.463,9.959 3.879,12.375 C 7.534,16.030 13.247,18.134 18.678,18.134 C 24.261,18.134 29.547,15.912 32.000,10.865 C 28.698,13.497 24.737,14.583 20.690,14.583 C 15.562,14.583 10.296,12.840 6.058,10.289 Z" fill="#ffffff"/>
  <path d="F1 M 4.067,6.157 C 4.849,6.865 6.057,7.906 7.045,8.522 C 11.691,11.044 16.318,12.520 21.153,12.520 C 24.382,12.520 27.245,11.691 29.748,10.484 C 29.748,9.200 29.789,8.279 29.500,7.116 C 29.267,6.183 28.918,5.263 28.226,4.371 C 27.450,3.368 26.822,2.464 25.277,1.615 C 24.563,1.222 23.066,1.033 21.666,1.457 C 19.455,2.124 17.092,5.169 16.766,5.404 C 16.440,5.639 15.226,6.341 12.174,6.193 C 9.122,6.046 8.843,5.614 8.843,5.614 C 8.843,5.614 12.354,5.005 12.349,4.813 C 12.343,4.621 10.655,3.175 10.655,3.175 C 11.659,3.533 12.161,3.778 13.223,3.948 C 14.271,4.082 15.360,4.108 16.416,4.040 C 14.611,3.457 13.918,3.329 12.781,2.871 C 9.968,0.815 9.135,0.440 7.996,0.470 C 6.705,0.395 3.960,1.968 2.846,4.957 C 3.166,5.307 3.706,5.830 4.067,6.157 Z" fill="#ffffff"/>
  <path d="F1 M 18.678,20.197 C 13.313,20.197 7.795,18.457 3.886,15.335 C 4.153,17.088 4.585,18.672 5.095,20.342 C 6.735,25.711 8.053,28.762 8.669,30.060 C 9.012,30.783 9.646,31.365 10.435,31.503 C 11.209,31.639 12.143,31.356 12.781,29.681 C 14.058,26.332 14.677,21.272 16.372,21.223 C 18.068,21.175 18.516,27.079 18.901,28.862 C 19.287,30.645 19.985,31.416 21.206,31.263 C 23.864,30.829 26.366,24.426 27.691,18.242 C 25.229,19.467 21.918,20.197 18.678,20.197 Z" fill="#ffffff"/>
  <path d="F1 M 32.000,32.000 L 0.000,32.000 L 0.000,0.000 L 32.000,0.000 L 32.000,32.000 Z" fill="currentColor"/>
  <rect x="0" y="0" width="0" height="0" fill="none"/>
</svg>