<?xml version="1.0" encoding="UTF-8"?>
<svg xmlns="http://www.w3.org/2000/svg" width="32.000" height="32.000" viewBox="0 0 32.000 32.000">
  <title>ToothAlignmentEngineProductType.3.OrthoMoveableToothMode.NotMoveableAtAll</title>
  <path d="F1 M 24.287,0.713 C 20.299,0.147 17.092,4.749 16.785,4.992 C 16.478,5.237 15.324,6.101 12.453,5.947 C 9.582,5.793 8.730,5.309 8.730,5.309 C 8.730,5.309 12.297,4.716 12.292,4.517 C 12.287,4.317 10.480,2.810 10.480,2.810 C 11.424,3.182 12.402,3.458 13.401,3.633 C 14.388,3.772 15.386,3.807 16.380,3.737 C 14.681,3.132 13.809,3.075 12.740,2.600 C 10.093,0.466 8.882,-0.029 7.811,0.002 C 6.305,-0.095 1.768,3.112 1.721,7.110 C 1.669,11.470 3.447,16.205 4.723,20.384 C 6.426,25.956 7.794,29.124 8.434,30.471 C 8.789,31.222 9.448,31.826 10.266,31.969 C 11.070,32.110 12.039,31.816 12.701,30.078 C 14.027,26.602 14.633,21.260 16.393,21.210 C 18.153,21.160 18.654,27.377 19.055,29.228 C 19.455,31.078 20.180,31.879 21.447,31.720 C 25.115,31.120 29.123,19.380 30.207,11.884 C 30.409,9.934 30.642,1.615 24.287,0.713 Z" fill="#ffffff"/>
  <path d="F1 M 32.000,32.000 L 0.000,32.000 L 0.000,0.000 L 32.000,0.000 L 32.000,32.000 Z" fill="currentColor"/>
  <rect x="0" y="0" width="0" height="0" fill="none"/>
</svg>