<?xml version="1.0" encoding="UTF-8"?>
<svg xmlns="http://www.w3.org/2000/svg" width="32.000" height="32.000" viewBox="0 0 32.000 32.000">
  <title>ToothAlignmentEngineProductType.GO_Plus.Parameter</title>
  <path d="F1 M 6.067,19.380 C 6.035,19.896 6.029,20.331 5.718,20.666 C 5.561,20.835 5.545,20.986 5.609,21.204 C 5.694,21.494 5.610,21.780 5.423,22.020 C 5.109,22.420 4.716,22.680 4.202,22.788 C 3.557,22.924 2.959,22.757 2.349,22.612 C 1.718,22.463 1.226,22.112 0.845,21.599 C 0.571,21.230 0.439,20.803 0.398,20.349 C 0.381,20.157 0.417,19.971 0.588,19.840 C 0.666,19.779 0.692,19.693 0.615,19.621 C 0.328,19.350 0.404,19.040 0.523,18.736 C 0.677,18.338 0.909,17.985 1.207,17.676 C 1.591,17.279 2.074,17.161 2.592,17.238 C 3.330,17.347 4.066,17.480 4.793,17.646 C 5.441,17.794 5.810,18.260 5.986,18.882 C 6.040,19.071 6.051,19.273 6.067,19.380" fill="#ffffff"/>
  <path d="F1 M 3.338,27.929 C 2.607,27.912 1.739,27.774 0.934,27.349 C 0.574,27.159 0.294,26.901 0.182,26.503 C 0.106,26.231 0.056,25.952 0.006,25.674 C -0.020,25.532 0.041,25.417 0.153,25.319 C 0.313,25.181 0.332,25.123 0.217,24.948 C -0.114,24.441 -0.027,23.979 0.331,23.532 C 0.421,23.419 0.508,23.303 0.590,23.184 C 0.793,22.894 1.072,22.726 1.423,22.732 C 2.247,22.746 3.080,22.796 3.851,23.090 C 4.759,23.437 5.267,24.140 5.321,25.135 C 5.328,25.259 5.327,25.384 5.328,25.509 C 5.329,25.664 5.283,25.799 5.176,25.919 C 5.145,25.954 5.134,26.041 5.156,26.083 C 5.226,26.222 5.220,26.358 5.194,26.504 C 5.145,26.780 5.103,27.054 4.921,27.285 C 4.558,27.744 4.089,27.967 3.338,27.929" fill="#ffffff"/>
  <path d="F1 M 15.566,4.070 C 15.849,4.077 15.965,4.185 15.961,4.463 C 15.947,5.481 15.826,6.481 15.423,7.429 C 15.197,7.961 14.848,8.387 14.340,8.684 C 13.973,8.898 13.350,8.797 13.067,8.541 C 12.599,8.120 12.322,7.590 12.096,7.020 C 11.990,6.752 11.854,6.494 11.761,6.222 C 11.656,5.918 11.559,5.607 11.507,5.291 C 11.457,4.984 11.622,4.756 11.896,4.614 C 12.634,4.230 13.403,3.983 14.250,4.093 C 14.290,4.098 14.330,4.097 14.370,4.098 C 14.623,4.102 14.877,4.088 15.130,4.081 C 15.275,4.078 15.421,4.066 15.566,4.070 Z" fill="#ffffff"/>
  <path d="F1 M 7.901,11.593 C 7.569,11.585 7.077,11.440 6.609,11.181 C 6.081,10.887 5.618,10.516 5.184,10.101 C 4.975,9.901 4.930,9.645 4.993,9.398 C 5.118,8.897 5.277,8.404 5.445,7.916 C 5.568,7.560 5.847,7.336 6.192,7.208 C 6.546,7.077 6.908,6.966 7.267,6.849 C 7.486,6.778 7.680,6.836 7.855,6.975 C 8.162,7.220 8.421,7.503 8.579,7.872 C 8.810,8.411 9.074,8.937 9.277,9.487 C 9.430,9.899 9.421,10.341 9.279,10.765 C 9.065,11.403 8.777,11.601 7.901,11.593" fill="#ffffff"/>
  <path d="F1 M 2.614,17.122 C 2.280,17.054 2.031,16.859 1.944,16.498 C 1.870,16.188 1.777,15.883 1.691,15.577 C 1.599,15.244 1.681,14.958 1.914,14.709 C 2.179,14.425 2.437,14.134 2.707,13.856 C 2.764,13.797 2.864,13.747 2.942,13.749 C 3.159,13.754 3.385,13.758 3.591,13.818 C 4.144,13.980 4.707,14.130 5.232,14.362 C 5.753,14.591 6.075,15.035 6.177,15.608 C 6.263,16.089 6.078,16.492 5.754,16.830 C 5.608,16.983 5.425,17.103 5.251,17.228 C 5.014,17.399 4.743,17.448 4.454,17.408 L 2.614,17.122 Z" fill="#ffffff"/>
  <path d="F1 M 3.058,12.765 C 3.058,12.481 3.056,12.197 3.059,11.914 C 3.062,11.573 3.171,11.286 3.460,11.073 C 3.768,10.845 4.061,10.596 4.363,10.359 C 4.675,10.115 4.898,10.091 5.215,10.335 C 5.672,10.687 6.120,11.054 6.546,11.443 C 6.792,11.668 6.955,11.969 7.045,12.298 C 7.143,12.655 7.133,13.006 6.982,13.350 C 6.902,13.534 6.781,13.678 6.613,13.789 C 6.098,14.129 5.540,14.237 4.944,14.082 C 4.491,13.965 4.042,13.833 3.598,13.688 C 3.181,13.551 2.999,13.237 3.058,12.765" fill="#ffffff"/>
  <path d="F1 M 11.644,7.128 C 11.696,7.615 11.677,8.097 11.465,8.547 C 11.372,8.743 11.261,8.937 11.127,9.106 C 10.910,9.377 10.534,9.428 10.168,9.282 C 9.759,9.118 9.482,8.793 9.191,8.489 C 8.822,8.103 8.536,7.651 8.272,7.187 C 8.084,6.857 8.132,6.505 8.400,6.228 C 8.506,6.118 8.626,6.014 8.757,5.935 C 9.071,5.747 9.345,5.485 9.708,5.385 C 9.962,5.314 10.220,5.260 10.475,5.193 C 10.571,5.168 10.662,5.123 10.757,5.096 C 11.044,5.013 11.266,5.095 11.359,5.376 C 11.480,5.743 11.568,6.122 11.638,6.502 C 11.675,6.704 11.644,6.919 11.644,7.128" fill="#ffffff"/>
  <path d="F1 M 25.933,19.380 C 25.965,19.896 25.971,20.331 26.282,20.666 C 26.439,20.835 26.455,20.986 26.391,21.204 C 26.306,21.494 26.390,21.780 26.577,22.020 C 26.891,22.420 27.284,22.680 27.798,22.788 C 28.443,22.924 29.041,22.757 29.651,22.612 C 30.282,22.463 30.774,22.112 31.155,21.599 C 31.429,21.230 31.561,20.803 31.602,20.349 C 31.619,20.157 31.583,19.971 31.412,19.840 C 31.334,19.779 31.308,19.693 31.385,19.621 C 31.672,19.350 31.596,19.040 31.477,18.736 C 31.323,18.338 31.091,17.985 30.793,17.676 C 30.409,17.279 29.926,17.161 29.408,17.238 C 28.670,17.347 27.934,17.480 27.207,17.646 C 26.559,17.794 26.190,18.260 26.014,18.882 C 25.960,19.071 25.949,19.273 25.933,19.380" fill="#ffffff"/>
  <path d="F1 M 28.662,27.929 C 29.393,27.912 30.261,27.774 31.066,27.349 C 31.426,27.159 31.706,26.901 31.818,26.503 C 31.894,26.231 31.944,25.952 31.994,25.674 C 32.020,25.532 31.959,25.417 31.847,25.319 C 31.687,25.181 31.668,25.123 31.783,24.948 C 32.114,24.441 32.027,23.979 31.669,23.532 C 31.579,23.419 31.492,23.303 31.410,23.184 C 31.207,22.894 30.928,22.726 30.577,22.732 C 29.753,22.746 28.920,22.796 28.149,23.090 C 27.241,23.437 26.733,24.140 26.679,25.135 C 26.672,25.259 26.673,25.384 26.672,25.509 C 26.671,25.664 26.717,25.799 26.824,25.919 C 26.855,25.954 26.866,26.041 26.844,26.083 C 26.774,26.222 26.780,26.358 26.806,26.504 C 26.855,26.780 26.897,27.054 27.079,27.285 C 27.442,27.744 27.911,27.967 28.662,27.929" fill="#ffffff"/>
  <path d="F1 M 16.434,4.070 C 16.151,4.077 16.035,4.185 16.039,4.463 C 16.053,5.481 16.174,6.481 16.577,7.429 C 16.803,7.961 17.152,8.387 17.660,8.684 C 18.027,8.898 18.650,8.797 18.933,8.541 C 19.401,8.120 19.678,7.590 19.904,7.020 C 20.010,6.752 20.146,6.494 20.239,6.222 C 20.344,5.918 20.441,5.607 20.493,5.291 C 20.543,4.984 20.378,4.756 20.104,4.614 C 19.366,4.230 18.597,3.983 17.750,4.093 C 17.710,4.098 17.670,4.097 17.630,4.098 C 17.377,4.102 17.123,4.088 16.870,4.081 C 16.725,4.078 16.579,4.066 16.434,4.070 Z" fill="#ffffff"/>
  <path d="F1 M 24.099,11.593 C 24.431,11.585 24.923,11.440 25.391,11.181 C 25.919,10.887 26.382,10.516 26.816,10.101 C 27.025,9.901 27.070,9.645 27.007,9.398 C 26.882,8.897 26.723,8.404 26.555,7.916 C 26.432,7.560 26.153,7.336 25.808,7.208 C 25.454,7.077 25.092,6.966 24.733,6.849 C 24.514,6.778 24.320,6.836 24.145,6.975 C 23.838,7.220 23.579,7.503 23.421,7.872 C 23.190,8.411 22.926,8.937 22.723,9.487 C 22.570,9.899 22.579,10.341 22.721,10.765 C 22.935,11.403 23.223,11.601 24.099,11.593" fill="#ffffff"/>
  <path d="F1 M 29.386,17.122 C 29.720,17.054 29.969,16.859 30.056,16.498 C 30.130,16.188 30.223,15.883 30.309,15.577 C 30.401,15.244 30.319,14.958 30.086,14.709 C 29.821,14.425 29.563,14.134 29.293,13.856 C 29.236,13.797 29.136,13.747 29.058,13.749 C 28.841,13.754 28.615,13.758 28.409,13.818 C 27.856,13.980 27.293,14.130 26.768,14.362 C 26.247,14.591 25.925,15.035 25.823,15.608 C 25.737,16.089 25.922,16.492 26.246,16.830 C 26.392,16.983 26.575,17.103 26.749,17.228 C 26.986,17.399 27.257,17.448 27.546,17.408 L 29.386,17.122 Z" fill="#ffffff"/>
  <path d="F1 M 28.942,12.765 C 28.942,12.481 28.944,12.197 28.941,11.914 C 28.938,11.573 28.829,11.286 28.540,11.073 C 28.232,10.845 27.939,10.596 27.637,10.359 C 27.325,10.115 27.102,10.091 26.785,10.335 C 26.328,10.687 25.880,11.054 25.454,11.443 C 25.208,11.668 25.045,11.969 24.955,12.298 C 24.857,12.655 24.867,13.006 25.018,13.350 C 25.098,13.534 25.219,13.678 25.387,13.789 C 25.902,14.129 26.460,14.237 27.056,14.082 C 27.509,13.965 27.958,13.833 28.402,13.688 C 28.819,13.551 29.001,13.237 28.942,12.765" fill="#ffffff"/>
  <path d="F1 M 20.356,7.128 C 20.304,7.615 20.323,8.097 20.535,8.547 C 20.628,8.743 20.739,8.937 20.873,9.106 C 21.090,9.377 21.466,9.428 21.832,9.282 C 22.241,9.118 22.518,8.793 22.809,8.489 C 23.178,8.103 23.464,7.651 23.728,7.187 C 23.916,6.857 23.868,6.505 23.600,6.228 C 23.494,6.118 23.374,6.014 23.243,5.935 C 22.929,5.747 22.655,5.485 22.292,5.385 C 22.038,5.314 21.780,5.260 21.525,5.193 C 21.429,5.168 21.338,5.123 21.243,5.096 C 20.956,5.013 20.734,5.095 20.641,5.376 C 20.520,5.743 20.432,6.122 20.362,6.502 C 20.325,6.704 20.356,6.919 20.356,7.128" fill="#ffffff"/>
  <path d="F1 M 32.000,32.000 L 0.000,32.000 L 0.000,0.000 L 32.000,0.000 L 32.000,32.000 Z" fill="currentColor"/>
  <rect x="0" y="0" width="0" height="0" fill="none"/>
</svg>