<?xml version="1.0" encoding="UTF-8"?>
<svg xmlns="http://www.w3.org/2000/svg" width="32.000" height="32.000" viewBox="0 0 32.000 32.000">
  <title>ToothAlignmentEngineProductType.UNSPECIFIED.Parameter</title>
  <path d="F1 M 6.067,21.413 C 6.035,21.929 6.029,22.364 5.718,22.699 C 5.561,22.868 5.545,23.019 5.609,23.237 C 5.694,23.527 5.610,23.813 5.423,24.053 C 5.109,24.454 4.716,24.714 4.202,24.822 C 3.557,24.957 2.959,24.790 2.349,24.646 C 1.718,24.496 1.226,24.145 0.845,23.633 C 0.571,23.263 0.439,22.836 0.398,22.382 C 0.381,22.190 0.417,22.004 0.588,21.873 C 0.666,21.813 0.692,21.726 0.615,21.654 C 0.328,21.384 0.404,21.073 0.523,20.769 C 0.677,20.371 0.909,20.018 1.207,19.710 C 1.591,19.313 2.074,19.194 2.592,19.271 C 3.330,19.381 4.066,19.514 4.793,19.679 C 5.441,19.827 5.810,20.294 5.986,20.915 C 6.040,21.104 6.051,21.306 6.067,21.413" fill="#ffffff"/>
  <path d="F1 M 3.338,29.962 C 2.607,29.946 1.739,29.808 0.934,29.382 C 0.574,29.193 0.294,28.935 0.182,28.536 C 0.106,28.265 0.056,27.985 0.006,27.707 C -0.020,27.566 0.041,27.450 0.153,27.353 C 0.313,27.215 0.332,27.156 0.217,26.981 C -0.114,26.474 -0.027,26.012 0.331,25.565 C 0.421,25.452 0.508,25.336 0.590,25.218 C 0.793,24.927 1.072,24.759 1.423,24.765 C 2.247,24.780 3.080,24.829 3.851,25.123 C 4.759,25.470 5.267,26.173 5.321,27.168 C 5.328,27.292 5.327,27.417 5.328,27.542 C 5.329,27.697 5.283,27.832 5.176,27.952 C 5.145,27.987 5.134,28.074 5.156,28.116 C 5.226,28.255 5.220,28.391 5.194,28.538 C 5.145,28.813 5.103,29.088 4.921,29.318 C 4.558,29.777 4.089,30.001 3.338,29.962" fill="#ffffff"/>
  <path d="F1 M 15.566,6.103 C 15.849,6.110 15.965,6.219 15.961,6.496 C 15.947,7.514 15.826,8.515 15.423,9.462 C 15.197,9.994 14.848,10.420 14.340,10.717 C 13.973,10.932 13.350,10.830 13.067,10.575 C 12.599,10.153 12.322,9.623 12.096,9.053 C 11.990,8.785 11.854,8.528 11.761,8.256 C 11.656,7.952 11.559,7.640 11.507,7.324 C 11.457,7.018 11.622,6.789 11.896,6.647 C 12.634,6.264 13.403,6.016 14.250,6.126 C 14.290,6.131 14.330,6.130 14.370,6.131 C 14.623,6.135 14.877,6.122 15.130,6.115 C 15.275,6.111 15.421,6.100 15.566,6.103 Z" fill="#ffffff"/>
  <path d="F1 M 7.901,13.626 C 7.569,13.619 7.077,13.474 6.609,13.214 C 6.081,12.921 5.618,12.549 5.184,12.134 C 4.975,11.934 4.930,11.678 4.993,11.431 C 5.118,10.931 5.277,10.437 5.445,9.949 C 5.568,9.593 5.847,9.369 6.192,9.242 C 6.546,9.110 6.908,8.999 7.267,8.883 C 7.486,8.812 7.680,8.869 7.855,9.008 C 8.162,9.254 8.421,9.536 8.579,9.905 C 8.810,10.444 9.074,10.971 9.277,11.520 C 9.430,11.933 9.421,12.374 9.279,12.798 C 9.065,13.437 8.777,13.635 7.901,13.626" fill="#ffffff"/>
  <path d="F1 M 2.614,19.156 C 2.280,19.087 2.031,18.892 1.944,18.531 C 1.870,18.222 1.777,17.917 1.691,17.610 C 1.599,17.278 1.681,16.992 1.914,16.742 C 2.179,16.458 2.437,16.167 2.707,15.889 C 2.764,15.831 2.864,15.780 2.942,15.782 C 3.159,15.788 3.385,15.791 3.591,15.852 C 4.144,16.013 4.707,16.164 5.232,16.395 C 5.753,16.624 6.075,17.068 6.177,17.641 C 6.263,18.122 6.078,18.525 5.754,18.863 C 5.608,19.016 5.425,19.136 5.251,19.261 C 5.014,19.433 4.743,19.481 4.454,19.442 L 2.614,19.156 Z" fill="#ffffff"/>
  <path d="F1 M 3.058,14.798 C 3.058,14.515 3.056,14.231 3.059,13.947 C 3.062,13.606 3.171,13.319 3.460,13.106 C 3.768,12.878 4.061,12.630 4.363,12.393 C 4.675,12.148 4.898,12.124 5.215,12.368 C 5.672,12.720 6.120,13.087 6.546,13.476 C 6.792,13.702 6.955,14.003 7.045,14.332 C 7.143,14.689 7.133,15.040 6.982,15.384 C 6.902,15.567 6.781,15.712 6.613,15.822 C 6.098,16.163 5.540,16.270 4.944,16.115 C 4.491,15.998 4.042,15.867 3.598,15.721 C 3.181,15.585 2.999,15.271 3.058,14.798" fill="#ffffff"/>
  <path d="F1 M 11.644,9.161 C 11.696,9.648 11.677,10.131 11.465,10.580 C 11.372,10.776 11.261,10.970 11.127,11.139 C 10.910,11.411 10.534,11.461 10.168,11.315 C 9.759,11.152 9.482,10.826 9.191,10.523 C 8.822,10.137 8.536,9.684 8.272,9.221 C 8.084,8.890 8.132,8.538 8.400,8.261 C 8.506,8.151 8.626,8.047 8.757,7.969 C 9.071,7.780 9.345,7.518 9.708,7.418 C 9.962,7.348 10.220,7.293 10.475,7.226 C 10.571,7.201 10.662,7.156 10.757,7.129 C 11.044,7.047 11.266,7.128 11.359,7.410 C 11.480,7.776 11.568,8.155 11.638,8.535 C 11.675,8.737 11.644,8.952 11.644,9.161" fill="#ffffff"/>
  <path d="F1 M 25.933,21.413 C 25.965,21.929 25.971,22.364 26.282,22.699 C 26.439,22.868 26.455,23.019 26.391,23.237 C 26.306,23.527 26.390,23.813 26.577,24.053 C 26.891,24.454 27.284,24.714 27.798,24.822 C 28.443,24.957 29.041,24.790 29.651,24.646 C 30.282,24.496 30.774,24.145 31.155,23.633 C 31.429,23.263 31.561,22.836 31.602,22.382 C 31.619,22.190 31.583,22.004 31.412,21.873 C 31.334,21.813 31.308,21.726 31.385,21.654 C 31.672,21.384 31.596,21.073 31.477,20.769 C 31.323,20.371 31.091,20.018 30.793,19.710 C 30.409,19.313 29.926,19.194 29.408,19.271 C 28.670,19.381 27.934,19.514 27.207,19.679 C 26.559,19.827 26.190,20.294 26.014,20.915 C 25.960,21.104 25.949,21.306 25.933,21.413" fill="#ffffff"/>
  <path d="F1 M 28.662,29.962 C 29.393,29.946 30.261,29.808 31.066,29.382 C 31.426,29.193 31.706,28.935 31.818,28.536 C 31.894,28.265 31.944,27.985 31.994,27.707 C 32.020,27.566 31.959,27.450 31.847,27.353 C 31.687,27.215 31.668,27.156 31.783,26.981 C 32.114,26.474 32.027,26.012 31.669,25.565 C 31.579,25.452 31.492,25.336 31.410,25.218 C 31.207,24.927 30.928,24.759 30.577,24.765 C 29.753,24.780 28.920,24.829 28.149,25.123 C 27.241,25.470 26.733,26.173 26.679,27.168 C 26.672,27.292 26.673,27.417 26.672,27.542 C 26.671,27.697 26.717,27.832 26.824,27.952 C 26.855,27.987 26.866,28.074 26.844,28.116 C 26.774,28.255 26.780,28.391 26.806,28.538 C 26.855,28.813 26.897,29.088 27.079,29.318 C 27.442,29.777 27.911,30.001 28.662,29.962" fill="#ffffff"/>
  <path d="F1 M 16.434,6.103 C 16.151,6.110 16.035,6.219 16.039,6.496 C 16.053,7.514 16.174,8.515 16.577,9.462 C 16.803,9.994 17.152,10.420 17.660,10.717 C 18.027,10.932 18.650,10.830 18.933,10.575 C 19.401,10.153 19.678,9.623 19.904,9.053 C 20.010,8.785 20.146,8.528 20.239,8.256 C 20.344,7.952 20.441,7.640 20.493,7.324 C 20.543,7.018 20.378,6.789 20.104,6.647 C 19.366,6.264 18.597,6.016 17.750,6.126 C 17.710,6.131 17.670,6.130 17.630,6.131 C 17.377,6.135 17.123,6.122 16.870,6.115 C 16.725,6.111 16.579,6.100 16.434,6.103 Z" fill="#ffffff"/>
  <path d="F1 M 29.386,19.156 C 29.720,19.087 29.969,18.892 30.056,18.531 C 30.130,18.222 30.223,17.917 30.309,17.610 C 30.401,17.278 30.319,16.992 30.086,16.742 C 29.821,16.458 29.563,16.167 29.293,15.889 C 29.236,15.831 29.136,15.780 29.058,15.782 C 28.841,15.788 28.615,15.791 28.409,15.852 C 27.856,16.013 27.293,16.164 26.768,16.395 C 26.247,16.624 25.925,17.068 25.823,17.641 C 25.737,18.122 25.922,18.525 26.246,18.863 C 26.392,19.016 26.575,19.136 26.749,19.261 C 26.986,19.433 27.257,19.481 27.546,19.442 L 29.386,19.156 Z" fill="#ffffff"/>
  <path d="F1 M 28.942,14.798 C 28.942,14.515 28.944,14.231 28.941,13.947 C 28.938,13.606 28.829,13.319 28.540,13.106 C 28.232,12.878 27.939,12.630 27.637,12.393 C 27.325,12.148 27.102,12.124 26.785,12.368 C 26.328,12.720 25.880,13.087 25.454,13.476 C 25.208,13.702 25.045,14.003 24.955,14.332 C 24.857,14.689 24.867,15.040 25.018,15.384 C 25.098,15.567 25.219,15.712 25.387,15.822 C 25.902,16.163 26.460,16.270 27.056,16.115 C 27.509,15.998 27.958,15.867 28.402,15.721 C 28.819,15.585 29.001,15.271 28.942,14.798" fill="#ffffff"/>
  <path d="F1 M 26.612,10.136 L 25.074,11.673 L 24.367,12.380 L 23.660,11.673 L 22.954,10.967 C 22.874,11.150 22.792,11.333 22.723,11.520 C 22.570,11.933 22.579,12.374 22.721,12.798 C 22.935,13.437 23.223,13.635 24.099,13.626 C 24.431,13.619 24.923,13.474 25.391,13.214 C 25.919,12.921 26.382,12.549 26.816,12.134 C 27.025,11.934 27.070,11.678 27.007,11.431 C 26.897,10.994 26.756,10.564 26.612,10.136 Z" fill="#ffffff"/>
  <path d="F1 M 22.360,10.373 L 21.653,9.666 L 22.360,8.959 L 23.302,8.017 C 23.281,8.003 23.265,7.982 23.243,7.969 C 22.929,7.780 22.655,7.518 22.292,7.418 C 22.038,7.348 21.780,7.293 21.525,7.226 C 21.429,7.201 21.338,7.156 21.243,7.129 C 20.956,7.047 20.734,7.128 20.641,7.410 C 20.520,7.776 20.432,8.155 20.362,8.535 C 20.325,8.737 20.356,8.952 20.356,9.161 C 20.304,9.648 20.323,10.131 20.535,10.580 C 20.628,10.776 20.738,10.970 20.873,11.139 C 21.090,11.411 21.466,11.461 21.832,11.315 C 22.172,11.179 22.421,10.930 22.663,10.676 L 22.360,10.373 Z" fill="#ffffff"/>
  <path d="F1 M 27.534,7.800 L 30.700,10.966 L 32.000,9.666 L 28.834,6.500 L 32.000,3.333 L 30.700,2.033 L 27.534,5.200 L 24.367,2.033 L 23.067,3.333 L 26.233,6.500 L 23.067,9.666 L 24.367,10.966 L 27.534,7.800 Z" fill="#ffffff"/>
  <path d="F1 M 32.000,32.000 L 0.000,32.000 L 0.000,0.000 L 32.000,0.000 L 32.000,32.000 Z" fill="currentColor"/>
  <rect x="0" y="0" width="0" height="0" fill="none"/>
</svg>