<?xml version="1.0" encoding="UTF-8"?>
<svg xmlns="http://www.w3.org/2000/svg" width="32.0" height="32.00000" viewBox="0 0 32.0 32.00000">
  <title>VirtualGingivaDesignMode.Wizard.Parameter</title>
  <path d="M4.1015625,9.0953121 L6.84375,9.0953121 L6.3398438,12.458593 L9.2695313,11.192968 L10.125,13.560156 L6.9140625,13.99375 L9.2109375,16.466406 L7.078125,17.93125 L5.4726563,14.954687 L3.8671875,17.93125 L1.7226561,16.466406 L4.03125,13.99375 L0.8203125,13.560156 L1.6523439,11.192968 L4.6054688,12.458593 z" fill="White"/>
  <path d="M26.194534,13.284501 L28.362509,13.355881 28.236973,13.443997 C27.416254,13.998425 26.350048,14.428859 25.195354,14.749354 L25.084126,14.778821 z M21.335733,12.162466 L23.012327,12.717701 22.949566,13.020176 20.826626,15.216 20.501625,15.5035 C18.980314,15.627195 17.971218,15.610437 17.081839,15.66815 L17.037357,15.672764 18.858757,13.221638 22.176506,13.330873 z M8.3266487,10.190048 C8.2719813,10.19537 8.2767201,10.252756 8.2595024,10.555109 8.2365456,10.958247 8.3888264,11.223999 8.5648279,11.97723 8.7408323,12.730466 9.3220234,12.793057 9.5209818,12.771836 9.7199421,12.750618 10.040574,12.453569 10.254838,11.954951 10.469102,11.456333 10.606841,10.779477 10.629801,10.66279 10.652758,10.546097 10.576241,10.419319 10.469102,10.376879 10.36197,10.334519 10.293482,10.374299 10.102174,10.395519 9.9108668,10.41674 9.874136,10.373779&#xD;&#xA;9.4915218,10.310119 9.4915218,10.310119 9.315135,10.313419 9.0549574,10.302719 8.7947798,10.292114 8.5418711,10.205745 8.4041309,10.194938 8.3696938,10.192286 8.3448706,10.188274 8.3266487,10.190048 z M6.3105588,9.6815272 C6.2863584,9.6792985 6.2645497,9.6848441 6.245419,9.6973782 6.2071557,9.7225857 6.178844,9.7758828 6.1597128,9.8607617 6.1214523,10.030502 6.2220788,10.700985 6.2373843,10.944988 6.2526884,11.188994 6.3135243,12.311462 6.7114439,12.459897 7.1093626,12.608421 7.3699231,12.165501 7.6301012,11.69871 7.8902793,11.231917 8.1715031,10.212943 8.1791535,10.053801 8.1868057,9.894681 8.1275005,9.9795409 8.005064,9.9795409 7.8826275,9.9795409 7.7360859,10.001501&#xD;&#xA;7.2846003,9.9908009 7.2846003,9.9908009 6.5048313,9.7865687 6.3900471,9.7123185 6.361351,9.693759 6.3347592,9.6837559 6.3105588,9.6815272 z M4.5037112,9.4470702 C4.4106736,9.4453612 4.3392325,9.4608908 4.3009706,9.5006791 4.2397528,9.564333 4.3323455,10.779049 4.3706069,11.097315 4.4088683,11.415582 4.701951,11.802269 4.9544764,11.86593 5.2070022,11.929582 5.6003304,11.330716 5.7686806,10.800267 5.9370318,10.269822 5.9894495,9.6746741 6.0124068,9.5897933 6.0353637,9.5049296 5.9902148,9.5043936 5.8677778,9.5043936 5.7453408,9.5043936 5.5655127,9.5182133 5.1446362,9.4969941 5.1446366,9.4969941 4.875658,9.4990941&#xD;&#xA;4.6920028,9.467249 4.6231322,9.4553271 4.5595341,9.4480963 4.5037112,9.4470702 z M20.893175,8.8705826 L20.959116,8.9177552 C21.214235,9.0917712 21.46129,9.2120953 21.592094,9.2556277 21.76214,9.3122292 22.152987,9.3115235 22.488518,9.2649727 L22.574062,9.2506819 22.571899,9.5360985 20.465549,10.953184 20.245726,10.6477 z M3.7471337,8.70148 C3.5566495,8.7102109 3.2631238,8.7914324 3.1787579,8.8954039 3.0823383,9.0142222 2.9859195,9.4746485 2.9644935,9.6677304 2.9430704,9.8608122 2.825222,11.011865 2.9377105,11.093565 3.050199,11.175285 3.1037653,11.323799 3.4626575,11.078735 3.8215501,10.833666 3.9179692,10.388094 4.1536603,9.5934897 L4.142951,9.6157799 C4.142951,9.6157799 4.2649908,9.2339097 4.3679285,9.1627799 4.4936075,9.0759593 4.6889234,9.1955796 4.9035888,9.1108094 4.9773507,9.0816832 4.951798,9.0513964 4.726821,8.9400139 4.5018435,8.8286305 3.9983225,8.7172051 3.8215504,8.7023221 3.7994545,8.7004653 3.7743454,8.7002335 3.7471337,8.70148 z M2.9054704,7.1891528 C2.8759458,7.1895276 2.8463171,7.1916133 2.8171902,7.1948591 2.7006848,7.2078386 2.5922129,7.2393985 2.5252555,7.2616883 2.3913405,7.3062444 1.8985329,7.610715 1.8342536,7.7295404 1.7699745,7.8483582 1.6896256,8.0934229 1.6092764,8.657816 1.5289272,9.222209 1.3146632,10.039091 1.3521589,10.469812 1.3896552,10.900528 1.6199896,10.848548 1.8288968,10.811419 2.0378049,10.774286 2.3217049,10.350993 2.7823725,9.3781596 2.782373,9.378151 2.985924,8.769208&#xD;&#xA;3.2109018,8.6132584 3.435879,8.4572716 3.6715696,8.4721518 3.9768963,8.4424429 4.2822223,8.4127398 4.2179437,8.3161955 4.2179437,8.1825247 4.2179437,8.0488511 3.9983223,7.8632017 3.8644076,7.7221022 3.7304924,7.5810037 3.3394599,7.3656502 3.1519787,7.2468253 3.0816736,7.2022977 2.9940424,7.1880274 2.9054704,7.1891528 z M3.2467239,5.5102697 C3.1975105,5.5072499 3.1479619,5.5174571 3.0876997,5.5388074 2.9671757,5.5815173 2.8037992,5.6687809 2.5145424,5.7764559 2.5145424,5.7764559 2.3324177,5.9324174 2.2199292,6.0437995 2.1074407,6.1551939 1.9467424,6.6304718 1.8931765,6.9052415 1.8396104,7.1800099 1.5557095,7.4919158 1.6574856,7.4622059 1.7592614,7.4325028 2.134224,7.172586 2.2681387,7.1131759 2.4020538,7.0537649 2.6484578,6.9572425 2.932358,6.8458305 3.2162583,6.7344428 3.3501732,6.7715822&#xD;&#xA;3.6233604,6.6898828 3.8965478,6.608193 3.9447563,6.4968095 4.0143924,6.3705555 4.0840283,6.24431 3.9768963,6.1403409 3.8483377,5.9175563 3.7197793,5.6947675 3.6394301,5.6873527 3.4037395,5.5610972 3.3448167,5.5295373 3.295938,5.5132895 3.2467239,5.5102697 z M21.186132,4.5060387 L22.132658,5.1415783 22.081558,5.1514612 C21.973616,5.1728445 21.900101,5.1897708 21.900101,5.1897708 21.900101,5.1897708 21.529612,5.2829896 21.359083,5.3345795 21.188555,5.3861752 20.53694,5.7264348 20.319902,5.8915463 20.102863,6.0567685 19.823399,6.0454283 19.722639,6.0660677 19.621874,6.0867057 18.784983,6.3044782 18.924505,6.4076744 19.06403,6.5108653 19.420874,6.6150809 19.591404,6.8421083 19.719299,7.0123783 19.846558,7.3452688 20.023186,7.7405143 L20.115622,7.9423791 19.804609,8.0401936 19.786919,7.8966256 C19.741007,7.504097 19.601341,7.2394143 19.53248,7.09088 19.463612,6.9423671 19.103951,6.7938324 19.103951,6.7938324 L18.675423,6.6230326 C18.675423,6.6230326 18.507448,6.6463728 18.415628,6.6675931 18.323799,6.6888118 17.834818,6.8686433 17.628204,6.9535032 17.421595,7.038373 16.94677,7.2924533 16.763113,7.3136735 16.740156,7.3163257 16.716942,7.3181739 16.69376,7.3197504 L16.635118,7.3235217 16.28252,7.0508075 16.388491,6.9931093 C17.324064,6.4846798 18.162493,6.0407234 18.791471,5.8228589 19.723116,5.4180117 20.474207,4.9782262 21.158161,4.5249401 z M3.4037395,4.4174977 C3.1578729,4.4484377 3.0794554,4.5254412 2.8680782,4.7888108 2.6567021,5.0521803 2.4621599,5.2236538 2.3538444,5.7022358 2.3219056,5.7957049 2.4877587,5.6725059 2.5895353,5.6205359 2.6913107,5.568553 3.0823431,5.3754864 3.232328,5.3457666 3.382313,5.3160406 3.4465921,5.3977361 3.7358487,5.434866 4.0251055,5.4719663 4.3786416,5.4719763 4.6625414,5.442266 4.9464412,5.4125624 4.9571514,5.1972118 4.9625111,5.048677 4.9678679,4.9001537 4.6143322,4.7219096&#xD;&#xA;4.4214945,4.6328102 4.2286568,4.5437022 3.6233602,4.4471665 3.4037395,4.4174977 z M30.238686,4.0107337 L30.280983,4.0330244 C30.477644,4.1402369 30.63162,4.2484136 30.71471,4.3787427 30.936285,4.7262917 31.362228,5.3568907 31.27286,6.4305635 31.183483,7.5042348 31.286779,8.2216616 31.061823,8.9714175 30.612276,10.469704 30.181528,11.54309 29.414715,12.420393 L29.258698,12.591192 27.7202,10.45317 28.963202,7.0413819 25.481003,8.1365386 23.911783,6.9228406 23.896927,6.8185597 C23.850555,6.5433193 23.772581,6.2847667 23.699919,6.1106277 23.656319,6.0061436 23.610527,5.8940478 23.567867,5.7882124 L23.54624,5.7343064 23.657131,5.541245 23.745451,5.668748 C24.157175,6.1940418 24.885605,6.7269378 25.406,6.6972776 25.991493,6.6639147 26.490128,6.1761427 26.814787,5.9360915 26.916243,5.8610755 26.996122,5.7809935 27.051962,5.6762262 L27.057102,5.6651412 27.223499,5.9910002 z M25.4235,2.4660004 L25.494722,2.6054788 25.383259,2.6160086 25.331533,2.6261132 z M4.3963747,2.455324 C4.2409601,2.4555452 4.0706368,2.4764329 3.9233303,2.5089157 3.9233301,2.5089162 3.8161979,2.5608903 3.6769259,2.7094238 3.5376547,2.8579481 3.4412356,3.1104389 3.3126769,3.3406518 3.1841188,3.5708664 2.8091562,4.0238662 2.7288065,4.16496 2.6484578,4.3060575 2.4824064,4.8333107 2.4770463,4.9595652 2.4716897,5.0858174 2.6645274,4.922442 2.7341633,4.8036166 2.8037992,4.6847983 3.0930562,4.3803096 3.1466224,4.3283396 3.2001884,4.2763796 3.4037395,4.2763796&#xD;&#xA;3.6929963,4.2912098 3.9822529,4.3060594 4.1858039,4.2837697 4.6036191,4.3506194 5.0214338,4.4174295 5.6106606,4.3580394 5.8195682,4.3209096 6.0284772,4.2837787 6.0766854,3.9124637 6.1463218,3.5931376 6.2159572,3.27381 6.0124068,3.0510233 5.8731346,2.8282378 5.7338624,2.6054597 5.6053043,2.6054597 5.3803268,2.5386141 5.1553493,2.4717939 4.8500228,2.5237611 4.6518283,2.4792035 4.5775051,2.4624978 4.4896236,2.455191 4.3963747,2.455324 z M5.5945912,0.57159477 C5.5035286,0.56695669 5.4071098,0.57439237 5.2946215,0.5929718 5.069644,0.63010167 4.9946509,0.88259637 4.764317,1.1499364 4.764317,1.1499392 4.367928,1.536096 4.2554393,1.6549215 4.142951,1.7737383 3.773345,2.0930627 3.6072905,2.2564447 3.4412358,2.4198213 3.1778085,2.7817414 3.0448468,3.1178864 2.9537845,3.3481007 3.0956464,3.3137775 3.2805376,3.080755 3.4573052,2.8579677 3.4680188,2.7391487 3.6876395,2.5312148 3.9072602,2.3232942 4.0090356,2.3678411&#xD;&#xA;4.2286568,2.3455523 4.4482775,2.3232532 4.5768356,2.3010157 4.8393097,2.3084214 5.1017833,2.3158372 5.3642569,2.3381055 5.6428003,2.3603945 5.9213438,2.3826626 5.8999171,2.3529373 6.2695236,2.3381055 6.473074,2.3232551 6.5427103,2.248992 6.6926952,2.0707636 6.8426805,1.8925337 6.9123159,1.7959687 7.0408745,1.5212313 7.1694327,1.2464661 7.0095058,1.1689177 6.869463,1.083085 6.6569247,0.95280462 6.5802064,0.90484481 6.3980818,0.81574112 6.2159572,0.72662675&#xD;&#xA;6.0445461,0.68206876 5.862421,0.62265866 5.771359,0.59294396 5.6856532,0.57623249 5.5945912,0.57159477 z M5.5338621,0.00024460927 C5.6169095,-0.0016898319 5.6974735,0.0078754456 5.7762776,0.02801118 6.1965785,0.13637481 6.6578117,0.27286371 7.025044,0.53331625 7.7463427,1.0428149 7.9471293,1.976681 8.0880947,2.7428206 8.2268009,3.5082269 8.1778097,4.4294596 8.0880947,5.3271466 7.9984231,6.2246428 7.8735609,7.1097971 7.9220405,7.9151831 7.9705153,8.7205115 8.0505667,8.9509306 8.6925373,9.3021679 9.1321316,9.5430985 9.475936,9.6391783 9.8857727,9.6391783 10.13929,9.6311789 10.50308,9.5962382&#xD;&#xA;10.766727,9.539959 11.199588,9.4058524 11.824298,9.3086758 12.536754,8.9304286 13.536493,8.5233765 14.583475,7.973003 15.565395,7.4409252 L15.583508,7.431079 15.578839,8.0472136 15.571116,8.0481692 C15.567704,8.0486107 15.56591,8.0488606 15.56591,8.0488606 15.56591,8.0488606 15.418986,8.0812178 15.158809,8.2827883 14.89863,8.484356 14.370622,8.665227 14.141053,8.8137618 13.911485,8.9622975 13.652833,8.8996983 13.637532,8.9845572 13.622228,9.0694275 13.721707,9.1527081 13.905363,9.6194983 14.00006,9.8601876 14.15976,10.234008 14.332114,10.593488 L14.350611,10.631307 13.593656,11.140563 13.594966,11.116823 C13.619525,10.640735 13.636154,9.8868561 13.642892,9.6455031 13.650544,9.3696633 13.506307,9.3484536 13.399144,9.2742148 13.292012,9.1999503 13.06895,9.379241 12.785812,9.6975079 12.502679,10.015766 12.151056,10.113376 12.151056,10.113376 12.151056,10.113376 11.683884,10.187186 11.393095,10.176486 11.10231,10.165877 10.951183,10.216794 10.844044,10.280454 10.73692,10.344105 10.827614,10.41996 10.927084,10.833704 11.026562,11.247451 11.463892,12.191112&#xD;&#xA;11.754678,12.679121 12.045467,13.167114 12.5509,13.168184 13.048301,12.849918 13.328089,12.670894 13.452916,12.340984 13.514035,12.009165 L13.53098,11.900014 15.965843,12.706365 16.83536,15.698883 16.72768,15.71777 C15.876629,15.894877 14.856483,16.481886 13.744674,17.071703 12.466493,17.74968 11.109414,18.485092 10.276271,18.750029 9.1322699,19.113867 8.6505194,19.068863 7.9863229,18.842859 7.3287888,18.619213 6.5072355,18.167524 5.1071468,17.844032 4.0245128,17.593866 2.7578807,17.791714 1.8644631,17.663132 0.97104491,17.53455 0.1453753,16.654215 0.14537528,16.654215 0.1453753,16.654215 0.14720876,16.289349 0.23263597,15.757266 0.23428595,15.727615 0.23428595,15.697816&#xD;&#xA;0.23263597,15.668165 0.23368594,15.653656 0.23158592,15.638045 0.23263597,15.623606 L0.23263597,15.579045 C0.2597601,15.150003 0.1587178,14.71832 0.037119716,14.309165 0.019637319,14.249661 0.022714527,14.185288 0.0023015148,14.127228 0.00020347915,14.114167 0.0075264952,14.102978 0.0023015148,14.082667 -0.0008255231,14.075427 0.0085814979,14.034397 0.0023015148,14.034397 -0.0029235275,14.012637 0.0023954138,13.99013 0.0023015148,13.989838 0.264033,12.956014 0.37656967,11.822312 0.20049569,10.633187 -0.062558935,8.8564063 0.22983885,7.1359211 0.95309885,5.4645401 1.6763179,3.7930811 2.8360229,2.1854837&#xD;&#xA;4.2554464,0.74888914 4.7674761,0.23295876 5.1739884,0.0086290309 5.5338621,0.00024460927 z" fill="#FFFFFF"/>
  <path d="M20.726074,20.126892 L22.457031,21.474609 24.548828,20.812378 23.802246,22.875427 25.078613,24.660156 22.885742,24.587524 21.58252,26.352722 20.974121,24.244751 18.892578,23.551025 20.709473,22.320862 z M15.208496,11.244446 L11.730957,15.064758 13.368652,16.415405 16.699219,12.551331 z M15.049316,10.231018 L17.664551,12.570435 3.0966797,29.972961 0,27.203186 z M23.584473,9.9259033 L25.57666,11.476379 27.98291,10.714478 27.124023,13.088074 28.592285,15.141357 26.069336,15.057739 24.570313,17.088623 23.870117,14.663452 21.475586,13.865295 23.56543,12.450012 z M4.2294922,0.92919922 L6.5839844,2.762085 9.4291992,1.8614502 8.4135742,4.6672363 10.148926,7.0944824 7.1669922,6.9956665 5.3945313,9.3964233 4.5668945,6.529541 1.7363281,5.5860596 4.2070313,3.9130554 z M15.736328,0 L18.473145,2.1300964 21.779297,1.0834045 20.599121,4.3442078 22.616211,7.1650391 19.149902,7.0502319 17.09082,9.840271 16.128906,6.5085144 12.838867,5.4120178 15.710449,3.4677124 z" fill="White" stroke-width="9"/>
</svg>