<?xml version="1.0" encoding="UTF-8"?>
<svg xmlns="http://www.w3.org/2000/svg" width="32" height="32" viewBox="0 0 32 32">
  <title>VirtualGingivaDesignMode.ExpertMode.Parameter</title>
  <path d="M8.3266478,10.190048 C8.2719804,10.19537 8.2767192,10.252756 8.2595015,10.555109 8.2365447,10.958247 8.3888255,11.223999 8.564827,11.97723 8.7408314,12.730466 9.3220225,12.793057 9.5209809,12.771836 9.7199412,12.750618 10.040573,12.45357 10.254837,11.954951 10.469101,11.456333 10.60684,10.779477 10.6298,10.66279 10.652757,10.546097 10.57624,10.419319 10.469101,10.376879 10.361969,10.33452 10.293481,10.374299 10.102173,10.395519 9.9108659,10.416739 9.8741351,10.373779&#xD;&#xA;9.491521,10.310119 9.491521,10.310119 9.3151341,10.31342 9.0549565,10.302719 8.7947789,10.292114 8.5418702,10.205745 8.4041301,10.194938 8.3696929,10.192286 8.3448697,10.188275 8.3266478,10.190048 z M6.3105579,9.6815273 C6.2863575,9.6792986 6.2645488,9.6848442 6.2454181,9.6973783 6.2071548,9.7225858 6.1788431,9.7758829 6.1597119,9.8607618 6.1214514,10.030502 6.2220779,10.700985 6.2373834,10.944988 6.2526875,11.188995 6.3135234,12.311461 6.711443,12.459897 7.1093617,12.608421 7.3699222,12.165501 7.6301003,11.69871 7.8902784,11.231918 8.1715022,10.212943 8.1791526,10.053801 8.1868048,9.8946811 8.1274997,9.979541 8.0050631,9.979541 7.8826266,9.979541 7.736085,10.001501&#xD;&#xA;7.2845994,9.990801 7.2845994,9.990801 6.5048304,9.7865688 6.3900462,9.7123186 6.3613501,9.6937591 6.3347584,9.683756 6.3105579,9.6815273 z M4.5037108,9.4470703 C4.4106732,9.4453613 4.339232,9.4608909 4.3009701,9.5006792 4.2397524,9.5643331 4.3323451,10.779049 4.3706065,11.097315 4.4088679,11.415582 4.7019506,11.802269 4.954476,11.86593 5.2070018,11.929582 5.6003299,11.330716 5.7686802,10.800267 5.9370313,10.269822 5.9894491,9.6746742 6.0124059,9.5897934 6.0353628,9.5049297 5.9902144,9.5043937 5.8677774,9.5043937 5.7453404,9.5043937 5.5655123,9.5182134 5.1446357,9.4969942 5.1446362,9.4969942 4.8756576,9.4990942&#xD;&#xA;4.6920024,9.4672491 4.6231318,9.4553272 4.5595337,9.4480964 4.5037108,9.4470703 z M13.353643,9.2580272 C13.235306,9.2469446 13.033556,9.4190246 12.785811,9.697508 12.502677,10.015766 12.151054,10.113376 12.151054,10.113376 12.151054,10.113376 11.683883,10.187186 11.393094,10.176486 11.102309,10.165878 10.951182,10.216794 10.844043,10.280454 10.736919,10.344105 10.827613,10.41996 10.927083,10.833704 11.026561,11.247451 11.463891,12.191112 11.754677,12.679121 12.045466,13.167114 12.550899,13.168184 13.048299,12.849919 13.5457,12.531653 13.55335,11.736515&#xD;&#xA;13.58396,11.30155 13.61457,10.866588 13.63519,9.9213354 13.64289,9.6455032 13.650542,9.3696634 13.506305,9.3484537 13.399142,9.2742149 13.385751,9.2649318 13.370548,9.2596103 13.353643,9.2580272 z M3.7471331,8.7014801 C3.556649,8.710211 3.2631233,8.7914325 3.1787575,8.895404 3.0823379,9.0142223 2.9859193,9.4746486 2.9644933,9.6677305 2.9430702,9.8608124 2.8252218,11.011865 2.9377101,11.093565 3.0501986,11.175286 3.1037648,11.323799 3.462657,11.078736 3.8215497,10.833666 3.9179688,10.388094 4.1536599,9.5934898 L4.1429506,9.61578 C4.1429506,9.61578 4.2649904,9.2339098 4.3679281,9.16278 4.4936071,9.0759594 4.688923,9.1955797 4.9035884,9.1108095 4.9773503,9.0816833 4.9517976,9.0513965 4.7268205,8.9400141 4.501843,8.8286306 3.9983221,8.7172052 3.82155,8.7023222 3.799454,8.7004654 3.774345,8.7002336 3.7471331,8.7014801 z M15.820348,8.0302307 C15.680698,8.0328905 15.565909,8.0488607 15.565909,8.0488607 15.565909,8.0488607 15.418984,8.0812179 15.158807,8.2827884 14.898628,8.4843561 14.37062,8.6652271 14.141051,8.8137619 13.911483,8.9622976 13.652831,8.8996984 13.63753,8.9845573 13.622226,9.0694277 13.721706,9.1527082 13.905361,9.6194984 14.089016,10.08629 14.517161,11.053822 14.807948,11.446349 15.098735,11.838873 15.695614,12.071207 15.986403,12.018168 16.277187,11.965124 16.597433,11.583204&#xD;&#xA;16.712223,11.275545 16.826992,10.967888 16.811323,10.448054 16.811323,10.087351 16.811323,9.7266485 16.688877,9.1113331 16.597057,8.7506305 16.505232,8.389928 16.397713,8.2318756 16.21406,8.1045515 16.122234,8.0410015 15.960006,8.0276014 15.820348,8.0302307 z M2.90547,7.1891524 C2.8759456,7.1895277 2.8463169,7.1916134 2.81719,7.1948592 2.7006846,7.2078387 2.5922127,7.2393986 2.5252553,7.2616884 2.3913403,7.3062445 1.8985327,7.6107151 1.8342535,7.7295405 1.7699743,7.8483583 1.6896255,8.0934231 1.6092759,8.6578161 1.528927,9.2222091 1.3146631,10.039091 1.3521593,10.469813 1.3896552,10.900528 1.6199895,10.848548 1.8288968,10.811419 2.0378047,10.774286 2.3217047,10.350993 2.7823723,9.3781597 2.7823728,9.3781511 2.9859238,8.7692081&#xD;&#xA;3.2109009,8.6132585 3.4358786,8.4572717 3.6715692,8.4721519 3.9768961,8.4424431 4.2822219,8.4127399 4.2179433,8.3161957 4.2179433,8.1825248 4.2179433,8.0488512 3.9983218,7.8632018 3.8644071,7.7221023 3.7304919,7.5810038 3.3394595,7.3656503 3.1519786,7.2468254 3.0816732,7.2022979 2.9940422,7.1880275 2.90547,7.1891524 z M18.675421,6.6230327 C18.675421,6.6230327 18.507446,6.646373 18.415627,6.6675932 18.323797,6.6888119 17.834816,6.8686434 17.628203,6.9535033 17.421593,7.0383732 16.946768,7.2924535 16.763111,7.3136737 16.579458,7.3348905 16.379337,7.3046514 16.310478,7.4956109 16.241608,7.6865684 16.425644,7.7693197 16.586344,7.9708859 16.747042,8.172455 16.778034,8.5968096 16.915773,8.8620331 17.053516,9.1272547 17.521071,10.050759 17.842466,10.581204 18.163862,11.111656 18.766865,11.35564&#xD;&#xA;19.149479,11.249561 19.532093,11.143477 19.593313,10.879842 19.738707,10.466096 19.884094,10.05235 19.884094,9.562751 19.899405,9.1702205 19.914707,8.7776939 19.832836,8.2891533 19.786917,7.8966262 19.741005,7.5040971 19.601339,7.2394144 19.532478,7.0908801 19.46361,6.9423672 19.103949,6.7938325 19.103949,6.7938325 z M3.2467237,5.5102698 C3.1975101,5.50725 3.1479614,5.5174572 3.087699,5.5388076 2.9671756,5.5815174 2.803799,5.668781 2.5145419,5.776456 2.5145422,5.776456 2.3324176,5.9324176 2.2199291,6.0437996 2.1074405,6.155194 1.9467422,6.6304719 1.8931764,6.9052417 1.8396102,7.18001 1.5557093,7.4919159 1.6574854,7.4622061 1.7592612,7.4325029 2.1342238,7.1725861 2.2681382,7.113176 2.4020537,7.053765 2.6484576,6.9572427 2.9323581,6.8458306 3.2162579,6.7344429 3.3501728,6.7715823&#xD;&#xA;3.62336,6.6898829 3.8965474,6.6081931 3.9447559,6.4968096 4.014392,6.3705556 4.0840278,6.2443101 3.9768959,6.140341 3.848337,5.9175565 3.7197788,5.6947676 3.6394296,5.6873528 3.4037395,5.5610973 3.3448163,5.5295374 3.2959376,5.5132896 3.2467237,5.5102698 z M22.660911,4.9328749 C22.660911,4.9328749 21.19901,6.3374914 21.19901,6.3374914 21.19901,6.3374914 20.625131,5.680799 20.527398,5.755149 20.310359,5.9203711 19.823397,6.0454284 19.722637,6.0660679 19.621872,6.0867058 18.784981,6.3044783 18.924503,6.4076745 19.064028,6.5108654 19.420872,6.615081 19.591402,6.8421084 19.761929,7.0691349 19.931324,7.5852648 20.218123,8.1528312 20.504925,8.7204057 21.313046,9.162758 21.592093,9.2556278 21.871142,9.3485128 22.744803,9.2870685&#xD;&#xA;22.992846,9.1219579 23.240891,8.9568435 23.666946,8.5944015 23.790979,8.3570558 23.914995,8.1197073 23.930485,7.7508017 23.938286,7.3173863 23.946037,6.8839714 23.816176,6.3892504 23.699917,6.1106278 23.583649,5.8320042 23.451805,5.4992491 23.405304,5.3754312 23.358797,5.2516119 23.102467,5.1403033 22.877678,5.0783831 22.849579,5.0706412 22.660911,4.9328749 22.660911,4.9328749 z M3.4037395,4.4174978 C3.1578725,4.4484379 3.079455,4.5254413 2.8680781,4.7888109 2.6567019,5.0521805 2.4621597,5.223654 2.3538445,5.7022359 2.3219054,5.795705 2.4877585,5.672506 2.5895353,5.620536 2.6913105,5.5685531 3.0823427,5.3754865 3.2323271,5.3457667 3.3823126,5.3160407 3.4465917,5.3977362 3.7358485,5.4348661 4.0251051,5.4719664 4.3786412,5.4719764 4.662541,5.4422662 4.9464408,5.4125625 4.957151,5.1972119 4.9625107,5.0486771 4.9678674,4.9001538 4.6143318,4.7219097&#xD;&#xA;4.4214941,4.6328103 4.2286564,4.5437023 3.6233598,4.4471666 3.4037395,4.4174978 z M24.314078,3.3587072 C24.314078,3.3587072 23.091051,4.5176092 23.091051,4.5176092 23.091051,4.5176092 23.025265,4.7363867 23.209789,4.7924515 23.384214,4.8454496 23.484346,5.3356206 23.745449,5.6687481 24.157171,6.1940419 24.885601,6.7269379 25.405996,6.6972777 25.991489,6.6639148 26.490124,6.1761429 26.814783,5.9360916 27.139439,5.6960398 26.895625,5.6680848 26.697562,4.6813981 26.486076,3.6278534 26.171905,2.9188437 25.663737,2.8805394 25.523345,2.8699717 24.314078,3.3587072&#xD;&#xA;24.314078,3.3587072 z M4.3963743,2.4553234 C4.2409597,2.4555451 4.0706363,2.4764327 3.9233299,2.5089163 3.9233297,2.5089161 3.8161975,2.5608901 3.6769257,2.7094244 3.5376542,2.857948 3.4412351,3.1104387 3.3126767,3.3406512 3.1841183,3.5708663 2.809156,4.0238663 2.7288068,4.1649601 2.6484576,4.3060576 2.4824062,4.8333108 2.4770463,4.9595653 2.4716895,5.0858175 2.6645272,4.9224421 2.7341629,4.8036167 2.803799,4.6847984 3.0930558,4.3803097 3.1466225,4.3283397 3.200188,4.2763797 3.403739,4.2763797&#xD;&#xA;3.6929956,4.2912099 3.9822524,4.3060595 4.1858035,4.2837698 4.6036187,4.3506195 5.0214334,4.4174296 5.6106601,4.3580395 5.8195678,4.3209097 6.0284763,4.2837788 6.0766845,3.9124636 6.1463209,3.5931374 6.2159563,3.2738098 6.0124059,3.0510232 5.8731342,2.8282375 5.733862,2.6054596 5.6053038,2.6054596 5.3803263,2.538614 5.1553488,2.4717938 4.8500224,2.523761 4.6518279,2.4792039 4.5775047,2.4624976 4.4896231,2.4551908 4.3963743,2.4553234 z M5.5945907,0.57159434 C5.5035282,0.56695657 5.4071093,0.57439224 5.2946211,0.59297125 5.0696436,0.63010155 4.9946504,0.88259624 4.7643166,1.1499359 4.7643166,1.1499392 4.3679276,1.536096 4.2554389,1.6549213 4.1429506,1.7737383 3.7733446,2.0930626 3.6072899,2.2564444 3.4412354,2.4198212 3.1778081,2.7817413 3.0448466,3.1178865 2.9537843,3.3481006 3.095646,3.3137774 3.2805377,3.0807556 3.4573048,2.8579675 3.4680184,2.7391485 3.6876395,2.5312142 3.9072598,2.3232941 4.0090352,2.3678409&#xD;&#xA;4.2286564,2.3455517 4.4482771,2.3232531 4.5768352,2.3010155 4.8393093,2.3084213 5.1017829,2.3158371 5.3642565,2.3381054 5.6427999,2.3603942 5.9213434,2.3826625 5.8999167,2.3529371 6.2695227,2.3381056 6.4730731,2.323255 6.5427094,2.2489919 6.6926943,2.0707638 6.8426796,1.8925337 6.912315,1.7959687 7.0408736,1.5212313 7.1694318,1.2464661 7.0095049,1.1689177 6.8694621,1.083085 6.6569238,0.95280449 6.5802055,0.90484469 6.3980809,0.81574075 6.2159563,0.72662662&#xD;&#xA;6.0445452,0.68206863 5.8624206,0.62265883 5.7713586,0.59294383 5.6856528,0.57623236 5.5945907,0.57159434 z M5.5338617,0.0002446461 C5.6169091,-0.0016899535 5.6974731,0.007875324 5.7762767,0.028011045 6.1965776,0.13637468 6.6578108,0.27286358 7.0250431,0.53331636 7.7463418,1.0428148 7.9471284,1.976681 8.0880938,2.7428204 8.2268,3.5082268 8.1778088,4.4294597 8.0880938,5.3271467 7.9984222,6.2246429 7.87356,7.1097972 7.9220396,7.9151832 7.9705144,8.7205116 8.0505658,8.9509308 8.6925364,9.3021681 9.1321307,9.5430986 9.4759351,9.6391784 9.8857718,9.6391784 10.139289,9.631179 10.503079,9.5962383&#xD;&#xA;10.766726,9.5399591 11.199587,9.4058525 11.824297,9.3086759 12.536752,8.9304287 14.821871,8.000025 17.353806,6.3208353 18.79147,5.822859 19.412567,5.552961 20.118554,5.1964455 20.118554,5.1964455 L20.638342,5.7516396 21.223417,6.3328749 C21.735716,5.8408321 22.477078,5.108879 22.989377,4.6168362 23.636958,3.9948606 24.284538,3.3728851 24.932118,2.7509095 24.932118,2.7509095 25.335901,2.320375 25.335901,2.320375 L29.378057,6.43528 C29.378057,6.43528 30.981124,4.7719357 31.022668,4.8371003 31.244243,5.1846492 31.362225,5.3568908 31.272856,6.4305636 31.183479,7.504235 31.286776,8.2216617 31.061819,8.9714176 30.422464,11.102314 29.821133,12.373758 28.236969,13.443998 27.689823,13.813616 27.786967,13.76853 27.068129,14.032096 L22.888792,12.656956 13.325013,15.833017 13.400013,17.233017 C12.121832,17.910993 11.109413,18.485092 10.27627,18.750029 9.132269,19.113867 8.6505185,19.068863 7.9863215,18.842859 7.3287879,18.619213 6.5072346,18.167525 5.1071463,17.844032 4.0245124,17.593867 2.7578805,17.791714 1.8644627,17.663132 0.97104485,17.53455 0.14537535,16.654215 0.14537549,16.654215 0.14537535,16.654215 0.14720881,16.289349 0.23263612,15.757266 0.23428598,15.727616 0.23428598,15.697816 0.23263612,15.668165 0.23368598,15.653656 0.23158596,15.638045&#xD;&#xA;0.23263612,15.623606 L0.23263612,15.579045 C0.25976012,15.150004 0.15871784,14.71832 0.037119955,14.309165 0.019637382,14.249661 0.022714589,14.185288 0.0023013867,14.127228 0.00020354399,14.114167 0.0075265589,14.102978 0.0023013867,14.082668 -0.00082545811,14.075427 0.0085815616,14.034397 0.0023013867,14.034397 -0.0029234624,14.012637 0.0023954784,13.99013 0.0023013867,13.989838 0.26403303,12.956014 0.37656967,11.822313 0.20049612,10.633187 -0.062558863,8.8564064 0.22983887,7.1359212 0.9530989,5.4645402 1.6763178,3.793081 2.8360227,2.1854836&#xD;&#xA;4.255446,0.74888884 4.7674757,0.23295863 5.1739879,0.0086289093 5.5338617,0.0002446461 z" fill="#FFFFFF"/>
</svg>