<?xml version="1.0" encoding="UTF-8"?>
<svg xmlns="http://www.w3.org/2000/svg" width="32.0" height="32.0" viewBox="0 0 32.0 32.0">
  <title>VirtualGingivaDesignMode.WizardRequired.Parameter</title>
  <path d="M20.726074,20.126892 L22.457031,21.474609 24.548828,20.812378 23.802246,22.875427 25.078613,24.660156 22.885742,24.587524 21.58252,26.352722 20.974121,24.244751 18.892578,23.551025 20.709473,22.320862 z M15.208496,11.244446 L11.730957,15.064758 13.368652,16.415405 16.699219,12.551331 z M15.049316,10.231018 L17.664551,12.570435 3.0966797,29.972961 0,27.203186 z M23.584473,9.9259033 L25.57666,11.476379 27.98291,10.714478 27.124023,13.088074 28.592285,15.141357 26.069336,15.057739 24.570313,17.088623 23.870117,14.663452 21.475586,13.865295 23.56543,12.450012 z M4.2294922,0.92919922 L6.5839844,2.762085 9.4291992,1.8614502 8.4135742,4.6672363 10.148926,7.0944824 7.1669922,6.9956665 5.3945313,9.3964233 4.5668945,6.529541 1.7363281,5.5860596 4.2070313,3.9130554 z M15.736328,0 L18.473145,2.1300964 21.779297,1.0834045 20.599121,4.3442078 22.616211,7.1650391 19.149902,7.0502319 17.09082,9.840271 16.128906,6.5085144 12.838867,5.4120178 15.710449,3.4677124 z" fill="White" stroke-width="9"/>
  <path d="M26.194534,13.284501 L28.362509,13.355881 28.236973,13.443997 C27.416254,13.998424 26.350048,14.428859 25.195355,14.749354 L25.084126,14.778821 z M21.335733,12.162466 L23.012327,12.717701 22.949566,13.020176 20.826626,15.216 20.501625,15.5035 C18.980314,15.627195 17.971218,15.610437 17.081839,15.66815 L17.037357,15.672764 18.858757,13.221638 22.176506,13.330872 z M8.3266488,10.190048 C8.2719813,10.19537 8.2767201,10.252756 8.2595025,10.555109 8.2365456,10.958247 8.3888264,11.223999 8.564828,11.97723 8.7408324,12.730466 9.3220234,12.793057 9.5209818,12.771836 9.7199421,12.750618 10.040574,12.453569 10.254838,11.954951 10.469102,11.456333 10.606841,10.779477 10.629801,10.66279 10.652758,10.546097 10.576241,10.419319 10.469102,10.376879 10.36197,10.334519 10.293482,10.374299 10.102174,10.395519 9.9108668,10.416739 9.874136,10.373779&#xD;&#xA;9.4915219,10.310119 9.4915219,10.310119 9.3151351,10.313419 9.0549574,10.302719 8.7947798,10.292114 8.5418711,10.205745 8.404131,10.194938 8.3696938,10.192285 8.3448706,10.188274 8.3266488,10.190048 z M6.3105589,9.6815271 C6.2863584,9.6792983 6.2645498,9.6848439 6.2454191,9.6973781 6.2071558,9.7225856 6.178844,9.7758826 6.1597128,9.8607616 6.1214524,10.030502 6.2220789,10.700985 6.2373844,10.944988 6.2526885,11.188994 6.3135243,12.311461 6.711444,12.459897 7.1093627,12.608421 7.3699232,12.165501 7.6301013,11.69871 7.8902793,11.231917 8.1715031,10.212943 8.1791535,10.0538 8.1868058,9.8946809 8.1275006,9.9795407 8.0050641,9.9795407 7.8826275,9.9795407 7.7360859,10.001501&#xD;&#xA;7.2846003,9.9908008 7.2846003,9.9908008 6.5048314,9.7865686 6.3900471,9.7123183 6.3613511,9.6937589 6.3347593,9.6837558 6.3105589,9.6815271 z M4.5037113,9.44707 C4.4106737,9.4453611 4.3392325,9.4608907 4.3009706,9.5006789 4.2397528,9.5643329 4.3323455,10.779049 4.370607,11.097315 4.4088684,11.415582 4.7019511,11.802269 4.9544764,11.86593 5.2070022,11.929582 5.6003304,11.330716 5.7686806,10.800267 5.9370318,10.269822 5.9894496,9.6746739 6.0124069,9.5897931 6.0353637,9.5049295 5.9902149,9.5043935 5.8677779,9.5043935 5.7453409,9.5043935 5.5655127,9.5182132 5.1446362,9.4969939 5.1446367,9.4969939 4.8756581,9.4990939&#xD;&#xA;4.6920028,9.4672488 4.6231323,9.4553269 4.5595341,9.4480962 4.5037113,9.44707 z M20.893175,8.8705825 L20.959116,8.917755 C21.214235,9.091771 21.46129,9.2120952 21.592094,9.2556275 21.76214,9.3122291 22.152987,9.3115234 22.488518,9.2649726 L22.574062,9.2506818 22.571899,9.5360984 20.46555,10.953184 20.245726,10.6477 z M3.7471335,8.7014798 C3.5566495,8.7102107 3.2631238,8.7914323 3.1787582,8.8954038 3.0823384,9.0142221 2.9859195,9.4746484 2.9644936,9.6677302 2.9430705,9.8608121 2.8252221,11.011865 2.9377106,11.093565 3.0501991,11.175285 3.1037653,11.323799 3.462658,11.078735 3.8215502,10.833666 3.9179693,10.388094 4.1536604,9.5934896 L4.1429511,9.6157798 C4.1429511,9.6157798 4.2649909,9.2339095 4.3679286,9.1627797 4.4936076,9.0759591 4.6889234,9.1955794 4.9035888,9.1108092 4.9773508,9.0816831 4.951798,9.0513963 4.726821,8.9400138 4.5018435,8.8286304 3.9983225,8.717205 3.8215502,8.7023219 3.7994545,8.7004651 3.7743455,8.7002334 3.7471335,8.7014798 z M2.9054702,7.1891526 C2.8759459,7.1895274 2.8463171,7.1916131 2.8171907,7.1948589 2.7006848,7.2078384 2.592213,7.2393984 2.5252555,7.2616881 2.3913405,7.3062443 1.8985329,7.6107148 1.834254,7.7295403 1.7699745,7.8483581 1.6896257,8.0934228 1.6092766,8.6578158 1.5289273,9.2222089 1.3146632,10.039091 1.3521593,10.469812 1.3896553,10.900528 1.6199897,10.848548 1.8288968,10.811418 2.0378049,10.774286 2.3217049,10.350993 2.7823728,9.3781594 2.782373,9.3781509 2.9859241,8.7692079&#xD;&#xA;3.2109018,8.6132583 3.435879,8.4572715 3.6715696,8.4721517 3.9768963,8.4424428 4.2822223,8.4127397 4.2179437,8.3161954 4.2179437,8.1825246 4.2179437,8.0488509 3.9983223,7.8632015 3.8644074,7.7221021 3.7304924,7.5810036 3.33946,7.3656501 3.151979,7.2468251 3.0816737,7.2022976 2.9940425,7.1880273 2.9054702,7.1891526 z M3.2467239,5.5102696 C3.1975105,5.5072497 3.1479619,5.5174569 3.0876999,5.5388073 2.9671758,5.5815171 2.8037992,5.6687807 2.5145426,5.7764558 2.5145424,5.7764558 2.3324178,5.9324173 2.2199293,6.0437988 2.1074408,6.1551937 1.9467425,6.6304716 1.8931768,6.9052414 1.8396104,7.1800098 1.5557095,7.4919156 1.657486,7.4622058 1.7592614,7.4325027 2.134224,7.1725859 2.2681382,7.1131758 2.4020539,7.0537647 2.6484578,6.9572424 2.9323583,6.8458304 3.2162583,6.7344426 3.3501733,6.771582&#xD;&#xA;3.6233602,6.6898827 3.8965478,6.6081928 3.9447563,6.4968094 4.0143924,6.3705553 4.0840283,6.2443098 3.9768963,6.1403407 3.8483377,5.9175562 3.7197793,5.6947674 3.6394301,5.6873526 3.4037395,5.5610971 3.3448167,5.5295371 3.2959381,5.5132894 3.2467239,5.5102696 z M3.4037395,4.4174975 C3.157873,4.4484376 3.0794554,4.5254411 2.8680788,4.7888106 2.6567021,5.0521802 2.4621599,5.2236537 2.3538447,5.7022356 2.3219057,5.7957048 2.4877587,5.6725058 2.5895351,5.6205358 2.6913107,5.5685529 3.0823432,5.3754863 3.2323282,5.3457665 3.3823131,5.3160404 3.4465921,5.397736 3.7358487,5.4348659 4.0251055,5.4719662 4.3786417,5.4719762 4.6625414,5.4422659 4.9464412,5.4125623 4.9571515,5.1972117 4.9625111,5.0486769 4.9678679,4.9001536 4.6143323,4.7219094&#xD;&#xA;4.4214945,4.63281 4.2286568,4.543702 3.6233602,4.4471664 3.4037395,4.4174975 z M21.644661,4.1929616 L22.659174,5.0680861 22.6301,5.0696582 C22.323546,5.092276 21.900101,5.1897706 21.900101,5.1897706 21.900101,5.1897706 21.529612,5.2829894 21.359083,5.3345794 21.188555,5.3861751 20.53694,5.7264346 20.319902,5.8915462 20.102863,6.0567683 19.823399,6.0454282 19.722639,6.0660676 19.621874,6.0867056 18.784983,6.3044781 18.924505,6.4076742 19.06403,6.5108651 19.420874,6.6150807 19.591404,6.8421082 19.719299,7.0123781 19.846558,7.3452686 20.023186,7.7405142 L20.115622,7.9423789 19.804609,8.0401935 19.786919,7.8966259 C19.741007,7.5040969 19.601341,7.2394141 19.53248,7.0908798 19.463612,6.942367 19.103951,6.7938322 19.103951,6.7938322 L18.675423,6.6230325 C18.675423,6.6230325 18.507448,6.6463727 18.415628,6.6675929 18.323799,6.6888117 17.834818,6.8686432 17.628204,6.953503 17.421595,7.0383729 16.94677,7.2924532 16.763113,7.3136734 16.740156,7.3163256 16.716942,7.3181738 16.69376,7.3197502 L16.635119,7.3235215 16.28252,7.0508074 16.388491,6.9931091 C17.324064,6.4846796 18.162493,6.0407232 18.791472,5.8228587 19.878391,5.3505372 20.719555,4.8306603 21.495071,4.2972716 z M27.811398,2.7012776 L27.816437,2.704878 C28.266186,3.0145458 28.513134,3.0573539 29.072519,3.4069046 29.76749,3.8411817 30.493136,4.0311979 30.71471,4.3787426 30.936285,4.7262916 31.362228,5.3568906 31.27286,6.4305634 31.183483,7.5042347 31.286779,8.2216615 31.061823,8.9714173 30.612276,10.469704 30.181528,11.54309 29.414715,12.420393 L29.258698,12.591192 27.7202,10.45317 28.963202,7.0413818 25.481003,8.1365384 23.911783,6.9228405 23.896927,6.8185596 C23.850555,6.5433191 23.772581,6.2847666 23.699919,6.1106276 23.670853,6.0409717 23.640812,5.9679326 23.611374,5.8956207 L23.607538,5.8861512 24.688387,6.8184971 25.065586,6.8184971 25.162024,6.6738938 25.202126,6.6831435 C25.272652,6.6959027 25.34095,6.7009849 25.406,6.6972775 25.991493,6.6639146 26.490128,6.1761426 26.814787,5.9360913 27.139442,5.6960396 27.243185,5.4041142 27.045122,4.4174275 27.018686,4.2857346 26.990646,4.1594247 26.960823,4.0391358 L26.94907,3.9942984 z M4.3963748,2.4553236 C4.2409602,2.4555451 4.0706368,2.4764327 3.9233301,2.5089156 3.9233301,2.5089161 3.8161979,2.5608901 3.676926,2.7094242 3.5376547,2.857948 3.4412356,3.1104387 3.312677,3.3406517 3.1841188,3.5708663 2.8091562,4.0238661 2.7288066,4.1649598 2.6484578,4.3060574 2.4824064,4.8333105 2.4770461,4.9595651 2.4716898,5.0858173 2.6645275,4.9224419 2.7341633,4.8036164 2.8037992,4.6847982 3.0930563,4.3803095 3.1466222,4.3283395 3.2001885,4.2763795 3.4037395,4.2763795&#xD;&#xA;3.6929966,4.2912096 3.9822529,4.3060593 4.1858039,4.2837695 4.6036192,4.3506192 5.0214339,4.4174294 5.6106606,4.3580393 5.8195682,4.3209094 6.0284772,4.2837786 6.0766855,3.9124636 6.1463218,3.5931379 6.2159572,3.2738098 6.0124069,3.0510232 5.8731347,2.8282374 5.7338625,2.6054596 5.6053043,2.6054596 5.3803268,2.5386139 5.1553493,2.4717938 4.8500228,2.5237609 4.6518283,2.4792036 4.5775052,2.4624976 4.4896236,2.4551908 4.3963748,2.4553236 z M5.5945912,0.57159445 C5.5035286,0.56695655 5.4071098,0.57439223 5.2946215,0.59297195 5.069644,0.63010154 4.9946509,0.88259623 4.7643171,1.1499361 4.7643171,1.1499391 4.3679281,1.5360959 4.2554393,1.6549212 4.1429511,1.7737382 3.773345,2.0930626 3.6072901,2.2564446 3.4412358,2.4198212 3.1778086,2.7817413 3.0448466,3.1178865 2.9537845,3.3481006 3.0956464,3.3137774 3.2805377,3.0807554 3.4573052,2.8579675 3.4680188,2.7391485 3.6876398,2.5312146 3.9072602,2.3232941 4.0090356,2.3678409&#xD;&#xA;4.2286568,2.3455519 4.4482775,2.3232531 4.5768357,2.3010155 4.8393097,2.3084213 5.1017833,2.3158371 5.3642569,2.3381054 5.6428004,2.3603942 5.9213439,2.3826624 5.8999172,2.3529371 6.2695237,2.3381056 6.473074,2.323255 6.5427104,2.2489919 6.6926952,2.0707633 6.8426805,1.8925336 6.9123159,1.7959686 7.0408745,1.5212313 7.1694327,1.246466 7.0095058,1.1689176 6.869463,1.0830844 6.6569248,0.95280448 6.5802064,0.90484468 6.3980818,0.8157408 6.2159572,0.72662661&#xD;&#xA;6.0445462,0.68206862 5.8624206,0.62265858 5.771359,0.59294382 5.6856533,0.57623235 5.5945912,0.57159445 z M5.5338622,0.00024465135 C5.6169096,-0.0016899708 5.6974736,0.0078753067 5.7762776,0.028011024 6.1965786,0.13637467 6.6578117,0.27286357 7.025044,0.53331617 7.7463427,1.0428148 7.9471293,1.9766809 8.0880948,2.7428199 8.226801,3.5082268 8.1778098,4.4294595 8.0880948,5.3271464 7.9984232,6.2246427 7.873561,7.1097969 7.9220405,7.915183 7.9705153,8.7205114 8.0505667,8.9509305 8.6925374,9.3021678 9.1321316,9.5430984 9.475936,9.6391782 9.8857728,9.6391782 10.13929,9.6311788 10.50308,9.5962381&#xD;&#xA;10.766727,9.5399589 11.199588,9.4058522 11.824298,9.3086757 12.536754,8.9304284 13.536493,8.5233764 14.583475,7.9730028 15.565395,7.440925 L15.583508,7.4310788 15.578839,8.0472135 15.571116,8.0481691 C15.567704,8.0486106 15.56591,8.0488605 15.56591,8.0488605 15.56591,8.0488605 15.418986,8.0812177 15.158809,8.2827882 14.89863,8.4843558 14.370622,8.6652269 14.141053,8.8137616 13.911485,8.9622974 13.652833,8.8996982 13.637532,8.9845571 13.622228,9.0694274 13.721707,9.152708 13.905363,9.6194982 14.00006,9.8601874 14.15976,10.234008 14.332114,10.593488 L14.350611,10.631307 13.593656,11.140563 13.594966,11.116823 C13.619525,10.640735 13.636154,9.886856 13.642892,9.645503 13.650544,9.3696632 13.506307,9.3484534 13.399144,9.2742147 13.292012,9.1999501 13.06895,9.3792409 12.785812,9.6975078 12.502679,10.015766 12.151056,10.113376 12.151056,10.113376 12.151056,10.113376 11.683884,10.187186 11.393095,10.176486 11.10231,10.165877 10.951183,10.216794 10.844044,10.280454 10.73692,10.344105 10.827614,10.41996 10.927084,10.833704 11.026562,11.247451 11.463892,12.191111&#xD;&#xA;11.754678,12.679121 12.045467,13.167114 12.550901,13.168184 13.048301,12.849918 13.328089,12.670894 13.452916,12.340984 13.514035,12.009165 L13.53098,11.900014 15.965843,12.706365 16.83536,15.698883 16.72768,15.71777 C15.876629,15.894877 14.856483,16.481886 13.744674,17.071703 12.466493,17.749679 11.109414,18.485092 10.276271,18.750029 9.1322699,19.113867 8.6505194,19.068863 7.9863225,18.842859 7.3287888,18.619213 6.5072356,18.167524 5.1071468,17.844032 4.0245128,17.593866 2.7578807,17.791714 1.8644628,17.663132 0.97104495,17.53455 0.14537534,16.654215 0.14537543,16.654215 0.14537534,16.654215 0.1472088,16.289349 0.23263609,15.757266 0.23428599,15.727615 0.23428599,15.697816&#xD;&#xA;0.23263609,15.668165 0.23368598,15.653656 0.23158596,15.638045 0.23263609,15.623606 L0.23263609,15.579045 C0.25976014,15.150003 0.15871784,14.71832 0.037119808,14.309165 0.01963736,14.249661 0.022714567,14.185288 0.0023014348,14.127228 0.00020351972,14.114167 0.0075265358,14.102978 0.0023014348,14.082667 -0.00082548253,14.075427 0.0085815385,14.034397 0.0023014348,14.034397 -0.002923487,14.012637 0.0023954543,13.99013 0.0023014348,13.989838 0.26403304,12.956014 0.37656971,11.822312 0.20049582,10.633187 -0.062558894,8.8564061 0.22983889,7.1359209 0.95309877,5.4645399 1.676318,3.793081 2.8360229,2.1854836&#xD;&#xA;4.2554465,0.748889 4.7674761,0.23295862 5.1739884,0.008628892 5.5338622,0.00024465135 z" fill="#FFFFFF"/>
</svg>