<?xml version="1.0" encoding="utf-8"?>
<!-- Generator: Adobe Illustrator 22.1.0, SVG Export Plug-In . SVG Version: 6.00 Build 0)  -->
<!DOCTYPE svg PUBLIC "-//W3C//DTD SVG 1.0//EN" "http://www.w3.org/TR/2001/REC-SVG-20010904/DTD/svg10.dtd">
<svg version="1.0" id="Layer_1" xmlns="http://www.w3.org/2000/svg" xmlns:xlink="http://www.w3.org/1999/xlink" x="0px" y="0px"
	 viewBox="0 0 170 170" style="enable-background:new 0 0 170 170;" xml:space="preserve">
<style type="text/css">
	.st0{fill:#004B6C;}
</style>
<g>
	<path class="st0" d="M150.8,125.1l-5.6-2.2c5.5-13.6,8.1-27.8,7.8-42.3c-0.3-13-2.9-25.7-7.8-37.9l5.6-2.2
		c5.2,12.8,7.9,26.3,8.2,40C159.3,95.7,156.5,110.7,150.8,125.1z"/>
	<g>
		<polygon class="st0" points="141.4,54 149.4,45 161.4,44.4 140,25.5 		"/>
	</g>
	<g>
		<polygon class="st0" points="141.3,111.5 149.3,120.5 161.4,121.1 140,140 		"/>
	</g>
</g>
<g>
	<path class="st0" d="M83.5,104.5c-18.2,0-62.2-1.7-78.2-17.9c-2.5-2.5-3.8-5.1-3.8-7.3c0.1-8.8,15.2-14.6,27.9-18l1.5,5.7
		C12.4,71.9,7.5,77.2,7.5,79.3c0.2,3.1,14.5,19.2,76,19.2c34,0,53-4.9,63.1-9.1c11.7-4.8,14.4-9.9,14.5-10.8
		c-0.1-0.9-1.5-5.8-23.5-11.2l1.4-5.8c18.6,4.6,27.5,9.9,28,16.6c0.2,2.2-1.1,4.8-3.5,7.4C158.2,91.3,139.9,104.5,83.5,104.5z"/>
	<g>
		<polygon class="st0" points="19.7,55.4 26.6,65.1 24.4,76.9 47.5,60.5 		"/>
	</g>
	<g>
		<polygon class="st0" points="148.7,55.6 141.8,65.4 144.1,77.1 120.9,61 		"/>
	</g>
</g>
<g>
	<polygon class="st0" points="87,147.6 81,147.6 81,21.4 87,21.4 87,147.6 	"/>
	<g>
		<polygon class="st0" points="95.1,139.2 84,143.9 72.9,139.2 84,165.5 95.1,139.2 		"/>
	</g>
	<g>
		<polygon class="st0" points="95.1,29.8 84,25.1 72.9,29.8 84,3.5 95.1,29.8 		"/>
	</g>
</g>
<g>
	<path class="st0" d="M14.4,124.3c-4-13.2-5.6-26.9-4.7-40.6c1-15.2,5.1-30,12.1-43.8l5.4,2.7c-6.6,13.1-10.5,27-11.4,41.5
		c-0.9,13,0.6,25.9,4.4,38.5L14.4,124.3z"/>
	<g>
		<polygon class="st0" points="25,111.5 16.3,119.9 4.2,119.4 23.9,140.1 		"/>
	</g>
	<g>
		<polygon class="st0" points="30,54.3 22.9,44.6 10.9,43 33.9,26 		"/>
	</g>
</g>
<g>
	<rect x="35.2" y="81.3" transform="matrix(0.6709 -0.7415 0.7415 0.6709 -35.8254 87.9424)" class="st0" width="91.9" height="6"/>
	<g>
		<polygon class="st0" points="64.2,119.6 52.8,115.6 47.8,104.7 38.3,131.7 		"/>
	</g>
	<g>
		<polygon class="st0" points="114.6,64 109.5,53 98.1,49.1 124,37 		"/>
	</g>
</g>
<g>
	
		<rect x="81.5" y="46.1" transform="matrix(1.201391e-02 -0.9999 0.9999 1.201391e-02 -0.176 167.1551)" class="st0" width="6" height="75.2"/>
	<g>
		<polygon class="st0" points="55.2,94.4 50.6,83.3 55.5,72.2 29,83 		"/>
	</g>
	<g>
		<polygon class="st0" points="113.5,95.1 118.4,84.1 113.8,72.9 140,84.3 		"/>
	</g>
</g>
<g>
</g>
<g>
</g>
<g>
</g>
<g>
</g>
<g>
</g>
<g>
</g>
<g>
</g>
</svg>
