<?xml version="1.0" encoding="utf-8"?>
<!-- Generator: Adobe Illustrator 24.1.2, SVG Export Plug-In . SVG Version: 6.00 Build 0)  -->
<svg version="1.1" id="Layer_38" xmlns="http://www.w3.org/2000/svg" xmlns:xlink="http://www.w3.org/1999/xlink" x="0px" y="0px"
	 viewBox="0 0 16 16" enable-background="new 0 0 16 16" xml:space="preserve">
<g>
	<path fill="#1C4B6C" d="M8.395,7.578H7.17V6.353c0-0.304-0.194-0.507-0.507-0.507c-0.312,0-0.507,0.203-0.507,0.507v1.225H4.932
		c-0.312,0-0.507,0.203-0.507,0.507c0,0.304,0.194,0.507,0.507,0.507h1.225v1.225c0,0.304,0.194,0.507,0.507,0.507
		c0.313,0,0.507-0.203,0.507-0.507V8.592h1.225c0.313,0,0.507-0.203,0.507-0.507C8.902,7.781,8.707,7.578,8.395,7.578z"/>
	<polygon fill="#1C4B6C" points="13.363,10.935 14.997,12.934 14.997,8.935 	"/>
	<path fill="#1C4B6C" d="M11.509,13.292c0-0.265-0.059-1.265-0.135-2.531c-0.055-0.923-0.117-1.968-0.162-2.841
		c-0.001-0.016,0.008-0.031,0.022-0.038l0.658-0.33l0,0.002c0.009,0.161,0.143,0.286,0.302,0.286c0.006,0,0.011,0,0.017,0
		c0.167-0.009,0.295-0.152,0.286-0.319l-0.019-0.334c0.025-0.05,0.038-0.107,0.034-0.165c-0.071-1.048-0.156-1.676-0.246-2.34
		c-0.021-0.154-0.042-0.312-0.064-0.479c-0.309-2.366-2.239-3.779-5.163-3.779H6.754c-2.924,0-4.854,1.413-5.163,3.779
		c-0.345,2.642-0.588,8.402-0.588,9.178c0,1.386,1.862,2.06,5.693,2.06h0.403c1.274,0,2.217-0.076,2.898-0.261
		c0.055,0.082,0.148,0.135,0.25,0.135c0.014,0,0.028-0.001,0.042-0.003c0.145-0.02,0.286-0.046,0.419-0.078
		c0.163-0.039,0.263-0.203,0.223-0.366c-0.008-0.035-0.023-0.066-0.042-0.094C11.329,14.438,11.509,13.958,11.509,13.292z
		 M10.77,10.797c0.072,1.206,0.134,2.248,0.134,2.495c0,0.793,0,1.543-3.806,1.543H6.695c-3.28,0-5.087-0.517-5.087-1.455
		c0-0.769,0.241-6.48,0.583-9.1C2.575,1.346,5.51,1.029,6.754,1.029h0.285c1.244,0,4.179,0.317,4.562,3.251
		c0.022,0.168,0.043,0.327,0.064,0.482c0.087,0.64,0.162,1.198,0.229,2.111l-0.932,0.468c-0.229,0.115-0.369,0.355-0.356,0.611
		C10.653,8.826,10.715,9.873,10.77,10.797z"/>
	<path fill="#1C4B6C" d="M12.399,11.192c-0.167,0.009-0.295,0.152-0.286,0.319l0.022,0.396c0.009,0.161,0.143,0.286,0.302,0.286
		c0.006,0,0.011,0,0.017,0c0.167-0.009,0.295-0.152,0.286-0.319l-0.022-0.396C12.709,11.31,12.567,11.184,12.399,11.192z"/>
	<path fill="#1C4B6C" d="M12.237,8.29c-0.167,0.009-0.295,0.152-0.286,0.319l0.022,0.396c0.009,0.161,0.143,0.286,0.302,0.286
		c0.006,0,0.011,0,0.017,0c0.167-0.009,0.295-0.152,0.286-0.319l-0.022-0.396C12.547,8.408,12.405,8.281,12.237,8.29z"/>
	<path fill="#1C4B6C" d="M12.318,9.741c-0.167,0.009-0.295,0.152-0.286,0.319l0.022,0.396c0.009,0.161,0.143,0.286,0.302,0.286
		c0.006,0,0.011,0,0.017,0c0.167-0.009,0.295-0.152,0.286-0.319l-0.022-0.396C12.628,9.859,12.488,9.732,12.318,9.741z"/>
	<path fill="#1C4B6C" d="M12.498,12.645c-0.165-0.017-0.316,0.102-0.334,0.268c-0.013,0.118-0.034,0.234-0.064,0.344
		c-0.043,0.162,0.053,0.328,0.214,0.371c0.026,0.007,0.053,0.01,0.079,0.01c0.134,0,0.256-0.089,0.292-0.225
		c0.038-0.14,0.065-0.287,0.081-0.435C12.785,12.812,12.664,12.663,12.498,12.645z"/>
	<path fill="#1C4B6C" d="M11.671,14.046c-0.076,0.081-0.161,0.156-0.254,0.223c-0.135,0.098-0.165,0.288-0.067,0.423
		c0.059,0.082,0.152,0.125,0.245,0.125c0.062,0,0.124-0.019,0.178-0.058c0.123-0.09,0.238-0.19,0.34-0.299
		c0.115-0.122,0.108-0.314-0.013-0.428C11.977,13.918,11.785,13.924,11.671,14.046z"/>
</g>
</svg>
