<?xml version="1.0" standalone="no"?>
<!DOCTYPE svg PUBLIC "-//W3C//DTD SVG 20010904//EN"
 "http://www.w3.org/TR/2001/REC-SVG-20010904/DTD/svg10.dtd">
<svg version="1.0" xmlns="http://www.w3.org/2000/svg"
 width="172.000000pt" height="148.000000pt" viewBox="0 0 172.000000 148.000000"
 preserveAspectRatio="xMidYMid meet">

<g transform="translate(0.000000,148.000000) scale(0.100000,-0.100000)"
fill="#000000" stroke="none">
<path d="M843 1437 c-10 -21 -448 -769 -709 -1209 l-123 -208 849 0 849 0 -73
123 c-40 67 -167 282 -281 477 -114 195 -249 425 -300 510 -50 85 -114 194
-141 242 -27 48 -52 88 -55 88 -3 0 -10 -10 -16 -23z m108 -239 c45 -79 94
-163 109 -188 27 -44 247 -418 418 -710 46 -80 95 -162 108 -182 13 -21 24
-40 24 -43 0 -3 -337 -5 -750 -5 -412 0 -750 2 -750 4 0 3 30 55 408 696 118
201 242 411 275 468 33 56 63 102 67 102 5 0 45 -64 91 -142z"/>
<path d="M807 1104 c-4 -4 -7 -164 -7 -356 l0 -348 60 0 60 0 -2 353 -3 352
-50 3 c-28 2 -54 0 -58 -4z"/>
<path d="M807 290 c-34 -27 -42 -64 -20 -100 45 -77 153 -51 153 37 0 70 -78
106 -133 63z"/>
</g>
</svg>
