<?xml version="1.0" encoding="utf-8"?>
<!-- Generator: Adobe Illustrator 24.1.2, SVG Export Plug-In . SVG Version: 6.00 Build 0)  -->
<svg version="1.1" id="Layer_38" xmlns="http://www.w3.org/2000/svg" xmlns:xlink="http://www.w3.org/1999/xlink" x="0px" y="0px"
	 viewBox="0 0 16 16" enable-background="new 0 0 16 16" xml:space="preserve">
<g>
	<path fill="#1C4B6C" d="M10.225,6.792H9.297V5.864c0-0.23-0.147-0.384-0.384-0.384c-0.237,0-0.384,0.154-0.384,0.384v0.928H7.601
		c-0.237,0-0.384,0.154-0.384,0.384c0,0.23,0.147,0.384,0.384,0.384h0.928v0.928c0,0.23,0.147,0.384,0.384,0.384
		c0.237,0,0.384-0.154,0.384-0.384V7.56h0.928c0.237,0,0.384-0.154,0.384-0.384C10.609,6.946,10.462,6.792,10.225,6.792z"/>
	<path fill="#1C4B6C" d="M9.764,10.335H8.062c-0.296,0.024-0.456,0.224-0.456,0.512c0,0.272,0.16,0.472,0.456,0.496h1.703
		c0.296-0.024,0.456-0.224,0.456-0.496C10.22,10.559,10.06,10.359,9.764,10.335z"/>
	<path fill="#1C4B6C" d="M14.168,10.037c-0.165,0.01-0.292,0.151-0.282,0.317l0.023,0.392c0.009,0.159,0.141,0.282,0.299,0.282
		c0.006,0,0.012,0,0.018-0.001c0.165-0.01,0.292-0.151,0.282-0.317l-0.023-0.392C14.475,10.154,14.331,10.027,14.168,10.037z"/>
	<path fill="#1C4B6C" d="M14.251,11.473c-0.165,0.01-0.292,0.151-0.282,0.317l0.023,0.392c0.009,0.159,0.141,0.282,0.299,0.282
		c0.006,0,0.012,0,0.018-0.001c0.165-0.01,0.292-0.151,0.282-0.317l-0.023-0.392C14.558,11.59,14.416,11.464,14.251,11.473z"/>
	<path fill="#1C4B6C" d="M14.084,8.602c-0.165,0.01-0.291,0.151-0.282,0.317l0.023,0.392c0.009,0.159,0.141,0.282,0.299,0.282
		c0.006,0,0.012,0,0.018-0.001c0.165-0.01,0.291-0.151,0.282-0.317l-0.023-0.392C14.391,8.718,14.252,8.592,14.084,8.602z"/>
	<path fill="#1C4B6C" d="M14.334,12.912c-0.163-0.03-0.319,0.077-0.35,0.24c-0.021,0.115-0.052,0.227-0.089,0.332
		c-0.056,0.156,0.024,0.327,0.18,0.384c0.034,0.012,0.068,0.018,0.102,0.018c0.123,0,0.238-0.076,0.282-0.198
		c0.049-0.135,0.087-0.279,0.115-0.425C14.604,13.099,14.496,12.943,14.334,12.912z"/>
	<path fill="#1C4B6C" d="M13.4,14.218c-0.083,0.072-0.174,0.139-0.273,0.198c-0.016,0.009-0.03,0.02-0.043,0.032
		c0.181-0.376,0.209-0.813,0.176-1.108c-0.005-0.257-0.071-3.801-0.156-5.207c0.08-0.065,0.301-0.158,0.439-0.217
		c0.066-0.028,0.131-0.056,0.196-0.085l0.002,0.042c0.009,0.159,0.141,0.282,0.299,0.282c0.006,0,0.012,0,0.018-0.001
		c0.165-0.01,0.292-0.151,0.282-0.317l-0.023-0.392c-0.001-0.022-0.005-0.042-0.011-0.062c0.027-0.064,0.041-0.136,0.035-0.216
		c-0.087-1.196-0.178-2.159-0.269-2.86c-0.305-2.342-2.215-3.739-5.109-3.739H8.681c-2.894,0-4.804,1.398-5.109,3.739
		C3.523,4.685,3.89,5.543,4.081,5.957L3.252,7.398L3.86,8.864L3.1,10.547l0.6,1.427c-0.71,1.167-0.71,1.342-0.71,1.418
		c0,0.763,0.537,1.313,1.597,1.635c0.895,0.272,2.215,0.404,4.037,0.404h0.398c1.137,0,1.973-0.06,2.776-0.201
		c0.054,0.082,0.146,0.136,0.249,0.136c0.012,0,0.024-0.001,0.037-0.002c0.094-0.012,0.186-0.026,0.275-0.042
		c0.155-0.029,0.258-0.172,0.242-0.326c0.163-0.099,0.29-0.229,0.387-0.376c-0.013,0.069-0.003,0.143,0.036,0.208
		c0.056,0.094,0.155,0.146,0.257,0.146c0.052,0,0.106-0.014,0.154-0.043c0.129-0.078,0.25-0.166,0.36-0.262
		c0.124-0.109,0.137-0.299,0.028-0.423C13.714,14.121,13.525,14.108,13.4,14.218z M12.662,13.365l0.002,0.03
		c0.005,0.043,0.117,1.048-0.632,1.178c-0.881,0.183-1.753,0.257-3.01,0.257H8.623c-3.358,0-5.005-0.463-5.034-1.414
		c0.054-0.162,0.4-0.77,0.701-1.261l0.081-0.131l-0.618-1.469l0.76-1.68L3.919,7.441l0.839-1.457L4.689,5.841
		C4.393,5.222,4.149,4.542,4.166,4.386C4.545,1.482,7.45,1.169,8.681,1.169h0.282c1.231,0,4.136,0.314,4.515,3.218
		c0.089,0.679,0.177,1.61,0.261,2.767c-0.081,0.063-0.296,0.154-0.43,0.211c-0.39,0.165-0.833,0.352-0.807,0.752
		C12.592,9.513,12.661,13.327,12.662,13.365z"/>
	<path fill="#1C4B6C" d="M2.425,3.722C2.262,3.712,2.117,3.835,2.105,4L1.41,14.088c-0.011,0.165,0.113,0.308,0.278,0.32
		c0.007,0,0.014,0.001,0.021,0.001c0.156,0,0.288-0.121,0.299-0.279L2.704,4.042C2.715,3.876,2.59,3.733,2.425,3.722z"/>
</g>
</svg>
