<?xml version="1.0" encoding="utf-8"?>
<!-- Generator: Adobe Illustrator 18.1.1, SVG Export Plug-In . SVG Version: 6.00 Build 0)  -->
<!DOCTYPE svg PUBLIC "-//W3C//DTD SVG 1.1//EN" "http://www.w3.org/Graphics/SVG/1.1/DTD/svg11.dtd">
<svg version="1.1" id="Layer_1" xmlns="http://www.w3.org/2000/svg" xmlns:xlink="http://www.w3.org/1999/xlink" x="0px" y="0px"
	 viewBox="0 0 200 200" enable-background="new 0 0 200 200" xml:space="preserve">
<path fill="#004B6C" d="M49.489,104.125V91.859H6.341v86.439h13.023v-41.127h29.077v-12.266H19.365v-20.779h30.124V104.125z"/>
<path fill="#004B6C" d="M79.769,86.448l-42.786,91.884h14.069l9.633-20.997l5.411-12.266l13.421-29.402l12.807,29.402h-8.875v12.266
	h14.178l9.055,20.997h14.286L79.769,86.448z"/>
<path fill="#004B6C" d="M171.123,140.02c-2.633-3.932-6.277-6.674-10.858-8.226c4.726-4.294,7.106-9.525,7.106-15.73
	c0-3.39-0.722-6.746-2.201-10.065c-1.407-3.282-3.318-6.025-5.773-8.226c-2.381-2.129-5.303-3.644-8.767-4.546
	c-3.426-0.902-8.046-1.335-13.817-1.335h-12.987v86.439h19.77c5.917,0,10.822-0.542,14.718-1.623
	c3.572-1.118,6.818-3.102,9.669-5.989c4.798-4.654,7.178-10.39,7.178-17.137C175.163,148.426,173.829,143.916,171.123,140.02z
	 M136.887,103.871h4.582c4.402,0,7.756,1.046,10.065,3.174c2.309,2.093,3.464,5.195,3.464,9.271c0,4.184-1.118,7.324-3.39,9.487
	c-2.273,2.163-5.809,3.21-10.678,3.21h-4.076v-25.143H136.887z M157.92,162.604c-2.742,2.309-7.07,3.464-12.987,3.464h-8.046
	v-26.154h6.602c6.998,0,11.87,1.263,14.61,3.752c2.814,2.561,4.184,5.663,4.184,9.415
	C162.284,156.903,160.841,160.078,157.92,162.604z"/>
<path fill="#004B6C" d="M73.818,156.507c0.938,0.83,1.515,1.299,2.057,1.803c1.659,1.551,2.561,2.922,0.036,4.762
	c-0.83,0.614-1.118,2.706-0.866,3.968c0.974,5.447,0.398,8.118-2.994,9.669c-1.695,0.758-3.644,1.046-5.519,1.227
	c-4.258,0.434-6.782-0.036-14.142,0.506c1.767-4.004,22.944-50.687,22.944-50.687s1.371,3.426,2.742,5.231
	c1.118,1.479,2.309,2.886,3.572,4.258c2.309,2.525,1.839,5.519-1.118,6.89c-2.381,1.082-3.102,3.066-2.922,5.483
	c0.036,0.36,0.252,0.722,0.36,1.082C79.769,155.714,79.625,156.002,73.818,156.507z"/>
<path fill="#004B6C" d="M158.179,22.439V3.272l29.632,29.632l-29.632,29.632V42.949c-34.471-0.81-32.995,23.444-24.219,39.341
	C112.299,58.876,116.897,21.362,158.179,22.439z"/>
<g>
</g>
<g>
</g>
<g>
</g>
<g>
</g>
<g>
</g>
<g>
</g>
</svg>
