<?xml version="1.0" encoding="utf-8"?>
<!-- Generator: Adobe Illustrator 18.1.1, SVG Export Plug-In . SVG Version: 6.00 Build 0)  -->
<!DOCTYPE svg PUBLIC "-//W3C//DTD SVG 1.1//EN" "http://www.w3.org/Graphics/SVG/1.1/DTD/svg11.dtd">
<svg version="1.1" id="Layer_1" xmlns="http://www.w3.org/2000/svg" xmlns:xlink="http://www.w3.org/1999/xlink" x="0px" y="0px"
	 viewBox="0 0 200 200" enable-background="new 0 0 200 200" xml:space="preserve">
<rect x="7" y="7" fill="none" stroke="#004B6C" stroke-width="10.1093" stroke-miterlimit="10" width="186" height="186"/>
<line fill="none" stroke="#004B6C" stroke-width="10.0844" stroke-miterlimit="10" x1="103" y1="10" x2="103" y2="190"/>
<line fill="none" stroke="#004B6C" stroke-width="10.2511" stroke-miterlimit="10" x1="193" y1="98.5" x2="7" y2="98.5"/>
<g>
	<path fill="#004C6C" d="M40.96,32.102c2.94-0.48,7.319-0.84,12.179-0.84c6,0,10.2,0.9,13.08,3.18c2.4,1.92,3.72,4.74,3.72,8.46
		c0,5.16-3.66,8.699-7.14,9.959v0.18c2.82,1.14,4.38,3.84,5.4,7.56c1.26,4.56,2.52,9.839,3.3,11.399h-9.359
		c-0.66-1.14-1.62-4.44-2.82-9.419c-1.08-5.04-2.82-6.42-6.54-6.48h-2.76V72h-9.06V32.102z M50.02,49.501h3.6
		c4.56,0,7.26-2.28,7.26-5.82c0-3.72-2.52-5.58-6.72-5.64c-2.22,0-3.479,0.18-4.14,0.3V49.501z"/>
</g>
<g>
	<path fill="#004C6C" d="M135.96,31.562h9.18V64.32h16.079V72H135.96V31.562z"/>
</g>
<g>
	<path fill="#004C6C" d="M61.14,122.562V163h-9.18v-40.438H61.14z"/>
</g>
<g>
	<path fill="#004C6C" d="M140.379,152.621L137.5,163h-9.48l12.359-40.438h12L164.918,163h-9.839l-3.12-10.379H140.379z
		 M150.639,145.781l-2.52-8.58c-0.72-2.4-1.439-5.4-2.04-7.8h-0.12c-0.6,2.399-1.199,5.46-1.859,7.8l-2.4,8.58H150.639z"/>
</g>
<g>
</g>
<g>
</g>
<g>
</g>
<g>
</g>
<g>
</g>
<g>
</g>
</svg>
