<?xml version="1.0" encoding="utf-8"?>
<!-- Generator: Adobe Illustrator 18.1.1, SVG Export Plug-In . SVG Version: 6.00 Build 0)  -->
<!DOCTYPE svg PUBLIC "-//W3C//DTD SVG 1.1//EN" "http://www.w3.org/Graphics/SVG/1.1/DTD/svg11.dtd">
<svg version="1.1" id="Layer_1" xmlns="http://www.w3.org/2000/svg" xmlns:xlink="http://www.w3.org/1999/xlink" x="0px" y="0px"
	 viewBox="0 0 200 200" enable-background="new 0 0 200 200" xml:space="preserve">
<rect x="7" y="7" fill="none" stroke="#004B6C" stroke-width="10.1093" stroke-miterlimit="10" width="186" height="186"/>
<line fill="none" stroke="#004B6C" stroke-width="10.0844" stroke-miterlimit="10" x1="103" y1="10" x2="103" y2="190"/>
<line fill="none" stroke="#004B6C" stroke-width="10.2511" stroke-miterlimit="10" x1="193" y1="98.5" x2="7" y2="98.5"/>
<g>
	<path fill="#004C6C" d="M34.379,61.621L31.5,72H22.02l12.359-40.438h12L58.918,72h-9.839l-3.12-10.379H34.379z M44.639,54.781
		l-2.52-8.58c-0.72-2.4-1.44-5.4-2.04-7.8h-0.12c-0.6,2.4-1.2,5.46-1.86,7.8l-2.4,8.58H44.639z"/>
	<path fill="#004C6C" d="M70.8,42.661l2.88,4.86c0.84,1.5,1.62,3,2.4,4.38h0.12c0.78-1.56,1.5-3.06,2.28-4.5l2.58-4.74h9.899
		l-9.66,13.979L91.079,72h-10.32l-2.94-5.28c-0.84-1.44-1.56-2.94-2.28-4.44h-0.18c-0.72,1.56-1.5,3-2.22,4.44L70.38,72H60.36
		l9.959-14.939L60.6,42.661H70.8z"/>
</g>
<g>
	<path fill="#004C6C" d="M152.658,70.86c-1.68,0.84-5.459,1.74-10.379,1.74c-13.979,0-21.18-8.7-21.18-20.219
		c0-13.799,9.84-21.479,22.08-21.479c4.739,0,8.339,0.96,9.959,1.8l-1.859,7.26c-1.86-0.78-4.44-1.5-7.68-1.5
		c-7.26,0-12.9,4.38-12.9,13.379c0,8.1,4.801,13.199,12.96,13.199c2.76,0,5.819-0.6,7.62-1.32L152.658,70.86z"/>
	<path fill="#004C6C" d="M158.119,52.321c0-4.32-0.119-7.14-0.24-9.66h7.86l0.3,5.4h0.24c1.5-4.26,5.1-6.06,7.92-6.06
		c0.84,0,1.26,0,1.92,0.12v8.58c-0.66-0.12-1.44-0.24-2.461-0.24c-3.359,0-5.639,1.8-6.239,4.62c-0.12,0.6-0.181,1.32-0.181,2.04V72
		h-9.119V52.321z"/>
</g>
<g>
	<path fill="#004C6C" d="M25.26,153.58c2.46,1.26,6.24,2.52,10.14,2.52c4.2,0,6.42-1.739,6.42-4.379c0-2.52-1.92-3.96-6.78-5.7
		c-6.72-2.34-11.1-6.06-11.1-11.939c0-6.899,5.76-12.179,15.299-12.179c4.56,0,7.92,0.959,10.319,2.039l-2.04,7.38
		c-1.62-0.78-4.5-1.92-8.46-1.92c-3.959,0-5.879,1.8-5.879,3.899c0,2.58,2.28,3.721,7.5,5.7c7.14,2.64,10.5,6.36,10.5,12.06
		c0,6.779-5.22,12.539-16.319,12.539c-4.62,0-9.18-1.199-11.459-2.459L25.26,153.58z"/>
	<path fill="#004C6C" d="M85.078,133.661c-0.12,1.86-0.24,4.319-0.24,8.7v16.379c0,5.64-1.14,10.26-4.439,13.199
		c-3.24,2.76-7.62,3.6-11.939,3.6c-3.84,0-7.92-0.779-10.56-2.279l1.8-6.9c1.86,1.08,5.1,2.221,8.52,2.221
		c4.32,0,7.62-2.34,7.62-7.74v-1.92h-0.12c-1.74,2.46-4.56,3.84-7.92,3.84c-7.26,0-12.419-5.879-12.419-14.34
		c0-9.419,6.12-15.419,13.319-15.419c4.02,0,6.54,1.74,8.04,4.14h0.12l0.3-3.479H85.078z M75.719,145.601c0-0.6-0.06-1.2-0.18-1.68
		c-0.66-2.399-2.4-4.021-4.92-4.021c-3.3,0-6,3-6,8.34c0,4.381,2.16,7.8,6,7.8c2.34,0,4.2-1.56,4.8-3.72
		c0.24-0.66,0.3-1.619,0.3-2.4V145.601z"/>
</g>
<g>
	<path fill="#004C6C" d="M115.14,154.061c1.62,0.84,5.34,2.4,9.06,2.4c4.74,0,7.141-2.281,7.141-5.221c0-3.84-3.84-5.58-7.86-5.58
		h-3.72v-6.539h3.539c3.061-0.061,6.961-1.2,6.961-4.5c0-2.34-1.92-4.08-5.76-4.08c-3.181,0-6.54,1.381-8.16,2.34l-1.859-6.6
		c2.34-1.5,7.02-2.939,12.059-2.939c8.34,0,12.96,4.38,12.96,9.719c0,4.141-2.34,7.381-7.14,9.061v0.119
		c4.68,0.841,8.459,4.381,8.459,9.48c0,6.899-6.06,11.939-15.959,11.939c-5.039,0-9.3-1.32-11.58-2.76L115.14,154.061z"/>
	<path fill="#004C6C" d="M148.26,123.102c3.359-0.54,7.74-0.84,12.359-0.84c7.68,0,12.66,1.38,16.56,4.32
		c4.2,3.119,6.839,8.1,6.839,15.238c0,7.74-2.819,13.08-6.719,16.38c-4.26,3.54-10.74,5.22-18.66,5.22c-4.739,0-8.1-0.3-10.379-0.6
		V123.102z M157.439,156.1c0.779,0.181,2.039,0.181,3.18,0.181c8.279,0.06,13.68-4.5,13.68-14.159c0.06-8.4-4.859-12.84-12.72-12.84
		c-2.04,0-3.36,0.18-4.14,0.36V156.1z"/>
</g>
<g>
</g>
<g>
</g>
<g>
</g>
<g>
</g>
<g>
</g>
<g>
</g>
</svg>
