<svg id="Layer_45" data-name="Layer 45" xmlns="http://www.w3.org/2000/svg" viewBox="0 0 16 13.28"><defs><style>.cls-1{fill:#b2c9d4;}.cls-2{fill:#004c6f;}</style></defs><path class="cls-1" d="M7,11v.91l2.93,0,0-.82s-.11-.85-.88-.9a10.08,10.08,0,0,0-1.1,0A1.05,1.05,0,0,0,7,11Z" transform="translate(0 -1.42)"/><path class="cls-2" d="M8.84,14.7H7.93a1.34,1.34,0,0,1-1.31-1.35l0-2.12A1.33,1.33,0,0,1,8,9.91H8l.9,0a1.33,1.33,0,0,1,1.31,1.34l0,2.12a1.33,1.33,0,0,1-.4.93A1.3,1.3,0,0,1,8.84,14.7ZM8,10.29a1,1,0,0,0-1,.94l0,2.12a1,1,0,0,0,.94,1h.89a1,1,0,0,0,1-.93l0-2.12a1,1,0,0,0-.94-1H8Z" transform="translate(0 -1.42)"/><rect class="cls-2" x="8.22" y="10.47" width="0.38" height="3.17" transform="translate(-3.75 18.88) rotate(-89.23)"/><rect class="cls-2" x="7.59" y="10.89" width="1.74" height="0.38" transform="translate(-2.74 17.97) rotate(-89.23)"/><path class="cls-2" d="M12.9,13.17a.19.19,0,0,0-.13-.05h-.72v-.73a.21.21,0,0,0-.05-.13.25.25,0,0,0-.14-.06h0a.19.19,0,0,0-.18.19v.72H11a.19.19,0,0,0-.18.19.18.18,0,0,0,.18.19h.72v.72a.19.19,0,0,0,.38,0v-.72h.72A.19.19,0,0,0,13,13.3.18.18,0,0,0,12.9,13.17Z" transform="translate(0 -1.42)"/><rect class="cls-1" x="13.8" y="12.66" width="2.01" height="1.36" rx="0.68" transform="translate(0.03 -1.45) rotate(0.12)"/><path class="cls-2" d="M15.6,14.2H14a.41.41,0,0,1-.39-.39v-1a.36.36,0,0,1,.12-.28.4.4,0,0,1,.28-.12h1.6a.4.4,0,0,1,.39.39v1a.38.38,0,0,1-.12.28A.39.39,0,0,1,15.6,14.2ZM14,12.84l0,0v1h1.63v-1H14Z" transform="translate(0 -1.42)"/><path class="cls-2" d="M5.6,9.28a11.77,11.77,0,0,1-3.27-.43.24.24,0,0,1-.15-.3.24.24,0,0,1,.29-.16,10.78,10.78,0,0,0,3.13.42c3,0,5-1,5-1.81,0-.51-.7-1-1.83-1.39a.23.23,0,0,1-.16-.29.23.23,0,0,1,.29-.16c1.38.43,2.18,1.09,2.18,1.84C11.09,8.28,8.68,9.28,5.6,9.28Z" transform="translate(0 -1.42)"/><polygon class="cls-2" points="3.29 6.56 2.68 7.29 2.79 8.23 1.05 6.8 3.29 6.56"/><path class="cls-2" d="M4.12,10.84a.25.25,0,0,1-.23-.15A11.09,11.09,0,0,1,3.32,7c0-3.08,1-5.49,2.28-5.49.63,0,1.2.56,1.62,1.57a.23.23,0,0,1-.13.3.23.23,0,0,1-.31-.12C6.45,2.45,6,2,5.6,2,4.75,2,3.79,4,3.79,7a10.53,10.53,0,0,0,.55,3.52.25.25,0,0,1-.14.31Z" transform="translate(0 -1.42)"/><polygon class="cls-2" points="5.94 1.47 6.89 1.48 7.55 0.8 7.54 3.05 5.94 1.47"/><path class="cls-2" d="M4.86,12.57h0A5.6,5.6,0,1,1,11.2,7a5.65,5.65,0,0,1-.69,2.7.24.24,0,0,1-.32.09.22.22,0,0,1-.09-.32,5.14,5.14,0,0,0-4.5-7.6A5.13,5.13,0,0,0,4.89,12.1a.23.23,0,0,1,.2.26A.24.24,0,0,1,4.86,12.57Z" transform="translate(0 -1.42)"/><polygon class="cls-2" points="4.32 9.96 4.57 10.87 4.08 11.69 6.25 11.11 4.32 9.96"/></svg>