<?xml version="1.0" encoding="utf-8"?>
<!-- Generator: Adobe Illustrator 22.1.0, SVG Export Plug-In . SVG Version: 6.00 Build 0)  -->
<!DOCTYPE svg PUBLIC "-//W3C//DTD SVG 1.1//EN" "http://www.w3.org/Graphics/SVG/1.1/DTD/svg11.dtd">
<svg version="1.1" id="Layer_1" xmlns="http://www.w3.org/2000/svg" xmlns:xlink="http://www.w3.org/1999/xlink" x="0px" y="0px"
	 viewBox="0 0 260 50" enable-background="new 0 0 260 50" xml:space="preserve">
<g>
	<path fill="#004C6D" d="M3.273,3.608h6.015l23.264,33.363h0.113V3.608h4.766v40.172h-6.013L8.154,10.418H8.04v33.363H3.273V3.608z"
		/>
	<path fill="#004C6D" d="M70.34,38.957c-1.589,2.042-3.328,3.471-5.22,4.285c-1.892,0.813-4.086,1.22-6.582,1.22
		c-2.081,0-3.953-0.369-5.617-1.107c-1.665-0.737-3.074-1.73-4.227-2.978c-1.155-1.249-2.043-2.724-2.668-4.426
		c-0.623-1.702-0.936-3.519-0.936-5.448c0-2.041,0.34-3.923,1.021-5.645c0.682-1.72,1.626-3.197,2.837-4.426
		c1.211-1.228,2.648-2.184,4.313-2.865c1.664-0.681,3.479-1.021,5.446-1.021c1.854,0,3.555,0.313,5.107,0.936
		c1.551,0.625,2.884,1.532,4,2.724c1.116,1.191,1.976,2.649,2.583,4.369c0.604,1.722,0.906,3.679,0.906,5.873v1.418H49.857
		c0.075,1.135,0.35,2.222,0.823,3.263c0.473,1.04,1.086,1.949,1.843,2.724c0.757,0.775,1.645,1.388,2.667,1.843
		c1.022,0.454,2.137,0.682,3.348,0.682c1.929,0,3.555-0.34,4.88-1.022c1.324-0.681,2.515-1.683,3.575-3.007L70.34,38.957z
		 M66.539,28.121c-0.076-2.27-0.814-4.086-2.212-5.447c-1.402-1.363-3.329-2.043-5.788-2.043c-2.46,0-4.446,0.68-5.958,2.043
		c-1.513,1.362-2.42,3.177-2.723,5.447H66.539z"/>
	<path fill="#004C6D" d="M78.17,23.524c0-1.21-0.039-2.344-0.114-3.404c-0.076-1.06-0.113-2.023-0.113-2.895h4.198
		c0,0.719,0.018,1.439,0.056,2.157c0.038,0.718,0.058,1.456,0.058,2.213h0.114c0.302-0.644,0.727-1.267,1.276-1.873
		c0.547-0.604,1.2-1.144,1.957-1.617c0.756-0.473,1.608-0.85,2.553-1.135c0.946-0.284,1.966-0.426,3.063-0.426
		c1.438,0,2.639,0.18,3.604,0.539c0.964,0.36,1.767,0.795,2.411,1.306c0.643,0.51,1.143,1.059,1.504,1.645
		c0.36,0.586,0.651,1.106,0.88,1.561c0.983-1.59,2.117-2.828,3.403-3.717c1.285-0.889,2.951-1.334,4.994-1.334
		c1.891,0,3.48,0.255,4.766,0.766c1.285,0.512,2.326,1.249,3.12,2.213c0.794,0.965,1.362,2.137,1.702,3.517
		c0.34,1.381,0.512,2.923,0.512,4.624v16.115h-4.426V27.894c0-0.908-0.096-1.797-0.284-2.668c-0.19-0.87-0.53-1.645-1.022-2.326
		c-0.491-0.681-1.153-1.229-1.985-1.646c-0.832-0.416-1.891-0.624-3.177-0.624c-0.946,0-1.835,0.19-2.666,0.566
		c-0.833,0.38-1.561,0.909-2.185,1.59c-0.625,0.68-1.117,1.504-1.475,2.468c-0.36,0.965-0.539,2.033-0.539,3.207v15.319h-4.426
		V28.743c0-2.949-0.396-5.039-1.192-6.268c-0.794-1.229-2.098-1.844-3.915-1.844c-1.437,0-2.675,0.248-3.716,0.738
		c-1.041,0.492-1.891,1.192-2.553,2.098c-0.663,0.908-1.155,1.987-1.475,3.236c-0.322,1.248-0.483,2.629-0.483,4.141v12.938H78.17
		V23.524z"/>
	<path fill="#004C6D" d="M124.98,30.503c0-2.078,0.36-3.972,1.079-5.673c0.718-1.703,1.701-3.169,2.951-4.398
		c1.247-1.228,2.741-2.184,4.482-2.865c1.739-0.681,3.63-1.021,5.674-1.021c2.042,0,3.933,0.34,5.674,1.021
		c1.739,0.682,3.234,1.637,4.483,2.865c1.248,1.229,2.231,2.696,2.951,4.398c0.718,1.701,1.078,3.595,1.078,5.673
		c0,2.081-0.361,3.973-1.078,5.675c-0.719,1.702-1.703,3.169-2.951,4.397c-1.249,1.229-2.743,2.185-4.483,2.865
		c-1.741,0.681-3.631,1.022-5.674,1.022c-2.043,0-3.935-0.341-5.674-1.022c-1.741-0.681-3.235-1.636-4.482-2.865
		c-1.25-1.228-2.233-2.696-2.951-4.397C125.339,34.475,124.98,32.584,124.98,30.503z M129.746,30.503c0,1.4,0.218,2.696,0.652,3.888
		c0.435,1.191,1.069,2.231,1.901,3.12c0.831,0.888,1.825,1.587,2.978,2.1c1.154,0.508,2.45,0.765,3.887,0.765
		c1.438,0,2.732-0.257,3.887-0.765c1.154-0.513,2.147-1.212,2.978-2.1c0.833-0.889,1.467-1.929,1.902-3.12
		c0.435-1.193,0.652-2.488,0.652-3.888c0-1.397-0.217-2.694-0.652-3.886c-0.435-1.191-1.069-2.23-1.902-3.12
		c-0.831-0.889-1.824-1.589-2.978-2.1c-1.154-0.509-2.449-0.765-3.887-0.765c-1.438,0-2.733,0.256-3.887,0.765
		c-1.153,0.511-2.147,1.211-2.978,2.1c-0.832,0.89-1.466,1.93-1.901,3.12C129.963,27.808,129.746,29.105,129.746,30.503z"/>
</g>
<g>
	<path fill="#2D3057" d="M161.828,3.836h25.085V8.91h-19.674v12.515h18.32v5.073h-18.32v17.25h-5.411V3.836z"/>
	<path fill="#2D3057" d="M227.949,3.836h13.867c1.729,0,3.335,0.207,4.819,0.62c1.485,0.415,2.763,1.025,3.833,1.832
		c1.072,0.808,1.917,1.841,2.537,3.1c0.62,1.26,0.93,2.734,0.93,4.425c0,2.293-0.639,4.163-1.917,5.61
		c-1.278,1.447-2.931,2.508-4.961,3.185v0.113c1.203,0.075,2.33,0.385,3.383,0.93c1.051,0.545,1.963,1.259,2.733,2.141
		c0.77,0.884,1.382,1.908,1.832,3.073c0.452,1.165,0.677,2.424,0.677,3.776c0,1.804-0.367,3.392-1.1,4.764
		c-0.732,1.373-1.739,2.528-3.016,3.467c-1.278,0.94-2.762,1.653-4.452,2.142c-1.692,0.489-3.515,0.733-5.468,0.733h-13.698V3.836z
		 M233.36,20.409h7.385c1.015,0,1.973-0.103,2.874-0.31c0.902-0.206,1.692-0.554,2.368-1.043c0.676-0.488,1.212-1.107,1.607-1.86
		c0.395-0.751,0.592-1.672,0.592-2.763c0-1.578-0.507-2.95-1.522-4.115c-1.015-1.164-2.612-1.748-4.791-1.748h-8.512V20.409z
		 M233.36,39.011h7.948c0.827,0,1.738-0.085,2.734-0.253c0.995-0.17,1.926-0.507,2.79-1.015c0.864-0.508,1.597-1.193,2.199-2.058
		c0.6-0.864,0.902-2.01,0.902-3.439c0-2.367-0.771-4.143-2.311-5.327c-1.541-1.184-3.628-1.775-6.257-1.775h-8.005V39.011z"/>
	<g>
		<path fill="#2D3057" d="M201.535,33.58c0.456,0.383,0.73,0.599,0.99,0.833c0.806,0.723,1.24,1.352,0.12,2.215
			c-0.376,0.291-0.456,1.255-0.321,1.847c0.569,2.519,0.352,3.76-1.194,4.476c-0.765,0.355-1.669,0.481-2.532,0.571
			c-1.957,0.201-3.14-0.019-6.551,0.226c0.737-1.855,9.589-23.497,9.589-23.497s0.707,1.582,1.374,2.423
			c0.547,0.689,1.139,1.343,1.747,1.979c1.121,1.173,0.97,2.556-0.379,3.195c-1.08,0.507-1.37,1.422-1.236,2.549
			c0.02,0.17,0.124,0.334,0.191,0.5C204.277,33.222,204.207,33.342,201.535,33.58z"/>
		<g>
			<path fill="none" stroke="#CAD0D6" stroke-width="0.2658" stroke-dasharray="0.5316" d="M198.183,36.539
				c0,0,1.129-1.529,2.389-0.831c1.261,0.698,0.768,1.961,0.304,2.359c-0.601,0.518-1.946-0.431-2.173,1.163
				c-0.3,2.095-0.532,3.754-4.008,4.019"/>
			<path fill="none" stroke="#CAD0D6" stroke-width="0.2658" stroke-dasharray="0.5316" d="M200.514,33.143
				c0.169,0.034,3.711,0.499,1.853-2.425c-1.857-2.924,5.198-2.894,2.174-5.862c-2.659-2.46-2.731-3.554-2.729-3.854"/>
		</g>
	</g>
	<polygon fill="#2D3057" points="207.093,3.836 202.189,3.836 184.6,43.747 190.915,43.747 204.33,10.826 204.443,10.826 
		211.884,29.147 206.804,29.147 206.804,33.882 213.857,33.882 217.859,43.747 224.173,43.747 	"/>
</g>
<g>
</g>
<g>
</g>
<g>
</g>
<g>
</g>
<g>
</g>
<g>
</g>
</svg>
