<?xml version="1.0" encoding="utf-8"?>
<!-- Generator: Adobe Illustrator 24.1.2, SVG Export Plug-In . SVG Version: 6.00 Build 0)  -->
<svg version="1.1" id="Layer_38" xmlns="http://www.w3.org/2000/svg" xmlns:xlink="http://www.w3.org/1999/xlink" x="0px" y="0px"
	 viewBox="0 0 16 16" enable-background="new 0 0 16 16" xml:space="preserve">
<g>
	<path fill="#1C4B6C" d="M7.218,7.674H4.977c-0.389,0.032-0.6,0.295-0.6,0.673c0,0.358,0.211,0.621,0.6,0.652h2.241
		c0.389-0.032,0.6-0.295,0.6-0.652C7.818,7.969,7.608,7.706,7.218,7.674z"/>
	<path fill="#1C4B6C" d="M10.576,7.81l0.904-0.506l0,0c0.107-0.06,0.171-0.178,0.162-0.3c-0.071-1.045-0.156-1.671-0.246-2.335
		c-0.021-0.154-0.042-0.311-0.064-0.477c-0.308-2.36-2.233-3.769-5.149-3.769H5.9c-2.916,0-4.841,1.409-5.149,3.769
		c-0.344,2.636-0.587,8.38-0.587,9.153c0,1.383,1.857,2.055,5.677,2.055h0.401c3.1,0,4.575-0.308,4.575-2.055
		c0-0.47-0.099-3.034-0.262-5.497C10.555,7.832,10.563,7.818,10.576,7.81z M10.281,7.283c-0.216,0.121-0.345,0.358-0.328,0.605
		c0.162,2.451,0.26,4.993,0.26,5.457c0,0.876-0.276,1.451-3.97,1.451H5.842c-3.271,0-5.073-0.515-5.073-1.451
		c0-0.767,0.241-6.462,0.582-9.075C1.732,1.343,4.659,1.027,5.9,1.027h0.285c1.241,0,4.168,0.316,4.55,3.243
		c0.022,0.168,0.043,0.326,0.064,0.48c0.087,0.64,0.162,1.198,0.229,2.115L10.281,7.283z"/>
	<path fill="#1C4B6C" d="M15.987,13.956l-1.66-3.065c-0.131-0.237-0.417-0.332-0.662-0.235l-0.954-1.832
		c-1.057-0.256-1.408-1.176-1.408-1.176l-0.41,0.21l1.773,3.354c-0.2,0.156-0.267,0.437-0.144,0.668l1.597,3.062
		c0.137,0.258,0.455,0.358,0.715,0.224l0.93-0.479C16.033,14.551,16.133,14.219,15.987,13.956z"/>
</g>
</svg>
