<?xml version="1.0" encoding="utf-8"?>
<!-- Generator: Adobe Illustrator 24.1.2, SVG Export Plug-In . SVG Version: 6.00 Build 0)  -->
<svg version="1.1" id="Layer_38" xmlns="http://www.w3.org/2000/svg" xmlns:xlink="http://www.w3.org/1999/xlink" x="0px" y="0px"
	 viewBox="0 0 16 16" style="enable-background:new 0 0 16 16;" xml:space="preserve">
<style type="text/css">
	.st0{fill:#D2DBE2;}
	.st1{fill:#1C4B6C;}
</style>
<g>
	<ellipse transform="matrix(0.953 -0.303 0.303 0.953 -2.4508 2.8508)" class="st0" cx="8" cy="9.3" rx="7.1" ry="3.9"/>
</g>
<g>
	<path class="st1" d="M9,5.6c-0.1-0.1-0.3,0-0.4,0.2c0,0-0.3,0.7-0.9,1.4c-0.1,0.1-0.1,0.3,0,0.4c0.1,0,0.1,0.1,0.2,0.1
		c0.1,0,0.2,0,0.2-0.1C8.9,6.7,9.1,6,9.1,6C9.2,5.8,9.1,5.7,9,5.6z"/>
	<path class="st1" d="M14.4,2.8C13.1,1.7,10.7,1.4,8,2C4,3,0.8,5.7,0.8,8.2c0,0.7,0.3,1.3,1,1.7c0.4,0.3,1,0.4,1.5,0.4
		c0.5,0.7,1.3,1.1,2.2,1.1c0.6,0,1.1,0,1.7-0.1V14c0,0.2,0.1,0.3,0.3,0.3s0.3-0.1,0.3-0.3v-2.8c0.2,0,0.3-0.1,0.5-0.1
		c4.1-0.9,7.3-3.6,7.3-6.2C15.5,4.1,15.1,3.4,14.4,2.8z M7.2,10.7c-0.6,0.1-1.2,0.1-1.7,0.1c-0.6,0-1.1-0.2-1.4-0.6
		c0.5-0.1,1.1-0.2,1.6-0.5C6,9.6,6.4,9.3,6.8,9.1c0.1-0.1,0.1-0.3,0-0.4c-0.1-0.1-0.3-0.1-0.4,0c-0.3,0.3-0.7,0.5-1,0.7
		C4.8,9.6,4.2,9.7,3.7,9.7C3.5,9.5,3.5,9.3,3.5,9c0-1,0.8-1.9,1.9-1.9c1,0,1.9,0.8,1.9,1.9V10.7z M8.1,10.6c-0.1,0-0.2,0-0.3,0.1V9
		c0-1.3-1.1-2.4-2.4-2.4C4,6.6,2.9,7.6,2.9,9c0,0.2,0,0.5,0.1,0.7C2.7,9.6,2.4,9.5,2.1,9.4C1.8,9.2,1.4,8.8,1.4,8.2
		c0-2.2,3-4.7,6.8-5.6c2.4-0.6,4.7-0.3,5.9,0.7c0.6,0.5,0.9,1,0.9,1.7C14.9,7.2,11.9,9.7,8.1,10.6z"/>
</g>
</svg>
