<?xml version="1.0" encoding="utf-8"?>
<!-- Generator: Adobe Illustrator 24.1.2, SVG Export Plug-In . SVG Version: 6.00 Build 0)  -->
<svg version="1.1" id="Layer_38" xmlns="http://www.w3.org/2000/svg" xmlns:xlink="http://www.w3.org/1999/xlink" x="0px" y="0px"
	 viewBox="0 0 16 16" style="enable-background:new 0 0 16 16;" xml:space="preserve">
<style type="text/css">
	.st0{fill:#BBC9D3;}
	.st1{fill:#1C4B6C;}
</style>
<g>
	<path class="st0" d="M5.2,13.2c-2.1,0-3.7-0.6-4.5-1.7c-0.1-0.1-0.1-0.3,0.1-0.4C0.9,11,1.1,11,1.2,11.1c0.7,1,2.3,1.5,4.3,1.5
		c0,0,0,0,0,0c0.2,0,0.3,0.1,0.3,0.3c0,0.2-0.1,0.3-0.3,0.3C5.4,13.2,5.3,13.2,5.2,13.2z"/>
</g>
<path class="st1" d="M15.7,6.4c0-0.5-0.4-1-1-1c0,0,0,0,0,0c-0.7-1.1-2.3-1.7-4.3-1.8C10.3,3.3,10,3,9.6,3C9.1,3,8.7,3.4,8.6,3.8
	C8.3,3.8,8,3.9,7.8,4C6.6,4.2,5.4,4.6,4.4,5.2C4.2,5,4,4.9,3.7,4.9c-0.5,0-1,0.4-1,1c0,0.1,0,0.2,0.1,0.3C1.4,7.3,0.6,8.6,0.6,9.9
	c0,0.1,0,0.3,0,0.4c-0.2,0.2-0.4,0.4-0.4,0.7c0,0.5,0.4,1,1,1s1-0.4,1-1c0-0.5-0.4-1-1-1c0,0,0,0-0.1,0c0-0.1,0-0.1,0-0.2
	c0-1,0.7-2.2,2-3.2c0.2,0.1,0.3,0.2,0.5,0.2c0.5,0,1-0.4,1-1c0-0.1,0-0.1,0-0.2c1-0.5,2.1-0.9,3.2-1.2c0.3-0.1,0.5-0.1,0.8-0.1
	C8.8,4.7,9.2,5,9.6,5c0.4,0,0.8-0.3,0.9-0.7c1.7,0,3.1,0.5,3.7,1.4c-0.2,0.2-0.4,0.4-0.4,0.7c0,0.4,0.3,0.8,0.7,0.9
	c-0.2,1-1.1,2.1-2.3,3c-0.2-0.1-0.4-0.2-0.6-0.2c-0.5,0-1,0.4-1,1c0,0,0,0.1,0,0.1c-0.9,0.4-1.8,0.7-2.8,1c-0.4,0.1-0.8,0.2-1.2,0.2
	c-0.1-0.4-0.5-0.6-0.9-0.6c-0.5,0-1,0.4-1,1c0,0.5,0.4,1,1,1c0.5,0,0.8-0.3,0.9-0.7c0.4,0,0.9-0.1,1.3-0.2c1-0.2,2-0.6,2.9-1
	c0.2,0.2,0.4,0.3,0.7,0.3c0.5,0,1-0.4,1-1c0-0.1,0-0.2,0-0.3c1.5-1,2.4-2.3,2.6-3.5C15.5,7.1,15.7,6.8,15.7,6.4z"/>
</svg>
