<?xml version="1.0" encoding="utf-8"?>
<!-- Generator: Adobe Illustrator 18.1.1, SVG Export Plug-In . SVG Version: 6.00 Build 0)  -->
<!DOCTYPE svg PUBLIC "-//W3C//DTD SVG 1.1//EN" "http://www.w3.org/Graphics/SVG/1.1/DTD/svg11.dtd">
<svg version="1.1" id="Layer_1" xmlns="http://www.w3.org/2000/svg" xmlns:xlink="http://www.w3.org/1999/xlink" x="0px" y="0px"
	 viewBox="0 0 200 200" enable-background="new 0 0 200 200" xml:space="preserve">
<path fill-rule="evenodd" clip-rule="evenodd" fill="#FFFFFF" d="M128.517,146.256c0.363-0.163,0.76-0.298,1.19-0.405
	c2.64-0.667,4.84,0.1,6.6,2.3c0.087,0.117,0.178,0.24,0.275,0.37c-0.01-0.13-0.022-0.253-0.035-0.37
	c-0.203-2.697,0.875-4.417,3.235-5.16c1.49-0.7,2.58-0.953,3.27-0.76c0.43,0.11,0.703,0.39,0.82,0.84
	c0.153-1.197,0.478-2.025,0.975-2.485c0.03-0.037,0.062-0.065,0.095-0.085c0.16-0.15,0.348-0.252,0.565-0.305
	c0.173-0.063,0.352-0.087,0.535-0.07c0.033,0,0.065,0.007,0.095,0.02c0.637,0.087,1.267,0.642,1.89,1.665
	c0.047-1.187,0.36-2.067,0.94-2.64l0.015-0.01c0.863-0.44,1.488-0.678,1.875-0.715c0.487,0.077,0.853,0.245,1.1,0.505
	c0.473,0.73,0.798,1.727,0.975,2.99c0.117,0.893,0.158,1.928,0.125,3.105c0,0.01,0,0.025,0,0.045v0.02
	c-0.043,0.743-0.14,1.352-0.29,1.825c-0.507,1.51-1.6,1.715-3.28,0.615c0.02,1.347-0.682,2.188-2.105,2.525
	c0.087,0.387,0.14,0.74,0.16,1.06c0.087,0.95-0.078,1.587-0.495,1.91c-0.38,0.217-0.742,0.422-1.085,0.615
	c-0.65,0.357-1.255,0.682-1.815,0.975c-0.04,0.02-0.083,0.04-0.13,0.06c-0.097,0.053-0.192,0.107-0.285,0.16
	c-1.027,0.52-1.912,0.927-2.655,1.22c-0.087,0.03-0.173,0.062-0.26,0.095c-1.39,0.497-2.22,0.545-2.49,0.145v0.465
	c-1.993,1.34-4.315,2.387-6.965,3.14c-0.067,0.01-0.132,0.027-0.195,0.05c-1.833,0.797-3.445,0.177-4.835-1.86
	c-0.787,1-1.962,1.722-3.525,2.165c-1.673,0.357-3.248-0.15-4.725-1.52c0.023,2.567-1.182,4.13-3.615,4.69
	c-0.26,0.01-0.513,0.01-0.76,0c-0.24-0.023-0.478-0.057-0.715-0.1c-1.64-0.29-3.128-1.238-4.465-2.845
	c-0.183,0.467-0.372,0.892-0.565,1.275c-0.86,1.697-1.852,2.63-2.975,2.8c-1.55-0.087-2.72-0.76-3.51-2.02
	c-0.323-0.463-0.603-0.463-0.84,0c-0.69,1.433-1.303,2.203-1.84,2.31c-1.66-0.193-2.97-0.888-3.93-2.085
	c-0.43,1.833-1.812,2.205-4.145,1.115c-0.07-0.053-0.143-0.107-0.22-0.16c-0.52-0.41-0.935-0.863-1.245-1.36l-0.02-0.015
	c-0.063-0.097-0.122-0.198-0.175-0.305c-0.56-1.2-0.452-2.31,0.325-3.33c0.083-0.01,0.175-0.022,0.275-0.035
	c0.397-0.043,0.8-0.043,1.21,0c1.057,0.087,2.113,0.437,3.17,1.05c-0.187-1.27,0.045-2.17,0.695-2.7
	c0.043-0.03,0.14-0.067,0.29-0.11c0.01-0.01,0.032-0.015,0.065-0.015c0.057-0.013,0.112-0.02,0.165-0.02
	c1.207-0.13,2.493,0.145,3.86,0.825c0.3,0.153,0.603,0.32,0.91,0.5c0.04,0.023,0.082,0.05,0.125,0.08c0-0.03,0-0.057,0-0.08
	c-0.13-1.26,0.113-2.337,0.73-3.23c0.16-0.143,0.327-0.268,0.5-0.375c0.453-0.293,0.953-0.503,1.5-0.63
	c0.443-0.097,0.913-0.145,1.41-0.145c0.473,0.053,0.997,0.312,1.57,0.775c0.463,0.377,0.958,0.89,1.485,1.54
	c0.163,0.2,0.33,0.415,0.5,0.645c0.013-0.23,0.03-0.445,0.05-0.645c0.013-0.183,0.035-0.357,0.065-0.52
	c0.067-0.367,0.153-0.707,0.26-1.02c0.257-0.787,0.655-1.417,1.195-1.89c0.333-0.293,0.717-0.525,1.15-0.695
	c0.227-0.097,0.463-0.177,0.71-0.24c2.533-0.617,4.263,0.147,5.19,2.29c0.227-2.273,1.078-3.697,2.555-4.27
	c0.573-0.267,1.14-0.412,1.7-0.435c1.273-0.053,2.54,0.507,3.8,1.68c0.13,0.13,0.263,0.267,0.4,0.41
	c0.023-0.143,0.047-0.28,0.07-0.41c0.193-1.15,0.575-2.118,1.145-2.905C126.727,147.321,127.52,146.69,128.517,146.256z
	 M144.016,161.421l0.05-0.03c0.03-0.02,0.057-0.037,0.08-0.05c0.357-0.217,0.718-0.398,1.085-0.545
	c0.367-0.25,0.673-0.548,0.92-0.895c0.283-0.387,0.49-0.833,0.62-1.34c0.977-0.897,1.487-0.45,1.53,1.34c0,0.037,0,0.07,0,0.1
	c-0.513,0.593-1.035,1.153-1.565,1.68c-0.23,0.217-0.452,0.433-0.665,0.65c-0.31,0.29-0.617,0.57-0.92,0.84
	c-3.967,3.493-8.278,5.53-12.935,6.11c-0.43,0.057-0.862,0.1-1.295,0.13c-0.097-0.16-0.172-0.31-0.225-0.45
	c-0.217-0.53-0.12-0.898,0.29-1.105c0.903-0.04,1.885-0.347,2.945-0.92c1.057-0.583,2-0.933,2.83-1.05
	c1.14-0.69,2.18-1.202,3.12-1.535l0.935-0.275c0.053-0.013,0.103-0.023,0.15-0.03c0.893-1.013,1.815-1.828,2.765-2.445
	C143.825,161.534,143.92,161.474,144.016,161.421z"/>
<path fill-rule="evenodd" clip-rule="evenodd" fill="#F9C0C5" d="M144.941,140.501c-0.033,0.02-0.065,0.048-0.095,0.085
	c-0.497,0.46-0.822,1.288-0.975,2.485c-0.117-0.45-0.39-0.73-0.82-0.84c-0.69-0.193-1.78,0.06-3.27,0.76
	c-2.36,0.743-3.438,2.463-3.235,5.16h-0.24c-1.76-2.2-3.96-2.967-6.6-2.3c4.443-1.497,8.891-3.053,13.345-4.67
	C143.675,140.955,144.305,140.728,144.941,140.501z M148.981,139.162l-0.015,0.01c-0.58,0.573-0.893,1.453-0.94,2.64
	c-0.623-1.023-1.253-1.578-1.89-1.665c-0.03-0.013-0.062-0.02-0.095-0.02L148.981,139.162z M95.093,156.916l5.79-1.925
	c-0.617,0.893-0.86,1.97-0.73,3.23c0,0.023,0,0.05,0,0.08c-0.043-0.03-0.085-0.057-0.125-0.08c-0.307-0.18-0.61-0.347-0.91-0.5
	c-1.367-0.68-2.653-0.955-3.86-0.825C95.204,156.896,95.149,156.903,95.093,156.916z M104.292,153.841
	c1.227-0.353,2.45-0.71,3.67-1.07c0.043-0.02,0.092-0.035,0.145-0.045c0.82-0.247,1.64-0.495,2.46-0.745
	c3.383-1.023,6.768-2.08,10.155-3.17c0.69-0.217,1.38-0.437,2.07-0.66c1.907-0.627,3.815-1.258,5.725-1.895
	c-0.997,0.433-1.79,1.065-2.38,1.895c-0.57,0.787-0.952,1.755-1.145,2.905c-0.023,0.13-0.047,0.267-0.07,0.41
	c-0.137-0.143-0.27-0.28-0.4-0.41c-1.26-1.173-2.527-1.733-3.8-1.68c-0.56,0.023-1.127,0.168-1.7,0.435
	c-1.477,0.573-2.328,1.997-2.555,4.27c-0.927-2.143-2.657-2.907-5.19-2.29c-0.247,0.063-0.483,0.143-0.71,0.24
	c-0.433,0.17-0.817,0.402-1.15,0.695c-0.54,0.473-0.938,1.103-1.195,1.89c-0.107,0.313-0.193,0.653-0.26,1.02
	c-0.03,0.163-0.052,0.337-0.065,0.52c-0.02,0.2-0.037,0.415-0.05,0.645c-0.17-0.23-0.337-0.445-0.5-0.645
	c-0.527-0.65-1.022-1.163-1.485-1.54C105.289,154.153,104.766,153.895,104.292,153.841z"/>
<path fill-rule="evenodd" clip-rule="evenodd" fill="#F58F91" d="M129.707,145.851c-0.43,0.107-0.827,0.242-1.19,0.405
	c-1.91,0.637-3.818,1.268-5.725,1.895c-0.69,0.223-1.38,0.443-2.07,0.66c-3.387,1.09-6.772,2.147-10.155,3.17
	c-0.82,0.25-1.64,0.498-2.46,0.745c-0.053,0.01-0.102,0.025-0.145,0.045c-1.22,0.36-2.443,0.717-3.67,1.07
	c-0.497,0-0.967,0.048-1.41,0.145c-0.547,0.127-1.047,0.337-1.5,0.63c-0.173,0.107-0.34,0.232-0.5,0.375l-5.79,1.925
	c-0.033,0-0.055,0.005-0.065,0.015c-0.15,0.043-0.247,0.08-0.29,0.11c-0.65,0.53-0.882,1.43-0.695,2.7
	c-1.057-0.613-2.113-0.963-3.17-1.05c-0.41-0.043-0.813-0.043-1.21,0h-0.035c0.767-0.86,2.21-1.485,4.33-1.875
	c8.983-2.827,17.98-6.163,26.989-10.01c9.67-1.487,15.141-3.778,16.415-6.875c1.85,1.08,6.36,0.408,13.53-2.015
	c0.4-0.13,0.808-0.272,1.225-0.425c0.053,0.467-0.355,0.78-1.225,0.94c-0.013,0-0.025,0.005-0.035,0.015
	c-0.387,0.037-1.012,0.275-1.875,0.715l-2.94,0.965c-0.183-0.017-0.362,0.007-0.535,0.07c-0.217,0.053-0.405,0.155-0.565,0.305
	c-0.637,0.227-1.267,0.453-1.89,0.68C138.598,142.798,134.15,144.355,129.707,145.851z M136.547,148.151
	c0.013,0.117,0.025,0.24,0.035,0.37c-0.097-0.13-0.188-0.253-0.275-0.37H136.547z M148.301,159.901
	c0.337-0.193,0.645-0.635,0.925-1.325c0.267-0.69,0.373-1.4,0.32-2.13c0.1-1.583,0.64-2.92,1.62-4.01
	c1.033-1.153,1.658-2.588,1.875-4.305c0.063-0.47,0.208-0.868,0.435-1.195c0.343-0.487,0.877-0.81,1.6-0.97
	c1.81,1.357,1.412,3.868-1.195,7.535c-1.27,1.78-1.97,3.18-2.1,4.2c-0.93,2.61-3,4.74-6.21,6.39c-1.857,0.96-1.997,0.653-0.42-0.92
	c0.303-0.27,0.61-0.55,0.92-0.84c0.213-0.217,0.435-0.433,0.665-0.65c0.53-0.527,1.052-1.087,1.565-1.68
	C148.301,159.971,148.301,159.938,148.301,159.901z M89.238,162.361c-1.613-0.313-2.362-0.97-2.245-1.97
	c0.55-0.81,1.348-1.365,2.395-1.665c-0.777,1.02-0.885,2.13-0.325,3.33C89.116,162.163,89.174,162.264,89.238,162.361z"/>
<path fill-rule="evenodd" clip-rule="evenodd" fill="#C24E4E" d="M152.116,137.492c0.52,0.337,1.007,0.358,1.46,0.065
	c0.44-0.29,0.785-0.565,1.035-0.825c0.237-0.27,0.413-0.473,0.53-0.61c0.033-0.043,0.065-0.087,0.095-0.13
	c0.12-0.153,0.24-0.31,0.36-0.47c0.067-0.087,0.132-0.178,0.195-0.275c0.043-0.077,0.092-0.152,0.145-0.225
	c0.117-0.033,0.225-0.05,0.325-0.05c1.053-0.053,1.522,1.423,1.405,4.43c-0.01,0.043-0.022,0.087-0.035,0.13
	c-0.107,0.343-0.218,0.698-0.335,1.065c0.193,0.453,0.355,0.902,0.485,1.345c0.137,0.507,0.233,1.003,0.29,1.49
	c-0.94-2.113-2.6-1.575-4.98,1.615h-0.035c0.033-1.177-0.008-2.212-0.125-3.105c-0.177-1.263-0.502-2.26-0.975-2.99
	c-0.247-0.26-0.613-0.428-1.1-0.505c0.01-0.01,0.022-0.015,0.035-0.015C151.761,138.272,152.17,137.958,152.116,137.492z
	 M110.387,169.086c-0.367-0.137-0.943-0.277-1.73-0.42c-0.787-0.15-1.503-0.235-2.15-0.255c-0.643-0.033-1.672-0.175-3.085-0.425
	c-1.427-0.257-2.958-0.682-4.595-1.275c-1.65-0.593-3.31-0.91-4.98-0.95c-1.683-0.037-2.798-0.712-3.345-2.025
	c0.077,0.053,0.15,0.107,0.22,0.16c2.333,1.09,3.715,0.718,4.145-1.115c0.96,1.197,2.27,1.892,3.93,2.085
	c0.537-0.107,1.15-0.877,1.84-2.31c0.237-0.463,0.517-0.463,0.84,0c0.79,1.26,1.96,1.933,3.51,2.02
	c1.123-0.17,2.115-1.103,2.975-2.8c0.193-0.383,0.382-0.808,0.565-1.275c1.337,1.607,2.825,2.555,4.465,2.845
	c0.237,0.043,0.475,0.077,0.715,0.1c0.247,0.01,0.5,0.01,0.76,0c2.433-0.56,3.638-2.123,3.615-4.69
	c1.477,1.37,3.052,1.877,4.725,1.52c1.563-0.443,2.738-1.165,3.525-2.165c1.39,2.037,3.002,2.657,4.835,1.86
	c0.063-0.023,0.128-0.04,0.195-0.05c-2.513,1.81-2.513,3.907,0,6.29c-6.6-3.18-12.243-3.93-16.93-2.25
	c-2.557-0.203-4.373-0.11-5.45,0.28c-1.12,0.407-1.448,1.138-0.985,2.195c0.117,0.28,0.293,0.588,0.53,0.925
	c0.1,0.137,0.213,0.282,0.34,0.435C109.137,168.129,109.644,168.559,110.387,169.086z M149.546,156.446
	c0.053,0.73-0.053,1.44-0.32,2.13c-0.28,0.69-0.588,1.132-0.925,1.325c-0.043-1.79-0.553-2.237-1.53-1.34
	c-0.13,0.507-0.337,0.953-0.62,1.34c-0.247,0.347-0.553,0.645-0.92,0.895c-0.367,0.147-0.728,0.328-1.085,0.545
	c-0.023,0.013-0.05,0.03-0.08,0.05l-0.05,0.03c0.463-1-0.065-2.018-1.585-3.055c-0.4-0.537-0.258-0.923,0.425-1.16
	c0.95-0.553,1.337-1.39,1.16-2.51c0.047-0.02,0.09-0.04,0.13-0.06c0.56-0.293,1.165-0.618,1.815-0.975
	c0.343-0.193,0.705-0.398,1.085-0.615C148.553,152.823,149.386,153.956,149.546,156.446z"/>
<path fill-rule="evenodd" clip-rule="evenodd" fill="#E55B5E" d="M153.056,145.091c0-0.02,0-0.035,0-0.045h0.035
	C153.078,145.056,153.066,145.071,153.056,145.091z"/>
<path fill-rule="evenodd" clip-rule="evenodd" fill="#F37579" d="M144.016,154.696c0.177,1.12-0.21,1.957-1.16,2.51
	c-0.683,0.237-0.825,0.623-0.425,1.16c1.52,1.037,2.048,2.055,1.585,3.055c-0.097,0.053-0.192,0.113-0.285,0.18
	c-0.95,0.617-1.872,1.432-2.765,2.445c-0.047,0.007-0.097,0.017-0.15,0.03l-0.935,0.275c-0.94,0.333-1.98,0.845-3.12,1.535
	c-0.83,0.117-1.773,0.467-2.83,1.05c-1.06,0.573-2.042,0.88-2.945,0.92c-0.41,0.207-0.507,0.575-0.29,1.105
	c0.053,0.14,0.128,0.29,0.225,0.45c-0.43,0-0.85,0.082-1.26,0.245c-0.01,0-1.8,0.312-5.37,0.935
	c-10.993-0.753-16.096-2.87-15.31-6.35c1.077-0.39,2.893-0.483,5.45-0.28c4.687-1.68,10.33-0.93,16.93,2.25
	c-2.513-2.383-2.513-4.48,0-6.29c2.65-0.753,4.972-1.8,6.965-3.14v-0.465c0.27,0.4,1.1,0.352,2.49-0.145
	c0.087-0.033,0.173-0.065,0.26-0.095c0.743-0.293,1.628-0.7,2.655-1.22C143.825,154.803,143.92,154.749,144.016,154.696z"/>
<path fill-rule="evenodd" clip-rule="evenodd" fill="#F16468" d="M153.056,145.091c0.01-0.02,0.022-0.035,0.035-0.045
	c2.38-3.19,4.04-3.728,4.98-1.615c0,0.02,0.005,0.04,0.015,0.06c-0.767-0.41-1.57-0.55-2.41-0.42c-1.1,0.13-0.922,0.81,0.535,2.04
	c0.27,0.223,0.582,0.47,0.935,0.74c-0.807-0.063-1.497-0.025-2.07,0.115c-0.723,0.16-1.257,0.483-1.6,0.97
	c-0.227,0.327-0.372,0.725-0.435,1.195c-0.217,1.717-0.842,3.152-1.875,4.305c-0.98,1.09-1.52,2.427-1.62,4.01
	c-0.16-2.49-0.993-3.623-2.5-3.4c0.417-0.323,0.582-0.96,0.495-1.91c-0.02-0.32-0.073-0.673-0.16-1.06
	c1.423-0.337,2.125-1.178,2.105-2.525c1.68,1.1,2.773,0.895,3.28-0.615c0.15-0.473,0.247-1.082,0.29-1.825V145.091z
	 M124.292,170.591c-4.377,0.767-9.011,0.265-13.905-1.505c-0.743-0.527-1.25-0.957-1.52-1.29c-0.127-0.153-0.24-0.298-0.34-0.435
	c-0.237-0.337-0.413-0.645-0.53-0.925c-0.463-1.057-0.135-1.788,0.985-2.195C108.196,167.721,113.299,169.837,124.292,170.591z"/>
<path fill-rule="evenodd" clip-rule="evenodd" fill="#FAC9CD" d="M134.677,136.992c1.4,1.437,1.49,2.85,0.27,4.24
	c-1.217,1.39-2.15,1.907-2.8,1.55c-0.643-0.367-0.55-1.187,0.28-2.46c0.827-1.28,1.058-2.513,0.695-3.7
	C132.755,135.435,133.273,135.558,134.677,136.992z M117.922,177.646c-5.031,0.159-9.403-1.788-13.115-5.84
	c2.45,0.107,5.125,0.887,8.025,2.34c2.886,1.456,5.714,2.364,8.482,2.722C124.084,177.227,122.953,177.486,117.922,177.646z
	 M153.771,167.136c0.305,1.098-0.645,2.821-2.85,5.17c-2.206,2.349-5.301,4.406-9.285,6.172c-3.984,1.765-6.94,1.934-8.867,0.505
	c-1.928-1.428-2.063-2.796-0.405-4.102c1.658-1.307,4.345-1.685,8.06-1.135c3.713,0.55,6.79-0.688,9.23-3.715
	C152.094,167.003,153.466,166.038,153.771,167.136z"/>
<path fill-rule="evenodd" clip-rule="evenodd" fill="#F9B8BC" d="M152.116,137.492c1.123-0.623,1.965-1.41,2.525-2.36
	c0.55-0.937,0.998-1.453,1.345-1.55c0.443-0.077,0.535,0.387,0.275,1.39c-0.1,0-0.208,0.017-0.325,0.05
	c-0.053,0.073-0.102,0.148-0.145,0.225c-0.063,0.097-0.128,0.188-0.195,0.275c-0.12,0.16-0.24,0.317-0.36,0.47
	c-0.03,0.043-0.062,0.087-0.095,0.13c-0.117,0.137-0.293,0.34-0.53,0.61c-0.25,0.26-0.595,0.535-1.035,0.825
	C153.123,137.85,152.636,137.828,152.116,137.492z"/>
<path fill-rule="evenodd" clip-rule="evenodd" fill="#F7A2A8" d="M89.388,158.726c-1.047,0.3-1.845,0.855-2.395,1.665
	c-0.117,1,0.632,1.657,2.245,1.97l0.02,0.015c0.31,0.497,0.725,0.95,1.245,1.36c0.547,1.313,1.662,1.988,3.345,2.025
	c1.67,0.04,3.33,0.357,4.98,0.95c1.637,0.593,3.168,1.018,4.595,1.275c1.413,0.25,2.442,0.392,3.085,0.425
	c0.647,0.02,1.363,0.105,2.15,0.255c0.787,0.143,1.363,0.283,1.73,0.42c4.893,1.77,9.528,2.272,13.905,1.505
	c3.57-0.623,5.36-0.935,5.37-0.935c0.41-0.163,0.83-0.245,1.26-0.245c0.433-0.03,0.865-0.073,1.295-0.13
	c4.657-0.58,8.968-2.617,12.935-6.11c-1.577,1.573-1.437,1.88,0.42,0.92c3.21-1.65,5.28-3.78,6.21-6.39c0.13-1.02,0.83-2.42,2.1-4.2
	c2.607-3.667,3.005-6.178,1.195-7.535c0.573-0.14,1.263-0.178,2.07-0.115c-0.353-0.27-0.665-0.517-0.935-0.74
	c-1.457-1.23-1.635-1.91-0.535-2.04c0.84-0.13,1.643,0.01,2.41,0.42c0.043,0.497,0.043,0.987,0,1.47c0,0.057-0.005,0.107-0.015,0.15
	c-0.033,0.333-0.093,0.662-0.18,0.985c0.173,0.84,0.325,1.67,0.455,2.49c0.17,1.11,0.308,2.21,0.415,3.3
	c0.183,2.003,0.243,3.965,0.18,5.885c-0.03,1.087-0.105,2.158-0.225,3.215c-0.053,0.453-0.112,0.902-0.175,1.345
	c-0.217,1.457-0.508,2.88-0.875,4.27c-0.96,1.593-2.032,3.08-3.215,4.46c-4.443,5.143-10.486,8.76-18.13,10.85
	c-9.7,2.64-18.943,1.26-27.729-4.14c-3.683-2.833-7.606-5.658-11.77-8.475c-0.873-0.59-1.758-1.182-2.655-1.775
	c-0.287-0.183-0.572-0.367-0.855-0.55c-0.453-0.3-0.905-0.597-1.355-0.89c-0.077-0.043-0.147-0.087-0.21-0.13
	c-0.153-0.097-0.305-0.193-0.455-0.29c-0.01-0.01-0.02-0.022-0.03-0.035c-0.067-0.04-0.132-0.077-0.195-0.11
	c-0.14-0.097-0.282-0.188-0.425-0.275c-0.053-0.033-0.1-0.06-0.14-0.08c-0.043-0.033-0.082-0.06-0.115-0.08
	c-0.03-0.023-0.068-0.047-0.115-0.07c-0.063-0.043-0.128-0.085-0.195-0.125c-0.117-0.077-0.235-0.153-0.355-0.23
	c-1.023-0.647-2.063-1.292-3.12-1.935c-0.71-1.21-0.71-2.423,0-3.64c9.366-5.636,18.713-11.646,28.039-18.03
	c5.527-3.783,10.721-5.702,15.585-5.755c2.533,0.087,4.405-0.555,5.615-1.925c1.82-2.047,4.173-3.282,7.06-3.705
	c7.17-1.02,12.08,0.485,14.73,4.515c0.013,0.01,0.025,0.025,0.035,0.045c0.14,0.24,0.247,0.505,0.32,0.795
	c0.293,1.077,0.187,2.537-0.32,4.38c0.117-3.007-0.352-4.483-1.405-4.43c0.26-1.003,0.168-1.467-0.275-1.39
	c-0.347,0.097-0.795,0.613-1.345,1.55c-0.56,0.95-1.402,1.737-2.525,2.36c-0.417,0.153-0.825,0.295-1.225,0.425
	c-7.17,2.423-11.68,3.095-13.53,2.015c-1.273,3.097-6.745,5.388-16.415,6.875c-9.01,3.847-18.006,7.183-26.989,10.01
	c-2.12,0.39-3.563,1.015-4.33,1.875h0.035C89.563,158.704,89.471,158.716,89.388,158.726z M134.677,136.992
	c-1.403-1.433-1.922-1.557-1.555-0.37c0.363,1.187,0.132,2.42-0.695,3.7c-0.83,1.273-0.923,2.093-0.28,2.46
	c0.65,0.357,1.583-0.16,2.8-1.55C136.167,139.842,136.077,138.428,134.677,136.992z M117.922,177.646
	c5.031-0.159,6.162-0.418,3.392-0.778c-2.769-0.359-5.596-1.266-8.482-2.722c-2.9-1.453-5.575-2.233-8.025-2.34
	C108.519,175.858,112.891,177.804,117.922,177.646z M153.771,167.136c-0.305-1.098-1.677-0.133-4.117,2.895
	c-2.44,3.027-5.516,4.265-9.23,3.715c-3.715-0.55-6.401-0.172-8.06,1.135c-1.658,1.307-1.523,2.674,0.405,4.102
	c1.928,1.429,4.884,1.26,8.867-0.505c3.984-1.766,7.079-3.824,9.285-6.172C153.127,169.957,154.077,168.234,153.771,167.136z"/>
<path fill-rule="evenodd" clip-rule="evenodd" fill="#4F7F9D" d="M129.902,59.578c-1.367-0.26-2.573-0.912-3.62-1.955
	c-1.403-1.403-2.105-3.08-2.105-5.03c0-0.477,0.045-0.93,0.135-1.36v-0.015c1.443-2.23,4.277-4.095,8.5-5.595
	c1.327,0.27,2.502,0.912,3.525,1.925c0.24,0.237,0.457,0.478,0.65,0.725c0.957,1.243,1.435,2.683,1.435,4.32
	c0,1.95-0.695,3.627-2.085,5.03c-0.063,0.063-0.122,0.122-0.175,0.175C133.812,58.165,131.725,58.759,129.902,59.578z
	 M133.837,54.434c0.017,0.443,0.005,0.865-0.035,1.265c-0.13,1.27-0.022,1.885,0.325,1.845c0.957,0.3,1.543-0.472,1.76-2.315
	c0.203-1.857-0.12-3.7-0.97-5.53c-1.24-0.647-1.887-0.598-1.94,0.145c-0.507-0.323-1.078-0.485-1.715-0.485
	c-0.87,0-1.623,0.313-2.26,0.94c-0.617,0.613-0.925,1.362-0.925,2.245c0,0.877,0.308,1.622,0.925,2.235
	c0.637,0.633,1.39,0.95,2.26,0.95c0.883,0,1.638-0.317,2.265-0.95C133.633,54.672,133.737,54.557,133.837,54.434z M127.267,52.514
	c0.313-1.143,0.168-1.64-0.435-1.49c-0.613,0.14-1.057,0.485-1.33,1.035c-0.267,0.54-0.33,1.3-0.19,2.28
	c0.14,0.98,0.603,1.822,1.39,2.525c0.787,0.7,1.52,1.033,2.2,1c0.68-0.03,0.955-0.293,0.825-0.79
	c-0.12-0.497-0.638-1.095-1.555-1.795C127.245,54.565,126.944,53.644,127.267,52.514z M61.643,84.653
	c-1.953,0.713-3.948,1.155-5.985,1.325h-0.47c-1.14-0.31-2.158-0.917-3.055-1.82c-0.853-0.853-1.442-1.802-1.765-2.845
	c0.423-2.417,1.787-3.722,4.09-3.915c-0.183,0.387-0.275,0.812-0.275,1.275c0,0.883,0.307,1.633,0.92,2.25
	c0.637,0.623,1.393,0.935,2.27,0.935c0.883,0,1.638-0.312,2.265-0.935c0.613-0.617,0.92-1.367,0.92-2.25
	c0-0.873-0.307-1.617-0.92-2.23c-0.597-0.593-1.303-0.907-2.12-0.94c0.853-2.477,2.405-2.95,4.655-1.42
	c1.4,1.39,2.1,3.072,2.1,5.045c0,1.95-0.7,3.627-2.1,5.03C62.067,84.265,61.89,84.43,61.643,84.653z M60.638,75.258
	c-0.777,0.1-0.917,0.652-0.42,1.655c0.483,1,0.64,2.303,0.47,3.91c-0.183,1.607,0.403,2.183,1.76,1.73
	c0.907-1.8,0.998-3.477,0.275-5.03C62.003,75.96,61.308,75.205,60.638,75.258z M60.538,83.233c-0.02-0.603-0.527-0.802-1.52-0.595
	c-0.99,0.193-1.948,0.052-2.875-0.425c-0.927-0.473-1.747-0.65-2.46-0.53c-0.72,0.107-1.042,0.457-0.965,1.05
	c0.07,0.59,0.495,1.1,1.275,1.53c0.763,0.423,1.69,0.668,2.78,0.735c1.09,0.063,1.995-0.062,2.715-0.375
	C60.212,84.3,60.562,83.836,60.538,83.233z"/>
<path fill-rule="evenodd" clip-rule="evenodd" fill="#3B5D73" d="M136.162,57.799c0.053-0.053,0.112-0.112,0.175-0.175
	c1.39-1.403,2.085-3.08,2.085-5.03c0-1.637-0.478-3.077-1.435-4.32c-0.193-0.247-0.41-0.488-0.65-0.725
	c-1.023-1.013-2.198-1.655-3.525-1.925h2.28c0.637,0.357,1.237,0.815,1.8,1.375c0.407,0.397,0.762,0.822,1.065,1.275
	c0.84,1.26,1.26,2.7,1.26,4.32c0,1.993-0.652,3.728-1.955,5.205H136.162z M124.312,51.234c-0.09,0.43-0.135,0.883-0.135,1.36
	c0,1.95,0.702,3.627,2.105,5.03c1.047,1.043,2.253,1.695,3.62,1.955l-1.55,0.37c-0.97-0.387-1.848-0.973-2.635-1.76
	c-1.55-1.553-2.325-3.418-2.325-5.595c0-0.293,0.015-0.578,0.045-0.855L124.312,51.234z M133.837,54.434
	c-0.1,0.123-0.203,0.238-0.31,0.345c-0.627,0.633-1.382,0.95-2.265,0.95c-0.87,0-1.623-0.317-2.26-0.95
	c-0.617-0.613-0.925-1.358-0.925-2.235c0-0.883,0.308-1.632,0.925-2.245c0.637-0.627,1.39-0.94,2.26-0.94
	c0.637,0,1.208,0.162,1.715,0.485c-0.023,0.12-0.023,0.255,0,0.405c-0.493-0.377-1.065-0.565-1.715-0.565
	c-0.787,0-1.467,0.28-2.04,0.84c-0.56,0.55-0.84,1.223-0.84,2.02c0,0.787,0.28,1.455,0.84,2.005c0.573,0.57,1.253,0.855,2.04,0.855
	c0.787,0,1.465-0.285,2.035-0.855c0.193-0.193,0.355-0.403,0.485-0.63C133.805,54.092,133.823,54.264,133.837,54.434z
	 M55.334,76.668c-0.223,0.227-0.4,0.47-0.53,0.73c-0.023,0.04-0.04,0.082-0.05,0.125c-0.173,0.357-0.26,0.74-0.26,1.15
	c0,0.8,0.28,1.473,0.84,2.02c0.57,0.573,1.25,0.86,2.04,0.86c0.783,0,1.462-0.287,2.035-0.86c0.55-0.547,0.825-1.22,0.825-2.02
	c0-0.787-0.275-1.455-0.825-2.005c-0.537-0.527-1.173-0.807-1.91-0.84c-0.053,0-0.095,0-0.125,0c-0.217,0-0.417,0.022-0.6,0.065
	C56.224,75.99,55.744,76.248,55.334,76.668z M55.189,85.978h-2.005c-0.57-0.33-1.108-0.748-1.615-1.255
	c-1.38-1.383-2.145-3.018-2.295-4.905c-0.013-0.083-0.02-0.168-0.02-0.255c4.497-4.647,8.716-6.9,12.66-6.76
	c0.28,0.217,0.555,0.458,0.825,0.725c0.107,0.11,0.215,0.225,0.325,0.345c1.337,1.477,2.005,3.228,2.005,5.255
	c0,1.767-0.512,3.328-1.535,4.685l-1.89,0.84c0.247-0.223,0.423-0.388,0.53-0.495c1.4-1.403,2.1-3.08,2.1-5.03
	c0-1.973-0.7-3.655-2.1-5.045c-2.25-1.53-3.802-1.057-4.655,1.42c0.817,0.033,1.523,0.347,2.12,0.94
	c0.613,0.613,0.92,1.357,0.92,2.23c0,0.883-0.307,1.633-0.92,2.25c-0.627,0.623-1.382,0.935-2.265,0.935
	c-0.877,0-1.633-0.312-2.27-0.935c-0.613-0.617-0.92-1.367-0.92-2.25c0-0.463,0.092-0.888,0.275-1.275
	c-2.303,0.193-3.667,1.498-4.09,3.915c0.323,1.043,0.912,1.992,1.765,2.845C53.03,85.061,54.049,85.668,55.189,85.978z"/>
<path fill-rule="evenodd" clip-rule="evenodd" fill="#6D97B6" d="M127.267,52.514c-0.323,1.13-0.022,2.052,0.905,2.765
	c0.917,0.7,1.435,1.298,1.555,1.795c0.13,0.497-0.145,0.76-0.825,0.79c-0.68,0.033-1.413-0.3-2.2-1
	c-0.787-0.703-1.25-1.545-1.39-2.525c-0.14-0.98-0.077-1.74,0.19-2.28c0.273-0.55,0.717-0.895,1.33-1.035
	C127.435,50.874,127.58,51.37,127.267,52.514z M60.538,83.233c0.023,0.603-0.327,1.067-1.05,1.39
	c-0.72,0.313-1.625,0.438-2.715,0.375c-1.09-0.067-2.017-0.312-2.78-0.735c-0.78-0.43-1.205-0.94-1.275-1.53
	c-0.077-0.593,0.245-0.943,0.965-1.05c0.713-0.12,1.533,0.057,2.46,0.53c0.927,0.477,1.885,0.618,2.875,0.425
	C60.012,82.431,60.519,82.63,60.538,83.233z"/>
<path fill-rule="evenodd" clip-rule="evenodd" fill="#010101" d="M132.977,50.249c0.03,0.227,0.095,0.502,0.195,0.825
	c0.313,1.037,0.517,1.985,0.61,2.845c-0.13,0.227-0.292,0.437-0.485,0.63c-0.57,0.57-1.248,0.855-2.035,0.855
	c-0.787,0-1.467-0.285-2.04-0.855c-0.56-0.55-0.84-1.218-0.84-2.005c0-0.797,0.28-1.47,0.84-2.02c0.573-0.56,1.253-0.84,2.04-0.84
	C131.912,49.684,132.483,49.872,132.977,50.249z M55.334,76.668c0.41-0.42,0.89-0.678,1.44-0.775c0.183-0.043,0.383-0.065,0.6-0.065
	c0.03,0,0.072,0,0.125,0c0.737,0.033,1.373,0.313,1.91,0.84c0.55,0.55,0.825,1.218,0.825,2.005c0,0.8-0.275,1.473-0.825,2.02
	c-0.573,0.573-1.252,0.86-2.035,0.86c-0.79,0-1.47-0.287-2.04-0.86c-0.56-0.547-0.84-1.22-0.84-2.02c0-0.41,0.087-0.793,0.26-1.15
	c0.01-0.043,0.027-0.085,0.05-0.125C54.934,77.138,55.11,76.895,55.334,76.668z"/>
<path fill-rule="evenodd" clip-rule="evenodd" fill="#B3CCDD" d="M132.977,49.844c0.053-0.743,0.7-0.792,1.94-0.145
	c0.85,1.83,1.173,3.673,0.97,5.53c-0.217,1.843-0.803,2.615-1.76,2.315c-0.347,0.04-0.455-0.575-0.325-1.845
	c0.04-0.4,0.052-0.822,0.035-1.265c-0.013-0.17-0.032-0.342-0.055-0.515c-0.093-0.86-0.297-1.808-0.61-2.845
	c-0.1-0.323-0.165-0.598-0.195-0.825C132.953,50.099,132.953,49.964,132.977,49.844z M60.638,75.258
	c0.67-0.053,1.365,0.702,2.085,2.265c0.723,1.553,0.632,3.23-0.275,5.03c-1.357,0.453-1.943-0.123-1.76-1.73
	c0.17-1.607,0.013-2.91-0.47-3.91C59.722,75.91,59.862,75.358,60.638,75.258z"/>
<path fill-rule="evenodd" clip-rule="evenodd" fill="#010101" d="M133.217,27.484c-9.873,7.663-15.57,10.766-17.09,9.31
	c-1.367-4.063,3.738-9.398,15.315-16.005c13.806-6.953,22.181-5.81,25.124,3.43C150.873,18.73,143.09,19.818,133.217,27.484z
	 M151.471,48.859c-0.56-0.077-1.013-0.265-1.36-0.565c-2.897,5.107-6.442,8.226-10.635,9.36
	C145.76,56.584,149.758,53.652,151.471,48.859z M148.451,54.759c-2.827,2.2-5.84,3.428-9.04,3.685
	c-5.563,0.163-9.602,0.957-12.115,2.38c-3.837,1.867-5.898,1.398-6.185-1.405c0.817,2.337,2.815,2.648,5.995,0.935
	c3.18-1.713,6.732-2.748,10.655-3.105c4.57-0.227,8.553-3.337,11.95-9.33c-4-2.627-8.777-3.368-14.33-2.225
	c-6.39,1.15-11.05,4.533-13.98,10.15c-0.4,0.097-0.682,0.295-0.845,0.595c0.57-3.587,1.858-6.453,3.865-8.6
	c3.137-2.78,7.976-4.8,14.52-6.06c8.117-0.8,13.355,1.527,15.715,6.98c-0.697,0.217-1.563,0.267-2.6,0.15
	C152.476,50.612,151.275,52.562,148.451,54.759z M77.408,77.363c0.74-0.3,1.725-0.503,2.955-0.61c1.65-1.45,0.772-2.195-2.635-2.235
	C78.168,75.585,78.061,76.533,77.408,77.363z M132.202,37.899c8.276-2.817,14.786-1.547,19.529,3.81
	c-4.743-4.87-11.151-5.937-19.225-3.2c-8.086,2.763-12.71,9.15-13.87,19.16C119.39,47.299,123.912,40.709,132.202,37.899z
	 M76.983,78.463c-2.35,0.68-4.727,1.942-7.13,3.785c-7.016,4.797-13.388,6.968-19.115,6.515c-5.72-0.453-9.21,0.307-10.47,2.28
	c0.517-0.937,0.198-1.535-0.955-1.795c0.743-1.003,0.613-1.652-0.39-1.945c1.92-1.59,3.773-3.852,5.56-6.785
	c1.79-2.947,5.542-5.842,11.255-8.685c5.713-2.847,11.723-3.267,18.03-1.26c6.303,1.993,9.148,3.762,8.535,5.305
	c-0.01,0.893-1.568,1.695-4.675,2.405C77.415,78.34,77.2,78.4,76.983,78.463z M75.593,73.738c-7.816-1.86-14.348-1.477-19.595,1.15
	c-5.263,2.633-8.595,6.568-9.995,11.805c0.767-0.787,3.467-1.098,8.1-0.935c3.267,0.247,7.643-1.047,13.13-3.88
	c-5.1,3.24-9.39,4.787-12.87,4.64c-3.493-0.163-5.968,0.04-7.425,0.61c5.943,2.167,11.55,1.445,16.82-2.165
	c5.627-3.87,9.993-6.345,13.1-7.425C77.365,75.318,76.943,74.051,75.593,73.738z M71.568,51.349
	c-24.189-0.42-42.202,7.265-54.039,23.054c6.027-13.333,15.745-21.821,29.154-25.464c19.5-5.24,32.084-5.58,37.754-1.02
	C86.731,50.799,82.441,51.942,71.568,51.349z M36.369,85.688c1.173-0.797,2.59-2.758,4.25-5.885
	c7.576-15.316,19.601-19.756,36.074-13.32c-15.856-5.877-27.736-1.36-35.639,13.55C39.341,83.266,37.779,85.151,36.369,85.688z
	 M114.562,121.537c-1.693-0.303-1.79-1.078-0.29-2.325c1.497-1.253,4.853-1.453,10.07-0.6c0.603,0.47-0.227,0.705-2.49,0.705
	c-2.273,0-3.637,0.442-4.09,1.325C117.309,121.519,116.242,121.817,114.562,121.537z"/>
<path fill-rule="evenodd" clip-rule="evenodd" fill="#010101" d="M152.151,49.104c-0.107-0.453,0.395-0.513,1.505-0.18
	c1.1,0.32,3.143-0.053,6.13-1.12c-1.877,1.317-3.597,1.98-5.16,1.99C153.063,49.807,152.238,49.577,152.151,49.104z M152.621,45.074
	c-0.97,0.52-1.645,0.527-2.025,0.02c-0.353-0.53-0.002-0.875,1.055-1.035c1.053-0.143,2.617-1.59,4.69-4.34
	C154.821,42.782,153.581,44.567,152.621,45.074z M148.511,44.139c-0.343-0.483-0.1-0.855,0.73-1.115
	c0.82-0.27,2.362-1.807,4.625-4.61c-1.673,2.987-2.898,4.808-3.675,5.465C149.418,44.536,148.858,44.622,148.511,44.139z
	 M148.301,43.069c-0.773,0.583-1.333,0.633-1.68,0.15c-0.16-0.23-0.192-0.415-0.095-0.555c-0.597,0.333-1.012,0.33-1.245-0.01
	c-0.25-0.347,0.03-0.628,0.84-0.845c0.797-0.217,1.965-2,3.505-5.35c-0.407,2.94-1.15,4.825-2.23,5.655
	c-0.18,0.14-0.352,0.258-0.515,0.355c0.11-0.03,0.25-0.045,0.42-0.045c0.787-0.053,1.968-1.332,3.545-3.835
	C149.926,40.982,149.078,42.476,148.301,43.069z M158.361,40.594c-1.467,3.093-2.68,4.893-3.64,5.4
	c-0.97,0.52-1.643,0.527-2.02,0.02c-0.353-0.53-0.003-0.875,1.05-1.035C154.808,44.836,156.344,43.374,158.361,40.594z
	 M155.891,47.939c-1.027,0.377-1.692,0.29-1.995-0.26c-0.28-0.583,0.113-0.88,1.18-0.89c1.067,0,2.793-1.235,5.18-3.705
	C158.366,45.944,156.911,47.562,155.891,47.939z M152.851,51.109c0.923,0.33,2.275,1.573,4.055,3.73
	c-2.233-1.797-3.835-2.695-4.805-2.695c-0.967-0.013-1.322-0.283-1.065-0.81C151.303,50.837,151.908,50.762,152.851,51.109z
	 M151.906,52.224c0.93,0.333,2.193,1.513,3.79,3.54c-2.05-1.67-3.56-2.505-4.53-2.505c-0.25,0-0.455-0.018-0.615-0.055
	c0.873,0.52,2.005,1.912,3.395,4.175c-2.027-2.21-3.525-3.315-4.495-3.315c-0.97-0.01-1.325-0.278-1.065-0.805
	c0.257-0.487,0.838-0.568,1.745-0.245c-0.14-0.14-0.152-0.33-0.035-0.57C150.366,51.95,150.97,51.877,151.906,52.224z
	 M152.136,50.154c0.023-0.477,0.373-0.477,1.05,0c0.68,0.473,2.653,0.703,5.92,0.69c-2.253,0.573-3.985,0.72-5.195,0.44
	C152.698,51.004,152.106,50.627,152.136,50.154z M148.611,54.194c0.927,0.337,2.247,1.803,3.96,4.4
	c-2.163-2.243-3.732-3.365-4.705-3.365c-0.97-0.013-1.325-0.282-1.065-0.805C147.071,53.924,147.675,53.847,148.611,54.194z
	 M136.777,44.024c-0.323-0.26-0.227-0.552,0.29-0.875c0.507-0.33,0.847-2.15,1.02-5.46c0.407,3.08,0.373,4.977-0.1,5.69
	C137.503,44.079,137.1,44.294,136.777,44.024z M135.822,43.439c-0.15,0.83-0.49,1.155-1.02,0.975
	c-0.527-0.183-0.542-0.437-0.045-0.76c0.483-0.337,0.53-2.17,0.14-5.5C135.653,40.837,135.962,42.599,135.822,43.439z
	 M140.881,42.264c-0.32-0.26-0.223-0.552,0.29-0.875c0.507-0.333,1.013-2.047,1.52-5.14c0.077,2.867-0.122,4.655-0.595,5.365
	C141.61,42.314,141.205,42.531,140.881,42.264z M143.906,41.614c-0.487,0.7-0.892,0.917-1.215,0.65
	c-0.32-0.26-0.223-0.552,0.29-0.875c0.507-0.333,1.213-2.047,2.12-5.14C144.778,39.116,144.38,40.904,143.906,41.614z
	 M144.211,42.389c-0.407-0.353-0.282-0.737,0.375-1.15c0.643-0.417,1.693-1.898,3.15-4.445c-0.897,2.567-1.607,4.228-2.13,4.985
	C145.086,42.522,144.621,42.726,144.211,42.389z M130.452,45.934c-0.56,0.15-0.958-0.248-1.195-1.195
	c-0.247-0.96-0.252-2.272-0.015-3.935c0.57,2.61,1.055,4.082,1.455,4.415C131.087,45.542,131.005,45.781,130.452,45.934z
	 M139.767,57.864c0.56,0.217,0.657,0.562,0.29,1.035c-0.377,0.463-0.133,1.54,0.73,3.23c-1.49-1.193-2.17-2.26-2.04-3.2
	C138.867,57.992,139.206,57.637,139.767,57.864z M132.827,45.039c-0.653-0.183-0.823-0.437-0.51-0.76
	c0.3-0.33,0.255-2.162-0.135-5.495c0.757,2.687,1.22,4.45,1.39,5.29C133.735,44.901,133.487,45.222,132.827,45.039z M143.791,56.569
	c1.057,0.4,1.935,2.012,2.635,4.835c-1.53-2.39-2.57-3.645-3.12-3.765c-0.56-0.117-0.883-0.42-0.97-0.91
	C142.253,56.222,142.738,56.169,143.791,56.569z M142.081,57.024c0.377,0.31,0.538,0.737,0.485,1.28
	c-0.067,0.537,0.568,1.888,1.905,4.055c-2.143-1.583-3.173-2.947-3.09-4.09C141.468,57.125,141.701,56.71,142.081,57.024z
	 M144.696,55.279c0.27-0.5,0.873-0.577,1.81-0.23c0.93,0.337,2.1,1.787,3.51,4.35c-1.863-2.21-3.28-3.315-4.25-3.315
	C144.793,56.074,144.436,55.805,144.696,55.279z M137.177,63.293c-1.013-1.637-1.47-2.8-1.37-3.49c0.093-0.7,0.325-0.92,0.695-0.66
	c0.377,0.247,0.473,0.478,0.29,0.695C136.618,60.052,136.747,61.203,137.177,63.293z M69.903,72.368
	c-0.367,0.14-0.345-0.19,0.065-0.99c0.4-0.793,0.862-2.258,1.385-4.395c0.11,1.81-0.013,3.125-0.37,3.945
	C70.617,71.748,70.257,72.228,69.903,72.368z M71.488,72.008c0.353-0.473,0.952-2.057,1.795-4.75
	c-0.26,2.413-0.535,3.863-0.825,4.35c-0.293,0.483-0.617,0.79-0.97,0.92C71.122,72.658,71.122,72.485,71.488,72.008z M65.278,72.043
	c-0.367,0.14-0.345-0.188,0.065-0.985c0.397-0.8,0.817-2.637,1.26-5.51c0.193,2.55,0.113,4.235-0.24,5.055
	C65.997,71.423,65.635,71.903,65.278,72.043z M68.413,71.058c0.4-0.8,0.938-2.383,1.615-4.75c-0.04,2.043-0.238,3.475-0.595,4.295
	c-0.367,0.82-0.728,1.3-1.085,1.44C67.985,72.183,68.007,71.855,68.413,71.058z M73.088,73.148c-0.323-0.067,0.077-0.338,1.2-0.815
	c1.12-0.483,2.342-1.523,3.665-3.12c-1.56,2.403-2.682,3.677-3.365,3.82C73.911,73.173,73.411,73.212,73.088,73.148z
	 M124.567,45.219c0.883,1.607,1.628,2.427,2.235,2.46c0.59,0.02,0.643,0.198,0.16,0.535c-0.497,0.333-1.03,0.095-1.6-0.715
	C124.779,46.679,124.514,45.919,124.567,45.219z M126.927,46.109c-0.537-0.83-0.962-1.838-1.275-3.025
	c1.35,2.147,2.255,3.237,2.715,3.27c0.453,0.02,0.458,0.192,0.015,0.515C127.942,47.182,127.457,46.929,126.927,46.109z
	 M51.294,75.603c0.937,0.42,1.308,0.862,1.115,1.325c-0.193,0.453-0.642,0.41-1.345-0.13c-0.71-0.537-2.04-2.353-3.99-5.45
	C48.947,73.751,50.354,75.17,51.294,75.603z M47.849,77.188c-0.843-0.477-2.363-2.138-4.56-4.985c2.123,2.157,3.713,3.42,4.77,3.79
	c1.057,0.363,1.493,0.772,1.31,1.225C49.185,77.661,48.679,77.651,47.849,77.188z M45.924,78.218
	c1.183,0.09,1.775,0.338,1.775,0.745c-0.07,0.607-0.63,0.812-1.68,0.615c-1.043-0.183-2.707-1.65-4.99-4.4
	C43.086,77.118,44.717,78.131,45.924,78.218z M53.009,75.908c-0.607,0.227-0.98-0.172-1.12-1.195c-0.137-1.037-1.133-2.79-2.99-5.26
	c2.33,2.48,3.748,4.12,4.255,4.92C53.647,75.16,53.599,75.671,53.009,75.908z M54.884,74.453c-0.56,0.237-0.912-0.152-1.055-1.165
	c-0.163-1.023-0.993-2.753-2.49-5.19c2.04,2.407,3.275,4.007,3.705,4.8C55.474,73.688,55.42,74.207,54.884,74.453z M60.978,72.398
	c-0.487,0.217-0.648-0.208-0.485-1.275c0.16-1.077-0.002-3.157-0.485-6.24c1.067,2.77,1.617,4.662,1.65,5.675
	C61.688,71.558,61.462,72.172,60.978,72.398z M63.678,72.043c-0.357,0.14-0.373-0.248-0.05-1.165
	c0.313-0.913,0.523-2.928,0.63-6.045c0.323,3.027,0.4,4.95,0.23,5.77C64.305,71.423,64.035,71.903,63.678,72.043z M56.969,71.883
	c-0.163-1.023-0.687-3.062-1.57-6.115c1.423,2.783,2.35,4.633,2.78,5.55c0.43,0.903,0.372,1.48-0.175,1.73
	C57.454,73.285,57.109,72.897,56.969,71.883z M59.974,87.033c0.623,0.41,1.313,2.065,2.07,4.965c-1.003-2.21-1.882-3.457-2.635-3.74
	c-0.753-0.277-1.002-0.653-0.745-1.13C58.914,86.645,59.35,86.613,59.974,87.033z M56.969,88.343c-0.107-0.7,0.05-1.088,0.47-1.165
	c0.58,0.043,0.682,0.432,0.305,1.165c-0.357,0.733-0.47,1.503-0.34,2.31C57.007,90.189,56.862,89.419,56.969,88.343z M64.338,85.838
	c0.81,0.57,1.608,2.127,2.395,4.67c-1.313-2.317-2.44-3.605-3.38-3.865c-0.94-0.26-1.215-0.61-0.825-1.05
	C62.915,85.183,63.518,85.265,64.338,85.838z M48.479,89.008c-0.72,0.763-1.518,2.245-2.395,4.445
	c0.153-2.127,0.532-3.705,1.135-4.735c0.603-1.05,1.125-1.493,1.565-1.33C49.29,87.701,49.189,88.241,48.479,89.008z M35.139,84.783
	c2.113,1.003,3.767,1.478,4.96,1.425c1.19-0.053,1.812,0.12,1.865,0.52c-0.01,0.6-0.543,0.868-1.6,0.805
	C39.304,87.47,37.562,86.553,35.139,84.783z M44.969,87.388c0.507,0.313,0.403,0.853-0.31,1.62c-0.72,0.763-1.93,2.26-3.63,4.49
	c0.977-2.157,1.768-3.75,2.375-4.78C44.007,87.668,44.529,87.224,44.969,87.388z M41.674,87.823c0.6-1.047,1.122-1.488,1.565-1.325
	c0.507,0.313,0.405,0.853-0.305,1.62c-0.723,0.763-2.152,2.142-4.285,4.135C40.059,90.336,41.067,88.859,41.674,87.823z
	 M41.949,83.203c1.183-0.057,1.802,0.115,1.855,0.515c-0.007,0.603-0.54,0.873-1.6,0.81c-1.057-0.063-2.797-0.98-5.22-2.75
	C39.097,82.781,40.752,83.256,41.949,83.203z M44.809,79.818c1.35,0.217,1.98,0.547,1.89,0.99c-0.087,0.43-0.722,0.58-1.905,0.45
	c0.353,0.173,0.508,0.38,0.465,0.62c-0.087,0.43-0.603,0.595-1.55,0.495c-0.95-0.107-2.998-1.523-6.145-4.25
	c2.523,1.627,4.458,2.548,5.805,2.765c0.173,0.033,0.342,0.065,0.505,0.095c-1.157-0.547-2.683-1.857-4.58-3.93
	C41.624,78.683,43.462,79.605,44.809,79.818z M51.584,88.718c0.603-1.05,1.127-1.493,1.57-1.33c0.507,0.313,0.328,0.96-0.535,1.94
	c-0.863,0.983-1.418,2.423-1.665,4.32C50.77,91.391,50.98,89.748,51.584,88.718z M55.319,87.388c0.593,0.25,0.652,0.682,0.175,1.295
	c-0.603,0.807-0.942,2.117-1.015,3.93c-0.237-1.423-0.2-2.832,0.11-4.225C54.665,87.678,54.909,87.345,55.319,87.388z
	 M50.759,87.388c0.507,0.313,0.403,0.853-0.31,1.62c-0.72,0.763-1.102,2.368-1.145,4.815c-0.68-2.373-0.717-4.075-0.11-5.105
	C49.794,87.668,50.315,87.224,50.759,87.388z M71.273,80.808c0.973,1.057,1.707,2.258,2.2,3.605c-0.97-1.53-1.918-2.49-2.845-2.88
	c-0.723-0.3-0.89-0.71-0.5-1.23C70.475,80.056,70.857,80.225,71.273,80.808z M71.763,84.043c-0.487-0.93-1.157-1.502-2.01-1.715
	c-0.86-0.217-1.102-0.547-0.725-0.99c0.343-0.247,0.727-0.078,1.15,0.505C71.018,82.533,71.547,83.266,71.763,84.043z
	 M68.093,83.928c0.947,0.66,1.673,1.603,2.18,2.83c-0.993-1.163-1.958-1.875-2.895-2.135c-0.937-0.257-1.212-0.607-0.825-1.05
	C66.9,83.326,67.413,83.445,68.093,83.928z M67.978,82.328c0.347-0.247,0.73-0.078,1.15,0.505c0.84,0.687,1.282,1.337,1.325,1.95
	c-0.477-0.677-1.102-1.145-1.875-1.405C67.788,83.121,67.588,82.771,67.978,82.328z M65.308,84.543
	c0.347-0.25,0.86-0.132,1.54,0.355c0.947,0.657,1.777,1.805,2.49,3.445c-1.197-1.577-2.265-2.493-3.205-2.75
	C65.197,85.336,64.922,84.986,65.308,84.543z"/>
<g>
</g>
<g>
</g>
<g>
</g>
<g>
</g>
<g>
</g>
<g>
</g>
</svg>
