<?xml version="1.0" encoding="utf-8"?>
<!-- Generator: Adobe Illustrator 18.1.1, SVG Export Plug-In . SVG Version: 6.00 Build 0)  -->
<!DOCTYPE svg PUBLIC "-//W3C//DTD SVG 1.1//EN" "http://www.w3.org/Graphics/SVG/1.1/DTD/svg11.dtd">
<svg version="1.1" id="Layer_1" xmlns="http://www.w3.org/2000/svg" xmlns:xlink="http://www.w3.org/1999/xlink" x="0px" y="0px"
	 viewBox="0 0 200 200" enable-background="new 0 0 200 200" xml:space="preserve">
<rect fill="#004B6C" width="200" height="200"/>
<rect x="1" y="136" fill="#FFFFFF" width="198" height="63"/>
<g>
	<path fill="#004B6C" d="M8.536,165.122c0.936,0.576,2.304,1.056,3.744,1.056c2.136,0,3.384-1.128,3.384-2.76
		c0-1.513-0.864-2.377-3.048-3.217c-2.641-0.936-4.272-2.304-4.272-4.584c0-2.521,2.088-4.393,5.232-4.393
		c1.656,0,2.856,0.384,3.576,0.792l-0.576,1.704c-0.528-0.288-1.608-0.768-3.072-0.768c-2.208,0-3.048,1.319-3.048,2.424
		c0,1.512,0.984,2.256,3.216,3.12c2.736,1.057,4.128,2.376,4.128,4.753c0,2.496-1.848,4.656-5.665,4.656
		c-1.56,0-3.264-0.456-4.128-1.032L8.536,165.122z"/>
	<path fill="#004B6C" d="M23.057,152.713v3.336h3.024v1.608h-3.024v6.265c0,1.44,0.408,2.256,1.584,2.256
		c0.552,0,0.96-0.072,1.224-0.144l0.096,1.584c-0.408,0.168-1.056,0.288-1.872,0.288c-0.984,0-1.776-0.312-2.28-0.889
		c-0.6-0.624-0.816-1.655-0.816-3.023v-6.337h-1.8v-1.608h1.8v-2.784L23.057,152.713z"/>
	<path fill="#004B6C" d="M34.889,167.666l-0.168-1.464h-0.072c-0.648,0.912-1.896,1.728-3.552,1.728
		c-2.353,0-3.553-1.656-3.553-3.336c0-2.809,2.497-4.345,6.985-4.32v-0.24c0-0.96-0.264-2.688-2.64-2.688
		c-1.08,0-2.208,0.336-3.024,0.864l-0.48-1.392c0.96-0.624,2.352-1.032,3.816-1.032c3.552,0,4.417,2.424,4.417,4.752v4.345
		c0,1.008,0.048,1.992,0.192,2.784H34.889z M34.577,161.737c-2.304-0.048-4.92,0.36-4.92,2.616c0,1.368,0.912,2.017,1.992,2.017
		c1.512,0,2.472-0.96,2.808-1.944c0.072-0.216,0.12-0.456,0.12-0.672V161.737z"/>
	<path fill="#004B6C" d="M40.024,159.193c0-1.2-0.024-2.185-0.096-3.145H41.8l0.12,1.92h0.048c0.576-1.104,1.92-2.184,3.84-2.184
		c1.608,0,4.104,0.96,4.104,4.944v6.937h-2.112v-6.696c0-1.872-0.696-3.433-2.688-3.433c-1.393,0-2.473,0.984-2.833,2.16
		c-0.096,0.264-0.144,0.624-0.144,0.984v6.984h-2.112V159.193z"/>
	<path fill="#004B6C" d="M63.377,150.625v14.041c0,1.032,0.024,2.208,0.096,3h-1.896l-0.096-2.017h-0.048
		c-0.648,1.297-2.064,2.28-3.96,2.28c-2.808,0-4.968-2.376-4.968-5.904c-0.024-3.864,2.376-6.24,5.208-6.24
		c1.776,0,2.976,0.84,3.504,1.776h0.048v-6.937H63.377z M61.265,160.777c0-0.264-0.024-0.624-0.096-0.888
		c-0.312-1.345-1.464-2.448-3.048-2.448c-2.185,0-3.48,1.92-3.48,4.488c0,2.352,1.152,4.296,3.432,4.296
		c1.416,0,2.712-0.936,3.096-2.52c0.072-0.288,0.096-0.576,0.096-0.912V160.777z"/>
	<path fill="#004B6C" d="M73.312,167.666l-0.168-1.464h-0.072c-0.648,0.912-1.896,1.728-3.552,1.728
		c-2.353,0-3.553-1.656-3.553-3.336c0-2.809,2.497-4.345,6.985-4.32v-0.24c0-0.96-0.264-2.688-2.64-2.688
		c-1.08,0-2.208,0.336-3.024,0.864l-0.48-1.392c0.96-0.624,2.352-1.032,3.816-1.032c3.552,0,4.417,2.424,4.417,4.752v4.345
		c0,1.008,0.048,1.992,0.192,2.784H73.312z M73,161.737c-2.304-0.048-4.92,0.36-4.92,2.616c0,1.368,0.912,2.017,1.992,2.017
		c1.512,0,2.472-0.96,2.808-1.944c0.072-0.216,0.12-0.456,0.12-0.672V161.737z"/>
	<path fill="#004B6C" d="M78.447,159.673c0-1.367-0.024-2.544-0.096-3.624H80.2l0.072,2.28h0.096c0.528-1.56,1.8-2.544,3.216-2.544
		c0.24,0,0.408,0.023,0.6,0.072v1.992c-0.216-0.049-0.432-0.072-0.72-0.072c-1.488,0-2.544,1.128-2.832,2.712
		c-0.048,0.288-0.096,0.624-0.096,0.984v6.192h-2.088V159.673z"/>
	<path fill="#004B6C" d="M96.088,150.625v14.041c0,1.032,0.024,2.208,0.096,3h-1.896l-0.096-2.017h-0.048
		c-0.648,1.297-2.064,2.28-3.96,2.28c-2.808,0-4.968-2.376-4.968-5.904c-0.024-3.864,2.376-6.24,5.208-6.24
		c1.776,0,2.976,0.84,3.504,1.776h0.048v-6.937H96.088z M93.976,160.777c0-0.264-0.024-0.624-0.096-0.888
		c-0.312-1.345-1.464-2.448-3.048-2.448c-2.184,0-3.48,1.92-3.48,4.488c0,2.352,1.152,4.296,3.432,4.296
		c1.416,0,2.712-0.936,3.096-2.52c0.072-0.288,0.096-0.576,0.096-0.912V160.777z"/>
	<path fill="#004B6C" d="M104.752,151.705c1.272-0.192,2.784-0.337,4.44-0.337c3,0,5.137,0.696,6.553,2.017
		c1.439,1.32,2.28,3.192,2.28,5.809c0,2.641-0.816,4.801-2.328,6.288c-1.513,1.513-4.009,2.328-7.153,2.328
		c-1.488,0-2.736-0.071-3.792-0.191V151.705z M106.84,166.01c0.528,0.096,1.296,0.12,2.112,0.12c4.465,0,6.889-2.496,6.889-6.864
		c0.024-3.816-2.136-6.241-6.553-6.241c-1.08,0-1.896,0.097-2.448,0.217V166.01z"/>
	<path fill="#004B6C" d="M131.271,161.762c0,4.296-2.976,6.168-5.784,6.168c-3.145,0-5.568-2.304-5.568-5.977
		c0-3.888,2.544-6.168,5.761-6.168C129.016,155.785,131.271,158.209,131.271,161.762z M122.055,161.882
		c0,2.544,1.465,4.464,3.528,4.464c2.017,0,3.528-1.896,3.528-4.512c0-1.969-0.983-4.465-3.479-4.465
		C123.135,157.369,122.055,159.673,122.055,161.882z"/>
	<path fill="#004B6C" d="M142.216,167.234c-0.553,0.288-1.776,0.672-3.337,0.672c-3.504,0-5.784-2.376-5.784-5.929
		c0-3.576,2.448-6.169,6.24-6.169c1.248,0,2.353,0.312,2.929,0.601l-0.48,1.632c-0.504-0.288-1.296-0.552-2.448-0.552
		c-2.664,0-4.104,1.968-4.104,4.393c0,2.688,1.729,4.344,4.033,4.344c1.199,0,1.992-0.312,2.592-0.576L142.216,167.234z"/>
	<path fill="#004B6C" d="M144.398,165.506c0.624,0.408,1.729,0.84,2.784,0.84c1.536,0,2.257-0.768,2.257-1.728
		c0-1.009-0.601-1.561-2.16-2.137c-2.089-0.744-3.072-1.896-3.072-3.288c0-1.872,1.512-3.408,4.008-3.408
		c1.177,0,2.208,0.336,2.856,0.72l-0.528,1.536c-0.456-0.288-1.296-0.672-2.376-0.672c-1.248,0-1.944,0.72-1.944,1.584
		c0,0.96,0.696,1.393,2.208,1.969c2.017,0.768,3.049,1.775,3.049,3.504c0,2.04-1.584,3.48-4.345,3.48
		c-1.271,0-2.448-0.312-3.264-0.792L144.398,165.506z"/>
	<path fill="#004B6C" d="M16.021,180.319c-0.07-1.316-0.154-2.899-0.14-4.076h-0.042c-0.322,1.106-0.714,2.283-1.191,3.586
		l-1.667,4.581h-0.925l-1.527-4.497c-0.448-1.33-0.826-2.549-1.092-3.67H9.409c-0.028,1.177-0.098,2.76-0.182,4.175l-0.252,4.048
		H7.812l0.658-9.441h1.555l1.611,4.566c0.392,1.163,0.714,2.199,0.952,3.18h0.042c0.238-0.952,0.575-1.988,0.995-3.18l1.681-4.566
		h1.555l0.588,9.441h-1.191L16.021,180.319z"/>
	<path fill="#004B6C" d="M19.152,182.981c0.546,0.336,1.345,0.616,2.185,0.616c1.247,0,1.975-0.658,1.975-1.611
		c0-0.882-0.504-1.387-1.779-1.877c-1.541-0.546-2.493-1.345-2.493-2.676c0-1.471,1.218-2.562,3.053-2.562
		c0.967,0,1.667,0.224,2.087,0.462l-0.336,0.994c-0.308-0.168-0.938-0.448-1.793-0.448c-1.289,0-1.779,0.771-1.779,1.415
		c0,0.883,0.574,1.316,1.877,1.821c1.597,0.616,2.409,1.387,2.409,2.773c0,1.456-1.079,2.717-3.306,2.717
		c-0.911,0-1.905-0.266-2.409-0.602L19.152,182.981z"/>
	<path fill="#004B6C" d="M37.258,179.647c0,3.25-1.975,4.973-4.384,4.973c-2.493,0-4.244-1.934-4.244-4.791
		c0-2.997,1.863-4.958,4.384-4.958C35.591,174.871,37.258,176.846,37.258,179.647z M29.933,179.802c0,2.017,1.092,3.823,3.011,3.823
		c1.933,0,3.026-1.778,3.026-3.922c0-1.877-0.98-3.838-3.012-3.838C30.941,175.865,29.933,177.729,29.933,179.802z"/>
	<path fill="#004B6C" d="M47.507,175.726c-0.308-0.196-0.812-0.364-1.373-0.364c-1.302,0-1.695,0.91-1.695,1.988v0.337h3.95v6.779
		h-1.232v-5.841h-2.704v5.841H43.22v-5.841h-2.857v5.841h-1.219v-5.841h-0.952v-0.938h0.952v-0.253c0-0.854,0.224-1.681,0.812-2.255
		c0.393-0.406,0.98-0.658,1.737-0.658c0.462,0,0.938,0.168,1.19,0.294l-0.336,0.911c-0.21-0.112-0.532-0.238-0.854-0.238
		c-0.393,0-0.673,0.14-0.883,0.364c-0.336,0.364-0.448,0.98-0.448,1.568v0.267h2.857v-0.364c0-1.793,1.065-2.956,2.97-2.956
		c0.616,0,1.317,0.183,1.681,0.435L47.507,175.726z"/>
	<path fill="#004B6C" d="M55.26,184.214c-0.322,0.168-1.036,0.392-1.947,0.392c-2.045,0-3.376-1.387-3.376-3.459
		c0-2.088,1.429-3.601,3.642-3.601c0.729,0,1.373,0.183,1.709,0.351l-0.28,0.952c-0.294-0.168-0.756-0.322-1.429-0.322
		c-1.555,0-2.396,1.148-2.396,2.563c0,1.569,1.009,2.535,2.354,2.535c0.7,0,1.163-0.182,1.513-0.336L55.26,184.214z"/>
	<path fill="#004B6C" d="M57.302,181.3c0.028,1.667,1.093,2.354,2.325,2.354c0.882,0,1.415-0.154,1.877-0.351l0.21,0.883
		c-0.434,0.196-1.176,0.42-2.255,0.42c-2.087,0-3.334-1.372-3.334-3.417c0-2.046,1.205-3.656,3.18-3.656
		c2.213,0,2.802,1.947,2.802,3.193c0,0.252-0.028,0.448-0.042,0.574H57.302z M60.916,180.418c0.014-0.785-0.322-2.003-1.709-2.003
		c-1.247,0-1.793,1.148-1.891,2.003H60.916z"/>
	<path fill="#004B6C" d="M62.664,186.188c0.308-0.826,0.687-2.325,0.84-3.348l1.373-0.14c-0.322,1.19-0.938,2.745-1.331,3.403
		L62.664,186.188z"/>
	<path fill="#004B6C" d="M70.896,181.496l-0.98,2.97h-1.261l3.208-9.441h1.471l3.222,9.441h-1.303l-1.009-2.97H70.896z
		 M73.992,180.544l-0.924-2.718c-0.21-0.616-0.35-1.177-0.49-1.723h-0.028c-0.14,0.561-0.294,1.135-0.476,1.709l-0.924,2.731H73.992
		z"/>
	<path fill="#004B6C" d="M83.583,174.521v8.194c0,0.603,0.014,1.289,0.056,1.751h-1.106l-0.056-1.177h-0.028
		c-0.378,0.757-1.205,1.331-2.312,1.331c-1.639,0-2.899-1.387-2.899-3.446c-0.014-2.255,1.387-3.642,3.04-3.642
		c1.037,0,1.737,0.49,2.045,1.036h0.028v-4.048H83.583z M82.35,180.445c0-0.153-0.014-0.364-0.056-0.518
		c-0.182-0.785-0.854-1.429-1.779-1.429c-1.275,0-2.031,1.12-2.031,2.619c0,1.373,0.672,2.507,2.003,2.507
		c0.826,0,1.583-0.546,1.807-1.471c0.042-0.168,0.056-0.336,0.056-0.532V180.445z"/>
	<path fill="#004B6C" d="M91.759,181.02c0,2.508-1.737,3.601-3.375,3.601c-1.835,0-3.25-1.345-3.25-3.488
		c0-2.27,1.485-3.6,3.362-3.6C90.442,177.532,91.759,178.947,91.759,181.02z M86.38,181.09c0,1.485,0.854,2.605,2.059,2.605
		c1.177,0,2.059-1.106,2.059-2.634c0-1.148-0.574-2.604-2.031-2.604C87.01,178.457,86.38,179.802,86.38,181.09z"/>
	<path fill="#004B6C" d="M93.253,184.466c0.028-0.462,0.056-1.148,0.056-1.751v-8.194h1.219v4.258h0.028
		c0.435-0.756,1.219-1.246,2.312-1.246c1.681,0,2.872,1.4,2.858,3.46c0,2.423-1.527,3.628-3.04,3.628
		c-0.98,0-1.765-0.379-2.27-1.275h-0.042l-0.056,1.121H93.253z M94.528,181.748c0,0.154,0.028,0.309,0.056,0.448
		c0.238,0.854,0.953,1.443,1.849,1.443c1.289,0,2.059-1.051,2.059-2.605c0-1.359-0.701-2.521-2.017-2.521
		c-0.841,0-1.625,0.574-1.877,1.513c-0.028,0.14-0.07,0.309-0.07,0.504V181.748z"/>
	<path fill="#004B6C" d="M101.962,181.3c0.028,1.667,1.093,2.354,2.325,2.354c0.883,0,1.415-0.154,1.877-0.351l0.21,0.883
		c-0.434,0.196-1.177,0.42-2.255,0.42c-2.087,0-3.334-1.372-3.334-3.417c0-2.046,1.206-3.656,3.18-3.656
		c2.213,0,2.802,1.947,2.802,3.193c0,0.252-0.028,0.448-0.042,0.574H101.962z M105.576,180.418c0.014-0.785-0.322-2.003-1.709-2.003
		c-1.247,0-1.793,1.148-1.892,2.003H105.576z"/>
	<path fill="#004B6C" d="M107.323,186.188c0.308-0.826,0.686-2.325,0.84-3.348l1.373-0.14c-0.322,1.19-0.938,2.745-1.331,3.403
		L107.323,186.188z"/>
	<path fill="#004B6C" d="M121.985,180.319c-0.069-1.316-0.153-2.899-0.14-4.076h-0.042c-0.322,1.106-0.715,2.283-1.19,3.586
		l-1.667,4.581h-0.925l-1.526-4.497c-0.448-1.33-0.827-2.549-1.093-3.67h-0.028c-0.028,1.177-0.098,2.76-0.182,4.175l-0.253,4.048
		h-1.162l0.658-9.441h1.555l1.611,4.566c0.392,1.163,0.714,2.199,0.952,3.18h0.042c0.238-0.952,0.574-1.988,0.995-3.18l1.681-4.566
		h1.555l0.588,9.441h-1.19L121.985,180.319z"/>
	<path fill="#004B6C" d="M125.285,175.137c0.589-0.098,1.358-0.182,2.34-0.182c1.204,0,2.087,0.279,2.647,0.784
		c0.518,0.448,0.826,1.135,0.826,1.975c0,0.854-0.252,1.527-0.729,2.018c-0.645,0.687-1.695,1.036-2.886,1.036
		c-0.364,0-0.7-0.014-0.98-0.084v3.782h-1.219V175.137z M126.504,179.689c0.267,0.069,0.603,0.098,1.009,0.098
		c1.471,0,2.367-0.714,2.367-2.017c0-1.247-0.883-1.85-2.228-1.85c-0.532,0-0.938,0.042-1.148,0.099V179.689z"/>
	<path fill="#004B6C" d="M136.109,184.466v-2.479h-4.23v-0.812l4.062-5.812h1.331v5.658h1.274v0.967h-1.274v2.479H136.109z
		 M136.109,181.02v-3.039c0-0.477,0.014-0.953,0.042-1.429h-0.042c-0.28,0.532-0.504,0.924-0.757,1.345l-2.227,3.096v0.027H136.109z
		"/>
	<path fill="#004B6C" d="M139.075,186.188c0.308-0.826,0.686-2.325,0.84-3.348l1.373-0.14c-0.322,1.19-0.938,2.745-1.331,3.403
		L139.075,186.188z"/>
	<path fill="#004B6C" d="M145.444,183.737c0-0.519,0.35-0.883,0.84-0.883c0.491,0,0.827,0.364,0.827,0.883
		c0,0.504-0.322,0.883-0.841,0.883C145.78,184.62,145.444,184.241,145.444,183.737z"/>
	<path fill="#004B6C" d="M148.343,183.737c0-0.519,0.35-0.883,0.84-0.883c0.491,0,0.827,0.364,0.827,0.883
		c0,0.504-0.322,0.883-0.841,0.883C148.679,184.62,148.343,184.241,148.343,183.737z"/>
	<path fill="#004B6C" d="M151.24,183.737c0-0.519,0.35-0.883,0.841-0.883c0.49,0,0.826,0.364,0.826,0.883
		c0,0.504-0.322,0.883-0.841,0.883C151.576,184.62,151.24,184.241,151.24,183.737z"/>
</g>
<path fill="#FFFFFF" d="M98.163,41.167h7.408V30.056h11.111v-7.408H105.57V11.537h-7.408v11.111H87.052v7.408h11.111V41.167z"/>
<path fill="#FFFFFF" d="M124.088,30.056v22.222H79.644V30.056h-7.408V54.13c0,3.056,2.5,5.556,5.556,5.556h48.148
	c3.056,0,5.556-2.5,5.556-5.556V30.056H124.088z"/>
<g>
	<path fill="#FFFFFF" d="M36.572,101.246h1.974l-2.277,10.097l-2.96-14.197h-4.757l-3.443,14.197l-2.58-14.197h-4.975l5.048,22.852
		h4.86l3.406-13.514l3.046,13.514h4.48l5.786-22.852h-7.608C36.572,97.146,36.572,101.246,36.572,101.246z"/>
	<path fill="#FFFFFF" d="M48.983,90.226c-0.992-1.352-2.374-2.934-3.892-4.452s-3.1-2.9-4.452-3.892
		C38.338,80.194,37.22,80,36.58,80H14.438c-1.968,0-3.572,1.603-3.572,3.572v38.572c0,1.968,1.603,3.572,3.572,3.572h32.857
		c1.968,0,3.572-1.603,3.572-3.572V94.286C50.866,93.646,50.672,92.528,48.983,90.226L48.983,90.226z M43.069,87.797
		c1.372,1.372,2.446,2.606,3.24,3.632h-6.874v-6.872c1.026,0.794,2.263,1.868,3.632,3.24l0,0H43.069z M48.009,122.143
		c0,0.388-0.326,0.714-0.714,0.714H14.438c-0.386,0-0.714-0.326-0.714-0.714V83.571c0-0.386,0.328-0.714,0.714-0.714
		c0,0,22.14,0,22.143,0v10c0,0.788,0.64,1.428,1.428,1.428h10V122.143z"/>
</g>
<g>
	<path fill="#FFFFFF" d="M87.847,97.143h-6.04l-4.274,6.297l-4.274-6.297h-6.04l7.24,10.823L66.29,120h11.243v-4.088h-2.24
		l2.24-3.348L82.507,120h6.268l-8.168-12.034C80.607,107.966,87.847,97.143,87.847,97.143z"/>
	<path fill="#FFFFFF" d="M95.65,90.226c-0.992-1.352-2.374-2.934-3.892-4.452s-3.1-2.9-4.452-3.892
		C85.004,80.194,83.887,80,83.247,80H61.104c-1.968,0-3.572,1.603-3.572,3.572v38.572c0,1.968,1.603,3.572,3.572,3.572h32.857
		c1.968,0,3.572-1.603,3.572-3.572V94.286C97.533,93.646,97.339,92.528,95.65,90.226L95.65,90.226z M89.736,87.797
		c1.372,1.372,2.446,2.606,3.24,3.632h-6.874v-6.872c1.026,0.794,2.263,1.868,3.632,3.24l0,0H89.736z M94.676,122.143
		c0,0.388-0.326,0.714-0.714,0.714H61.104c-0.386,0-0.714-0.326-0.714-0.714V83.571c0-0.386,0.328-0.714,0.714-0.714
		c0,0,22.14,0,22.143,0v10c0,0.788,0.64,1.428,1.428,1.428h10L94.676,122.143L94.676,122.143z"/>
</g>
<g>
	<path fill="#FFFFFF" d="M138.931,106.317c-0.608-0.6-1.96-0.917-4.017-0.946c-1.392-0.014-3.066,0.108-4.828,0.354
		c-0.788-0.454-1.603-0.952-2.24-1.548c-1.717-1.603-3.152-3.828-4.043-6.277c0.057-0.228,0.108-0.428,0.154-0.634
		c0,0,0.968-5.494,0.712-7.352c-0.034-0.254-0.057-0.328-0.126-0.526l-0.083-0.217c-0.263-0.606-0.78-1.248-1.588-1.214
		l-0.488-0.014c-0.903,0-1.637,0.46-1.828,1.152c-0.586,2.163,0.02,5.397,1.114,9.586l-0.28,0.683
		c-0.786,1.914-1.768,3.843-2.637,5.543l-0.114,0.22c-0.914,1.788-1.743,3.306-2.494,4.592l-0.774,0.412
		c-0.057,0.028-1.386,0.734-1.697,0.923c-2.646,1.58-4.397,3.372-4.688,4.794c-0.092,0.454-0.023,1.034,0.446,1.303l0.752,0.377
		c0.326,0.163,0.668,0.246,1.02,0.246c1.883,0,4.072-2.346,7.086-7.606c3.48-1.132,7.44-2.074,10.912-2.594
		c2.646,1.488,5.9,2.523,7.952,2.523c0.366,0,0.68-0.034,0.934-0.103c0.394-0.106,0.726-0.328,0.928-0.634
		c0.397-0.6,0.48-1.426,0.372-2.272c-0.032-0.252-0.232-0.56-0.448-0.774L138.931,106.317z M110.791,116.343
		c0.343-0.94,1.703-2.797,3.714-4.446c0.126-0.103,0.437-0.394,0.723-0.666c-2.103,3.354-3.512,4.692-4.437,5.108L110.791,116.343z
		 M122.702,88.914c0.606,0,0.952,1.526,0.98,2.957s-0.306,2.437-0.72,3.18c-0.343-1.1-0.512-2.834-0.512-3.968
		C122.451,91.083,122.425,88.914,122.702,88.914L122.702,88.914z M119.148,108.46c0.423-0.754,0.86-1.552,1.308-2.397
		c1.094-2.068,1.783-3.686,2.297-5.014c1.023,1.86,2.297,3.443,3.794,4.712c0.186,0.157,0.386,0.317,0.592,0.474
		c-3.046,0.603-5.677,1.334-7.994,2.226l0,0H119.148z M138.348,108.288c-0.186,0.117-0.717,0.183-1.057,0.183
		c-1.103,0-2.468-0.503-4.38-1.326c0.734-0.054,1.408-0.083,2.014-0.083c1.106,0,1.434-0.006,2.514,0.272
		c1.08,0.277,1.094,0.837,0.908,0.952l0,0L138.348,108.288L138.348,108.288z"/>
	<path fill="#FFFFFF" d="M142.316,90.226c-0.992-1.352-2.374-2.934-3.892-4.452s-3.1-2.9-4.452-3.892
		c-2.303-1.688-3.42-1.883-4.06-1.883h-22.143c-1.968,0-3.572,1.603-3.572,3.572v38.572c0,1.968,1.603,3.572,3.572,3.572h32.857
		c1.968,0,3.572-1.603,3.572-3.572V94.286C144.2,93.646,144.005,92.528,142.316,90.226L142.316,90.226z M136.402,87.797
		c1.372,1.372,2.446,2.606,3.24,3.632h-6.874v-6.872c1.026,0.794,2.263,1.868,3.632,3.24l0,0H136.402z M141.342,122.143
		c0,0.388-0.326,0.714-0.714,0.714h-32.857c-0.386,0-0.714-0.326-0.714-0.714V83.571c0-0.386,0.328-0.714,0.714-0.714
		c0,0,22.14,0,22.143,0v10c0,0.788,0.64,1.428,1.428,1.428h10L141.342,122.143L141.342,122.143z"/>
</g>
<g>
	<path fill="#FFFFFF" d="M188.983,90.226c-0.992-1.352-2.374-2.934-3.892-4.452s-3.1-2.9-4.452-3.892
		c-2.303-1.688-3.42-1.883-4.06-1.883h-22.143c-1.968,0-3.572,1.603-3.572,3.572v38.572c0,1.968,1.603,3.572,3.572,3.572h32.857
		c1.968,0,3.572-1.603,3.572-3.572V94.286C190.866,93.646,190.672,92.528,188.983,90.226L188.983,90.226L188.983,90.226z
		 M183.069,87.797c1.372,1.372,2.446,2.606,3.24,3.632h-6.874v-6.872c1.026,0.794,2.263,1.868,3.632,3.24l0,0l0,0H183.069z
		 M188.009,122.143c0,0.388-0.326,0.714-0.714,0.714h-32.857c-0.386,0-0.714-0.326-0.714-0.714V83.571
		c0-0.386,0.328-0.714,0.714-0.714c0,0,22.14,0,22.143,0v10c0,0.788,0.64,1.428,1.428,1.428h10L188.009,122.143L188.009,122.143z"/>
	<path fill="#FFFFFF" d="M159.438,102.857h14.286v14.286h-14.286V102.857z"/>
	<path fill="#FFFFFF" d="M173.723,108.572l8.572-5.714v14.286l-8.572-5.714V108.572z"/>
</g>
<g>
</g>
<g>
</g>
<g>
</g>
<g>
</g>
<g>
</g>
<g>
</g>
</svg>
