<?xml version="1.0" encoding="utf-8"?>
<!-- Generator: Adobe Illustrator 22.1.0, SVG Export Plug-In . SVG Version: 6.00 Build 0)  -->
<!DOCTYPE svg PUBLIC "-//W3C//DTD SVG 1.0//EN" "http://www.w3.org/TR/2001/REC-SVG-20010904/DTD/svg10.dtd">
<svg version="1.0" id="Layer_1" xmlns="http://www.w3.org/2000/svg" xmlns:xlink="http://www.w3.org/1999/xlink" x="0px" y="0px"
	 viewBox="0 0 170 170" style="enable-background:new 0 0 170 170;" xml:space="preserve">
<style type="text/css">
	.st0{fill:#869FB7;}
	.st1{fill:#577C99;}
	.st2{fill:#004B6C;}
</style>
<g>
	<path class="st0" d="M58,25c-7.2,3.6-14.5,8.9-17.5,34.1c-3.8,31.6-8.6,65.1-2.3,78.8c6.3,13.6,42.4,11.4,60.6,11.4
		c31.8,0,36.7-1.1,36.7-17.8c0-8.3-1.5-32.2-6-61c-3.3-21.2-5.2-37.9-18-43.5C92.4,18.6,67.3,20.3,58,25z"/>
	<path class="st1" d="M82.4,152.4c-19.5,0-41.4-1.4-46.9-13.2c-6.2-13.4-2.6-42.6,1.2-73.5c0.3-2.3,0.6-4.6,0.8-6.9
		c3.2-26.4,11.2-32.5,19.2-36.5c10.1-5,36.2-6.7,56,1.9c13.5,5.9,16,22,19.2,42.2l0.6,3.5c4.4,28,6,52.1,6,61.5
		c0,19.9-8.9,20.8-39.7,20.8c-2.1,0-4.4,0-6.9,0.1C88.9,152.4,85.7,152.4,82.4,152.4z M80.6,24.1c-9.1,0-17,1.4-21.3,3.6
		c-5.4,2.7-12.8,6.4-15.9,31.8c-0.3,2.3-0.6,4.6-0.8,6.9c-3.5,28.7-7.2,58.4-1.7,70.2c4.8,10.3,33.7,9.9,50.9,9.7
		c2.5,0,4.8-0.1,6.9-0.1c32.6,0,33.7-1.5,33.7-14.8c0-9.2-1.6-32.8-6-60.5l-0.6-3.5c-2.9-18.5-5.2-33.1-15.7-37.7
		C101.1,25.7,90.2,24.1,80.6,24.1z"/>
</g>
<g>
	<path class="st2" d="M14.2,130.1C9,117.2,6.3,103.8,6,90.1c-0.3-15.3,2.5-30.3,8.2-44.7l5.6,2.2c-5.5,13.6-8.1,27.8-7.8,42.3
		c0.3,13,2.9,25.7,7.8,37.9L14.2,130.1z"/>
	<g>
		<polygon class="st2" points="23.6,116.5 15.6,125.5 3.6,126.1 25,145 		"/>
	</g>
	<g>
		<polygon class="st2" points="23.6,59 15.7,50 3.6,49.4 25,30.5 		"/>
	</g>
</g>
<g>
	<path class="st2" d="M155.8,130.1l-5.6-2.2c5.5-13.6,8.1-27.8,7.8-42.3c-0.3-13-2.9-25.7-7.8-37.9l5.6-2.2
		c5.2,12.8,7.9,26.3,8.2,40C164.3,100.7,161.5,115.7,155.8,130.1z"/>
	<g>
		<polygon class="st2" points="146.4,59 154.4,50 166.4,49.4 145,30.5 		"/>
	</g>
	<g>
		<polygon class="st2" points="146.3,116.5 154.3,125.5 166.4,126.1 145,145 		"/>
	</g>
</g>
<g>
</g>
<g>
</g>
<g>
</g>
<g>
</g>
<g>
</g>
<g>
</g>
</svg>
