<?xml version="1.0" encoding="utf-8"?>
<!-- Generator: Adobe Illustrator 24.1.2, SVG Export Plug-In . SVG Version: 6.00 Build 0)  -->
<svg version="1.1" id="Layer_1" xmlns="http://www.w3.org/2000/svg" xmlns:xlink="http://www.w3.org/1999/xlink" x="0px" y="0px"
	 viewBox="0 0 90 170" style="enable-background:new 0 0 90 170;" xml:space="preserve">
<style type="text/css">
	.st0{fill:#20627F;}
</style>
<path class="st0" d="M67.5,25.7l-0.7,0.3l-0.8,0.4c-0.5,0.3-1.1,0.6-1.6,1c-1.1,0.7-2.1,1.5-3.2,2.3c-2.1,1.6-4,3.4-5.8,5.3
	c-3.6,3.8-6.7,8.1-9.2,12.8C45,50.1,44,52.6,43,55c-0.4,1.3-0.9,2.5-1.3,3.8c-0.2,0.6-0.4,1.3-0.6,1.9l-0.5,1.9
	c-1.3,5.2-2,10.5-2.2,16c-0.4,10.8,1.2,21.7,4.8,31.8c1.8,5.1,4.1,10,6.9,14.6c0.7,1.2,1.4,2.3,2.1,3.4l1,1.5
	c0.2,0.4,0.5,0.7,0.8,1.1l6.9-4.8c0.1,3.9,0.5,8,1.2,12c0.7,4.1,1.8,8.2,3.4,12.3c-4.4-0.7-8.7-1.9-13.1-3.4
	c-4.4-1.5-8.7-3.5-13-5.7l6.9-4.8c-0.3-0.4-0.6-0.8-0.9-1.2l-1.1-1.6c-0.8-1.3-1.6-2.5-2.4-3.8c-3.1-5.2-5.6-10.6-7.6-16.3
	c-4-11.3-5.8-23.4-5.4-35.4c0.2-6,1-12,2.4-17.9l0.6-2.2c0.2-0.7,0.4-1.5,0.7-2.2c0.4-1.5,1-2.9,1.5-4.3c1.1-2.8,2.3-5.7,3.8-8.3
	c2.9-5.4,6.5-10.5,10.7-14.9c2.1-2.2,4.4-4.3,6.9-6.2c1.2-1,2.5-1.9,3.8-2.7c0.7-0.4,1.3-0.8,2-1.2c0.3-0.2,0.7-0.4,1.1-0.6
	c0.4-0.2,0.7-0.4,1.2-0.6L67.5,25.7z"/>
</svg>
