<?xml version="1.0" encoding="utf-8"?>
<!-- Generator: Adobe Illustrator 24.1.2, SVG Export Plug-In . SVG Version: 6.00 Build 0)  -->
<svg version="1.1" id="Layer_1" xmlns="http://www.w3.org/2000/svg" xmlns:xlink="http://www.w3.org/1999/xlink" x="0px" y="0px"
	 viewBox="0 0 130 170" style="enable-background:new 0 0 130 170;" xml:space="preserve">
<style type="text/css">
	.st0{fill:#869FB7;}
	.st1{fill:#577C99;}
</style>
<g>
	<path class="st0" d="M51.3,6.4c-8,0-22.5,24.1-31.3,50.3c-10,29.9-8,84.6-5.5,93.2c2.2,7.8,4.4,11.9,8.1,12.7
		c3.3,0.7,12.7-7.9,17.3-15c5.5-8.5,24-55.3,36-60.3c13.9-5.8,25.7-15,31.7-24c6.1-9.1,14.6-34.1,8.7-32c-5.5,2-26.3,8.3-38.3,3.3
		C60.5,27.4,59.7,6.4,51.3,6.4z"/>
	<path class="st1" d="M23,165.2c-0.3,0-0.6,0-0.8-0.1c-5.1-1-7.6-6.3-10-14.4C9.7,142,7.6,86.4,17.7,56C24.9,34.4,40.1,4,51.3,4
		c5.2,0,7.9,4.9,10.9,10.5c3.4,6.3,7.7,14.1,16.7,17.9c10,4.2,28.3-0.4,36.5-3.4c1.7-0.6,3.3-0.2,4.3,1.1c4.1,5.3-5.9,28.4-10,34.7
		c-6.5,9.8-18.8,19.1-32.8,24.9c-7.8,3.2-20.1,29.2-27.4,44.7c-3.2,6.8-5.8,12.2-7.4,14.7C38.3,154.9,28.7,165.2,23,165.2z
		 M51.3,8.9c-2.1,0-6.8,3.7-13.2,14.1c-5.8,9.4-11.5,22-15.7,34.5c-9.9,29.6-7.9,83.3-5.5,91.8c2.1,7.3,3.9,10.5,6.2,10.9
		c1.8,0,9.9-6.5,14.7-13.9c1.5-2.2,4.1-7.8,7.1-14.1c10.8-22.8,21.2-43.5,30-47.1c13-5.4,24.7-14.2,30.5-23.1
		c4.1-6.2,10.3-22.5,10.3-27.8c-5.4,1.8-26.2,8.1-38.9,2.8c-10.6-4.4-15.6-13.5-19.2-20.1C55.6,12.6,53.6,8.9,51.3,8.9z"/>
</g>
</svg>
