<?xml version="1.0" encoding="utf-8"?>
<!-- Generator: Adobe Illustrator 24.1.2, SVG Export Plug-In . SVG Version: 6.00 Build 0)  -->
<svg version="1.1" id="Layer_1" xmlns="http://www.w3.org/2000/svg" xmlns:xlink="http://www.w3.org/1999/xlink" x="0px" y="0px"
	 viewBox="0 0 130 170" style="enable-background:new 0 0 130 170;" xml:space="preserve">
<style type="text/css">
	.st0{fill:#869FB7;}
	.st1{fill:#577C99;}
</style>
<g>
	<path class="st0" d="M38,25c-7.2,3.6-14.5,8.9-17.5,34.1c-3.8,31.6-8.6,65.1-2.3,78.8c6.3,13.6,42.4,11.4,60.6,11.4
		c31.8,0,36.7-1.1,36.7-17.8c0-8.3-1.5-32.2-6-61c-3.3-21.2-5.2-37.9-18-43.5C72.4,18.6,47.3,20.3,38,25z"/>
	<path class="st1" d="M62.4,152.4c-19.5,0-41.4-1.4-46.9-13.2c-6.2-13.4-2.6-42.6,1.2-73.5c0.3-2.3,0.6-4.6,0.8-6.9
		c3.2-26.4,11.2-32.5,19.2-36.5c10.1-5,36.2-6.7,56,1.9c13.5,5.9,16,22,19.2,42.2l0.6,3.5c4.4,28,6,52.1,6,61.5
		c0,19.9-8.9,20.8-39.7,20.8c-2.1,0-4.4,0-6.9,0.1C68.9,152.4,65.7,152.4,62.4,152.4z M60.6,24.1c-9.1,0-17,1.4-21.3,3.6
		c-5.4,2.7-12.8,6.4-15.9,31.8c-0.3,2.3-0.6,4.6-0.8,6.9c-3.5,28.7-7.2,58.4-1.7,70.2c4.8,10.3,33.7,9.9,50.9,9.7
		c2.5,0,4.8-0.1,6.9-0.1c32.6,0,33.7-1.5,33.7-14.8c0-9.2-1.6-32.8-6-60.5l-0.6-3.5c-2.9-18.5-5.2-33.1-15.7-37.7
		C81.1,25.7,70.2,24.1,60.6,24.1z"/>
</g>
</svg>
