<?xml version="1.0" encoding="utf-8"?>
<!-- Generator: Adobe Illustrator 24.1.2, SVG Export Plug-In . SVG Version: 6.00 Build 0)  -->
<svg version="1.1" id="Layer_38" xmlns="http://www.w3.org/2000/svg" xmlns:xlink="http://www.w3.org/1999/xlink" x="0px" y="0px"
	 viewBox="0 0 16 16" enable-background="new 0 0 16 16" xml:space="preserve">
<g>
	<path fill="#1C4B6C" d="M6.358,6.607c0.029,0.028,0.066,0.042,0.103,0.042c0.039,0,0.077-0.015,0.106-0.045
		c0.057-0.059,0.055-0.152-0.003-0.209L6.209,6.052C6.151,5.995,6.057,5.996,6,6.055C5.943,6.114,5.945,6.207,6.003,6.264
		L6.358,6.607z"/>
	<path fill="#1C4B6C" d="M5.288,5.159C5.23,5.102,5.136,5.104,5.079,5.162C5.022,5.221,5.024,5.315,5.082,5.372l0.354,0.343
		c0.029,0.028,0.066,0.042,0.103,0.042c0.039,0,0.077-0.015,0.106-0.045c0.057-0.059,0.055-0.152-0.003-0.209L5.288,5.159z"/>
	<circle fill="#1C4B6C" cx="2.211" cy="2.124" r="0.756"/>
	<path fill="#1C4B6C" d="M1.985,3.928c0.076,0.01,0.152,0.014,0.227,0.014c0.385,0,0.748-0.124,1.048-0.336L3.594,3.93
		C3.623,3.958,3.66,3.972,3.697,3.972c0.039,0,0.077-0.015,0.106-0.045C3.86,3.868,3.859,3.774,3.8,3.717L3.488,3.415
		C3.768,3.138,3.962,2.77,4.015,2.35c0.125-0.994-0.583-1.905-1.577-2.03c-0.994-0.124-1.905,0.583-2.03,1.577
		C0.347,2.38,0.478,2.856,0.776,3.24S1.504,3.867,1.985,3.928z M0.83,1.951c0.088-0.703,0.689-1.219,1.38-1.219
		c0.058,0,0.116,0.004,0.174,0.011c0.762,0.095,1.304,0.793,1.208,1.555C3.497,3.059,2.8,3.601,2.038,3.506
		C1.669,3.459,1.34,3.272,1.112,2.979S0.784,2.32,0.83,1.951z"/>
	<path fill="#1C4B6C" d="M15.511,8.075h-1.489c-0.122-2.982-2.53-5.384-5.514-5.497V1.073c0-0.122-0.099-0.221-0.221-0.221
		S8.066,0.95,8.066,1.073v1.505C6.587,2.634,5.25,3.252,4.262,4.225C4.224,4.225,4.186,4.24,4.158,4.27
		C4.13,4.299,4.116,4.337,4.116,4.375C3.195,5.35,2.611,6.645,2.552,8.075H1.063c-0.122,0-0.221,0.099-0.221,0.221
		s0.099,0.221,0.221,0.221h1.488c0.105,2.998,2.519,5.417,5.515,5.531v1.471c0,0.122,0.099,0.221,0.221,0.221
		s0.221-0.099,0.221-0.221v-1.471c2.996-0.114,5.409-2.534,5.515-5.531h1.488c0.122,0,0.221-0.099,0.221-0.221
		S15.633,8.075,15.511,8.075z M13.596,8.075h-3.533C9.99,7.218,9.342,6.525,8.508,6.379V3.004
		C11.257,3.117,13.474,5.328,13.596,8.075z M7.078,7.306l0.2,0.194c0.029,0.028,0.066,0.042,0.103,0.042
		c0.039,0,0.077-0.015,0.106-0.045c0.057-0.059,0.055-0.152-0.003-0.209L7.292,7.1C7.509,6.93,7.775,6.82,8.066,6.797v0.664
		C7.741,7.51,7.481,7.757,7.414,8.075H6.746C6.779,7.784,6.898,7.519,7.078,7.306z M7.449,8.517
		c0.099,0.261,0.333,0.454,0.617,0.496v0.664C7.417,9.625,6.888,9.144,6.764,8.517H7.449z M8.508,8.952
		C8.695,8.867,8.843,8.71,8.917,8.517h0.685C9.492,9.075,9.06,9.518,8.508,9.646V8.952z M8.952,8.075
		C8.9,7.828,8.732,7.625,8.508,7.523V6.829c0.59,0.136,1.043,0.633,1.112,1.246H8.952z M4.392,4.703l0.124,0.12
		C4.544,4.85,4.581,4.864,4.618,4.864c0.039,0,0.077-0.015,0.106-0.045C4.782,4.76,4.78,4.667,4.721,4.61L4.599,4.492
		c0.907-0.875,2.123-1.432,3.467-1.487v3.351c-0.933,0.058-1.684,0.793-1.763,1.72H2.978C3.036,6.776,3.562,5.597,4.392,4.703z
		 M2.978,8.517h3.34c0.13,0.871,0.855,1.548,1.748,1.603v3.503C5.305,13.509,3.082,11.28,2.978,8.517z M8.508,13.622v-3.527
		c0.796-0.139,1.42-0.777,1.54-1.579h3.548C13.492,11.28,11.269,13.509,8.508,13.622z"/>
</g>
</svg>
