<?xml version="1.0" encoding="utf-8"?>
<!-- Generator: Adobe Illustrator 22.1.0, SVG Export Plug-In . SVG Version: 6.00 Build 0)  -->
<!DOCTYPE svg PUBLIC "-//W3C//DTD SVG 1.0//EN" "http://www.w3.org/TR/2001/REC-SVG-20010904/DTD/svg10.dtd">
<svg version="1.0" id="Layer_1" xmlns="http://www.w3.org/2000/svg" xmlns:xlink="http://www.w3.org/1999/xlink" x="0px" y="0px"
	 viewBox="0 0 170 170" style="enable-background:new 0 0 170 170;" xml:space="preserve">
<style type="text/css">
	.st0{fill:#869FB7;}
	.st1{fill:#577C99;}
	.st2{fill:#004B6C;}
</style>
<g>
	<path class="st0" d="M66,23c-7.2,3.6-14.5,8.9-17.5,34.1c-3.8,31.6-8.6,65.1-2.3,78.8c6.3,13.6,42.4,11.4,60.6,11.4
		c31.8,0,36.7-1.1,36.7-17.8c0-8.3-1.5-32.2-6-61c-3.3-21.2-5.2-37.9-18-43.5C100.4,16.6,75.3,18.3,66,23z"/>
	<path class="st1" d="M90.4,150.4c-19.5,0-41.4-1.4-46.9-13.2c-6.2-13.4-2.6-42.6,1.2-73.5c0.3-2.3,0.6-4.6,0.8-6.9
		c3.2-26.4,11.2-32.5,19.2-36.5c10.1-5,36.2-6.7,56,1.9c13.5,5.9,16,22,19.2,42.2l0.6,3.5c4.4,28,6,52.1,6,61.5
		c0,19.9-8.9,20.8-39.7,20.8c-2.1,0-4.4,0-6.9,0.1C96.9,150.4,93.7,150.4,90.4,150.4z M88.6,22.1c-9.1,0-17,1.4-21.3,3.6
		c-5.4,2.7-12.8,6.4-15.9,31.8c-0.3,2.3-0.6,4.6-0.8,6.9c-3.5,28.7-7.2,58.4-1.7,70.2c4.8,10.3,33.7,9.9,50.9,9.7
		c2.5,0,4.8-0.1,6.9-0.1c32.6,0,33.7-1.5,33.7-14.8c0-9.2-1.6-32.8-6-60.5l-0.6-3.5c-2.9-18.5-5.2-33.1-15.7-37.7
		C109.1,23.7,98.2,22.1,88.6,22.1z"/>
</g>
<g>
	<rect x="0.1" y="81.5" transform="matrix(0.7243 -0.6895 0.6895 0.7243 -34.3215 83.1656)" class="st2" width="173.5" height="6"/>
	<g>
		<polygon class="st2" points="37.7,146.6 26.7,141.8 22.4,130.5 11,156.7 		"/>
	</g>
	<g>
		<polygon class="st2" points="151.2,38.5 147,27.2 135.9,22.4 162.7,12.3 		"/>
	</g>
</g>
<g>
	<path class="st2" d="M10.8,130.3l-7.8-24.3h4.8l3.3,11c0.9,3.1,1.7,5.9,2.4,8.9h0.1c0.6-2.9,1.5-5.8,2.5-8.8l3.5-11.1h4.7
		l-8.4,24.3H10.8z"/>
</g>
<g>
	<path class="st2" d="M152.9,40.7h4.4v20.6h10V65h-14.4V40.7z"/>
</g>
<g>
</g>
<g>
</g>
<g>
</g>
<g>
</g>
<g>
</g>
<g>
</g>
</svg>
